<svg xmlns="http://www.w3.org/2000/svg" xmlns:xlink="http://www.w3.org/1999/xlink" width="2000" zoomAndPan="magnify" viewBox="0 0 1500 1499.999933" height="2000" preserveAspectRatio="xMidYMid meet" version="1.0"><defs><clipPath id="2f576177a3"><path d="M 419 1 L 1146 1 L 1146 453.921875 L 419 453.921875 Z M 419 1 " clip-rule="nonzero"/></clipPath><clipPath id="79b2c33f8d"><path d="M 520 247 L 527 247 L 527 453.921875 L 520 453.921875 Z M 520 247 " clip-rule="nonzero"/></clipPath><clipPath id="c47955d3b0"><path d="M 625 246 L 631 246 L 631 453.921875 L 625 453.921875 Z M 625 246 " clip-rule="nonzero"/></clipPath><clipPath id="433c026307"><path d="M 831 247 L 838 247 L 838 453.921875 L 831 453.921875 Z M 831 247 " clip-rule="nonzero"/></clipPath><clipPath id="d3122e1e6d"><path d="M 934 247 L 940 247 L 940 453.921875 L 934 453.921875 Z M 934 247 " clip-rule="nonzero"/></clipPath><clipPath id="203bc04a4c"><path d="M 1039 247 L 1046 247 L 1046 453.921875 L 1039 453.921875 Z M 1039 247 " clip-rule="nonzero"/></clipPath><clipPath id="e1a348b827"><path d="M 728 0.148438 L 734 0.148438 L 734 453.921875 L 728 453.921875 Z M 728 0.148438 " clip-rule="nonzero"/></clipPath><clipPath id="15c4b4e7b3"><path d="M 1146 0.148438 L 1462.253906 0.148438 L 1462.253906 453 L 1146 453 Z M 1146 0.148438 " clip-rule="nonzero"/></clipPath><clipPath id="1047056491"><path d="M 1247 245 L 1254 245 L 1254 453.921875 L 1247 453.921875 Z M 1247 245 " clip-rule="nonzero"/></clipPath><clipPath id="4f8fb39499"><path d="M 1455 0.148438 L 1462 0.148438 L 1462 453.921875 L 1455 453.921875 Z M 1455 0.148438 " clip-rule="nonzero"/></clipPath><clipPath id="5bbbcc2dcf"><path d="M 2.039062 1.769531 L 420 1.769531 L 420 454 L 2.039062 454 Z M 2.039062 1.769531 " clip-rule="nonzero"/></clipPath><clipPath id="13c5d7b630"><path d="M 105 247 L 112 247 L 112 455.546875 L 105 455.546875 Z M 105 247 " clip-rule="nonzero"/></clipPath><clipPath id="a413ca8fb9"><path d="M 208 247 L 214 247 L 214 455.546875 L 208 455.546875 Z M 208 247 " clip-rule="nonzero"/></clipPath><clipPath id="297cbeead8"><path d="M 313 247 L 320 247 L 320 455.546875 L 313 455.546875 Z M 313 247 " clip-rule="nonzero"/></clipPath><clipPath id="dae594663f"><path d="M 2.039062 1.769531 L 8 1.769531 L 8 455 L 2.039062 455 Z M 2.039062 1.769531 " clip-rule="nonzero"/></clipPath><clipPath id="169420172e"><path d="M 233.773438 360.265625 L 298.925781 360.265625 L 298.925781 425.417969 L 233.773438 425.417969 Z M 233.773438 360.265625 " clip-rule="nonzero"/></clipPath><clipPath id="3e9f2889e5"><path d="M 650.226562 360.265625 L 715.378906 360.265625 L 715.378906 425.417969 L 650.226562 425.417969 Z M 650.226562 360.265625 " clip-rule="nonzero"/></clipPath><clipPath id="08e5b3af57"><path d="M 493.257812 175.28125 L 557 175.28125 L 557 239 L 493.257812 239 Z M 493.257812 175.28125 " clip-rule="nonzero"/></clipPath><clipPath id="4fa3010871"><path d="M 492.113281 206.914062 C 492.113281 225.019531 506.789062 239.691406 524.890625 239.691406 C 542.992188 239.691406 557.667969 225.019531 557.667969 206.914062 C 557.667969 188.8125 542.992188 174.136719 524.890625 174.136719 C 506.789062 174.136719 492.113281 188.8125 492.113281 206.914062 Z M 492.113281 206.914062 " clip-rule="nonzero"/></clipPath><clipPath id="62466d872e"><path d="M 524.890625 175.511719 C 542.234375 175.511719 556.296875 189.570312 556.296875 206.914062 C 556.296875 224.261719 542.234375 238.320312 524.890625 238.320312 C 507.546875 238.320312 493.484375 224.261719 493.484375 206.914062 C 493.484375 189.570312 507.546875 175.511719 524.890625 175.511719 Z M 524.890625 175.511719 " clip-rule="nonzero"/></clipPath><clipPath id="0c0cbb9050"><path d="M 492.113281 174.136719 L 557.265625 174.136719 L 557.265625 239.289062 L 492.113281 239.289062 Z M 492.113281 174.136719 " clip-rule="nonzero"/></clipPath><clipPath id="81a846a2ed"><path d="M 492.113281 206.914062 C 492.113281 225.019531 506.789062 239.691406 524.890625 239.691406 C 542.992188 239.691406 557.667969 225.019531 557.667969 206.914062 C 557.667969 188.8125 542.992188 174.136719 524.890625 174.136719 C 506.789062 174.136719 492.113281 188.8125 492.113281 206.914062 Z M 492.113281 206.914062 " clip-rule="nonzero"/></clipPath><clipPath id="5968bacf01"><path d="M 492.113281 206.910156 C 492.113281 225.011719 506.785156 239.683594 524.886719 239.683594 C 542.984375 239.683594 557.660156 225.011719 557.660156 206.910156 C 557.660156 188.8125 542.984375 174.136719 524.886719 174.136719 C 506.785156 174.136719 492.113281 188.8125 492.113281 206.910156 Z M 492.113281 206.910156 " clip-rule="nonzero"/></clipPath><clipPath id="d7bc893b0b"><rect x="0" width="1482" y="0" height="457"/></clipPath></defs><g transform="matrix(1, 0, 0, 1, 18, 522)"><g clip-path="url(#d7bc893b0b)"><path stroke-linecap="butt" transform="matrix(1.008201, 0, 0, 1.001478, 386.561483, -165.341595)" fill-opacity="1" fill="#000000" fill-rule="evenodd" stroke-linejoin="miter" d="M 110.671495 169.380275 L 162.387979 169.380275 L 162.387979 425.088218 L 110.671495 425.088218 Z M 110.671495 169.380275 " stroke="#000000" stroke-width="1.207" stroke-opacity="1" stroke-miterlimit="4"/><path stroke-linecap="butt" transform="matrix(1.008201, 0, 0, 1.001478, 386.561483, -165.341595)" fill-opacity="1" fill="#000000" fill-rule="evenodd" stroke-linejoin="miter" d="M 213.058355 169.251559 L 264.778714 169.251559 L 264.778714 424.959502 L 213.058355 424.959502 Z M 213.058355 169.251559 " stroke="#000000" stroke-width="1.207" stroke-opacity="1" stroke-miterlimit="4"/><path stroke-linecap="butt" transform="matrix(1.008201, 0, 0, 1.001478, 386.561483, -165.341595)" fill-opacity="1" fill="#000000" fill-rule="evenodd" stroke-linejoin="miter" d="M 418.169154 168.740596 L 469.889513 168.740596 L 469.889513 424.448539 L 418.169154 424.448539 Z M 418.169154 168.740596 " stroke="#000000" stroke-width="1.207" stroke-opacity="1" stroke-miterlimit="4"/><path stroke-linecap="butt" transform="matrix(1.008201, 0, 0, 1.001478, 386.561483, -165.341595)" fill-opacity="1" fill="#000000" fill-rule="evenodd" stroke-linejoin="miter" d="M 519.970969 169.758622 L 571.687453 169.758622 L 571.687453 425.470466 L 519.970969 425.470466 Z M 519.970969 169.758622 " stroke="#000000" stroke-width="1.207" stroke-opacity="1" stroke-miterlimit="4"/><path stroke-linecap="butt" transform="matrix(1.008201, 0, 0, 1.001478, 386.561483, -165.341595)" fill-opacity="1" fill="#000000" fill-rule="evenodd" stroke-linejoin="miter" d="M 623.799133 169.251559 L 675.519491 169.251559 L 675.519491 424.959502 L 623.799133 424.959502 Z M 623.799133 169.251559 " stroke="#000000" stroke-width="1.207" stroke-opacity="1" stroke-miterlimit="4"/><g clip-path="url(#2f576177a3)"><path stroke-linecap="butt" transform="matrix(1.008201, 0, 0, 1.001478, 386.561483, -165.341595)" fill="none" stroke-linejoin="miter" d="M 33.515213 167.948797 L 751.854386 167.948797 L 751.854386 617.089553 L 33.515213 617.089553 Z M 33.515213 167.948797 " stroke="#000000" stroke-width="2.375" stroke-opacity="1" stroke-miterlimit="4"/></g><g clip-path="url(#79b2c33f8d)"><path stroke-linecap="butt" transform="matrix(2.316959, 0, 0, 2.315182, 405.826989, -15.364107)" fill="none" stroke-linejoin="miter" d="M 50.745559 114.679869 L 50.745559 202.135883 " stroke="#000000" stroke-width="2.375" stroke-opacity="1" stroke-miterlimit="4"/></g><g clip-path="url(#c47955d3b0)"><path stroke-linecap="butt" transform="matrix(2.316959, 0, 0, 2.315182, 405.826989, -15.364107)" fill="none" stroke-linejoin="miter" d="M 95.847791 114.259748 L 95.847791 201.715762 " stroke="#000000" stroke-width="2.375" stroke-opacity="1" stroke-miterlimit="4"/></g><g clip-path="url(#433c026307)"><path stroke-linecap="butt" transform="matrix(2.316959, 0, 0, 2.315182, 405.826989, -15.364107)" fill="none" stroke-linejoin="miter" d="M 184.959767 114.840156 L 184.959767 202.29617 " stroke="#000000" stroke-width="2.375" stroke-opacity="1" stroke-miterlimit="4"/></g><g clip-path="url(#d3122e1e6d)"><path stroke-linecap="butt" transform="matrix(2.316959, 0, 0, 2.315182, 405.826989, -15.364107)" fill="none" stroke-linejoin="miter" d="M 229.269608 114.840156 L 229.269608 202.29617 " stroke="#000000" stroke-width="2.375" stroke-opacity="1" stroke-miterlimit="4"/></g><g clip-path="url(#203bc04a4c)"><path stroke-linecap="butt" transform="matrix(2.316959, 0, 0, 2.315182, 405.826989, -15.364107)" fill="none" stroke-linejoin="miter" d="M 274.690482 114.519581 L 274.690482 201.975596 " stroke="#000000" stroke-width="2.375" stroke-opacity="1" stroke-miterlimit="4"/></g><g clip-path="url(#e1a348b827)"><path stroke-linecap="butt" transform="matrix(2.316959, 0, 0, 2.315182, 405.826989, -15.364107)" fill="none" stroke-linejoin="miter" d="M 140.349829 8.068703 L 140.349829 201.9486 " stroke="#000000" stroke-width="2.375" stroke-opacity="1" stroke-miterlimit="4"/></g><path stroke-linecap="butt" transform="matrix(2.316959, 0, 0, 2.315182, 405.826989, -15.364107)" fill-opacity="1" fill="#000000" fill-rule="nonzero" stroke-linejoin="miter" d="M 42.836821 12.566865 L 61.51365 12.566865 L 61.51365 115.69727 L 42.836821 115.69727 Z M 42.836821 12.566865 " stroke="#000000" stroke-width="5" stroke-opacity="1" stroke-miterlimit="4"/><path stroke-linecap="butt" transform="matrix(1.008201, 0, 0, 1.001478, 386.561483, -165.341595)" fill-opacity="1" fill="#000000" fill-rule="evenodd" stroke-linejoin="miter" d="M 832.079252 167.800579 L 883.79961 167.800579 L 883.79961 423.508522 L 832.079252 423.508522 Z M 832.079252 167.800579 " stroke="#000000" stroke-width="1.207" stroke-opacity="1" stroke-miterlimit="4"/><path stroke-linecap="butt" transform="matrix(1.008201, 0, 0, 1.001478, 386.561483, -165.341595)" fill-opacity="1" fill="#000000" fill-rule="evenodd" stroke-linejoin="miter" d="M 934.469986 167.671863 L 986.18647 167.671863 L 986.18647 423.379806 L 934.469986 423.379806 Z M 934.469986 167.671863 " stroke="#000000" stroke-width="1.207" stroke-opacity="1" stroke-miterlimit="4"/><g clip-path="url(#15c4b4e7b3)"><path stroke-linecap="butt" transform="matrix(1.008201, 0, 0, 1.001478, 386.561483, -165.341595)" fill="none" stroke-linejoin="miter" d="M 754.919095 166.369101 L 1473.258268 166.369101 L 1473.258268 615.509857 L 754.919095 615.509857 Z M 754.919095 166.369101 " stroke="#000000" stroke-width="2.375" stroke-opacity="1" stroke-miterlimit="4"/></g><g clip-path="url(#1047056491)"><path stroke-linecap="butt" transform="matrix(2.316959, 0, 0, 2.315182, 405.826989, -15.364107)" fill="none" stroke-linejoin="miter" d="M 364.660601 113.999914 L 364.660601 201.455928 " stroke="#000000" stroke-width="2.375" stroke-opacity="1" stroke-miterlimit="4"/></g><path stroke-linecap="butt" transform="matrix(2.316959, 0, 0, 2.315182, 405.826989, -15.364107)" fill="none" stroke-linejoin="miter" d="M 409.759461 113.579793 L 409.759461 201.035807 " stroke="#000000" stroke-width="2.375" stroke-opacity="1" stroke-miterlimit="4"/><g clip-path="url(#4f8fb39499)"><path stroke-linecap="butt" transform="matrix(2.316959, 0, 0, 2.315182, 405.826989, -15.364107)" fill="none" stroke-linejoin="miter" d="M 454.259813 7.387061 L 454.259813 201.266958 " stroke="#000000" stroke-width="2.375" stroke-opacity="1" stroke-miterlimit="4"/></g><path stroke-linecap="butt" transform="matrix(2.316959, 0, 0, 2.315182, 405.826989, -15.364107)" fill-opacity="1" fill="#000000" fill-rule="nonzero" stroke-linejoin="miter" d="M 87.092712 11.35037 L 105.76954 11.35037 L 105.76954 114.480775 L 87.092712 114.480775 Z M 87.092712 11.35037 " stroke="#000000" stroke-width="5" stroke-opacity="1" stroke-miterlimit="4"/><path stroke-linecap="butt" transform="matrix(2.316959, 0, 0, 2.315182, 405.826989, -15.364107)" fill-opacity="1" fill="#000000" fill-rule="nonzero" stroke-linejoin="miter" d="M 176.420487 11.35037 L 195.097316 11.35037 L 195.097316 114.480775 L 176.420487 114.480775 Z M 176.420487 11.35037 " stroke="#000000" stroke-width="5" stroke-opacity="1" stroke-miterlimit="4"/><path stroke-linecap="butt" transform="matrix(2.316959, 0, 0, 2.315182, 405.826989, -15.364107)" fill-opacity="1" fill="#000000" fill-rule="nonzero" stroke-linejoin="miter" d="M 220.270067 12.161929 L 238.946896 12.161929 L 238.946896 115.292334 L 220.270067 115.292334 Z M 220.270067 12.161929 " stroke="#000000" stroke-width="5" stroke-opacity="1" stroke-miterlimit="4"/><path stroke-linecap="butt" transform="matrix(2.316959, 0, 0, 2.315182, 405.826989, -15.364107)" fill-opacity="1" fill="#000000" fill-rule="nonzero" stroke-linejoin="miter" d="M 265.739834 12.161929 L 284.416662 12.161929 L 284.416662 115.292334 L 265.739834 115.292334 Z M 265.739834 12.161929 " stroke="#000000" stroke-width="5" stroke-opacity="1" stroke-miterlimit="4"/><path stroke-linecap="butt" transform="matrix(2.316959, 0, 0, 2.315182, 405.826989, -15.364107)" fill-opacity="1" fill="#000000" fill-rule="nonzero" stroke-linejoin="miter" d="M 355.880232 10.538811 L 374.557061 10.538811 L 374.557061 113.667529 L 355.880232 113.667529 Z M 355.880232 10.538811 " stroke="#000000" stroke-width="5" stroke-opacity="1" stroke-miterlimit="4"/><path stroke-linecap="butt" transform="matrix(2.316959, 0, 0, 2.315182, 405.826989, -15.364107)" fill-opacity="1" fill="#000000" fill-rule="nonzero" stroke-linejoin="miter" d="M 401.360114 10.538811 L 420.036943 10.538811 L 420.036943 113.667529 L 401.360114 113.667529 Z M 401.360114 10.538811 " stroke="#000000" stroke-width="5" stroke-opacity="1" stroke-miterlimit="4"/><path stroke-linecap="butt" transform="matrix(1.008201, 0, 0, 1.001478, -1066.632404, -163.719778)" fill-opacity="1" fill="#000000" fill-rule="evenodd" stroke-linejoin="miter" d="M 1139.598988 167.171899 L 1191.319357 167.171899 L 1191.319357 422.879873 L 1139.598988 422.879873 Z M 1139.598988 167.171899 " stroke="#000000" stroke-width="1.207" stroke-opacity="1" stroke-miterlimit="4"/><path stroke-linecap="butt" transform="matrix(1.008201, 0, 0, 1.001478, -1066.632404, -163.719778)" fill-opacity="1" fill="#000000" fill-rule="evenodd" stroke-linejoin="miter" d="M 1241.400824 168.178224 L 1293.117319 168.178224 L 1293.117319 423.890099 L 1241.400824 423.890099 Z M 1241.400824 168.178224 " stroke="#000000" stroke-width="1.207" stroke-opacity="1" stroke-miterlimit="4"/><path stroke-linecap="butt" transform="matrix(1.008201, 0, 0, 1.001478, -1066.632404, -163.719778)" fill-opacity="1" fill="#000000" fill-rule="evenodd" stroke-linejoin="miter" d="M 1345.198015 167.671161 L 1396.918384 167.671161 L 1396.918384 423.379135 L 1345.198015 423.379135 Z M 1345.198015 167.671161 " stroke="#000000" stroke-width="1.207" stroke-opacity="1" stroke-miterlimit="4"/><g clip-path="url(#5bbbcc2dcf)"><path stroke-linecap="butt" transform="matrix(1.008201, 0, 0, 1.001478, -1066.632404, -163.719778)" fill="none" stroke-linejoin="miter" d="M 754.921717 166.368399 L 1473.261044 166.368399 L 1473.261044 615.509209 L 754.921717 615.509209 Z M 754.921717 166.368399 " stroke="#000000" stroke-width="2.375" stroke-opacity="1" stroke-miterlimit="4"/></g><g clip-path="url(#13c5d7b630)"><path stroke-linecap="butt" transform="matrix(2.316958, 0, 0, 2.315181, -1047.36691, -13.74229)" fill="none" stroke-linejoin="miter" d="M 498.869239 114.149777 L 498.869239 201.6058 " stroke="#000000" stroke-width="2.375" stroke-opacity="1" stroke-miterlimit="4"/></g><g clip-path="url(#a413ca8fb9)"><path stroke-linecap="butt" transform="matrix(2.316958, 0, 0, 2.315181, -1047.36691, -13.74229)" fill="none" stroke-linejoin="miter" d="M 543.189204 114.149777 L 543.189204 201.6058 " stroke="#000000" stroke-width="2.375" stroke-opacity="1" stroke-miterlimit="4"/></g><g clip-path="url(#297cbeead8)"><path stroke-linecap="butt" transform="matrix(2.316958, 0, 0, 2.315181, -1047.36691, -13.74229)" fill="none" stroke-linejoin="miter" d="M 588.599971 113.839326 L 588.599971 201.29535 " stroke="#000000" stroke-width="2.375" stroke-opacity="1" stroke-miterlimit="4"/></g><g clip-path="url(#dae594663f)"><path stroke-linecap="butt" transform="matrix(2.316958, 0, 0, 2.315181, -1047.36691, -13.74229)" fill="none" stroke-linejoin="miter" d="M 454.259292 7.386749 L 454.259292 201.266667 " stroke="#000000" stroke-width="2.375" stroke-opacity="1" stroke-miterlimit="4"/></g><path stroke-linecap="butt" transform="matrix(2.316958, 0, 0, 2.315181, -1047.36691, -13.74229)" fill-opacity="1" fill="#000000" fill-rule="nonzero" stroke-linejoin="miter" d="M 490.680633 12.973177 L 509.357465 12.973177 L 509.357465 116.103593 L 490.680633 116.103593 Z M 490.680633 12.973177 " stroke="#000000" stroke-width="5" stroke-opacity="1" stroke-miterlimit="4"/><path stroke-linecap="butt" transform="matrix(2.316958, 0, 0, 2.315181, -1047.36691, -13.74229)" fill-opacity="1" fill="#000000" fill-rule="nonzero" stroke-linejoin="miter" d="M 534.530221 13.786423 L 553.207053 13.786423 L 553.207053 116.916839 L 534.530221 116.916839 Z M 534.530221 13.786423 " stroke="#000000" stroke-width="5" stroke-opacity="1" stroke-miterlimit="4"/><path stroke-linecap="butt" transform="matrix(2.316958, 0, 0, 2.315181, -1047.36691, -13.74229)" fill-opacity="1" fill="#000000" fill-rule="nonzero" stroke-linejoin="miter" d="M 579.199175 12.973177 L 597.877694 12.973177 L 597.877694 116.103593 L 579.199175 116.103593 Z M 579.199175 12.973177 " stroke="#000000" stroke-width="5" stroke-opacity="1" stroke-miterlimit="4"/><g clip-path="url(#169420172e)"><path fill="#000000" d="M 266.351562 360.265625 C 248.351562 360.265625 233.773438 374.84375 233.773438 392.84375 C 233.773438 410.839844 248.351562 425.417969 266.351562 425.417969 C 284.347656 425.417969 298.925781 410.839844 298.925781 392.84375 C 298.925781 374.84375 284.347656 360.265625 266.351562 360.265625 Z M 266.351562 360.265625 " fill-opacity="1" fill-rule="nonzero"/></g><g clip-path="url(#3e9f2889e5)"><path fill="#000000" d="M 682.800781 360.265625 C 664.804688 360.265625 650.226562 374.84375 650.226562 392.84375 C 650.226562 410.839844 664.804688 425.417969 682.800781 425.417969 C 700.800781 425.417969 715.378906 410.839844 715.378906 392.84375 C 715.378906 374.84375 700.800781 360.265625 682.800781 360.265625 Z M 682.800781 360.265625 " fill-opacity="1" fill-rule="nonzero"/></g><g clip-path="url(#08e5b3af57)"><g clip-path="url(#4fa3010871)"><g clip-path="url(#62466d872e)"><path fill="#ffffff" d="M 524.886719 174.136719 C 506.78125 174.136719 492.113281 188.804688 492.113281 206.910156 C 492.113281 225.015625 506.78125 239.683594 524.886719 239.683594 C 542.992188 239.683594 557.660156 225.015625 557.660156 206.910156 C 557.660156 188.804688 542.992188 174.136719 524.886719 174.136719 Z M 524.886719 174.136719 " fill-opacity="1" fill-rule="nonzero"/></g></g></g><g clip-path="url(#0c0cbb9050)"><g clip-path="url(#81a846a2ed)"><g clip-path="url(#5968bacf01)"><path stroke-linecap="butt" transform="matrix(1.143012, 0, 0, 1.143012, 492.114013, 174.138554)" fill="none" stroke-linejoin="miter" d="M -0.000640555 28.671273 C -0.000640555 44.507998 12.835513 57.344152 28.672238 57.344152 C 44.505545 57.344152 57.345117 44.507998 57.345117 28.671273 C 57.345117 12.837966 44.505545 -0.00160531 28.672238 -0.00160531 C 12.835513 -0.00160531 -0.000640555 12.837966 -0.000640555 28.671273 Z M -0.000640555 28.671273 " stroke="#000000" stroke-width="9.186257" stroke-opacity="1" stroke-miterlimit="4"/></g></g></g></g></g></svg>