<svg xmlns="http://www.w3.org/2000/svg" xmlns:xlink="http://www.w3.org/1999/xlink" width="2000" zoomAndPan="magnify" viewBox="0 0 1500 1499.999933" height="2000" preserveAspectRatio="xMidYMid meet" version="1.0"><defs><clipPath id="82c9beb5ca"><path d="M 410.40625 1 L 1125 1 L 1125 445.796875 L 410.40625 445.796875 Z M 410.40625 1 " clip-rule="nonzero"/></clipPath><clipPath id="8b9e224d55"><path d="M 510 243 L 516 243 L 516 445.796875 L 510 445.796875 Z M 510 243 " clip-rule="nonzero"/></clipPath><clipPath id="89ddbd7526"><path d="M 613 242 L 619 242 L 619 445.796875 L 613 445.796875 Z M 613 242 " clip-rule="nonzero"/></clipPath><clipPath id="3315d009c3"><path d="M 815 243 L 822 243 L 822 445.796875 L 815 445.796875 Z M 815 243 " clip-rule="nonzero"/></clipPath><clipPath id="7c08b62dec"><path d="M 916 243 L 922 243 L 922 445.796875 L 916 445.796875 Z M 916 243 " clip-rule="nonzero"/></clipPath><clipPath id="54cfaa3a09"><path d="M 1019 242 L 1026 242 L 1026 445.796875 L 1019 445.796875 Z M 1019 242 " clip-rule="nonzero"/></clipPath><clipPath id="f17f95f054"><path d="M 714 0.308594 L 720 0.308594 L 720 445.796875 L 714 445.796875 Z M 714 0.308594 " clip-rule="nonzero"/></clipPath><clipPath id="7c9eb7d114"><path d="M 1124 0.308594 L 1434.914062 0.308594 L 1434.914062 445 L 1124 445 Z M 1124 0.308594 " clip-rule="nonzero"/></clipPath><clipPath id="34004a1719"><path d="M 1224 241 L 1230 241 L 1230 445.796875 L 1224 445.796875 Z M 1224 241 " clip-rule="nonzero"/></clipPath><clipPath id="993737d9c8"><path d="M 1428 0.308594 L 1434 0.308594 L 1434 445.796875 L 1428 445.796875 Z M 1428 0.308594 " clip-rule="nonzero"/></clipPath><clipPath id="248f2e9b8e"><path d="M 1.375 1.902344 L 412 1.902344 L 412 446 L 1.375 446 Z M 1.375 1.902344 " clip-rule="nonzero"/></clipPath><clipPath id="962870c826"><path d="M 103 243 L 109 243 L 109 447.386719 L 103 447.386719 Z M 103 243 " clip-rule="nonzero"/></clipPath><clipPath id="f8cd2b5d21"><path d="M 203 243 L 210 243 L 210 447.386719 L 203 447.386719 Z M 203 243 " clip-rule="nonzero"/></clipPath><clipPath id="230767d718"><path d="M 1.375 1.902344 L 8 1.902344 L 8 447 L 1.375 447 Z M 1.375 1.902344 " clip-rule="nonzero"/></clipPath><clipPath id="4c3933c144"><path d="M 228.875 353.851562 L 292.835938 353.851562 L 292.835938 417.8125 L 228.875 417.8125 Z M 228.875 353.851562 " clip-rule="nonzero"/></clipPath><clipPath id="bffe3a4110"><path d="M 637.722656 353.851562 L 701.683594 353.851562 L 701.683594 417.8125 L 637.722656 417.8125 Z M 637.722656 353.851562 " clip-rule="nonzero"/></clipPath><clipPath id="d054155e87"><path d="M 483.617188 172.246094 L 546 172.246094 L 546 235 L 483.617188 235 Z M 483.617188 172.246094 " clip-rule="nonzero"/></clipPath><clipPath id="a149dd864c"><path d="M 482.496094 203.300781 C 482.496094 221.074219 496.902344 235.480469 514.675781 235.480469 C 532.445312 235.480469 546.855469 221.074219 546.855469 203.300781 C 546.855469 185.53125 532.445312 171.121094 514.675781 171.121094 C 496.902344 171.121094 482.496094 185.53125 482.496094 203.300781 Z M 482.496094 203.300781 " clip-rule="nonzero"/></clipPath><clipPath id="607ff8fe7d"><path d="M 514.675781 172.46875 C 531.703125 172.46875 545.507812 186.273438 545.507812 203.300781 C 545.507812 220.328125 531.703125 234.132812 514.675781 234.132812 C 497.648438 234.132812 483.84375 220.328125 483.84375 203.300781 C 483.84375 186.273438 497.648438 172.46875 514.675781 172.46875 Z M 514.675781 172.46875 " clip-rule="nonzero"/></clipPath><clipPath id="90b66ae481"><path d="M 482.496094 171.121094 L 546.457031 171.121094 L 546.457031 235.085938 L 482.496094 235.085938 Z M 482.496094 171.121094 " clip-rule="nonzero"/></clipPath><clipPath id="c90c143970"><path d="M 482.496094 203.300781 C 482.496094 221.074219 496.902344 235.480469 514.675781 235.480469 C 532.445312 235.480469 546.855469 221.074219 546.855469 203.300781 C 546.855469 185.53125 532.445312 171.121094 514.675781 171.121094 C 496.902344 171.121094 482.496094 185.53125 482.496094 203.300781 Z M 482.496094 203.300781 " clip-rule="nonzero"/></clipPath><clipPath id="3143305d61"><path d="M 482.496094 203.296875 C 482.496094 221.066406 496.902344 235.46875 514.671875 235.46875 C 532.4375 235.46875 546.84375 221.066406 546.84375 203.296875 C 546.84375 185.527344 532.4375 171.121094 514.671875 171.121094 C 496.902344 171.121094 482.496094 185.527344 482.496094 203.296875 Z M 482.496094 203.296875 " clip-rule="nonzero"/></clipPath><clipPath id="c6e485fd8d"><path d="M 837.546875 353.851562 L 901.507812 353.851562 L 901.507812 417.8125 L 837.546875 417.8125 Z M 837.546875 353.851562 " clip-rule="nonzero"/></clipPath><clipPath id="2421c823ff"><rect x="0" width="1468" y="0" height="449"/></clipPath></defs><g transform="matrix(1, 0, 0, 1, 32, 526)"><g clip-path="url(#2421c823ff)"><path stroke-linecap="butt" transform="matrix(0.989782, 0, 0, 0.983182, 378.87238, -162.155364)" fill-opacity="1" fill="#000000" fill-rule="evenodd" stroke-linejoin="miter" d="M 110.668572 169.379001 L 162.388445 169.379001 L 162.388445 425.089733 L 110.668572 425.089733 Z M 110.668572 169.379001 " stroke="#000000" stroke-width="1.207" stroke-opacity="1" stroke-miterlimit="4"/><path stroke-linecap="butt" transform="matrix(0.989782, 0, 0, 0.983182, 378.87238, -162.155364)" fill-opacity="1" fill="#000000" fill-rule="evenodd" stroke-linejoin="miter" d="M 213.058528 169.251863 L 264.778401 169.251863 L 264.778401 424.958621 L 213.058528 424.958621 Z M 213.058528 169.251863 " stroke="#000000" stroke-width="1.207" stroke-opacity="1" stroke-miterlimit="4"/><path stroke-linecap="butt" transform="matrix(0.989782, 0, 0, 0.983182, 378.87238, -162.155364)" fill-opacity="1" fill="#000000" fill-rule="evenodd" stroke-linejoin="miter" d="M 418.169953 168.739337 L 469.889826 168.739337 L 469.889826 424.450068 L 418.169953 424.450068 Z M 418.169953 168.739337 " stroke="#000000" stroke-width="1.207" stroke-opacity="1" stroke-miterlimit="4"/><path stroke-linecap="butt" transform="matrix(0.989782, 0, 0, 0.983182, 378.87238, -162.155364)" fill-opacity="1" fill="#000000" fill-rule="evenodd" stroke-linejoin="miter" d="M 519.97187 169.760416 L 571.687796 169.760416 L 571.687796 425.471147 L 519.97187 425.471147 Z M 519.97187 169.760416 " stroke="#000000" stroke-width="1.207" stroke-opacity="1" stroke-miterlimit="4"/><path stroke-linecap="butt" transform="matrix(0.989782, 0, 0, 0.983182, 378.87238, -162.155364)" fill-opacity="1" fill="#000000" fill-rule="evenodd" stroke-linejoin="miter" d="M 623.79838 169.251863 L 675.518253 169.251863 L 675.518253 424.958621 L 623.79838 424.958621 Z M 623.79838 169.251863 " stroke="#000000" stroke-width="1.207" stroke-opacity="1" stroke-miterlimit="4"/><g clip-path="url(#82c9beb5ca)"><path stroke-linecap="butt" transform="matrix(0.989782, 0, 0, 0.983182, 378.87238, -162.155364)" fill="none" stroke-linejoin="miter" d="M 33.516966 167.948696 L 751.856864 167.948696 L 751.856864 617.08832 L 33.516966 617.08832 Z M 33.516966 167.948696 " stroke="#000000" stroke-width="2.375" stroke-opacity="1" stroke-miterlimit="4"/></g><g clip-path="url(#8b9e224d55)"><path stroke-linecap="butt" transform="matrix(2.274629, 0, 0, 2.272885, 397.785915, -14.917896)" fill="none" stroke-linejoin="miter" d="M 50.744547 114.68077 L 50.744547 202.13674 " stroke="#000000" stroke-width="2.375" stroke-opacity="1" stroke-miterlimit="4"/></g><g clip-path="url(#89ddbd7526)"><path stroke-linecap="butt" transform="matrix(2.274629, 0, 0, 2.272885, 397.785915, -14.917896)" fill="none" stroke-linejoin="miter" d="M 95.846337 114.259705 L 95.846337 201.715675 " stroke="#000000" stroke-width="2.375" stroke-opacity="1" stroke-miterlimit="4"/></g><g clip-path="url(#3315d009c3)"><path stroke-linecap="butt" transform="matrix(2.274629, 0, 0, 2.272885, 397.785915, -14.917896)" fill="none" stroke-linejoin="miter" d="M 184.959424 114.840603 L 184.959424 202.296573 " stroke="#000000" stroke-width="2.375" stroke-opacity="1" stroke-miterlimit="4"/></g><g clip-path="url(#7c08b62dec)"><path stroke-linecap="butt" transform="matrix(2.274629, 0, 0, 2.272885, 397.785915, -14.917896)" fill="none" stroke-linejoin="miter" d="M 229.269533 114.840603 L 229.269533 202.296573 " stroke="#000000" stroke-width="2.375" stroke-opacity="1" stroke-miterlimit="4"/></g><g clip-path="url(#54cfaa3a09)"><path stroke-linecap="butt" transform="matrix(2.274629, 0, 0, 2.272885, 397.785915, -14.917896)" fill="none" stroke-linejoin="miter" d="M 274.690743 114.519219 L 274.690743 201.975189 " stroke="#000000" stroke-width="2.375" stroke-opacity="1" stroke-miterlimit="4"/></g><g clip-path="url(#f17f95f054)"><path stroke-linecap="butt" transform="matrix(2.274629, 0, 0, 2.272885, 397.785915, -14.917896)" fill="none" stroke-linejoin="miter" d="M 140.350503 8.06894 L 140.350503 201.949409 " stroke="#000000" stroke-width="2.375" stroke-opacity="1" stroke-miterlimit="4"/></g><path stroke-linecap="butt" transform="matrix(2.274629, 0, 0, 2.272885, 397.785915, -14.917896)" fill-opacity="1" fill="#000000" fill-rule="nonzero" stroke-linejoin="miter" d="M 42.836321 12.566597 L 61.513817 12.566597 L 61.513817 115.696481 L 42.836321 115.696481 Z M 42.836321 12.566597 " stroke="#000000" stroke-width="5" stroke-opacity="1" stroke-miterlimit="4"/><path stroke-linecap="butt" transform="matrix(0.989782, 0, 0, 0.983182, 378.87238, -162.155364)" fill-opacity="1" fill="#000000" fill-rule="evenodd" stroke-linejoin="miter" d="M 832.078905 167.801693 L 883.798778 167.801693 L 883.798778 423.508451 L 832.078905 423.508451 Z M 832.078905 167.801693 " stroke="#000000" stroke-width="1.207" stroke-opacity="1" stroke-miterlimit="4"/><path stroke-linecap="butt" transform="matrix(0.989782, 0, 0, 0.983182, 378.87238, -162.155364)" fill-opacity="1" fill="#000000" fill-rule="evenodd" stroke-linejoin="miter" d="M 934.468862 167.670581 L 986.188734 167.670581 L 986.188734 423.381313 L 934.468862 423.381313 Z M 934.468862 167.670581 " stroke="#000000" stroke-width="1.207" stroke-opacity="1" stroke-miterlimit="4"/><g clip-path="url(#7c9eb7d114)"><path stroke-linecap="butt" transform="matrix(0.989782, 0, 0, 0.983182, 378.87238, -162.155364)" fill="none" stroke-linejoin="miter" d="M 754.919406 166.371388 L 1473.259304 166.371388 L 1473.259304 615.511011 L 754.919406 615.511011 Z M 754.919406 166.371388 " stroke="#000000" stroke-width="2.375" stroke-opacity="1" stroke-miterlimit="4"/></g><g clip-path="url(#34004a1719)"><path stroke-linecap="butt" transform="matrix(2.274629, 0, 0, 2.272885, 397.785915, -14.917896)" fill="none" stroke-linejoin="miter" d="M 364.660769 114.000192 L 364.660769 201.456162 " stroke="#000000" stroke-width="2.375" stroke-opacity="1" stroke-miterlimit="4"/></g><path stroke-linecap="butt" transform="matrix(2.274629, 0, 0, 2.272885, 397.785915, -14.917896)" fill="none" stroke-linejoin="miter" d="M 409.760842 113.580846 L 409.760842 201.036816 " stroke="#000000" stroke-width="2.375" stroke-opacity="1" stroke-miterlimit="4"/><g clip-path="url(#993737d9c8)"><path stroke-linecap="butt" transform="matrix(2.274629, 0, 0, 2.272885, 397.785915, -14.917896)" fill="none" stroke-linejoin="miter" d="M 454.259855 7.386644 L 454.259855 201.267113 " stroke="#000000" stroke-width="2.375" stroke-opacity="1" stroke-miterlimit="4"/></g><path stroke-linecap="butt" transform="matrix(2.274629, 0, 0, 2.272885, 397.785915, -14.917896)" fill-opacity="1" fill="#000000" fill-rule="nonzero" stroke-linejoin="miter" d="M 87.091476 11.349806 L 105.768972 11.349806 L 105.768972 114.47969 L 87.091476 114.47969 Z M 87.091476 11.349806 " stroke="#000000" stroke-width="5" stroke-opacity="1" stroke-miterlimit="4"/><path stroke-linecap="butt" transform="matrix(2.274629, 0, 0, 2.272885, 397.785915, -14.917896)" fill-opacity="1" fill="#000000" fill-rule="nonzero" stroke-linejoin="miter" d="M 176.419227 11.349806 L 195.096722 11.349806 L 195.096722 114.47969 L 176.419227 114.47969 Z M 176.419227 11.349806 " stroke="#000000" stroke-width="5" stroke-opacity="1" stroke-miterlimit="4"/><path stroke-linecap="butt" transform="matrix(2.274629, 0, 0, 2.272885, 397.785915, -14.917896)" fill-opacity="1" fill="#000000" fill-rule="nonzero" stroke-linejoin="miter" d="M 220.270813 12.162719 L 238.946591 12.162719 L 238.946591 115.292602 L 220.270813 115.292602 Z M 220.270813 12.162719 " stroke="#000000" stroke-width="5" stroke-opacity="1" stroke-miterlimit="4"/><path stroke-linecap="butt" transform="matrix(2.274629, 0, 0, 2.272885, 397.785915, -14.917896)" fill-opacity="1" fill="#000000" fill-rule="nonzero" stroke-linejoin="miter" d="M 265.740108 12.162719 L 284.417604 12.162719 L 284.417604 115.292602 L 265.740108 115.292602 Z M 265.740108 12.162719 " stroke="#000000" stroke-width="5" stroke-opacity="1" stroke-miterlimit="4"/><path stroke-linecap="butt" transform="matrix(2.274629, 0, 0, 2.272885, 397.785915, -14.917896)" fill-opacity="1" fill="#000000" fill-rule="nonzero" stroke-linejoin="miter" d="M 355.880148 10.538613 L 374.557644 10.538613 L 374.557644 113.668496 L 355.880148 113.668496 Z M 355.880148 10.538613 " stroke="#000000" stroke-width="5" stroke-opacity="1" stroke-miterlimit="4"/><path stroke-linecap="butt" transform="matrix(2.274629, 0, 0, 2.272885, 397.785915, -14.917896)" fill-opacity="1" fill="#000000" fill-rule="nonzero" stroke-linejoin="miter" d="M 401.359747 10.538613 L 420.037243 10.538613 L 420.037243 113.668496 L 401.359747 113.668496 Z M 401.359747 10.538613 " stroke="#000000" stroke-width="5" stroke-opacity="1" stroke-miterlimit="4"/><path stroke-linecap="butt" transform="matrix(0.989782, 0, 0, 0.983182, -1047.772687, -160.563137)" fill-opacity="1" fill="#000000" fill-rule="evenodd" stroke-linejoin="miter" d="M 1139.600838 167.171544 L 1191.316776 167.171544 L 1191.316776 422.878333 L 1139.600838 422.878333 Z M 1139.600838 167.171544 " stroke="#000000" stroke-width="1.207" stroke-opacity="1" stroke-miterlimit="4"/><path stroke-linecap="butt" transform="matrix(0.989782, 0, 0, 0.983182, -1047.772687, -160.563137)" fill-opacity="1" fill="#000000" fill-rule="evenodd" stroke-linejoin="miter" d="M 1241.398832 168.180704 L 1293.118718 168.180704 L 1293.118718 423.891466 L 1241.398832 423.891466 Z M 1241.398832 168.180704 " stroke="#000000" stroke-width="1.207" stroke-opacity="1" stroke-miterlimit="4"/><path stroke-linecap="butt" transform="matrix(0.989782, 0, 0, 0.983182, -1047.772687, -160.563137)" fill-opacity="1" fill="#000000" fill-rule="evenodd" stroke-linejoin="miter" d="M 1345.201688 167.668178 L 1396.917627 167.668178 L 1396.917627 423.37894 L 1345.201688 423.37894 Z M 1345.201688 167.668178 " stroke="#000000" stroke-width="1.207" stroke-opacity="1" stroke-miterlimit="4"/><g clip-path="url(#248f2e9b8e)"><path stroke-linecap="butt" transform="matrix(0.989782, 0, 0, 0.983182, -1047.772687, -160.563137)" fill="none" stroke-linejoin="miter" d="M 754.920131 166.368984 L 1473.260203 166.368984 L 1473.260203 615.508662 L 754.920131 615.508662 Z M 754.920131 166.368984 " stroke="#000000" stroke-width="2.375" stroke-opacity="1" stroke-miterlimit="4"/></g><g clip-path="url(#962870c826)"><path stroke-linecap="butt" transform="matrix(2.274629, 0, 0, 2.272885, -1028.859225, -13.32567)" fill="none" stroke-linejoin="miter" d="M 498.869144 114.150395 L 498.869144 201.606374 " stroke="#000000" stroke-width="2.375" stroke-opacity="1" stroke-miterlimit="4"/></g><g clip-path="url(#f8cd2b5d21)"><path stroke-linecap="butt" transform="matrix(2.274629, 0, 0, 2.272885, -1028.859225, -13.32567)" fill="none" stroke-linejoin="miter" d="M 543.189566 114.150395 L 543.189566 201.606374 " stroke="#000000" stroke-width="2.375" stroke-opacity="1" stroke-miterlimit="4"/></g><path stroke-linecap="butt" transform="matrix(2.274629, 0, 0, 2.272885, -1028.859225, -13.32567)" fill="none" stroke-linejoin="miter" d="M 588.600482 113.839323 L 588.600482 201.295302 " stroke="#000000" stroke-width="2.375" stroke-opacity="1" stroke-miterlimit="4"/><g clip-path="url(#230767d718)"><path stroke-linecap="butt" transform="matrix(2.274629, 0, 0, 2.272885, -1028.859225, -13.32567)" fill="none" stroke-linejoin="miter" d="M 454.260214 7.387315 L 454.260214 201.266085 " stroke="#000000" stroke-width="2.375" stroke-opacity="1" stroke-miterlimit="4"/></g><path stroke-linecap="butt" transform="matrix(2.274629, 0, 0, 2.272885, -1028.859225, -13.32567)" fill-opacity="1" fill="#000000" fill-rule="nonzero" stroke-linejoin="miter" d="M 490.679277 12.974584 L 509.356777 12.974584 L 509.356777 116.104479 L 490.679277 116.104479 Z M 490.679277 12.974584 " stroke="#000000" stroke-width="5" stroke-opacity="1" stroke-miterlimit="4"/><path stroke-linecap="butt" transform="matrix(2.274629, 0, 0, 2.272885, -1028.859225, -13.32567)" fill-opacity="1" fill="#000000" fill-rule="nonzero" stroke-linejoin="miter" d="M 534.530872 13.785778 L 553.206654 13.785778 L 553.206654 116.915673 L 534.530872 116.915673 Z M 534.530872 13.785778 " stroke="#000000" stroke-width="5" stroke-opacity="1" stroke-miterlimit="4"/><path stroke-linecap="butt" transform="matrix(2.274629, 0, 0, 2.272885, -1028.859225, -13.32567)" fill-opacity="1" fill="#000000" fill-rule="nonzero" stroke-linejoin="miter" d="M 579.199909 12.974584 L 597.877408 12.974584 L 597.877408 116.104479 L 579.199909 116.104479 Z M 579.199909 12.974584 " stroke="#000000" stroke-width="5" stroke-opacity="1" stroke-miterlimit="4"/><g clip-path="url(#4c3933c144)"><path fill="#000000" d="M 260.855469 353.851562 C 243.1875 353.851562 228.875 368.160156 228.875 385.832031 C 228.875 403.5 243.1875 417.8125 260.855469 417.8125 C 278.527344 417.8125 292.835938 403.5 292.835938 385.832031 C 292.835938 368.160156 278.527344 353.851562 260.855469 353.851562 Z M 260.855469 353.851562 " fill-opacity="1" fill-rule="nonzero"/></g><g clip-path="url(#bffe3a4110)"><path fill="#000000" d="M 669.703125 353.851562 C 652.03125 353.851562 637.722656 368.160156 637.722656 385.832031 C 637.722656 403.5 652.03125 417.8125 669.703125 417.8125 C 687.371094 417.8125 701.683594 403.5 701.683594 385.832031 C 701.683594 368.160156 687.371094 353.851562 669.703125 353.851562 Z M 669.703125 353.851562 " fill-opacity="1" fill-rule="nonzero"/></g><g clip-path="url(#d054155e87)"><g clip-path="url(#a149dd864c)"><g clip-path="url(#607ff8fe7d)"><path fill="#ffffff" d="M 514.671875 171.121094 C 496.894531 171.121094 482.496094 185.519531 482.496094 203.296875 C 482.496094 221.070312 496.894531 235.46875 514.671875 235.46875 C 532.445312 235.46875 546.84375 221.070312 546.84375 203.296875 C 546.84375 185.519531 532.445312 171.121094 514.671875 171.121094 Z M 514.671875 171.121094 " fill-opacity="1" fill-rule="nonzero"/></g></g></g><g clip-path="url(#90b66ae481)"><g clip-path="url(#c90c143970)"><g clip-path="url(#3143305d61)"><path stroke-linecap="butt" transform="matrix(1.12213, 0, 0, 1.12213, 482.496653, 171.122693)" fill="none" stroke-linejoin="miter" d="M -0.000498414 28.672427 C -0.000498414 44.507968 12.837812 57.342797 28.673353 57.342797 C 44.505413 57.342797 57.343724 44.507968 57.343724 28.672427 C 57.343724 12.836886 44.505413 -0.00142497 28.673353 -0.00142497 C 12.837812 -0.00142497 -0.000498414 12.836886 -0.000498414 28.672427 Z M -0.000498414 28.672427 " stroke="#000000" stroke-width="9.357207" stroke-opacity="1" stroke-miterlimit="4"/></g></g></g><g clip-path="url(#c6e485fd8d)"><path fill="#000000" d="M 869.527344 353.851562 C 851.859375 353.851562 837.546875 368.160156 837.546875 385.832031 C 837.546875 403.5 851.859375 417.8125 869.527344 417.8125 C 887.199219 417.8125 901.507812 403.5 901.507812 385.832031 C 901.507812 368.160156 887.199219 353.851562 869.527344 353.851562 Z M 869.527344 353.851562 " fill-opacity="1" fill-rule="nonzero"/></g></g></g></svg>