<svg xmlns="http://www.w3.org/2000/svg" xmlns:xlink="http://www.w3.org/1999/xlink" width="2000" zoomAndPan="magnify" viewBox="0 0 1500 1499.999933" height="2000" preserveAspectRatio="xMidYMid meet" version="1.0"><defs><clipPath id="bc91f63f83"><path d="M 95 20 L 148 20 L 148 275 L 95 275 Z M 95 20 " clip-rule="nonzero"/></clipPath><clipPath id="972ec9d93a"><path d="M 16.882812 35.941406 L 16.882812 446.625 C 16.882812 457.394531 25.613281 466.125 36.382812 466.125 L 1438.210938 466.125 C 1448.980469 466.125 1457.710938 457.394531 1457.710938 446.625 L 1457.710938 35.941406 C 1457.710938 25.171875 1448.980469 16.441406 1438.210938 16.441406 L 36.382812 16.441406 C 25.613281 16.441406 16.882812 25.171875 16.882812 35.941406 Z M 16.882812 35.941406 " clip-rule="nonzero"/></clipPath><clipPath id="d2b592b998"><path d="M 37.652344 17.710938 L 1436.941406 17.710938 C 1447.710938 17.710938 1456.441406 26.441406 1456.441406 37.210938 L 1456.441406 445.355469 C 1456.441406 456.125 1447.710938 464.855469 1436.941406 464.855469 L 37.652344 464.855469 C 26.882812 464.855469 18.152344 456.125 18.152344 445.355469 L 18.152344 37.210938 C 18.152344 26.441406 26.882812 17.710938 37.652344 17.710938 Z M 37.652344 17.710938 " clip-rule="nonzero"/></clipPath><clipPath id="4fbdca7d53"><path d="M 94 19 L 148 19 L 148 275 L 94 275 Z M 94 19 " clip-rule="nonzero"/></clipPath><clipPath id="53705103c5"><path d="M 16.882812 35.941406 L 16.882812 446.625 C 16.882812 457.394531 25.613281 466.125 36.382812 466.125 L 1438.210938 466.125 C 1448.980469 466.125 1457.710938 457.394531 1457.710938 446.625 L 1457.710938 35.941406 C 1457.710938 25.171875 1448.980469 16.441406 1438.210938 16.441406 L 36.382812 16.441406 C 25.613281 16.441406 16.882812 25.171875 16.882812 35.941406 Z M 16.882812 35.941406 " clip-rule="nonzero"/></clipPath><clipPath id="1cc9c5e98d"><path d="M 37.652344 17.710938 L 1436.941406 17.710938 C 1447.710938 17.710938 1456.441406 26.441406 1456.441406 37.210938 L 1456.441406 445.355469 C 1456.441406 456.125 1447.710938 464.855469 1436.941406 464.855469 L 37.652344 464.855469 C 26.882812 464.855469 18.152344 456.125 18.152344 445.355469 L 18.152344 37.210938 C 18.152344 26.441406 26.882812 17.710938 37.652344 17.710938 Z M 37.652344 17.710938 " clip-rule="nonzero"/></clipPath><clipPath id="f590a2733d"><path d="M 197 20 L 250 20 L 250 274 L 197 274 Z M 197 20 " clip-rule="nonzero"/></clipPath><clipPath id="877ac74a1c"><path d="M 16.882812 35.941406 L 16.882812 446.625 C 16.882812 457.394531 25.613281 466.125 36.382812 466.125 L 1438.210938 466.125 C 1448.980469 466.125 1457.710938 457.394531 1457.710938 446.625 L 1457.710938 35.941406 C 1457.710938 25.171875 1448.980469 16.441406 1438.210938 16.441406 L 36.382812 16.441406 C 25.613281 16.441406 16.882812 25.171875 16.882812 35.941406 Z M 16.882812 35.941406 " clip-rule="nonzero"/></clipPath><clipPath id="c6542667b8"><path d="M 37.652344 17.710938 L 1436.941406 17.710938 C 1447.710938 17.710938 1456.441406 26.441406 1456.441406 37.210938 L 1456.441406 445.355469 C 1456.441406 456.125 1447.710938 464.855469 1436.941406 464.855469 L 37.652344 464.855469 C 26.882812 464.855469 18.152344 456.125 18.152344 445.355469 L 18.152344 37.210938 C 18.152344 26.441406 26.882812 17.710938 37.652344 17.710938 Z M 37.652344 17.710938 " clip-rule="nonzero"/></clipPath><clipPath id="f4d2b6c6b0"><path d="M 197 19 L 251 19 L 251 275 L 197 275 Z M 197 19 " clip-rule="nonzero"/></clipPath><clipPath id="cf7523ac02"><path d="M 16.882812 35.941406 L 16.882812 446.625 C 16.882812 457.394531 25.613281 466.125 36.382812 466.125 L 1438.210938 466.125 C 1448.980469 466.125 1457.710938 457.394531 1457.710938 446.625 L 1457.710938 35.941406 C 1457.710938 25.171875 1448.980469 16.441406 1438.210938 16.441406 L 36.382812 16.441406 C 25.613281 16.441406 16.882812 25.171875 16.882812 35.941406 Z M 16.882812 35.941406 " clip-rule="nonzero"/></clipPath><clipPath id="742c91f8f4"><path d="M 37.652344 17.710938 L 1436.941406 17.710938 C 1447.710938 17.710938 1456.441406 26.441406 1456.441406 37.210938 L 1456.441406 445.355469 C 1456.441406 456.125 1447.710938 464.855469 1436.941406 464.855469 L 37.652344 464.855469 C 26.882812 464.855469 18.152344 456.125 18.152344 445.355469 L 18.152344 37.210938 C 18.152344 26.441406 26.882812 17.710938 37.652344 17.710938 Z M 37.652344 17.710938 " clip-rule="nonzero"/></clipPath><clipPath id="58ce64d550"><path d="M 402 19 L 455 19 L 455 274 L 402 274 Z M 402 19 " clip-rule="nonzero"/></clipPath><clipPath id="1028d59a09"><path d="M 16.882812 35.941406 L 16.882812 446.625 C 16.882812 457.394531 25.613281 466.125 36.382812 466.125 L 1438.210938 466.125 C 1448.980469 466.125 1457.710938 457.394531 1457.710938 446.625 L 1457.710938 35.941406 C 1457.710938 25.171875 1448.980469 16.441406 1438.210938 16.441406 L 36.382812 16.441406 C 25.613281 16.441406 16.882812 25.171875 16.882812 35.941406 Z M 16.882812 35.941406 " clip-rule="nonzero"/></clipPath><clipPath id="72c576e659"><path d="M 37.652344 17.710938 L 1436.941406 17.710938 C 1447.710938 17.710938 1456.441406 26.441406 1456.441406 37.210938 L 1456.441406 445.355469 C 1456.441406 456.125 1447.710938 464.855469 1436.941406 464.855469 L 37.652344 464.855469 C 26.882812 464.855469 18.152344 456.125 18.152344 445.355469 L 18.152344 37.210938 C 18.152344 26.441406 26.882812 17.710938 37.652344 17.710938 Z M 37.652344 17.710938 " clip-rule="nonzero"/></clipPath><clipPath id="0a403b232a"><path d="M 401 19 L 455 19 L 455 274 L 401 274 Z M 401 19 " clip-rule="nonzero"/></clipPath><clipPath id="dcec78aa57"><path d="M 16.882812 35.941406 L 16.882812 446.625 C 16.882812 457.394531 25.613281 466.125 36.382812 466.125 L 1438.210938 466.125 C 1448.980469 466.125 1457.710938 457.394531 1457.710938 446.625 L 1457.710938 35.941406 C 1457.710938 25.171875 1448.980469 16.441406 1438.210938 16.441406 L 36.382812 16.441406 C 25.613281 16.441406 16.882812 25.171875 16.882812 35.941406 Z M 16.882812 35.941406 " clip-rule="nonzero"/></clipPath><clipPath id="23efb9d1e2"><path d="M 37.652344 17.710938 L 1436.941406 17.710938 C 1447.710938 17.710938 1456.441406 26.441406 1456.441406 37.210938 L 1456.441406 445.355469 C 1456.441406 456.125 1447.710938 464.855469 1436.941406 464.855469 L 37.652344 464.855469 C 26.882812 464.855469 18.152344 456.125 18.152344 445.355469 L 18.152344 37.210938 C 18.152344 26.441406 26.882812 17.710938 37.652344 17.710938 Z M 37.652344 17.710938 " clip-rule="nonzero"/></clipPath><clipPath id="e0c4af7bdd"><path d="M 504 20 L 556 20 L 556 275 L 504 275 Z M 504 20 " clip-rule="nonzero"/></clipPath><clipPath id="a25ad409fb"><path d="M 16.882812 35.941406 L 16.882812 446.625 C 16.882812 457.394531 25.613281 466.125 36.382812 466.125 L 1438.210938 466.125 C 1448.980469 466.125 1457.710938 457.394531 1457.710938 446.625 L 1457.710938 35.941406 C 1457.710938 25.171875 1448.980469 16.441406 1438.210938 16.441406 L 36.382812 16.441406 C 25.613281 16.441406 16.882812 25.171875 16.882812 35.941406 Z M 16.882812 35.941406 " clip-rule="nonzero"/></clipPath><clipPath id="22bd530beb"><path d="M 37.652344 17.710938 L 1436.941406 17.710938 C 1447.710938 17.710938 1456.441406 26.441406 1456.441406 37.210938 L 1456.441406 445.355469 C 1456.441406 456.125 1447.710938 464.855469 1436.941406 464.855469 L 37.652344 464.855469 C 26.882812 464.855469 18.152344 456.125 18.152344 445.355469 L 18.152344 37.210938 C 18.152344 26.441406 26.882812 17.710938 37.652344 17.710938 Z M 37.652344 17.710938 " clip-rule="nonzero"/></clipPath><clipPath id="528ee1f8cb"><path d="M 503 20 L 557 20 L 557 276 L 503 276 Z M 503 20 " clip-rule="nonzero"/></clipPath><clipPath id="380e5f5155"><path d="M 16.882812 35.941406 L 16.882812 446.625 C 16.882812 457.394531 25.613281 466.125 36.382812 466.125 L 1438.210938 466.125 C 1448.980469 466.125 1457.710938 457.394531 1457.710938 446.625 L 1457.710938 35.941406 C 1457.710938 25.171875 1448.980469 16.441406 1438.210938 16.441406 L 36.382812 16.441406 C 25.613281 16.441406 16.882812 25.171875 16.882812 35.941406 Z M 16.882812 35.941406 " clip-rule="nonzero"/></clipPath><clipPath id="e1e593139e"><path d="M 37.652344 17.710938 L 1436.941406 17.710938 C 1447.710938 17.710938 1456.441406 26.441406 1456.441406 37.210938 L 1456.441406 445.355469 C 1456.441406 456.125 1447.710938 464.855469 1436.941406 464.855469 L 37.652344 464.855469 C 26.882812 464.855469 18.152344 456.125 18.152344 445.355469 L 18.152344 37.210938 C 18.152344 26.441406 26.882812 17.710938 37.652344 17.710938 Z M 37.652344 17.710938 " clip-rule="nonzero"/></clipPath><clipPath id="8bb031c4a8"><path d="M 607 20 L 660 20 L 660 274 L 607 274 Z M 607 20 " clip-rule="nonzero"/></clipPath><clipPath id="8c3a00cd76"><path d="M 16.882812 35.941406 L 16.882812 446.625 C 16.882812 457.394531 25.613281 466.125 36.382812 466.125 L 1438.210938 466.125 C 1448.980469 466.125 1457.710938 457.394531 1457.710938 446.625 L 1457.710938 35.941406 C 1457.710938 25.171875 1448.980469 16.441406 1438.210938 16.441406 L 36.382812 16.441406 C 25.613281 16.441406 16.882812 25.171875 16.882812 35.941406 Z M 16.882812 35.941406 " clip-rule="nonzero"/></clipPath><clipPath id="8f682ea30e"><path d="M 37.652344 17.710938 L 1436.941406 17.710938 C 1447.710938 17.710938 1456.441406 26.441406 1456.441406 37.210938 L 1456.441406 445.355469 C 1456.441406 456.125 1447.710938 464.855469 1436.941406 464.855469 L 37.652344 464.855469 C 26.882812 464.855469 18.152344 456.125 18.152344 445.355469 L 18.152344 37.210938 C 18.152344 26.441406 26.882812 17.710938 37.652344 17.710938 Z M 37.652344 17.710938 " clip-rule="nonzero"/></clipPath><clipPath id="f1d4f6265c"><path d="M 607 19 L 661 19 L 661 275 L 607 275 Z M 607 19 " clip-rule="nonzero"/></clipPath><clipPath id="f097d71971"><path d="M 16.882812 35.941406 L 16.882812 446.625 C 16.882812 457.394531 25.613281 466.125 36.382812 466.125 L 1438.210938 466.125 C 1448.980469 466.125 1457.710938 457.394531 1457.710938 446.625 L 1457.710938 35.941406 C 1457.710938 25.171875 1448.980469 16.441406 1438.210938 16.441406 L 36.382812 16.441406 C 25.613281 16.441406 16.882812 25.171875 16.882812 35.941406 Z M 16.882812 35.941406 " clip-rule="nonzero"/></clipPath><clipPath id="ce34e35bcd"><path d="M 37.652344 17.710938 L 1436.941406 17.710938 C 1447.710938 17.710938 1456.441406 26.441406 1456.441406 37.210938 L 1456.441406 445.355469 C 1456.441406 456.125 1447.710938 464.855469 1436.941406 464.855469 L 37.652344 464.855469 C 26.882812 464.855469 18.152344 456.125 18.152344 445.355469 L 18.152344 37.210938 C 18.152344 26.441406 26.882812 17.710938 37.652344 17.710938 Z M 37.652344 17.710938 " clip-rule="nonzero"/></clipPath><clipPath id="6a829898bb"><path d="M 18 17.5 L 737 17.5 L 737 465 L 18 465 Z M 18 17.5 " clip-rule="nonzero"/></clipPath><clipPath id="7922caae6c"><path d="M 16.882812 35.941406 L 16.882812 446.625 C 16.882812 457.394531 25.613281 466.125 36.382812 466.125 L 1438.210938 466.125 C 1448.980469 466.125 1457.710938 457.394531 1457.710938 446.625 L 1457.710938 35.941406 C 1457.710938 25.171875 1448.980469 16.441406 1438.210938 16.441406 L 36.382812 16.441406 C 25.613281 16.441406 16.882812 25.171875 16.882812 35.941406 Z M 16.882812 35.941406 " clip-rule="nonzero"/></clipPath><clipPath id="4596574b85"><path d="M 37.652344 17.710938 L 1436.941406 17.710938 C 1447.710938 17.710938 1456.441406 26.441406 1456.441406 37.210938 L 1456.441406 445.355469 C 1456.441406 456.125 1447.710938 464.855469 1436.941406 464.855469 L 37.652344 464.855469 C 26.882812 464.855469 18.152344 456.125 18.152344 445.355469 L 18.152344 37.210938 C 18.152344 26.441406 26.882812 17.710938 37.652344 17.710938 Z M 37.652344 17.710938 " clip-rule="nonzero"/></clipPath><clipPath id="293609ca2d"><path d="M 117 261 L 124 261 L 124 465 L 117 465 Z M 117 261 " clip-rule="nonzero"/></clipPath><clipPath id="9f092b3291"><path d="M 16.882812 35.941406 L 16.882812 446.625 C 16.882812 457.394531 25.613281 466.125 36.382812 466.125 L 1438.210938 466.125 C 1448.980469 466.125 1457.710938 457.394531 1457.710938 446.625 L 1457.710938 35.941406 C 1457.710938 25.171875 1448.980469 16.441406 1438.210938 16.441406 L 36.382812 16.441406 C 25.613281 16.441406 16.882812 25.171875 16.882812 35.941406 Z M 16.882812 35.941406 " clip-rule="nonzero"/></clipPath><clipPath id="aef65b7d91"><path d="M 37.652344 17.710938 L 1436.941406 17.710938 C 1447.710938 17.710938 1456.441406 26.441406 1456.441406 37.210938 L 1456.441406 445.355469 C 1456.441406 456.125 1447.710938 464.855469 1436.941406 464.855469 L 37.652344 464.855469 C 26.882812 464.855469 18.152344 456.125 18.152344 445.355469 L 18.152344 37.210938 C 18.152344 26.441406 26.882812 17.710938 37.652344 17.710938 Z M 37.652344 17.710938 " clip-rule="nonzero"/></clipPath><clipPath id="ed64853115"><path d="M 221 260 L 227 260 L 227 465 L 221 465 Z M 221 260 " clip-rule="nonzero"/></clipPath><clipPath id="4738e5e8a2"><path d="M 16.882812 35.941406 L 16.882812 446.625 C 16.882812 457.394531 25.613281 466.125 36.382812 466.125 L 1438.210938 466.125 C 1448.980469 466.125 1457.710938 457.394531 1457.710938 446.625 L 1457.710938 35.941406 C 1457.710938 25.171875 1448.980469 16.441406 1438.210938 16.441406 L 36.382812 16.441406 C 25.613281 16.441406 16.882812 25.171875 16.882812 35.941406 Z M 16.882812 35.941406 " clip-rule="nonzero"/></clipPath><clipPath id="368d5ba1f1"><path d="M 37.652344 17.710938 L 1436.941406 17.710938 C 1447.710938 17.710938 1456.441406 26.441406 1456.441406 37.210938 L 1456.441406 445.355469 C 1456.441406 456.125 1447.710938 464.855469 1436.941406 464.855469 L 37.652344 464.855469 C 26.882812 464.855469 18.152344 456.125 18.152344 445.355469 L 18.152344 37.210938 C 18.152344 26.441406 26.882812 17.710938 37.652344 17.710938 Z M 37.652344 17.710938 " clip-rule="nonzero"/></clipPath><clipPath id="cf6c442b19"><path d="M 425 261 L 432 261 L 432 465 L 425 465 Z M 425 261 " clip-rule="nonzero"/></clipPath><clipPath id="0576c582f3"><path d="M 16.882812 35.941406 L 16.882812 446.625 C 16.882812 457.394531 25.613281 466.125 36.382812 466.125 L 1438.210938 466.125 C 1448.980469 466.125 1457.710938 457.394531 1457.710938 446.625 L 1457.710938 35.941406 C 1457.710938 25.171875 1448.980469 16.441406 1438.210938 16.441406 L 36.382812 16.441406 C 25.613281 16.441406 16.882812 25.171875 16.882812 35.941406 Z M 16.882812 35.941406 " clip-rule="nonzero"/></clipPath><clipPath id="5c95cff245"><path d="M 37.652344 17.710938 L 1436.941406 17.710938 C 1447.710938 17.710938 1456.441406 26.441406 1456.441406 37.210938 L 1456.441406 445.355469 C 1456.441406 456.125 1447.710938 464.855469 1436.941406 464.855469 L 37.652344 464.855469 C 26.882812 464.855469 18.152344 456.125 18.152344 445.355469 L 18.152344 37.210938 C 18.152344 26.441406 26.882812 17.710938 37.652344 17.710938 Z M 37.652344 17.710938 " clip-rule="nonzero"/></clipPath><clipPath id="e95954b832"><path d="M 527 261 L 533 261 L 533 465 L 527 465 Z M 527 261 " clip-rule="nonzero"/></clipPath><clipPath id="e874a8f0a3"><path d="M 16.882812 35.941406 L 16.882812 446.625 C 16.882812 457.394531 25.613281 466.125 36.382812 466.125 L 1438.210938 466.125 C 1448.980469 466.125 1457.710938 457.394531 1457.710938 446.625 L 1457.710938 35.941406 C 1457.710938 25.171875 1448.980469 16.441406 1438.210938 16.441406 L 36.382812 16.441406 C 25.613281 16.441406 16.882812 25.171875 16.882812 35.941406 Z M 16.882812 35.941406 " clip-rule="nonzero"/></clipPath><clipPath id="d18dcd3506"><path d="M 37.652344 17.710938 L 1436.941406 17.710938 C 1447.710938 17.710938 1456.441406 26.441406 1456.441406 37.210938 L 1456.441406 445.355469 C 1456.441406 456.125 1447.710938 464.855469 1436.941406 464.855469 L 37.652344 464.855469 C 26.882812 464.855469 18.152344 456.125 18.152344 445.355469 L 18.152344 37.210938 C 18.152344 26.441406 26.882812 17.710938 37.652344 17.710938 Z M 37.652344 17.710938 " clip-rule="nonzero"/></clipPath><clipPath id="786a64dd31"><path d="M 631 260 L 638 260 L 638 465 L 631 465 Z M 631 260 " clip-rule="nonzero"/></clipPath><clipPath id="30c65a89be"><path d="M 16.882812 35.941406 L 16.882812 446.625 C 16.882812 457.394531 25.613281 466.125 36.382812 466.125 L 1438.210938 466.125 C 1448.980469 466.125 1457.710938 457.394531 1457.710938 446.625 L 1457.710938 35.941406 C 1457.710938 25.171875 1448.980469 16.441406 1438.210938 16.441406 L 36.382812 16.441406 C 25.613281 16.441406 16.882812 25.171875 16.882812 35.941406 Z M 16.882812 35.941406 " clip-rule="nonzero"/></clipPath><clipPath id="e9a6877786"><path d="M 37.652344 17.710938 L 1436.941406 17.710938 C 1447.710938 17.710938 1456.441406 26.441406 1456.441406 37.210938 L 1456.441406 445.355469 C 1456.441406 456.125 1447.710938 464.855469 1436.941406 464.855469 L 37.652344 464.855469 C 26.882812 464.855469 18.152344 456.125 18.152344 445.355469 L 18.152344 37.210938 C 18.152344 26.441406 26.882812 17.710938 37.652344 17.710938 Z M 37.652344 17.710938 " clip-rule="nonzero"/></clipPath><clipPath id="a6680d79e5"><path d="M 323 17.5 L 329 17.5 L 329 465 L 323 465 Z M 323 17.5 " clip-rule="nonzero"/></clipPath><clipPath id="1a598e0bae"><path d="M 16.882812 35.941406 L 16.882812 446.625 C 16.882812 457.394531 25.613281 466.125 36.382812 466.125 L 1438.210938 466.125 C 1448.980469 466.125 1457.710938 457.394531 1457.710938 446.625 L 1457.710938 35.941406 C 1457.710938 25.171875 1448.980469 16.441406 1438.210938 16.441406 L 36.382812 16.441406 C 25.613281 16.441406 16.882812 25.171875 16.882812 35.941406 Z M 16.882812 35.941406 " clip-rule="nonzero"/></clipPath><clipPath id="4d0621ea2a"><path d="M 37.652344 17.710938 L 1436.941406 17.710938 C 1447.710938 17.710938 1456.441406 26.441406 1456.441406 37.210938 L 1456.441406 445.355469 C 1456.441406 456.125 1447.710938 464.855469 1436.941406 464.855469 L 37.652344 464.855469 C 26.882812 464.855469 18.152344 456.125 18.152344 445.355469 L 18.152344 37.210938 C 18.152344 26.441406 26.882812 17.710938 37.652344 17.710938 Z M 37.652344 17.710938 " clip-rule="nonzero"/></clipPath><clipPath id="3be39c0f96"><path d="M 102 29 L 146 29 L 146 267 L 102 267 Z M 102 29 " clip-rule="nonzero"/></clipPath><clipPath id="bdd2718fb3"><path d="M 16.882812 35.941406 L 16.882812 446.625 C 16.882812 457.394531 25.613281 466.125 36.382812 466.125 L 1438.210938 466.125 C 1448.980469 466.125 1457.710938 457.394531 1457.710938 446.625 L 1457.710938 35.941406 C 1457.710938 25.171875 1448.980469 16.441406 1438.210938 16.441406 L 36.382812 16.441406 C 25.613281 16.441406 16.882812 25.171875 16.882812 35.941406 Z M 16.882812 35.941406 " clip-rule="nonzero"/></clipPath><clipPath id="70915f9781"><path d="M 37.652344 17.710938 L 1436.941406 17.710938 C 1447.710938 17.710938 1456.441406 26.441406 1456.441406 37.210938 L 1456.441406 445.355469 C 1456.441406 456.125 1447.710938 464.855469 1436.941406 464.855469 L 37.652344 464.855469 C 26.882812 464.855469 18.152344 456.125 18.152344 445.355469 L 18.152344 37.210938 C 18.152344 26.441406 26.882812 17.710938 37.652344 17.710938 Z M 37.652344 17.710938 " clip-rule="nonzero"/></clipPath><clipPath id="117039e1c9"><path d="M 96 24 L 152 24 L 152 272 L 96 272 Z M 96 24 " clip-rule="nonzero"/></clipPath><clipPath id="3c7d0d22bf"><path d="M 16.882812 35.941406 L 16.882812 446.625 C 16.882812 457.394531 25.613281 466.125 36.382812 466.125 L 1438.210938 466.125 C 1448.980469 466.125 1457.710938 457.394531 1457.710938 446.625 L 1457.710938 35.941406 C 1457.710938 25.171875 1448.980469 16.441406 1438.210938 16.441406 L 36.382812 16.441406 C 25.613281 16.441406 16.882812 25.171875 16.882812 35.941406 Z M 16.882812 35.941406 " clip-rule="nonzero"/></clipPath><clipPath id="b1d776b6fc"><path d="M 37.652344 17.710938 L 1436.941406 17.710938 C 1447.710938 17.710938 1456.441406 26.441406 1456.441406 37.210938 L 1456.441406 445.355469 C 1456.441406 456.125 1447.710938 464.855469 1436.941406 464.855469 L 37.652344 464.855469 C 26.882812 464.855469 18.152344 456.125 18.152344 445.355469 L 18.152344 37.210938 C 18.152344 26.441406 26.882812 17.710938 37.652344 17.710938 Z M 37.652344 17.710938 " clip-rule="nonzero"/></clipPath><clipPath id="e1a566fdbe"><path d="M 815 18 L 868 18 L 868 273 L 815 273 Z M 815 18 " clip-rule="nonzero"/></clipPath><clipPath id="03ef3f1c25"><path d="M 16.882812 35.941406 L 16.882812 446.625 C 16.882812 457.394531 25.613281 466.125 36.382812 466.125 L 1438.210938 466.125 C 1448.980469 466.125 1457.710938 457.394531 1457.710938 446.625 L 1457.710938 35.941406 C 1457.710938 25.171875 1448.980469 16.441406 1438.210938 16.441406 L 36.382812 16.441406 C 25.613281 16.441406 16.882812 25.171875 16.882812 35.941406 Z M 16.882812 35.941406 " clip-rule="nonzero"/></clipPath><clipPath id="f45faef291"><path d="M 37.652344 17.710938 L 1436.941406 17.710938 C 1447.710938 17.710938 1456.441406 26.441406 1456.441406 37.210938 L 1456.441406 445.355469 C 1456.441406 456.125 1447.710938 464.855469 1436.941406 464.855469 L 37.652344 464.855469 C 26.882812 464.855469 18.152344 456.125 18.152344 445.355469 L 18.152344 37.210938 C 18.152344 26.441406 26.882812 17.710938 37.652344 17.710938 Z M 37.652344 17.710938 " clip-rule="nonzero"/></clipPath><clipPath id="da8cad9afa"><path d="M 815 18 L 868 18 L 868 274 L 815 274 Z M 815 18 " clip-rule="nonzero"/></clipPath><clipPath id="2abbc4e2b5"><path d="M 16.882812 35.941406 L 16.882812 446.625 C 16.882812 457.394531 25.613281 466.125 36.382812 466.125 L 1438.210938 466.125 C 1448.980469 466.125 1457.710938 457.394531 1457.710938 446.625 L 1457.710938 35.941406 C 1457.710938 25.171875 1448.980469 16.441406 1438.210938 16.441406 L 36.382812 16.441406 C 25.613281 16.441406 16.882812 25.171875 16.882812 35.941406 Z M 16.882812 35.941406 " clip-rule="nonzero"/></clipPath><clipPath id="5eea46e544"><path d="M 37.652344 17.710938 L 1436.941406 17.710938 C 1447.710938 17.710938 1456.441406 26.441406 1456.441406 37.210938 L 1456.441406 445.355469 C 1456.441406 456.125 1447.710938 464.855469 1436.941406 464.855469 L 37.652344 464.855469 C 26.882812 464.855469 18.152344 456.125 18.152344 445.355469 L 18.152344 37.210938 C 18.152344 26.441406 26.882812 17.710938 37.652344 17.710938 Z M 37.652344 17.710938 " clip-rule="nonzero"/></clipPath><clipPath id="2d2520706e"><path d="M 917 18 L 970 18 L 970 273 L 917 273 Z M 917 18 " clip-rule="nonzero"/></clipPath><clipPath id="e7907c9a0a"><path d="M 16.882812 35.941406 L 16.882812 446.625 C 16.882812 457.394531 25.613281 466.125 36.382812 466.125 L 1438.210938 466.125 C 1448.980469 466.125 1457.710938 457.394531 1457.710938 446.625 L 1457.710938 35.941406 C 1457.710938 25.171875 1448.980469 16.441406 1438.210938 16.441406 L 36.382812 16.441406 C 25.613281 16.441406 16.882812 25.171875 16.882812 35.941406 Z M 16.882812 35.941406 " clip-rule="nonzero"/></clipPath><clipPath id="9126805f5e"><path d="M 37.652344 17.710938 L 1436.941406 17.710938 C 1447.710938 17.710938 1456.441406 26.441406 1456.441406 37.210938 L 1456.441406 445.355469 C 1456.441406 456.125 1447.710938 464.855469 1436.941406 464.855469 L 37.652344 464.855469 C 26.882812 464.855469 18.152344 456.125 18.152344 445.355469 L 18.152344 37.210938 C 18.152344 26.441406 26.882812 17.710938 37.652344 17.710938 Z M 37.652344 17.710938 " clip-rule="nonzero"/></clipPath><clipPath id="fb58e9fb50"><path d="M 917 18 L 971 18 L 971 273 L 917 273 Z M 917 18 " clip-rule="nonzero"/></clipPath><clipPath id="a8714e283c"><path d="M 16.882812 35.941406 L 16.882812 446.625 C 16.882812 457.394531 25.613281 466.125 36.382812 466.125 L 1438.210938 466.125 C 1448.980469 466.125 1457.710938 457.394531 1457.710938 446.625 L 1457.710938 35.941406 C 1457.710938 25.171875 1448.980469 16.441406 1438.210938 16.441406 L 36.382812 16.441406 C 25.613281 16.441406 16.882812 25.171875 16.882812 35.941406 Z M 16.882812 35.941406 " clip-rule="nonzero"/></clipPath><clipPath id="7c012173a3"><path d="M 37.652344 17.710938 L 1436.941406 17.710938 C 1447.710938 17.710938 1456.441406 26.441406 1456.441406 37.210938 L 1456.441406 445.355469 C 1456.441406 456.125 1447.710938 464.855469 1436.941406 464.855469 L 37.652344 464.855469 C 26.882812 464.855469 18.152344 456.125 18.152344 445.355469 L 18.152344 37.210938 C 18.152344 26.441406 26.882812 17.710938 37.652344 17.710938 Z M 37.652344 17.710938 " clip-rule="nonzero"/></clipPath><clipPath id="39650385d3"><path d="M 1122 18 L 1175 18 L 1175 272 L 1122 272 Z M 1122 18 " clip-rule="nonzero"/></clipPath><clipPath id="870e496d18"><path d="M 16.882812 35.941406 L 16.882812 446.625 C 16.882812 457.394531 25.613281 466.125 36.382812 466.125 L 1438.210938 466.125 C 1448.980469 466.125 1457.710938 457.394531 1457.710938 446.625 L 1457.710938 35.941406 C 1457.710938 25.171875 1448.980469 16.441406 1438.210938 16.441406 L 36.382812 16.441406 C 25.613281 16.441406 16.882812 25.171875 16.882812 35.941406 Z M 16.882812 35.941406 " clip-rule="nonzero"/></clipPath><clipPath id="aa66106026"><path d="M 37.652344 17.710938 L 1436.941406 17.710938 C 1447.710938 17.710938 1456.441406 26.441406 1456.441406 37.210938 L 1456.441406 445.355469 C 1456.441406 456.125 1447.710938 464.855469 1436.941406 464.855469 L 37.652344 464.855469 C 26.882812 464.855469 18.152344 456.125 18.152344 445.355469 L 18.152344 37.210938 C 18.152344 26.441406 26.882812 17.710938 37.652344 17.710938 Z M 37.652344 17.710938 " clip-rule="nonzero"/></clipPath><clipPath id="89df60452a"><path d="M 1122 17.5 L 1175 17.5 L 1175 273 L 1122 273 Z M 1122 17.5 " clip-rule="nonzero"/></clipPath><clipPath id="7fa5ffb100"><path d="M 16.882812 35.941406 L 16.882812 446.625 C 16.882812 457.394531 25.613281 466.125 36.382812 466.125 L 1438.210938 466.125 C 1448.980469 466.125 1457.710938 457.394531 1457.710938 446.625 L 1457.710938 35.941406 C 1457.710938 25.171875 1448.980469 16.441406 1438.210938 16.441406 L 36.382812 16.441406 C 25.613281 16.441406 16.882812 25.171875 16.882812 35.941406 Z M 16.882812 35.941406 " clip-rule="nonzero"/></clipPath><clipPath id="7d3160dc9b"><path d="M 37.652344 17.710938 L 1436.941406 17.710938 C 1447.710938 17.710938 1456.441406 26.441406 1456.441406 37.210938 L 1456.441406 445.355469 C 1456.441406 456.125 1447.710938 464.855469 1436.941406 464.855469 L 37.652344 464.855469 C 26.882812 464.855469 18.152344 456.125 18.152344 445.355469 L 18.152344 37.210938 C 18.152344 26.441406 26.882812 17.710938 37.652344 17.710938 Z M 37.652344 17.710938 " clip-rule="nonzero"/></clipPath><clipPath id="a8042d309b"><path d="M 1224 19 L 1276 19 L 1276 273 L 1224 273 Z M 1224 19 " clip-rule="nonzero"/></clipPath><clipPath id="4f9a1337b1"><path d="M 16.882812 35.941406 L 16.882812 446.625 C 16.882812 457.394531 25.613281 466.125 36.382812 466.125 L 1438.210938 466.125 C 1448.980469 466.125 1457.710938 457.394531 1457.710938 446.625 L 1457.710938 35.941406 C 1457.710938 25.171875 1448.980469 16.441406 1438.210938 16.441406 L 36.382812 16.441406 C 25.613281 16.441406 16.882812 25.171875 16.882812 35.941406 Z M 16.882812 35.941406 " clip-rule="nonzero"/></clipPath><clipPath id="3e2bb4e73c"><path d="M 37.652344 17.710938 L 1436.941406 17.710938 C 1447.710938 17.710938 1456.441406 26.441406 1456.441406 37.210938 L 1456.441406 445.355469 C 1456.441406 456.125 1447.710938 464.855469 1436.941406 464.855469 L 37.652344 464.855469 C 26.882812 464.855469 18.152344 456.125 18.152344 445.355469 L 18.152344 37.210938 C 18.152344 26.441406 26.882812 17.710938 37.652344 17.710938 Z M 37.652344 17.710938 " clip-rule="nonzero"/></clipPath><clipPath id="1b73cc6459"><path d="M 1223 18 L 1277 18 L 1277 274 L 1223 274 Z M 1223 18 " clip-rule="nonzero"/></clipPath><clipPath id="3f8ee5e97b"><path d="M 16.882812 35.941406 L 16.882812 446.625 C 16.882812 457.394531 25.613281 466.125 36.382812 466.125 L 1438.210938 466.125 C 1448.980469 466.125 1457.710938 457.394531 1457.710938 446.625 L 1457.710938 35.941406 C 1457.710938 25.171875 1448.980469 16.441406 1438.210938 16.441406 L 36.382812 16.441406 C 25.613281 16.441406 16.882812 25.171875 16.882812 35.941406 Z M 16.882812 35.941406 " clip-rule="nonzero"/></clipPath><clipPath id="8718e7cf83"><path d="M 37.652344 17.710938 L 1436.941406 17.710938 C 1447.710938 17.710938 1456.441406 26.441406 1456.441406 37.210938 L 1456.441406 445.355469 C 1456.441406 456.125 1447.710938 464.855469 1436.941406 464.855469 L 37.652344 464.855469 C 26.882812 464.855469 18.152344 456.125 18.152344 445.355469 L 18.152344 37.210938 C 18.152344 26.441406 26.882812 17.710938 37.652344 17.710938 Z M 37.652344 17.710938 " clip-rule="nonzero"/></clipPath><clipPath id="740d1162ea"><path d="M 1327 18 L 1380 18 L 1380 273 L 1327 273 Z M 1327 18 " clip-rule="nonzero"/></clipPath><clipPath id="c74b0f9483"><path d="M 16.882812 35.941406 L 16.882812 446.625 C 16.882812 457.394531 25.613281 466.125 36.382812 466.125 L 1438.210938 466.125 C 1448.980469 466.125 1457.710938 457.394531 1457.710938 446.625 L 1457.710938 35.941406 C 1457.710938 25.171875 1448.980469 16.441406 1438.210938 16.441406 L 36.382812 16.441406 C 25.613281 16.441406 16.882812 25.171875 16.882812 35.941406 Z M 16.882812 35.941406 " clip-rule="nonzero"/></clipPath><clipPath id="b8095d4c31"><path d="M 37.652344 17.710938 L 1436.941406 17.710938 C 1447.710938 17.710938 1456.441406 26.441406 1456.441406 37.210938 L 1456.441406 445.355469 C 1456.441406 456.125 1447.710938 464.855469 1436.941406 464.855469 L 37.652344 464.855469 C 26.882812 464.855469 18.152344 456.125 18.152344 445.355469 L 18.152344 37.210938 C 18.152344 26.441406 26.882812 17.710938 37.652344 17.710938 Z M 37.652344 17.710938 " clip-rule="nonzero"/></clipPath><clipPath id="a9340fc178"><path d="M 1327 18 L 1381 18 L 1381 273 L 1327 273 Z M 1327 18 " clip-rule="nonzero"/></clipPath><clipPath id="cee0ce4f01"><path d="M 16.882812 35.941406 L 16.882812 446.625 C 16.882812 457.394531 25.613281 466.125 36.382812 466.125 L 1438.210938 466.125 C 1448.980469 466.125 1457.710938 457.394531 1457.710938 446.625 L 1457.710938 35.941406 C 1457.710938 25.171875 1448.980469 16.441406 1438.210938 16.441406 L 36.382812 16.441406 C 25.613281 16.441406 16.882812 25.171875 16.882812 35.941406 Z M 16.882812 35.941406 " clip-rule="nonzero"/></clipPath><clipPath id="06264c8dbd"><path d="M 37.652344 17.710938 L 1436.941406 17.710938 C 1447.710938 17.710938 1456.441406 26.441406 1456.441406 37.210938 L 1456.441406 445.355469 C 1456.441406 456.125 1447.710938 464.855469 1436.941406 464.855469 L 37.652344 464.855469 C 26.882812 464.855469 18.152344 456.125 18.152344 445.355469 L 18.152344 37.210938 C 18.152344 26.441406 26.882812 17.710938 37.652344 17.710938 Z M 37.652344 17.710938 " clip-rule="nonzero"/></clipPath><clipPath id="4a64277437"><path d="M 737 17.5 L 1456.570312 17.5 L 1456.570312 464 L 737 464 Z M 737 17.5 " clip-rule="nonzero"/></clipPath><clipPath id="46cb9ca77a"><path d="M 16.882812 35.941406 L 16.882812 446.625 C 16.882812 457.394531 25.613281 466.125 36.382812 466.125 L 1438.210938 466.125 C 1448.980469 466.125 1457.710938 457.394531 1457.710938 446.625 L 1457.710938 35.941406 C 1457.710938 25.171875 1448.980469 16.441406 1438.210938 16.441406 L 36.382812 16.441406 C 25.613281 16.441406 16.882812 25.171875 16.882812 35.941406 Z M 16.882812 35.941406 " clip-rule="nonzero"/></clipPath><clipPath id="06b9372c0b"><path d="M 37.652344 17.710938 L 1436.941406 17.710938 C 1447.710938 17.710938 1456.441406 26.441406 1456.441406 37.210938 L 1456.441406 445.355469 C 1456.441406 456.125 1447.710938 464.855469 1436.941406 464.855469 L 37.652344 464.855469 C 26.882812 464.855469 18.152344 456.125 18.152344 445.355469 L 18.152344 37.210938 C 18.152344 26.441406 26.882812 17.710938 37.652344 17.710938 Z M 37.652344 17.710938 " clip-rule="nonzero"/></clipPath><clipPath id="e35c1bec7b"><path d="M 838 259 L 844 259 L 844 465 L 838 465 Z M 838 259 " clip-rule="nonzero"/></clipPath><clipPath id="313d024e53"><path d="M 16.882812 35.941406 L 16.882812 446.625 C 16.882812 457.394531 25.613281 466.125 36.382812 466.125 L 1438.210938 466.125 C 1448.980469 466.125 1457.710938 457.394531 1457.710938 446.625 L 1457.710938 35.941406 C 1457.710938 25.171875 1448.980469 16.441406 1438.210938 16.441406 L 36.382812 16.441406 C 25.613281 16.441406 16.882812 25.171875 16.882812 35.941406 Z M 16.882812 35.941406 " clip-rule="nonzero"/></clipPath><clipPath id="0adcf11386"><path d="M 37.652344 17.710938 L 1436.941406 17.710938 C 1447.710938 17.710938 1456.441406 26.441406 1456.441406 37.210938 L 1456.441406 445.355469 C 1456.441406 456.125 1447.710938 464.855469 1436.941406 464.855469 L 37.652344 464.855469 C 26.882812 464.855469 18.152344 456.125 18.152344 445.355469 L 18.152344 37.210938 C 18.152344 26.441406 26.882812 17.710938 37.652344 17.710938 Z M 37.652344 17.710938 " clip-rule="nonzero"/></clipPath><clipPath id="134bca5da8"><path d="M 941 258 L 947 258 L 947 465 L 941 465 Z M 941 258 " clip-rule="nonzero"/></clipPath><clipPath id="e3aeba2b19"><path d="M 16.882812 35.941406 L 16.882812 446.625 C 16.882812 457.394531 25.613281 466.125 36.382812 466.125 L 1438.210938 466.125 C 1448.980469 466.125 1457.710938 457.394531 1457.710938 446.625 L 1457.710938 35.941406 C 1457.710938 25.171875 1448.980469 16.441406 1438.210938 16.441406 L 36.382812 16.441406 C 25.613281 16.441406 16.882812 25.171875 16.882812 35.941406 Z M 16.882812 35.941406 " clip-rule="nonzero"/></clipPath><clipPath id="d940c379ea"><path d="M 37.652344 17.710938 L 1436.941406 17.710938 C 1447.710938 17.710938 1456.441406 26.441406 1456.441406 37.210938 L 1456.441406 445.355469 C 1456.441406 456.125 1447.710938 464.855469 1436.941406 464.855469 L 37.652344 464.855469 C 26.882812 464.855469 18.152344 456.125 18.152344 445.355469 L 18.152344 37.210938 C 18.152344 26.441406 26.882812 17.710938 37.652344 17.710938 Z M 37.652344 17.710938 " clip-rule="nonzero"/></clipPath><clipPath id="6b2f0792d1"><path d="M 1145 259 L 1152 259 L 1152 465 L 1145 465 Z M 1145 259 " clip-rule="nonzero"/></clipPath><clipPath id="d35ed281ed"><path d="M 16.882812 35.941406 L 16.882812 446.625 C 16.882812 457.394531 25.613281 466.125 36.382812 466.125 L 1438.210938 466.125 C 1448.980469 466.125 1457.710938 457.394531 1457.710938 446.625 L 1457.710938 35.941406 C 1457.710938 25.171875 1448.980469 16.441406 1438.210938 16.441406 L 36.382812 16.441406 C 25.613281 16.441406 16.882812 25.171875 16.882812 35.941406 Z M 16.882812 35.941406 " clip-rule="nonzero"/></clipPath><clipPath id="31d754de4d"><path d="M 37.652344 17.710938 L 1436.941406 17.710938 C 1447.710938 17.710938 1456.441406 26.441406 1456.441406 37.210938 L 1456.441406 445.355469 C 1456.441406 456.125 1447.710938 464.855469 1436.941406 464.855469 L 37.652344 464.855469 C 26.882812 464.855469 18.152344 456.125 18.152344 445.355469 L 18.152344 37.210938 C 18.152344 26.441406 26.882812 17.710938 37.652344 17.710938 Z M 37.652344 17.710938 " clip-rule="nonzero"/></clipPath><clipPath id="d98aed6149"><path d="M 1247 259 L 1254 259 L 1254 465 L 1247 465 Z M 1247 259 " clip-rule="nonzero"/></clipPath><clipPath id="dcef646527"><path d="M 16.882812 35.941406 L 16.882812 446.625 C 16.882812 457.394531 25.613281 466.125 36.382812 466.125 L 1438.210938 466.125 C 1448.980469 466.125 1457.710938 457.394531 1457.710938 446.625 L 1457.710938 35.941406 C 1457.710938 25.171875 1448.980469 16.441406 1438.210938 16.441406 L 36.382812 16.441406 C 25.613281 16.441406 16.882812 25.171875 16.882812 35.941406 Z M 16.882812 35.941406 " clip-rule="nonzero"/></clipPath><clipPath id="b94fec90b0"><path d="M 37.652344 17.710938 L 1436.941406 17.710938 C 1447.710938 17.710938 1456.441406 26.441406 1456.441406 37.210938 L 1456.441406 445.355469 C 1456.441406 456.125 1447.710938 464.855469 1436.941406 464.855469 L 37.652344 464.855469 C 26.882812 464.855469 18.152344 456.125 18.152344 445.355469 L 18.152344 37.210938 C 18.152344 26.441406 26.882812 17.710938 37.652344 17.710938 Z M 37.652344 17.710938 " clip-rule="nonzero"/></clipPath><clipPath id="21fb992c00"><path d="M 1351 259 L 1358 259 L 1358 465 L 1351 465 Z M 1351 259 " clip-rule="nonzero"/></clipPath><clipPath id="96fc045c4f"><path d="M 16.882812 35.941406 L 16.882812 446.625 C 16.882812 457.394531 25.613281 466.125 36.382812 466.125 L 1438.210938 466.125 C 1448.980469 466.125 1457.710938 457.394531 1457.710938 446.625 L 1457.710938 35.941406 C 1457.710938 25.171875 1448.980469 16.441406 1438.210938 16.441406 L 36.382812 16.441406 C 25.613281 16.441406 16.882812 25.171875 16.882812 35.941406 Z M 16.882812 35.941406 " clip-rule="nonzero"/></clipPath><clipPath id="ac161612f6"><path d="M 37.652344 17.710938 L 1436.941406 17.710938 C 1447.710938 17.710938 1456.441406 26.441406 1456.441406 37.210938 L 1456.441406 445.355469 C 1456.441406 456.125 1447.710938 464.855469 1436.941406 464.855469 L 37.652344 464.855469 C 26.882812 464.855469 18.152344 456.125 18.152344 445.355469 L 18.152344 37.210938 C 18.152344 26.441406 26.882812 17.710938 37.652344 17.710938 Z M 37.652344 17.710938 " clip-rule="nonzero"/></clipPath><clipPath id="5e45e28a54"><path d="M 1043 17.5 L 1050 17.5 L 1050 465 L 1043 465 Z M 1043 17.5 " clip-rule="nonzero"/></clipPath><clipPath id="ebaeda4412"><path d="M 16.882812 35.941406 L 16.882812 446.625 C 16.882812 457.394531 25.613281 466.125 36.382812 466.125 L 1438.210938 466.125 C 1448.980469 466.125 1457.710938 457.394531 1457.710938 446.625 L 1457.710938 35.941406 C 1457.710938 25.171875 1448.980469 16.441406 1438.210938 16.441406 L 36.382812 16.441406 C 25.613281 16.441406 16.882812 25.171875 16.882812 35.941406 Z M 16.882812 35.941406 " clip-rule="nonzero"/></clipPath><clipPath id="a24f152a3a"><path d="M 37.652344 17.710938 L 1436.941406 17.710938 C 1447.710938 17.710938 1456.441406 26.441406 1456.441406 37.210938 L 1456.441406 445.355469 C 1456.441406 456.125 1447.710938 464.855469 1436.941406 464.855469 L 37.652344 464.855469 C 26.882812 464.855469 18.152344 456.125 18.152344 445.355469 L 18.152344 37.210938 C 18.152344 26.441406 26.882812 17.710938 37.652344 17.710938 Z M 37.652344 17.710938 " clip-rule="nonzero"/></clipPath><clipPath id="e7ef4685f2"><path d="M 203 27 L 247 27 L 247 264 L 203 264 Z M 203 27 " clip-rule="nonzero"/></clipPath><clipPath id="c6d9fbd332"><path d="M 16.882812 35.941406 L 16.882812 446.625 C 16.882812 457.394531 25.613281 466.125 36.382812 466.125 L 1438.210938 466.125 C 1448.980469 466.125 1457.710938 457.394531 1457.710938 446.625 L 1457.710938 35.941406 C 1457.710938 25.171875 1448.980469 16.441406 1438.210938 16.441406 L 36.382812 16.441406 C 25.613281 16.441406 16.882812 25.171875 16.882812 35.941406 Z M 16.882812 35.941406 " clip-rule="nonzero"/></clipPath><clipPath id="ad81356c72"><path d="M 37.652344 17.710938 L 1436.941406 17.710938 C 1447.710938 17.710938 1456.441406 26.441406 1456.441406 37.210938 L 1456.441406 445.355469 C 1456.441406 456.125 1447.710938 464.855469 1436.941406 464.855469 L 37.652344 464.855469 C 26.882812 464.855469 18.152344 456.125 18.152344 445.355469 L 18.152344 37.210938 C 18.152344 26.441406 26.882812 17.710938 37.652344 17.710938 Z M 37.652344 17.710938 " clip-rule="nonzero"/></clipPath><clipPath id="4b3a9cb1ff"><path d="M 198 21 L 253 21 L 253 270 L 198 270 Z M 198 21 " clip-rule="nonzero"/></clipPath><clipPath id="569d1970ea"><path d="M 16.882812 35.941406 L 16.882812 446.625 C 16.882812 457.394531 25.613281 466.125 36.382812 466.125 L 1438.210938 466.125 C 1448.980469 466.125 1457.710938 457.394531 1457.710938 446.625 L 1457.710938 35.941406 C 1457.710938 25.171875 1448.980469 16.441406 1438.210938 16.441406 L 36.382812 16.441406 C 25.613281 16.441406 16.882812 25.171875 16.882812 35.941406 Z M 16.882812 35.941406 " clip-rule="nonzero"/></clipPath><clipPath id="0da8364ed4"><path d="M 37.652344 17.710938 L 1436.941406 17.710938 C 1447.710938 17.710938 1456.441406 26.441406 1456.441406 37.210938 L 1456.441406 445.355469 C 1456.441406 456.125 1447.710938 464.855469 1436.941406 464.855469 L 37.652344 464.855469 C 26.882812 464.855469 18.152344 456.125 18.152344 445.355469 L 18.152344 37.210938 C 18.152344 26.441406 26.882812 17.710938 37.652344 17.710938 Z M 37.652344 17.710938 " clip-rule="nonzero"/></clipPath><clipPath id="c62ed3f7d2"><path d="M 408 27 L 452 27 L 452 264 L 408 264 Z M 408 27 " clip-rule="nonzero"/></clipPath><clipPath id="c903ed68b4"><path d="M 16.882812 35.941406 L 16.882812 446.625 C 16.882812 457.394531 25.613281 466.125 36.382812 466.125 L 1438.210938 466.125 C 1448.980469 466.125 1457.710938 457.394531 1457.710938 446.625 L 1457.710938 35.941406 C 1457.710938 25.171875 1448.980469 16.441406 1438.210938 16.441406 L 36.382812 16.441406 C 25.613281 16.441406 16.882812 25.171875 16.882812 35.941406 Z M 16.882812 35.941406 " clip-rule="nonzero"/></clipPath><clipPath id="ac7413a6a3"><path d="M 37.652344 17.710938 L 1436.941406 17.710938 C 1447.710938 17.710938 1456.441406 26.441406 1456.441406 37.210938 L 1456.441406 445.355469 C 1456.441406 456.125 1447.710938 464.855469 1436.941406 464.855469 L 37.652344 464.855469 C 26.882812 464.855469 18.152344 456.125 18.152344 445.355469 L 18.152344 37.210938 C 18.152344 26.441406 26.882812 17.710938 37.652344 17.710938 Z M 37.652344 17.710938 " clip-rule="nonzero"/></clipPath><clipPath id="b49bcf905b"><path d="M 403 21 L 458 21 L 458 270 L 403 270 Z M 403 21 " clip-rule="nonzero"/></clipPath><clipPath id="d0abb083b2"><path d="M 16.882812 35.941406 L 16.882812 446.625 C 16.882812 457.394531 25.613281 466.125 36.382812 466.125 L 1438.210938 466.125 C 1448.980469 466.125 1457.710938 457.394531 1457.710938 446.625 L 1457.710938 35.941406 C 1457.710938 25.171875 1448.980469 16.441406 1438.210938 16.441406 L 36.382812 16.441406 C 25.613281 16.441406 16.882812 25.171875 16.882812 35.941406 Z M 16.882812 35.941406 " clip-rule="nonzero"/></clipPath><clipPath id="e4ea078132"><path d="M 37.652344 17.710938 L 1436.941406 17.710938 C 1447.710938 17.710938 1456.441406 26.441406 1456.441406 37.210938 L 1456.441406 445.355469 C 1456.441406 456.125 1447.710938 464.855469 1436.941406 464.855469 L 37.652344 464.855469 C 26.882812 464.855469 18.152344 456.125 18.152344 445.355469 L 18.152344 37.210938 C 18.152344 26.441406 26.882812 17.710938 37.652344 17.710938 Z M 37.652344 17.710938 " clip-rule="nonzero"/></clipPath><clipPath id="6692f8ad7d"><path d="M 509 28 L 553 28 L 553 266 L 509 266 Z M 509 28 " clip-rule="nonzero"/></clipPath><clipPath id="23ccac29b1"><path d="M 16.882812 35.941406 L 16.882812 446.625 C 16.882812 457.394531 25.613281 466.125 36.382812 466.125 L 1438.210938 466.125 C 1448.980469 466.125 1457.710938 457.394531 1457.710938 446.625 L 1457.710938 35.941406 C 1457.710938 25.171875 1448.980469 16.441406 1438.210938 16.441406 L 36.382812 16.441406 C 25.613281 16.441406 16.882812 25.171875 16.882812 35.941406 Z M 16.882812 35.941406 " clip-rule="nonzero"/></clipPath><clipPath id="4682e68c1f"><path d="M 37.652344 17.710938 L 1436.941406 17.710938 C 1447.710938 17.710938 1456.441406 26.441406 1456.441406 37.210938 L 1456.441406 445.355469 C 1456.441406 456.125 1447.710938 464.855469 1436.941406 464.855469 L 37.652344 464.855469 C 26.882812 464.855469 18.152344 456.125 18.152344 445.355469 L 18.152344 37.210938 C 18.152344 26.441406 26.882812 17.710938 37.652344 17.710938 Z M 37.652344 17.710938 " clip-rule="nonzero"/></clipPath><clipPath id="4aaf21696b"><path d="M 503 23 L 559 23 L 559 272 L 503 272 Z M 503 23 " clip-rule="nonzero"/></clipPath><clipPath id="6a65659d6d"><path d="M 16.882812 35.941406 L 16.882812 446.625 C 16.882812 457.394531 25.613281 466.125 36.382812 466.125 L 1438.210938 466.125 C 1448.980469 466.125 1457.710938 457.394531 1457.710938 446.625 L 1457.710938 35.941406 C 1457.710938 25.171875 1448.980469 16.441406 1438.210938 16.441406 L 36.382812 16.441406 C 25.613281 16.441406 16.882812 25.171875 16.882812 35.941406 Z M 16.882812 35.941406 " clip-rule="nonzero"/></clipPath><clipPath id="bf6f65b78e"><path d="M 37.652344 17.710938 L 1436.941406 17.710938 C 1447.710938 17.710938 1456.441406 26.441406 1456.441406 37.210938 L 1456.441406 445.355469 C 1456.441406 456.125 1447.710938 464.855469 1436.941406 464.855469 L 37.652344 464.855469 C 26.882812 464.855469 18.152344 456.125 18.152344 445.355469 L 18.152344 37.210938 C 18.152344 26.441406 26.882812 17.710938 37.652344 17.710938 Z M 37.652344 17.710938 " clip-rule="nonzero"/></clipPath><clipPath id="ecc68f4065"><path d="M 613 28 L 657 28 L 657 266 L 613 266 Z M 613 28 " clip-rule="nonzero"/></clipPath><clipPath id="fb0f227e15"><path d="M 16.882812 35.941406 L 16.882812 446.625 C 16.882812 457.394531 25.613281 466.125 36.382812 466.125 L 1438.210938 466.125 C 1448.980469 466.125 1457.710938 457.394531 1457.710938 446.625 L 1457.710938 35.941406 C 1457.710938 25.171875 1448.980469 16.441406 1438.210938 16.441406 L 36.382812 16.441406 C 25.613281 16.441406 16.882812 25.171875 16.882812 35.941406 Z M 16.882812 35.941406 " clip-rule="nonzero"/></clipPath><clipPath id="6bbedd6740"><path d="M 37.652344 17.710938 L 1436.941406 17.710938 C 1447.710938 17.710938 1456.441406 26.441406 1456.441406 37.210938 L 1456.441406 445.355469 C 1456.441406 456.125 1447.710938 464.855469 1436.941406 464.855469 L 37.652344 464.855469 C 26.882812 464.855469 18.152344 456.125 18.152344 445.355469 L 18.152344 37.210938 C 18.152344 26.441406 26.882812 17.710938 37.652344 17.710938 Z M 37.652344 17.710938 " clip-rule="nonzero"/></clipPath><clipPath id="3874ffe104"><path d="M 608 23 L 663 23 L 663 272 L 608 272 Z M 608 23 " clip-rule="nonzero"/></clipPath><clipPath id="95f72df5b7"><path d="M 16.882812 35.941406 L 16.882812 446.625 C 16.882812 457.394531 25.613281 466.125 36.382812 466.125 L 1438.210938 466.125 C 1448.980469 466.125 1457.710938 457.394531 1457.710938 446.625 L 1457.710938 35.941406 C 1457.710938 25.171875 1448.980469 16.441406 1438.210938 16.441406 L 36.382812 16.441406 C 25.613281 16.441406 16.882812 25.171875 16.882812 35.941406 Z M 16.882812 35.941406 " clip-rule="nonzero"/></clipPath><clipPath id="fa51766712"><path d="M 37.652344 17.710938 L 1436.941406 17.710938 C 1447.710938 17.710938 1456.441406 26.441406 1456.441406 37.210938 L 1456.441406 445.355469 C 1456.441406 456.125 1447.710938 464.855469 1436.941406 464.855469 L 37.652344 464.855469 C 26.882812 464.855469 18.152344 456.125 18.152344 445.355469 L 18.152344 37.210938 C 18.152344 26.441406 26.882812 17.710938 37.652344 17.710938 Z M 37.652344 17.710938 " clip-rule="nonzero"/></clipPath><clipPath id="2c1e8b8f60"><path d="M 820 25 L 864 25 L 864 262 L 820 262 Z M 820 25 " clip-rule="nonzero"/></clipPath><clipPath id="ce2fae6aa8"><path d="M 16.882812 35.941406 L 16.882812 446.625 C 16.882812 457.394531 25.613281 466.125 36.382812 466.125 L 1438.210938 466.125 C 1448.980469 466.125 1457.710938 457.394531 1457.710938 446.625 L 1457.710938 35.941406 C 1457.710938 25.171875 1448.980469 16.441406 1438.210938 16.441406 L 36.382812 16.441406 C 25.613281 16.441406 16.882812 25.171875 16.882812 35.941406 Z M 16.882812 35.941406 " clip-rule="nonzero"/></clipPath><clipPath id="f0dd23780d"><path d="M 37.652344 17.710938 L 1436.941406 17.710938 C 1447.710938 17.710938 1456.441406 26.441406 1456.441406 37.210938 L 1456.441406 445.355469 C 1456.441406 456.125 1447.710938 464.855469 1436.941406 464.855469 L 37.652344 464.855469 C 26.882812 464.855469 18.152344 456.125 18.152344 445.355469 L 18.152344 37.210938 C 18.152344 26.441406 26.882812 17.710938 37.652344 17.710938 Z M 37.652344 17.710938 " clip-rule="nonzero"/></clipPath><clipPath id="14be9209dd"><path d="M 814 19 L 870 19 L 870 268 L 814 268 Z M 814 19 " clip-rule="nonzero"/></clipPath><clipPath id="2cbd17b6ec"><path d="M 16.882812 35.941406 L 16.882812 446.625 C 16.882812 457.394531 25.613281 466.125 36.382812 466.125 L 1438.210938 466.125 C 1448.980469 466.125 1457.710938 457.394531 1457.710938 446.625 L 1457.710938 35.941406 C 1457.710938 25.171875 1448.980469 16.441406 1438.210938 16.441406 L 36.382812 16.441406 C 25.613281 16.441406 16.882812 25.171875 16.882812 35.941406 Z M 16.882812 35.941406 " clip-rule="nonzero"/></clipPath><clipPath id="e1cc8e3694"><path d="M 37.652344 17.710938 L 1436.941406 17.710938 C 1447.710938 17.710938 1456.441406 26.441406 1456.441406 37.210938 L 1456.441406 445.355469 C 1456.441406 456.125 1447.710938 464.855469 1436.941406 464.855469 L 37.652344 464.855469 C 26.882812 464.855469 18.152344 456.125 18.152344 445.355469 L 18.152344 37.210938 C 18.152344 26.441406 26.882812 17.710938 37.652344 17.710938 Z M 37.652344 17.710938 " clip-rule="nonzero"/></clipPath><clipPath id="bd29efdfc8"><path d="M 924 25 L 968 25 L 968 262 L 924 262 Z M 924 25 " clip-rule="nonzero"/></clipPath><clipPath id="29789d09c4"><path d="M 16.882812 35.941406 L 16.882812 446.625 C 16.882812 457.394531 25.613281 466.125 36.382812 466.125 L 1438.210938 466.125 C 1448.980469 466.125 1457.710938 457.394531 1457.710938 446.625 L 1457.710938 35.941406 C 1457.710938 25.171875 1448.980469 16.441406 1438.210938 16.441406 L 36.382812 16.441406 C 25.613281 16.441406 16.882812 25.171875 16.882812 35.941406 Z M 16.882812 35.941406 " clip-rule="nonzero"/></clipPath><clipPath id="6b182ee3bb"><path d="M 37.652344 17.710938 L 1436.941406 17.710938 C 1447.710938 17.710938 1456.441406 26.441406 1456.441406 37.210938 L 1456.441406 445.355469 C 1456.441406 456.125 1447.710938 464.855469 1436.941406 464.855469 L 37.652344 464.855469 C 26.882812 464.855469 18.152344 456.125 18.152344 445.355469 L 18.152344 37.210938 C 18.152344 26.441406 26.882812 17.710938 37.652344 17.710938 Z M 37.652344 17.710938 " clip-rule="nonzero"/></clipPath><clipPath id="26f4dc56f8"><path d="M 919 19 L 974 19 L 974 268 L 919 268 Z M 919 19 " clip-rule="nonzero"/></clipPath><clipPath id="faa094bab9"><path d="M 16.882812 35.941406 L 16.882812 446.625 C 16.882812 457.394531 25.613281 466.125 36.382812 466.125 L 1438.210938 466.125 C 1448.980469 466.125 1457.710938 457.394531 1457.710938 446.625 L 1457.710938 35.941406 C 1457.710938 25.171875 1448.980469 16.441406 1438.210938 16.441406 L 36.382812 16.441406 C 25.613281 16.441406 16.882812 25.171875 16.882812 35.941406 Z M 16.882812 35.941406 " clip-rule="nonzero"/></clipPath><clipPath id="b4e5a834ab"><path d="M 37.652344 17.710938 L 1436.941406 17.710938 C 1447.710938 17.710938 1456.441406 26.441406 1456.441406 37.210938 L 1456.441406 445.355469 C 1456.441406 456.125 1447.710938 464.855469 1436.941406 464.855469 L 37.652344 464.855469 C 26.882812 464.855469 18.152344 456.125 18.152344 445.355469 L 18.152344 37.210938 C 18.152344 26.441406 26.882812 17.710938 37.652344 17.710938 Z M 37.652344 17.710938 " clip-rule="nonzero"/></clipPath><clipPath id="2da6b87221"><path d="M 1129 30 L 1173 30 L 1173 268 L 1129 268 Z M 1129 30 " clip-rule="nonzero"/></clipPath><clipPath id="acb058b45e"><path d="M 16.882812 35.941406 L 16.882812 446.625 C 16.882812 457.394531 25.613281 466.125 36.382812 466.125 L 1438.210938 466.125 C 1448.980469 466.125 1457.710938 457.394531 1457.710938 446.625 L 1457.710938 35.941406 C 1457.710938 25.171875 1448.980469 16.441406 1438.210938 16.441406 L 36.382812 16.441406 C 25.613281 16.441406 16.882812 25.171875 16.882812 35.941406 Z M 16.882812 35.941406 " clip-rule="nonzero"/></clipPath><clipPath id="442045c545"><path d="M 37.652344 17.710938 L 1436.941406 17.710938 C 1447.710938 17.710938 1456.441406 26.441406 1456.441406 37.210938 L 1456.441406 445.355469 C 1456.441406 456.125 1447.710938 464.855469 1436.941406 464.855469 L 37.652344 464.855469 C 26.882812 464.855469 18.152344 456.125 18.152344 445.355469 L 18.152344 37.210938 C 18.152344 26.441406 26.882812 17.710938 37.652344 17.710938 Z M 37.652344 17.710938 " clip-rule="nonzero"/></clipPath><clipPath id="e592adac6f"><path d="M 1124 25 L 1179 25 L 1179 273 L 1124 273 Z M 1124 25 " clip-rule="nonzero"/></clipPath><clipPath id="b2a3bb0aa9"><path d="M 16.882812 35.941406 L 16.882812 446.625 C 16.882812 457.394531 25.613281 466.125 36.382812 466.125 L 1438.210938 466.125 C 1448.980469 466.125 1457.710938 457.394531 1457.710938 446.625 L 1457.710938 35.941406 C 1457.710938 25.171875 1448.980469 16.441406 1438.210938 16.441406 L 36.382812 16.441406 C 25.613281 16.441406 16.882812 25.171875 16.882812 35.941406 Z M 16.882812 35.941406 " clip-rule="nonzero"/></clipPath><clipPath id="5d5813ba47"><path d="M 37.652344 17.710938 L 1436.941406 17.710938 C 1447.710938 17.710938 1456.441406 26.441406 1456.441406 37.210938 L 1456.441406 445.355469 C 1456.441406 456.125 1447.710938 464.855469 1436.941406 464.855469 L 37.652344 464.855469 C 26.882812 464.855469 18.152344 456.125 18.152344 445.355469 L 18.152344 37.210938 C 18.152344 26.441406 26.882812 17.710938 37.652344 17.710938 Z M 37.652344 17.710938 " clip-rule="nonzero"/></clipPath><clipPath id="8f1d5c3dd0"><path d="M 1230 32 L 1274 32 L 1274 270 L 1230 270 Z M 1230 32 " clip-rule="nonzero"/></clipPath><clipPath id="a622026755"><path d="M 16.882812 35.941406 L 16.882812 446.625 C 16.882812 457.394531 25.613281 466.125 36.382812 466.125 L 1438.210938 466.125 C 1448.980469 466.125 1457.710938 457.394531 1457.710938 446.625 L 1457.710938 35.941406 C 1457.710938 25.171875 1448.980469 16.441406 1438.210938 16.441406 L 36.382812 16.441406 C 25.613281 16.441406 16.882812 25.171875 16.882812 35.941406 Z M 16.882812 35.941406 " clip-rule="nonzero"/></clipPath><clipPath id="815b3855f0"><path d="M 37.652344 17.710938 L 1436.941406 17.710938 C 1447.710938 17.710938 1456.441406 26.441406 1456.441406 37.210938 L 1456.441406 445.355469 C 1456.441406 456.125 1447.710938 464.855469 1436.941406 464.855469 L 37.652344 464.855469 C 26.882812 464.855469 18.152344 456.125 18.152344 445.355469 L 18.152344 37.210938 C 18.152344 26.441406 26.882812 17.710938 37.652344 17.710938 Z M 37.652344 17.710938 " clip-rule="nonzero"/></clipPath><clipPath id="a1e8c682d4"><path d="M 1224 26 L 1280 26 L 1280 275 L 1224 275 Z M 1224 26 " clip-rule="nonzero"/></clipPath><clipPath id="665b911484"><path d="M 16.882812 35.941406 L 16.882812 446.625 C 16.882812 457.394531 25.613281 466.125 36.382812 466.125 L 1438.210938 466.125 C 1448.980469 466.125 1457.710938 457.394531 1457.710938 446.625 L 1457.710938 35.941406 C 1457.710938 25.171875 1448.980469 16.441406 1438.210938 16.441406 L 36.382812 16.441406 C 25.613281 16.441406 16.882812 25.171875 16.882812 35.941406 Z M 16.882812 35.941406 " clip-rule="nonzero"/></clipPath><clipPath id="b19784a97f"><path d="M 37.652344 17.710938 L 1436.941406 17.710938 C 1447.710938 17.710938 1456.441406 26.441406 1456.441406 37.210938 L 1456.441406 445.355469 C 1456.441406 456.125 1447.710938 464.855469 1436.941406 464.855469 L 37.652344 464.855469 C 26.882812 464.855469 18.152344 456.125 18.152344 445.355469 L 18.152344 37.210938 C 18.152344 26.441406 26.882812 17.710938 37.652344 17.710938 Z M 37.652344 17.710938 " clip-rule="nonzero"/></clipPath><clipPath id="08511c1ba1"><path d="M 1332 30 L 1376 30 L 1376 268 L 1332 268 Z M 1332 30 " clip-rule="nonzero"/></clipPath><clipPath id="47f256d8f7"><path d="M 16.882812 35.941406 L 16.882812 446.625 C 16.882812 457.394531 25.613281 466.125 36.382812 466.125 L 1438.210938 466.125 C 1448.980469 466.125 1457.710938 457.394531 1457.710938 446.625 L 1457.710938 35.941406 C 1457.710938 25.171875 1448.980469 16.441406 1438.210938 16.441406 L 36.382812 16.441406 C 25.613281 16.441406 16.882812 25.171875 16.882812 35.941406 Z M 16.882812 35.941406 " clip-rule="nonzero"/></clipPath><clipPath id="52db3cdc16"><path d="M 37.652344 17.710938 L 1436.941406 17.710938 C 1447.710938 17.710938 1456.441406 26.441406 1456.441406 37.210938 L 1456.441406 445.355469 C 1456.441406 456.125 1447.710938 464.855469 1436.941406 464.855469 L 37.652344 464.855469 C 26.882812 464.855469 18.152344 456.125 18.152344 445.355469 L 18.152344 37.210938 C 18.152344 26.441406 26.882812 17.710938 37.652344 17.710938 Z M 37.652344 17.710938 " clip-rule="nonzero"/></clipPath><clipPath id="ec67768599"><path d="M 1327 25 L 1382 25 L 1382 273 L 1327 273 Z M 1327 25 " clip-rule="nonzero"/></clipPath><clipPath id="3db0dcfb77"><path d="M 16.882812 35.941406 L 16.882812 446.625 C 16.882812 457.394531 25.613281 466.125 36.382812 466.125 L 1438.210938 466.125 C 1448.980469 466.125 1457.710938 457.394531 1457.710938 446.625 L 1457.710938 35.941406 C 1457.710938 25.171875 1448.980469 16.441406 1438.210938 16.441406 L 36.382812 16.441406 C 25.613281 16.441406 16.882812 25.171875 16.882812 35.941406 Z M 16.882812 35.941406 " clip-rule="nonzero"/></clipPath><clipPath id="24e631cc42"><path d="M 37.652344 17.710938 L 1436.941406 17.710938 C 1447.710938 17.710938 1456.441406 26.441406 1456.441406 37.210938 L 1456.441406 445.355469 C 1456.441406 456.125 1447.710938 464.855469 1436.941406 464.855469 L 37.652344 464.855469 C 26.882812 464.855469 18.152344 456.125 18.152344 445.355469 L 18.152344 37.210938 C 18.152344 26.441406 26.882812 17.710938 37.652344 17.710938 Z M 37.652344 17.710938 " clip-rule="nonzero"/></clipPath><clipPath id="ce5068b7c1"><path d="M 16.882812 16.441406 L 1457.628906 16.441406 L 1457.628906 465.613281 L 16.882812 465.613281 Z M 16.882812 16.441406 " clip-rule="nonzero"/></clipPath><clipPath id="ecf3ad7cd2"><path d="M 16.882812 35.941406 L 16.882812 446.625 C 16.882812 457.394531 25.613281 466.125 36.382812 466.125 L 1438.210938 466.125 C 1448.980469 466.125 1457.710938 457.394531 1457.710938 446.625 L 1457.710938 35.941406 C 1457.710938 25.171875 1448.980469 16.441406 1438.210938 16.441406 L 36.382812 16.441406 C 25.613281 16.441406 16.882812 25.171875 16.882812 35.941406 Z M 16.882812 35.941406 " clip-rule="nonzero"/></clipPath><clipPath id="47c5c493d8"><path d="M 16.882812 35.9375 L 16.882812 446.613281 C 16.882812 457.382812 25.613281 466.109375 36.382812 466.109375 L 1438.195312 466.109375 C 1448.964844 466.109375 1457.695312 457.382812 1457.695312 446.613281 L 1457.695312 35.9375 C 1457.695312 25.171875 1448.964844 16.441406 1438.195312 16.441406 L 36.382812 16.441406 C 25.613281 16.441406 16.882812 25.171875 16.882812 35.9375 Z M 16.882812 35.9375 " clip-rule="nonzero"/></clipPath><clipPath id="1c227564b4"><path d="M 38.578125 352.917969 L 103.199219 352.917969 L 103.199219 417.539062 L 38.578125 417.539062 Z M 38.578125 352.917969 " clip-rule="nonzero"/></clipPath><clipPath id="e1fc8c1214"><path d="M 246.207031 352.917969 L 310.828125 352.917969 L 310.828125 417.539062 L 246.207031 417.539062 Z M 246.207031 352.917969 " clip-rule="nonzero"/></clipPath><clipPath id="20671003e5"><path d="M 450.859375 352.917969 L 515.480469 352.917969 L 515.480469 417.539062 L 450.859375 417.539062 Z M 450.859375 352.917969 " clip-rule="nonzero"/></clipPath><clipPath id="c4aba3e581"><rect x="0" width="1474" y="0" height="482"/></clipPath></defs><g transform="matrix(1, 0, 0, 1, 15, 508)"><g clip-path="url(#c4aba3e581)"><g clip-path="url(#bc91f63f83)"><g clip-path="url(#972ec9d93a)"><g clip-path="url(#d2b592b998)"><path fill="#000000" d="M 95.566406 20.539062 L 147.195312 20.539062 L 147.195312 274.03125 L 95.566406 274.03125 Z M 95.566406 20.539062 " fill-opacity="1" fill-rule="evenodd"/></g></g></g><g clip-path="url(#4fbdca7d53)"><g clip-path="url(#53705103c5)"><g clip-path="url(#1cc9c5e98d)"><path stroke-linecap="butt" transform="matrix(0.99827, 0, 0, 0.991324, -14.910933, -147.372278)" fill="none" stroke-linejoin="miter" d="M 110.668823 169.380968 L 162.387214 169.380968 L 162.387214 425.091821 L 110.668823 425.091821 Z M 110.668823 169.380968 " stroke="#000000" stroke-width="1.207" stroke-opacity="1" stroke-miterlimit="4"/></g></g></g><g clip-path="url(#f590a2733d)"><g clip-path="url(#877ac74a1c)"><g clip-path="url(#c6542667b8)"><path fill="#000000" d="M 197.78125 20.410156 L 249.410156 20.410156 L 249.410156 273.902344 L 197.78125 273.902344 Z M 197.78125 20.410156 " fill-opacity="1" fill-rule="evenodd"/></g></g></g><g clip-path="url(#f4d2b6c6b0)"><g clip-path="url(#cf7523ac02)"><g clip-path="url(#742c91f8f4)"><path stroke-linecap="butt" transform="matrix(0.99827, 0, 0, 0.991324, -14.910933, -147.372278)" fill="none" stroke-linejoin="miter" d="M 213.060829 169.250934 L 264.779221 169.250934 L 264.779221 424.961787 L 213.060829 424.961787 Z M 213.060829 169.250934 " stroke="#000000" stroke-width="1.207" stroke-opacity="1" stroke-miterlimit="4"/></g></g></g><g clip-path="url(#58ce64d550)"><g clip-path="url(#1028d59a09)"><g clip-path="url(#72c576e659)"><path fill="#000000" d="M 402.535156 19.902344 L 454.164062 19.902344 L 454.164062 273.394531 L 402.535156 273.394531 Z M 402.535156 19.902344 " fill-opacity="1" fill-rule="evenodd"/></g></g></g><g clip-path="url(#0a403b232a)"><g clip-path="url(#dcec78aa57)"><g clip-path="url(#23efb9d1e2)"><path stroke-linecap="butt" transform="matrix(0.99827, 0, 0, 0.991324, -14.910933, -147.372278)" fill="none" stroke-linejoin="miter" d="M 418.169623 168.738677 L 469.888014 168.738677 L 469.888014 424.449529 L 418.169623 424.449529 Z M 418.169623 168.738677 " stroke="#000000" stroke-width="1.207" stroke-opacity="1" stroke-miterlimit="4"/></g></g></g><g clip-path="url(#e0c4af7bdd)"><g clip-path="url(#a25ad409fb)"><g clip-path="url(#22bd530beb)"><path fill="#000000" d="M 504.160156 20.914062 L 555.789062 20.914062 L 555.789062 274.40625 L 504.160156 274.40625 Z M 504.160156 20.914062 " fill-opacity="1" fill-rule="evenodd"/></g></g></g><g clip-path="url(#528ee1f8cb)"><g clip-path="url(#380e5f5155)"><g clip-path="url(#e1e593139e)"><path stroke-linecap="butt" transform="matrix(0.99827, 0, 0, 0.991324, -14.910933, -147.372278)" fill="none" stroke-linejoin="miter" d="M 519.970763 169.75925 L 571.689154 169.75925 L 571.689154 425.470103 L 519.970763 425.470103 Z M 519.970763 169.75925 " stroke="#000000" stroke-width="1.207" stroke-opacity="1" stroke-miterlimit="4"/></g></g></g><g clip-path="url(#8bb031c4a8)"><g clip-path="url(#8c3a00cd76)"><g clip-path="url(#8f682ea30e)"><path fill="#000000" d="M 607.808594 20.410156 L 659.4375 20.410156 L 659.4375 273.902344 L 607.808594 273.902344 Z M 607.808594 20.410156 " fill-opacity="1" fill-rule="evenodd"/></g></g></g><g clip-path="url(#f1d4f6265c)"><g clip-path="url(#f097d71971)"><g clip-path="url(#ce34e35bcd)"><path stroke-linecap="butt" transform="matrix(0.99827, 0, 0, 0.991324, -14.910933, -147.372278)" fill="none" stroke-linejoin="miter" d="M 623.798848 169.250934 L 675.517239 169.250934 L 675.517239 424.961787 L 623.798848 424.961787 Z M 623.798848 169.250934 " stroke="#000000" stroke-width="1.207" stroke-opacity="1" stroke-miterlimit="4"/></g></g></g><g clip-path="url(#6a829898bb)"><g clip-path="url(#7922caae6c)"><g clip-path="url(#4596574b85)"><path stroke-linecap="butt" transform="matrix(0.99827, 0, 0, 0.991324, -14.910933, -147.372278)" fill="none" stroke-linejoin="miter" d="M 33.515799 167.950589 L 751.856355 167.950589 L 751.856355 617.089715 L 33.515799 617.089715 Z M 33.515799 167.950589 " stroke="#000000" stroke-width="2.375" stroke-opacity="1" stroke-miterlimit="4"/></g></g></g><g clip-path="url(#293609ca2d)"><g clip-path="url(#9f092b3291)"><g clip-path="url(#aef65b7d91)"><path stroke-linecap="butt" transform="matrix(2.294135, 0, 0, 2.291707, 4.164795, 1.084467)" fill="none" stroke-linejoin="miter" d="M 50.745599 114.680459 L 50.745599 202.135752 " stroke="#000000" stroke-width="2.375" stroke-opacity="1" stroke-miterlimit="4"/></g></g></g><g clip-path="url(#ed64853115)"><g clip-path="url(#4738e5e8a2)"><g clip-path="url(#368d5ba1f1)"><path stroke-linecap="butt" transform="matrix(2.294135, 0, 0, 2.291707, 4.164795, 1.084467)" fill="none" stroke-linejoin="miter" d="M 95.847028 114.259444 L 95.847028 201.716441 " stroke="#000000" stroke-width="2.375" stroke-opacity="1" stroke-miterlimit="4"/></g></g></g><g clip-path="url(#cf6c442b19)"><g clip-path="url(#0576c582f3)"><g clip-path="url(#5c95cff245)"><path stroke-linecap="butt" transform="matrix(2.294135, 0, 0, 2.291707, 4.164795, 1.084467)" fill="none" stroke-linejoin="miter" d="M 184.960151 114.840684 L 184.960151 202.295976 " stroke="#000000" stroke-width="2.375" stroke-opacity="1" stroke-miterlimit="4"/></g></g></g><g clip-path="url(#e95954b832)"><g clip-path="url(#e874a8f0a3)"><g clip-path="url(#d18dcd3506)"><path stroke-linecap="butt" transform="matrix(2.294135, 0, 0, 2.291707, 4.164795, 1.084467)" fill="none" stroke-linejoin="miter" d="M 229.269819 114.840684 L 229.269819 202.295976 " stroke="#000000" stroke-width="2.375" stroke-opacity="1" stroke-miterlimit="4"/></g></g></g><g clip-path="url(#786a64dd31)"><g clip-path="url(#30c65a89be)"><g clip-path="url(#e9a6877786)"><path stroke-linecap="butt" transform="matrix(2.294135, 0, 0, 2.291707, 4.164795, 1.084467)" fill="none" stroke-linejoin="miter" d="M 274.689655 114.520235 L 274.689655 201.975527 " stroke="#000000" stroke-width="2.375" stroke-opacity="1" stroke-miterlimit="4"/></g></g></g><g clip-path="url(#a6680d79e5)"><g clip-path="url(#1a598e0bae)"><g clip-path="url(#4d0621ea2a)"><path stroke-linecap="butt" transform="matrix(2.294135, 0, 0, 2.291707, 4.164795, 1.084467)" fill="none" stroke-linejoin="miter" d="M 140.350805 8.068114 L 140.350805 201.948255 " stroke="#000000" stroke-width="2.375" stroke-opacity="1" stroke-miterlimit="4"/></g></g></g><g clip-path="url(#3be39c0f96)"><g clip-path="url(#bdd2718fb3)"><g clip-path="url(#70915f9781)"><path fill="#000000" d="M 102.4375 29.882812 L 145.285156 29.882812 L 145.285156 266.226562 L 102.4375 266.226562 Z M 102.4375 29.882812 " fill-opacity="1" fill-rule="nonzero"/></g></g></g><g clip-path="url(#117039e1c9)"><g clip-path="url(#3c7d0d22bf)"><g clip-path="url(#b1d776b6fc)"><path stroke-linecap="butt" transform="matrix(2.294135, 0, 0, 2.291707, 4.164795, 1.084467)" fill="none" stroke-linejoin="miter" d="M 42.836503 12.566331 L 61.513548 12.566331 L 61.513548 115.696351 L 42.836503 115.696351 Z M 42.836503 12.566331 " stroke="#000000" stroke-width="5" stroke-opacity="1" stroke-miterlimit="4"/></g></g></g><g clip-path="url(#e1a566fdbe)"><g clip-path="url(#03ef3f1c25)"><g clip-path="url(#f45faef291)"><path fill="#000000" d="M 815.730469 18.972656 L 867.359375 18.972656 L 867.359375 272.464844 L 815.730469 272.464844 Z M 815.730469 18.972656 " fill-opacity="1" fill-rule="evenodd"/></g></g></g><g clip-path="url(#da8cad9afa)"><g clip-path="url(#2abbc4e2b5)"><g clip-path="url(#5eea46e544)"><path stroke-linecap="butt" transform="matrix(0.99827, 0, 0, 0.991324, -14.910933, -147.372278)" fill="none" stroke-linejoin="miter" d="M 832.0811 167.800852 L 883.799492 167.800852 L 883.799492 423.511705 L 832.0811 423.511705 Z M 832.0811 167.800852 " stroke="#000000" stroke-width="1.207" stroke-opacity="1" stroke-miterlimit="4"/></g></g></g><g clip-path="url(#2d2520706e)"><g clip-path="url(#e7907c9a0a)"><g clip-path="url(#9126805f5e)"><path fill="#000000" d="M 917.941406 18.84375 L 969.570312 18.84375 L 969.570312 272.335938 L 917.941406 272.335938 Z M 917.941406 18.84375 " fill-opacity="1" fill-rule="evenodd"/></g></g></g><g clip-path="url(#fb58e9fb50)"><g clip-path="url(#a8714e283c)"><g clip-path="url(#7c012173a3)"><path stroke-linecap="butt" transform="matrix(0.99827, 0, 0, 0.991324, -14.910933, -147.372278)" fill="none" stroke-linejoin="miter" d="M 934.469194 167.670818 L 986.187585 167.670818 L 986.187585 423.38167 L 934.469194 423.38167 Z M 934.469194 167.670818 " stroke="#000000" stroke-width="1.207" stroke-opacity="1" stroke-miterlimit="4"/></g></g></g><g clip-path="url(#39650385d3)"><g clip-path="url(#870e496d18)"><g clip-path="url(#aa66106026)"><path fill="#000000" d="M 1122.71875 18.347656 L 1174.347656 18.347656 L 1174.347656 271.839844 L 1122.71875 271.839844 Z M 1122.71875 18.347656 " fill-opacity="1" fill-rule="evenodd"/></g></g></g><g clip-path="url(#89df60452a)"><g clip-path="url(#7fa5ffb100)"><g clip-path="url(#7d3160dc9b)"><path stroke-linecap="butt" transform="matrix(0.99827, 0, 0, 0.991324, -14.910933, -147.372278)" fill="none" stroke-linejoin="miter" d="M 1139.601465 167.170382 L 1191.319856 167.170382 L 1191.319856 422.881235 L 1139.601465 422.881235 Z M 1139.601465 167.170382 " stroke="#000000" stroke-width="1.207" stroke-opacity="1" stroke-miterlimit="4"/></g></g></g><g clip-path="url(#a8042d309b)"><g clip-path="url(#4f9a1337b1)"><g clip-path="url(#3e2bb4e73c)"><path fill="#000000" d="M 1224.339844 19.347656 L 1275.96875 19.347656 L 1275.96875 272.839844 L 1224.339844 272.839844 Z M 1224.339844 19.347656 " fill-opacity="1" fill-rule="evenodd"/></g></g></g><g clip-path="url(#1b73cc6459)"><g clip-path="url(#3f8ee5e97b)"><g clip-path="url(#8718e7cf83)"><path stroke-linecap="butt" transform="matrix(0.99827, 0, 0, 0.991324, -14.910933, -147.372278)" fill="none" stroke-linejoin="miter" d="M 1241.398692 168.179134 L 1293.117084 168.179134 L 1293.117084 423.889987 L 1241.398692 423.889987 Z M 1241.398692 168.179134 " stroke="#000000" stroke-width="1.207" stroke-opacity="1" stroke-miterlimit="4"/></g></g></g><g clip-path="url(#740d1162ea)"><g clip-path="url(#c74b0f9483)"><g clip-path="url(#b8095d4c31)"><path fill="#000000" d="M 1327.960938 18.84375 L 1379.589844 18.84375 L 1379.589844 272.335938 L 1327.960938 272.335938 Z M 1327.960938 18.84375 " fill-opacity="1" fill-rule="evenodd"/></g></g></g><g clip-path="url(#a9340fc178)"><g clip-path="url(#cee0ce4f01)"><g clip-path="url(#06264c8dbd)"><path stroke-linecap="butt" transform="matrix(0.99827, 0, 0, 0.991324, -14.910933, -147.372278)" fill="none" stroke-linejoin="miter" d="M 1345.199386 167.670818 L 1396.917777 167.670818 L 1396.917777 423.38167 L 1345.199386 423.38167 Z M 1345.199386 167.670818 " stroke="#000000" stroke-width="1.207" stroke-opacity="1" stroke-miterlimit="4"/></g></g></g><g clip-path="url(#4a64277437)"><g clip-path="url(#46cb9ca77a)"><g clip-path="url(#06b9372c0b)"><path stroke-linecap="butt" transform="matrix(0.99827, 0, 0, 0.991324, -14.910933, -147.372278)" fill="none" stroke-linejoin="miter" d="M 754.92025 166.370473 L 1473.260806 166.370473 L 1473.260806 615.509599 L 754.92025 615.509599 Z M 754.92025 166.370473 " stroke="#000000" stroke-width="2.375" stroke-opacity="1" stroke-miterlimit="4"/></g></g></g><g clip-path="url(#e35c1bec7b)"><g clip-path="url(#313d024e53)"><g clip-path="url(#0adcf11386)"><path stroke-linecap="butt" transform="matrix(2.294135, 0, 0, 2.291707, 4.164795, 1.084467)" fill="none" stroke-linejoin="miter" d="M 364.659241 114.000357 L 364.659241 201.45565 " stroke="#000000" stroke-width="2.375" stroke-opacity="1" stroke-miterlimit="4"/></g></g></g><g clip-path="url(#134bca5da8)"><g clip-path="url(#e3aeba2b19)"><g clip-path="url(#d940c379ea)"><path stroke-linecap="butt" transform="matrix(2.294135, 0, 0, 2.291707, 4.164795, 1.084467)" fill="none" stroke-linejoin="miter" d="M 409.76067 113.579342 L 409.76067 201.036339 " stroke="#000000" stroke-width="2.375" stroke-opacity="1" stroke-miterlimit="4"/></g></g></g><g clip-path="url(#6b2f0792d1)"><g clip-path="url(#d35ed281ed)"><g clip-path="url(#31d754de4d)"><path stroke-linecap="butt" transform="matrix(2.294135, 0, 0, 2.291707, 4.164795, 1.084467)" fill="none" stroke-linejoin="miter" d="M 498.870388 114.150355 L 498.870388 201.605647 " stroke="#000000" stroke-width="2.375" stroke-opacity="1" stroke-miterlimit="4"/></g></g></g><g clip-path="url(#d98aed6149)"><g clip-path="url(#dcef646527)"><g clip-path="url(#b94fec90b0)"><path stroke-linecap="butt" transform="matrix(2.294135, 0, 0, 2.291707, 4.164795, 1.084467)" fill="none" stroke-linejoin="miter" d="M 543.190272 114.150355 L 543.190272 201.605647 " stroke="#000000" stroke-width="2.375" stroke-opacity="1" stroke-miterlimit="4"/></g></g></g><g clip-path="url(#21fb992c00)"><g clip-path="url(#96fc045c4f)"><g clip-path="url(#ac161612f6)"><path stroke-linecap="butt" transform="matrix(2.294135, 0, 0, 2.291707, 4.164795, 1.084467)" fill="none" stroke-linejoin="miter" d="M 588.599892 113.840133 L 588.599892 201.295426 " stroke="#000000" stroke-width="2.375" stroke-opacity="1" stroke-miterlimit="4"/></g></g></g><g clip-path="url(#5e45e28a54)"><g clip-path="url(#ebaeda4412)"><g clip-path="url(#a24f152a3a)"><path stroke-linecap="butt" transform="matrix(2.294135, 0, 0, 2.291707, 4.164795, 1.084467)" fill="none" stroke-linejoin="miter" d="M 454.25934 7.386308 L 454.25934 201.266449 " stroke="#000000" stroke-width="2.375" stroke-opacity="1" stroke-miterlimit="4"/></g></g></g><g clip-path="url(#e7ef4685f2)"><g clip-path="url(#c6d9fbd332)"><g clip-path="url(#ad81356c72)"><path fill="#000000" d="M 203.964844 27.09375 L 246.8125 27.09375 L 246.8125 263.4375 L 203.964844 263.4375 Z M 203.964844 27.09375 " fill-opacity="1" fill-rule="nonzero"/></g></g></g><g clip-path="url(#4b3a9cb1ff)"><g clip-path="url(#569d1970ea)"><g clip-path="url(#0da8364ed4)"><path stroke-linecap="butt" transform="matrix(2.294135, 0, 0, 2.291707, 4.164795, 1.084467)" fill="none" stroke-linejoin="miter" d="M 87.091684 11.349307 L 105.76873 11.349307 L 105.76873 114.479326 L 87.091684 114.479326 Z M 87.091684 11.349307 " stroke="#000000" stroke-width="5" stroke-opacity="1" stroke-miterlimit="4"/></g></g></g><g clip-path="url(#c62ed3f7d2)"><g clip-path="url(#c903ed68b4)"><g clip-path="url(#ac7413a6a3)"><path fill="#000000" d="M 408.894531 27.09375 L 451.742188 27.09375 L 451.742188 263.4375 L 408.894531 263.4375 Z M 408.894531 27.09375 " fill-opacity="1" fill-rule="nonzero"/></g></g></g><g clip-path="url(#b49bcf905b)"><g clip-path="url(#d0abb083b2)"><g clip-path="url(#e4ea078132)"><path stroke-linecap="butt" transform="matrix(2.294135, 0, 0, 2.291707, 4.164795, 1.084467)" fill="none" stroke-linejoin="miter" d="M 176.419349 11.349307 L 195.096394 11.349307 L 195.096394 114.479326 L 176.419349 114.479326 Z M 176.419349 11.349307 " stroke="#000000" stroke-width="5" stroke-opacity="1" stroke-miterlimit="4"/></g></g></g><g clip-path="url(#6692f8ad7d)"><g clip-path="url(#23ccac29b1)"><g clip-path="url(#4682e68c1f)"><path fill="#000000" d="M 509.492188 28.957031 L 552.339844 28.957031 L 552.339844 265.300781 L 509.492188 265.300781 Z M 509.492188 28.957031 " fill-opacity="1" fill-rule="nonzero"/></g></g></g><g clip-path="url(#4aaf21696b)"><g clip-path="url(#6a65659d6d)"><g clip-path="url(#bf6f65b78e)"><path stroke-linecap="butt" transform="matrix(2.294135, 0, 0, 2.291707, 4.164795, 1.084467)" fill="none" stroke-linejoin="miter" d="M 220.269284 12.162361 L 238.94633 12.162361 L 238.94633 115.29238 L 220.269284 115.29238 Z M 220.269284 12.162361 " stroke="#000000" stroke-width="5" stroke-opacity="1" stroke-miterlimit="4"/></g></g></g><g clip-path="url(#ecc68f4065)"><g clip-path="url(#fb0f227e15)"><g clip-path="url(#6bbedd6740)"><path fill="#000000" d="M 613.808594 28.957031 L 656.65625 28.957031 L 656.65625 265.300781 L 613.808594 265.300781 Z M 613.808594 28.957031 " fill-opacity="1" fill-rule="nonzero"/></g></g></g><g clip-path="url(#3874ffe104)"><g clip-path="url(#95f72df5b7)"><g clip-path="url(#fa51766712)"><path stroke-linecap="butt" transform="matrix(2.294135, 0, 0, 2.291707, 4.164795, 1.084467)" fill="none" stroke-linejoin="miter" d="M 265.740202 12.162361 L 284.417247 12.162361 L 284.417247 115.29238 L 265.740202 115.29238 Z M 265.740202 12.162361 " stroke="#000000" stroke-width="5" stroke-opacity="1" stroke-miterlimit="4"/></g></g></g><g clip-path="url(#2c1e8b8f60)"><g clip-path="url(#ce2fae6aa8)"><g clip-path="url(#f0dd23780d)"><path fill="#000000" d="M 820.601562 25.234375 L 863.449219 25.234375 L 863.449219 261.578125 L 820.601562 261.578125 Z M 820.601562 25.234375 " fill-opacity="1" fill-rule="nonzero"/></g></g></g><g clip-path="url(#14be9209dd)"><g clip-path="url(#2cbd17b6ec)"><g clip-path="url(#e1cc8e3694)"><path stroke-linecap="butt" transform="matrix(2.294135, 0, 0, 2.291707, 4.164795, 1.084467)" fill="none" stroke-linejoin="miter" d="M 355.88006 10.537958 L 374.557105 10.537958 L 374.557105 113.667977 L 355.88006 113.667977 Z M 355.88006 10.537958 " stroke="#000000" stroke-width="5" stroke-opacity="1" stroke-miterlimit="4"/></g></g></g><g clip-path="url(#bd29efdfc8)"><g clip-path="url(#29789d09c4)"><g clip-path="url(#6b182ee3bb)"><path fill="#000000" d="M 924.9375 25.234375 L 967.785156 25.234375 L 967.785156 261.578125 L 924.9375 261.578125 Z M 924.9375 25.234375 " fill-opacity="1" fill-rule="nonzero"/></g></g></g><g clip-path="url(#26f4dc56f8)"><g clip-path="url(#faa094bab9)"><g clip-path="url(#b4e5a834ab)"><path stroke-linecap="butt" transform="matrix(2.294135, 0, 0, 2.291707, 4.164795, 1.084467)" fill="none" stroke-linejoin="miter" d="M 401.359491 10.537958 L 420.036536 10.537958 L 420.036536 113.667977 L 401.359491 113.667977 Z M 401.359491 10.537958 " stroke="#000000" stroke-width="5" stroke-opacity="1" stroke-miterlimit="4"/></g></g></g><g clip-path="url(#2da6b87221)"><g clip-path="url(#acb058b45e)"><g clip-path="url(#442045c545)"><path fill="#000000" d="M 1129.851562 30.816406 L 1172.699219 30.816406 L 1172.699219 267.160156 L 1129.851562 267.160156 Z M 1129.851562 30.816406 " fill-opacity="1" fill-rule="nonzero"/></g></g></g><g clip-path="url(#e592adac6f)"><g clip-path="url(#b2a3bb0aa9)"><g clip-path="url(#5d5813ba47)"><path stroke-linecap="butt" transform="matrix(2.294135, 0, 0, 2.291707, 4.164795, 1.084467)" fill="none" stroke-linejoin="miter" d="M 490.680344 12.973711 L 509.357389 12.973711 L 509.357389 116.10373 L 490.680344 116.10373 Z M 490.680344 12.973711 " stroke="#000000" stroke-width="5" stroke-opacity="1" stroke-miterlimit="4"/></g></g></g><g clip-path="url(#8f1d5c3dd0)"><g clip-path="url(#a622026755)"><g clip-path="url(#815b3855f0)"><path fill="#000000" d="M 1230.449219 32.679688 L 1273.296875 32.679688 L 1273.296875 269.023438 L 1230.449219 269.023438 Z M 1230.449219 32.679688 " fill-opacity="1" fill-rule="nonzero"/></g></g></g><g clip-path="url(#a1e8c682d4)"><g clip-path="url(#665b911484)"><g clip-path="url(#b19784a97f)"><path stroke-linecap="butt" transform="matrix(2.294135, 0, 0, 2.291707, 4.164795, 1.084467)" fill="none" stroke-linejoin="miter" d="M 534.53028 13.786765 L 553.207325 13.786765 L 553.207325 116.916784 L 534.53028 116.916784 Z M 534.53028 13.786765 " stroke="#000000" stroke-width="5" stroke-opacity="1" stroke-miterlimit="4"/></g></g></g><g clip-path="url(#08511c1ba1)"><g clip-path="url(#47f256d8f7)"><g clip-path="url(#52db3cdc16)"><path fill="#000000" d="M 1332.925781 30.816406 L 1375.773438 30.816406 L 1375.773438 267.160156 L 1332.925781 267.160156 Z M 1332.925781 30.816406 " fill-opacity="1" fill-rule="nonzero"/></g></g></g><g clip-path="url(#ec67768599)"><g clip-path="url(#3db0dcfb77)"><g clip-path="url(#24e631cc42)"><path stroke-linecap="butt" transform="matrix(2.294135, 0, 0, 2.291707, 4.164795, 1.084467)" fill="none" stroke-linejoin="miter" d="M 579.19922 12.973711 L 597.876265 12.973711 L 597.876265 116.10373 L 579.19922 116.10373 Z M 579.19922 12.973711 " stroke="#000000" stroke-width="5" stroke-opacity="1" stroke-miterlimit="4"/></g></g></g><g clip-path="url(#ce5068b7c1)"><g clip-path="url(#ecf3ad7cd2)"><g clip-path="url(#47c5c493d8)"><path stroke-linecap="butt" transform="matrix(1.059374, 0, 0, 1.059374, 16.881414, 16.440071)" fill="none" stroke-linejoin="miter" d="M 0.00132046 18.40467 L 0.00132046 406.063591 C 0.00132046 416.22953 8.24248 424.467001 18.40842 424.467001 L 1341.65466 424.467001 C 1351.8206 424.467001 1360.06176 416.22953 1360.06176 406.063591 L 1360.06176 18.40467 C 1360.06176 8.242418 1351.8206 0.00125997 1341.65466 0.00125997 L 18.40842 0.00125997 C 8.24248 0.00125997 0.00132046 8.242418 0.00132046 18.40467 Z M 0.00132046 18.40467 " stroke="#000000" stroke-width="7.079653" stroke-opacity="1" stroke-miterlimit="4"/></g></g></g><g clip-path="url(#1c227564b4)"><path fill="#000000" d="M 70.890625 352.917969 C 53.039062 352.917969 38.578125 367.378906 38.578125 385.230469 C 38.578125 403.082031 53.039062 417.539062 70.890625 417.539062 C 88.742188 417.539062 103.199219 403.082031 103.199219 385.230469 C 103.199219 367.378906 88.742188 352.917969 70.890625 352.917969 Z M 70.890625 352.917969 " fill-opacity="1" fill-rule="nonzero"/></g><g clip-path="url(#e1fc8c1214)"><path fill="#000000" d="M 278.515625 352.917969 C 260.664062 352.917969 246.207031 367.378906 246.207031 385.230469 C 246.207031 403.082031 260.664062 417.539062 278.515625 417.539062 C 296.367188 417.539062 310.828125 403.082031 310.828125 385.230469 C 310.828125 367.378906 296.367188 352.917969 278.515625 352.917969 Z M 278.515625 352.917969 " fill-opacity="1" fill-rule="nonzero"/></g><g clip-path="url(#20671003e5)"><path fill="#000000" d="M 483.171875 352.917969 C 465.320312 352.917969 450.859375 367.378906 450.859375 385.230469 C 450.859375 403.082031 465.320312 417.539062 483.171875 417.539062 C 501.023438 417.539062 515.480469 403.082031 515.480469 385.230469 C 515.480469 367.378906 501.023438 352.917969 483.171875 352.917969 Z M 483.171875 352.917969 " fill-opacity="1" fill-rule="nonzero"/></g></g></g></svg>