<svg xmlns="http://www.w3.org/2000/svg" xmlns:xlink="http://www.w3.org/1999/xlink" width="2000" zoomAndPan="magnify" viewBox="0 0 1500 607.92" height="800" preserveAspectRatio="xMidYMid meet" version="1.0"><defs><clipPath id="6e0890599a"><path d="M 0.0976562 0 L 1499.898438 0 L 1499.898438 599.921875 L 0.0976562 599.921875 Z M 0.0976562 0 " clip-rule="nonzero"/></clipPath><clipPath id="86094c5845"><path d="M 91 19 L 141 19 L 141 263 L 91 263 Z M 91 19 " clip-rule="nonzero"/></clipPath><clipPath id="3f21465fe9"><path d="M 16.089844 35.136719 L 16.089844 426.785156 C 16.089844 437.554688 24.820312 446.28125 35.589844 446.28125 L 1376.410156 446.28125 C 1387.179688 446.28125 1395.910156 437.554688 1395.910156 426.785156 L 1395.910156 35.136719 C 1395.910156 24.367188 1387.179688 15.636719 1376.410156 15.636719 L 35.589844 15.636719 C 24.820312 15.636719 16.089844 24.367188 16.089844 35.136719 Z M 16.089844 35.136719 " clip-rule="nonzero"/></clipPath><clipPath id="7eec2cafb7"><path d="M 36.804688 16.855469 L 1375.195312 16.855469 C 1385.960938 16.855469 1394.691406 25.585938 1394.691406 36.351562 L 1394.691406 425.566406 C 1394.691406 436.335938 1385.960938 445.066406 1375.195312 445.066406 L 36.804688 445.066406 C 26.039062 445.066406 17.308594 436.335938 17.308594 425.566406 L 17.308594 36.351562 C 17.308594 25.585938 26.039062 16.855469 36.804688 16.855469 Z M 36.804688 16.855469 " clip-rule="nonzero"/></clipPath><clipPath id="3e5b52164d"><path d="M 90 18 L 142 18 L 142 263 L 90 263 Z M 90 18 " clip-rule="nonzero"/></clipPath><clipPath id="14690e2b35"><path d="M 16.089844 35.136719 L 16.089844 426.785156 C 16.089844 437.554688 24.820312 446.28125 35.589844 446.28125 L 1376.410156 446.28125 C 1387.179688 446.28125 1395.910156 437.554688 1395.910156 426.785156 L 1395.910156 35.136719 C 1395.910156 24.367188 1387.179688 15.636719 1376.410156 15.636719 L 35.589844 15.636719 C 24.820312 15.636719 16.089844 24.367188 16.089844 35.136719 Z M 16.089844 35.136719 " clip-rule="nonzero"/></clipPath><clipPath id="8037a4de4e"><path d="M 36.804688 16.855469 L 1375.195312 16.855469 C 1385.960938 16.855469 1394.691406 25.585938 1394.691406 36.351562 L 1394.691406 425.566406 C 1394.691406 436.335938 1385.960938 445.066406 1375.195312 445.066406 L 36.804688 445.066406 C 26.039062 445.066406 17.308594 436.335938 17.308594 425.566406 L 17.308594 36.351562 C 17.308594 25.585938 26.039062 16.855469 36.804688 16.855469 Z M 36.804688 16.855469 " clip-rule="nonzero"/></clipPath><clipPath id="3d3af5fec1"><path d="M 189 19 L 239 19 L 239 263 L 189 263 Z M 189 19 " clip-rule="nonzero"/></clipPath><clipPath id="a6e6b99286"><path d="M 16.089844 35.136719 L 16.089844 426.785156 C 16.089844 437.554688 24.820312 446.28125 35.589844 446.28125 L 1376.410156 446.28125 C 1387.179688 446.28125 1395.910156 437.554688 1395.910156 426.785156 L 1395.910156 35.136719 C 1395.910156 24.367188 1387.179688 15.636719 1376.410156 15.636719 L 35.589844 15.636719 C 24.820312 15.636719 16.089844 24.367188 16.089844 35.136719 Z M 16.089844 35.136719 " clip-rule="nonzero"/></clipPath><clipPath id="9819c7a27d"><path d="M 36.804688 16.855469 L 1375.195312 16.855469 C 1385.960938 16.855469 1394.691406 25.585938 1394.691406 36.351562 L 1394.691406 425.566406 C 1394.691406 436.335938 1385.960938 445.066406 1375.195312 445.066406 L 36.804688 445.066406 C 26.039062 445.066406 17.308594 436.335938 17.308594 425.566406 L 17.308594 36.351562 C 17.308594 25.585938 26.039062 16.855469 36.804688 16.855469 Z M 36.804688 16.855469 " clip-rule="nonzero"/></clipPath><clipPath id="2fcef4663f"><path d="M 188 18 L 240 18 L 240 263 L 188 263 Z M 188 18 " clip-rule="nonzero"/></clipPath><clipPath id="dbbb1d639b"><path d="M 16.089844 35.136719 L 16.089844 426.785156 C 16.089844 437.554688 24.820312 446.28125 35.589844 446.28125 L 1376.410156 446.28125 C 1387.179688 446.28125 1395.910156 437.554688 1395.910156 426.785156 L 1395.910156 35.136719 C 1395.910156 24.367188 1387.179688 15.636719 1376.410156 15.636719 L 35.589844 15.636719 C 24.820312 15.636719 16.089844 24.367188 16.089844 35.136719 Z M 16.089844 35.136719 " clip-rule="nonzero"/></clipPath><clipPath id="ceb72291bd"><path d="M 36.804688 16.855469 L 1375.195312 16.855469 C 1385.960938 16.855469 1394.691406 25.585938 1394.691406 36.351562 L 1394.691406 425.566406 C 1394.691406 436.335938 1385.960938 445.066406 1375.195312 445.066406 L 36.804688 445.066406 C 26.039062 445.066406 17.308594 436.335938 17.308594 425.566406 L 17.308594 36.351562 C 17.308594 25.585938 26.039062 16.855469 36.804688 16.855469 Z M 36.804688 16.855469 " clip-rule="nonzero"/></clipPath><clipPath id="6e0b1092e8"><path d="M 385 18 L 435 18 L 435 262 L 385 262 Z M 385 18 " clip-rule="nonzero"/></clipPath><clipPath id="177a72236c"><path d="M 16.089844 35.136719 L 16.089844 426.785156 C 16.089844 437.554688 24.820312 446.28125 35.589844 446.28125 L 1376.410156 446.28125 C 1387.179688 446.28125 1395.910156 437.554688 1395.910156 426.785156 L 1395.910156 35.136719 C 1395.910156 24.367188 1387.179688 15.636719 1376.410156 15.636719 L 35.589844 15.636719 C 24.820312 15.636719 16.089844 24.367188 16.089844 35.136719 Z M 16.089844 35.136719 " clip-rule="nonzero"/></clipPath><clipPath id="48b224b394"><path d="M 36.804688 16.855469 L 1375.195312 16.855469 C 1385.960938 16.855469 1394.691406 25.585938 1394.691406 36.351562 L 1394.691406 425.566406 C 1394.691406 436.335938 1385.960938 445.066406 1375.195312 445.066406 L 36.804688 445.066406 C 26.039062 445.066406 17.308594 436.335938 17.308594 425.566406 L 17.308594 36.351562 C 17.308594 25.585938 26.039062 16.855469 36.804688 16.855469 Z M 36.804688 16.855469 " clip-rule="nonzero"/></clipPath><clipPath id="28cd349000"><path d="M 384 18 L 436 18 L 436 263 L 384 263 Z M 384 18 " clip-rule="nonzero"/></clipPath><clipPath id="03e77c3225"><path d="M 16.089844 35.136719 L 16.089844 426.785156 C 16.089844 437.554688 24.820312 446.28125 35.589844 446.28125 L 1376.410156 446.28125 C 1387.179688 446.28125 1395.910156 437.554688 1395.910156 426.785156 L 1395.910156 35.136719 C 1395.910156 24.367188 1387.179688 15.636719 1376.410156 15.636719 L 35.589844 15.636719 C 24.820312 15.636719 16.089844 24.367188 16.089844 35.136719 Z M 16.089844 35.136719 " clip-rule="nonzero"/></clipPath><clipPath id="4603c13a1a"><path d="M 36.804688 16.855469 L 1375.195312 16.855469 C 1385.960938 16.855469 1394.691406 25.585938 1394.691406 36.351562 L 1394.691406 425.566406 C 1394.691406 436.335938 1385.960938 445.066406 1375.195312 445.066406 L 36.804688 445.066406 C 26.039062 445.066406 17.308594 436.335938 17.308594 425.566406 L 17.308594 36.351562 C 17.308594 25.585938 26.039062 16.855469 36.804688 16.855469 Z M 36.804688 16.855469 " clip-rule="nonzero"/></clipPath><clipPath id="085782737b"><path d="M 482 19 L 533 19 L 533 263 L 482 263 Z M 482 19 " clip-rule="nonzero"/></clipPath><clipPath id="c9f31fa5f7"><path d="M 16.089844 35.136719 L 16.089844 426.785156 C 16.089844 437.554688 24.820312 446.28125 35.589844 446.28125 L 1376.410156 446.28125 C 1387.179688 446.28125 1395.910156 437.554688 1395.910156 426.785156 L 1395.910156 35.136719 C 1395.910156 24.367188 1387.179688 15.636719 1376.410156 15.636719 L 35.589844 15.636719 C 24.820312 15.636719 16.089844 24.367188 16.089844 35.136719 Z M 16.089844 35.136719 " clip-rule="nonzero"/></clipPath><clipPath id="ac34c32a32"><path d="M 36.804688 16.855469 L 1375.195312 16.855469 C 1385.960938 16.855469 1394.691406 25.585938 1394.691406 36.351562 L 1394.691406 425.566406 C 1394.691406 436.335938 1385.960938 445.066406 1375.195312 445.066406 L 36.804688 445.066406 C 26.039062 445.066406 17.308594 436.335938 17.308594 425.566406 L 17.308594 36.351562 C 17.308594 25.585938 26.039062 16.855469 36.804688 16.855469 Z M 36.804688 16.855469 " clip-rule="nonzero"/></clipPath><clipPath id="ecd1ac7900"><path d="M 482 19 L 533 19 L 533 264 L 482 264 Z M 482 19 " clip-rule="nonzero"/></clipPath><clipPath id="6a0288e1e1"><path d="M 16.089844 35.136719 L 16.089844 426.785156 C 16.089844 437.554688 24.820312 446.28125 35.589844 446.28125 L 1376.410156 446.28125 C 1387.179688 446.28125 1395.910156 437.554688 1395.910156 426.785156 L 1395.910156 35.136719 C 1395.910156 24.367188 1387.179688 15.636719 1376.410156 15.636719 L 35.589844 15.636719 C 24.820312 15.636719 16.089844 24.367188 16.089844 35.136719 Z M 16.089844 35.136719 " clip-rule="nonzero"/></clipPath><clipPath id="fd9efbb7be"><path d="M 36.804688 16.855469 L 1375.195312 16.855469 C 1385.960938 16.855469 1394.691406 25.585938 1394.691406 36.351562 L 1394.691406 425.566406 C 1394.691406 436.335938 1385.960938 445.066406 1375.195312 445.066406 L 36.804688 445.066406 C 26.039062 445.066406 17.308594 436.335938 17.308594 425.566406 L 17.308594 36.351562 C 17.308594 25.585938 26.039062 16.855469 36.804688 16.855469 Z M 36.804688 16.855469 " clip-rule="nonzero"/></clipPath><clipPath id="387db1fa3a"><path d="M 581 19 L 632 19 L 632 263 L 581 263 Z M 581 19 " clip-rule="nonzero"/></clipPath><clipPath id="e868341298"><path d="M 16.089844 35.136719 L 16.089844 426.785156 C 16.089844 437.554688 24.820312 446.28125 35.589844 446.28125 L 1376.410156 446.28125 C 1387.179688 446.28125 1395.910156 437.554688 1395.910156 426.785156 L 1395.910156 35.136719 C 1395.910156 24.367188 1387.179688 15.636719 1376.410156 15.636719 L 35.589844 15.636719 C 24.820312 15.636719 16.089844 24.367188 16.089844 35.136719 Z M 16.089844 35.136719 " clip-rule="nonzero"/></clipPath><clipPath id="2621c31fef"><path d="M 36.804688 16.855469 L 1375.195312 16.855469 C 1385.960938 16.855469 1394.691406 25.585938 1394.691406 36.351562 L 1394.691406 425.566406 C 1394.691406 436.335938 1385.960938 445.066406 1375.195312 445.066406 L 36.804688 445.066406 C 26.039062 445.066406 17.308594 436.335938 17.308594 425.566406 L 17.308594 36.351562 C 17.308594 25.585938 26.039062 16.855469 36.804688 16.855469 Z M 36.804688 16.855469 " clip-rule="nonzero"/></clipPath><clipPath id="da09d4cd5b"><path d="M 581 18 L 633 18 L 633 263 L 581 263 Z M 581 18 " clip-rule="nonzero"/></clipPath><clipPath id="70261652e2"><path d="M 16.089844 35.136719 L 16.089844 426.785156 C 16.089844 437.554688 24.820312 446.28125 35.589844 446.28125 L 1376.410156 446.28125 C 1387.179688 446.28125 1395.910156 437.554688 1395.910156 426.785156 L 1395.910156 35.136719 C 1395.910156 24.367188 1387.179688 15.636719 1376.410156 15.636719 L 35.589844 15.636719 C 24.820312 15.636719 16.089844 24.367188 16.089844 35.136719 Z M 16.089844 35.136719 " clip-rule="nonzero"/></clipPath><clipPath id="5243bc3879"><path d="M 36.804688 16.855469 L 1375.195312 16.855469 C 1385.960938 16.855469 1394.691406 25.585938 1394.691406 36.351562 L 1394.691406 425.566406 C 1394.691406 436.335938 1385.960938 445.066406 1375.195312 445.066406 L 36.804688 445.066406 C 26.039062 445.066406 17.308594 436.335938 17.308594 425.566406 L 17.308594 36.351562 C 17.308594 25.585938 26.039062 16.855469 36.804688 16.855469 Z M 36.804688 16.855469 " clip-rule="nonzero"/></clipPath><clipPath id="d7314ec7f5"><path d="M 17.105469 17 L 706 17 L 706 445.792969 L 17.105469 445.792969 Z M 17.105469 17 " clip-rule="nonzero"/></clipPath><clipPath id="bd85389293"><path d="M 16.089844 35.136719 L 16.089844 426.785156 C 16.089844 437.554688 24.820312 446.28125 35.589844 446.28125 L 1376.410156 446.28125 C 1387.179688 446.28125 1395.910156 437.554688 1395.910156 426.785156 L 1395.910156 35.136719 C 1395.910156 24.367188 1387.179688 15.636719 1376.410156 15.636719 L 35.589844 15.636719 C 24.820312 15.636719 16.089844 24.367188 16.089844 35.136719 Z M 16.089844 35.136719 " clip-rule="nonzero"/></clipPath><clipPath id="d5f4713acc"><path d="M 36.804688 16.855469 L 1375.195312 16.855469 C 1385.960938 16.855469 1394.691406 25.585938 1394.691406 36.351562 L 1394.691406 425.566406 C 1394.691406 436.335938 1385.960938 445.066406 1375.195312 445.066406 L 36.804688 445.066406 C 26.039062 445.066406 17.308594 436.335938 17.308594 425.566406 L 17.308594 36.351562 C 17.308594 25.585938 26.039062 16.855469 36.804688 16.855469 Z M 36.804688 16.855469 " clip-rule="nonzero"/></clipPath><clipPath id="506f25855f"><path d="M 112 250 L 119 250 L 119 445.792969 L 112 445.792969 Z M 112 250 " clip-rule="nonzero"/></clipPath><clipPath id="86d29b8cc6"><path d="M 16.089844 35.136719 L 16.089844 426.785156 C 16.089844 437.554688 24.820312 446.28125 35.589844 446.28125 L 1376.410156 446.28125 C 1387.179688 446.28125 1395.910156 437.554688 1395.910156 426.785156 L 1395.910156 35.136719 C 1395.910156 24.367188 1387.179688 15.636719 1376.410156 15.636719 L 35.589844 15.636719 C 24.820312 15.636719 16.089844 24.367188 16.089844 35.136719 Z M 16.089844 35.136719 " clip-rule="nonzero"/></clipPath><clipPath id="6bb637907f"><path d="M 36.804688 16.855469 L 1375.195312 16.855469 C 1385.960938 16.855469 1394.691406 25.585938 1394.691406 36.351562 L 1394.691406 425.566406 C 1394.691406 436.335938 1385.960938 445.066406 1375.195312 445.066406 L 36.804688 445.066406 C 26.039062 445.066406 17.308594 436.335938 17.308594 425.566406 L 17.308594 36.351562 C 17.308594 25.585938 26.039062 16.855469 36.804688 16.855469 Z M 36.804688 16.855469 " clip-rule="nonzero"/></clipPath><clipPath id="cc3371df6d"><path d="M 211 249 L 218 249 L 218 445.792969 L 211 445.792969 Z M 211 249 " clip-rule="nonzero"/></clipPath><clipPath id="6660b9e179"><path d="M 16.089844 35.136719 L 16.089844 426.785156 C 16.089844 437.554688 24.820312 446.28125 35.589844 446.28125 L 1376.410156 446.28125 C 1387.179688 446.28125 1395.910156 437.554688 1395.910156 426.785156 L 1395.910156 35.136719 C 1395.910156 24.367188 1387.179688 15.636719 1376.410156 15.636719 L 35.589844 15.636719 C 24.820312 15.636719 16.089844 24.367188 16.089844 35.136719 Z M 16.089844 35.136719 " clip-rule="nonzero"/></clipPath><clipPath id="07b4dff1a0"><path d="M 36.804688 16.855469 L 1375.195312 16.855469 C 1385.960938 16.855469 1394.691406 25.585938 1394.691406 36.351562 L 1394.691406 425.566406 C 1394.691406 436.335938 1385.960938 445.066406 1375.195312 445.066406 L 36.804688 445.066406 C 26.039062 445.066406 17.308594 436.335938 17.308594 425.566406 L 17.308594 36.351562 C 17.308594 25.585938 26.039062 16.855469 36.804688 16.855469 Z M 36.804688 16.855469 " clip-rule="nonzero"/></clipPath><clipPath id="8caba90e24"><path d="M 407 250 L 413 250 L 413 445.792969 L 407 445.792969 Z M 407 250 " clip-rule="nonzero"/></clipPath><clipPath id="98c084e89f"><path d="M 16.089844 35.136719 L 16.089844 426.785156 C 16.089844 437.554688 24.820312 446.28125 35.589844 446.28125 L 1376.410156 446.28125 C 1387.179688 446.28125 1395.910156 437.554688 1395.910156 426.785156 L 1395.910156 35.136719 C 1395.910156 24.367188 1387.179688 15.636719 1376.410156 15.636719 L 35.589844 15.636719 C 24.820312 15.636719 16.089844 24.367188 16.089844 35.136719 Z M 16.089844 35.136719 " clip-rule="nonzero"/></clipPath><clipPath id="bffc5cd223"><path d="M 36.804688 16.855469 L 1375.195312 16.855469 C 1385.960938 16.855469 1394.691406 25.585938 1394.691406 36.351562 L 1394.691406 425.566406 C 1394.691406 436.335938 1385.960938 445.066406 1375.195312 445.066406 L 36.804688 445.066406 C 26.039062 445.066406 17.308594 436.335938 17.308594 425.566406 L 17.308594 36.351562 C 17.308594 25.585938 26.039062 16.855469 36.804688 16.855469 Z M 36.804688 16.855469 " clip-rule="nonzero"/></clipPath><clipPath id="d28ac5b24d"><path d="M 505 250 L 511 250 L 511 445.792969 L 505 445.792969 Z M 505 250 " clip-rule="nonzero"/></clipPath><clipPath id="9142adf7f4"><path d="M 16.089844 35.136719 L 16.089844 426.785156 C 16.089844 437.554688 24.820312 446.28125 35.589844 446.28125 L 1376.410156 446.28125 C 1387.179688 446.28125 1395.910156 437.554688 1395.910156 426.785156 L 1395.910156 35.136719 C 1395.910156 24.367188 1387.179688 15.636719 1376.410156 15.636719 L 35.589844 15.636719 C 24.820312 15.636719 16.089844 24.367188 16.089844 35.136719 Z M 16.089844 35.136719 " clip-rule="nonzero"/></clipPath><clipPath id="746990d92f"><path d="M 36.804688 16.855469 L 1375.195312 16.855469 C 1385.960938 16.855469 1394.691406 25.585938 1394.691406 36.351562 L 1394.691406 425.566406 C 1394.691406 436.335938 1385.960938 445.066406 1375.195312 445.066406 L 36.804688 445.066406 C 26.039062 445.066406 17.308594 436.335938 17.308594 425.566406 L 17.308594 36.351562 C 17.308594 25.585938 26.039062 16.855469 36.804688 16.855469 Z M 36.804688 16.855469 " clip-rule="nonzero"/></clipPath><clipPath id="fb607545c9"><path d="M 604 249 L 611 249 L 611 445.792969 L 604 445.792969 Z M 604 249 " clip-rule="nonzero"/></clipPath><clipPath id="2fdd75a1aa"><path d="M 16.089844 35.136719 L 16.089844 426.785156 C 16.089844 437.554688 24.820312 446.28125 35.589844 446.28125 L 1376.410156 446.28125 C 1387.179688 446.28125 1395.910156 437.554688 1395.910156 426.785156 L 1395.910156 35.136719 C 1395.910156 24.367188 1387.179688 15.636719 1376.410156 15.636719 L 35.589844 15.636719 C 24.820312 15.636719 16.089844 24.367188 16.089844 35.136719 Z M 16.089844 35.136719 " clip-rule="nonzero"/></clipPath><clipPath id="e14ddf3c02"><path d="M 36.804688 16.855469 L 1375.195312 16.855469 C 1385.960938 16.855469 1394.691406 25.585938 1394.691406 36.351562 L 1394.691406 425.566406 C 1394.691406 436.335938 1385.960938 445.066406 1375.195312 445.066406 L 36.804688 445.066406 C 26.039062 445.066406 17.308594 436.335938 17.308594 425.566406 L 17.308594 36.351562 C 17.308594 25.585938 26.039062 16.855469 36.804688 16.855469 Z M 36.804688 16.855469 " clip-rule="nonzero"/></clipPath><clipPath id="4c4e3d83d1"><path d="M 309 16.652344 L 315 16.652344 L 315 445.792969 L 309 445.792969 Z M 309 16.652344 " clip-rule="nonzero"/></clipPath><clipPath id="35369babab"><path d="M 16.089844 35.136719 L 16.089844 426.785156 C 16.089844 437.554688 24.820312 446.28125 35.589844 446.28125 L 1376.410156 446.28125 C 1387.179688 446.28125 1395.910156 437.554688 1395.910156 426.785156 L 1395.910156 35.136719 C 1395.910156 24.367188 1387.179688 15.636719 1376.410156 15.636719 L 35.589844 15.636719 C 24.820312 15.636719 16.089844 24.367188 16.089844 35.136719 Z M 16.089844 35.136719 " clip-rule="nonzero"/></clipPath><clipPath id="9f70becf17"><path d="M 36.804688 16.855469 L 1375.195312 16.855469 C 1385.960938 16.855469 1394.691406 25.585938 1394.691406 36.351562 L 1394.691406 425.566406 C 1394.691406 436.335938 1385.960938 445.066406 1375.195312 445.066406 L 36.804688 445.066406 C 26.039062 445.066406 17.308594 436.335938 17.308594 425.566406 L 17.308594 36.351562 C 17.308594 25.585938 26.039062 16.855469 36.804688 16.855469 Z M 36.804688 16.855469 " clip-rule="nonzero"/></clipPath><clipPath id="0003dc90f8"><path d="M 98 28 L 140 28 L 140 255 L 98 255 Z M 98 28 " clip-rule="nonzero"/></clipPath><clipPath id="a1fa1fd41f"><path d="M 16.089844 35.136719 L 16.089844 426.785156 C 16.089844 437.554688 24.820312 446.28125 35.589844 446.28125 L 1376.410156 446.28125 C 1387.179688 446.28125 1395.910156 437.554688 1395.910156 426.785156 L 1395.910156 35.136719 C 1395.910156 24.367188 1387.179688 15.636719 1376.410156 15.636719 L 35.589844 15.636719 C 24.820312 15.636719 16.089844 24.367188 16.089844 35.136719 Z M 16.089844 35.136719 " clip-rule="nonzero"/></clipPath><clipPath id="ec20c9d7f9"><path d="M 36.804688 16.855469 L 1375.195312 16.855469 C 1385.960938 16.855469 1394.691406 25.585938 1394.691406 36.351562 L 1394.691406 425.566406 C 1394.691406 436.335938 1385.960938 445.066406 1375.195312 445.066406 L 36.804688 445.066406 C 26.039062 445.066406 17.308594 436.335938 17.308594 425.566406 L 17.308594 36.351562 C 17.308594 25.585938 26.039062 16.855469 36.804688 16.855469 Z M 36.804688 16.855469 " clip-rule="nonzero"/></clipPath><clipPath id="af5f895222"><path d="M 92 23 L 145 23 L 145 261 L 92 261 Z M 92 23 " clip-rule="nonzero"/></clipPath><clipPath id="3c0481f46d"><path d="M 16.089844 35.136719 L 16.089844 426.785156 C 16.089844 437.554688 24.820312 446.28125 35.589844 446.28125 L 1376.410156 446.28125 C 1387.179688 446.28125 1395.910156 437.554688 1395.910156 426.785156 L 1395.910156 35.136719 C 1395.910156 24.367188 1387.179688 15.636719 1376.410156 15.636719 L 35.589844 15.636719 C 24.820312 15.636719 16.089844 24.367188 16.089844 35.136719 Z M 16.089844 35.136719 " clip-rule="nonzero"/></clipPath><clipPath id="1df37dd3fa"><path d="M 36.804688 16.855469 L 1375.195312 16.855469 C 1385.960938 16.855469 1394.691406 25.585938 1394.691406 36.351562 L 1394.691406 425.566406 C 1394.691406 436.335938 1385.960938 445.066406 1375.195312 445.066406 L 36.804688 445.066406 C 26.039062 445.066406 17.308594 436.335938 17.308594 425.566406 L 17.308594 36.351562 C 17.308594 25.585938 26.039062 16.855469 36.804688 16.855469 Z M 36.804688 16.855469 " clip-rule="nonzero"/></clipPath><clipPath id="496eb6635f"><path d="M 781 18 L 831 18 L 831 261 L 781 261 Z M 781 18 " clip-rule="nonzero"/></clipPath><clipPath id="8c1df6f320"><path d="M 16.089844 35.136719 L 16.089844 426.785156 C 16.089844 437.554688 24.820312 446.28125 35.589844 446.28125 L 1376.410156 446.28125 C 1387.179688 446.28125 1395.910156 437.554688 1395.910156 426.785156 L 1395.910156 35.136719 C 1395.910156 24.367188 1387.179688 15.636719 1376.410156 15.636719 L 35.589844 15.636719 C 24.820312 15.636719 16.089844 24.367188 16.089844 35.136719 Z M 16.089844 35.136719 " clip-rule="nonzero"/></clipPath><clipPath id="82fd474ee5"><path d="M 36.804688 16.855469 L 1375.195312 16.855469 C 1385.960938 16.855469 1394.691406 25.585938 1394.691406 36.351562 L 1394.691406 425.566406 C 1394.691406 436.335938 1385.960938 445.066406 1375.195312 445.066406 L 36.804688 445.066406 C 26.039062 445.066406 17.308594 436.335938 17.308594 425.566406 L 17.308594 36.351562 C 17.308594 25.585938 26.039062 16.855469 36.804688 16.855469 Z M 36.804688 16.855469 " clip-rule="nonzero"/></clipPath><clipPath id="c929164e5b"><path d="M 780 17 L 832 17 L 832 262 L 780 262 Z M 780 17 " clip-rule="nonzero"/></clipPath><clipPath id="8ddd482c8f"><path d="M 16.089844 35.136719 L 16.089844 426.785156 C 16.089844 437.554688 24.820312 446.28125 35.589844 446.28125 L 1376.410156 446.28125 C 1387.179688 446.28125 1395.910156 437.554688 1395.910156 426.785156 L 1395.910156 35.136719 C 1395.910156 24.367188 1387.179688 15.636719 1376.410156 15.636719 L 35.589844 15.636719 C 24.820312 15.636719 16.089844 24.367188 16.089844 35.136719 Z M 16.089844 35.136719 " clip-rule="nonzero"/></clipPath><clipPath id="6d757b659f"><path d="M 36.804688 16.855469 L 1375.195312 16.855469 C 1385.960938 16.855469 1394.691406 25.585938 1394.691406 36.351562 L 1394.691406 425.566406 C 1394.691406 436.335938 1385.960938 445.066406 1375.195312 445.066406 L 36.804688 445.066406 C 26.039062 445.066406 17.308594 436.335938 17.308594 425.566406 L 17.308594 36.351562 C 17.308594 25.585938 26.039062 16.855469 36.804688 16.855469 Z M 36.804688 16.855469 " clip-rule="nonzero"/></clipPath><clipPath id="8daf9db583"><path d="M 878 17 L 929 17 L 929 261 L 878 261 Z M 878 17 " clip-rule="nonzero"/></clipPath><clipPath id="ecfd780fd6"><path d="M 16.089844 35.136719 L 16.089844 426.785156 C 16.089844 437.554688 24.820312 446.28125 35.589844 446.28125 L 1376.410156 446.28125 C 1387.179688 446.28125 1395.910156 437.554688 1395.910156 426.785156 L 1395.910156 35.136719 C 1395.910156 24.367188 1387.179688 15.636719 1376.410156 15.636719 L 35.589844 15.636719 C 24.820312 15.636719 16.089844 24.367188 16.089844 35.136719 Z M 16.089844 35.136719 " clip-rule="nonzero"/></clipPath><clipPath id="77d0d26677"><path d="M 36.804688 16.855469 L 1375.195312 16.855469 C 1385.960938 16.855469 1394.691406 25.585938 1394.691406 36.351562 L 1394.691406 425.566406 C 1394.691406 436.335938 1385.960938 445.066406 1375.195312 445.066406 L 36.804688 445.066406 C 26.039062 445.066406 17.308594 436.335938 17.308594 425.566406 L 17.308594 36.351562 C 17.308594 25.585938 26.039062 16.855469 36.804688 16.855469 Z M 36.804688 16.855469 " clip-rule="nonzero"/></clipPath><clipPath id="2517029e91"><path d="M 878 17 L 930 17 L 930 262 L 878 262 Z M 878 17 " clip-rule="nonzero"/></clipPath><clipPath id="453a14bb53"><path d="M 16.089844 35.136719 L 16.089844 426.785156 C 16.089844 437.554688 24.820312 446.28125 35.589844 446.28125 L 1376.410156 446.28125 C 1387.179688 446.28125 1395.910156 437.554688 1395.910156 426.785156 L 1395.910156 35.136719 C 1395.910156 24.367188 1387.179688 15.636719 1376.410156 15.636719 L 35.589844 15.636719 C 24.820312 15.636719 16.089844 24.367188 16.089844 35.136719 Z M 16.089844 35.136719 " clip-rule="nonzero"/></clipPath><clipPath id="d6f6f7c08d"><path d="M 36.804688 16.855469 L 1375.195312 16.855469 C 1385.960938 16.855469 1394.691406 25.585938 1394.691406 36.351562 L 1394.691406 425.566406 C 1394.691406 436.335938 1385.960938 445.066406 1375.195312 445.066406 L 36.804688 445.066406 C 26.039062 445.066406 17.308594 436.335938 17.308594 425.566406 L 17.308594 36.351562 C 17.308594 25.585938 26.039062 16.855469 36.804688 16.855469 Z M 36.804688 16.855469 " clip-rule="nonzero"/></clipPath><clipPath id="345d28796b"><path d="M 1075 17 L 1125 17 L 1125 261 L 1075 261 Z M 1075 17 " clip-rule="nonzero"/></clipPath><clipPath id="e81c78b084"><path d="M 16.089844 35.136719 L 16.089844 426.785156 C 16.089844 437.554688 24.820312 446.28125 35.589844 446.28125 L 1376.410156 446.28125 C 1387.179688 446.28125 1395.910156 437.554688 1395.910156 426.785156 L 1395.910156 35.136719 C 1395.910156 24.367188 1387.179688 15.636719 1376.410156 15.636719 L 35.589844 15.636719 C 24.820312 15.636719 16.089844 24.367188 16.089844 35.136719 Z M 16.089844 35.136719 " clip-rule="nonzero"/></clipPath><clipPath id="1eaaa9f4bf"><path d="M 36.804688 16.855469 L 1375.195312 16.855469 C 1385.960938 16.855469 1394.691406 25.585938 1394.691406 36.351562 L 1394.691406 425.566406 C 1394.691406 436.335938 1385.960938 445.066406 1375.195312 445.066406 L 36.804688 445.066406 C 26.039062 445.066406 17.308594 436.335938 17.308594 425.566406 L 17.308594 36.351562 C 17.308594 25.585938 26.039062 16.855469 36.804688 16.855469 Z M 36.804688 16.855469 " clip-rule="nonzero"/></clipPath><clipPath id="66d79be33b"><path d="M 1074 16.652344 L 1126 16.652344 L 1126 261 L 1074 261 Z M 1074 16.652344 " clip-rule="nonzero"/></clipPath><clipPath id="88bcd24088"><path d="M 16.089844 35.136719 L 16.089844 426.785156 C 16.089844 437.554688 24.820312 446.28125 35.589844 446.28125 L 1376.410156 446.28125 C 1387.179688 446.28125 1395.910156 437.554688 1395.910156 426.785156 L 1395.910156 35.136719 C 1395.910156 24.367188 1387.179688 15.636719 1376.410156 15.636719 L 35.589844 15.636719 C 24.820312 15.636719 16.089844 24.367188 16.089844 35.136719 Z M 16.089844 35.136719 " clip-rule="nonzero"/></clipPath><clipPath id="09444f71e2"><path d="M 36.804688 16.855469 L 1375.195312 16.855469 C 1385.960938 16.855469 1394.691406 25.585938 1394.691406 36.351562 L 1394.691406 425.566406 C 1394.691406 436.335938 1385.960938 445.066406 1375.195312 445.066406 L 36.804688 445.066406 C 26.039062 445.066406 17.308594 436.335938 17.308594 425.566406 L 17.308594 36.351562 C 17.308594 25.585938 26.039062 16.855469 36.804688 16.855469 Z M 36.804688 16.855469 " clip-rule="nonzero"/></clipPath><clipPath id="8354ff1391"><path d="M 1172 18 L 1222 18 L 1222 262 L 1172 262 Z M 1172 18 " clip-rule="nonzero"/></clipPath><clipPath id="4f6b2279a9"><path d="M 16.089844 35.136719 L 16.089844 426.785156 C 16.089844 437.554688 24.820312 446.28125 35.589844 446.28125 L 1376.410156 446.28125 C 1387.179688 446.28125 1395.910156 437.554688 1395.910156 426.785156 L 1395.910156 35.136719 C 1395.910156 24.367188 1387.179688 15.636719 1376.410156 15.636719 L 35.589844 15.636719 C 24.820312 15.636719 16.089844 24.367188 16.089844 35.136719 Z M 16.089844 35.136719 " clip-rule="nonzero"/></clipPath><clipPath id="8b65e09655"><path d="M 36.804688 16.855469 L 1375.195312 16.855469 C 1385.960938 16.855469 1394.691406 25.585938 1394.691406 36.351562 L 1394.691406 425.566406 C 1394.691406 436.335938 1385.960938 445.066406 1375.195312 445.066406 L 36.804688 445.066406 C 26.039062 445.066406 17.308594 436.335938 17.308594 425.566406 L 17.308594 36.351562 C 17.308594 25.585938 26.039062 16.855469 36.804688 16.855469 Z M 36.804688 16.855469 " clip-rule="nonzero"/></clipPath><clipPath id="ca184db5a7"><path d="M 1171 17 L 1223 17 L 1223 262 L 1171 262 Z M 1171 17 " clip-rule="nonzero"/></clipPath><clipPath id="935f6386f2"><path d="M 16.089844 35.136719 L 16.089844 426.785156 C 16.089844 437.554688 24.820312 446.28125 35.589844 446.28125 L 1376.410156 446.28125 C 1387.179688 446.28125 1395.910156 437.554688 1395.910156 426.785156 L 1395.910156 35.136719 C 1395.910156 24.367188 1387.179688 15.636719 1376.410156 15.636719 L 35.589844 15.636719 C 24.820312 15.636719 16.089844 24.367188 16.089844 35.136719 Z M 16.089844 35.136719 " clip-rule="nonzero"/></clipPath><clipPath id="24404cd63f"><path d="M 36.804688 16.855469 L 1375.195312 16.855469 C 1385.960938 16.855469 1394.691406 25.585938 1394.691406 36.351562 L 1394.691406 425.566406 C 1394.691406 436.335938 1385.960938 445.066406 1375.195312 445.066406 L 36.804688 445.066406 C 26.039062 445.066406 17.308594 436.335938 17.308594 425.566406 L 17.308594 36.351562 C 17.308594 25.585938 26.039062 16.855469 36.804688 16.855469 Z M 36.804688 16.855469 " clip-rule="nonzero"/></clipPath><clipPath id="1463775bfd"><path d="M 1271 17 L 1322 17 L 1322 261 L 1271 261 Z M 1271 17 " clip-rule="nonzero"/></clipPath><clipPath id="ed1e89dfe0"><path d="M 16.089844 35.136719 L 16.089844 426.785156 C 16.089844 437.554688 24.820312 446.28125 35.589844 446.28125 L 1376.410156 446.28125 C 1387.179688 446.28125 1395.910156 437.554688 1395.910156 426.785156 L 1395.910156 35.136719 C 1395.910156 24.367188 1387.179688 15.636719 1376.410156 15.636719 L 35.589844 15.636719 C 24.820312 15.636719 16.089844 24.367188 16.089844 35.136719 Z M 16.089844 35.136719 " clip-rule="nonzero"/></clipPath><clipPath id="37d3af43f4"><path d="M 36.804688 16.855469 L 1375.195312 16.855469 C 1385.960938 16.855469 1394.691406 25.585938 1394.691406 36.351562 L 1394.691406 425.566406 C 1394.691406 436.335938 1385.960938 445.066406 1375.195312 445.066406 L 36.804688 445.066406 C 26.039062 445.066406 17.308594 436.335938 17.308594 425.566406 L 17.308594 36.351562 C 17.308594 25.585938 26.039062 16.855469 36.804688 16.855469 Z M 36.804688 16.855469 " clip-rule="nonzero"/></clipPath><clipPath id="21471431dc"><path d="M 1271 17 L 1322 17 L 1322 262 L 1271 262 Z M 1271 17 " clip-rule="nonzero"/></clipPath><clipPath id="c5ced9ef1a"><path d="M 16.089844 35.136719 L 16.089844 426.785156 C 16.089844 437.554688 24.820312 446.28125 35.589844 446.28125 L 1376.410156 446.28125 C 1387.179688 446.28125 1395.910156 437.554688 1395.910156 426.785156 L 1395.910156 35.136719 C 1395.910156 24.367188 1387.179688 15.636719 1376.410156 15.636719 L 35.589844 15.636719 C 24.820312 15.636719 16.089844 24.367188 16.089844 35.136719 Z M 16.089844 35.136719 " clip-rule="nonzero"/></clipPath><clipPath id="13ecb0f5ca"><path d="M 36.804688 16.855469 L 1375.195312 16.855469 C 1385.960938 16.855469 1394.691406 25.585938 1394.691406 36.351562 L 1394.691406 425.566406 C 1394.691406 436.335938 1385.960938 445.066406 1375.195312 445.066406 L 36.804688 445.066406 C 26.039062 445.066406 17.308594 436.335938 17.308594 425.566406 L 17.308594 36.351562 C 17.308594 25.585938 26.039062 16.855469 36.804688 16.855469 Z M 36.804688 16.855469 " clip-rule="nonzero"/></clipPath><clipPath id="0813483ae4"><path d="M 706 16.652344 L 1394.816406 16.652344 L 1394.816406 445 L 706 445 Z M 706 16.652344 " clip-rule="nonzero"/></clipPath><clipPath id="15c41cb14b"><path d="M 16.089844 35.136719 L 16.089844 426.785156 C 16.089844 437.554688 24.820312 446.28125 35.589844 446.28125 L 1376.410156 446.28125 C 1387.179688 446.28125 1395.910156 437.554688 1395.910156 426.785156 L 1395.910156 35.136719 C 1395.910156 24.367188 1387.179688 15.636719 1376.410156 15.636719 L 35.589844 15.636719 C 24.820312 15.636719 16.089844 24.367188 16.089844 35.136719 Z M 16.089844 35.136719 " clip-rule="nonzero"/></clipPath><clipPath id="cdfde9b913"><path d="M 36.804688 16.855469 L 1375.195312 16.855469 C 1385.960938 16.855469 1394.691406 25.585938 1394.691406 36.351562 L 1394.691406 425.566406 C 1394.691406 436.335938 1385.960938 445.066406 1375.195312 445.066406 L 36.804688 445.066406 C 26.039062 445.066406 17.308594 436.335938 17.308594 425.566406 L 17.308594 36.351562 C 17.308594 25.585938 26.039062 16.855469 36.804688 16.855469 Z M 36.804688 16.855469 " clip-rule="nonzero"/></clipPath><clipPath id="ebc39e1642"><path d="M 802 248 L 808 248 L 808 445.792969 L 802 445.792969 Z M 802 248 " clip-rule="nonzero"/></clipPath><clipPath id="26450ecf62"><path d="M 16.089844 35.136719 L 16.089844 426.785156 C 16.089844 437.554688 24.820312 446.28125 35.589844 446.28125 L 1376.410156 446.28125 C 1387.179688 446.28125 1395.910156 437.554688 1395.910156 426.785156 L 1395.910156 35.136719 C 1395.910156 24.367188 1387.179688 15.636719 1376.410156 15.636719 L 35.589844 15.636719 C 24.820312 15.636719 16.089844 24.367188 16.089844 35.136719 Z M 16.089844 35.136719 " clip-rule="nonzero"/></clipPath><clipPath id="f032c0ccd6"><path d="M 36.804688 16.855469 L 1375.195312 16.855469 C 1385.960938 16.855469 1394.691406 25.585938 1394.691406 36.351562 L 1394.691406 425.566406 C 1394.691406 436.335938 1385.960938 445.066406 1375.195312 445.066406 L 36.804688 445.066406 C 26.039062 445.066406 17.308594 436.335938 17.308594 425.566406 L 17.308594 36.351562 C 17.308594 25.585938 26.039062 16.855469 36.804688 16.855469 Z M 36.804688 16.855469 " clip-rule="nonzero"/></clipPath><clipPath id="f5ad279d46"><path d="M 901 247 L 907 247 L 907 445 L 901 445 Z M 901 247 " clip-rule="nonzero"/></clipPath><clipPath id="28c8592d67"><path d="M 16.089844 35.136719 L 16.089844 426.785156 C 16.089844 437.554688 24.820312 446.28125 35.589844 446.28125 L 1376.410156 446.28125 C 1387.179688 446.28125 1395.910156 437.554688 1395.910156 426.785156 L 1395.910156 35.136719 C 1395.910156 24.367188 1387.179688 15.636719 1376.410156 15.636719 L 35.589844 15.636719 C 24.820312 15.636719 16.089844 24.367188 16.089844 35.136719 Z M 16.089844 35.136719 " clip-rule="nonzero"/></clipPath><clipPath id="8f28f18889"><path d="M 36.804688 16.855469 L 1375.195312 16.855469 C 1385.960938 16.855469 1394.691406 25.585938 1394.691406 36.351562 L 1394.691406 425.566406 C 1394.691406 436.335938 1385.960938 445.066406 1375.195312 445.066406 L 36.804688 445.066406 C 26.039062 445.066406 17.308594 436.335938 17.308594 425.566406 L 17.308594 36.351562 C 17.308594 25.585938 26.039062 16.855469 36.804688 16.855469 Z M 36.804688 16.855469 " clip-rule="nonzero"/></clipPath><clipPath id="2ba37c32f3"><path d="M 1097 248 L 1103 248 L 1103 445.792969 L 1097 445.792969 Z M 1097 248 " clip-rule="nonzero"/></clipPath><clipPath id="cb858c206f"><path d="M 16.089844 35.136719 L 16.089844 426.785156 C 16.089844 437.554688 24.820312 446.28125 35.589844 446.28125 L 1376.410156 446.28125 C 1387.179688 446.28125 1395.910156 437.554688 1395.910156 426.785156 L 1395.910156 35.136719 C 1395.910156 24.367188 1387.179688 15.636719 1376.410156 15.636719 L 35.589844 15.636719 C 24.820312 15.636719 16.089844 24.367188 16.089844 35.136719 Z M 16.089844 35.136719 " clip-rule="nonzero"/></clipPath><clipPath id="45c243c542"><path d="M 36.804688 16.855469 L 1375.195312 16.855469 C 1385.960938 16.855469 1394.691406 25.585938 1394.691406 36.351562 L 1394.691406 425.566406 C 1394.691406 436.335938 1385.960938 445.066406 1375.195312 445.066406 L 36.804688 445.066406 C 26.039062 445.066406 17.308594 436.335938 17.308594 425.566406 L 17.308594 36.351562 C 17.308594 25.585938 26.039062 16.855469 36.804688 16.855469 Z M 36.804688 16.855469 " clip-rule="nonzero"/></clipPath><clipPath id="555deedbfc"><path d="M 1194 248 L 1200 248 L 1200 445.792969 L 1194 445.792969 Z M 1194 248 " clip-rule="nonzero"/></clipPath><clipPath id="b45f0bb2ae"><path d="M 16.089844 35.136719 L 16.089844 426.785156 C 16.089844 437.554688 24.820312 446.28125 35.589844 446.28125 L 1376.410156 446.28125 C 1387.179688 446.28125 1395.910156 437.554688 1395.910156 426.785156 L 1395.910156 35.136719 C 1395.910156 24.367188 1387.179688 15.636719 1376.410156 15.636719 L 35.589844 15.636719 C 24.820312 15.636719 16.089844 24.367188 16.089844 35.136719 Z M 16.089844 35.136719 " clip-rule="nonzero"/></clipPath><clipPath id="220c7aa307"><path d="M 36.804688 16.855469 L 1375.195312 16.855469 C 1385.960938 16.855469 1394.691406 25.585938 1394.691406 36.351562 L 1394.691406 425.566406 C 1394.691406 436.335938 1385.960938 445.066406 1375.195312 445.066406 L 36.804688 445.066406 C 26.039062 445.066406 17.308594 436.335938 17.308594 425.566406 L 17.308594 36.351562 C 17.308594 25.585938 26.039062 16.855469 36.804688 16.855469 Z M 36.804688 16.855469 " clip-rule="nonzero"/></clipPath><clipPath id="ab3bac4fbb"><path d="M 1294 248 L 1300 248 L 1300 445.792969 L 1294 445.792969 Z M 1294 248 " clip-rule="nonzero"/></clipPath><clipPath id="25a3434827"><path d="M 16.089844 35.136719 L 16.089844 426.785156 C 16.089844 437.554688 24.820312 446.28125 35.589844 446.28125 L 1376.410156 446.28125 C 1387.179688 446.28125 1395.910156 437.554688 1395.910156 426.785156 L 1395.910156 35.136719 C 1395.910156 24.367188 1387.179688 15.636719 1376.410156 15.636719 L 35.589844 15.636719 C 24.820312 15.636719 16.089844 24.367188 16.089844 35.136719 Z M 16.089844 35.136719 " clip-rule="nonzero"/></clipPath><clipPath id="37fa85e784"><path d="M 36.804688 16.855469 L 1375.195312 16.855469 C 1385.960938 16.855469 1394.691406 25.585938 1394.691406 36.351562 L 1394.691406 425.566406 C 1394.691406 436.335938 1385.960938 445.066406 1375.195312 445.066406 L 36.804688 445.066406 C 26.039062 445.066406 17.308594 436.335938 17.308594 425.566406 L 17.308594 36.351562 C 17.308594 25.585938 26.039062 16.855469 36.804688 16.855469 Z M 36.804688 16.855469 " clip-rule="nonzero"/></clipPath><clipPath id="cd231d5c70"><path d="M 999 16.652344 L 1005 16.652344 L 1005 445.792969 L 999 445.792969 Z M 999 16.652344 " clip-rule="nonzero"/></clipPath><clipPath id="d80d05dfa8"><path d="M 16.089844 35.136719 L 16.089844 426.785156 C 16.089844 437.554688 24.820312 446.28125 35.589844 446.28125 L 1376.410156 446.28125 C 1387.179688 446.28125 1395.910156 437.554688 1395.910156 426.785156 L 1395.910156 35.136719 C 1395.910156 24.367188 1387.179688 15.636719 1376.410156 15.636719 L 35.589844 15.636719 C 24.820312 15.636719 16.089844 24.367188 16.089844 35.136719 Z M 16.089844 35.136719 " clip-rule="nonzero"/></clipPath><clipPath id="23c15c9817"><path d="M 36.804688 16.855469 L 1375.195312 16.855469 C 1385.960938 16.855469 1394.691406 25.585938 1394.691406 36.351562 L 1394.691406 425.566406 C 1394.691406 436.335938 1385.960938 445.066406 1375.195312 445.066406 L 36.804688 445.066406 C 26.039062 445.066406 17.308594 436.335938 17.308594 425.566406 L 17.308594 36.351562 C 17.308594 25.585938 26.039062 16.855469 36.804688 16.855469 Z M 36.804688 16.855469 " clip-rule="nonzero"/></clipPath><clipPath id="a712991059"><path d="M 195 25 L 237 25 L 237 253 L 195 253 Z M 195 25 " clip-rule="nonzero"/></clipPath><clipPath id="ff645c8d58"><path d="M 16.089844 35.136719 L 16.089844 426.785156 C 16.089844 437.554688 24.820312 446.28125 35.589844 446.28125 L 1376.410156 446.28125 C 1387.179688 446.28125 1395.910156 437.554688 1395.910156 426.785156 L 1395.910156 35.136719 C 1395.910156 24.367188 1387.179688 15.636719 1376.410156 15.636719 L 35.589844 15.636719 C 24.820312 15.636719 16.089844 24.367188 16.089844 35.136719 Z M 16.089844 35.136719 " clip-rule="nonzero"/></clipPath><clipPath id="7f7a75025e"><path d="M 36.804688 16.855469 L 1375.195312 16.855469 C 1385.960938 16.855469 1394.691406 25.585938 1394.691406 36.351562 L 1394.691406 425.566406 C 1394.691406 436.335938 1385.960938 445.066406 1375.195312 445.066406 L 36.804688 445.066406 C 26.039062 445.066406 17.308594 436.335938 17.308594 425.566406 L 17.308594 36.351562 C 17.308594 25.585938 26.039062 16.855469 36.804688 16.855469 Z M 36.804688 16.855469 " clip-rule="nonzero"/></clipPath><clipPath id="6bd1588f79"><path d="M 189 20 L 242 20 L 242 258 L 189 258 Z M 189 20 " clip-rule="nonzero"/></clipPath><clipPath id="059eff47dd"><path d="M 16.089844 35.136719 L 16.089844 426.785156 C 16.089844 437.554688 24.820312 446.28125 35.589844 446.28125 L 1376.410156 446.28125 C 1387.179688 446.28125 1395.910156 437.554688 1395.910156 426.785156 L 1395.910156 35.136719 C 1395.910156 24.367188 1387.179688 15.636719 1376.410156 15.636719 L 35.589844 15.636719 C 24.820312 15.636719 16.089844 24.367188 16.089844 35.136719 Z M 16.089844 35.136719 " clip-rule="nonzero"/></clipPath><clipPath id="ad8e0d5db7"><path d="M 36.804688 16.855469 L 1375.195312 16.855469 C 1385.960938 16.855469 1394.691406 25.585938 1394.691406 36.351562 L 1394.691406 425.566406 C 1394.691406 436.335938 1385.960938 445.066406 1375.195312 445.066406 L 36.804688 445.066406 C 26.039062 445.066406 17.308594 436.335938 17.308594 425.566406 L 17.308594 36.351562 C 17.308594 25.585938 26.039062 16.855469 36.804688 16.855469 Z M 36.804688 16.855469 " clip-rule="nonzero"/></clipPath><clipPath id="198ac00d7e"><path d="M 391 25 L 433 25 L 433 253 L 391 253 Z M 391 25 " clip-rule="nonzero"/></clipPath><clipPath id="0f6f75035c"><path d="M 16.089844 35.136719 L 16.089844 426.785156 C 16.089844 437.554688 24.820312 446.28125 35.589844 446.28125 L 1376.410156 446.28125 C 1387.179688 446.28125 1395.910156 437.554688 1395.910156 426.785156 L 1395.910156 35.136719 C 1395.910156 24.367188 1387.179688 15.636719 1376.410156 15.636719 L 35.589844 15.636719 C 24.820312 15.636719 16.089844 24.367188 16.089844 35.136719 Z M 16.089844 35.136719 " clip-rule="nonzero"/></clipPath><clipPath id="27d5172ed0"><path d="M 36.804688 16.855469 L 1375.195312 16.855469 C 1385.960938 16.855469 1394.691406 25.585938 1394.691406 36.351562 L 1394.691406 425.566406 C 1394.691406 436.335938 1385.960938 445.066406 1375.195312 445.066406 L 36.804688 445.066406 C 26.039062 445.066406 17.308594 436.335938 17.308594 425.566406 L 17.308594 36.351562 C 17.308594 25.585938 26.039062 16.855469 36.804688 16.855469 Z M 36.804688 16.855469 " clip-rule="nonzero"/></clipPath><clipPath id="42e16beeea"><path d="M 386 20 L 439 20 L 439 258 L 386 258 Z M 386 20 " clip-rule="nonzero"/></clipPath><clipPath id="a2bf85d665"><path d="M 16.089844 35.136719 L 16.089844 426.785156 C 16.089844 437.554688 24.820312 446.28125 35.589844 446.28125 L 1376.410156 446.28125 C 1387.179688 446.28125 1395.910156 437.554688 1395.910156 426.785156 L 1395.910156 35.136719 C 1395.910156 24.367188 1387.179688 15.636719 1376.410156 15.636719 L 35.589844 15.636719 C 24.820312 15.636719 16.089844 24.367188 16.089844 35.136719 Z M 16.089844 35.136719 " clip-rule="nonzero"/></clipPath><clipPath id="fc097dc8e4"><path d="M 36.804688 16.855469 L 1375.195312 16.855469 C 1385.960938 16.855469 1394.691406 25.585938 1394.691406 36.351562 L 1394.691406 425.566406 C 1394.691406 436.335938 1385.960938 445.066406 1375.195312 445.066406 L 36.804688 445.066406 C 26.039062 445.066406 17.308594 436.335938 17.308594 425.566406 L 17.308594 36.351562 C 17.308594 25.585938 26.039062 16.855469 36.804688 16.855469 Z M 36.804688 16.855469 " clip-rule="nonzero"/></clipPath><clipPath id="0ba4a1490e"><path d="M 487 27 L 529 27 L 529 254 L 487 254 Z M 487 27 " clip-rule="nonzero"/></clipPath><clipPath id="cdc0018dd6"><path d="M 16.089844 35.136719 L 16.089844 426.785156 C 16.089844 437.554688 24.820312 446.28125 35.589844 446.28125 L 1376.410156 446.28125 C 1387.179688 446.28125 1395.910156 437.554688 1395.910156 426.785156 L 1395.910156 35.136719 C 1395.910156 24.367188 1387.179688 15.636719 1376.410156 15.636719 L 35.589844 15.636719 C 24.820312 15.636719 16.089844 24.367188 16.089844 35.136719 Z M 16.089844 35.136719 " clip-rule="nonzero"/></clipPath><clipPath id="1e5e69b68c"><path d="M 36.804688 16.855469 L 1375.195312 16.855469 C 1385.960938 16.855469 1394.691406 25.585938 1394.691406 36.351562 L 1394.691406 425.566406 C 1394.691406 436.335938 1385.960938 445.066406 1375.195312 445.066406 L 36.804688 445.066406 C 26.039062 445.066406 17.308594 436.335938 17.308594 425.566406 L 17.308594 36.351562 C 17.308594 25.585938 26.039062 16.855469 36.804688 16.855469 Z M 36.804688 16.855469 " clip-rule="nonzero"/></clipPath><clipPath id="1a2bb33035"><path d="M 482 22 L 535 22 L 535 260 L 482 260 Z M 482 22 " clip-rule="nonzero"/></clipPath><clipPath id="4d0a04f56d"><path d="M 16.089844 35.136719 L 16.089844 426.785156 C 16.089844 437.554688 24.820312 446.28125 35.589844 446.28125 L 1376.410156 446.28125 C 1387.179688 446.28125 1395.910156 437.554688 1395.910156 426.785156 L 1395.910156 35.136719 C 1395.910156 24.367188 1387.179688 15.636719 1376.410156 15.636719 L 35.589844 15.636719 C 24.820312 15.636719 16.089844 24.367188 16.089844 35.136719 Z M 16.089844 35.136719 " clip-rule="nonzero"/></clipPath><clipPath id="507d90f276"><path d="M 36.804688 16.855469 L 1375.195312 16.855469 C 1385.960938 16.855469 1394.691406 25.585938 1394.691406 36.351562 L 1394.691406 425.566406 C 1394.691406 436.335938 1385.960938 445.066406 1375.195312 445.066406 L 36.804688 445.066406 C 26.039062 445.066406 17.308594 436.335938 17.308594 425.566406 L 17.308594 36.351562 C 17.308594 25.585938 26.039062 16.855469 36.804688 16.855469 Z M 36.804688 16.855469 " clip-rule="nonzero"/></clipPath><clipPath id="02cfd695ab"><path d="M 587 27 L 629 27 L 629 254 L 587 254 Z M 587 27 " clip-rule="nonzero"/></clipPath><clipPath id="090adad0e7"><path d="M 16.089844 35.136719 L 16.089844 426.785156 C 16.089844 437.554688 24.820312 446.28125 35.589844 446.28125 L 1376.410156 446.28125 C 1387.179688 446.28125 1395.910156 437.554688 1395.910156 426.785156 L 1395.910156 35.136719 C 1395.910156 24.367188 1387.179688 15.636719 1376.410156 15.636719 L 35.589844 15.636719 C 24.820312 15.636719 16.089844 24.367188 16.089844 35.136719 Z M 16.089844 35.136719 " clip-rule="nonzero"/></clipPath><clipPath id="acd369ebe1"><path d="M 36.804688 16.855469 L 1375.195312 16.855469 C 1385.960938 16.855469 1394.691406 25.585938 1394.691406 36.351562 L 1394.691406 425.566406 C 1394.691406 436.335938 1385.960938 445.066406 1375.195312 445.066406 L 36.804688 445.066406 C 26.039062 445.066406 17.308594 436.335938 17.308594 425.566406 L 17.308594 36.351562 C 17.308594 25.585938 26.039062 16.855469 36.804688 16.855469 Z M 36.804688 16.855469 " clip-rule="nonzero"/></clipPath><clipPath id="63abd68f7a"><path d="M 582 22 L 635 22 L 635 260 L 582 260 Z M 582 22 " clip-rule="nonzero"/></clipPath><clipPath id="0e8404dc32"><path d="M 16.089844 35.136719 L 16.089844 426.785156 C 16.089844 437.554688 24.820312 446.28125 35.589844 446.28125 L 1376.410156 446.28125 C 1387.179688 446.28125 1395.910156 437.554688 1395.910156 426.785156 L 1395.910156 35.136719 C 1395.910156 24.367188 1387.179688 15.636719 1376.410156 15.636719 L 35.589844 15.636719 C 24.820312 15.636719 16.089844 24.367188 16.089844 35.136719 Z M 16.089844 35.136719 " clip-rule="nonzero"/></clipPath><clipPath id="4079f69e90"><path d="M 36.804688 16.855469 L 1375.195312 16.855469 C 1385.960938 16.855469 1394.691406 25.585938 1394.691406 36.351562 L 1394.691406 425.566406 C 1394.691406 436.335938 1385.960938 445.066406 1375.195312 445.066406 L 36.804688 445.066406 C 26.039062 445.066406 17.308594 436.335938 17.308594 425.566406 L 17.308594 36.351562 C 17.308594 25.585938 26.039062 16.855469 36.804688 16.855469 Z M 36.804688 16.855469 " clip-rule="nonzero"/></clipPath><clipPath id="30a529db8b"><path d="M 785 24 L 827 24 L 827 251 L 785 251 Z M 785 24 " clip-rule="nonzero"/></clipPath><clipPath id="d56d02b4fd"><path d="M 16.089844 35.136719 L 16.089844 426.785156 C 16.089844 437.554688 24.820312 446.28125 35.589844 446.28125 L 1376.410156 446.28125 C 1387.179688 446.28125 1395.910156 437.554688 1395.910156 426.785156 L 1395.910156 35.136719 C 1395.910156 24.367188 1387.179688 15.636719 1376.410156 15.636719 L 35.589844 15.636719 C 24.820312 15.636719 16.089844 24.367188 16.089844 35.136719 Z M 16.089844 35.136719 " clip-rule="nonzero"/></clipPath><clipPath id="1000c41145"><path d="M 36.804688 16.855469 L 1375.195312 16.855469 C 1385.960938 16.855469 1394.691406 25.585938 1394.691406 36.351562 L 1394.691406 425.566406 C 1394.691406 436.335938 1385.960938 445.066406 1375.195312 445.066406 L 36.804688 445.066406 C 26.039062 445.066406 17.308594 436.335938 17.308594 425.566406 L 17.308594 36.351562 C 17.308594 25.585938 26.039062 16.855469 36.804688 16.855469 Z M 36.804688 16.855469 " clip-rule="nonzero"/></clipPath><clipPath id="3c93456543"><path d="M 780 18 L 833 18 L 833 256 L 780 256 Z M 780 18 " clip-rule="nonzero"/></clipPath><clipPath id="f5a6eb69a8"><path d="M 16.089844 35.136719 L 16.089844 426.785156 C 16.089844 437.554688 24.820312 446.28125 35.589844 446.28125 L 1376.410156 446.28125 C 1387.179688 446.28125 1395.910156 437.554688 1395.910156 426.785156 L 1395.910156 35.136719 C 1395.910156 24.367188 1387.179688 15.636719 1376.410156 15.636719 L 35.589844 15.636719 C 24.820312 15.636719 16.089844 24.367188 16.089844 35.136719 Z M 16.089844 35.136719 " clip-rule="nonzero"/></clipPath><clipPath id="89a861af81"><path d="M 36.804688 16.855469 L 1375.195312 16.855469 C 1385.960938 16.855469 1394.691406 25.585938 1394.691406 36.351562 L 1394.691406 425.566406 C 1394.691406 436.335938 1385.960938 445.066406 1375.195312 445.066406 L 36.804688 445.066406 C 26.039062 445.066406 17.308594 436.335938 17.308594 425.566406 L 17.308594 36.351562 C 17.308594 25.585938 26.039062 16.855469 36.804688 16.855469 Z M 36.804688 16.855469 " clip-rule="nonzero"/></clipPath><clipPath id="62fa5ddc61"><path d="M 885 24 L 927 24 L 927 251 L 885 251 Z M 885 24 " clip-rule="nonzero"/></clipPath><clipPath id="8612bf87fc"><path d="M 16.089844 35.136719 L 16.089844 426.785156 C 16.089844 437.554688 24.820312 446.28125 35.589844 446.28125 L 1376.410156 446.28125 C 1387.179688 446.28125 1395.910156 437.554688 1395.910156 426.785156 L 1395.910156 35.136719 C 1395.910156 24.367188 1387.179688 15.636719 1376.410156 15.636719 L 35.589844 15.636719 C 24.820312 15.636719 16.089844 24.367188 16.089844 35.136719 Z M 16.089844 35.136719 " clip-rule="nonzero"/></clipPath><clipPath id="2c83f9938b"><path d="M 36.804688 16.855469 L 1375.195312 16.855469 C 1385.960938 16.855469 1394.691406 25.585938 1394.691406 36.351562 L 1394.691406 425.566406 C 1394.691406 436.335938 1385.960938 445.066406 1375.195312 445.066406 L 36.804688 445.066406 C 26.039062 445.066406 17.308594 436.335938 17.308594 425.566406 L 17.308594 36.351562 C 17.308594 25.585938 26.039062 16.855469 36.804688 16.855469 Z M 36.804688 16.855469 " clip-rule="nonzero"/></clipPath><clipPath id="4ffce634d2"><path d="M 880 18 L 933 18 L 933 256 L 880 256 Z M 880 18 " clip-rule="nonzero"/></clipPath><clipPath id="cb25f12dda"><path d="M 16.089844 35.136719 L 16.089844 426.785156 C 16.089844 437.554688 24.820312 446.28125 35.589844 446.28125 L 1376.410156 446.28125 C 1387.179688 446.28125 1395.910156 437.554688 1395.910156 426.785156 L 1395.910156 35.136719 C 1395.910156 24.367188 1387.179688 15.636719 1376.410156 15.636719 L 35.589844 15.636719 C 24.820312 15.636719 16.089844 24.367188 16.089844 35.136719 Z M 16.089844 35.136719 " clip-rule="nonzero"/></clipPath><clipPath id="3bb89ac98b"><path d="M 36.804688 16.855469 L 1375.195312 16.855469 C 1385.960938 16.855469 1394.691406 25.585938 1394.691406 36.351562 L 1394.691406 425.566406 C 1394.691406 436.335938 1385.960938 445.066406 1375.195312 445.066406 L 36.804688 445.066406 C 26.039062 445.066406 17.308594 436.335938 17.308594 425.566406 L 17.308594 36.351562 C 17.308594 25.585938 26.039062 16.855469 36.804688 16.855469 Z M 36.804688 16.855469 " clip-rule="nonzero"/></clipPath><clipPath id="439e8a0f3c"><path d="M 1081 29 L 1123 29 L 1123 256 L 1081 256 Z M 1081 29 " clip-rule="nonzero"/></clipPath><clipPath id="f4d19ebf87"><path d="M 16.089844 35.136719 L 16.089844 426.785156 C 16.089844 437.554688 24.820312 446.28125 35.589844 446.28125 L 1376.410156 446.28125 C 1387.179688 446.28125 1395.910156 437.554688 1395.910156 426.785156 L 1395.910156 35.136719 C 1395.910156 24.367188 1387.179688 15.636719 1376.410156 15.636719 L 35.589844 15.636719 C 24.820312 15.636719 16.089844 24.367188 16.089844 35.136719 Z M 16.089844 35.136719 " clip-rule="nonzero"/></clipPath><clipPath id="44f3a41aca"><path d="M 36.804688 16.855469 L 1375.195312 16.855469 C 1385.960938 16.855469 1394.691406 25.585938 1394.691406 36.351562 L 1394.691406 425.566406 C 1394.691406 436.335938 1385.960938 445.066406 1375.195312 445.066406 L 36.804688 445.066406 C 26.039062 445.066406 17.308594 436.335938 17.308594 425.566406 L 17.308594 36.351562 C 17.308594 25.585938 26.039062 16.855469 36.804688 16.855469 Z M 36.804688 16.855469 " clip-rule="nonzero"/></clipPath><clipPath id="6ef36484c8"><path d="M 1076 23 L 1129 23 L 1129 262 L 1076 262 Z M 1076 23 " clip-rule="nonzero"/></clipPath><clipPath id="177a45ada9"><path d="M 16.089844 35.136719 L 16.089844 426.785156 C 16.089844 437.554688 24.820312 446.28125 35.589844 446.28125 L 1376.410156 446.28125 C 1387.179688 446.28125 1395.910156 437.554688 1395.910156 426.785156 L 1395.910156 35.136719 C 1395.910156 24.367188 1387.179688 15.636719 1376.410156 15.636719 L 35.589844 15.636719 C 24.820312 15.636719 16.089844 24.367188 16.089844 35.136719 Z M 16.089844 35.136719 " clip-rule="nonzero"/></clipPath><clipPath id="287fd3eb94"><path d="M 36.804688 16.855469 L 1375.195312 16.855469 C 1385.960938 16.855469 1394.691406 25.585938 1394.691406 36.351562 L 1394.691406 425.566406 C 1394.691406 436.335938 1385.960938 445.066406 1375.195312 445.066406 L 36.804688 445.066406 C 26.039062 445.066406 17.308594 436.335938 17.308594 425.566406 L 17.308594 36.351562 C 17.308594 25.585938 26.039062 16.855469 36.804688 16.855469 Z M 36.804688 16.855469 " clip-rule="nonzero"/></clipPath><clipPath id="1e478e58c8"><path d="M 1178 31 L 1220 31 L 1220 258 L 1178 258 Z M 1178 31 " clip-rule="nonzero"/></clipPath><clipPath id="731c4e7f09"><path d="M 16.089844 35.136719 L 16.089844 426.785156 C 16.089844 437.554688 24.820312 446.28125 35.589844 446.28125 L 1376.410156 446.28125 C 1387.179688 446.28125 1395.910156 437.554688 1395.910156 426.785156 L 1395.910156 35.136719 C 1395.910156 24.367188 1387.179688 15.636719 1376.410156 15.636719 L 35.589844 15.636719 C 24.820312 15.636719 16.089844 24.367188 16.089844 35.136719 Z M 16.089844 35.136719 " clip-rule="nonzero"/></clipPath><clipPath id="07406b2409"><path d="M 36.804688 16.855469 L 1375.195312 16.855469 C 1385.960938 16.855469 1394.691406 25.585938 1394.691406 36.351562 L 1394.691406 425.566406 C 1394.691406 436.335938 1385.960938 445.066406 1375.195312 445.066406 L 36.804688 445.066406 C 26.039062 445.066406 17.308594 436.335938 17.308594 425.566406 L 17.308594 36.351562 C 17.308594 25.585938 26.039062 16.855469 36.804688 16.855469 Z M 36.804688 16.855469 " clip-rule="nonzero"/></clipPath><clipPath id="d22bba14f0"><path d="M 1172 25 L 1225 25 L 1225 264 L 1172 264 Z M 1172 25 " clip-rule="nonzero"/></clipPath><clipPath id="5647809f27"><path d="M 16.089844 35.136719 L 16.089844 426.785156 C 16.089844 437.554688 24.820312 446.28125 35.589844 446.28125 L 1376.410156 446.28125 C 1387.179688 446.28125 1395.910156 437.554688 1395.910156 426.785156 L 1395.910156 35.136719 C 1395.910156 24.367188 1387.179688 15.636719 1376.410156 15.636719 L 35.589844 15.636719 C 24.820312 15.636719 16.089844 24.367188 16.089844 35.136719 Z M 16.089844 35.136719 " clip-rule="nonzero"/></clipPath><clipPath id="68e3bcdb02"><path d="M 36.804688 16.855469 L 1375.195312 16.855469 C 1385.960938 16.855469 1394.691406 25.585938 1394.691406 36.351562 L 1394.691406 425.566406 C 1394.691406 436.335938 1385.960938 445.066406 1375.195312 445.066406 L 36.804688 445.066406 C 26.039062 445.066406 17.308594 436.335938 17.308594 425.566406 L 17.308594 36.351562 C 17.308594 25.585938 26.039062 16.855469 36.804688 16.855469 Z M 36.804688 16.855469 " clip-rule="nonzero"/></clipPath><clipPath id="5e45b416b1"><path d="M 1276 29 L 1318 29 L 1318 256 L 1276 256 Z M 1276 29 " clip-rule="nonzero"/></clipPath><clipPath id="34969de146"><path d="M 16.089844 35.136719 L 16.089844 426.785156 C 16.089844 437.554688 24.820312 446.28125 35.589844 446.28125 L 1376.410156 446.28125 C 1387.179688 446.28125 1395.910156 437.554688 1395.910156 426.785156 L 1395.910156 35.136719 C 1395.910156 24.367188 1387.179688 15.636719 1376.410156 15.636719 L 35.589844 15.636719 C 24.820312 15.636719 16.089844 24.367188 16.089844 35.136719 Z M 16.089844 35.136719 " clip-rule="nonzero"/></clipPath><clipPath id="db2962fee7"><path d="M 36.804688 16.855469 L 1375.195312 16.855469 C 1385.960938 16.855469 1394.691406 25.585938 1394.691406 36.351562 L 1394.691406 425.566406 C 1394.691406 436.335938 1385.960938 445.066406 1375.195312 445.066406 L 36.804688 445.066406 C 26.039062 445.066406 17.308594 436.335938 17.308594 425.566406 L 17.308594 36.351562 C 17.308594 25.585938 26.039062 16.855469 36.804688 16.855469 Z M 36.804688 16.855469 " clip-rule="nonzero"/></clipPath><clipPath id="c5c37e9bbe"><path d="M 1270 23 L 1323 23 L 1323 262 L 1270 262 Z M 1270 23 " clip-rule="nonzero"/></clipPath><clipPath id="1a277a8c95"><path d="M 16.089844 35.136719 L 16.089844 426.785156 C 16.089844 437.554688 24.820312 446.28125 35.589844 446.28125 L 1376.410156 446.28125 C 1387.179688 446.28125 1395.910156 437.554688 1395.910156 426.785156 L 1395.910156 35.136719 C 1395.910156 24.367188 1387.179688 15.636719 1376.410156 15.636719 L 35.589844 15.636719 C 24.820312 15.636719 16.089844 24.367188 16.089844 35.136719 Z M 16.089844 35.136719 " clip-rule="nonzero"/></clipPath><clipPath id="9f94ed0136"><path d="M 36.804688 16.855469 L 1375.195312 16.855469 C 1385.960938 16.855469 1394.691406 25.585938 1394.691406 36.351562 L 1394.691406 425.566406 C 1394.691406 436.335938 1385.960938 445.066406 1375.195312 445.066406 L 36.804688 445.066406 C 26.039062 445.066406 17.308594 436.335938 17.308594 425.566406 L 17.308594 36.351562 C 17.308594 25.585938 26.039062 16.855469 36.804688 16.855469 Z M 36.804688 16.855469 " clip-rule="nonzero"/></clipPath><clipPath id="3c99d98f7e"><path d="M 16.089844 15.636719 L 1395.832031 15.636719 L 1395.832031 445.792969 L 16.089844 445.792969 Z M 16.089844 15.636719 " clip-rule="nonzero"/></clipPath><clipPath id="48f91b3825"><path d="M 16.089844 35.136719 L 16.089844 426.785156 C 16.089844 437.554688 24.820312 446.28125 35.589844 446.28125 L 1376.410156 446.28125 C 1387.179688 446.28125 1395.910156 437.554688 1395.910156 426.785156 L 1395.910156 35.136719 C 1395.910156 24.367188 1387.179688 15.636719 1376.410156 15.636719 L 35.589844 15.636719 C 24.820312 15.636719 16.089844 24.367188 16.089844 35.136719 Z M 16.089844 35.136719 " clip-rule="nonzero"/></clipPath><clipPath id="80b794fcc5"><path d="M 16.089844 35.136719 L 16.089844 426.769531 C 16.089844 437.539062 24.820312 446.269531 35.589844 446.269531 L 1376.394531 446.269531 C 1387.164062 446.269531 1395.894531 437.539062 1395.894531 426.769531 L 1395.894531 35.136719 C 1395.894531 24.367188 1387.164062 15.636719 1376.394531 15.636719 L 35.589844 15.636719 C 24.820312 15.636719 16.089844 24.367188 16.089844 35.136719 Z M 16.089844 35.136719 " clip-rule="nonzero"/></clipPath><clipPath id="5d586e3176"><path d="M 36.867188 337.867188 L 98.753906 337.867188 L 98.753906 399.753906 L 36.867188 399.753906 Z M 36.867188 337.867188 " clip-rule="nonzero"/></clipPath><clipPath id="6fa7fccd7c"><path d="M 235.703125 337.867188 L 297.589844 337.867188 L 297.589844 399.753906 L 235.703125 399.753906 Z M 235.703125 337.867188 " clip-rule="nonzero"/></clipPath><clipPath id="6e1b06a413"><path d="M 431.691406 337.867188 L 493.578125 337.867188 L 493.578125 399.753906 L 431.691406 399.753906 Z M 431.691406 337.867188 " clip-rule="nonzero"/></clipPath><clipPath id="4d7c55c74a"><rect x="0" width="1412" y="0" height="463"/></clipPath></defs><g clip-path="url(#6e0890599a)"><path fill="#ffffff" d="M 0.0976562 0 L 1499.902344 0 L 1499.902344 599.921875 L 0.0976562 599.921875 Z M 0.0976562 0 " fill-opacity="1" fill-rule="nonzero"/><path fill="#ffffff" d="M 0.0976562 0 L 1499.902344 0 L 1499.902344 599.921875 L 0.0976562 599.921875 Z M 0.0976562 0 " fill-opacity="1" fill-rule="nonzero"/></g><g transform="matrix(1, 0, 0, 1, 44, 69)"><g clip-path="url(#4d7c55c74a)"><g clip-path="url(#86094c5845)"><g clip-path="url(#3f21465fe9)"><g clip-path="url(#7eec2cafb7)"><path fill="#000000" d="M 91.445312 19.5625 L 140.886719 19.5625 L 140.886719 262.320312 L 91.445312 262.320312 Z M 91.445312 19.5625 " fill-opacity="1" fill-rule="evenodd"/></g></g></g><g clip-path="url(#3e5b52164d)"><g clip-path="url(#14690e2b35)"><g clip-path="url(#8037a4de4e)"><path stroke-linecap="butt" transform="matrix(0.955998, 0, 0, 0.949346, -14.355302, -141.237092)" fill="none" stroke-linejoin="miter" d="M 110.670379 169.379412 L 162.387462 169.379412 L 162.387462 425.090107 L 110.670379 425.090107 Z M 110.670379 169.379412 " stroke="#000000" stroke-width="1.207" stroke-opacity="1" stroke-miterlimit="4"/></g></g></g><g clip-path="url(#3d3af5fec1)"><g clip-path="url(#a6e6b99286)"><g clip-path="url(#9819c7a27d)"><path fill="#000000" d="M 189.328125 19.441406 L 238.773438 19.441406 L 238.773438 262.195312 L 189.328125 262.195312 Z M 189.328125 19.441406 " fill-opacity="1" fill-rule="evenodd"/></g></g></g><g clip-path="url(#2fcef4663f)"><g clip-path="url(#dbbb1d639b)"><g clip-path="url(#ceb72291bd)"><path stroke-linecap="butt" transform="matrix(0.955998, 0, 0, 0.949346, -14.355302, -141.237092)" fill="none" stroke-linejoin="miter" d="M 213.058518 169.251857 L 264.779687 169.251857 L 264.779687 424.958437 L 213.058518 424.958437 Z M 213.058518 169.251857 " stroke="#000000" stroke-width="1.207" stroke-opacity="1" stroke-miterlimit="4"/></g></g></g><g clip-path="url(#6e0b1092e8)"><g clip-path="url(#177a72236c)"><g clip-path="url(#48b224b394)"><path fill="#000000" d="M 385.414062 18.957031 L 434.855469 18.957031 L 434.855469 261.710938 L 385.414062 261.710938 Z M 385.414062 18.957031 " fill-opacity="1" fill-rule="evenodd"/></g></g></g><g clip-path="url(#28cd349000)"><g clip-path="url(#03e77c3225)"><g clip-path="url(#4603c13a1a)"><path stroke-linecap="butt" transform="matrix(0.955998, 0, 0, 0.949346, -14.355302, -141.237092)" fill="none" stroke-linejoin="miter" d="M 418.169851 168.741637 L 469.886934 168.741637 L 469.886934 424.448218 L 418.169851 424.448218 Z M 418.169851 168.741637 " stroke="#000000" stroke-width="1.207" stroke-opacity="1" stroke-miterlimit="4"/></g></g></g><g clip-path="url(#085782737b)"><g clip-path="url(#c9f31fa5f7)"><g clip-path="url(#ac34c32a32)"><path fill="#000000" d="M 482.734375 19.921875 L 532.175781 19.921875 L 532.175781 262.679688 L 482.734375 262.679688 Z M 482.734375 19.921875 " fill-opacity="1" fill-rule="evenodd"/></g></g></g><g clip-path="url(#ecd1ac7900)"><g clip-path="url(#6a0288e1e1)"><g clip-path="url(#fd9efbb7be)"><path stroke-linecap="butt" transform="matrix(0.955998, 0, 0, 0.949346, -14.355302, -141.237092)" fill="none" stroke-linejoin="miter" d="M 519.969599 169.757962 L 571.686682 169.757962 L 571.686682 425.468657 L 519.969599 425.468657 Z M 519.969599 169.757962 " stroke="#000000" stroke-width="1.207" stroke-opacity="1" stroke-miterlimit="4"/></g></g></g><g clip-path="url(#387db1fa3a)"><g clip-path="url(#e868341298)"><g clip-path="url(#2621c31fef)"><path fill="#000000" d="M 581.996094 19.441406 L 631.4375 19.441406 L 631.4375 262.195312 L 581.996094 262.195312 Z M 581.996094 19.441406 " fill-opacity="1" fill-rule="evenodd"/></g></g></g><g clip-path="url(#da09d4cd5b)"><g clip-path="url(#70261652e2)"><g clip-path="url(#5243bc3879)"><path stroke-linecap="butt" transform="matrix(0.955998, 0, 0, 0.949346, -14.355302, -141.237092)" fill="none" stroke-linejoin="miter" d="M 623.800111 169.251857 L 675.517194 169.251857 L 675.517194 424.958437 L 623.800111 424.958437 Z M 623.800111 169.251857 " stroke="#000000" stroke-width="1.207" stroke-opacity="1" stroke-miterlimit="4"/></g></g></g><g clip-path="url(#d7314ec7f5)"><g clip-path="url(#bd85389293)"><g clip-path="url(#d5f4713acc)"><path stroke-linecap="butt" transform="matrix(0.955998, 0, 0, 0.949346, -14.355302, -141.237092)" fill="none" stroke-linejoin="miter" d="M 33.51766 167.951619 L 751.85679 167.951619 L 751.85679 617.089149 L 33.51766 617.089149 Z M 33.51766 167.951619 " stroke="#000000" stroke-width="2.375" stroke-opacity="1" stroke-miterlimit="4"/></g></g></g><g clip-path="url(#506f25855f)"><g clip-path="url(#86d29b8cc6)"><g clip-path="url(#6bb637907f)"><path stroke-linecap="butt" transform="matrix(2.196989, 0, 0, 2.194663, 3.912654, 0.933192)" fill="none" stroke-linejoin="miter" d="M 50.744818 114.679997 L 50.744818 202.13646 " stroke="#000000" stroke-width="2.375" stroke-opacity="1" stroke-miterlimit="4"/></g></g></g><g clip-path="url(#cc3371df6d)"><g clip-path="url(#6660b9e179)"><g clip-path="url(#07b4dff1a0)"><path stroke-linecap="butt" transform="matrix(2.196989, 0, 0, 2.194663, 3.912654, 0.933192)" fill="none" stroke-linejoin="miter" d="M 95.847394 114.259944 L 95.847394 201.716407 " stroke="#000000" stroke-width="2.375" stroke-opacity="1" stroke-miterlimit="4"/></g></g></g><g clip-path="url(#8caba90e24)"><g clip-path="url(#98c084e89f)"><g clip-path="url(#bffc5cd223)"><path stroke-linecap="butt" transform="matrix(2.196989, 0, 0, 2.194663, 3.912654, 0.933192)" fill="none" stroke-linejoin="miter" d="M 184.960853 114.840187 L 184.960853 202.296649 " stroke="#000000" stroke-width="2.375" stroke-opacity="1" stroke-miterlimit="4"/></g></g></g><g clip-path="url(#d28ac5b24d)"><g clip-path="url(#9142adf7f4)"><g clip-path="url(#746990d92f)"><path stroke-linecap="butt" transform="matrix(2.196989, 0, 0, 2.194663, 3.912654, 0.933192)" fill="none" stroke-linejoin="miter" d="M 229.270441 114.840187 L 229.270441 202.296649 " stroke="#000000" stroke-width="2.375" stroke-opacity="1" stroke-miterlimit="4"/></g></g></g><g clip-path="url(#fb607545c9)"><g clip-path="url(#2fdd75a1aa)"><g clip-path="url(#e14ddf3c02)"><path stroke-linecap="butt" transform="matrix(2.196989, 0, 0, 2.194663, 3.912654, 0.933192)" fill="none" stroke-linejoin="miter" d="M 274.689501 114.519807 L 274.689501 201.97627 " stroke="#000000" stroke-width="2.375" stroke-opacity="1" stroke-miterlimit="4"/></g></g></g><g clip-path="url(#4c4e3d83d1)"><g clip-path="url(#35369babab)"><g clip-path="url(#9f70becf17)"><path stroke-linecap="butt" transform="matrix(2.196989, 0, 0, 2.194663, 3.912654, 0.933192)" fill="none" stroke-linejoin="miter" d="M 140.350784 8.068405 L 140.350784 201.949572 " stroke="#000000" stroke-width="2.375" stroke-opacity="1" stroke-miterlimit="4"/></g></g></g><g clip-path="url(#0003dc90f8)"><g clip-path="url(#a1fa1fd41f)"><g clip-path="url(#ec20c9d7f9)"><path fill="#000000" d="M 98.023438 28.511719 L 139.058594 28.511719 L 139.058594 254.847656 L 98.023438 254.847656 Z M 98.023438 28.511719 " fill-opacity="1" fill-rule="nonzero"/></g></g></g><g clip-path="url(#af5f895222)"><g clip-path="url(#3c0481f46d)"><g clip-path="url(#1df37dd3fa)"><path stroke-linecap="butt" transform="matrix(2.196989, 0, 0, 2.194663, 3.912654, 0.933192)" fill="none" stroke-linejoin="miter" d="M 42.836265 12.566176 L 61.514176 12.566176 L 61.514176 115.696312 L 42.836265 115.696312 Z M 42.836265 12.566176 " stroke="#000000" stroke-width="5" stroke-opacity="1" stroke-miterlimit="4"/></g></g></g><g clip-path="url(#496eb6635f)"><g clip-path="url(#8c1df6f320)"><g clip-path="url(#82fd474ee5)"><path fill="#000000" d="M 781.109375 18.0625 L 830.554688 18.0625 L 830.554688 260.820312 L 781.109375 260.820312 Z M 781.109375 18.0625 " fill-opacity="1" fill-rule="evenodd"/></g></g></g><g clip-path="url(#c929164e5b)"><g clip-path="url(#8ddd482c8f)"><g clip-path="url(#6d757b659f)"><path stroke-linecap="butt" transform="matrix(0.955998, 0, 0, 0.949346, -14.355302, -141.237092)" fill="none" stroke-linejoin="miter" d="M 832.07813 167.799376 L 883.799299 167.799376 L 883.799299 423.510071 L 832.07813 423.510071 Z M 832.07813 167.799376 " stroke="#000000" stroke-width="1.207" stroke-opacity="1" stroke-miterlimit="4"/></g></g></g><g clip-path="url(#8daf9db583)"><g clip-path="url(#ecfd780fd6)"><g clip-path="url(#77d0d26677)"><path fill="#000000" d="M 878.996094 17.941406 L 928.4375 17.941406 L 928.4375 260.695312 L 878.996094 260.695312 Z M 878.996094 17.941406 " fill-opacity="1" fill-rule="evenodd"/></g></g></g><g clip-path="url(#2517029e91)"><g clip-path="url(#453a14bb53)"><g clip-path="url(#d6f6f7c08d)"><path stroke-linecap="butt" transform="matrix(0.955998, 0, 0, 0.949346, -14.355302, -141.237092)" fill="none" stroke-linejoin="miter" d="M 934.470354 167.671821 L 986.187437 167.671821 L 986.187437 423.378402 L 934.470354 423.378402 Z M 934.470354 167.671821 " stroke="#000000" stroke-width="1.207" stroke-opacity="1" stroke-miterlimit="4"/></g></g></g><g clip-path="url(#345d28796b)"><g clip-path="url(#e81c78b084)"><g clip-path="url(#1eaaa9f4bf)"><path fill="#000000" d="M 1075.097656 17.464844 L 1124.542969 17.464844 L 1124.542969 260.222656 L 1075.097656 260.222656 Z M 1075.097656 17.464844 " fill-opacity="1" fill-rule="evenodd"/></g></g></g><g clip-path="url(#66d79be33b)"><g clip-path="url(#88bcd24088)"><g clip-path="url(#09444f71e2)"><path stroke-linecap="butt" transform="matrix(0.955998, 0, 0, 0.949346, -14.355302, -141.237092)" fill="none" stroke-linejoin="miter" d="M 1139.598031 167.169831 L 1191.319201 167.169831 L 1191.319201 422.880526 L 1139.598031 422.880526 Z M 1139.598031 167.169831 " stroke="#000000" stroke-width="1.207" stroke-opacity="1" stroke-miterlimit="4"/></g></g></g><g clip-path="url(#8354ff1391)"><g clip-path="url(#4f6b2279a9)"><g clip-path="url(#8b65e09655)"><path fill="#000000" d="M 1172.421875 18.425781 L 1221.863281 18.425781 L 1221.863281 261.179688 L 1172.421875 261.179688 Z M 1172.421875 18.425781 " fill-opacity="1" fill-rule="evenodd"/></g></g></g><g clip-path="url(#ca184db5a7)"><g clip-path="url(#935f6386f2)"><g clip-path="url(#24404cd63f)"><path stroke-linecap="butt" transform="matrix(0.955998, 0, 0, 0.949346, -14.355302, -141.237092)" fill="none" stroke-linejoin="miter" d="M 1241.401865 168.182041 L 1293.118948 168.182041 L 1293.118948 423.888622 L 1241.401865 423.888622 Z M 1241.401865 168.182041 " stroke="#000000" stroke-width="1.207" stroke-opacity="1" stroke-miterlimit="4"/></g></g></g><g clip-path="url(#1463775bfd)"><g clip-path="url(#ed1e89dfe0)"><g clip-path="url(#37d3af43f4)"><path fill="#000000" d="M 1271.652344 17.941406 L 1321.09375 17.941406 L 1321.09375 260.695312 L 1271.652344 260.695312 Z M 1271.652344 17.941406 " fill-opacity="1" fill-rule="evenodd"/></g></g></g><g clip-path="url(#21471431dc)"><g clip-path="url(#c5ced9ef1a)"><g clip-path="url(#13ecb0f5ca)"><path stroke-linecap="butt" transform="matrix(0.955998, 0, 0, 0.949346, -14.355302, -141.237092)" fill="none" stroke-linejoin="miter" d="M 1345.19969 167.671821 L 1396.916773 167.671821 L 1396.916773 423.378402 L 1345.19969 423.378402 Z M 1345.19969 167.671821 " stroke="#000000" stroke-width="1.207" stroke-opacity="1" stroke-miterlimit="4"/></g></g></g><g clip-path="url(#0813483ae4)"><g clip-path="url(#15c41cb14b)"><g clip-path="url(#cdfde9b913)"><path stroke-linecap="butt" transform="matrix(0.955998, 0, 0, 0.949346, -14.355302, -141.237092)" fill="none" stroke-linejoin="miter" d="M 754.921325 166.371583 L 1473.260455 166.371583 L 1473.260455 615.509113 L 754.921325 615.509113 Z M 754.921325 166.371583 " stroke="#000000" stroke-width="2.375" stroke-opacity="1" stroke-miterlimit="4"/></g></g></g><g clip-path="url(#ebc39e1642)"><g clip-path="url(#26450ecf62)"><g clip-path="url(#f032c0ccd6)"><path stroke-linecap="butt" transform="matrix(2.196989, 0, 0, 2.194663, 3.912654, 0.933192)" fill="none" stroke-linejoin="miter" d="M 364.659958 114.000081 L 364.659958 201.456543 " stroke="#000000" stroke-width="2.375" stroke-opacity="1" stroke-miterlimit="4"/></g></g></g><g clip-path="url(#f5ad279d46)"><g clip-path="url(#28c8592d67)"><g clip-path="url(#8f28f18889)"><path stroke-linecap="butt" transform="matrix(2.196989, 0, 0, 2.194663, 3.912654, 0.933192)" fill="none" stroke-linejoin="miter" d="M 409.760756 113.580028 L 409.760756 201.03649 " stroke="#000000" stroke-width="2.375" stroke-opacity="1" stroke-miterlimit="4"/></g></g></g><g clip-path="url(#2ba37c32f3)"><g clip-path="url(#cb858c206f)"><g clip-path="url(#45c243c542)"><path stroke-linecap="butt" transform="matrix(2.196989, 0, 0, 2.194663, 3.912654, 0.933192)" fill="none" stroke-linejoin="miter" d="M 498.870659 114.149591 L 498.870659 201.606054 " stroke="#000000" stroke-width="2.375" stroke-opacity="1" stroke-miterlimit="4"/></g></g></g><g clip-path="url(#555deedbfc)"><g clip-path="url(#b45f0bb2ae)"><g clip-path="url(#220c7aa307)"><path stroke-linecap="butt" transform="matrix(2.196989, 0, 0, 2.194663, 3.912654, 0.933192)" fill="none" stroke-linejoin="miter" d="M 543.189137 114.149591 L 543.189137 201.606054 " stroke="#000000" stroke-width="2.375" stroke-opacity="1" stroke-miterlimit="4"/></g></g></g><g clip-path="url(#ab3bac4fbb)"><g clip-path="url(#25a3434827)"><g clip-path="url(#37fa85e784)"><path stroke-linecap="butt" transform="matrix(2.196989, 0, 0, 2.194663, 3.912654, 0.933192)" fill="none" stroke-linejoin="miter" d="M 588.599307 113.839891 L 588.599307 201.296354 " stroke="#000000" stroke-width="2.375" stroke-opacity="1" stroke-miterlimit="4"/></g></g></g><g clip-path="url(#cd231d5c70)"><g clip-path="url(#d80d05dfa8)"><g clip-path="url(#23c15c9817)"><path stroke-linecap="butt" transform="matrix(2.196989, 0, 0, 2.194663, 3.912654, 0.933192)" fill="none" stroke-linejoin="miter" d="M 454.260589 7.386709 L 454.260589 201.266096 " stroke="#000000" stroke-width="2.375" stroke-opacity="1" stroke-miterlimit="4"/></g></g></g><g clip-path="url(#a712991059)"><g clip-path="url(#ff645c8d58)"><g clip-path="url(#7f7a75025e)"><path fill="#000000" d="M 195.253906 25.84375 L 236.285156 25.84375 L 236.285156 252.179688 L 195.253906 252.179688 Z M 195.253906 25.84375 " fill-opacity="1" fill-rule="nonzero"/></g></g></g><g clip-path="url(#6bd1588f79)"><g clip-path="url(#059eff47dd)"><g clip-path="url(#ad8e0d5db7)"><path stroke-linecap="butt" transform="matrix(2.196989, 0, 0, 2.194663, 3.912654, 0.933192)" fill="none" stroke-linejoin="miter" d="M 87.092512 11.350514 L 105.768645 11.350514 L 105.768645 114.48065 L 87.092512 114.48065 Z M 87.092512 11.350514 " stroke="#000000" stroke-width="5" stroke-opacity="1" stroke-miterlimit="4"/></g></g></g><g clip-path="url(#198ac00d7e)"><g clip-path="url(#0f6f75035c)"><g clip-path="url(#27d5172ed0)"><path fill="#000000" d="M 391.503906 25.84375 L 432.539062 25.84375 L 432.539062 252.179688 L 391.503906 252.179688 Z M 391.503906 25.84375 " fill-opacity="1" fill-rule="nonzero"/></g></g></g><g clip-path="url(#42e16beeea)"><g clip-path="url(#a2bf85d665)"><g clip-path="url(#fc097dc8e4)"><path stroke-linecap="butt" transform="matrix(2.196989, 0, 0, 2.194663, 3.912654, 0.933192)" fill="none" stroke-linejoin="miter" d="M 176.419332 11.350514 L 195.097243 11.350514 L 195.097243 114.48065 L 176.419332 114.48065 Z M 176.419332 11.350514 " stroke="#000000" stroke-width="5" stroke-opacity="1" stroke-miterlimit="4"/></g></g></g><g clip-path="url(#0ba4a1490e)"><g clip-path="url(#cdc0018dd6)"><g clip-path="url(#1e5e69b68c)"><path fill="#000000" d="M 487.84375 27.625 L 528.875 27.625 L 528.875 253.960938 L 487.84375 253.960938 Z M 487.84375 27.625 " fill-opacity="1" fill-rule="nonzero"/></g></g></g><g clip-path="url(#1a2bb33035)"><g clip-path="url(#4d0a04f56d)"><g clip-path="url(#507d90f276)"><path stroke-linecap="butt" transform="matrix(2.196989, 0, 0, 2.194663, 3.912654, 0.933192)" fill="none" stroke-linejoin="miter" d="M 220.270195 12.162142 L 238.946327 12.162142 L 238.946327 115.292278 L 220.270195 115.292278 Z M 220.270195 12.162142 " stroke="#000000" stroke-width="5" stroke-opacity="1" stroke-miterlimit="4"/></g></g></g><g clip-path="url(#02cfd695ab)"><g clip-path="url(#090adad0e7)"><g clip-path="url(#acd369ebe1)"><path fill="#000000" d="M 587.742188 27.625 L 628.773438 27.625 L 628.773438 253.960938 L 587.742188 253.960938 Z M 587.742188 27.625 " fill-opacity="1" fill-rule="nonzero"/></g></g></g><g clip-path="url(#63abd68f7a)"><g clip-path="url(#0e8404dc32)"><g clip-path="url(#4079f69e90)"><path stroke-linecap="butt" transform="matrix(2.196989, 0, 0, 2.194663, 3.912654, 0.933192)" fill="none" stroke-linejoin="miter" d="M 265.740817 12.162142 L 284.41695 12.162142 L 284.41695 115.292278 L 265.740817 115.292278 Z M 265.740817 12.162142 " stroke="#000000" stroke-width="5" stroke-opacity="1" stroke-miterlimit="4"/></g></g></g><g clip-path="url(#30a529db8b)"><g clip-path="url(#d56d02b4fd)"><g clip-path="url(#1000c41145)"><path fill="#000000" d="M 785.777344 24.0625 L 826.808594 24.0625 L 826.808594 250.394531 L 785.777344 250.394531 Z M 785.777344 24.0625 " fill-opacity="1" fill-rule="nonzero"/></g></g></g><g clip-path="url(#3c93456543)"><g clip-path="url(#f5a6eb69a8)"><g clip-path="url(#89a861af81)"><path stroke-linecap="butt" transform="matrix(2.196989, 0, 0, 2.194663, 3.912654, 0.933192)" fill="none" stroke-linejoin="miter" d="M 355.880184 10.538886 L 374.556317 10.538886 L 374.556317 113.667242 L 355.880184 113.667242 Z M 355.880184 10.538886 " stroke="#000000" stroke-width="5" stroke-opacity="1" stroke-miterlimit="4"/></g></g></g><g clip-path="url(#62fa5ddc61)"><g clip-path="url(#8612bf87fc)"><g clip-path="url(#2c83f9938b)"><path fill="#000000" d="M 885.695312 24.0625 L 926.730469 24.0625 L 926.730469 250.394531 L 885.695312 250.394531 Z M 885.695312 24.0625 " fill-opacity="1" fill-rule="nonzero"/></g></g></g><g clip-path="url(#4ffce634d2)"><g clip-path="url(#cb25f12dda)"><g clip-path="url(#3bb89ac98b)"><path stroke-linecap="butt" transform="matrix(2.196989, 0, 0, 2.194663, 3.912654, 0.933192)" fill="none" stroke-linejoin="miter" d="M 401.359696 10.538886 L 420.037607 10.538886 L 420.037607 113.667242 L 401.359696 113.667242 Z M 401.359696 10.538886 " stroke="#000000" stroke-width="5" stroke-opacity="1" stroke-miterlimit="4"/></g></g></g><g clip-path="url(#439e8a0f3c)"><g clip-path="url(#f4d19ebf87)"><g clip-path="url(#44f3a41aca)"><path fill="#000000" d="M 1081.929688 29.40625 L 1122.964844 29.40625 L 1122.964844 255.742188 L 1081.929688 255.742188 Z M 1081.929688 29.40625 " fill-opacity="1" fill-rule="nonzero"/></g></g></g><g clip-path="url(#6ef36484c8)"><g clip-path="url(#177a45ada9)"><g clip-path="url(#287fd3eb94)"><path stroke-linecap="butt" transform="matrix(2.196989, 0, 0, 2.194663, 3.912654, 0.933192)" fill="none" stroke-linejoin="miter" d="M 490.679404 12.97377 L 509.357315 12.97377 L 509.357315 116.103906 L 490.679404 116.103906 Z M 490.679404 12.97377 " stroke="#000000" stroke-width="5" stroke-opacity="1" stroke-miterlimit="4"/></g></g></g><g clip-path="url(#1e478e58c8)"><g clip-path="url(#731c4e7f09)"><g clip-path="url(#07406b2409)"><path fill="#000000" d="M 1178.269531 31.1875 L 1219.300781 31.1875 L 1219.300781 257.523438 L 1178.269531 257.523438 Z M 1178.269531 31.1875 " fill-opacity="1" fill-rule="nonzero"/></g></g></g><g clip-path="url(#d22bba14f0)"><g clip-path="url(#5647809f27)"><g clip-path="url(#68e3bcdb02)"><path stroke-linecap="butt" transform="matrix(2.196989, 0, 0, 2.194663, 3.912654, 0.933192)" fill="none" stroke-linejoin="miter" d="M 534.530267 13.785398 L 553.2064 13.785398 L 553.2064 116.915534 L 534.530267 116.915534 Z M 534.530267 13.785398 " stroke="#000000" stroke-width="5" stroke-opacity="1" stroke-miterlimit="4"/></g></g></g><g clip-path="url(#5e45b416b1)"><g clip-path="url(#34969de146)"><g clip-path="url(#db2962fee7)"><path fill="#000000" d="M 1276.410156 29.40625 L 1317.441406 29.40625 L 1317.441406 255.742188 L 1276.410156 255.742188 Z M 1276.410156 29.40625 " fill-opacity="1" fill-rule="nonzero"/></g></g></g><g clip-path="url(#c5c37e9bbe)"><g clip-path="url(#1a277a8c95)"><g clip-path="url(#9f94ed0136)"><path stroke-linecap="butt" transform="matrix(2.196989, 0, 0, 2.194663, 3.912654, 0.933192)" fill="none" stroke-linejoin="miter" d="M 579.200789 12.97377 L 597.876921 12.97377 L 597.876921 116.103906 L 579.200789 116.103906 Z M 579.200789 12.97377 " stroke="#000000" stroke-width="5" stroke-opacity="1" stroke-miterlimit="4"/></g></g></g><g clip-path="url(#3c99d98f7e)"><g clip-path="url(#48f91b3825)"><g clip-path="url(#80b794fcc5)"><path stroke-linecap="butt" transform="matrix(1.014514, 0, 0, 1.014514, 16.090787, 15.638559)" fill="none" stroke-linejoin="miter" d="M -0.00092973 19.219207 L -0.00092973 405.249073 C -0.00092973 415.864528 8.604636 424.470093 19.220093 424.470093 L 1340.842537 424.470093 C 1351.457993 424.470093 1360.063559 415.864528 1360.063559 405.249073 L 1360.063559 19.219207 C 1360.063559 8.603752 1351.457993 -0.00181352 1340.842537 -0.00181352 L 19.220093 -0.00181352 C 8.604636 -0.00181352 -0.00092973 8.603752 -0.00092973 19.219207 Z M -0.00092973 19.219207 " stroke="#000000" stroke-width="7.391727" stroke-opacity="1" stroke-miterlimit="4"/></g></g></g><g clip-path="url(#5d586e3176)"><path fill="#000000" d="M 67.8125 337.867188 C 50.714844 337.867188 36.867188 351.714844 36.867188 368.8125 C 36.867188 385.90625 50.714844 399.753906 67.8125 399.753906 C 84.90625 399.753906 98.753906 385.90625 98.753906 368.8125 C 98.753906 351.714844 84.90625 337.867188 67.8125 337.867188 Z M 67.8125 337.867188 " fill-opacity="1" fill-rule="nonzero"/></g><g clip-path="url(#6fa7fccd7c)"><path fill="#000000" d="M 266.648438 337.867188 C 249.550781 337.867188 235.703125 351.714844 235.703125 368.8125 C 235.703125 385.90625 249.550781 399.753906 266.648438 399.753906 C 283.742188 399.753906 297.589844 385.90625 297.589844 368.8125 C 297.589844 351.714844 283.742188 337.867188 266.648438 337.867188 Z M 266.648438 337.867188 " fill-opacity="1" fill-rule="nonzero"/></g><g clip-path="url(#6e1b06a413)"><path fill="#000000" d="M 462.636719 337.867188 C 445.539062 337.867188 431.691406 351.714844 431.691406 368.8125 C 431.691406 385.90625 445.539062 399.753906 462.636719 399.753906 C 479.730469 399.753906 493.578125 385.90625 493.578125 368.8125 C 493.578125 351.714844 479.730469 337.867188 462.636719 337.867188 Z M 462.636719 337.867188 " fill-opacity="1" fill-rule="nonzero"/></g></g></g></svg>