<svg xmlns="http://www.w3.org/2000/svg" xmlns:xlink="http://www.w3.org/1999/xlink" width="2000" zoomAndPan="magnify" viewBox="0 0 1500 1499.999933" height="2000" preserveAspectRatio="xMidYMid meet" version="1.0"><defs><clipPath id="bee0e99ae0"><path d="M 94 20 L 147 20 L 147 273 L 94 273 Z M 94 20 " clip-rule="nonzero"/></clipPath><clipPath id="8bb5ead483"><path d="M 16.507812 35.570312 L 16.507812 444.429688 C 16.507812 455.199219 25.238281 463.929688 36.007812 463.929688 L 1431.992188 463.929688 C 1442.761719 463.929688 1451.492188 455.199219 1451.492188 444.429688 L 1451.492188 35.570312 C 1451.492188 24.800781 1442.761719 16.070312 1431.992188 16.070312 L 36.007812 16.070312 C 25.238281 16.070312 16.507812 24.800781 16.507812 35.570312 Z M 16.507812 35.570312 " clip-rule="nonzero"/></clipPath><clipPath id="25f59f7797"><path d="M 37.359375 17.421875 L 1430.640625 17.421875 C 1441.410156 17.421875 1450.140625 26.152344 1450.140625 36.921875 L 1450.140625 443.078125 C 1450.140625 453.847656 1441.410156 462.578125 1430.640625 462.578125 L 37.359375 462.578125 C 26.589844 462.578125 17.859375 453.847656 17.859375 443.078125 L 17.859375 36.921875 C 17.859375 26.152344 26.589844 17.421875 37.359375 17.421875 Z M 37.359375 17.421875 " clip-rule="nonzero"/></clipPath><clipPath id="961d5e3a33"><path d="M 94 19 L 147 19 L 147 274 L 94 274 Z M 94 19 " clip-rule="nonzero"/></clipPath><clipPath id="d2767e8321"><path d="M 16.507812 35.570312 L 16.507812 444.429688 C 16.507812 455.199219 25.238281 463.929688 36.007812 463.929688 L 1431.992188 463.929688 C 1442.761719 463.929688 1451.492188 455.199219 1451.492188 444.429688 L 1451.492188 35.570312 C 1451.492188 24.800781 1442.761719 16.070312 1431.992188 16.070312 L 36.007812 16.070312 C 25.238281 16.070312 16.507812 24.800781 16.507812 35.570312 Z M 16.507812 35.570312 " clip-rule="nonzero"/></clipPath><clipPath id="2e5c364485"><path d="M 37.359375 17.421875 L 1430.640625 17.421875 C 1441.410156 17.421875 1450.140625 26.152344 1450.140625 36.921875 L 1450.140625 443.078125 C 1450.140625 453.847656 1441.410156 462.578125 1430.640625 462.578125 L 37.359375 462.578125 C 26.589844 462.578125 17.859375 453.847656 17.859375 443.078125 L 17.859375 36.921875 C 17.859375 26.152344 26.589844 17.421875 37.359375 17.421875 Z M 37.359375 17.421875 " clip-rule="nonzero"/></clipPath><clipPath id="a0cf99c54d"><path d="M 196 20 L 249 20 L 249 273 L 196 273 Z M 196 20 " clip-rule="nonzero"/></clipPath><clipPath id="d39b9ee0c8"><path d="M 16.507812 35.570312 L 16.507812 444.429688 C 16.507812 455.199219 25.238281 463.929688 36.007812 463.929688 L 1431.992188 463.929688 C 1442.761719 463.929688 1451.492188 455.199219 1451.492188 444.429688 L 1451.492188 35.570312 C 1451.492188 24.800781 1442.761719 16.070312 1431.992188 16.070312 L 36.007812 16.070312 C 25.238281 16.070312 16.507812 24.800781 16.507812 35.570312 Z M 16.507812 35.570312 " clip-rule="nonzero"/></clipPath><clipPath id="9b6817d6fb"><path d="M 37.359375 17.421875 L 1430.640625 17.421875 C 1441.410156 17.421875 1450.140625 26.152344 1450.140625 36.921875 L 1450.140625 443.078125 C 1450.140625 453.847656 1441.410156 462.578125 1430.640625 462.578125 L 37.359375 462.578125 C 26.589844 462.578125 17.859375 453.847656 17.859375 443.078125 L 17.859375 36.921875 C 17.859375 26.152344 26.589844 17.421875 37.359375 17.421875 Z M 37.359375 17.421875 " clip-rule="nonzero"/></clipPath><clipPath id="5ecdc64112"><path d="M 196 19 L 249 19 L 249 274 L 196 274 Z M 196 19 " clip-rule="nonzero"/></clipPath><clipPath id="0def45b299"><path d="M 16.507812 35.570312 L 16.507812 444.429688 C 16.507812 455.199219 25.238281 463.929688 36.007812 463.929688 L 1431.992188 463.929688 C 1442.761719 463.929688 1451.492188 455.199219 1451.492188 444.429688 L 1451.492188 35.570312 C 1451.492188 24.800781 1442.761719 16.070312 1431.992188 16.070312 L 36.007812 16.070312 C 25.238281 16.070312 16.507812 24.800781 16.507812 35.570312 Z M 16.507812 35.570312 " clip-rule="nonzero"/></clipPath><clipPath id="de74b14c53"><path d="M 37.359375 17.421875 L 1430.640625 17.421875 C 1441.410156 17.421875 1450.140625 26.152344 1450.140625 36.921875 L 1450.140625 443.078125 C 1450.140625 453.847656 1441.410156 462.578125 1430.640625 462.578125 L 37.359375 462.578125 C 26.589844 462.578125 17.859375 453.847656 17.859375 443.078125 L 17.859375 36.921875 C 17.859375 26.152344 26.589844 17.421875 37.359375 17.421875 Z M 37.359375 17.421875 " clip-rule="nonzero"/></clipPath><clipPath id="6b71ba904d"><path d="M 400 19 L 453 19 L 453 273 L 400 273 Z M 400 19 " clip-rule="nonzero"/></clipPath><clipPath id="ac66f8953f"><path d="M 16.507812 35.570312 L 16.507812 444.429688 C 16.507812 455.199219 25.238281 463.929688 36.007812 463.929688 L 1431.992188 463.929688 C 1442.761719 463.929688 1451.492188 455.199219 1451.492188 444.429688 L 1451.492188 35.570312 C 1451.492188 24.800781 1442.761719 16.070312 1431.992188 16.070312 L 36.007812 16.070312 C 25.238281 16.070312 16.507812 24.800781 16.507812 35.570312 Z M 16.507812 35.570312 " clip-rule="nonzero"/></clipPath><clipPath id="1d520da09b"><path d="M 37.359375 17.421875 L 1430.640625 17.421875 C 1441.410156 17.421875 1450.140625 26.152344 1450.140625 36.921875 L 1450.140625 443.078125 C 1450.140625 453.847656 1441.410156 462.578125 1430.640625 462.578125 L 37.359375 462.578125 C 26.589844 462.578125 17.859375 453.847656 17.859375 443.078125 L 17.859375 36.921875 C 17.859375 26.152344 26.589844 17.421875 37.359375 17.421875 Z M 37.359375 17.421875 " clip-rule="nonzero"/></clipPath><clipPath id="9f8f94fca4"><path d="M 400 18 L 453 18 L 453 273 L 400 273 Z M 400 18 " clip-rule="nonzero"/></clipPath><clipPath id="70ef36857e"><path d="M 16.507812 35.570312 L 16.507812 444.429688 C 16.507812 455.199219 25.238281 463.929688 36.007812 463.929688 L 1431.992188 463.929688 C 1442.761719 463.929688 1451.492188 455.199219 1451.492188 444.429688 L 1451.492188 35.570312 C 1451.492188 24.800781 1442.761719 16.070312 1431.992188 16.070312 L 36.007812 16.070312 C 25.238281 16.070312 16.507812 24.800781 16.507812 35.570312 Z M 16.507812 35.570312 " clip-rule="nonzero"/></clipPath><clipPath id="a7d25d2a20"><path d="M 37.359375 17.421875 L 1430.640625 17.421875 C 1441.410156 17.421875 1450.140625 26.152344 1450.140625 36.921875 L 1450.140625 443.078125 C 1450.140625 453.847656 1441.410156 462.578125 1430.640625 462.578125 L 37.359375 462.578125 C 26.589844 462.578125 17.859375 453.847656 17.859375 443.078125 L 17.859375 36.921875 C 17.859375 26.152344 26.589844 17.421875 37.359375 17.421875 Z M 37.359375 17.421875 " clip-rule="nonzero"/></clipPath><clipPath id="f6be0ddf33"><path d="M 501 20 L 554 20 L 554 274 L 501 274 Z M 501 20 " clip-rule="nonzero"/></clipPath><clipPath id="8d6e802773"><path d="M 16.507812 35.570312 L 16.507812 444.429688 C 16.507812 455.199219 25.238281 463.929688 36.007812 463.929688 L 1431.992188 463.929688 C 1442.761719 463.929688 1451.492188 455.199219 1451.492188 444.429688 L 1451.492188 35.570312 C 1451.492188 24.800781 1442.761719 16.070312 1431.992188 16.070312 L 36.007812 16.070312 C 25.238281 16.070312 16.507812 24.800781 16.507812 35.570312 Z M 16.507812 35.570312 " clip-rule="nonzero"/></clipPath><clipPath id="a08365de34"><path d="M 37.359375 17.421875 L 1430.640625 17.421875 C 1441.410156 17.421875 1450.140625 26.152344 1450.140625 36.921875 L 1450.140625 443.078125 C 1450.140625 453.847656 1441.410156 462.578125 1430.640625 462.578125 L 37.359375 462.578125 C 26.589844 462.578125 17.859375 453.847656 17.859375 443.078125 L 17.859375 36.921875 C 17.859375 26.152344 26.589844 17.421875 37.359375 17.421875 Z M 37.359375 17.421875 " clip-rule="nonzero"/></clipPath><clipPath id="94a785e7e5"><path d="M 501 19 L 554 19 L 554 274 L 501 274 Z M 501 19 " clip-rule="nonzero"/></clipPath><clipPath id="c13a151e31"><path d="M 16.507812 35.570312 L 16.507812 444.429688 C 16.507812 455.199219 25.238281 463.929688 36.007812 463.929688 L 1431.992188 463.929688 C 1442.761719 463.929688 1451.492188 455.199219 1451.492188 444.429688 L 1451.492188 35.570312 C 1451.492188 24.800781 1442.761719 16.070312 1431.992188 16.070312 L 36.007812 16.070312 C 25.238281 16.070312 16.507812 24.800781 16.507812 35.570312 Z M 16.507812 35.570312 " clip-rule="nonzero"/></clipPath><clipPath id="4ccbd1678f"><path d="M 37.359375 17.421875 L 1430.640625 17.421875 C 1441.410156 17.421875 1450.140625 26.152344 1450.140625 36.921875 L 1450.140625 443.078125 C 1450.140625 453.847656 1441.410156 462.578125 1430.640625 462.578125 L 37.359375 462.578125 C 26.589844 462.578125 17.859375 453.847656 17.859375 443.078125 L 17.859375 36.921875 C 17.859375 26.152344 26.589844 17.421875 37.359375 17.421875 Z M 37.359375 17.421875 " clip-rule="nonzero"/></clipPath><clipPath id="486a8cc7ec"><path d="M 605 20 L 657 20 L 657 273 L 605 273 Z M 605 20 " clip-rule="nonzero"/></clipPath><clipPath id="9a11f35276"><path d="M 16.507812 35.570312 L 16.507812 444.429688 C 16.507812 455.199219 25.238281 463.929688 36.007812 463.929688 L 1431.992188 463.929688 C 1442.761719 463.929688 1451.492188 455.199219 1451.492188 444.429688 L 1451.492188 35.570312 C 1451.492188 24.800781 1442.761719 16.070312 1431.992188 16.070312 L 36.007812 16.070312 C 25.238281 16.070312 16.507812 24.800781 16.507812 35.570312 Z M 16.507812 35.570312 " clip-rule="nonzero"/></clipPath><clipPath id="a55177a39a"><path d="M 37.359375 17.421875 L 1430.640625 17.421875 C 1441.410156 17.421875 1450.140625 26.152344 1450.140625 36.921875 L 1450.140625 443.078125 C 1450.140625 453.847656 1441.410156 462.578125 1430.640625 462.578125 L 37.359375 462.578125 C 26.589844 462.578125 17.859375 453.847656 17.859375 443.078125 L 17.859375 36.921875 C 17.859375 26.152344 26.589844 17.421875 37.359375 17.421875 Z M 37.359375 17.421875 " clip-rule="nonzero"/></clipPath><clipPath id="95ea6448d0"><path d="M 604 19 L 658 19 L 658 274 L 604 274 Z M 604 19 " clip-rule="nonzero"/></clipPath><clipPath id="6364522bc1"><path d="M 16.507812 35.570312 L 16.507812 444.429688 C 16.507812 455.199219 25.238281 463.929688 36.007812 463.929688 L 1431.992188 463.929688 C 1442.761719 463.929688 1451.492188 455.199219 1451.492188 444.429688 L 1451.492188 35.570312 C 1451.492188 24.800781 1442.761719 16.070312 1431.992188 16.070312 L 36.007812 16.070312 C 25.238281 16.070312 16.507812 24.800781 16.507812 35.570312 Z M 16.507812 35.570312 " clip-rule="nonzero"/></clipPath><clipPath id="12a6ea51cf"><path d="M 37.359375 17.421875 L 1430.640625 17.421875 C 1441.410156 17.421875 1450.140625 26.152344 1450.140625 36.921875 L 1450.140625 443.078125 C 1450.140625 453.847656 1441.410156 462.578125 1430.640625 462.578125 L 37.359375 462.578125 C 26.589844 462.578125 17.859375 453.847656 17.859375 443.078125 L 17.859375 36.921875 C 17.859375 26.152344 26.589844 17.421875 37.359375 17.421875 Z M 37.359375 17.421875 " clip-rule="nonzero"/></clipPath><clipPath id="61ae894acd"><path d="M 17.632812 17.195312 L 734 17.195312 L 734 463 L 17.632812 463 Z M 17.632812 17.195312 " clip-rule="nonzero"/></clipPath><clipPath id="84dc0876f2"><path d="M 16.507812 35.570312 L 16.507812 444.429688 C 16.507812 455.199219 25.238281 463.929688 36.007812 463.929688 L 1431.992188 463.929688 C 1442.761719 463.929688 1451.492188 455.199219 1451.492188 444.429688 L 1451.492188 35.570312 C 1451.492188 24.800781 1442.761719 16.070312 1431.992188 16.070312 L 36.007812 16.070312 C 25.238281 16.070312 16.507812 24.800781 16.507812 35.570312 Z M 16.507812 35.570312 " clip-rule="nonzero"/></clipPath><clipPath id="4091f29532"><path d="M 37.359375 17.421875 L 1430.640625 17.421875 C 1441.410156 17.421875 1450.140625 26.152344 1450.140625 36.921875 L 1450.140625 443.078125 C 1450.140625 453.847656 1441.410156 462.578125 1430.640625 462.578125 L 37.359375 462.578125 C 26.589844 462.578125 17.859375 453.847656 17.859375 443.078125 L 17.859375 36.921875 C 17.859375 26.152344 26.589844 17.421875 37.359375 17.421875 Z M 37.359375 17.421875 " clip-rule="nonzero"/></clipPath><clipPath id="ea2b7527a8"><path d="M 117 259 L 123 259 L 123 463 L 117 463 Z M 117 259 " clip-rule="nonzero"/></clipPath><clipPath id="4a0950278a"><path d="M 16.507812 35.570312 L 16.507812 444.429688 C 16.507812 455.199219 25.238281 463.929688 36.007812 463.929688 L 1431.992188 463.929688 C 1442.761719 463.929688 1451.492188 455.199219 1451.492188 444.429688 L 1451.492188 35.570312 C 1451.492188 24.800781 1442.761719 16.070312 1431.992188 16.070312 L 36.007812 16.070312 C 25.238281 16.070312 16.507812 24.800781 16.507812 35.570312 Z M 16.507812 35.570312 " clip-rule="nonzero"/></clipPath><clipPath id="6dd8c159a4"><path d="M 37.359375 17.421875 L 1430.640625 17.421875 C 1441.410156 17.421875 1450.140625 26.152344 1450.140625 36.921875 L 1450.140625 443.078125 C 1450.140625 453.847656 1441.410156 462.578125 1430.640625 462.578125 L 37.359375 462.578125 C 26.589844 462.578125 17.859375 453.847656 17.859375 443.078125 L 17.859375 36.921875 C 17.859375 26.152344 26.589844 17.421875 37.359375 17.421875 Z M 37.359375 17.421875 " clip-rule="nonzero"/></clipPath><clipPath id="a2a4dd01e5"><path d="M 220 258 L 226 258 L 226 463 L 220 463 Z M 220 258 " clip-rule="nonzero"/></clipPath><clipPath id="9bffb33b07"><path d="M 16.507812 35.570312 L 16.507812 444.429688 C 16.507812 455.199219 25.238281 463.929688 36.007812 463.929688 L 1431.992188 463.929688 C 1442.761719 463.929688 1451.492188 455.199219 1451.492188 444.429688 L 1451.492188 35.570312 C 1451.492188 24.800781 1442.761719 16.070312 1431.992188 16.070312 L 36.007812 16.070312 C 25.238281 16.070312 16.507812 24.800781 16.507812 35.570312 Z M 16.507812 35.570312 " clip-rule="nonzero"/></clipPath><clipPath id="229a3fe9ec"><path d="M 37.359375 17.421875 L 1430.640625 17.421875 C 1441.410156 17.421875 1450.140625 26.152344 1450.140625 36.921875 L 1450.140625 443.078125 C 1450.140625 453.847656 1441.410156 462.578125 1430.640625 462.578125 L 37.359375 462.578125 C 26.589844 462.578125 17.859375 453.847656 17.859375 443.078125 L 17.859375 36.921875 C 17.859375 26.152344 26.589844 17.421875 37.359375 17.421875 Z M 37.359375 17.421875 " clip-rule="nonzero"/></clipPath><clipPath id="ba3d134cca"><path d="M 423 260 L 430 260 L 430 463 L 423 463 Z M 423 260 " clip-rule="nonzero"/></clipPath><clipPath id="98755ca9f2"><path d="M 16.507812 35.570312 L 16.507812 444.429688 C 16.507812 455.199219 25.238281 463.929688 36.007812 463.929688 L 1431.992188 463.929688 C 1442.761719 463.929688 1451.492188 455.199219 1451.492188 444.429688 L 1451.492188 35.570312 C 1451.492188 24.800781 1442.761719 16.070312 1431.992188 16.070312 L 36.007812 16.070312 C 25.238281 16.070312 16.507812 24.800781 16.507812 35.570312 Z M 16.507812 35.570312 " clip-rule="nonzero"/></clipPath><clipPath id="eaab419792"><path d="M 37.359375 17.421875 L 1430.640625 17.421875 C 1441.410156 17.421875 1450.140625 26.152344 1450.140625 36.921875 L 1450.140625 443.078125 C 1450.140625 453.847656 1441.410156 462.578125 1430.640625 462.578125 L 37.359375 462.578125 C 26.589844 462.578125 17.859375 453.847656 17.859375 443.078125 L 17.859375 36.921875 C 17.859375 26.152344 26.589844 17.421875 37.359375 17.421875 Z M 37.359375 17.421875 " clip-rule="nonzero"/></clipPath><clipPath id="202d26dbb0"><path d="M 525 260 L 531 260 L 531 463 L 525 463 Z M 525 260 " clip-rule="nonzero"/></clipPath><clipPath id="17763dd36c"><path d="M 16.507812 35.570312 L 16.507812 444.429688 C 16.507812 455.199219 25.238281 463.929688 36.007812 463.929688 L 1431.992188 463.929688 C 1442.761719 463.929688 1451.492188 455.199219 1451.492188 444.429688 L 1451.492188 35.570312 C 1451.492188 24.800781 1442.761719 16.070312 1431.992188 16.070312 L 36.007812 16.070312 C 25.238281 16.070312 16.507812 24.800781 16.507812 35.570312 Z M 16.507812 35.570312 " clip-rule="nonzero"/></clipPath><clipPath id="346dc028d9"><path d="M 37.359375 17.421875 L 1430.640625 17.421875 C 1441.410156 17.421875 1450.140625 26.152344 1450.140625 36.921875 L 1450.140625 443.078125 C 1450.140625 453.847656 1441.410156 462.578125 1430.640625 462.578125 L 37.359375 462.578125 C 26.589844 462.578125 17.859375 453.847656 17.859375 443.078125 L 17.859375 36.921875 C 17.859375 26.152344 26.589844 17.421875 37.359375 17.421875 Z M 37.359375 17.421875 " clip-rule="nonzero"/></clipPath><clipPath id="811824cbde"><path d="M 628 259 L 635 259 L 635 463 L 628 463 Z M 628 259 " clip-rule="nonzero"/></clipPath><clipPath id="cde325c71a"><path d="M 16.507812 35.570312 L 16.507812 444.429688 C 16.507812 455.199219 25.238281 463.929688 36.007812 463.929688 L 1431.992188 463.929688 C 1442.761719 463.929688 1451.492188 455.199219 1451.492188 444.429688 L 1451.492188 35.570312 C 1451.492188 24.800781 1442.761719 16.070312 1431.992188 16.070312 L 36.007812 16.070312 C 25.238281 16.070312 16.507812 24.800781 16.507812 35.570312 Z M 16.507812 35.570312 " clip-rule="nonzero"/></clipPath><clipPath id="ddeb6e9ffd"><path d="M 37.359375 17.421875 L 1430.640625 17.421875 C 1441.410156 17.421875 1450.140625 26.152344 1450.140625 36.921875 L 1450.140625 443.078125 C 1450.140625 453.847656 1441.410156 462.578125 1430.640625 462.578125 L 37.359375 462.578125 C 26.589844 462.578125 17.859375 453.847656 17.859375 443.078125 L 17.859375 36.921875 C 17.859375 26.152344 26.589844 17.421875 37.359375 17.421875 Z M 37.359375 17.421875 " clip-rule="nonzero"/></clipPath><clipPath id="041227b286"><path d="M 321 17.195312 L 328 17.195312 L 328 463 L 321 463 Z M 321 17.195312 " clip-rule="nonzero"/></clipPath><clipPath id="fef3b8e457"><path d="M 16.507812 35.570312 L 16.507812 444.429688 C 16.507812 455.199219 25.238281 463.929688 36.007812 463.929688 L 1431.992188 463.929688 C 1442.761719 463.929688 1451.492188 455.199219 1451.492188 444.429688 L 1451.492188 35.570312 C 1451.492188 24.800781 1442.761719 16.070312 1431.992188 16.070312 L 36.007812 16.070312 C 25.238281 16.070312 16.507812 24.800781 16.507812 35.570312 Z M 16.507812 35.570312 " clip-rule="nonzero"/></clipPath><clipPath id="fb48b43145"><path d="M 37.359375 17.421875 L 1430.640625 17.421875 C 1441.410156 17.421875 1450.140625 26.152344 1450.140625 36.921875 L 1450.140625 443.078125 C 1450.140625 453.847656 1441.410156 462.578125 1430.640625 462.578125 L 37.359375 462.578125 C 26.589844 462.578125 17.859375 453.847656 17.859375 443.078125 L 17.859375 36.921875 C 17.859375 26.152344 26.589844 17.421875 37.359375 17.421875 Z M 37.359375 17.421875 " clip-rule="nonzero"/></clipPath><clipPath id="4ad71bb9f7"><path d="M 101 29 L 145 29 L 145 265 L 101 265 Z M 101 29 " clip-rule="nonzero"/></clipPath><clipPath id="a2cf6c5c8b"><path d="M 16.507812 35.570312 L 16.507812 444.429688 C 16.507812 455.199219 25.238281 463.929688 36.007812 463.929688 L 1431.992188 463.929688 C 1442.761719 463.929688 1451.492188 455.199219 1451.492188 444.429688 L 1451.492188 35.570312 C 1451.492188 24.800781 1442.761719 16.070312 1431.992188 16.070312 L 36.007812 16.070312 C 25.238281 16.070312 16.507812 24.800781 16.507812 35.570312 Z M 16.507812 35.570312 " clip-rule="nonzero"/></clipPath><clipPath id="6adc014d19"><path d="M 37.359375 17.421875 L 1430.640625 17.421875 C 1441.410156 17.421875 1450.140625 26.152344 1450.140625 36.921875 L 1450.140625 443.078125 C 1450.140625 453.847656 1441.410156 462.578125 1430.640625 462.578125 L 37.359375 462.578125 C 26.589844 462.578125 17.859375 453.847656 17.859375 443.078125 L 17.859375 36.921875 C 17.859375 26.152344 26.589844 17.421875 37.359375 17.421875 Z M 37.359375 17.421875 " clip-rule="nonzero"/></clipPath><clipPath id="1219312e1b"><path d="M 96 23 L 151 23 L 151 271 L 96 271 Z M 96 23 " clip-rule="nonzero"/></clipPath><clipPath id="19df51c6c3"><path d="M 16.507812 35.570312 L 16.507812 444.429688 C 16.507812 455.199219 25.238281 463.929688 36.007812 463.929688 L 1431.992188 463.929688 C 1442.761719 463.929688 1451.492188 455.199219 1451.492188 444.429688 L 1451.492188 35.570312 C 1451.492188 24.800781 1442.761719 16.070312 1431.992188 16.070312 L 36.007812 16.070312 C 25.238281 16.070312 16.507812 24.800781 16.507812 35.570312 Z M 16.507812 35.570312 " clip-rule="nonzero"/></clipPath><clipPath id="8754a5f596"><path d="M 37.359375 17.421875 L 1430.640625 17.421875 C 1441.410156 17.421875 1450.140625 26.152344 1450.140625 36.921875 L 1450.140625 443.078125 C 1450.140625 453.847656 1441.410156 462.578125 1430.640625 462.578125 L 37.359375 462.578125 C 26.589844 462.578125 17.859375 453.847656 17.859375 443.078125 L 17.859375 36.921875 C 17.859375 26.152344 26.589844 17.421875 37.359375 17.421875 Z M 37.359375 17.421875 " clip-rule="nonzero"/></clipPath><clipPath id="58df3ddf77"><path d="M 812 18 L 864 18 L 864 272 L 812 272 Z M 812 18 " clip-rule="nonzero"/></clipPath><clipPath id="6f047024ed"><path d="M 16.507812 35.570312 L 16.507812 444.429688 C 16.507812 455.199219 25.238281 463.929688 36.007812 463.929688 L 1431.992188 463.929688 C 1442.761719 463.929688 1451.492188 455.199219 1451.492188 444.429688 L 1451.492188 35.570312 C 1451.492188 24.800781 1442.761719 16.070312 1431.992188 16.070312 L 36.007812 16.070312 C 25.238281 16.070312 16.507812 24.800781 16.507812 35.570312 Z M 16.507812 35.570312 " clip-rule="nonzero"/></clipPath><clipPath id="7abdb93511"><path d="M 37.359375 17.421875 L 1430.640625 17.421875 C 1441.410156 17.421875 1450.140625 26.152344 1450.140625 36.921875 L 1450.140625 443.078125 C 1450.140625 453.847656 1441.410156 462.578125 1430.640625 462.578125 L 37.359375 462.578125 C 26.589844 462.578125 17.859375 453.847656 17.859375 443.078125 L 17.859375 36.921875 C 17.859375 26.152344 26.589844 17.421875 37.359375 17.421875 Z M 37.359375 17.421875 " clip-rule="nonzero"/></clipPath><clipPath id="68571fbdc1"><path d="M 811 17.195312 L 865 17.195312 L 865 272 L 811 272 Z M 811 17.195312 " clip-rule="nonzero"/></clipPath><clipPath id="e4d590664b"><path d="M 16.507812 35.570312 L 16.507812 444.429688 C 16.507812 455.199219 25.238281 463.929688 36.007812 463.929688 L 1431.992188 463.929688 C 1442.761719 463.929688 1451.492188 455.199219 1451.492188 444.429688 L 1451.492188 35.570312 C 1451.492188 24.800781 1442.761719 16.070312 1431.992188 16.070312 L 36.007812 16.070312 C 25.238281 16.070312 16.507812 24.800781 16.507812 35.570312 Z M 16.507812 35.570312 " clip-rule="nonzero"/></clipPath><clipPath id="46e4752f6e"><path d="M 37.359375 17.421875 L 1430.640625 17.421875 C 1441.410156 17.421875 1450.140625 26.152344 1450.140625 36.921875 L 1450.140625 443.078125 C 1450.140625 453.847656 1441.410156 462.578125 1430.640625 462.578125 L 37.359375 462.578125 C 26.589844 462.578125 17.859375 453.847656 17.859375 443.078125 L 17.859375 36.921875 C 17.859375 26.152344 26.589844 17.421875 37.359375 17.421875 Z M 37.359375 17.421875 " clip-rule="nonzero"/></clipPath><clipPath id="1cf6d72d6a"><path d="M 914 18 L 966 18 L 966 272 L 914 272 Z M 914 18 " clip-rule="nonzero"/></clipPath><clipPath id="8baced3966"><path d="M 16.507812 35.570312 L 16.507812 444.429688 C 16.507812 455.199219 25.238281 463.929688 36.007812 463.929688 L 1431.992188 463.929688 C 1442.761719 463.929688 1451.492188 455.199219 1451.492188 444.429688 L 1451.492188 35.570312 C 1451.492188 24.800781 1442.761719 16.070312 1431.992188 16.070312 L 36.007812 16.070312 C 25.238281 16.070312 16.507812 24.800781 16.507812 35.570312 Z M 16.507812 35.570312 " clip-rule="nonzero"/></clipPath><clipPath id="25790f7d29"><path d="M 37.359375 17.421875 L 1430.640625 17.421875 C 1441.410156 17.421875 1450.140625 26.152344 1450.140625 36.921875 L 1450.140625 443.078125 C 1450.140625 453.847656 1441.410156 462.578125 1430.640625 462.578125 L 37.359375 462.578125 C 26.589844 462.578125 17.859375 453.847656 17.859375 443.078125 L 17.859375 36.921875 C 17.859375 26.152344 26.589844 17.421875 37.359375 17.421875 Z M 37.359375 17.421875 " clip-rule="nonzero"/></clipPath><clipPath id="0bfe8a3596"><path d="M 913 17.195312 L 967 17.195312 L 967 272 L 913 272 Z M 913 17.195312 " clip-rule="nonzero"/></clipPath><clipPath id="7f6db2ca98"><path d="M 16.507812 35.570312 L 16.507812 444.429688 C 16.507812 455.199219 25.238281 463.929688 36.007812 463.929688 L 1431.992188 463.929688 C 1442.761719 463.929688 1451.492188 455.199219 1451.492188 444.429688 L 1451.492188 35.570312 C 1451.492188 24.800781 1442.761719 16.070312 1431.992188 16.070312 L 36.007812 16.070312 C 25.238281 16.070312 16.507812 24.800781 16.507812 35.570312 Z M 16.507812 35.570312 " clip-rule="nonzero"/></clipPath><clipPath id="beef7e08bc"><path d="M 37.359375 17.421875 L 1430.640625 17.421875 C 1441.410156 17.421875 1450.140625 26.152344 1450.140625 36.921875 L 1450.140625 443.078125 C 1450.140625 453.847656 1441.410156 462.578125 1430.640625 462.578125 L 37.359375 462.578125 C 26.589844 462.578125 17.859375 453.847656 17.859375 443.078125 L 17.859375 36.921875 C 17.859375 26.152344 26.589844 17.421875 37.359375 17.421875 Z M 37.359375 17.421875 " clip-rule="nonzero"/></clipPath><clipPath id="9fcd138c4e"><path d="M 1118 17.195312 L 1170 17.195312 L 1170 271 L 1118 271 Z M 1118 17.195312 " clip-rule="nonzero"/></clipPath><clipPath id="2eb7614307"><path d="M 16.507812 35.570312 L 16.507812 444.429688 C 16.507812 455.199219 25.238281 463.929688 36.007812 463.929688 L 1431.992188 463.929688 C 1442.761719 463.929688 1451.492188 455.199219 1451.492188 444.429688 L 1451.492188 35.570312 C 1451.492188 24.800781 1442.761719 16.070312 1431.992188 16.070312 L 36.007812 16.070312 C 25.238281 16.070312 16.507812 24.800781 16.507812 35.570312 Z M 16.507812 35.570312 " clip-rule="nonzero"/></clipPath><clipPath id="ff8ba23834"><path d="M 37.359375 17.421875 L 1430.640625 17.421875 C 1441.410156 17.421875 1450.140625 26.152344 1450.140625 36.921875 L 1450.140625 443.078125 C 1450.140625 453.847656 1441.410156 462.578125 1430.640625 462.578125 L 37.359375 462.578125 C 26.589844 462.578125 17.859375 453.847656 17.859375 443.078125 L 17.859375 36.921875 C 17.859375 26.152344 26.589844 17.421875 37.359375 17.421875 Z M 37.359375 17.421875 " clip-rule="nonzero"/></clipPath><clipPath id="1083936a9c"><path d="M 1117 17.195312 L 1171 17.195312 L 1171 272 L 1117 272 Z M 1117 17.195312 " clip-rule="nonzero"/></clipPath><clipPath id="e027e033a9"><path d="M 16.507812 35.570312 L 16.507812 444.429688 C 16.507812 455.199219 25.238281 463.929688 36.007812 463.929688 L 1431.992188 463.929688 C 1442.761719 463.929688 1451.492188 455.199219 1451.492188 444.429688 L 1451.492188 35.570312 C 1451.492188 24.800781 1442.761719 16.070312 1431.992188 16.070312 L 36.007812 16.070312 C 25.238281 16.070312 16.507812 24.800781 16.507812 35.570312 Z M 16.507812 35.570312 " clip-rule="nonzero"/></clipPath><clipPath id="fc0948ef5b"><path d="M 37.359375 17.421875 L 1430.640625 17.421875 C 1441.410156 17.421875 1450.140625 26.152344 1450.140625 36.921875 L 1450.140625 443.078125 C 1450.140625 453.847656 1441.410156 462.578125 1430.640625 462.578125 L 37.359375 462.578125 C 26.589844 462.578125 17.859375 453.847656 17.859375 443.078125 L 17.859375 36.921875 C 17.859375 26.152344 26.589844 17.421875 37.359375 17.421875 Z M 37.359375 17.421875 " clip-rule="nonzero"/></clipPath><clipPath id="096f24ac01"><path d="M 1219 18 L 1271 18 L 1271 272 L 1219 272 Z M 1219 18 " clip-rule="nonzero"/></clipPath><clipPath id="4d605315aa"><path d="M 16.507812 35.570312 L 16.507812 444.429688 C 16.507812 455.199219 25.238281 463.929688 36.007812 463.929688 L 1431.992188 463.929688 C 1442.761719 463.929688 1451.492188 455.199219 1451.492188 444.429688 L 1451.492188 35.570312 C 1451.492188 24.800781 1442.761719 16.070312 1431.992188 16.070312 L 36.007812 16.070312 C 25.238281 16.070312 16.507812 24.800781 16.507812 35.570312 Z M 16.507812 35.570312 " clip-rule="nonzero"/></clipPath><clipPath id="e01a1ade23"><path d="M 37.359375 17.421875 L 1430.640625 17.421875 C 1441.410156 17.421875 1450.140625 26.152344 1450.140625 36.921875 L 1450.140625 443.078125 C 1450.140625 453.847656 1441.410156 462.578125 1430.640625 462.578125 L 37.359375 462.578125 C 26.589844 462.578125 17.859375 453.847656 17.859375 443.078125 L 17.859375 36.921875 C 17.859375 26.152344 26.589844 17.421875 37.359375 17.421875 Z M 37.359375 17.421875 " clip-rule="nonzero"/></clipPath><clipPath id="436911646f"><path d="M 1218 18 L 1272 18 L 1272 273 L 1218 273 Z M 1218 18 " clip-rule="nonzero"/></clipPath><clipPath id="2af0030d8b"><path d="M 16.507812 35.570312 L 16.507812 444.429688 C 16.507812 455.199219 25.238281 463.929688 36.007812 463.929688 L 1431.992188 463.929688 C 1442.761719 463.929688 1451.492188 455.199219 1451.492188 444.429688 L 1451.492188 35.570312 C 1451.492188 24.800781 1442.761719 16.070312 1431.992188 16.070312 L 36.007812 16.070312 C 25.238281 16.070312 16.507812 24.800781 16.507812 35.570312 Z M 16.507812 35.570312 " clip-rule="nonzero"/></clipPath><clipPath id="12a523ce3a"><path d="M 37.359375 17.421875 L 1430.640625 17.421875 C 1441.410156 17.421875 1450.140625 26.152344 1450.140625 36.921875 L 1450.140625 443.078125 C 1450.140625 453.847656 1441.410156 462.578125 1430.640625 462.578125 L 37.359375 462.578125 C 26.589844 462.578125 17.859375 453.847656 17.859375 443.078125 L 17.859375 36.921875 C 17.859375 26.152344 26.589844 17.421875 37.359375 17.421875 Z M 37.359375 17.421875 " clip-rule="nonzero"/></clipPath><clipPath id="826f6f53f2"><path d="M 1322 18 L 1374 18 L 1374 272 L 1322 272 Z M 1322 18 " clip-rule="nonzero"/></clipPath><clipPath id="2a7f9af501"><path d="M 16.507812 35.570312 L 16.507812 444.429688 C 16.507812 455.199219 25.238281 463.929688 36.007812 463.929688 L 1431.992188 463.929688 C 1442.761719 463.929688 1451.492188 455.199219 1451.492188 444.429688 L 1451.492188 35.570312 C 1451.492188 24.800781 1442.761719 16.070312 1431.992188 16.070312 L 36.007812 16.070312 C 25.238281 16.070312 16.507812 24.800781 16.507812 35.570312 Z M 16.507812 35.570312 " clip-rule="nonzero"/></clipPath><clipPath id="c20f653c07"><path d="M 37.359375 17.421875 L 1430.640625 17.421875 C 1441.410156 17.421875 1450.140625 26.152344 1450.140625 36.921875 L 1450.140625 443.078125 C 1450.140625 453.847656 1441.410156 462.578125 1430.640625 462.578125 L 37.359375 462.578125 C 26.589844 462.578125 17.859375 453.847656 17.859375 443.078125 L 17.859375 36.921875 C 17.859375 26.152344 26.589844 17.421875 37.359375 17.421875 Z M 37.359375 17.421875 " clip-rule="nonzero"/></clipPath><clipPath id="e112796584"><path d="M 1321 17.195312 L 1375 17.195312 L 1375 272 L 1321 272 Z M 1321 17.195312 " clip-rule="nonzero"/></clipPath><clipPath id="34a6fd5654"><path d="M 16.507812 35.570312 L 16.507812 444.429688 C 16.507812 455.199219 25.238281 463.929688 36.007812 463.929688 L 1431.992188 463.929688 C 1442.761719 463.929688 1451.492188 455.199219 1451.492188 444.429688 L 1451.492188 35.570312 C 1451.492188 24.800781 1442.761719 16.070312 1431.992188 16.070312 L 36.007812 16.070312 C 25.238281 16.070312 16.507812 24.800781 16.507812 35.570312 Z M 16.507812 35.570312 " clip-rule="nonzero"/></clipPath><clipPath id="f2f7993f53"><path d="M 37.359375 17.421875 L 1430.640625 17.421875 C 1441.410156 17.421875 1450.140625 26.152344 1450.140625 36.921875 L 1450.140625 443.078125 C 1450.140625 453.847656 1441.410156 462.578125 1430.640625 462.578125 L 37.359375 462.578125 C 26.589844 462.578125 17.859375 453.847656 17.859375 443.078125 L 17.859375 36.921875 C 17.859375 26.152344 26.589844 17.421875 37.359375 17.421875 Z M 37.359375 17.421875 " clip-rule="nonzero"/></clipPath><clipPath id="ff6e240523"><path d="M 734 17.195312 L 1450.5 17.195312 L 1450.5 462 L 734 462 Z M 734 17.195312 " clip-rule="nonzero"/></clipPath><clipPath id="85700c0b3b"><path d="M 16.507812 35.570312 L 16.507812 444.429688 C 16.507812 455.199219 25.238281 463.929688 36.007812 463.929688 L 1431.992188 463.929688 C 1442.761719 463.929688 1451.492188 455.199219 1451.492188 444.429688 L 1451.492188 35.570312 C 1451.492188 24.800781 1442.761719 16.070312 1431.992188 16.070312 L 36.007812 16.070312 C 25.238281 16.070312 16.507812 24.800781 16.507812 35.570312 Z M 16.507812 35.570312 " clip-rule="nonzero"/></clipPath><clipPath id="9dcee3ef60"><path d="M 37.359375 17.421875 L 1430.640625 17.421875 C 1441.410156 17.421875 1450.140625 26.152344 1450.140625 36.921875 L 1450.140625 443.078125 C 1450.140625 453.847656 1441.410156 462.578125 1430.640625 462.578125 L 37.359375 462.578125 C 26.589844 462.578125 17.859375 453.847656 17.859375 443.078125 L 17.859375 36.921875 C 17.859375 26.152344 26.589844 17.421875 37.359375 17.421875 Z M 37.359375 17.421875 " clip-rule="nonzero"/></clipPath><clipPath id="c56ebb3ec1"><path d="M 834 258 L 840 258 L 840 463 L 834 463 Z M 834 258 " clip-rule="nonzero"/></clipPath><clipPath id="470a9a7b2e"><path d="M 16.507812 35.570312 L 16.507812 444.429688 C 16.507812 455.199219 25.238281 463.929688 36.007812 463.929688 L 1431.992188 463.929688 C 1442.761719 463.929688 1451.492188 455.199219 1451.492188 444.429688 L 1451.492188 35.570312 C 1451.492188 24.800781 1442.761719 16.070312 1431.992188 16.070312 L 36.007812 16.070312 C 25.238281 16.070312 16.507812 24.800781 16.507812 35.570312 Z M 16.507812 35.570312 " clip-rule="nonzero"/></clipPath><clipPath id="9e746f4ea8"><path d="M 37.359375 17.421875 L 1430.640625 17.421875 C 1441.410156 17.421875 1450.140625 26.152344 1450.140625 36.921875 L 1450.140625 443.078125 C 1450.140625 453.847656 1441.410156 462.578125 1430.640625 462.578125 L 37.359375 462.578125 C 26.589844 462.578125 17.859375 453.847656 17.859375 443.078125 L 17.859375 36.921875 C 17.859375 26.152344 26.589844 17.421875 37.359375 17.421875 Z M 37.359375 17.421875 " clip-rule="nonzero"/></clipPath><clipPath id="1be8f66b82"><path d="M 937 257 L 943 257 L 943 463 L 937 463 Z M 937 257 " clip-rule="nonzero"/></clipPath><clipPath id="2e38d1f55d"><path d="M 16.507812 35.570312 L 16.507812 444.429688 C 16.507812 455.199219 25.238281 463.929688 36.007812 463.929688 L 1431.992188 463.929688 C 1442.761719 463.929688 1451.492188 455.199219 1451.492188 444.429688 L 1451.492188 35.570312 C 1451.492188 24.800781 1442.761719 16.070312 1431.992188 16.070312 L 36.007812 16.070312 C 25.238281 16.070312 16.507812 24.800781 16.507812 35.570312 Z M 16.507812 35.570312 " clip-rule="nonzero"/></clipPath><clipPath id="c32d7f71fb"><path d="M 37.359375 17.421875 L 1430.640625 17.421875 C 1441.410156 17.421875 1450.140625 26.152344 1450.140625 36.921875 L 1450.140625 443.078125 C 1450.140625 453.847656 1441.410156 462.578125 1430.640625 462.578125 L 37.359375 462.578125 C 26.589844 462.578125 17.859375 453.847656 17.859375 443.078125 L 17.859375 36.921875 C 17.859375 26.152344 26.589844 17.421875 37.359375 17.421875 Z M 37.359375 17.421875 " clip-rule="nonzero"/></clipPath><clipPath id="3f85237190"><path d="M 1141 258 L 1147 258 L 1147 463 L 1141 463 Z M 1141 258 " clip-rule="nonzero"/></clipPath><clipPath id="865969f41b"><path d="M 16.507812 35.570312 L 16.507812 444.429688 C 16.507812 455.199219 25.238281 463.929688 36.007812 463.929688 L 1431.992188 463.929688 C 1442.761719 463.929688 1451.492188 455.199219 1451.492188 444.429688 L 1451.492188 35.570312 C 1451.492188 24.800781 1442.761719 16.070312 1431.992188 16.070312 L 36.007812 16.070312 C 25.238281 16.070312 16.507812 24.800781 16.507812 35.570312 Z M 16.507812 35.570312 " clip-rule="nonzero"/></clipPath><clipPath id="92056245fb"><path d="M 37.359375 17.421875 L 1430.640625 17.421875 C 1441.410156 17.421875 1450.140625 26.152344 1450.140625 36.921875 L 1450.140625 443.078125 C 1450.140625 453.847656 1441.410156 462.578125 1430.640625 462.578125 L 37.359375 462.578125 C 26.589844 462.578125 17.859375 453.847656 17.859375 443.078125 L 17.859375 36.921875 C 17.859375 26.152344 26.589844 17.421875 37.359375 17.421875 Z M 37.359375 17.421875 " clip-rule="nonzero"/></clipPath><clipPath id="1be61bf0f7"><path d="M 1242 258 L 1248 258 L 1248 463 L 1242 463 Z M 1242 258 " clip-rule="nonzero"/></clipPath><clipPath id="71ca5a52d5"><path d="M 16.507812 35.570312 L 16.507812 444.429688 C 16.507812 455.199219 25.238281 463.929688 36.007812 463.929688 L 1431.992188 463.929688 C 1442.761719 463.929688 1451.492188 455.199219 1451.492188 444.429688 L 1451.492188 35.570312 C 1451.492188 24.800781 1442.761719 16.070312 1431.992188 16.070312 L 36.007812 16.070312 C 25.238281 16.070312 16.507812 24.800781 16.507812 35.570312 Z M 16.507812 35.570312 " clip-rule="nonzero"/></clipPath><clipPath id="42a279390d"><path d="M 37.359375 17.421875 L 1430.640625 17.421875 C 1441.410156 17.421875 1450.140625 26.152344 1450.140625 36.921875 L 1450.140625 443.078125 C 1450.140625 453.847656 1441.410156 462.578125 1430.640625 462.578125 L 37.359375 462.578125 C 26.589844 462.578125 17.859375 453.847656 17.859375 443.078125 L 17.859375 36.921875 C 17.859375 26.152344 26.589844 17.421875 37.359375 17.421875 Z M 37.359375 17.421875 " clip-rule="nonzero"/></clipPath><clipPath id="29e4c77519"><path d="M 1346 258 L 1352 258 L 1352 463 L 1346 463 Z M 1346 258 " clip-rule="nonzero"/></clipPath><clipPath id="7fd32ff7e9"><path d="M 16.507812 35.570312 L 16.507812 444.429688 C 16.507812 455.199219 25.238281 463.929688 36.007812 463.929688 L 1431.992188 463.929688 C 1442.761719 463.929688 1451.492188 455.199219 1451.492188 444.429688 L 1451.492188 35.570312 C 1451.492188 24.800781 1442.761719 16.070312 1431.992188 16.070312 L 36.007812 16.070312 C 25.238281 16.070312 16.507812 24.800781 16.507812 35.570312 Z M 16.507812 35.570312 " clip-rule="nonzero"/></clipPath><clipPath id="d8db543ff7"><path d="M 37.359375 17.421875 L 1430.640625 17.421875 C 1441.410156 17.421875 1450.140625 26.152344 1450.140625 36.921875 L 1450.140625 443.078125 C 1450.140625 453.847656 1441.410156 462.578125 1430.640625 462.578125 L 37.359375 462.578125 C 26.589844 462.578125 17.859375 453.847656 17.859375 443.078125 L 17.859375 36.921875 C 17.859375 26.152344 26.589844 17.421875 37.359375 17.421875 Z M 37.359375 17.421875 " clip-rule="nonzero"/></clipPath><clipPath id="2027f3f9e5"><path d="M 1039 17.195312 L 1045 17.195312 L 1045 463 L 1039 463 Z M 1039 17.195312 " clip-rule="nonzero"/></clipPath><clipPath id="9e94fefea7"><path d="M 16.507812 35.570312 L 16.507812 444.429688 C 16.507812 455.199219 25.238281 463.929688 36.007812 463.929688 L 1431.992188 463.929688 C 1442.761719 463.929688 1451.492188 455.199219 1451.492188 444.429688 L 1451.492188 35.570312 C 1451.492188 24.800781 1442.761719 16.070312 1431.992188 16.070312 L 36.007812 16.070312 C 25.238281 16.070312 16.507812 24.800781 16.507812 35.570312 Z M 16.507812 35.570312 " clip-rule="nonzero"/></clipPath><clipPath id="8ce88a14bf"><path d="M 37.359375 17.421875 L 1430.640625 17.421875 C 1441.410156 17.421875 1450.140625 26.152344 1450.140625 36.921875 L 1450.140625 443.078125 C 1450.140625 453.847656 1441.410156 462.578125 1430.640625 462.578125 L 37.359375 462.578125 C 26.589844 462.578125 17.859375 453.847656 17.859375 443.078125 L 17.859375 36.921875 C 17.859375 26.152344 26.589844 17.421875 37.359375 17.421875 Z M 37.359375 17.421875 " clip-rule="nonzero"/></clipPath><clipPath id="6fa04b2612"><path d="M 202 26 L 246 26 L 246 263 L 202 263 Z M 202 26 " clip-rule="nonzero"/></clipPath><clipPath id="d01a87094c"><path d="M 16.507812 35.570312 L 16.507812 444.429688 C 16.507812 455.199219 25.238281 463.929688 36.007812 463.929688 L 1431.992188 463.929688 C 1442.761719 463.929688 1451.492188 455.199219 1451.492188 444.429688 L 1451.492188 35.570312 C 1451.492188 24.800781 1442.761719 16.070312 1431.992188 16.070312 L 36.007812 16.070312 C 25.238281 16.070312 16.507812 24.800781 16.507812 35.570312 Z M 16.507812 35.570312 " clip-rule="nonzero"/></clipPath><clipPath id="97889ed4f5"><path d="M 37.359375 17.421875 L 1430.640625 17.421875 C 1441.410156 17.421875 1450.140625 26.152344 1450.140625 36.921875 L 1450.140625 443.078125 C 1450.140625 453.847656 1441.410156 462.578125 1430.640625 462.578125 L 37.359375 462.578125 C 26.589844 462.578125 17.859375 453.847656 17.859375 443.078125 L 17.859375 36.921875 C 17.859375 26.152344 26.589844 17.421875 37.359375 17.421875 Z M 37.359375 17.421875 " clip-rule="nonzero"/></clipPath><clipPath id="622cd84a21"><path d="M 197 20 L 252 20 L 252 268 L 197 268 Z M 197 20 " clip-rule="nonzero"/></clipPath><clipPath id="c74cb91d2d"><path d="M 16.507812 35.570312 L 16.507812 444.429688 C 16.507812 455.199219 25.238281 463.929688 36.007812 463.929688 L 1431.992188 463.929688 C 1442.761719 463.929688 1451.492188 455.199219 1451.492188 444.429688 L 1451.492188 35.570312 C 1451.492188 24.800781 1442.761719 16.070312 1431.992188 16.070312 L 36.007812 16.070312 C 25.238281 16.070312 16.507812 24.800781 16.507812 35.570312 Z M 16.507812 35.570312 " clip-rule="nonzero"/></clipPath><clipPath id="ae029b69b9"><path d="M 37.359375 17.421875 L 1430.640625 17.421875 C 1441.410156 17.421875 1450.140625 26.152344 1450.140625 36.921875 L 1450.140625 443.078125 C 1450.140625 453.847656 1441.410156 462.578125 1430.640625 462.578125 L 37.359375 462.578125 C 26.589844 462.578125 17.859375 453.847656 17.859375 443.078125 L 17.859375 36.921875 C 17.859375 26.152344 26.589844 17.421875 37.359375 17.421875 Z M 37.359375 17.421875 " clip-rule="nonzero"/></clipPath><clipPath id="625d132945"><path d="M 406 26 L 450 26 L 450 263 L 406 263 Z M 406 26 " clip-rule="nonzero"/></clipPath><clipPath id="08d7e5535f"><path d="M 16.507812 35.570312 L 16.507812 444.429688 C 16.507812 455.199219 25.238281 463.929688 36.007812 463.929688 L 1431.992188 463.929688 C 1442.761719 463.929688 1451.492188 455.199219 1451.492188 444.429688 L 1451.492188 35.570312 C 1451.492188 24.800781 1442.761719 16.070312 1431.992188 16.070312 L 36.007812 16.070312 C 25.238281 16.070312 16.507812 24.800781 16.507812 35.570312 Z M 16.507812 35.570312 " clip-rule="nonzero"/></clipPath><clipPath id="85dd9a29a0"><path d="M 37.359375 17.421875 L 1430.640625 17.421875 C 1441.410156 17.421875 1450.140625 26.152344 1450.140625 36.921875 L 1450.140625 443.078125 C 1450.140625 453.847656 1441.410156 462.578125 1430.640625 462.578125 L 37.359375 462.578125 C 26.589844 462.578125 17.859375 453.847656 17.859375 443.078125 L 17.859375 36.921875 C 17.859375 26.152344 26.589844 17.421875 37.359375 17.421875 Z M 37.359375 17.421875 " clip-rule="nonzero"/></clipPath><clipPath id="45b14220bf"><path d="M 401 20 L 456 20 L 456 268 L 401 268 Z M 401 20 " clip-rule="nonzero"/></clipPath><clipPath id="ab15f97617"><path d="M 16.507812 35.570312 L 16.507812 444.429688 C 16.507812 455.199219 25.238281 463.929688 36.007812 463.929688 L 1431.992188 463.929688 C 1442.761719 463.929688 1451.492188 455.199219 1451.492188 444.429688 L 1451.492188 35.570312 C 1451.492188 24.800781 1442.761719 16.070312 1431.992188 16.070312 L 36.007812 16.070312 C 25.238281 16.070312 16.507812 24.800781 16.507812 35.570312 Z M 16.507812 35.570312 " clip-rule="nonzero"/></clipPath><clipPath id="ea8d76e2df"><path d="M 37.359375 17.421875 L 1430.640625 17.421875 C 1441.410156 17.421875 1450.140625 26.152344 1450.140625 36.921875 L 1450.140625 443.078125 C 1450.140625 453.847656 1441.410156 462.578125 1430.640625 462.578125 L 37.359375 462.578125 C 26.589844 462.578125 17.859375 453.847656 17.859375 443.078125 L 17.859375 36.921875 C 17.859375 26.152344 26.589844 17.421875 37.359375 17.421875 Z M 37.359375 17.421875 " clip-rule="nonzero"/></clipPath><clipPath id="894e7ddbf1"><path d="M 507 28 L 550 28 L 550 265 L 507 265 Z M 507 28 " clip-rule="nonzero"/></clipPath><clipPath id="41804efc65"><path d="M 16.507812 35.570312 L 16.507812 444.429688 C 16.507812 455.199219 25.238281 463.929688 36.007812 463.929688 L 1431.992188 463.929688 C 1442.761719 463.929688 1451.492188 455.199219 1451.492188 444.429688 L 1451.492188 35.570312 C 1451.492188 24.800781 1442.761719 16.070312 1431.992188 16.070312 L 36.007812 16.070312 C 25.238281 16.070312 16.507812 24.800781 16.507812 35.570312 Z M 16.507812 35.570312 " clip-rule="nonzero"/></clipPath><clipPath id="d9bd29c761"><path d="M 37.359375 17.421875 L 1430.640625 17.421875 C 1441.410156 17.421875 1450.140625 26.152344 1450.140625 36.921875 L 1450.140625 443.078125 C 1450.140625 453.847656 1441.410156 462.578125 1430.640625 462.578125 L 37.359375 462.578125 C 26.589844 462.578125 17.859375 453.847656 17.859375 443.078125 L 17.859375 36.921875 C 17.859375 26.152344 26.589844 17.421875 37.359375 17.421875 Z M 37.359375 17.421875 " clip-rule="nonzero"/></clipPath><clipPath id="5de09e2043"><path d="M 501 22 L 556 22 L 556 270 L 501 270 Z M 501 22 " clip-rule="nonzero"/></clipPath><clipPath id="9c4006658e"><path d="M 16.507812 35.570312 L 16.507812 444.429688 C 16.507812 455.199219 25.238281 463.929688 36.007812 463.929688 L 1431.992188 463.929688 C 1442.761719 463.929688 1451.492188 455.199219 1451.492188 444.429688 L 1451.492188 35.570312 C 1451.492188 24.800781 1442.761719 16.070312 1431.992188 16.070312 L 36.007812 16.070312 C 25.238281 16.070312 16.507812 24.800781 16.507812 35.570312 Z M 16.507812 35.570312 " clip-rule="nonzero"/></clipPath><clipPath id="bd22201fba"><path d="M 37.359375 17.421875 L 1430.640625 17.421875 C 1441.410156 17.421875 1450.140625 26.152344 1450.140625 36.921875 L 1450.140625 443.078125 C 1450.140625 453.847656 1441.410156 462.578125 1430.640625 462.578125 L 37.359375 462.578125 C 26.589844 462.578125 17.859375 453.847656 17.859375 443.078125 L 17.859375 36.921875 C 17.859375 26.152344 26.589844 17.421875 37.359375 17.421875 Z M 37.359375 17.421875 " clip-rule="nonzero"/></clipPath><clipPath id="3b296937a8"><path d="M 611 28 L 654 28 L 654 265 L 611 265 Z M 611 28 " clip-rule="nonzero"/></clipPath><clipPath id="9ba4d77568"><path d="M 16.507812 35.570312 L 16.507812 444.429688 C 16.507812 455.199219 25.238281 463.929688 36.007812 463.929688 L 1431.992188 463.929688 C 1442.761719 463.929688 1451.492188 455.199219 1451.492188 444.429688 L 1451.492188 35.570312 C 1451.492188 24.800781 1442.761719 16.070312 1431.992188 16.070312 L 36.007812 16.070312 C 25.238281 16.070312 16.507812 24.800781 16.507812 35.570312 Z M 16.507812 35.570312 " clip-rule="nonzero"/></clipPath><clipPath id="c4b84105da"><path d="M 37.359375 17.421875 L 1430.640625 17.421875 C 1441.410156 17.421875 1450.140625 26.152344 1450.140625 36.921875 L 1450.140625 443.078125 C 1450.140625 453.847656 1441.410156 462.578125 1430.640625 462.578125 L 37.359375 462.578125 C 26.589844 462.578125 17.859375 453.847656 17.859375 443.078125 L 17.859375 36.921875 C 17.859375 26.152344 26.589844 17.421875 37.359375 17.421875 Z M 37.359375 17.421875 " clip-rule="nonzero"/></clipPath><clipPath id="91053adcd1"><path d="M 605 22 L 660 22 L 660 270 L 605 270 Z M 605 22 " clip-rule="nonzero"/></clipPath><clipPath id="173b8a6618"><path d="M 16.507812 35.570312 L 16.507812 444.429688 C 16.507812 455.199219 25.238281 463.929688 36.007812 463.929688 L 1431.992188 463.929688 C 1442.761719 463.929688 1451.492188 455.199219 1451.492188 444.429688 L 1451.492188 35.570312 C 1451.492188 24.800781 1442.761719 16.070312 1431.992188 16.070312 L 36.007812 16.070312 C 25.238281 16.070312 16.507812 24.800781 16.507812 35.570312 Z M 16.507812 35.570312 " clip-rule="nonzero"/></clipPath><clipPath id="69d66dde4f"><path d="M 37.359375 17.421875 L 1430.640625 17.421875 C 1441.410156 17.421875 1450.140625 26.152344 1450.140625 36.921875 L 1450.140625 443.078125 C 1450.140625 453.847656 1441.410156 462.578125 1430.640625 462.578125 L 37.359375 462.578125 C 26.589844 462.578125 17.859375 453.847656 17.859375 443.078125 L 17.859375 36.921875 C 17.859375 26.152344 26.589844 17.421875 37.359375 17.421875 Z M 37.359375 17.421875 " clip-rule="nonzero"/></clipPath><clipPath id="a21ad62ef9"><path d="M 817 24 L 860 24 L 860 261 L 817 261 Z M 817 24 " clip-rule="nonzero"/></clipPath><clipPath id="98d4938de9"><path d="M 16.507812 35.570312 L 16.507812 444.429688 C 16.507812 455.199219 25.238281 463.929688 36.007812 463.929688 L 1431.992188 463.929688 C 1442.761719 463.929688 1451.492188 455.199219 1451.492188 444.429688 L 1451.492188 35.570312 C 1451.492188 24.800781 1442.761719 16.070312 1431.992188 16.070312 L 36.007812 16.070312 C 25.238281 16.070312 16.507812 24.800781 16.507812 35.570312 Z M 16.507812 35.570312 " clip-rule="nonzero"/></clipPath><clipPath id="10d6851b80"><path d="M 37.359375 17.421875 L 1430.640625 17.421875 C 1441.410156 17.421875 1450.140625 26.152344 1450.140625 36.921875 L 1450.140625 443.078125 C 1450.140625 453.847656 1441.410156 462.578125 1430.640625 462.578125 L 37.359375 462.578125 C 26.589844 462.578125 17.859375 453.847656 17.859375 443.078125 L 17.859375 36.921875 C 17.859375 26.152344 26.589844 17.421875 37.359375 17.421875 Z M 37.359375 17.421875 " clip-rule="nonzero"/></clipPath><clipPath id="be293dcb2e"><path d="M 811 19 L 866 19 L 866 267 L 811 267 Z M 811 19 " clip-rule="nonzero"/></clipPath><clipPath id="fd040925a5"><path d="M 16.507812 35.570312 L 16.507812 444.429688 C 16.507812 455.199219 25.238281 463.929688 36.007812 463.929688 L 1431.992188 463.929688 C 1442.761719 463.929688 1451.492188 455.199219 1451.492188 444.429688 L 1451.492188 35.570312 C 1451.492188 24.800781 1442.761719 16.070312 1431.992188 16.070312 L 36.007812 16.070312 C 25.238281 16.070312 16.507812 24.800781 16.507812 35.570312 Z M 16.507812 35.570312 " clip-rule="nonzero"/></clipPath><clipPath id="e492ee2ec3"><path d="M 37.359375 17.421875 L 1430.640625 17.421875 C 1441.410156 17.421875 1450.140625 26.152344 1450.140625 36.921875 L 1450.140625 443.078125 C 1450.140625 453.847656 1441.410156 462.578125 1430.640625 462.578125 L 37.359375 462.578125 C 26.589844 462.578125 17.859375 453.847656 17.859375 443.078125 L 17.859375 36.921875 C 17.859375 26.152344 26.589844 17.421875 37.359375 17.421875 Z M 37.359375 17.421875 " clip-rule="nonzero"/></clipPath><clipPath id="f7e9432705"><path d="M 921 24 L 964 24 L 964 261 L 921 261 Z M 921 24 " clip-rule="nonzero"/></clipPath><clipPath id="108a1e9ddd"><path d="M 16.507812 35.570312 L 16.507812 444.429688 C 16.507812 455.199219 25.238281 463.929688 36.007812 463.929688 L 1431.992188 463.929688 C 1442.761719 463.929688 1451.492188 455.199219 1451.492188 444.429688 L 1451.492188 35.570312 C 1451.492188 24.800781 1442.761719 16.070312 1431.992188 16.070312 L 36.007812 16.070312 C 25.238281 16.070312 16.507812 24.800781 16.507812 35.570312 Z M 16.507812 35.570312 " clip-rule="nonzero"/></clipPath><clipPath id="882fc4ea8e"><path d="M 37.359375 17.421875 L 1430.640625 17.421875 C 1441.410156 17.421875 1450.140625 26.152344 1450.140625 36.921875 L 1450.140625 443.078125 C 1450.140625 453.847656 1441.410156 462.578125 1430.640625 462.578125 L 37.359375 462.578125 C 26.589844 462.578125 17.859375 453.847656 17.859375 443.078125 L 17.859375 36.921875 C 17.859375 26.152344 26.589844 17.421875 37.359375 17.421875 Z M 37.359375 17.421875 " clip-rule="nonzero"/></clipPath><clipPath id="793f9cbad9"><path d="M 915 19 L 970 19 L 970 267 L 915 267 Z M 915 19 " clip-rule="nonzero"/></clipPath><clipPath id="bc74657dea"><path d="M 16.507812 35.570312 L 16.507812 444.429688 C 16.507812 455.199219 25.238281 463.929688 36.007812 463.929688 L 1431.992188 463.929688 C 1442.761719 463.929688 1451.492188 455.199219 1451.492188 444.429688 L 1451.492188 35.570312 C 1451.492188 24.800781 1442.761719 16.070312 1431.992188 16.070312 L 36.007812 16.070312 C 25.238281 16.070312 16.507812 24.800781 16.507812 35.570312 Z M 16.507812 35.570312 " clip-rule="nonzero"/></clipPath><clipPath id="1280353db4"><path d="M 37.359375 17.421875 L 1430.640625 17.421875 C 1441.410156 17.421875 1450.140625 26.152344 1450.140625 36.921875 L 1450.140625 443.078125 C 1450.140625 453.847656 1441.410156 462.578125 1430.640625 462.578125 L 37.359375 462.578125 C 26.589844 462.578125 17.859375 453.847656 17.859375 443.078125 L 17.859375 36.921875 C 17.859375 26.152344 26.589844 17.421875 37.359375 17.421875 Z M 37.359375 17.421875 " clip-rule="nonzero"/></clipPath><clipPath id="55c28b57a7"><path d="M 1125 30 L 1168 30 L 1168 266 L 1125 266 Z M 1125 30 " clip-rule="nonzero"/></clipPath><clipPath id="a5cd5c6ac3"><path d="M 16.507812 35.570312 L 16.507812 444.429688 C 16.507812 455.199219 25.238281 463.929688 36.007812 463.929688 L 1431.992188 463.929688 C 1442.761719 463.929688 1451.492188 455.199219 1451.492188 444.429688 L 1451.492188 35.570312 C 1451.492188 24.800781 1442.761719 16.070312 1431.992188 16.070312 L 36.007812 16.070312 C 25.238281 16.070312 16.507812 24.800781 16.507812 35.570312 Z M 16.507812 35.570312 " clip-rule="nonzero"/></clipPath><clipPath id="b0ac72d30e"><path d="M 37.359375 17.421875 L 1430.640625 17.421875 C 1441.410156 17.421875 1450.140625 26.152344 1450.140625 36.921875 L 1450.140625 443.078125 C 1450.140625 453.847656 1441.410156 462.578125 1430.640625 462.578125 L 37.359375 462.578125 C 26.589844 462.578125 17.859375 453.847656 17.859375 443.078125 L 17.859375 36.921875 C 17.859375 26.152344 26.589844 17.421875 37.359375 17.421875 Z M 37.359375 17.421875 " clip-rule="nonzero"/></clipPath><clipPath id="e797db5856"><path d="M 1119 24 L 1174 24 L 1174 272 L 1119 272 Z M 1119 24 " clip-rule="nonzero"/></clipPath><clipPath id="d5a2d9af24"><path d="M 16.507812 35.570312 L 16.507812 444.429688 C 16.507812 455.199219 25.238281 463.929688 36.007812 463.929688 L 1431.992188 463.929688 C 1442.761719 463.929688 1451.492188 455.199219 1451.492188 444.429688 L 1451.492188 35.570312 C 1451.492188 24.800781 1442.761719 16.070312 1431.992188 16.070312 L 36.007812 16.070312 C 25.238281 16.070312 16.507812 24.800781 16.507812 35.570312 Z M 16.507812 35.570312 " clip-rule="nonzero"/></clipPath><clipPath id="9346090f70"><path d="M 37.359375 17.421875 L 1430.640625 17.421875 C 1441.410156 17.421875 1450.140625 26.152344 1450.140625 36.921875 L 1450.140625 443.078125 C 1450.140625 453.847656 1441.410156 462.578125 1430.640625 462.578125 L 37.359375 462.578125 C 26.589844 462.578125 17.859375 453.847656 17.859375 443.078125 L 17.859375 36.921875 C 17.859375 26.152344 26.589844 17.421875 37.359375 17.421875 Z M 37.359375 17.421875 " clip-rule="nonzero"/></clipPath><clipPath id="c2874af669"><path d="M 1225 32 L 1269 32 L 1269 268 L 1225 268 Z M 1225 32 " clip-rule="nonzero"/></clipPath><clipPath id="2c26c9533e"><path d="M 16.507812 35.570312 L 16.507812 444.429688 C 16.507812 455.199219 25.238281 463.929688 36.007812 463.929688 L 1431.992188 463.929688 C 1442.761719 463.929688 1451.492188 455.199219 1451.492188 444.429688 L 1451.492188 35.570312 C 1451.492188 24.800781 1442.761719 16.070312 1431.992188 16.070312 L 36.007812 16.070312 C 25.238281 16.070312 16.507812 24.800781 16.507812 35.570312 Z M 16.507812 35.570312 " clip-rule="nonzero"/></clipPath><clipPath id="51db41617e"><path d="M 37.359375 17.421875 L 1430.640625 17.421875 C 1441.410156 17.421875 1450.140625 26.152344 1450.140625 36.921875 L 1450.140625 443.078125 C 1450.140625 453.847656 1441.410156 462.578125 1430.640625 462.578125 L 37.359375 462.578125 C 26.589844 462.578125 17.859375 453.847656 17.859375 443.078125 L 17.859375 36.921875 C 17.859375 26.152344 26.589844 17.421875 37.359375 17.421875 Z M 37.359375 17.421875 " clip-rule="nonzero"/></clipPath><clipPath id="86ad1f128c"><path d="M 1219 26 L 1274 26 L 1274 274 L 1219 274 Z M 1219 26 " clip-rule="nonzero"/></clipPath><clipPath id="fb68f60509"><path d="M 16.507812 35.570312 L 16.507812 444.429688 C 16.507812 455.199219 25.238281 463.929688 36.007812 463.929688 L 1431.992188 463.929688 C 1442.761719 463.929688 1451.492188 455.199219 1451.492188 444.429688 L 1451.492188 35.570312 C 1451.492188 24.800781 1442.761719 16.070312 1431.992188 16.070312 L 36.007812 16.070312 C 25.238281 16.070312 16.507812 24.800781 16.507812 35.570312 Z M 16.507812 35.570312 " clip-rule="nonzero"/></clipPath><clipPath id="8cafd05626"><path d="M 37.359375 17.421875 L 1430.640625 17.421875 C 1441.410156 17.421875 1450.140625 26.152344 1450.140625 36.921875 L 1450.140625 443.078125 C 1450.140625 453.847656 1441.410156 462.578125 1430.640625 462.578125 L 37.359375 462.578125 C 26.589844 462.578125 17.859375 453.847656 17.859375 443.078125 L 17.859375 36.921875 C 17.859375 26.152344 26.589844 17.421875 37.359375 17.421875 Z M 37.359375 17.421875 " clip-rule="nonzero"/></clipPath><clipPath id="ab4e5e5b8f"><path d="M 1327 30 L 1371 30 L 1371 266 L 1327 266 Z M 1327 30 " clip-rule="nonzero"/></clipPath><clipPath id="90429c6181"><path d="M 16.507812 35.570312 L 16.507812 444.429688 C 16.507812 455.199219 25.238281 463.929688 36.007812 463.929688 L 1431.992188 463.929688 C 1442.761719 463.929688 1451.492188 455.199219 1451.492188 444.429688 L 1451.492188 35.570312 C 1451.492188 24.800781 1442.761719 16.070312 1431.992188 16.070312 L 36.007812 16.070312 C 25.238281 16.070312 16.507812 24.800781 16.507812 35.570312 Z M 16.507812 35.570312 " clip-rule="nonzero"/></clipPath><clipPath id="a981711db6"><path d="M 37.359375 17.421875 L 1430.640625 17.421875 C 1441.410156 17.421875 1450.140625 26.152344 1450.140625 36.921875 L 1450.140625 443.078125 C 1450.140625 453.847656 1441.410156 462.578125 1430.640625 462.578125 L 37.359375 462.578125 C 26.589844 462.578125 17.859375 453.847656 17.859375 443.078125 L 17.859375 36.921875 C 17.859375 26.152344 26.589844 17.421875 37.359375 17.421875 Z M 37.359375 17.421875 " clip-rule="nonzero"/></clipPath><clipPath id="52336dcd37"><path d="M 1321 24 L 1376 24 L 1376 272 L 1321 272 Z M 1321 24 " clip-rule="nonzero"/></clipPath><clipPath id="42a688f299"><path d="M 16.507812 35.570312 L 16.507812 444.429688 C 16.507812 455.199219 25.238281 463.929688 36.007812 463.929688 L 1431.992188 463.929688 C 1442.761719 463.929688 1451.492188 455.199219 1451.492188 444.429688 L 1451.492188 35.570312 C 1451.492188 24.800781 1442.761719 16.070312 1431.992188 16.070312 L 36.007812 16.070312 C 25.238281 16.070312 16.507812 24.800781 16.507812 35.570312 Z M 16.507812 35.570312 " clip-rule="nonzero"/></clipPath><clipPath id="40d8824d10"><path d="M 37.359375 17.421875 L 1430.640625 17.421875 C 1441.410156 17.421875 1450.140625 26.152344 1450.140625 36.921875 L 1450.140625 443.078125 C 1450.140625 453.847656 1441.410156 462.578125 1430.640625 462.578125 L 37.359375 462.578125 C 26.589844 462.578125 17.859375 453.847656 17.859375 443.078125 L 17.859375 36.921875 C 17.859375 26.152344 26.589844 17.421875 37.359375 17.421875 Z M 37.359375 17.421875 " clip-rule="nonzero"/></clipPath><clipPath id="246d885a67"><path d="M 16.507812 16.070312 L 1451.621094 16.070312 L 1451.621094 463.628906 L 16.507812 463.628906 Z M 16.507812 16.070312 " clip-rule="nonzero"/></clipPath><clipPath id="2f99c9eb46"><path d="M 16.507812 35.570312 L 16.507812 444.429688 C 16.507812 455.199219 25.238281 463.929688 36.007812 463.929688 L 1431.992188 463.929688 C 1442.761719 463.929688 1451.492188 455.199219 1451.492188 444.429688 L 1451.492188 35.570312 C 1451.492188 24.800781 1442.761719 16.070312 1431.992188 16.070312 L 36.007812 16.070312 C 25.238281 16.070312 16.507812 24.800781 16.507812 35.570312 Z M 16.507812 35.570312 " clip-rule="nonzero"/></clipPath><clipPath id="72231e5b09"><path d="M 16.507812 35.570312 L 16.507812 444.429688 C 16.507812 455.195312 25.238281 463.925781 36.007812 463.925781 L 1431.988281 463.925781 C 1442.757812 463.925781 1451.488281 455.195312 1451.488281 444.429688 L 1451.488281 35.570312 C 1451.488281 24.800781 1442.757812 16.070312 1431.988281 16.070312 L 36.007812 16.070312 C 25.238281 16.070312 16.507812 24.800781 16.507812 35.570312 Z M 16.507812 35.570312 " clip-rule="nonzero"/></clipPath><clipPath id="9745c05b81"><path d="M 238.769531 369.3125 L 303.03125 369.3125 L 303.03125 433.574219 L 238.769531 433.574219 Z M 238.769531 369.3125 " clip-rule="nonzero"/></clipPath><clipPath id="a49662dd4a"><path d="M 649.378906 369.3125 L 713.640625 369.3125 L 713.640625 433.574219 L 649.378906 433.574219 Z M 649.378906 369.3125 " clip-rule="nonzero"/></clipPath><clipPath id="13b3136623"><path d="M 495.761719 189.601562 L 558 189.601562 L 558 252 L 495.761719 252 Z M 495.761719 189.601562 " clip-rule="nonzero"/></clipPath><clipPath id="cd4a15b73e"><path d="M 494.632812 220.804688 C 494.632812 238.660156 509.105469 253.132812 526.960938 253.132812 C 544.816406 253.132812 559.289062 238.660156 559.289062 220.804688 C 559.289062 202.949219 544.816406 188.476562 526.960938 188.476562 C 509.105469 188.476562 494.632812 202.949219 494.632812 220.804688 Z M 494.632812 220.804688 " clip-rule="nonzero"/></clipPath><clipPath id="273d7393dd"><path d="M 526.960938 189.828125 C 544.066406 189.828125 557.9375 203.695312 557.9375 220.804688 C 557.9375 237.910156 544.066406 251.78125 526.960938 251.78125 C 509.855469 251.78125 495.984375 237.910156 495.984375 220.804688 C 495.984375 203.695312 509.855469 189.828125 526.960938 189.828125 Z M 526.960938 189.828125 " clip-rule="nonzero"/></clipPath><clipPath id="9e04af178f"><path d="M 494.632812 188.476562 L 558.890625 188.476562 L 558.890625 252.734375 L 494.632812 252.734375 Z M 494.632812 188.476562 " clip-rule="nonzero"/></clipPath><clipPath id="4eefb4b13d"><path d="M 494.632812 220.804688 C 494.632812 238.660156 509.105469 253.132812 526.960938 253.132812 C 544.816406 253.132812 559.289062 238.660156 559.289062 220.804688 C 559.289062 202.949219 544.816406 188.476562 526.960938 188.476562 C 509.105469 188.476562 494.632812 202.949219 494.632812 220.804688 Z M 494.632812 220.804688 " clip-rule="nonzero"/></clipPath><clipPath id="2ec64c8ea7"><path d="M 494.632812 220.800781 C 494.632812 238.652344 509.105469 253.121094 526.957031 253.121094 C 544.808594 253.121094 559.277344 238.652344 559.277344 220.800781 C 559.277344 202.949219 544.808594 188.476562 526.957031 188.476562 C 509.105469 188.476562 494.632812 202.949219 494.632812 220.800781 Z M 494.632812 220.800781 " clip-rule="nonzero"/></clipPath><clipPath id="abbed743ca"><rect x="0" width="1468" y="0" height="480"/></clipPath></defs><g transform="matrix(1, 0, 0, 1, 16, 510)"><g clip-path="url(#abbed743ca)"><g clip-path="url(#bee0e99ae0)"><g clip-path="url(#8bb5ead483)"><g clip-path="url(#25f59f7797)"><path fill="#000000" d="M 94.875 20.152344 L 146.300781 20.152344 L 146.300781 272.730469 L 94.875 272.730469 Z M 94.875 20.152344 " fill-opacity="1" fill-rule="evenodd"/></g></g></g><g clip-path="url(#961d5e3a33)"><g clip-path="url(#d2767e8321)"><g clip-path="url(#2e5c364485)"><path stroke-linecap="butt" transform="matrix(0.994389, 0, 0, 0.987758, -15.175512, -147.15386)" fill="none" stroke-linejoin="miter" d="M 110.671457 169.379668 L 162.387401 169.379668 L 162.387401 425.088051 L 110.671457 425.088051 Z M 110.671457 169.379668 " stroke="#000000" stroke-width="1.207" stroke-opacity="1" stroke-miterlimit="4"/></g></g></g><g clip-path="url(#a0cf99c54d)"><g clip-path="url(#d39b9ee0c8)"><g clip-path="url(#9b6817d6fb)"><path fill="#000000" d="M 196.6875 20.023438 L 248.117188 20.023438 L 248.117188 272.605469 L 196.6875 272.605469 Z M 196.6875 20.023438 " fill-opacity="1" fill-rule="evenodd"/></g></g></g><g clip-path="url(#5ecdc64112)"><g clip-path="url(#0def45b299)"><g clip-path="url(#de74b14c53)"><path stroke-linecap="butt" transform="matrix(0.994389, 0, 0, 0.987758, -15.175512, -147.15386)" fill="none" stroke-linejoin="miter" d="M 213.05842 169.249164 L 264.778292 169.249164 L 264.778292 424.961502 L 213.05842 424.961502 Z M 213.05842 169.249164 " stroke="#000000" stroke-width="1.207" stroke-opacity="1" stroke-miterlimit="4"/></g></g></g><g clip-path="url(#6b71ba904d)"><g clip-path="url(#ac66f8953f)"><g clip-path="url(#1d520da09b)"><path fill="#000000" d="M 400.648438 19.519531 L 452.074219 19.519531 L 452.074219 272.101562 L 400.648438 272.101562 Z M 400.648438 19.519531 " fill-opacity="1" fill-rule="evenodd"/></g></g></g><g clip-path="url(#9f8f94fca4)"><g clip-path="url(#70ef36857e)"><g clip-path="url(#a7d25d2a20)"><path stroke-linecap="butt" transform="matrix(0.994389, 0, 0, 0.987758, -15.175512, -147.15386)" fill="none" stroke-linejoin="miter" d="M 418.170178 168.739013 L 469.886122 168.739013 L 469.886122 424.451351 L 418.170178 424.451351 Z M 418.170178 168.739013 " stroke="#000000" stroke-width="1.207" stroke-opacity="1" stroke-miterlimit="4"/></g></g></g><g clip-path="url(#f6be0ddf33)"><g clip-path="url(#8d6e802773)"><g clip-path="url(#a08365de34)"><path fill="#000000" d="M 501.878906 20.527344 L 553.304688 20.527344 L 553.304688 273.109375 L 501.878906 273.109375 Z M 501.878906 20.527344 " fill-opacity="1" fill-rule="evenodd"/></g></g></g><g clip-path="url(#94a785e7e5)"><g clip-path="url(#c13a151e31)"><g clip-path="url(#4ccbd1678f)"><path stroke-linecap="butt" transform="matrix(0.994389, 0, 0, 0.987758, -15.175512, -147.15386)" fill="none" stroke-linejoin="miter" d="M 519.971826 169.759315 L 571.687769 169.759315 L 571.687769 425.471654 L 519.971826 425.471654 Z M 519.971826 169.759315 " stroke="#000000" stroke-width="1.207" stroke-opacity="1" stroke-miterlimit="4"/></g></g></g><g clip-path="url(#486a8cc7ec)"><g clip-path="url(#9a11f35276)"><g clip-path="url(#a55177a39a)"><path fill="#000000" d="M 605.125 20.023438 L 656.550781 20.023438 L 656.550781 272.605469 L 605.125 272.605469 Z M 605.125 20.023438 " fill-opacity="1" fill-rule="evenodd"/></g></g></g><g clip-path="url(#95ea6448d0)"><g clip-path="url(#6364522bc1)"><g clip-path="url(#12a6ea51cf)"><path stroke-linecap="butt" transform="matrix(0.994389, 0, 0, 0.987758, -15.175512, -147.15386)" fill="none" stroke-linejoin="miter" d="M 623.800471 169.249164 L 675.516415 169.249164 L 675.516415 424.961502 L 623.800471 424.961502 Z M 623.800471 169.249164 " stroke="#000000" stroke-width="1.207" stroke-opacity="1" stroke-miterlimit="4"/></g></g></g><g clip-path="url(#61ae894acd)"><g clip-path="url(#84dc0876f2)"><g clip-path="url(#4091f29532)"><path stroke-linecap="butt" transform="matrix(0.994389, 0, 0, 0.987758, -15.175512, -147.15386)" fill="none" stroke-linejoin="miter" d="M 33.515904 167.948081 L 751.854883 167.948081 L 751.854883 617.0908 L 33.515904 617.0908 Z M 33.515904 167.948081 " stroke="#000000" stroke-width="2.375" stroke-opacity="1" stroke-miterlimit="4"/></g></g></g><g clip-path="url(#ea2b7527a8)"><g clip-path="url(#4a0950278a)"><g clip-path="url(#6dd8c159a4)"><path stroke-linecap="butt" transform="matrix(2.285217, 0, 0, 2.283465, 3.826067, 0.768979)" fill="none" stroke-linejoin="miter" d="M 50.744847 114.680008 L 50.744847 202.136202 " stroke="#000000" stroke-width="2.375" stroke-opacity="1" stroke-miterlimit="4"/></g></g></g><g clip-path="url(#a2a4dd01e5)"><g clip-path="url(#9bffb33b07)"><g clip-path="url(#229a3fe9ec)"><path stroke-linecap="butt" transform="matrix(2.285217, 0, 0, 2.283465, 3.826067, 0.768979)" fill="none" stroke-linejoin="miter" d="M 95.846209 114.259184 L 95.846209 201.715378 " stroke="#000000" stroke-width="2.375" stroke-opacity="1" stroke-miterlimit="4"/></g></g></g><g clip-path="url(#ba3d134cca)"><g clip-path="url(#98755ca9f2)"><g clip-path="url(#eaab419792)"><path stroke-linecap="butt" transform="matrix(2.285217, 0, 0, 2.283465, 3.826067, 0.768979)" fill="none" stroke-linejoin="miter" d="M 184.960073 114.840811 L 184.960073 202.295294 " stroke="#000000" stroke-width="2.375" stroke-opacity="1" stroke-miterlimit="4"/></g></g></g><g clip-path="url(#202d26dbb0)"><g clip-path="url(#17763dd36c)"><g clip-path="url(#346dc028d9)"><path stroke-linecap="butt" transform="matrix(2.285217, 0, 0, 2.283465, 3.826067, 0.768979)" fill="none" stroke-linejoin="miter" d="M 229.270003 114.840811 L 229.270003 202.295294 " stroke="#000000" stroke-width="2.375" stroke-opacity="1" stroke-miterlimit="4"/></g></g></g><g clip-path="url(#811824cbde)"><g clip-path="url(#cde325c71a)"><g clip-path="url(#ddeb6e9ffd)"><path stroke-linecap="butt" transform="matrix(2.285217, 0, 0, 2.283465, 3.826067, 0.768979)" fill="none" stroke-linejoin="miter" d="M 274.689305 114.519205 L 274.689305 201.9754 " stroke="#000000" stroke-width="2.375" stroke-opacity="1" stroke-miterlimit="4"/></g></g></g><g clip-path="url(#041227b286)"><g clip-path="url(#fef3b8e457)"><g clip-path="url(#fb48b43145)"><path stroke-linecap="butt" transform="matrix(2.285217, 0, 0, 2.283465, 3.826067, 0.768979)" fill="none" stroke-linejoin="miter" d="M 140.349296 8.069463 L 140.349296 201.948029 " stroke="#000000" stroke-width="2.375" stroke-opacity="1" stroke-miterlimit="4"/></g></g></g><g clip-path="url(#4ad71bb9f7)"><g clip-path="url(#a2cf6c5c8b)"><g clip-path="url(#6adc014d19)"><path fill="#000000" d="M 101.71875 29.464844 L 144.398438 29.464844 L 144.398438 264.957031 L 101.71875 264.957031 Z M 101.71875 29.464844 " fill-opacity="1" fill-rule="nonzero"/></g></g></g><g clip-path="url(#1219312e1b)"><g clip-path="url(#19df51c6c3)"><g clip-path="url(#8754a5f596)"><path stroke-linecap="butt" transform="matrix(2.285217, 0, 0, 2.283465, 3.826067, 0.768979)" fill="none" stroke-linejoin="miter" d="M 42.837365 12.56681 L 61.513791 12.56681 L 61.513791 115.696145 L 42.837365 115.696145 Z M 42.837365 12.56681 " stroke="#000000" stroke-width="5" stroke-opacity="1" stroke-miterlimit="4"/></g></g></g><g clip-path="url(#58df3ddf77)"><g clip-path="url(#6f047024ed)"><g clip-path="url(#7abdb93511)"><path fill="#000000" d="M 812.234375 18.59375 L 863.664062 18.59375 L 863.664062 271.171875 L 812.234375 271.171875 Z M 812.234375 18.59375 " fill-opacity="1" fill-rule="evenodd"/></g></g></g><g clip-path="url(#68571fbdc1)"><g clip-path="url(#e4d590664b)"><g clip-path="url(#46e4752f6e)"><path stroke-linecap="butt" transform="matrix(0.994389, 0, 0, 0.987758, -15.175512, -147.15386)" fill="none" stroke-linejoin="miter" d="M 832.078431 167.801758 L 883.798304 167.801758 L 883.798304 423.510142 L 832.078431 423.510142 Z M 832.078431 167.801758 " stroke="#000000" stroke-width="1.207" stroke-opacity="1" stroke-miterlimit="4"/></g></g></g><g clip-path="url(#1cf6d72d6a)"><g clip-path="url(#8baced3966)"><g clip-path="url(#25790f7d29)"><path fill="#000000" d="M 914.050781 18.464844 L 965.480469 18.464844 L 965.480469 271.042969 L 914.050781 271.042969 Z M 914.050781 18.464844 " fill-opacity="1" fill-rule="evenodd"/></g></g></g><g clip-path="url(#0bfe8a3596)"><g clip-path="url(#7f6db2ca98)"><g clip-path="url(#beef7e08bc)"><path stroke-linecap="butt" transform="matrix(0.994389, 0, 0, 0.987758, -15.175512, -147.15386)" fill="none" stroke-linejoin="miter" d="M 934.469322 167.671254 L 986.189195 167.671254 L 986.189195 423.379638 L 934.469322 423.379638 Z M 934.469322 167.671254 " stroke="#000000" stroke-width="1.207" stroke-opacity="1" stroke-miterlimit="4"/></g></g></g><g clip-path="url(#9fcd138c4e)"><g clip-path="url(#2eb7614307)"><g clip-path="url(#ff8ba23834)"><path fill="#000000" d="M 1118.03125 17.96875 L 1169.457031 17.96875 L 1169.457031 270.550781 L 1118.03125 270.550781 Z M 1118.03125 17.96875 " fill-opacity="1" fill-rule="evenodd"/></g></g></g><g clip-path="url(#1083936a9c)"><g clip-path="url(#e027e033a9)"><g clip-path="url(#fc0948ef5b)"><path stroke-linecap="butt" transform="matrix(0.994389, 0, 0, 0.987758, -15.175512, -147.15386)" fill="none" stroke-linejoin="miter" d="M 1139.600722 167.169012 L 1191.316666 167.169012 L 1191.316666 422.881351 L 1139.600722 422.881351 Z M 1139.600722 167.169012 " stroke="#000000" stroke-width="1.207" stroke-opacity="1" stroke-miterlimit="4"/></g></g></g><g clip-path="url(#096f24ac01)"><g clip-path="url(#4d605315aa)"><g clip-path="url(#e01a1ade23)"><path fill="#000000" d="M 1219.257812 18.96875 L 1270.6875 18.96875 L 1270.6875 271.546875 L 1219.257812 271.546875 Z M 1219.257812 18.96875 " fill-opacity="1" fill-rule="evenodd"/></g></g></g><g clip-path="url(#436911646f)"><g clip-path="url(#2af0030d8b)"><g clip-path="url(#12a523ce3a)"><path stroke-linecap="butt" transform="matrix(0.994389, 0, 0, 0.987758, -15.175512, -147.15386)" fill="none" stroke-linejoin="miter" d="M 1241.398441 168.181406 L 1293.118314 168.181406 L 1293.118314 423.889789 L 1241.398441 423.889789 Z M 1241.398441 168.181406 " stroke="#000000" stroke-width="1.207" stroke-opacity="1" stroke-miterlimit="4"/></g></g></g><g clip-path="url(#826f6f53f2)"><g clip-path="url(#2a7f9af501)"><g clip-path="url(#c20f653c07)"><path fill="#000000" d="M 1322.476562 18.464844 L 1373.90625 18.464844 L 1373.90625 271.042969 L 1322.476562 271.042969 Z M 1322.476562 18.464844 " fill-opacity="1" fill-rule="evenodd"/></g></g></g><g clip-path="url(#e112796584)"><g clip-path="url(#34a6fd5654)"><g clip-path="url(#f2f7993f53)"><path stroke-linecap="butt" transform="matrix(0.994389, 0, 0, 0.987758, -15.175512, -147.15386)" fill="none" stroke-linejoin="miter" d="M 1345.199589 167.671254 L 1396.919461 167.671254 L 1396.919461 423.379638 L 1345.199589 423.379638 Z M 1345.199589 167.671254 " stroke="#000000" stroke-width="1.207" stroke-opacity="1" stroke-miterlimit="4"/></g></g></g><g clip-path="url(#ff6e240523)"><g clip-path="url(#85700c0b3b)"><g clip-path="url(#9dcee3ef60)"><path stroke-linecap="butt" transform="matrix(0.994389, 0, 0, 0.987758, -15.175512, -147.15386)" fill="none" stroke-linejoin="miter" d="M 754.91895 166.370171 L 1473.261858 166.370171 L 1473.261858 615.508936 L 754.91895 615.508936 Z M 754.91895 166.370171 " stroke="#000000" stroke-width="2.375" stroke-opacity="1" stroke-miterlimit="4"/></g></g></g><g clip-path="url(#c56ebb3ec1)"><g clip-path="url(#470a9a7b2e)"><g clip-path="url(#9e746f4ea8)"><path stroke-linecap="butt" transform="matrix(2.285217, 0, 0, 2.283465, 3.826067, 0.768979)" fill="none" stroke-linejoin="miter" d="M 364.659556 113.999162 L 364.659556 201.455356 " stroke="#000000" stroke-width="2.375" stroke-opacity="1" stroke-miterlimit="4"/></g></g></g><g clip-path="url(#1be8f66b82)"><g clip-path="url(#2e38d1f55d)"><g clip-path="url(#c32d7f71fb)"><path stroke-linecap="butt" transform="matrix(2.285217, 0, 0, 2.283465, 3.826067, 0.768979)" fill="none" stroke-linejoin="miter" d="M 409.759209 113.580048 L 409.759209 201.036243 " stroke="#000000" stroke-width="2.375" stroke-opacity="1" stroke-miterlimit="4"/></g></g></g><g clip-path="url(#3f85237190)"><g clip-path="url(#865969f41b)"><g clip-path="url(#92056245fb)"><path stroke-linecap="butt" transform="matrix(2.285217, 0, 0, 2.283465, 3.826067, 0.768979)" fill="none" stroke-linejoin="miter" d="M 498.869654 114.149701 L 498.869654 201.605895 " stroke="#000000" stroke-width="2.375" stroke-opacity="1" stroke-miterlimit="4"/></g></g></g><g clip-path="url(#1be61bf0f7)"><g clip-path="url(#71ca5a52d5)"><g clip-path="url(#42a279390d)"><path stroke-linecap="butt" transform="matrix(2.285217, 0, 0, 2.283465, 3.826067, 0.768979)" fill="none" stroke-linejoin="miter" d="M 543.18984 114.149701 L 543.18984 201.605895 " stroke="#000000" stroke-width="2.375" stroke-opacity="1" stroke-miterlimit="4"/></g></g></g><g clip-path="url(#29e4c77519)"><g clip-path="url(#7fd32ff7e9)"><g clip-path="url(#d8db543ff7)"><path stroke-linecap="butt" transform="matrix(2.285217, 0, 0, 2.283465, 3.826067, 0.768979)" fill="none" stroke-linejoin="miter" d="M 588.600595 113.84007 L 588.600595 201.296264 " stroke="#000000" stroke-width="2.375" stroke-opacity="1" stroke-miterlimit="4"/></g></g></g><g clip-path="url(#2027f3f9e5)"><g clip-path="url(#9e94fefea7)"><g clip-path="url(#8ce88a14bf)"><path stroke-linecap="butt" transform="matrix(2.285217, 0, 0, 2.283465, 3.826067, 0.768979)" fill="none" stroke-linejoin="miter" d="M 454.260587 7.386907 L 454.260587 201.267183 " stroke="#000000" stroke-width="2.375" stroke-opacity="1" stroke-miterlimit="4"/></g></g></g><g clip-path="url(#6fa04b2612)"><g clip-path="url(#d01a87094c)"><g clip-path="url(#97889ed4f5)"><path fill="#000000" d="M 202.851562 26.6875 L 245.53125 26.6875 L 245.53125 262.179688 L 202.851562 262.179688 Z M 202.851562 26.6875 " fill-opacity="1" fill-rule="nonzero"/></g></g></g><g clip-path="url(#622cd84a21)"><g clip-path="url(#c74cb91d2d)"><g clip-path="url(#ae029b69b9)"><path stroke-linecap="butt" transform="matrix(2.285217, 0, 0, 2.283465, 3.826067, 0.768979)" fill="none" stroke-linejoin="miter" d="M 87.092596 11.350525 L 105.769021 11.350525 L 105.769021 114.47986 L 87.092596 114.47986 Z M 87.092596 11.350525 " stroke="#000000" stroke-width="5" stroke-opacity="1" stroke-miterlimit="4"/></g></g></g><g clip-path="url(#625d132945)"><g clip-path="url(#08d7e5535f)"><g clip-path="url(#85dd9a29a0)"><path fill="#000000" d="M 406.984375 26.6875 L 449.664062 26.6875 L 449.664062 262.179688 L 406.984375 262.179688 Z M 406.984375 26.6875 " fill-opacity="1" fill-rule="nonzero"/></g></g></g><g clip-path="url(#45b14220bf)"><g clip-path="url(#ab15f97617)"><g clip-path="url(#ea8d76e2df)"><path stroke-linecap="butt" transform="matrix(2.285217, 0, 0, 2.283465, 3.826067, 0.768979)" fill="none" stroke-linejoin="miter" d="M 176.420129 11.350525 L 195.096555 11.350525 L 195.096555 114.47986 L 176.420129 114.47986 Z M 176.420129 11.350525 " stroke="#000000" stroke-width="5" stroke-opacity="1" stroke-miterlimit="4"/></g></g></g><g clip-path="url(#894e7ddbf1)"><g clip-path="url(#41804efc65)"><g clip-path="url(#d9bd29c761)"><path fill="#000000" d="M 507.191406 28.539062 L 549.871094 28.539062 L 549.871094 264.035156 L 507.191406 264.035156 Z M 507.191406 28.539062 " fill-opacity="1" fill-rule="nonzero"/></g></g></g><g clip-path="url(#5de09e2043)"><g clip-path="url(#9c4006658e)"><g clip-path="url(#bd22201fba)"><path stroke-linecap="butt" transform="matrix(2.285217, 0, 0, 2.283465, 3.826067, 0.768979)" fill="none" stroke-linejoin="miter" d="M 220.270243 12.161381 L 238.946668 12.161381 L 238.946668 115.292427 L 220.270243 115.292427 Z M 220.270243 12.161381 " stroke="#000000" stroke-width="5" stroke-opacity="1" stroke-miterlimit="4"/></g></g></g><g clip-path="url(#3b296937a8)"><g clip-path="url(#9ba4d77568)"><g clip-path="url(#c4b84105da)"><path fill="#000000" d="M 611.101562 28.539062 L 653.78125 28.539062 L 653.78125 264.035156 L 611.101562 264.035156 Z M 611.101562 28.539062 " fill-opacity="1" fill-rule="nonzero"/></g></g></g><g clip-path="url(#91053adcd1)"><g clip-path="url(#173b8a6618)"><g clip-path="url(#69d66dde4f)"><path stroke-linecap="butt" transform="matrix(2.285217, 0, 0, 2.283465, 3.826067, 0.768979)" fill="none" stroke-linejoin="miter" d="M 265.740825 12.161381 L 284.417251 12.161381 L 284.417251 115.292427 L 265.740825 115.292427 Z M 265.740825 12.161381 " stroke="#000000" stroke-width="5" stroke-opacity="1" stroke-miterlimit="4"/></g></g></g><g clip-path="url(#a21ad62ef9)"><g clip-path="url(#98d4938de9)"><g clip-path="url(#10d6851b80)"><path fill="#000000" d="M 817.089844 24.832031 L 859.769531 24.832031 L 859.769531 260.324219 L 817.089844 260.324219 Z M 817.089844 24.832031 " fill-opacity="1" fill-rule="nonzero"/></g></g></g><g clip-path="url(#be293dcb2e)"><g clip-path="url(#fd040925a5)"><g clip-path="url(#e492ee2ec3)"><path stroke-linecap="butt" transform="matrix(2.285217, 0, 0, 2.283465, 3.826067, 0.768979)" fill="none" stroke-linejoin="miter" d="M 355.880303 10.537957 L 374.556728 10.537957 L 374.556728 113.667292 L 355.880303 113.667292 Z M 355.880303 10.537957 " stroke="#000000" stroke-width="5" stroke-opacity="1" stroke-miterlimit="4"/></g></g></g><g clip-path="url(#f7e9432705)"><g clip-path="url(#108a1e9ddd)"><g clip-path="url(#882fc4ea8e)"><path fill="#000000" d="M 921.019531 24.832031 L 963.703125 24.832031 L 963.703125 260.324219 L 921.019531 260.324219 Z M 921.019531 24.832031 " fill-opacity="1" fill-rule="nonzero"/></g></g></g><g clip-path="url(#793f9cbad9)"><g clip-path="url(#bc74657dea)"><g clip-path="url(#1280353db4)"><path stroke-linecap="butt" transform="matrix(2.285217, 0, 0, 2.283465, 3.826067, 0.768979)" fill="none" stroke-linejoin="miter" d="M 401.359433 10.537957 L 420.037567 10.537957 L 420.037567 113.667292 L 401.359433 113.667292 Z M 401.359433 10.537957 " stroke="#000000" stroke-width="5" stroke-opacity="1" stroke-miterlimit="4"/></g></g></g><g clip-path="url(#55c28b57a7)"><g clip-path="url(#a5cd5c6ac3)"><g clip-path="url(#b0ac72d30e)"><path fill="#000000" d="M 1125.136719 30.394531 L 1167.816406 30.394531 L 1167.816406 265.886719 L 1125.136719 265.886719 Z M 1125.136719 30.394531 " fill-opacity="1" fill-rule="nonzero"/></g></g></g><g clip-path="url(#e797db5856)"><g clip-path="url(#d5a2d9af24)"><g clip-path="url(#9346090f70)"><path stroke-linecap="butt" transform="matrix(2.285217, 0, 0, 2.283465, 3.826067, 0.768979)" fill="none" stroke-linejoin="miter" d="M 490.680129 12.973949 L 509.356554 12.973949 L 509.356554 116.103284 L 490.680129 116.103284 Z M 490.680129 12.973949 " stroke="#000000" stroke-width="5" stroke-opacity="1" stroke-miterlimit="4"/></g></g></g><g clip-path="url(#c2874af669)"><g clip-path="url(#2c26c9533e)"><g clip-path="url(#51db41617e)"><path fill="#000000" d="M 1225.34375 32.25 L 1268.023438 32.25 L 1268.023438 267.742188 L 1225.34375 267.742188 Z M 1225.34375 32.25 " fill-opacity="1" fill-rule="nonzero"/></g></g></g><g clip-path="url(#86ad1f128c)"><g clip-path="url(#fb68f60509)"><g clip-path="url(#8cafd05626)"><path stroke-linecap="butt" transform="matrix(2.285217, 0, 0, 2.283465, 3.826067, 0.768979)" fill="none" stroke-linejoin="miter" d="M 534.530242 13.786516 L 553.206667 13.786516 L 553.206667 116.915851 L 534.530242 116.915851 Z M 534.530242 13.786516 " stroke="#000000" stroke-width="5" stroke-opacity="1" stroke-miterlimit="4"/></g></g></g><g clip-path="url(#ab4e5e5b8f)"><g clip-path="url(#90429c6181)"><g clip-path="url(#a981711db6)"><path fill="#000000" d="M 1327.425781 30.394531 L 1370.105469 30.394531 L 1370.105469 265.886719 L 1327.425781 265.886719 Z M 1327.425781 30.394531 " fill-opacity="1" fill-rule="nonzero"/></g></g></g><g clip-path="url(#52336dcd37)"><g clip-path="url(#42a688f299)"><g clip-path="url(#40d8824d10)"><path stroke-linecap="butt" transform="matrix(2.285217, 0, 0, 2.283465, 3.826067, 0.768979)" fill="none" stroke-linejoin="miter" d="M 579.200846 12.973949 L 597.877271 12.973949 L 597.877271 116.103284 L 579.200846 116.103284 Z M 579.200846 12.973949 " stroke="#000000" stroke-width="5" stroke-opacity="1" stroke-miterlimit="4"/></g></g></g><g clip-path="url(#246d885a67)"><g clip-path="url(#2f99c9eb46)"><g clip-path="url(#72231e5b09)"><path stroke-linecap="butt" transform="matrix(1.127353, 0, 0, 1.127353, 16.506935, 16.068978)" fill="none" stroke-linejoin="miter" d="M 0.000778416 17.298337 L 0.000778416 379.970295 C 0.000778416 389.519765 7.744997 397.263983 17.297931 397.263983 L 1255.579359 397.263983 C 1265.132294 397.263983 1272.876512 389.519765 1272.876512 379.970295 L 1272.876512 17.298337 C 1272.876512 7.745402 1265.132294 0.00118399 1255.579359 0.00118399 L 17.297931 0.00118399 C 7.744997 0.00118399 0.000778416 7.745402 0.000778416 17.298337 Z M 0.000778416 17.298337 " stroke="#000000" stroke-width="6.652751" stroke-opacity="1" stroke-miterlimit="4"/></g></g></g><g clip-path="url(#9745c05b81)"><path fill="#000000" d="M 270.902344 369.3125 C 253.148438 369.3125 238.769531 383.691406 238.769531 401.441406 C 238.769531 419.195312 253.148438 433.574219 270.902344 433.574219 C 288.652344 433.574219 303.03125 419.195312 303.03125 401.441406 C 303.03125 383.691406 288.652344 369.3125 270.902344 369.3125 Z M 270.902344 369.3125 " fill-opacity="1" fill-rule="nonzero"/></g><g clip-path="url(#a49662dd4a)"><path fill="#000000" d="M 681.511719 369.3125 C 663.757812 369.3125 649.378906 383.691406 649.378906 401.441406 C 649.378906 419.195312 663.757812 433.574219 681.511719 433.574219 C 699.261719 433.574219 713.640625 419.195312 713.640625 401.441406 C 713.640625 383.691406 699.261719 369.3125 681.511719 369.3125 Z M 681.511719 369.3125 " fill-opacity="1" fill-rule="nonzero"/></g><g clip-path="url(#13b3136623)"><g clip-path="url(#cd4a15b73e)"><g clip-path="url(#273d7393dd)"><path fill="#ffffff" d="M 526.957031 188.476562 C 509.097656 188.476562 494.632812 202.941406 494.632812 220.800781 C 494.632812 238.65625 509.097656 253.121094 526.957031 253.121094 C 544.816406 253.121094 559.277344 238.65625 559.277344 220.800781 C 559.277344 202.941406 544.816406 188.476562 526.957031 188.476562 Z M 526.957031 188.476562 " fill-opacity="1" fill-rule="nonzero"/></g></g></g><g clip-path="url(#9e04af178f)"><g clip-path="url(#4eefb4b13d)"><g clip-path="url(#2ec64c8ea7)"><path stroke-linecap="butt" transform="matrix(1.127353, 0, 0, 1.127353, 494.632557, 188.476091)" fill="none" stroke-linejoin="miter" d="M 0.000226311 28.673083 C 0.000226311 44.508017 12.837957 57.342282 28.672891 57.342282 C 44.507825 57.342282 57.34209 44.508017 57.34209 28.673083 C 57.34209 12.838149 44.507825 0.000418203 28.672891 0.000418203 C 12.837957 0.000418203 0.000226311 12.838149 0.000226311 28.673083 Z M 0.000226311 28.673083 " stroke="#000000" stroke-width="9.313852" stroke-opacity="1" stroke-miterlimit="4"/></g></g></g></g></g></svg>