<svg xmlns="http://www.w3.org/2000/svg" xmlns:xlink="http://www.w3.org/1999/xlink" width="2000" zoomAndPan="magnify" viewBox="0 0 1500 607.92" height="800" preserveAspectRatio="xMidYMid meet" version="1.0"><defs><clipPath id="82f898720e"><path d="M 0.0976562 0 L 1499.898438 0 L 1499.898438 599.921875 L 0.0976562 599.921875 Z M 0.0976562 0 " clip-rule="nonzero"/></clipPath><clipPath id="d410353ef5"><path d="M 91 19 L 141 19 L 141 263 L 91 263 Z M 91 19 " clip-rule="nonzero"/></clipPath><clipPath id="bf696dcf58"><path d="M 16.089844 35.136719 L 16.089844 426.785156 C 16.089844 437.554688 24.820312 446.28125 35.589844 446.28125 L 1376.410156 446.28125 C 1387.179688 446.28125 1395.910156 437.554688 1395.910156 426.785156 L 1395.910156 35.136719 C 1395.910156 24.367188 1387.179688 15.636719 1376.410156 15.636719 L 35.589844 15.636719 C 24.820312 15.636719 16.089844 24.367188 16.089844 35.136719 Z M 16.089844 35.136719 " clip-rule="nonzero"/></clipPath><clipPath id="b5241ef8b4"><path d="M 36.890625 16.9375 L 1375.109375 16.9375 C 1385.878906 16.9375 1394.609375 25.667969 1394.609375 36.4375 L 1394.609375 425.484375 C 1394.609375 436.253906 1385.878906 444.980469 1375.109375 444.980469 L 36.890625 444.980469 C 26.121094 444.980469 17.390625 436.253906 17.390625 425.484375 L 17.390625 36.4375 C 17.390625 25.667969 26.121094 16.9375 36.890625 16.9375 Z M 36.890625 16.9375 " clip-rule="nonzero"/></clipPath><clipPath id="717bd0a3ae"><path d="M 90 18 L 142 18 L 142 264 L 90 264 Z M 90 18 " clip-rule="nonzero"/></clipPath><clipPath id="d198b9ada4"><path d="M 16.089844 35.136719 L 16.089844 426.785156 C 16.089844 437.554688 24.820312 446.28125 35.589844 446.28125 L 1376.410156 446.28125 C 1387.179688 446.28125 1395.910156 437.554688 1395.910156 426.785156 L 1395.910156 35.136719 C 1395.910156 24.367188 1387.179688 15.636719 1376.410156 15.636719 L 35.589844 15.636719 C 24.820312 15.636719 16.089844 24.367188 16.089844 35.136719 Z M 16.089844 35.136719 " clip-rule="nonzero"/></clipPath><clipPath id="84e4f56130"><path d="M 36.890625 16.9375 L 1375.109375 16.9375 C 1385.878906 16.9375 1394.609375 25.667969 1394.609375 36.4375 L 1394.609375 425.484375 C 1394.609375 436.253906 1385.878906 444.980469 1375.109375 444.980469 L 36.890625 444.980469 C 26.121094 444.980469 17.390625 436.253906 17.390625 425.484375 L 17.390625 36.4375 C 17.390625 25.667969 26.121094 16.9375 36.890625 16.9375 Z M 36.890625 16.9375 " clip-rule="nonzero"/></clipPath><clipPath id="a7839b7df8"><path d="M 189 19 L 239 19 L 239 263 L 189 263 Z M 189 19 " clip-rule="nonzero"/></clipPath><clipPath id="cac9a53c58"><path d="M 16.089844 35.136719 L 16.089844 426.785156 C 16.089844 437.554688 24.820312 446.28125 35.589844 446.28125 L 1376.410156 446.28125 C 1387.179688 446.28125 1395.910156 437.554688 1395.910156 426.785156 L 1395.910156 35.136719 C 1395.910156 24.367188 1387.179688 15.636719 1376.410156 15.636719 L 35.589844 15.636719 C 24.820312 15.636719 16.089844 24.367188 16.089844 35.136719 Z M 16.089844 35.136719 " clip-rule="nonzero"/></clipPath><clipPath id="e14b60d39a"><path d="M 36.890625 16.9375 L 1375.109375 16.9375 C 1385.878906 16.9375 1394.609375 25.667969 1394.609375 36.4375 L 1394.609375 425.484375 C 1394.609375 436.253906 1385.878906 444.980469 1375.109375 444.980469 L 36.890625 444.980469 C 26.121094 444.980469 17.390625 436.253906 17.390625 425.484375 L 17.390625 36.4375 C 17.390625 25.667969 26.121094 16.9375 36.890625 16.9375 Z M 36.890625 16.9375 " clip-rule="nonzero"/></clipPath><clipPath id="62ea1e723f"><path d="M 188 18 L 240 18 L 240 263 L 188 263 Z M 188 18 " clip-rule="nonzero"/></clipPath><clipPath id="f32bc5d962"><path d="M 16.089844 35.136719 L 16.089844 426.785156 C 16.089844 437.554688 24.820312 446.28125 35.589844 446.28125 L 1376.410156 446.28125 C 1387.179688 446.28125 1395.910156 437.554688 1395.910156 426.785156 L 1395.910156 35.136719 C 1395.910156 24.367188 1387.179688 15.636719 1376.410156 15.636719 L 35.589844 15.636719 C 24.820312 15.636719 16.089844 24.367188 16.089844 35.136719 Z M 16.089844 35.136719 " clip-rule="nonzero"/></clipPath><clipPath id="23df205774"><path d="M 36.890625 16.9375 L 1375.109375 16.9375 C 1385.878906 16.9375 1394.609375 25.667969 1394.609375 36.4375 L 1394.609375 425.484375 C 1394.609375 436.253906 1385.878906 444.980469 1375.109375 444.980469 L 36.890625 444.980469 C 26.121094 444.980469 17.390625 436.253906 17.390625 425.484375 L 17.390625 36.4375 C 17.390625 25.667969 26.121094 16.9375 36.890625 16.9375 Z M 36.890625 16.9375 " clip-rule="nonzero"/></clipPath><clipPath id="5d8c8fce46"><path d="M 385 18 L 435 18 L 435 262 L 385 262 Z M 385 18 " clip-rule="nonzero"/></clipPath><clipPath id="d48c13debd"><path d="M 16.089844 35.136719 L 16.089844 426.785156 C 16.089844 437.554688 24.820312 446.28125 35.589844 446.28125 L 1376.410156 446.28125 C 1387.179688 446.28125 1395.910156 437.554688 1395.910156 426.785156 L 1395.910156 35.136719 C 1395.910156 24.367188 1387.179688 15.636719 1376.410156 15.636719 L 35.589844 15.636719 C 24.820312 15.636719 16.089844 24.367188 16.089844 35.136719 Z M 16.089844 35.136719 " clip-rule="nonzero"/></clipPath><clipPath id="8c3f6af6c0"><path d="M 36.890625 16.9375 L 1375.109375 16.9375 C 1385.878906 16.9375 1394.609375 25.667969 1394.609375 36.4375 L 1394.609375 425.484375 C 1394.609375 436.253906 1385.878906 444.980469 1375.109375 444.980469 L 36.890625 444.980469 C 26.121094 444.980469 17.390625 436.253906 17.390625 425.484375 L 17.390625 36.4375 C 17.390625 25.667969 26.121094 16.9375 36.890625 16.9375 Z M 36.890625 16.9375 " clip-rule="nonzero"/></clipPath><clipPath id="cfe35708c9"><path d="M 384 18 L 436 18 L 436 263 L 384 263 Z M 384 18 " clip-rule="nonzero"/></clipPath><clipPath id="23ccf3739f"><path d="M 16.089844 35.136719 L 16.089844 426.785156 C 16.089844 437.554688 24.820312 446.28125 35.589844 446.28125 L 1376.410156 446.28125 C 1387.179688 446.28125 1395.910156 437.554688 1395.910156 426.785156 L 1395.910156 35.136719 C 1395.910156 24.367188 1387.179688 15.636719 1376.410156 15.636719 L 35.589844 15.636719 C 24.820312 15.636719 16.089844 24.367188 16.089844 35.136719 Z M 16.089844 35.136719 " clip-rule="nonzero"/></clipPath><clipPath id="9ed3fffb3f"><path d="M 36.890625 16.9375 L 1375.109375 16.9375 C 1385.878906 16.9375 1394.609375 25.667969 1394.609375 36.4375 L 1394.609375 425.484375 C 1394.609375 436.253906 1385.878906 444.980469 1375.109375 444.980469 L 36.890625 444.980469 C 26.121094 444.980469 17.390625 436.253906 17.390625 425.484375 L 17.390625 36.4375 C 17.390625 25.667969 26.121094 16.9375 36.890625 16.9375 Z M 36.890625 16.9375 " clip-rule="nonzero"/></clipPath><clipPath id="3698ca5eb8"><path d="M 482 19 L 533 19 L 533 263 L 482 263 Z M 482 19 " clip-rule="nonzero"/></clipPath><clipPath id="15d3ed6f37"><path d="M 16.089844 35.136719 L 16.089844 426.785156 C 16.089844 437.554688 24.820312 446.28125 35.589844 446.28125 L 1376.410156 446.28125 C 1387.179688 446.28125 1395.910156 437.554688 1395.910156 426.785156 L 1395.910156 35.136719 C 1395.910156 24.367188 1387.179688 15.636719 1376.410156 15.636719 L 35.589844 15.636719 C 24.820312 15.636719 16.089844 24.367188 16.089844 35.136719 Z M 16.089844 35.136719 " clip-rule="nonzero"/></clipPath><clipPath id="7f03e4520c"><path d="M 36.890625 16.9375 L 1375.109375 16.9375 C 1385.878906 16.9375 1394.609375 25.667969 1394.609375 36.4375 L 1394.609375 425.484375 C 1394.609375 436.253906 1385.878906 444.980469 1375.109375 444.980469 L 36.890625 444.980469 C 26.121094 444.980469 17.390625 436.253906 17.390625 425.484375 L 17.390625 36.4375 C 17.390625 25.667969 26.121094 16.9375 36.890625 16.9375 Z M 36.890625 16.9375 " clip-rule="nonzero"/></clipPath><clipPath id="49469995f9"><path d="M 482 19 L 533 19 L 533 264 L 482 264 Z M 482 19 " clip-rule="nonzero"/></clipPath><clipPath id="1901e61a18"><path d="M 16.089844 35.136719 L 16.089844 426.785156 C 16.089844 437.554688 24.820312 446.28125 35.589844 446.28125 L 1376.410156 446.28125 C 1387.179688 446.28125 1395.910156 437.554688 1395.910156 426.785156 L 1395.910156 35.136719 C 1395.910156 24.367188 1387.179688 15.636719 1376.410156 15.636719 L 35.589844 15.636719 C 24.820312 15.636719 16.089844 24.367188 16.089844 35.136719 Z M 16.089844 35.136719 " clip-rule="nonzero"/></clipPath><clipPath id="d55c2297c9"><path d="M 36.890625 16.9375 L 1375.109375 16.9375 C 1385.878906 16.9375 1394.609375 25.667969 1394.609375 36.4375 L 1394.609375 425.484375 C 1394.609375 436.253906 1385.878906 444.980469 1375.109375 444.980469 L 36.890625 444.980469 C 26.121094 444.980469 17.390625 436.253906 17.390625 425.484375 L 17.390625 36.4375 C 17.390625 25.667969 26.121094 16.9375 36.890625 16.9375 Z M 36.890625 16.9375 " clip-rule="nonzero"/></clipPath><clipPath id="02358beced"><path d="M 582 19 L 632 19 L 632 263 L 582 263 Z M 582 19 " clip-rule="nonzero"/></clipPath><clipPath id="d35de28436"><path d="M 16.089844 35.136719 L 16.089844 426.785156 C 16.089844 437.554688 24.820312 446.28125 35.589844 446.28125 L 1376.410156 446.28125 C 1387.179688 446.28125 1395.910156 437.554688 1395.910156 426.785156 L 1395.910156 35.136719 C 1395.910156 24.367188 1387.179688 15.636719 1376.410156 15.636719 L 35.589844 15.636719 C 24.820312 15.636719 16.089844 24.367188 16.089844 35.136719 Z M 16.089844 35.136719 " clip-rule="nonzero"/></clipPath><clipPath id="5713d8477d"><path d="M 36.890625 16.9375 L 1375.109375 16.9375 C 1385.878906 16.9375 1394.609375 25.667969 1394.609375 36.4375 L 1394.609375 425.484375 C 1394.609375 436.253906 1385.878906 444.980469 1375.109375 444.980469 L 36.890625 444.980469 C 26.121094 444.980469 17.390625 436.253906 17.390625 425.484375 L 17.390625 36.4375 C 17.390625 25.667969 26.121094 16.9375 36.890625 16.9375 Z M 36.890625 16.9375 " clip-rule="nonzero"/></clipPath><clipPath id="288df74cb3"><path d="M 581 18 L 633 18 L 633 263 L 581 263 Z M 581 18 " clip-rule="nonzero"/></clipPath><clipPath id="943e5c268a"><path d="M 16.089844 35.136719 L 16.089844 426.785156 C 16.089844 437.554688 24.820312 446.28125 35.589844 446.28125 L 1376.410156 446.28125 C 1387.179688 446.28125 1395.910156 437.554688 1395.910156 426.785156 L 1395.910156 35.136719 C 1395.910156 24.367188 1387.179688 15.636719 1376.410156 15.636719 L 35.589844 15.636719 C 24.820312 15.636719 16.089844 24.367188 16.089844 35.136719 Z M 16.089844 35.136719 " clip-rule="nonzero"/></clipPath><clipPath id="fcd7ec7508"><path d="M 36.890625 16.9375 L 1375.109375 16.9375 C 1385.878906 16.9375 1394.609375 25.667969 1394.609375 36.4375 L 1394.609375 425.484375 C 1394.609375 436.253906 1385.878906 444.980469 1375.109375 444.980469 L 36.890625 444.980469 C 26.121094 444.980469 17.390625 436.253906 17.390625 425.484375 L 17.390625 36.4375 C 17.390625 25.667969 26.121094 16.9375 36.890625 16.9375 Z M 36.890625 16.9375 " clip-rule="nonzero"/></clipPath><clipPath id="5cd0021007"><path d="M 17.175781 17 L 706 17 L 706 445 L 17.175781 445 Z M 17.175781 17 " clip-rule="nonzero"/></clipPath><clipPath id="e60e0b1273"><path d="M 16.089844 35.136719 L 16.089844 426.785156 C 16.089844 437.554688 24.820312 446.28125 35.589844 446.28125 L 1376.410156 446.28125 C 1387.179688 446.28125 1395.910156 437.554688 1395.910156 426.785156 L 1395.910156 35.136719 C 1395.910156 24.367188 1387.179688 15.636719 1376.410156 15.636719 L 35.589844 15.636719 C 24.820312 15.636719 16.089844 24.367188 16.089844 35.136719 Z M 16.089844 35.136719 " clip-rule="nonzero"/></clipPath><clipPath id="e6415e16d1"><path d="M 36.890625 16.9375 L 1375.109375 16.9375 C 1385.878906 16.9375 1394.609375 25.667969 1394.609375 36.4375 L 1394.609375 425.484375 C 1394.609375 436.253906 1385.878906 444.980469 1375.109375 444.980469 L 36.890625 444.980469 C 26.121094 444.980469 17.390625 436.253906 17.390625 425.484375 L 17.390625 36.4375 C 17.390625 25.667969 26.121094 16.9375 36.890625 16.9375 Z M 36.890625 16.9375 " clip-rule="nonzero"/></clipPath><clipPath id="3aa118b8dd"><path d="M 112 250 L 119 250 L 119 445 L 112 445 Z M 112 250 " clip-rule="nonzero"/></clipPath><clipPath id="c02fffe556"><path d="M 16.089844 35.136719 L 16.089844 426.785156 C 16.089844 437.554688 24.820312 446.28125 35.589844 446.28125 L 1376.410156 446.28125 C 1387.179688 446.28125 1395.910156 437.554688 1395.910156 426.785156 L 1395.910156 35.136719 C 1395.910156 24.367188 1387.179688 15.636719 1376.410156 15.636719 L 35.589844 15.636719 C 24.820312 15.636719 16.089844 24.367188 16.089844 35.136719 Z M 16.089844 35.136719 " clip-rule="nonzero"/></clipPath><clipPath id="646262c3a1"><path d="M 36.890625 16.9375 L 1375.109375 16.9375 C 1385.878906 16.9375 1394.609375 25.667969 1394.609375 36.4375 L 1394.609375 425.484375 C 1394.609375 436.253906 1385.878906 444.980469 1375.109375 444.980469 L 36.890625 444.980469 C 26.121094 444.980469 17.390625 436.253906 17.390625 425.484375 L 17.390625 36.4375 C 17.390625 25.667969 26.121094 16.9375 36.890625 16.9375 Z M 36.890625 16.9375 " clip-rule="nonzero"/></clipPath><clipPath id="1849e395cd"><path d="M 211 249 L 218 249 L 218 445 L 211 445 Z M 211 249 " clip-rule="nonzero"/></clipPath><clipPath id="6312472c1a"><path d="M 16.089844 35.136719 L 16.089844 426.785156 C 16.089844 437.554688 24.820312 446.28125 35.589844 446.28125 L 1376.410156 446.28125 C 1387.179688 446.28125 1395.910156 437.554688 1395.910156 426.785156 L 1395.910156 35.136719 C 1395.910156 24.367188 1387.179688 15.636719 1376.410156 15.636719 L 35.589844 15.636719 C 24.820312 15.636719 16.089844 24.367188 16.089844 35.136719 Z M 16.089844 35.136719 " clip-rule="nonzero"/></clipPath><clipPath id="1c5a2c3867"><path d="M 36.890625 16.9375 L 1375.109375 16.9375 C 1385.878906 16.9375 1394.609375 25.667969 1394.609375 36.4375 L 1394.609375 425.484375 C 1394.609375 436.253906 1385.878906 444.980469 1375.109375 444.980469 L 36.890625 444.980469 C 26.121094 444.980469 17.390625 436.253906 17.390625 425.484375 L 17.390625 36.4375 C 17.390625 25.667969 26.121094 16.9375 36.890625 16.9375 Z M 36.890625 16.9375 " clip-rule="nonzero"/></clipPath><clipPath id="073d76eb78"><path d="M 407 250 L 413 250 L 413 445 L 407 445 Z M 407 250 " clip-rule="nonzero"/></clipPath><clipPath id="81cdd3bc94"><path d="M 16.089844 35.136719 L 16.089844 426.785156 C 16.089844 437.554688 24.820312 446.28125 35.589844 446.28125 L 1376.410156 446.28125 C 1387.179688 446.28125 1395.910156 437.554688 1395.910156 426.785156 L 1395.910156 35.136719 C 1395.910156 24.367188 1387.179688 15.636719 1376.410156 15.636719 L 35.589844 15.636719 C 24.820312 15.636719 16.089844 24.367188 16.089844 35.136719 Z M 16.089844 35.136719 " clip-rule="nonzero"/></clipPath><clipPath id="fd71cc03ad"><path d="M 36.890625 16.9375 L 1375.109375 16.9375 C 1385.878906 16.9375 1394.609375 25.667969 1394.609375 36.4375 L 1394.609375 425.484375 C 1394.609375 436.253906 1385.878906 444.980469 1375.109375 444.980469 L 36.890625 444.980469 C 26.121094 444.980469 17.390625 436.253906 17.390625 425.484375 L 17.390625 36.4375 C 17.390625 25.667969 26.121094 16.9375 36.890625 16.9375 Z M 36.890625 16.9375 " clip-rule="nonzero"/></clipPath><clipPath id="3a02ab2476"><path d="M 505 250 L 511 250 L 511 445 L 505 445 Z M 505 250 " clip-rule="nonzero"/></clipPath><clipPath id="80441f7f9d"><path d="M 16.089844 35.136719 L 16.089844 426.785156 C 16.089844 437.554688 24.820312 446.28125 35.589844 446.28125 L 1376.410156 446.28125 C 1387.179688 446.28125 1395.910156 437.554688 1395.910156 426.785156 L 1395.910156 35.136719 C 1395.910156 24.367188 1387.179688 15.636719 1376.410156 15.636719 L 35.589844 15.636719 C 24.820312 15.636719 16.089844 24.367188 16.089844 35.136719 Z M 16.089844 35.136719 " clip-rule="nonzero"/></clipPath><clipPath id="354e4f63b7"><path d="M 36.890625 16.9375 L 1375.109375 16.9375 C 1385.878906 16.9375 1394.609375 25.667969 1394.609375 36.4375 L 1394.609375 425.484375 C 1394.609375 436.253906 1385.878906 444.980469 1375.109375 444.980469 L 36.890625 444.980469 C 26.121094 444.980469 17.390625 436.253906 17.390625 425.484375 L 17.390625 36.4375 C 17.390625 25.667969 26.121094 16.9375 36.890625 16.9375 Z M 36.890625 16.9375 " clip-rule="nonzero"/></clipPath><clipPath id="d6c8a5e1ec"><path d="M 604 249 L 611 249 L 611 445 L 604 445 Z M 604 249 " clip-rule="nonzero"/></clipPath><clipPath id="7a34a9cf16"><path d="M 16.089844 35.136719 L 16.089844 426.785156 C 16.089844 437.554688 24.820312 446.28125 35.589844 446.28125 L 1376.410156 446.28125 C 1387.179688 446.28125 1395.910156 437.554688 1395.910156 426.785156 L 1395.910156 35.136719 C 1395.910156 24.367188 1387.179688 15.636719 1376.410156 15.636719 L 35.589844 15.636719 C 24.820312 15.636719 16.089844 24.367188 16.089844 35.136719 Z M 16.089844 35.136719 " clip-rule="nonzero"/></clipPath><clipPath id="fe53e83802"><path d="M 36.890625 16.9375 L 1375.109375 16.9375 C 1385.878906 16.9375 1394.609375 25.667969 1394.609375 36.4375 L 1394.609375 425.484375 C 1394.609375 436.253906 1385.878906 444.980469 1375.109375 444.980469 L 36.890625 444.980469 C 26.121094 444.980469 17.390625 436.253906 17.390625 425.484375 L 17.390625 36.4375 C 17.390625 25.667969 26.121094 16.9375 36.890625 16.9375 Z M 36.890625 16.9375 " clip-rule="nonzero"/></clipPath><clipPath id="5d0dff7e05"><path d="M 309 16.722656 L 315 16.722656 L 315 445 L 309 445 Z M 309 16.722656 " clip-rule="nonzero"/></clipPath><clipPath id="03e7d04e23"><path d="M 16.089844 35.136719 L 16.089844 426.785156 C 16.089844 437.554688 24.820312 446.28125 35.589844 446.28125 L 1376.410156 446.28125 C 1387.179688 446.28125 1395.910156 437.554688 1395.910156 426.785156 L 1395.910156 35.136719 C 1395.910156 24.367188 1387.179688 15.636719 1376.410156 15.636719 L 35.589844 15.636719 C 24.820312 15.636719 16.089844 24.367188 16.089844 35.136719 Z M 16.089844 35.136719 " clip-rule="nonzero"/></clipPath><clipPath id="6e70c43961"><path d="M 36.890625 16.9375 L 1375.109375 16.9375 C 1385.878906 16.9375 1394.609375 25.667969 1394.609375 36.4375 L 1394.609375 425.484375 C 1394.609375 436.253906 1385.878906 444.980469 1375.109375 444.980469 L 36.890625 444.980469 C 26.121094 444.980469 17.390625 436.253906 17.390625 425.484375 L 17.390625 36.4375 C 17.390625 25.667969 26.121094 16.9375 36.890625 16.9375 Z M 36.890625 16.9375 " clip-rule="nonzero"/></clipPath><clipPath id="1c49fea67f"><path d="M 98 28 L 140 28 L 140 255 L 98 255 Z M 98 28 " clip-rule="nonzero"/></clipPath><clipPath id="b21b55e7d8"><path d="M 16.089844 35.136719 L 16.089844 426.785156 C 16.089844 437.554688 24.820312 446.28125 35.589844 446.28125 L 1376.410156 446.28125 C 1387.179688 446.28125 1395.910156 437.554688 1395.910156 426.785156 L 1395.910156 35.136719 C 1395.910156 24.367188 1387.179688 15.636719 1376.410156 15.636719 L 35.589844 15.636719 C 24.820312 15.636719 16.089844 24.367188 16.089844 35.136719 Z M 16.089844 35.136719 " clip-rule="nonzero"/></clipPath><clipPath id="c182ce83f3"><path d="M 36.890625 16.9375 L 1375.109375 16.9375 C 1385.878906 16.9375 1394.609375 25.667969 1394.609375 36.4375 L 1394.609375 425.484375 C 1394.609375 436.253906 1385.878906 444.980469 1375.109375 444.980469 L 36.890625 444.980469 C 26.121094 444.980469 17.390625 436.253906 17.390625 425.484375 L 17.390625 36.4375 C 17.390625 25.667969 26.121094 16.9375 36.890625 16.9375 Z M 36.890625 16.9375 " clip-rule="nonzero"/></clipPath><clipPath id="c458cfbdbe"><path d="M 92 23 L 145 23 L 145 261 L 92 261 Z M 92 23 " clip-rule="nonzero"/></clipPath><clipPath id="192f199438"><path d="M 16.089844 35.136719 L 16.089844 426.785156 C 16.089844 437.554688 24.820312 446.28125 35.589844 446.28125 L 1376.410156 446.28125 C 1387.179688 446.28125 1395.910156 437.554688 1395.910156 426.785156 L 1395.910156 35.136719 C 1395.910156 24.367188 1387.179688 15.636719 1376.410156 15.636719 L 35.589844 15.636719 C 24.820312 15.636719 16.089844 24.367188 16.089844 35.136719 Z M 16.089844 35.136719 " clip-rule="nonzero"/></clipPath><clipPath id="15edb2e378"><path d="M 36.890625 16.9375 L 1375.109375 16.9375 C 1385.878906 16.9375 1394.609375 25.667969 1394.609375 36.4375 L 1394.609375 425.484375 C 1394.609375 436.253906 1385.878906 444.980469 1375.109375 444.980469 L 36.890625 444.980469 C 26.121094 444.980469 17.390625 436.253906 17.390625 425.484375 L 17.390625 36.4375 C 17.390625 25.667969 26.121094 16.9375 36.890625 16.9375 Z M 36.890625 16.9375 " clip-rule="nonzero"/></clipPath><clipPath id="0716a0a0dd"><path d="M 781 18 L 831 18 L 831 261 L 781 261 Z M 781 18 " clip-rule="nonzero"/></clipPath><clipPath id="cc61f6ebb8"><path d="M 16.089844 35.136719 L 16.089844 426.785156 C 16.089844 437.554688 24.820312 446.28125 35.589844 446.28125 L 1376.410156 446.28125 C 1387.179688 446.28125 1395.910156 437.554688 1395.910156 426.785156 L 1395.910156 35.136719 C 1395.910156 24.367188 1387.179688 15.636719 1376.410156 15.636719 L 35.589844 15.636719 C 24.820312 15.636719 16.089844 24.367188 16.089844 35.136719 Z M 16.089844 35.136719 " clip-rule="nonzero"/></clipPath><clipPath id="cafe3630bc"><path d="M 36.890625 16.9375 L 1375.109375 16.9375 C 1385.878906 16.9375 1394.609375 25.667969 1394.609375 36.4375 L 1394.609375 425.484375 C 1394.609375 436.253906 1385.878906 444.980469 1375.109375 444.980469 L 36.890625 444.980469 C 26.121094 444.980469 17.390625 436.253906 17.390625 425.484375 L 17.390625 36.4375 C 17.390625 25.667969 26.121094 16.9375 36.890625 16.9375 Z M 36.890625 16.9375 " clip-rule="nonzero"/></clipPath><clipPath id="451b03cab7"><path d="M 780 17 L 832 17 L 832 262 L 780 262 Z M 780 17 " clip-rule="nonzero"/></clipPath><clipPath id="e65a4a3f7c"><path d="M 16.089844 35.136719 L 16.089844 426.785156 C 16.089844 437.554688 24.820312 446.28125 35.589844 446.28125 L 1376.410156 446.28125 C 1387.179688 446.28125 1395.910156 437.554688 1395.910156 426.785156 L 1395.910156 35.136719 C 1395.910156 24.367188 1387.179688 15.636719 1376.410156 15.636719 L 35.589844 15.636719 C 24.820312 15.636719 16.089844 24.367188 16.089844 35.136719 Z M 16.089844 35.136719 " clip-rule="nonzero"/></clipPath><clipPath id="f80870c61a"><path d="M 36.890625 16.9375 L 1375.109375 16.9375 C 1385.878906 16.9375 1394.609375 25.667969 1394.609375 36.4375 L 1394.609375 425.484375 C 1394.609375 436.253906 1385.878906 444.980469 1375.109375 444.980469 L 36.890625 444.980469 C 26.121094 444.980469 17.390625 436.253906 17.390625 425.484375 L 17.390625 36.4375 C 17.390625 25.667969 26.121094 16.9375 36.890625 16.9375 Z M 36.890625 16.9375 " clip-rule="nonzero"/></clipPath><clipPath id="6d4d1b8301"><path d="M 879 17 L 929 17 L 929 261 L 879 261 Z M 879 17 " clip-rule="nonzero"/></clipPath><clipPath id="34a8e188b1"><path d="M 16.089844 35.136719 L 16.089844 426.785156 C 16.089844 437.554688 24.820312 446.28125 35.589844 446.28125 L 1376.410156 446.28125 C 1387.179688 446.28125 1395.910156 437.554688 1395.910156 426.785156 L 1395.910156 35.136719 C 1395.910156 24.367188 1387.179688 15.636719 1376.410156 15.636719 L 35.589844 15.636719 C 24.820312 15.636719 16.089844 24.367188 16.089844 35.136719 Z M 16.089844 35.136719 " clip-rule="nonzero"/></clipPath><clipPath id="de619349d2"><path d="M 36.890625 16.9375 L 1375.109375 16.9375 C 1385.878906 16.9375 1394.609375 25.667969 1394.609375 36.4375 L 1394.609375 425.484375 C 1394.609375 436.253906 1385.878906 444.980469 1375.109375 444.980469 L 36.890625 444.980469 C 26.121094 444.980469 17.390625 436.253906 17.390625 425.484375 L 17.390625 36.4375 C 17.390625 25.667969 26.121094 16.9375 36.890625 16.9375 Z M 36.890625 16.9375 " clip-rule="nonzero"/></clipPath><clipPath id="6e3c32fb40"><path d="M 878 17 L 930 17 L 930 262 L 878 262 Z M 878 17 " clip-rule="nonzero"/></clipPath><clipPath id="1e35a75522"><path d="M 16.089844 35.136719 L 16.089844 426.785156 C 16.089844 437.554688 24.820312 446.28125 35.589844 446.28125 L 1376.410156 446.28125 C 1387.179688 446.28125 1395.910156 437.554688 1395.910156 426.785156 L 1395.910156 35.136719 C 1395.910156 24.367188 1387.179688 15.636719 1376.410156 15.636719 L 35.589844 15.636719 C 24.820312 15.636719 16.089844 24.367188 16.089844 35.136719 Z M 16.089844 35.136719 " clip-rule="nonzero"/></clipPath><clipPath id="3b79ea1cf9"><path d="M 36.890625 16.9375 L 1375.109375 16.9375 C 1385.878906 16.9375 1394.609375 25.667969 1394.609375 36.4375 L 1394.609375 425.484375 C 1394.609375 436.253906 1385.878906 444.980469 1375.109375 444.980469 L 36.890625 444.980469 C 26.121094 444.980469 17.390625 436.253906 17.390625 425.484375 L 17.390625 36.4375 C 17.390625 25.667969 26.121094 16.9375 36.890625 16.9375 Z M 36.890625 16.9375 " clip-rule="nonzero"/></clipPath><clipPath id="928e47d62e"><path d="M 1075 17 L 1125 17 L 1125 261 L 1075 261 Z M 1075 17 " clip-rule="nonzero"/></clipPath><clipPath id="6a105adefe"><path d="M 16.089844 35.136719 L 16.089844 426.785156 C 16.089844 437.554688 24.820312 446.28125 35.589844 446.28125 L 1376.410156 446.28125 C 1387.179688 446.28125 1395.910156 437.554688 1395.910156 426.785156 L 1395.910156 35.136719 C 1395.910156 24.367188 1387.179688 15.636719 1376.410156 15.636719 L 35.589844 15.636719 C 24.820312 15.636719 16.089844 24.367188 16.089844 35.136719 Z M 16.089844 35.136719 " clip-rule="nonzero"/></clipPath><clipPath id="e495404092"><path d="M 36.890625 16.9375 L 1375.109375 16.9375 C 1385.878906 16.9375 1394.609375 25.667969 1394.609375 36.4375 L 1394.609375 425.484375 C 1394.609375 436.253906 1385.878906 444.980469 1375.109375 444.980469 L 36.890625 444.980469 C 26.121094 444.980469 17.390625 436.253906 17.390625 425.484375 L 17.390625 36.4375 C 17.390625 25.667969 26.121094 16.9375 36.890625 16.9375 Z M 36.890625 16.9375 " clip-rule="nonzero"/></clipPath><clipPath id="f32751f687"><path d="M 1074 16.722656 L 1126 16.722656 L 1126 261 L 1074 261 Z M 1074 16.722656 " clip-rule="nonzero"/></clipPath><clipPath id="b6808c3771"><path d="M 16.089844 35.136719 L 16.089844 426.785156 C 16.089844 437.554688 24.820312 446.28125 35.589844 446.28125 L 1376.410156 446.28125 C 1387.179688 446.28125 1395.910156 437.554688 1395.910156 426.785156 L 1395.910156 35.136719 C 1395.910156 24.367188 1387.179688 15.636719 1376.410156 15.636719 L 35.589844 15.636719 C 24.820312 15.636719 16.089844 24.367188 16.089844 35.136719 Z M 16.089844 35.136719 " clip-rule="nonzero"/></clipPath><clipPath id="4080812556"><path d="M 36.890625 16.9375 L 1375.109375 16.9375 C 1385.878906 16.9375 1394.609375 25.667969 1394.609375 36.4375 L 1394.609375 425.484375 C 1394.609375 436.253906 1385.878906 444.980469 1375.109375 444.980469 L 36.890625 444.980469 C 26.121094 444.980469 17.390625 436.253906 17.390625 425.484375 L 17.390625 36.4375 C 17.390625 25.667969 26.121094 16.9375 36.890625 16.9375 Z M 36.890625 16.9375 " clip-rule="nonzero"/></clipPath><clipPath id="f77d390b2a"><path d="M 1172 18 L 1223 18 L 1223 262 L 1172 262 Z M 1172 18 " clip-rule="nonzero"/></clipPath><clipPath id="31fc3f2b2f"><path d="M 16.089844 35.136719 L 16.089844 426.785156 C 16.089844 437.554688 24.820312 446.28125 35.589844 446.28125 L 1376.410156 446.28125 C 1387.179688 446.28125 1395.910156 437.554688 1395.910156 426.785156 L 1395.910156 35.136719 C 1395.910156 24.367188 1387.179688 15.636719 1376.410156 15.636719 L 35.589844 15.636719 C 24.820312 15.636719 16.089844 24.367188 16.089844 35.136719 Z M 16.089844 35.136719 " clip-rule="nonzero"/></clipPath><clipPath id="cd9a4d41bd"><path d="M 36.890625 16.9375 L 1375.109375 16.9375 C 1385.878906 16.9375 1394.609375 25.667969 1394.609375 36.4375 L 1394.609375 425.484375 C 1394.609375 436.253906 1385.878906 444.980469 1375.109375 444.980469 L 36.890625 444.980469 C 26.121094 444.980469 17.390625 436.253906 17.390625 425.484375 L 17.390625 36.4375 C 17.390625 25.667969 26.121094 16.9375 36.890625 16.9375 Z M 36.890625 16.9375 " clip-rule="nonzero"/></clipPath><clipPath id="d86a57a6a3"><path d="M 1172 17 L 1223 17 L 1223 262 L 1172 262 Z M 1172 17 " clip-rule="nonzero"/></clipPath><clipPath id="63f9526299"><path d="M 16.089844 35.136719 L 16.089844 426.785156 C 16.089844 437.554688 24.820312 446.28125 35.589844 446.28125 L 1376.410156 446.28125 C 1387.179688 446.28125 1395.910156 437.554688 1395.910156 426.785156 L 1395.910156 35.136719 C 1395.910156 24.367188 1387.179688 15.636719 1376.410156 15.636719 L 35.589844 15.636719 C 24.820312 15.636719 16.089844 24.367188 16.089844 35.136719 Z M 16.089844 35.136719 " clip-rule="nonzero"/></clipPath><clipPath id="41a3f458e1"><path d="M 36.890625 16.9375 L 1375.109375 16.9375 C 1385.878906 16.9375 1394.609375 25.667969 1394.609375 36.4375 L 1394.609375 425.484375 C 1394.609375 436.253906 1385.878906 444.980469 1375.109375 444.980469 L 36.890625 444.980469 C 26.121094 444.980469 17.390625 436.253906 17.390625 425.484375 L 17.390625 36.4375 C 17.390625 25.667969 26.121094 16.9375 36.890625 16.9375 Z M 36.890625 16.9375 " clip-rule="nonzero"/></clipPath><clipPath id="ab4a6d5058"><path d="M 1271 17 L 1322 17 L 1322 261 L 1271 261 Z M 1271 17 " clip-rule="nonzero"/></clipPath><clipPath id="3fa6574043"><path d="M 16.089844 35.136719 L 16.089844 426.785156 C 16.089844 437.554688 24.820312 446.28125 35.589844 446.28125 L 1376.410156 446.28125 C 1387.179688 446.28125 1395.910156 437.554688 1395.910156 426.785156 L 1395.910156 35.136719 C 1395.910156 24.367188 1387.179688 15.636719 1376.410156 15.636719 L 35.589844 15.636719 C 24.820312 15.636719 16.089844 24.367188 16.089844 35.136719 Z M 16.089844 35.136719 " clip-rule="nonzero"/></clipPath><clipPath id="d4b6ca064b"><path d="M 36.890625 16.9375 L 1375.109375 16.9375 C 1385.878906 16.9375 1394.609375 25.667969 1394.609375 36.4375 L 1394.609375 425.484375 C 1394.609375 436.253906 1385.878906 444.980469 1375.109375 444.980469 L 36.890625 444.980469 C 26.121094 444.980469 17.390625 436.253906 17.390625 425.484375 L 17.390625 36.4375 C 17.390625 25.667969 26.121094 16.9375 36.890625 16.9375 Z M 36.890625 16.9375 " clip-rule="nonzero"/></clipPath><clipPath id="e266dcc9c8"><path d="M 1271 17 L 1322 17 L 1322 262 L 1271 262 Z M 1271 17 " clip-rule="nonzero"/></clipPath><clipPath id="fca52082fd"><path d="M 16.089844 35.136719 L 16.089844 426.785156 C 16.089844 437.554688 24.820312 446.28125 35.589844 446.28125 L 1376.410156 446.28125 C 1387.179688 446.28125 1395.910156 437.554688 1395.910156 426.785156 L 1395.910156 35.136719 C 1395.910156 24.367188 1387.179688 15.636719 1376.410156 15.636719 L 35.589844 15.636719 C 24.820312 15.636719 16.089844 24.367188 16.089844 35.136719 Z M 16.089844 35.136719 " clip-rule="nonzero"/></clipPath><clipPath id="3df975a59c"><path d="M 36.890625 16.9375 L 1375.109375 16.9375 C 1385.878906 16.9375 1394.609375 25.667969 1394.609375 36.4375 L 1394.609375 425.484375 C 1394.609375 436.253906 1385.878906 444.980469 1375.109375 444.980469 L 36.890625 444.980469 C 26.121094 444.980469 17.390625 436.253906 17.390625 425.484375 L 17.390625 36.4375 C 17.390625 25.667969 26.121094 16.9375 36.890625 16.9375 Z M 36.890625 16.9375 " clip-rule="nonzero"/></clipPath><clipPath id="7650a8f154"><path d="M 706 16.722656 L 1394.953125 16.722656 L 1394.953125 445 L 706 445 Z M 706 16.722656 " clip-rule="nonzero"/></clipPath><clipPath id="617fd1bf1a"><path d="M 16.089844 35.136719 L 16.089844 426.785156 C 16.089844 437.554688 24.820312 446.28125 35.589844 446.28125 L 1376.410156 446.28125 C 1387.179688 446.28125 1395.910156 437.554688 1395.910156 426.785156 L 1395.910156 35.136719 C 1395.910156 24.367188 1387.179688 15.636719 1376.410156 15.636719 L 35.589844 15.636719 C 24.820312 15.636719 16.089844 24.367188 16.089844 35.136719 Z M 16.089844 35.136719 " clip-rule="nonzero"/></clipPath><clipPath id="304bd71015"><path d="M 36.890625 16.9375 L 1375.109375 16.9375 C 1385.878906 16.9375 1394.609375 25.667969 1394.609375 36.4375 L 1394.609375 425.484375 C 1394.609375 436.253906 1385.878906 444.980469 1375.109375 444.980469 L 36.890625 444.980469 C 26.121094 444.980469 17.390625 436.253906 17.390625 425.484375 L 17.390625 36.4375 C 17.390625 25.667969 26.121094 16.9375 36.890625 16.9375 Z M 36.890625 16.9375 " clip-rule="nonzero"/></clipPath><clipPath id="c4fe7daf76"><path d="M 802 248 L 808 248 L 808 445 L 802 445 Z M 802 248 " clip-rule="nonzero"/></clipPath><clipPath id="d8ab813430"><path d="M 16.089844 35.136719 L 16.089844 426.785156 C 16.089844 437.554688 24.820312 446.28125 35.589844 446.28125 L 1376.410156 446.28125 C 1387.179688 446.28125 1395.910156 437.554688 1395.910156 426.785156 L 1395.910156 35.136719 C 1395.910156 24.367188 1387.179688 15.636719 1376.410156 15.636719 L 35.589844 15.636719 C 24.820312 15.636719 16.089844 24.367188 16.089844 35.136719 Z M 16.089844 35.136719 " clip-rule="nonzero"/></clipPath><clipPath id="5553aaa911"><path d="M 36.890625 16.9375 L 1375.109375 16.9375 C 1385.878906 16.9375 1394.609375 25.667969 1394.609375 36.4375 L 1394.609375 425.484375 C 1394.609375 436.253906 1385.878906 444.980469 1375.109375 444.980469 L 36.890625 444.980469 C 26.121094 444.980469 17.390625 436.253906 17.390625 425.484375 L 17.390625 36.4375 C 17.390625 25.667969 26.121094 16.9375 36.890625 16.9375 Z M 36.890625 16.9375 " clip-rule="nonzero"/></clipPath><clipPath id="945ef6c2c7"><path d="M 901 247 L 907 247 L 907 445 L 901 445 Z M 901 247 " clip-rule="nonzero"/></clipPath><clipPath id="0b865a82d4"><path d="M 16.089844 35.136719 L 16.089844 426.785156 C 16.089844 437.554688 24.820312 446.28125 35.589844 446.28125 L 1376.410156 446.28125 C 1387.179688 446.28125 1395.910156 437.554688 1395.910156 426.785156 L 1395.910156 35.136719 C 1395.910156 24.367188 1387.179688 15.636719 1376.410156 15.636719 L 35.589844 15.636719 C 24.820312 15.636719 16.089844 24.367188 16.089844 35.136719 Z M 16.089844 35.136719 " clip-rule="nonzero"/></clipPath><clipPath id="3d86486547"><path d="M 36.890625 16.9375 L 1375.109375 16.9375 C 1385.878906 16.9375 1394.609375 25.667969 1394.609375 36.4375 L 1394.609375 425.484375 C 1394.609375 436.253906 1385.878906 444.980469 1375.109375 444.980469 L 36.890625 444.980469 C 26.121094 444.980469 17.390625 436.253906 17.390625 425.484375 L 17.390625 36.4375 C 17.390625 25.667969 26.121094 16.9375 36.890625 16.9375 Z M 36.890625 16.9375 " clip-rule="nonzero"/></clipPath><clipPath id="75b986a1b3"><path d="M 1097 248 L 1103 248 L 1103 445 L 1097 445 Z M 1097 248 " clip-rule="nonzero"/></clipPath><clipPath id="7ff4311115"><path d="M 16.089844 35.136719 L 16.089844 426.785156 C 16.089844 437.554688 24.820312 446.28125 35.589844 446.28125 L 1376.410156 446.28125 C 1387.179688 446.28125 1395.910156 437.554688 1395.910156 426.785156 L 1395.910156 35.136719 C 1395.910156 24.367188 1387.179688 15.636719 1376.410156 15.636719 L 35.589844 15.636719 C 24.820312 15.636719 16.089844 24.367188 16.089844 35.136719 Z M 16.089844 35.136719 " clip-rule="nonzero"/></clipPath><clipPath id="b99e3c171a"><path d="M 36.890625 16.9375 L 1375.109375 16.9375 C 1385.878906 16.9375 1394.609375 25.667969 1394.609375 36.4375 L 1394.609375 425.484375 C 1394.609375 436.253906 1385.878906 444.980469 1375.109375 444.980469 L 36.890625 444.980469 C 26.121094 444.980469 17.390625 436.253906 17.390625 425.484375 L 17.390625 36.4375 C 17.390625 25.667969 26.121094 16.9375 36.890625 16.9375 Z M 36.890625 16.9375 " clip-rule="nonzero"/></clipPath><clipPath id="056783e724"><path d="M 1194 248 L 1201 248 L 1201 445 L 1194 445 Z M 1194 248 " clip-rule="nonzero"/></clipPath><clipPath id="dacde606e7"><path d="M 16.089844 35.136719 L 16.089844 426.785156 C 16.089844 437.554688 24.820312 446.28125 35.589844 446.28125 L 1376.410156 446.28125 C 1387.179688 446.28125 1395.910156 437.554688 1395.910156 426.785156 L 1395.910156 35.136719 C 1395.910156 24.367188 1387.179688 15.636719 1376.410156 15.636719 L 35.589844 15.636719 C 24.820312 15.636719 16.089844 24.367188 16.089844 35.136719 Z M 16.089844 35.136719 " clip-rule="nonzero"/></clipPath><clipPath id="df8bc31919"><path d="M 36.890625 16.9375 L 1375.109375 16.9375 C 1385.878906 16.9375 1394.609375 25.667969 1394.609375 36.4375 L 1394.609375 425.484375 C 1394.609375 436.253906 1385.878906 444.980469 1375.109375 444.980469 L 36.890625 444.980469 C 26.121094 444.980469 17.390625 436.253906 17.390625 425.484375 L 17.390625 36.4375 C 17.390625 25.667969 26.121094 16.9375 36.890625 16.9375 Z M 36.890625 16.9375 " clip-rule="nonzero"/></clipPath><clipPath id="082d018a25"><path d="M 1294 248 L 1300 248 L 1300 445 L 1294 445 Z M 1294 248 " clip-rule="nonzero"/></clipPath><clipPath id="bd563b0a29"><path d="M 16.089844 35.136719 L 16.089844 426.785156 C 16.089844 437.554688 24.820312 446.28125 35.589844 446.28125 L 1376.410156 446.28125 C 1387.179688 446.28125 1395.910156 437.554688 1395.910156 426.785156 L 1395.910156 35.136719 C 1395.910156 24.367188 1387.179688 15.636719 1376.410156 15.636719 L 35.589844 15.636719 C 24.820312 15.636719 16.089844 24.367188 16.089844 35.136719 Z M 16.089844 35.136719 " clip-rule="nonzero"/></clipPath><clipPath id="aaa08d97a7"><path d="M 36.890625 16.9375 L 1375.109375 16.9375 C 1385.878906 16.9375 1394.609375 25.667969 1394.609375 36.4375 L 1394.609375 425.484375 C 1394.609375 436.253906 1385.878906 444.980469 1375.109375 444.980469 L 36.890625 444.980469 C 26.121094 444.980469 17.390625 436.253906 17.390625 425.484375 L 17.390625 36.4375 C 17.390625 25.667969 26.121094 16.9375 36.890625 16.9375 Z M 36.890625 16.9375 " clip-rule="nonzero"/></clipPath><clipPath id="9aaecedba3"><path d="M 999 16.722656 L 1005 16.722656 L 1005 445 L 999 445 Z M 999 16.722656 " clip-rule="nonzero"/></clipPath><clipPath id="7768c20e20"><path d="M 16.089844 35.136719 L 16.089844 426.785156 C 16.089844 437.554688 24.820312 446.28125 35.589844 446.28125 L 1376.410156 446.28125 C 1387.179688 446.28125 1395.910156 437.554688 1395.910156 426.785156 L 1395.910156 35.136719 C 1395.910156 24.367188 1387.179688 15.636719 1376.410156 15.636719 L 35.589844 15.636719 C 24.820312 15.636719 16.089844 24.367188 16.089844 35.136719 Z M 16.089844 35.136719 " clip-rule="nonzero"/></clipPath><clipPath id="5de2d7a525"><path d="M 36.890625 16.9375 L 1375.109375 16.9375 C 1385.878906 16.9375 1394.609375 25.667969 1394.609375 36.4375 L 1394.609375 425.484375 C 1394.609375 436.253906 1385.878906 444.980469 1375.109375 444.980469 L 36.890625 444.980469 C 26.121094 444.980469 17.390625 436.253906 17.390625 425.484375 L 17.390625 36.4375 C 17.390625 25.667969 26.121094 16.9375 36.890625 16.9375 Z M 36.890625 16.9375 " clip-rule="nonzero"/></clipPath><clipPath id="7ead00972d"><path d="M 195 25 L 237 25 L 237 253 L 195 253 Z M 195 25 " clip-rule="nonzero"/></clipPath><clipPath id="c09c26b70e"><path d="M 16.089844 35.136719 L 16.089844 426.785156 C 16.089844 437.554688 24.820312 446.28125 35.589844 446.28125 L 1376.410156 446.28125 C 1387.179688 446.28125 1395.910156 437.554688 1395.910156 426.785156 L 1395.910156 35.136719 C 1395.910156 24.367188 1387.179688 15.636719 1376.410156 15.636719 L 35.589844 15.636719 C 24.820312 15.636719 16.089844 24.367188 16.089844 35.136719 Z M 16.089844 35.136719 " clip-rule="nonzero"/></clipPath><clipPath id="3e6507b224"><path d="M 36.890625 16.9375 L 1375.109375 16.9375 C 1385.878906 16.9375 1394.609375 25.667969 1394.609375 36.4375 L 1394.609375 425.484375 C 1394.609375 436.253906 1385.878906 444.980469 1375.109375 444.980469 L 36.890625 444.980469 C 26.121094 444.980469 17.390625 436.253906 17.390625 425.484375 L 17.390625 36.4375 C 17.390625 25.667969 26.121094 16.9375 36.890625 16.9375 Z M 36.890625 16.9375 " clip-rule="nonzero"/></clipPath><clipPath id="8ef0af1879"><path d="M 189 20 L 242 20 L 242 258 L 189 258 Z M 189 20 " clip-rule="nonzero"/></clipPath><clipPath id="5400d225fe"><path d="M 16.089844 35.136719 L 16.089844 426.785156 C 16.089844 437.554688 24.820312 446.28125 35.589844 446.28125 L 1376.410156 446.28125 C 1387.179688 446.28125 1395.910156 437.554688 1395.910156 426.785156 L 1395.910156 35.136719 C 1395.910156 24.367188 1387.179688 15.636719 1376.410156 15.636719 L 35.589844 15.636719 C 24.820312 15.636719 16.089844 24.367188 16.089844 35.136719 Z M 16.089844 35.136719 " clip-rule="nonzero"/></clipPath><clipPath id="48bcc45147"><path d="M 36.890625 16.9375 L 1375.109375 16.9375 C 1385.878906 16.9375 1394.609375 25.667969 1394.609375 36.4375 L 1394.609375 425.484375 C 1394.609375 436.253906 1385.878906 444.980469 1375.109375 444.980469 L 36.890625 444.980469 C 26.121094 444.980469 17.390625 436.253906 17.390625 425.484375 L 17.390625 36.4375 C 17.390625 25.667969 26.121094 16.9375 36.890625 16.9375 Z M 36.890625 16.9375 " clip-rule="nonzero"/></clipPath><clipPath id="3194fe58cf"><path d="M 391 25 L 433 25 L 433 253 L 391 253 Z M 391 25 " clip-rule="nonzero"/></clipPath><clipPath id="748ad36e24"><path d="M 16.089844 35.136719 L 16.089844 426.785156 C 16.089844 437.554688 24.820312 446.28125 35.589844 446.28125 L 1376.410156 446.28125 C 1387.179688 446.28125 1395.910156 437.554688 1395.910156 426.785156 L 1395.910156 35.136719 C 1395.910156 24.367188 1387.179688 15.636719 1376.410156 15.636719 L 35.589844 15.636719 C 24.820312 15.636719 16.089844 24.367188 16.089844 35.136719 Z M 16.089844 35.136719 " clip-rule="nonzero"/></clipPath><clipPath id="5e8d802333"><path d="M 36.890625 16.9375 L 1375.109375 16.9375 C 1385.878906 16.9375 1394.609375 25.667969 1394.609375 36.4375 L 1394.609375 425.484375 C 1394.609375 436.253906 1385.878906 444.980469 1375.109375 444.980469 L 36.890625 444.980469 C 26.121094 444.980469 17.390625 436.253906 17.390625 425.484375 L 17.390625 36.4375 C 17.390625 25.667969 26.121094 16.9375 36.890625 16.9375 Z M 36.890625 16.9375 " clip-rule="nonzero"/></clipPath><clipPath id="60434b6154"><path d="M 386 20 L 439 20 L 439 258 L 386 258 Z M 386 20 " clip-rule="nonzero"/></clipPath><clipPath id="1d31e9e988"><path d="M 16.089844 35.136719 L 16.089844 426.785156 C 16.089844 437.554688 24.820312 446.28125 35.589844 446.28125 L 1376.410156 446.28125 C 1387.179688 446.28125 1395.910156 437.554688 1395.910156 426.785156 L 1395.910156 35.136719 C 1395.910156 24.367188 1387.179688 15.636719 1376.410156 15.636719 L 35.589844 15.636719 C 24.820312 15.636719 16.089844 24.367188 16.089844 35.136719 Z M 16.089844 35.136719 " clip-rule="nonzero"/></clipPath><clipPath id="3dc3b6ddaf"><path d="M 36.890625 16.9375 L 1375.109375 16.9375 C 1385.878906 16.9375 1394.609375 25.667969 1394.609375 36.4375 L 1394.609375 425.484375 C 1394.609375 436.253906 1385.878906 444.980469 1375.109375 444.980469 L 36.890625 444.980469 C 26.121094 444.980469 17.390625 436.253906 17.390625 425.484375 L 17.390625 36.4375 C 17.390625 25.667969 26.121094 16.9375 36.890625 16.9375 Z M 36.890625 16.9375 " clip-rule="nonzero"/></clipPath><clipPath id="06f0d8ec87"><path d="M 487 27 L 529 27 L 529 255 L 487 255 Z M 487 27 " clip-rule="nonzero"/></clipPath><clipPath id="64a2477803"><path d="M 16.089844 35.136719 L 16.089844 426.785156 C 16.089844 437.554688 24.820312 446.28125 35.589844 446.28125 L 1376.410156 446.28125 C 1387.179688 446.28125 1395.910156 437.554688 1395.910156 426.785156 L 1395.910156 35.136719 C 1395.910156 24.367188 1387.179688 15.636719 1376.410156 15.636719 L 35.589844 15.636719 C 24.820312 15.636719 16.089844 24.367188 16.089844 35.136719 Z M 16.089844 35.136719 " clip-rule="nonzero"/></clipPath><clipPath id="fefe9107d3"><path d="M 36.890625 16.9375 L 1375.109375 16.9375 C 1385.878906 16.9375 1394.609375 25.667969 1394.609375 36.4375 L 1394.609375 425.484375 C 1394.609375 436.253906 1385.878906 444.980469 1375.109375 444.980469 L 36.890625 444.980469 C 26.121094 444.980469 17.390625 436.253906 17.390625 425.484375 L 17.390625 36.4375 C 17.390625 25.667969 26.121094 16.9375 36.890625 16.9375 Z M 36.890625 16.9375 " clip-rule="nonzero"/></clipPath><clipPath id="88203d9c46"><path d="M 482 22 L 535 22 L 535 260 L 482 260 Z M 482 22 " clip-rule="nonzero"/></clipPath><clipPath id="fb70f558dc"><path d="M 16.089844 35.136719 L 16.089844 426.785156 C 16.089844 437.554688 24.820312 446.28125 35.589844 446.28125 L 1376.410156 446.28125 C 1387.179688 446.28125 1395.910156 437.554688 1395.910156 426.785156 L 1395.910156 35.136719 C 1395.910156 24.367188 1387.179688 15.636719 1376.410156 15.636719 L 35.589844 15.636719 C 24.820312 15.636719 16.089844 24.367188 16.089844 35.136719 Z M 16.089844 35.136719 " clip-rule="nonzero"/></clipPath><clipPath id="c7f0be44c9"><path d="M 36.890625 16.9375 L 1375.109375 16.9375 C 1385.878906 16.9375 1394.609375 25.667969 1394.609375 36.4375 L 1394.609375 425.484375 C 1394.609375 436.253906 1385.878906 444.980469 1375.109375 444.980469 L 36.890625 444.980469 C 26.121094 444.980469 17.390625 436.253906 17.390625 425.484375 L 17.390625 36.4375 C 17.390625 25.667969 26.121094 16.9375 36.890625 16.9375 Z M 36.890625 16.9375 " clip-rule="nonzero"/></clipPath><clipPath id="dc29f59ff5"><path d="M 587 27 L 629 27 L 629 255 L 587 255 Z M 587 27 " clip-rule="nonzero"/></clipPath><clipPath id="73e678c596"><path d="M 16.089844 35.136719 L 16.089844 426.785156 C 16.089844 437.554688 24.820312 446.28125 35.589844 446.28125 L 1376.410156 446.28125 C 1387.179688 446.28125 1395.910156 437.554688 1395.910156 426.785156 L 1395.910156 35.136719 C 1395.910156 24.367188 1387.179688 15.636719 1376.410156 15.636719 L 35.589844 15.636719 C 24.820312 15.636719 16.089844 24.367188 16.089844 35.136719 Z M 16.089844 35.136719 " clip-rule="nonzero"/></clipPath><clipPath id="d7c8a576b4"><path d="M 36.890625 16.9375 L 1375.109375 16.9375 C 1385.878906 16.9375 1394.609375 25.667969 1394.609375 36.4375 L 1394.609375 425.484375 C 1394.609375 436.253906 1385.878906 444.980469 1375.109375 444.980469 L 36.890625 444.980469 C 26.121094 444.980469 17.390625 436.253906 17.390625 425.484375 L 17.390625 36.4375 C 17.390625 25.667969 26.121094 16.9375 36.890625 16.9375 Z M 36.890625 16.9375 " clip-rule="nonzero"/></clipPath><clipPath id="9baafdeed0"><path d="M 582 22 L 635 22 L 635 260 L 582 260 Z M 582 22 " clip-rule="nonzero"/></clipPath><clipPath id="2666e95798"><path d="M 16.089844 35.136719 L 16.089844 426.785156 C 16.089844 437.554688 24.820312 446.28125 35.589844 446.28125 L 1376.410156 446.28125 C 1387.179688 446.28125 1395.910156 437.554688 1395.910156 426.785156 L 1395.910156 35.136719 C 1395.910156 24.367188 1387.179688 15.636719 1376.410156 15.636719 L 35.589844 15.636719 C 24.820312 15.636719 16.089844 24.367188 16.089844 35.136719 Z M 16.089844 35.136719 " clip-rule="nonzero"/></clipPath><clipPath id="f083de581c"><path d="M 36.890625 16.9375 L 1375.109375 16.9375 C 1385.878906 16.9375 1394.609375 25.667969 1394.609375 36.4375 L 1394.609375 425.484375 C 1394.609375 436.253906 1385.878906 444.980469 1375.109375 444.980469 L 36.890625 444.980469 C 26.121094 444.980469 17.390625 436.253906 17.390625 425.484375 L 17.390625 36.4375 C 17.390625 25.667969 26.121094 16.9375 36.890625 16.9375 Z M 36.890625 16.9375 " clip-rule="nonzero"/></clipPath><clipPath id="d51197543d"><path d="M 785 24 L 827 24 L 827 251 L 785 251 Z M 785 24 " clip-rule="nonzero"/></clipPath><clipPath id="0aa709358a"><path d="M 16.089844 35.136719 L 16.089844 426.785156 C 16.089844 437.554688 24.820312 446.28125 35.589844 446.28125 L 1376.410156 446.28125 C 1387.179688 446.28125 1395.910156 437.554688 1395.910156 426.785156 L 1395.910156 35.136719 C 1395.910156 24.367188 1387.179688 15.636719 1376.410156 15.636719 L 35.589844 15.636719 C 24.820312 15.636719 16.089844 24.367188 16.089844 35.136719 Z M 16.089844 35.136719 " clip-rule="nonzero"/></clipPath><clipPath id="2d43c3622b"><path d="M 36.890625 16.9375 L 1375.109375 16.9375 C 1385.878906 16.9375 1394.609375 25.667969 1394.609375 36.4375 L 1394.609375 425.484375 C 1394.609375 436.253906 1385.878906 444.980469 1375.109375 444.980469 L 36.890625 444.980469 C 26.121094 444.980469 17.390625 436.253906 17.390625 425.484375 L 17.390625 36.4375 C 17.390625 25.667969 26.121094 16.9375 36.890625 16.9375 Z M 36.890625 16.9375 " clip-rule="nonzero"/></clipPath><clipPath id="035ae840fd"><path d="M 780 18 L 833 18 L 833 256 L 780 256 Z M 780 18 " clip-rule="nonzero"/></clipPath><clipPath id="8e6a1c495f"><path d="M 16.089844 35.136719 L 16.089844 426.785156 C 16.089844 437.554688 24.820312 446.28125 35.589844 446.28125 L 1376.410156 446.28125 C 1387.179688 446.28125 1395.910156 437.554688 1395.910156 426.785156 L 1395.910156 35.136719 C 1395.910156 24.367188 1387.179688 15.636719 1376.410156 15.636719 L 35.589844 15.636719 C 24.820312 15.636719 16.089844 24.367188 16.089844 35.136719 Z M 16.089844 35.136719 " clip-rule="nonzero"/></clipPath><clipPath id="22df4dbac8"><path d="M 36.890625 16.9375 L 1375.109375 16.9375 C 1385.878906 16.9375 1394.609375 25.667969 1394.609375 36.4375 L 1394.609375 425.484375 C 1394.609375 436.253906 1385.878906 444.980469 1375.109375 444.980469 L 36.890625 444.980469 C 26.121094 444.980469 17.390625 436.253906 17.390625 425.484375 L 17.390625 36.4375 C 17.390625 25.667969 26.121094 16.9375 36.890625 16.9375 Z M 36.890625 16.9375 " clip-rule="nonzero"/></clipPath><clipPath id="f5442d6d41"><path d="M 885 24 L 927 24 L 927 251 L 885 251 Z M 885 24 " clip-rule="nonzero"/></clipPath><clipPath id="ccaae0a84e"><path d="M 16.089844 35.136719 L 16.089844 426.785156 C 16.089844 437.554688 24.820312 446.28125 35.589844 446.28125 L 1376.410156 446.28125 C 1387.179688 446.28125 1395.910156 437.554688 1395.910156 426.785156 L 1395.910156 35.136719 C 1395.910156 24.367188 1387.179688 15.636719 1376.410156 15.636719 L 35.589844 15.636719 C 24.820312 15.636719 16.089844 24.367188 16.089844 35.136719 Z M 16.089844 35.136719 " clip-rule="nonzero"/></clipPath><clipPath id="d8573ad662"><path d="M 36.890625 16.9375 L 1375.109375 16.9375 C 1385.878906 16.9375 1394.609375 25.667969 1394.609375 36.4375 L 1394.609375 425.484375 C 1394.609375 436.253906 1385.878906 444.980469 1375.109375 444.980469 L 36.890625 444.980469 C 26.121094 444.980469 17.390625 436.253906 17.390625 425.484375 L 17.390625 36.4375 C 17.390625 25.667969 26.121094 16.9375 36.890625 16.9375 Z M 36.890625 16.9375 " clip-rule="nonzero"/></clipPath><clipPath id="60275f2819"><path d="M 880 18 L 933 18 L 933 256 L 880 256 Z M 880 18 " clip-rule="nonzero"/></clipPath><clipPath id="afdf6506e9"><path d="M 16.089844 35.136719 L 16.089844 426.785156 C 16.089844 437.554688 24.820312 446.28125 35.589844 446.28125 L 1376.410156 446.28125 C 1387.179688 446.28125 1395.910156 437.554688 1395.910156 426.785156 L 1395.910156 35.136719 C 1395.910156 24.367188 1387.179688 15.636719 1376.410156 15.636719 L 35.589844 15.636719 C 24.820312 15.636719 16.089844 24.367188 16.089844 35.136719 Z M 16.089844 35.136719 " clip-rule="nonzero"/></clipPath><clipPath id="fe4334eed6"><path d="M 36.890625 16.9375 L 1375.109375 16.9375 C 1385.878906 16.9375 1394.609375 25.667969 1394.609375 36.4375 L 1394.609375 425.484375 C 1394.609375 436.253906 1385.878906 444.980469 1375.109375 444.980469 L 36.890625 444.980469 C 26.121094 444.980469 17.390625 436.253906 17.390625 425.484375 L 17.390625 36.4375 C 17.390625 25.667969 26.121094 16.9375 36.890625 16.9375 Z M 36.890625 16.9375 " clip-rule="nonzero"/></clipPath><clipPath id="cf5633205d"><path d="M 1082 29 L 1124 29 L 1124 256 L 1082 256 Z M 1082 29 " clip-rule="nonzero"/></clipPath><clipPath id="b177d98ce8"><path d="M 16.089844 35.136719 L 16.089844 426.785156 C 16.089844 437.554688 24.820312 446.28125 35.589844 446.28125 L 1376.410156 446.28125 C 1387.179688 446.28125 1395.910156 437.554688 1395.910156 426.785156 L 1395.910156 35.136719 C 1395.910156 24.367188 1387.179688 15.636719 1376.410156 15.636719 L 35.589844 15.636719 C 24.820312 15.636719 16.089844 24.367188 16.089844 35.136719 Z M 16.089844 35.136719 " clip-rule="nonzero"/></clipPath><clipPath id="49aa1ece89"><path d="M 36.890625 16.9375 L 1375.109375 16.9375 C 1385.878906 16.9375 1394.609375 25.667969 1394.609375 36.4375 L 1394.609375 425.484375 C 1394.609375 436.253906 1385.878906 444.980469 1375.109375 444.980469 L 36.890625 444.980469 C 26.121094 444.980469 17.390625 436.253906 17.390625 425.484375 L 17.390625 36.4375 C 17.390625 25.667969 26.121094 16.9375 36.890625 16.9375 Z M 36.890625 16.9375 " clip-rule="nonzero"/></clipPath><clipPath id="9d654673dc"><path d="M 1076 23 L 1129 23 L 1129 262 L 1076 262 Z M 1076 23 " clip-rule="nonzero"/></clipPath><clipPath id="3ee474f58f"><path d="M 16.089844 35.136719 L 16.089844 426.785156 C 16.089844 437.554688 24.820312 446.28125 35.589844 446.28125 L 1376.410156 446.28125 C 1387.179688 446.28125 1395.910156 437.554688 1395.910156 426.785156 L 1395.910156 35.136719 C 1395.910156 24.367188 1387.179688 15.636719 1376.410156 15.636719 L 35.589844 15.636719 C 24.820312 15.636719 16.089844 24.367188 16.089844 35.136719 Z M 16.089844 35.136719 " clip-rule="nonzero"/></clipPath><clipPath id="bcfd385064"><path d="M 36.890625 16.9375 L 1375.109375 16.9375 C 1385.878906 16.9375 1394.609375 25.667969 1394.609375 36.4375 L 1394.609375 425.484375 C 1394.609375 436.253906 1385.878906 444.980469 1375.109375 444.980469 L 36.890625 444.980469 C 26.121094 444.980469 17.390625 436.253906 17.390625 425.484375 L 17.390625 36.4375 C 17.390625 25.667969 26.121094 16.9375 36.890625 16.9375 Z M 36.890625 16.9375 " clip-rule="nonzero"/></clipPath><clipPath id="c082e8b486"><path d="M 1178 31 L 1220 31 L 1220 258 L 1178 258 Z M 1178 31 " clip-rule="nonzero"/></clipPath><clipPath id="2324333ecb"><path d="M 16.089844 35.136719 L 16.089844 426.785156 C 16.089844 437.554688 24.820312 446.28125 35.589844 446.28125 L 1376.410156 446.28125 C 1387.179688 446.28125 1395.910156 437.554688 1395.910156 426.785156 L 1395.910156 35.136719 C 1395.910156 24.367188 1387.179688 15.636719 1376.410156 15.636719 L 35.589844 15.636719 C 24.820312 15.636719 16.089844 24.367188 16.089844 35.136719 Z M 16.089844 35.136719 " clip-rule="nonzero"/></clipPath><clipPath id="4ae51e4f31"><path d="M 36.890625 16.9375 L 1375.109375 16.9375 C 1385.878906 16.9375 1394.609375 25.667969 1394.609375 36.4375 L 1394.609375 425.484375 C 1394.609375 436.253906 1385.878906 444.980469 1375.109375 444.980469 L 36.890625 444.980469 C 26.121094 444.980469 17.390625 436.253906 17.390625 425.484375 L 17.390625 36.4375 C 17.390625 25.667969 26.121094 16.9375 36.890625 16.9375 Z M 36.890625 16.9375 " clip-rule="nonzero"/></clipPath><clipPath id="055c2c38db"><path d="M 1172 25 L 1225 25 L 1225 264 L 1172 264 Z M 1172 25 " clip-rule="nonzero"/></clipPath><clipPath id="5827a9e986"><path d="M 16.089844 35.136719 L 16.089844 426.785156 C 16.089844 437.554688 24.820312 446.28125 35.589844 446.28125 L 1376.410156 446.28125 C 1387.179688 446.28125 1395.910156 437.554688 1395.910156 426.785156 L 1395.910156 35.136719 C 1395.910156 24.367188 1387.179688 15.636719 1376.410156 15.636719 L 35.589844 15.636719 C 24.820312 15.636719 16.089844 24.367188 16.089844 35.136719 Z M 16.089844 35.136719 " clip-rule="nonzero"/></clipPath><clipPath id="4ee6e84143"><path d="M 36.890625 16.9375 L 1375.109375 16.9375 C 1385.878906 16.9375 1394.609375 25.667969 1394.609375 36.4375 L 1394.609375 425.484375 C 1394.609375 436.253906 1385.878906 444.980469 1375.109375 444.980469 L 36.890625 444.980469 C 26.121094 444.980469 17.390625 436.253906 17.390625 425.484375 L 17.390625 36.4375 C 17.390625 25.667969 26.121094 16.9375 36.890625 16.9375 Z M 36.890625 16.9375 " clip-rule="nonzero"/></clipPath><clipPath id="5514ab91c9"><path d="M 1276 29 L 1318 29 L 1318 256 L 1276 256 Z M 1276 29 " clip-rule="nonzero"/></clipPath><clipPath id="7308bdde24"><path d="M 16.089844 35.136719 L 16.089844 426.785156 C 16.089844 437.554688 24.820312 446.28125 35.589844 446.28125 L 1376.410156 446.28125 C 1387.179688 446.28125 1395.910156 437.554688 1395.910156 426.785156 L 1395.910156 35.136719 C 1395.910156 24.367188 1387.179688 15.636719 1376.410156 15.636719 L 35.589844 15.636719 C 24.820312 15.636719 16.089844 24.367188 16.089844 35.136719 Z M 16.089844 35.136719 " clip-rule="nonzero"/></clipPath><clipPath id="be446ed088"><path d="M 36.890625 16.9375 L 1375.109375 16.9375 C 1385.878906 16.9375 1394.609375 25.667969 1394.609375 36.4375 L 1394.609375 425.484375 C 1394.609375 436.253906 1385.878906 444.980469 1375.109375 444.980469 L 36.890625 444.980469 C 26.121094 444.980469 17.390625 436.253906 17.390625 425.484375 L 17.390625 36.4375 C 17.390625 25.667969 26.121094 16.9375 36.890625 16.9375 Z M 36.890625 16.9375 " clip-rule="nonzero"/></clipPath><clipPath id="73d352426c"><path d="M 1271 23 L 1324 23 L 1324 262 L 1271 262 Z M 1271 23 " clip-rule="nonzero"/></clipPath><clipPath id="b9aa322746"><path d="M 16.089844 35.136719 L 16.089844 426.785156 C 16.089844 437.554688 24.820312 446.28125 35.589844 446.28125 L 1376.410156 446.28125 C 1387.179688 446.28125 1395.910156 437.554688 1395.910156 426.785156 L 1395.910156 35.136719 C 1395.910156 24.367188 1387.179688 15.636719 1376.410156 15.636719 L 35.589844 15.636719 C 24.820312 15.636719 16.089844 24.367188 16.089844 35.136719 Z M 16.089844 35.136719 " clip-rule="nonzero"/></clipPath><clipPath id="67a9887610"><path d="M 36.890625 16.9375 L 1375.109375 16.9375 C 1385.878906 16.9375 1394.609375 25.667969 1394.609375 36.4375 L 1394.609375 425.484375 C 1394.609375 436.253906 1385.878906 444.980469 1375.109375 444.980469 L 36.890625 444.980469 C 26.121094 444.980469 17.390625 436.253906 17.390625 425.484375 L 17.390625 36.4375 C 17.390625 25.667969 26.121094 16.9375 36.890625 16.9375 Z M 36.890625 16.9375 " clip-rule="nonzero"/></clipPath><clipPath id="45140f94f0"><path d="M 16.089844 15.636719 L 1396 15.636719 L 1396 445.992188 L 16.089844 445.992188 Z M 16.089844 15.636719 " clip-rule="nonzero"/></clipPath><clipPath id="bbc308187d"><path d="M 16.089844 35.136719 L 16.089844 426.785156 C 16.089844 437.554688 24.820312 446.28125 35.589844 446.28125 L 1376.410156 446.28125 C 1387.179688 446.28125 1395.910156 437.554688 1395.910156 426.785156 L 1395.910156 35.136719 C 1395.910156 24.367188 1387.179688 15.636719 1376.410156 15.636719 L 35.589844 15.636719 C 24.820312 15.636719 16.089844 24.367188 16.089844 35.136719 Z M 16.089844 35.136719 " clip-rule="nonzero"/></clipPath><clipPath id="bacbeaabfc"><path d="M 16.089844 35.136719 L 16.089844 426.78125 C 16.089844 437.550781 24.820312 446.28125 35.589844 446.28125 L 1376.40625 446.28125 C 1387.171875 446.28125 1395.902344 437.550781 1395.902344 426.78125 L 1395.902344 35.136719 C 1395.902344 24.367188 1387.171875 15.636719 1376.40625 15.636719 L 35.589844 15.636719 C 24.820312 15.636719 16.089844 24.367188 16.089844 35.136719 Z M 16.089844 35.136719 " clip-rule="nonzero"/></clipPath><clipPath id="bad9f2f5fb"><path d="M 230.636719 355.300781 L 292.425781 355.300781 L 292.425781 417.089844 L 230.636719 417.089844 Z M 230.636719 355.300781 " clip-rule="nonzero"/></clipPath><clipPath id="0136aca5ae"><path d="M 428.644531 355.300781 L 490.433594 355.300781 L 490.433594 417.089844 L 428.644531 417.089844 Z M 428.644531 355.300781 " clip-rule="nonzero"/></clipPath><clipPath id="b898fb5d6a"><path d="M 626.941406 355.300781 L 688.730469 355.300781 L 688.730469 417.089844 L 626.941406 417.089844 Z M 626.941406 355.300781 " clip-rule="nonzero"/></clipPath><clipPath id="280b0502bd"><rect x="0" width="1412" y="0" height="463"/></clipPath></defs><g clip-path="url(#82f898720e)"><path fill="#ffffff" d="M 0.0976562 0 L 1499.902344 0 L 1499.902344 599.921875 L 0.0976562 599.921875 Z M 0.0976562 0 " fill-opacity="1" fill-rule="nonzero"/><path fill="#ffffff" d="M 0.0976562 0 L 1499.902344 0 L 1499.902344 599.921875 L 0.0976562 599.921875 Z M 0.0976562 0 " fill-opacity="1" fill-rule="nonzero"/></g><g transform="matrix(1, 0, 0, 1, 44, 69)"><g clip-path="url(#280b0502bd)"><g clip-path="url(#d410353ef5)"><g clip-path="url(#bf696dcf58)"><g clip-path="url(#b5241ef8b4)"><path fill="#000000" d="M 91.445312 19.566406 L 140.894531 19.566406 L 140.894531 262.433594 L 91.445312 262.433594 Z M 91.445312 19.566406 " fill-opacity="1" fill-rule="evenodd"/></g></g></g><g clip-path="url(#717bd0a3ae)"><g clip-path="url(#d198b9ada4)"><g clip-path="url(#84e4f56130)"><path stroke-linecap="butt" transform="matrix(0.95616, 0, 0, 0.949784, -14.373634, -141.309181)" fill="none" stroke-linejoin="miter" d="M 110.670726 169.381188 L 162.387182 169.381188 L 162.387182 425.088927 L 110.670726 425.088927 Z M 110.670726 169.381188 " stroke="#000000" stroke-width="1.207" stroke-opacity="1" stroke-miterlimit="4"/></g></g></g><g clip-path="url(#a7839b7df8)"><g clip-path="url(#cac9a53c58)"><g clip-path="url(#e14b60d39a)"><path fill="#000000" d="M 189.347656 19.441406 L 238.796875 19.441406 L 238.796875 262.3125 L 189.347656 262.3125 Z M 189.347656 19.441406 " fill-opacity="1" fill-rule="evenodd"/></g></g></g><g clip-path="url(#62ea1e723f)"><g clip-path="url(#f32bc5d962)"><g clip-path="url(#23df205774)"><path stroke-linecap="butt" transform="matrix(0.95616, 0, 0, 0.949784, -14.373634, -141.309181)" fill="none" stroke-linejoin="miter" d="M 213.061874 169.249579 L 264.77833 169.249579 L 264.77833 424.961431 L 213.061874 424.961431 Z M 213.061874 169.249579 " stroke="#000000" stroke-width="1.207" stroke-opacity="1" stroke-miterlimit="4"/></g></g></g><g clip-path="url(#5d8c8fce46)"><g clip-path="url(#d48c13debd)"><g clip-path="url(#8c3f6af6c0)"><path fill="#000000" d="M 385.464844 18.957031 L 434.914062 18.957031 L 434.914062 261.828125 L 385.464844 261.828125 Z M 385.464844 18.957031 " fill-opacity="1" fill-rule="evenodd"/></g></g></g><g clip-path="url(#cfe35708c9)"><g clip-path="url(#23ccf3739f)"><g clip-path="url(#9ed3fffb3f)"><path stroke-linecap="butt" transform="matrix(0.95616, 0, 0, 0.949784, -14.373634, -141.309181)" fill="none" stroke-linejoin="miter" d="M 418.170999 168.739595 L 469.887455 168.739595 L 469.887455 424.451446 L 418.170999 424.451446 Z M 418.170999 168.739595 " stroke="#000000" stroke-width="1.207" stroke-opacity="1" stroke-miterlimit="4"/></g></g></g><g clip-path="url(#3698ca5eb8)"><g clip-path="url(#15d3ed6f37)"><g clip-path="url(#7f03e4520c)"><path fill="#000000" d="M 482.800781 19.925781 L 532.25 19.925781 L 532.25 262.796875 L 482.800781 262.796875 Z M 482.800781 19.925781 " fill-opacity="1" fill-rule="evenodd"/></g></g></g><g clip-path="url(#49469995f9)"><g clip-path="url(#1901e61a18)"><g clip-path="url(#d55c2297c9)"><path stroke-linecap="butt" transform="matrix(0.95616, 0, 0, 0.949784, -14.373634, -141.309181)" fill="none" stroke-linejoin="miter" d="M 519.969771 169.759563 L 571.686227 169.759563 L 571.686227 425.471415 L 519.969771 425.471415 Z M 519.969771 169.759563 " stroke="#000000" stroke-width="1.207" stroke-opacity="1" stroke-miterlimit="4"/></g></g></g><g clip-path="url(#02358beced)"><g clip-path="url(#d35de28436)"><g clip-path="url(#5713d8477d)"><path fill="#000000" d="M 582.078125 19.441406 L 631.53125 19.441406 L 631.53125 262.3125 L 582.078125 262.3125 Z M 582.078125 19.441406 " fill-opacity="1" fill-rule="evenodd"/></g></g></g><g clip-path="url(#288df74cb3)"><g clip-path="url(#943e5c268a)"><g clip-path="url(#fcd7ec7508)"><path stroke-linecap="butt" transform="matrix(0.95616, 0, 0, 0.949784, -14.373634, -141.309181)" fill="none" stroke-linejoin="miter" d="M 623.798963 169.249579 L 675.519504 169.249579 L 675.519504 424.961431 L 623.798963 424.961431 Z M 623.798963 169.249579 " stroke="#000000" stroke-width="1.207" stroke-opacity="1" stroke-miterlimit="4"/></g></g></g><g clip-path="url(#5cd0021007)"><g clip-path="url(#e60e0b1273)"><g clip-path="url(#e6415e16d1)"><path stroke-linecap="butt" transform="matrix(0.95616, 0, 0, 0.949784, -14.373634, -141.309181)" fill="none" stroke-linejoin="miter" d="M 33.51479 167.949942 L 751.854285 167.949942 L 751.854285 617.089764 L 33.51479 617.089764 Z M 33.51479 167.949942 " stroke="#000000" stroke-width="2.375" stroke-opacity="1" stroke-miterlimit="4"/></g></g></g><g clip-path="url(#3aa118b8dd)"><g clip-path="url(#c02fffe556)"><g clip-path="url(#646262c3a1)"><path stroke-linecap="butt" transform="matrix(2.197362, 0, 0, 2.195677, 3.897432, 0.926799)" fill="none" stroke-linejoin="miter" d="M 50.744887 114.67976 L 50.744887 202.136751 " stroke="#000000" stroke-width="2.375" stroke-opacity="1" stroke-miterlimit="4"/></g></g></g><g clip-path="url(#1849e395cd)"><g clip-path="url(#6312472c1a)"><g clip-path="url(#1c5a2c3867)"><path stroke-linecap="butt" transform="matrix(2.197362, 0, 0, 2.195677, 3.897432, 0.926799)" fill="none" stroke-linejoin="miter" d="M 95.846899 114.259901 L 95.846899 201.715112 " stroke="#000000" stroke-width="2.375" stroke-opacity="1" stroke-miterlimit="4"/></g></g></g><g clip-path="url(#073d76eb78)"><g clip-path="url(#81cdd3bc94)"><g clip-path="url(#fd71cc03ad)"><path stroke-linecap="butt" transform="matrix(2.197362, 0, 0, 2.195677, 3.897432, 0.926799)" fill="none" stroke-linejoin="miter" d="M 184.959414 114.839875 L 184.959414 202.296866 " stroke="#000000" stroke-width="2.375" stroke-opacity="1" stroke-miterlimit="4"/></g></g></g><g clip-path="url(#3a02ab2476)"><g clip-path="url(#80441f7f9d)"><g clip-path="url(#354e4f63b7)"><path stroke-linecap="butt" transform="matrix(2.197362, 0, 0, 2.195677, 3.897432, 0.926799)" fill="none" stroke-linejoin="miter" d="M 229.27035 114.839875 L 229.27035 202.296866 " stroke="#000000" stroke-width="2.375" stroke-opacity="1" stroke-miterlimit="4"/></g></g></g><g clip-path="url(#d6c8a5e1ec)"><g clip-path="url(#7a34a9cf16)"><g clip-path="url(#fe53e83802)"><path stroke-linecap="butt" transform="matrix(2.197362, 0, 0, 2.195677, 3.897432, 0.926799)" fill="none" stroke-linejoin="miter" d="M 274.690569 114.519644 L 274.690569 201.976635 " stroke="#000000" stroke-width="2.375" stroke-opacity="1" stroke-miterlimit="4"/></g></g></g><g clip-path="url(#5d0dff7e05)"><g clip-path="url(#03e7d04e23)"><g clip-path="url(#6e70c43961)"><path stroke-linecap="butt" transform="matrix(2.197362, 0, 0, 2.195677, 3.897432, 0.926799)" fill="none" stroke-linejoin="miter" d="M 140.349825 8.069369 L 140.349825 201.94817 " stroke="#000000" stroke-width="2.375" stroke-opacity="1" stroke-miterlimit="4"/></g></g></g><g clip-path="url(#1c49fea67f)"><g clip-path="url(#b21b55e7d8)"><g clip-path="url(#c182ce83f3)"><path fill="#000000" d="M 98.027344 28.519531 L 139.066406 28.519531 L 139.066406 254.960938 L 98.027344 254.960938 Z M 98.027344 28.519531 " fill-opacity="1" fill-rule="nonzero"/></g></g></g><g clip-path="url(#c458cfbdbe)"><g clip-path="url(#192f199438)"><g clip-path="url(#15edb2e378)"><path stroke-linecap="butt" transform="matrix(2.197362, 0, 0, 2.195677, 3.897432, 0.926799)" fill="none" stroke-linejoin="miter" d="M 42.83768 12.566842 L 61.51419 12.566842 L 61.51419 115.697384 L 42.83768 115.697384 Z M 42.83768 12.566842 " stroke="#000000" stroke-width="5" stroke-opacity="1" stroke-miterlimit="4"/></g></g></g><g clip-path="url(#0716a0a0dd)"><g clip-path="url(#cc61f6ebb8)"><g clip-path="url(#cafe3630bc)"><path fill="#000000" d="M 781.226562 18.066406 L 830.679688 18.066406 L 830.679688 260.933594 L 781.226562 260.933594 Z M 781.226562 18.066406 " fill-opacity="1" fill-rule="evenodd"/></g></g></g><g clip-path="url(#451b03cab7)"><g clip-path="url(#e65a4a3f7c)"><g clip-path="url(#f80870c61a)"><path stroke-linecap="butt" transform="matrix(0.95616, 0, 0, 0.949784, -14.373634, -141.309181)" fill="none" stroke-linejoin="miter" d="M 832.078319 167.801882 L 883.798861 167.801882 L 883.798861 423.509621 L 832.078319 423.509621 Z M 832.078319 167.801882 " stroke="#000000" stroke-width="1.207" stroke-opacity="1" stroke-miterlimit="4"/></g></g></g><g clip-path="url(#6d4d1b8301)"><g clip-path="url(#34a8e188b1)"><g clip-path="url(#de619349d2)"><path fill="#000000" d="M 879.128906 17.941406 L 928.582031 17.941406 L 928.582031 260.808594 L 879.128906 260.808594 Z M 879.128906 17.941406 " fill-opacity="1" fill-rule="evenodd"/></g></g></g><g clip-path="url(#6e3c32fb40)"><g clip-path="url(#1e35a75522)"><g clip-path="url(#3b79ea1cf9)"><path stroke-linecap="butt" transform="matrix(0.95616, 0, 0, 0.949784, -14.373634, -141.309181)" fill="none" stroke-linejoin="miter" d="M 934.469468 167.670273 L 986.190009 167.670273 L 986.190009 423.378012 L 934.469468 423.378012 Z M 934.469468 167.670273 " stroke="#000000" stroke-width="1.207" stroke-opacity="1" stroke-miterlimit="4"/></g></g></g><g clip-path="url(#928e47d62e)"><g clip-path="url(#6a105adefe)"><g clip-path="url(#e495404092)"><path fill="#000000" d="M 1075.265625 17.464844 L 1124.71875 17.464844 L 1124.71875 260.335938 L 1075.265625 260.335938 Z M 1075.265625 17.464844 " fill-opacity="1" fill-rule="evenodd"/></g></g></g><g clip-path="url(#f32751f687)"><g clip-path="url(#b6808c3771)"><g clip-path="url(#4080812556)"><path stroke-linecap="butt" transform="matrix(0.95616, 0, 0, 0.949784, -14.373634, -141.309181)" fill="none" stroke-linejoin="miter" d="M 1139.599019 167.168514 L 1191.319561 167.168514 L 1191.319561 422.880366 L 1139.599019 422.880366 Z M 1139.599019 167.168514 " stroke="#000000" stroke-width="1.207" stroke-opacity="1" stroke-miterlimit="4"/></g></g></g><g clip-path="url(#f77d390b2a)"><g clip-path="url(#31fc3f2b2f)"><g clip-path="url(#cd9a4d41bd)"><path fill="#000000" d="M 1172.605469 18.425781 L 1222.054688 18.425781 L 1222.054688 261.292969 L 1172.605469 261.292969 Z M 1172.605469 18.425781 " fill-opacity="1" fill-rule="evenodd"/></g></g></g><g clip-path="url(#d86a57a6a3)"><g clip-path="url(#63f9526299)"><g clip-path="url(#41a3f458e1)"><path stroke-linecap="butt" transform="matrix(0.95616, 0, 0, 0.949784, -14.373634, -141.309181)" fill="none" stroke-linejoin="miter" d="M 1241.401877 168.180257 L 1293.118333 168.180257 L 1293.118333 423.887996 L 1241.401877 423.887996 Z M 1241.401877 168.180257 " stroke="#000000" stroke-width="1.207" stroke-opacity="1" stroke-miterlimit="4"/></g></g></g><g clip-path="url(#ab4a6d5058)"><g clip-path="url(#3fa6574043)"><g clip-path="url(#d4b6ca064b)"><path fill="#000000" d="M 1271.851562 17.941406 L 1321.304688 17.941406 L 1321.304688 260.808594 L 1271.851562 260.808594 Z M 1271.851562 17.941406 " fill-opacity="1" fill-rule="evenodd"/></g></g></g><g clip-path="url(#e266dcc9c8)"><g clip-path="url(#fca52082fd)"><g clip-path="url(#3df975a59c)"><path stroke-linecap="butt" transform="matrix(0.95616, 0, 0, 0.949784, -14.373634, -141.309181)" fill="none" stroke-linejoin="miter" d="M 1345.198386 167.670273 L 1396.918927 167.670273 L 1396.918927 423.378012 L 1345.198386 423.378012 Z M 1345.198386 167.670273 " stroke="#000000" stroke-width="1.207" stroke-opacity="1" stroke-miterlimit="4"/></g></g></g><g clip-path="url(#7650a8f154)"><g clip-path="url(#617fd1bf1a)"><g clip-path="url(#304bd71015)"><path stroke-linecap="butt" transform="matrix(0.95616, 0, 0, 0.949784, -14.373634, -141.309181)" fill="none" stroke-linejoin="miter" d="M 754.918298 166.370636 L 1473.261879 166.370636 L 1473.261879 615.510458 L 754.918298 615.510458 Z M 754.918298 166.370636 " stroke="#000000" stroke-width="2.375" stroke-opacity="1" stroke-miterlimit="4"/></g></g></g><g clip-path="url(#c4fe7daf76)"><g clip-path="url(#d8ab813430)"><g clip-path="url(#5553aaa911)"><path stroke-linecap="butt" transform="matrix(2.197362, 0, 0, 2.195677, 3.897432, 0.926799)" fill="none" stroke-linejoin="miter" d="M 364.659936 114.000157 L 364.659936 201.455369 " stroke="#000000" stroke-width="2.375" stroke-opacity="1" stroke-miterlimit="4"/></g></g></g><g clip-path="url(#945ef6c2c7)"><g clip-path="url(#0b865a82d4)"><g clip-path="url(#3d86486547)"><path stroke-linecap="butt" transform="matrix(2.197362, 0, 0, 2.195677, 3.897432, 0.926799)" fill="none" stroke-linejoin="miter" d="M 409.76017 113.580298 L 409.76017 201.03551 " stroke="#000000" stroke-width="2.375" stroke-opacity="1" stroke-miterlimit="4"/></g></g></g><g clip-path="url(#75b986a1b3)"><g clip-path="url(#7ff4311115)"><g clip-path="url(#b99e3c171a)"><path stroke-linecap="butt" transform="matrix(2.197362, 0, 0, 2.195677, 3.897432, 0.926799)" fill="none" stroke-linejoin="miter" d="M 498.869131 114.149599 L 498.869131 201.60659 " stroke="#000000" stroke-width="2.375" stroke-opacity="1" stroke-miterlimit="4"/></g></g></g><g clip-path="url(#056783e724)"><g clip-path="url(#dacde606e7)"><g clip-path="url(#df8bc31919)"><path stroke-linecap="butt" transform="matrix(2.197362, 0, 0, 2.195677, 3.897432, 0.926799)" fill="none" stroke-linejoin="miter" d="M 543.190732 114.149599 L 543.190732 201.60659 " stroke="#000000" stroke-width="2.375" stroke-opacity="1" stroke-miterlimit="4"/></g></g></g><g clip-path="url(#082d018a25)"><g clip-path="url(#bd563b0a29)"><g clip-path="url(#aaa08d97a7)"><path stroke-linecap="butt" transform="matrix(2.197362, 0, 0, 2.195677, 3.897432, 0.926799)" fill="none" stroke-linejoin="miter" d="M 588.600286 113.840042 L 588.600286 201.295253 " stroke="#000000" stroke-width="2.375" stroke-opacity="1" stroke-miterlimit="4"/></g></g></g><g clip-path="url(#9aaecedba3)"><g clip-path="url(#7768c20e20)"><g clip-path="url(#5de2d7a525)"><path stroke-linecap="butt" transform="matrix(2.197362, 0, 0, 2.195677, 3.897432, 0.926799)" fill="none" stroke-linejoin="miter" d="M 454.259542 7.386209 L 454.259542 201.266788 " stroke="#000000" stroke-width="2.375" stroke-opacity="1" stroke-miterlimit="4"/></g></g></g><g clip-path="url(#7ead00972d)"><g clip-path="url(#c09c26b70e)"><g clip-path="url(#3e6507b224)"><path fill="#000000" d="M 195.269531 25.847656 L 236.308594 25.847656 L 236.308594 252.289062 L 195.269531 252.289062 Z M 195.269531 25.847656 " fill-opacity="1" fill-rule="nonzero"/></g></g></g><g clip-path="url(#8ef0af1879)"><g clip-path="url(#5400d225fe)"><g clip-path="url(#48bcc45147)"><path stroke-linecap="butt" transform="matrix(2.197362, 0, 0, 2.195677, 3.897432, 0.926799)" fill="none" stroke-linejoin="miter" d="M 87.091729 11.349963 L 105.768239 11.349963 L 105.768239 114.480505 L 87.091729 114.480505 Z M 87.091729 11.349963 " stroke="#000000" stroke-width="5" stroke-opacity="1" stroke-miterlimit="4"/></g></g></g><g clip-path="url(#3194fe58cf)"><g clip-path="url(#748ad36e24)"><g clip-path="url(#5e8d802333)"><path fill="#000000" d="M 391.554688 25.847656 L 432.597656 25.847656 L 432.597656 252.289062 L 391.554688 252.289062 Z M 391.554688 25.847656 " fill-opacity="1" fill-rule="nonzero"/></g></g></g><g clip-path="url(#60434b6154)"><g clip-path="url(#1d31e9e988)"><g clip-path="url(#3dc3b6ddaf)"><path stroke-linecap="butt" transform="matrix(2.197362, 0, 0, 2.195677, 3.897432, 0.926799)" fill="none" stroke-linejoin="miter" d="M 176.419346 11.349963 L 195.097634 11.349963 L 195.097634 114.480505 L 176.419346 114.480505 Z M 176.419346 11.349963 " stroke="#000000" stroke-width="5" stroke-opacity="1" stroke-miterlimit="4"/></g></g></g><g clip-path="url(#06f0d8ec87)"><g clip-path="url(#64a2477803)"><g clip-path="url(#fefe9107d3)"><path fill="#000000" d="M 487.910156 27.628906 L 528.949219 27.628906 L 528.949219 254.070312 L 487.910156 254.070312 Z M 487.910156 27.628906 " fill-opacity="1" fill-rule="nonzero"/></g></g></g><g clip-path="url(#88203d9c46)"><g clip-path="url(#fb70f558dc)"><g clip-path="url(#c7f0be44c9)"><path stroke-linecap="butt" transform="matrix(2.197362, 0, 0, 2.195677, 3.897432, 0.926799)" fill="none" stroke-linejoin="miter" d="M 220.269858 12.161216 L 238.946367 12.161216 L 238.946367 115.291758 L 220.269858 115.291758 Z M 220.269858 12.161216 " stroke="#000000" stroke-width="5" stroke-opacity="1" stroke-miterlimit="4"/></g></g></g><g clip-path="url(#dc29f59ff5)"><g clip-path="url(#73e678c596)"><g clip-path="url(#d7c8a576b4)"><path fill="#000000" d="M 587.824219 27.628906 L 628.863281 27.628906 L 628.863281 254.070312 L 587.824219 254.070312 Z M 587.824219 27.628906 " fill-opacity="1" fill-rule="nonzero"/></g></g></g><g clip-path="url(#9baafdeed0)"><g clip-path="url(#2666e95798)"><g clip-path="url(#f083de581c)"><path stroke-linecap="butt" transform="matrix(2.197362, 0, 0, 2.195677, 3.897432, 0.926799)" fill="none" stroke-linejoin="miter" d="M 265.739853 12.161216 L 284.416363 12.161216 L 284.416363 115.291758 L 265.739853 115.291758 Z M 265.739853 12.161216 " stroke="#000000" stroke-width="5" stroke-opacity="1" stroke-miterlimit="4"/></g></g></g><g clip-path="url(#d51197543d)"><g clip-path="url(#0aa709358a)"><g clip-path="url(#2d43c3622b)"><path fill="#000000" d="M 785.894531 24.066406 L 826.933594 24.066406 L 826.933594 250.503906 L 785.894531 250.503906 Z M 785.894531 24.066406 " fill-opacity="1" fill-rule="nonzero"/></g></g></g><g clip-path="url(#035ae840fd)"><g clip-path="url(#8e6a1c495f)"><g clip-path="url(#22df4dbac8)"><path stroke-linecap="butt" transform="matrix(2.197362, 0, 0, 2.195677, 3.897432, 0.926799)" fill="none" stroke-linejoin="miter" d="M 355.879879 10.53871 L 374.556389 10.53871 L 374.556389 113.667472 L 355.879879 113.667472 Z M 355.879879 10.53871 " stroke="#000000" stroke-width="5" stroke-opacity="1" stroke-miterlimit="4"/></g></g></g><g clip-path="url(#f5442d6d41)"><g clip-path="url(#ccaae0a84e)"><g clip-path="url(#d8573ad662)"><path fill="#000000" d="M 885.832031 24.066406 L 926.871094 24.066406 L 926.871094 250.503906 L 885.832031 250.503906 Z M 885.832031 24.066406 " fill-opacity="1" fill-rule="nonzero"/></g></g></g><g clip-path="url(#60275f2819)"><g clip-path="url(#afdf6506e9)"><g clip-path="url(#fe4334eed6)"><path stroke-linecap="butt" transform="matrix(2.197362, 0, 0, 2.195677, 3.897432, 0.926799)" fill="none" stroke-linejoin="miter" d="M 401.36054 10.53871 L 420.03705 10.53871 L 420.03705 113.667472 L 401.36054 113.667472 Z M 401.36054 10.53871 " stroke="#000000" stroke-width="5" stroke-opacity="1" stroke-miterlimit="4"/></g></g></g><g clip-path="url(#cf5633205d)"><g clip-path="url(#b177d98ce8)"><g clip-path="url(#49aa1ece89)"><path fill="#000000" d="M 1082.097656 29.414062 L 1123.140625 29.414062 L 1123.140625 255.855469 L 1082.097656 255.855469 Z M 1082.097656 29.414062 " fill-opacity="1" fill-rule="nonzero"/></g></g></g><g clip-path="url(#9d654673dc)"><g clip-path="url(#3ee474f58f)"><g clip-path="url(#bcfd385064)"><path stroke-linecap="butt" transform="matrix(2.197362, 0, 0, 2.195677, 3.897432, 0.926799)" fill="none" stroke-linejoin="miter" d="M 490.679269 12.974248 L 509.357557 12.974248 L 509.357557 116.10479 L 490.679269 116.10479 Z M 490.679269 12.974248 " stroke="#000000" stroke-width="5" stroke-opacity="1" stroke-miterlimit="4"/></g></g></g><g clip-path="url(#c082e8b486)"><g clip-path="url(#2324333ecb)"><g clip-path="url(#4ae51e4f31)"><path fill="#000000" d="M 1178.453125 31.195312 L 1219.492188 31.195312 L 1219.492188 257.636719 L 1178.453125 257.636719 Z M 1178.453125 31.195312 " fill-opacity="1" fill-rule="nonzero"/></g></g></g><g clip-path="url(#055c2c38db)"><g clip-path="url(#5827a9e986)"><g clip-path="url(#4ee6e84143)"><path stroke-linecap="butt" transform="matrix(2.197362, 0, 0, 2.195677, 3.897432, 0.926799)" fill="none" stroke-linejoin="miter" d="M 534.529781 13.785501 L 553.20629 13.785501 L 553.20629 116.916043 L 534.529781 116.916043 Z M 534.529781 13.785501 " stroke="#000000" stroke-width="5" stroke-opacity="1" stroke-miterlimit="4"/></g></g></g><g clip-path="url(#5514ab91c9)"><g clip-path="url(#7308bdde24)"><g clip-path="url(#be446ed088)"><path fill="#000000" d="M 1276.609375 29.414062 L 1317.648438 29.414062 L 1317.648438 255.855469 L 1276.609375 255.855469 Z M 1276.609375 29.414062 " fill-opacity="1" fill-rule="nonzero"/></g></g></g><g clip-path="url(#73d352426c)"><g clip-path="url(#b9aa322746)"><g clip-path="url(#67a9887610)"><path stroke-linecap="butt" transform="matrix(2.197362, 0, 0, 2.195677, 3.897432, 0.926799)" fill="none" stroke-linejoin="miter" d="M 579.199811 12.974248 L 597.876321 12.974248 L 597.876321 116.10479 L 579.199811 116.10479 Z M 579.199811 12.974248 " stroke="#000000" stroke-width="5" stroke-opacity="1" stroke-miterlimit="4"/></g></g></g><g clip-path="url(#45140f94f0)"><g clip-path="url(#bbc308187d)"><g clip-path="url(#bacbeaabfc)"><path stroke-linecap="butt" transform="matrix(1.084012, 0, 0, 1.084012, 16.090791, 15.638566)" fill="none" stroke-linejoin="miter" d="M -0.000873444 17.987024 L -0.000873444 379.278656 C -0.000873444 389.213537 8.052974 397.267384 17.987854 397.267384 L 1254.889457 397.267384 C 1264.820734 397.267384 1272.874581 389.213537 1272.874581 379.278656 L 1272.874581 17.987024 C 1272.874581 8.052144 1264.820734 -0.0017039 1254.889457 -0.0017039 L 17.987854 -0.0017039 C 8.052974 -0.0017039 -0.000873444 8.052144 -0.000873444 17.987024 Z M -0.000873444 17.987024 " stroke="#000000" stroke-width="6.91783" stroke-opacity="1" stroke-miterlimit="4"/></g></g></g><g clip-path="url(#bad9f2f5fb)"><path fill="#000000" d="M 261.53125 355.300781 C 244.460938 355.300781 230.636719 369.128906 230.636719 386.195312 C 230.636719 403.265625 244.460938 417.089844 261.53125 417.089844 C 278.597656 417.089844 292.425781 403.265625 292.425781 386.195312 C 292.425781 369.128906 278.597656 355.300781 261.53125 355.300781 Z M 261.53125 355.300781 " fill-opacity="1" fill-rule="nonzero"/></g><g clip-path="url(#0136aca5ae)"><path fill="#000000" d="M 459.539062 355.300781 C 442.472656 355.300781 428.644531 369.128906 428.644531 386.195312 C 428.644531 403.265625 442.472656 417.089844 459.539062 417.089844 C 476.609375 417.089844 490.433594 403.265625 490.433594 386.195312 C 490.433594 369.128906 476.609375 355.300781 459.539062 355.300781 Z M 459.539062 355.300781 " fill-opacity="1" fill-rule="nonzero"/></g><g clip-path="url(#b898fb5d6a)"><path fill="#000000" d="M 657.835938 355.300781 C 640.765625 355.300781 626.941406 369.128906 626.941406 386.195312 C 626.941406 403.265625 640.765625 417.089844 657.835938 417.089844 C 674.90625 417.089844 688.730469 403.265625 688.730469 386.195312 C 688.730469 369.128906 674.90625 355.300781 657.835938 355.300781 Z M 657.835938 355.300781 " fill-opacity="1" fill-rule="nonzero"/></g></g></g></svg>