<svg xmlns="http://www.w3.org/2000/svg" xmlns:xlink="http://www.w3.org/1999/xlink" width="2000" zoomAndPan="magnify" viewBox="0 0 1500 599.999999" height="800" preserveAspectRatio="xMidYMid meet" version="1.0"><defs><clipPath id="bdd81316ab"><path d="M 455 2 L 1142 2 L 1142 429.273438 L 455 429.273438 Z M 455 2 " clip-rule="nonzero"/></clipPath><clipPath id="7073c1a92f"><path d="M 551 234 L 557 234 L 557 429.273438 L 551 429.273438 Z M 551 234 " clip-rule="nonzero"/></clipPath><clipPath id="98af09e162"><path d="M 649 233 L 656 233 L 656 429.273438 L 649 429.273438 Z M 649 233 " clip-rule="nonzero"/></clipPath><clipPath id="e7dda24f86"><path d="M 844 234 L 850 234 L 850 429.273438 L 844 429.273438 Z M 844 234 " clip-rule="nonzero"/></clipPath><clipPath id="0c85b2952c"><path d="M 941 234 L 947 234 L 947 429.273438 L 941 429.273438 Z M 941 234 " clip-rule="nonzero"/></clipPath><clipPath id="86a053610b"><path d="M 1040 233 L 1047 233 L 1047 429.273438 L 1040 429.273438 Z M 1040 233 " clip-rule="nonzero"/></clipPath><clipPath id="bab5e9212e"><path d="M 747 1 L 753 1 L 753 429.273438 L 747 429.273438 Z M 747 1 " clip-rule="nonzero"/></clipPath><clipPath id="d02d26c1dc"><path d="M 1141 0.625 L 1439.875 0.625 L 1439.875 428 L 1141 428 Z M 1141 0.625 " clip-rule="nonzero"/></clipPath><clipPath id="b7ab6098a1"><path d="M 1237 232 L 1243 232 L 1243 429.273438 L 1237 429.273438 Z M 1237 232 " clip-rule="nonzero"/></clipPath><clipPath id="8107cbbc8e"><path d="M 1433 0.625 L 1439 0.625 L 1439 429 L 1433 429 Z M 1433 0.625 " clip-rule="nonzero"/></clipPath><clipPath id="2e433a3f48"><path d="M 60 0.625 L 454 0.625 L 454 428 L 60 428 Z M 60 0.625 " clip-rule="nonzero"/></clipPath><clipPath id="95c9ddfb83"><path d="M 157 233 L 163 233 L 163 429.273438 L 157 429.273438 Z M 157 233 " clip-rule="nonzero"/></clipPath><clipPath id="2bb636a97f"><path d="M 254 233 L 260 233 L 260 429.273438 L 254 429.273438 Z M 254 233 " clip-rule="nonzero"/></clipPath><clipPath id="c066a65ff6"><path d="M 60 0.625 L 66 0.625 L 66 429 L 60 429 Z M 60 0.625 " clip-rule="nonzero"/></clipPath><clipPath id="b2f87dc53d"><path d="M 175.984375 339.121094 L 238.234375 339.121094 L 238.234375 401.371094 L 175.984375 401.371094 Z M 175.984375 339.121094 " clip-rule="nonzero"/></clipPath><clipPath id="30558c9e3c"><path d="M 572.058594 339.121094 L 634.304688 339.121094 L 634.304688 401.371094 L 572.058594 401.371094 Z M 572.058594 339.121094 " clip-rule="nonzero"/></clipPath><clipPath id="4faa65fcc1"><path d="M 374.019531 339.121094 L 436.269531 339.121094 L 436.269531 401.371094 L 374.019531 401.371094 Z M 374.019531 339.121094 " clip-rule="nonzero"/></clipPath><clipPath id="acabddac17"><rect x="0" width="1500" y="0" height="431"/></clipPath></defs><rect x="-150" width="1800" fill="#ffffff" y="-60" height="719.999999" fill-opacity="1"/><rect x="-150" width="1800" fill="#ffffff" y="-60" height="719.999999" fill-opacity="1"/><g transform="matrix(1, 0, 0, 1, 0, 85)"><g clip-path="url(#acabddac17)"><path stroke-linecap="butt" transform="matrix(0.951631, 0, 0, 0.946022, 424.609135, -155.699122)" fill-opacity="1" fill="#000000" fill-rule="evenodd" stroke-linejoin="miter" d="M 110.669624 169.380987 L 162.390038 169.380987 L 162.390038 425.089821 L 110.669624 425.089821 Z M 110.669624 169.380987 " stroke="#000000" stroke-width="1.207" stroke-opacity="1" stroke-miterlimit="4"/><path stroke-linecap="butt" transform="matrix(0.951631, 0, 0, 0.946022, 424.609135, -155.699122)" fill-opacity="1" fill="#000000" fill-rule="evenodd" stroke-linejoin="miter" d="M 213.059624 169.248854 L 264.780038 169.248854 L 264.780038 424.961817 L 213.059624 424.961817 Z M 213.059624 169.248854 " stroke="#000000" stroke-width="1.207" stroke-opacity="1" stroke-miterlimit="4"/><path stroke-linecap="butt" transform="matrix(0.951631, 0, 0, 0.946022, 424.609135, -155.699122)" fill-opacity="1" fill="#000000" fill-rule="evenodd" stroke-linejoin="miter" d="M 418.168009 168.740971 L 469.888422 168.740971 L 469.888422 424.449805 L 418.168009 424.449805 Z M 418.168009 168.740971 " stroke="#000000" stroke-width="1.207" stroke-opacity="1" stroke-miterlimit="4"/><path stroke-linecap="butt" transform="matrix(0.951631, 0, 0, 0.946022, 424.609135, -155.699122)" fill-opacity="1" fill="#000000" fill-rule="evenodd" stroke-linejoin="miter" d="M 519.971023 169.760867 L 571.687332 169.760867 L 571.687332 425.469701 L 519.971023 425.469701 Z M 519.971023 169.760867 " stroke="#000000" stroke-width="1.207" stroke-opacity="1" stroke-miterlimit="4"/><path stroke-linecap="butt" transform="matrix(0.951631, 0, 0, 0.946022, 424.609135, -155.699122)" fill-opacity="1" fill="#000000" fill-rule="evenodd" stroke-linejoin="miter" d="M 623.801807 169.248854 L 675.518116 169.248854 L 675.518116 424.961817 L 623.801807 424.961817 Z M 623.801807 169.248854 " stroke="#000000" stroke-width="1.207" stroke-opacity="1" stroke-miterlimit="4"/><g clip-path="url(#bdd81316ab)"><path stroke-linecap="butt" transform="matrix(0.951631, 0, 0, 0.946022, 424.609135, -155.699122)" fill="none" stroke-linejoin="miter" d="M 33.515902 167.948178 L 751.854984 167.948178 L 751.854984 617.09029 L 33.515902 617.09029 Z M 33.515902 167.948178 " stroke="#000000" stroke-width="2.375" stroke-opacity="1" stroke-miterlimit="4"/></g><g clip-path="url(#7073c1a92f)"><path stroke-linecap="butt" transform="matrix(2.186954, 0, 0, 2.186981, 442.793646, -14.026531)" fill="none" stroke-linejoin="miter" d="M 50.744506 114.680423 L 50.744506 202.135111 " stroke="#000000" stroke-width="2.375" stroke-opacity="1" stroke-miterlimit="4"/></g><g clip-path="url(#98af09e162)"><path stroke-linecap="butt" transform="matrix(2.186954, 0, 0, 2.186981, 442.793646, -14.026531)" fill="none" stroke-linejoin="miter" d="M 95.846841 114.26068 L 95.846841 201.715369 " stroke="#000000" stroke-width="2.375" stroke-opacity="1" stroke-miterlimit="4"/></g><g clip-path="url(#e7dda24f86)"><path stroke-linecap="butt" transform="matrix(2.186954, 0, 0, 2.186981, 442.793646, -14.026531)" fill="none" stroke-linejoin="miter" d="M 184.960167 114.839389 L 184.960167 202.295864 " stroke="#000000" stroke-width="2.375" stroke-opacity="1" stroke-miterlimit="4"/></g><g clip-path="url(#0c85b2952c)"><path stroke-linecap="butt" transform="matrix(2.186954, 0, 0, 2.186981, 442.793646, -14.026531)" fill="none" stroke-linejoin="miter" d="M 229.269447 114.839389 L 229.269447 202.295864 " stroke="#000000" stroke-width="2.375" stroke-opacity="1" stroke-miterlimit="4"/></g><g clip-path="url(#86a053610b)"><path stroke-linecap="butt" transform="matrix(2.186954, 0, 0, 2.186981, 442.793646, -14.026531)" fill="none" stroke-linejoin="miter" d="M 274.689718 114.51967 L 274.689718 201.976145 " stroke="#000000" stroke-width="2.375" stroke-opacity="1" stroke-miterlimit="4"/></g><g clip-path="url(#bab5e9212e)"><path stroke-linecap="butt" transform="matrix(2.186954, 0, 0, 2.186981, 442.793646, -14.026531)" fill="none" stroke-linejoin="miter" d="M 140.350812 8.069401 L 140.350812 201.949353 " stroke="#000000" stroke-width="2.375" stroke-opacity="1" stroke-miterlimit="4"/></g><path stroke-linecap="butt" transform="matrix(2.186954, 0, 0, 2.186981, 442.793646, -14.026531)" fill-opacity="1" fill="#000000" fill-rule="nonzero" stroke-linejoin="miter" d="M 42.837174 12.566897 L 61.513267 12.566897 L 61.513267 115.696735 L 42.837174 115.696735 Z M 42.837174 12.566897 " stroke="#000000" stroke-width="5" stroke-opacity="1" stroke-miterlimit="4"/><path stroke-linecap="butt" transform="matrix(0.951631, 0, 0, 0.946022, 424.609135, -155.699122)" fill-opacity="1" fill="#000000" fill-rule="evenodd" stroke-linejoin="miter" d="M 832.079092 167.799529 L 883.799506 167.799529 L 883.799506 423.508363 L 832.079092 423.508363 Z M 832.079092 167.799529 " stroke="#000000" stroke-width="1.207" stroke-opacity="1" stroke-miterlimit="4"/><path stroke-linecap="butt" transform="matrix(0.951631, 0, 0, 0.946022, 424.609135, -155.699122)" fill-opacity="1" fill="#000000" fill-rule="evenodd" stroke-linejoin="miter" d="M 934.469093 167.671526 L 986.189507 167.671526 L 986.189507 423.38036 L 934.469093 423.38036 Z M 934.469093 167.671526 " stroke="#000000" stroke-width="1.207" stroke-opacity="1" stroke-miterlimit="4"/><g clip-path="url(#d02d26c1dc)"><path stroke-linecap="butt" transform="matrix(0.951631, 0, 0, 0.946022, 424.609135, -155.699122)" fill="none" stroke-linejoin="miter" d="M 754.921265 166.37085 L 1473.260347 166.37085 L 1473.260347 615.508833 L 754.921265 615.508833 Z M 754.921265 166.37085 " stroke="#000000" stroke-width="2.375" stroke-opacity="1" stroke-miterlimit="4"/></g><g clip-path="url(#b7ab6098a1)"><path stroke-linecap="butt" transform="matrix(2.186954, 0, 0, 2.186981, 442.793646, -14.026531)" fill="none" stroke-linejoin="miter" d="M 364.660401 113.999904 L 364.660401 201.456379 " stroke="#000000" stroke-width="2.375" stroke-opacity="1" stroke-miterlimit="4"/></g><path stroke-linecap="butt" transform="matrix(2.186954, 0, 0, 2.186981, 442.793646, -14.026531)" fill="none" stroke-linejoin="miter" d="M 409.759164 113.580162 L 409.759164 201.036636 " stroke="#000000" stroke-width="2.375" stroke-opacity="1" stroke-miterlimit="4"/><g clip-path="url(#8107cbbc8e)"><path stroke-linecap="butt" transform="matrix(2.186954, 0, 0, 2.186981, 442.793646, -14.026531)" fill="none" stroke-linejoin="miter" d="M 454.259563 7.387096 L 454.259563 201.267048 " stroke="#000000" stroke-width="2.375" stroke-opacity="1" stroke-miterlimit="4"/></g><path stroke-linecap="butt" transform="matrix(2.186954, 0, 0, 2.186981, 442.793646, -14.026531)" fill-opacity="1" fill="#000000" fill-rule="nonzero" stroke-linejoin="miter" d="M 87.092869 11.350537 L 105.768962 11.350537 L 105.768962 114.480375 L 87.092869 114.480375 Z M 87.092869 11.350537 " stroke="#000000" stroke-width="5" stroke-opacity="1" stroke-miterlimit="4"/><path stroke-linecap="butt" transform="matrix(2.186954, 0, 0, 2.186981, 442.793646, -14.026531)" fill-opacity="1" fill="#000000" fill-rule="nonzero" stroke-linejoin="miter" d="M 176.420534 11.350537 L 195.096627 11.350537 L 195.096627 114.480375 L 176.420534 114.480375 Z M 176.420534 11.350537 " stroke="#000000" stroke-width="5" stroke-opacity="1" stroke-miterlimit="4"/><path stroke-linecap="butt" transform="matrix(2.186954, 0, 0, 2.186981, 442.793646, -14.026531)" fill-opacity="1" fill="#000000" fill-rule="nonzero" stroke-linejoin="miter" d="M 220.270771 12.161444 L 238.946864 12.161444 L 238.946864 115.291282 L 220.270771 115.291282 Z M 220.270771 12.161444 " stroke="#000000" stroke-width="5" stroke-opacity="1" stroke-miterlimit="4"/><path stroke-linecap="butt" transform="matrix(2.186954, 0, 0, 2.186981, 442.793646, -14.026531)" fill-opacity="1" fill="#000000" fill-rule="nonzero" stroke-linejoin="miter" d="M 265.739269 12.161444 L 284.417148 12.161444 L 284.417148 115.291282 L 265.739269 115.291282 Z M 265.739269 12.161444 " stroke="#000000" stroke-width="5" stroke-opacity="1" stroke-miterlimit="4"/><path stroke-linecap="butt" transform="matrix(2.186954, 0, 0, 2.186981, 442.793646, -14.026531)" fill-opacity="1" fill="#000000" fill-rule="nonzero" stroke-linejoin="miter" d="M 355.879637 10.537844 L 374.557516 10.537844 L 374.557516 113.667682 L 355.879637 113.667682 Z M 355.879637 10.537844 " stroke="#000000" stroke-width="5" stroke-opacity="1" stroke-miterlimit="4"/><path stroke-linecap="butt" transform="matrix(2.186954, 0, 0, 2.186981, 442.793646, -14.026531)" fill-opacity="1" fill="#000000" fill-rule="nonzero" stroke-linejoin="miter" d="M 401.360638 10.537844 L 420.036731 10.537844 L 420.036731 113.667682 L 401.360638 113.667682 Z M 401.360638 10.537844 " stroke="#000000" stroke-width="5" stroke-opacity="1" stroke-miterlimit="4"/><path stroke-linecap="butt" transform="matrix(0.951631, 0, 0, 0.946022, -949.132879, -155.699122)" fill-opacity="1" fill="#000000" fill-rule="evenodd" stroke-linejoin="miter" d="M 1139.601923 167.171901 L 1191.318232 167.171901 L 1191.318232 422.880735 L 1139.601923 422.880735 Z M 1139.601923 167.171901 " stroke="#000000" stroke-width="1.207" stroke-opacity="1" stroke-miterlimit="4"/><path stroke-linecap="butt" transform="matrix(0.951631, 0, 0, 0.946022, -949.132879, -155.699122)" fill-opacity="1" fill="#000000" fill-rule="evenodd" stroke-linejoin="miter" d="M 1241.400833 168.179409 L 1293.117142 168.179409 L 1293.117142 423.888243 L 1241.400833 423.888243 Z M 1241.400833 168.179409 " stroke="#000000" stroke-width="1.207" stroke-opacity="1" stroke-miterlimit="4"/><path stroke-linecap="butt" transform="matrix(0.951631, 0, 0, 0.946022, -949.132879, -155.699122)" fill-opacity="1" fill="#000000" fill-rule="evenodd" stroke-linejoin="miter" d="M 1345.198778 167.671526 L 1396.919192 167.671526 L 1396.919192 423.38036 L 1345.198778 423.38036 Z M 1345.198778 167.671526 " stroke="#000000" stroke-width="1.207" stroke-opacity="1" stroke-miterlimit="4"/><g clip-path="url(#2e433a3f48)"><path stroke-linecap="butt" transform="matrix(0.951631, 0, 0, 0.946022, -949.132879, -155.699122)" fill="none" stroke-linejoin="miter" d="M 754.921082 166.37085 L 1473.260164 166.37085 L 1473.260164 615.508833 L 754.921082 615.508833 Z M 754.921082 166.37085 " stroke="#000000" stroke-width="2.375" stroke-opacity="1" stroke-miterlimit="4"/></g><g clip-path="url(#95c9ddfb83)"><path stroke-linecap="butt" transform="matrix(2.186954, 0, 0, 2.186981, -930.948368, -14.026531)" fill="none" stroke-linejoin="miter" d="M 498.870624 114.14994 L 498.870624 201.606414 " stroke="#000000" stroke-width="2.375" stroke-opacity="1" stroke-miterlimit="4"/></g><g clip-path="url(#2bb636a97f)"><path stroke-linecap="butt" transform="matrix(2.186954, 0, 0, 2.186981, -930.948368, -14.026531)" fill="none" stroke-linejoin="miter" d="M 543.190621 114.14994 L 543.190621 201.606414 " stroke="#000000" stroke-width="2.375" stroke-opacity="1" stroke-miterlimit="4"/></g><path stroke-linecap="butt" transform="matrix(2.186954, 0, 0, 2.186981, -930.948368, -14.026531)" fill="none" stroke-linejoin="miter" d="M 588.600176 113.839152 L 588.600176 201.295626 " stroke="#000000" stroke-width="2.375" stroke-opacity="1" stroke-miterlimit="4"/><g clip-path="url(#c066a65ff6)"><path stroke-linecap="butt" transform="matrix(2.186954, 0, 0, 2.186981, -930.948368, -14.026531)" fill="none" stroke-linejoin="miter" d="M 454.259484 7.387096 L 454.259484 201.267048 " stroke="#000000" stroke-width="2.375" stroke-opacity="1" stroke-miterlimit="4"/></g><path stroke-linecap="butt" transform="matrix(2.186954, 0, 0, 2.186981, -930.948368, -14.026531)" fill-opacity="1" fill="#000000" fill-rule="nonzero" stroke-linejoin="miter" d="M 490.679293 12.974137 L 509.357172 12.974137 L 509.357172 116.103975 L 490.679293 116.103975 Z M 490.679293 12.974137 " stroke="#000000" stroke-width="5" stroke-opacity="1" stroke-miterlimit="4"/><path stroke-linecap="butt" transform="matrix(2.186954, 0, 0, 2.186981, -930.948368, -14.026531)" fill-opacity="1" fill="#000000" fill-rule="nonzero" stroke-linejoin="miter" d="M 534.52953 13.78683 L 553.207408 13.78683 L 553.207408 116.916668 L 534.52953 116.916668 Z M 534.52953 13.78683 " stroke="#000000" stroke-width="5" stroke-opacity="1" stroke-miterlimit="4"/><path stroke-linecap="butt" transform="matrix(2.186954, 0, 0, 2.186981, -930.948368, -14.026531)" fill-opacity="1" fill="#000000" fill-rule="nonzero" stroke-linejoin="miter" d="M 579.199614 12.974137 L 597.877493 12.974137 L 597.877493 116.103975 L 579.199614 116.103975 Z M 579.199614 12.974137 " stroke="#000000" stroke-width="5" stroke-opacity="1" stroke-miterlimit="4"/><g clip-path="url(#b2f87dc53d)"><path fill="#000000" d="M 207.109375 339.121094 C 189.914062 339.121094 175.984375 353.050781 175.984375 370.246094 C 175.984375 387.441406 189.914062 401.371094 207.109375 401.371094 C 224.304688 401.371094 238.234375 387.441406 238.234375 370.246094 C 238.234375 353.050781 224.304688 339.121094 207.109375 339.121094 Z M 207.109375 339.121094 " fill-opacity="1" fill-rule="nonzero"/></g><g clip-path="url(#30558c9e3c)"><path fill="#000000" d="M 603.183594 339.121094 C 585.984375 339.121094 572.058594 353.050781 572.058594 370.246094 C 572.058594 387.441406 585.984375 401.371094 603.183594 401.371094 C 620.378906 401.371094 634.304688 387.441406 634.304688 370.246094 C 634.304688 353.050781 620.378906 339.121094 603.183594 339.121094 Z M 603.183594 339.121094 " fill-opacity="1" fill-rule="nonzero"/></g><g clip-path="url(#4faa65fcc1)"><path fill="#000000" d="M 405.144531 339.121094 C 387.949219 339.121094 374.019531 353.050781 374.019531 370.246094 C 374.019531 387.441406 387.949219 401.371094 405.144531 401.371094 C 422.339844 401.371094 436.269531 387.441406 436.269531 370.246094 C 436.269531 353.050781 422.339844 339.121094 405.144531 339.121094 Z M 405.144531 339.121094 " fill-opacity="1" fill-rule="nonzero"/></g></g></g></svg>