<svg xmlns="http://www.w3.org/2000/svg" xmlns:xlink="http://www.w3.org/1999/xlink" width="2000" zoomAndPan="magnify" viewBox="0 0 1500 1499.999933" height="2000" preserveAspectRatio="xMidYMid meet" version="1.0"><defs><clipPath id="aa03e48f76"><path d="M 441.238281 2 L 1160 2 L 1160 449.21875 L 441.238281 449.21875 Z M 441.238281 2 " clip-rule="nonzero"/></clipPath><clipPath id="0b2c39fb05"><path d="M 541 245 L 548 245 L 548 449.21875 L 541 449.21875 Z M 541 245 " clip-rule="nonzero"/></clipPath><clipPath id="7a4959bf04"><path d="M 645 244 L 651 244 L 651 449.21875 L 645 449.21875 Z M 645 244 " clip-rule="nonzero"/></clipPath><clipPath id="6b1321845c"><path d="M 849 245 L 855 245 L 855 449.21875 L 849 449.21875 Z M 849 245 " clip-rule="nonzero"/></clipPath><clipPath id="af5f9a1471"><path d="M 950 245 L 956 245 L 956 449.21875 L 950 449.21875 Z M 950 245 " clip-rule="nonzero"/></clipPath><clipPath id="1035e4897f"><path d="M 1054 244 L 1060 244 L 1060 449.21875 L 1054 449.21875 Z M 1054 244 " clip-rule="nonzero"/></clipPath><clipPath id="5c7bc3e61c"><path d="M 747 1 L 753 1 L 753 449.21875 L 747 449.21875 Z M 747 1 " clip-rule="nonzero"/></clipPath><clipPath id="b416712016"><path d="M 1160 0.679688 L 1471.886719 0.679688 L 1471.886719 448 L 1160 448 Z M 1160 0.679688 " clip-rule="nonzero"/></clipPath><clipPath id="c058f847e5"><path d="M 1260 243 L 1266 243 L 1266 449.21875 L 1260 449.21875 Z M 1260 243 " clip-rule="nonzero"/></clipPath><clipPath id="1750fdcc39"><path d="M 1465 0.679688 L 1471 0.679688 L 1471 449 L 1465 449 Z M 1465 0.679688 " clip-rule="nonzero"/></clipPath><clipPath id="eaa8be8e46"><path d="M 27.980469 0.679688 L 440.890625 0.679688 L 440.890625 448 L 27.980469 448 Z M 27.980469 0.679688 " clip-rule="nonzero"/></clipPath><clipPath id="3699433a7d"><path d="M 129 243 L 136 243 L 136 449.21875 L 129 449.21875 Z M 129 243 " clip-rule="nonzero"/></clipPath><clipPath id="10c85e6674"><path d="M 231 243 L 237 243 L 237 449.21875 L 231 449.21875 Z M 231 243 " clip-rule="nonzero"/></clipPath><clipPath id="b5f15c51da"><path d="M 27.980469 0.679688 L 34 0.679688 L 34 449 L 27.980469 449 Z M 27.980469 0.679688 " clip-rule="nonzero"/></clipPath><clipPath id="5db75c34ee"><path d="M 149.347656 354.882812 L 214.484375 354.882812 L 214.484375 420.019531 L 149.347656 420.019531 Z M 149.347656 354.882812 " clip-rule="nonzero"/></clipPath><clipPath id="5666cb2bd8"><path d="M 563.800781 354.882812 L 628.9375 354.882812 L 628.9375 420.019531 L 563.800781 420.019531 Z M 563.800781 354.882812 " clip-rule="nonzero"/></clipPath><clipPath id="b02373ebbb"><path d="M 356.574219 354.882812 L 421.710938 354.882812 L 421.710938 420.019531 L 356.574219 420.019531 Z M 356.574219 354.882812 " clip-rule="nonzero"/></clipPath><clipPath id="06d86a8519"><rect x="0" width="1500" y="0" height="451"/></clipPath></defs><g transform="matrix(1, 0, 0, 1, 0, 525)"><g clip-path="url(#06d86a8519)"><path stroke-linecap="butt" transform="matrix(0.995789, 0, 0, 0.98992, 409.510126, -162.900579)" fill-opacity="1" fill="#000000" fill-rule="evenodd" stroke-linejoin="miter" d="M 110.670736 169.381357 L 162.388512 169.381357 L 162.388512 425.091694 L 110.670736 425.091694 Z M 110.670736 169.381357 " stroke="#000000" stroke-width="1.207" stroke-opacity="1" stroke-miterlimit="4"/><path stroke-linecap="butt" transform="matrix(0.995789, 0, 0, 0.98992, 409.510126, -162.900579)" fill-opacity="1" fill="#000000" fill-rule="evenodd" stroke-linejoin="miter" d="M 213.058909 169.251138 L 264.776685 169.251138 L 264.776685 424.961476 L 213.058909 424.961476 Z M 213.058909 169.251138 " stroke="#000000" stroke-width="1.207" stroke-opacity="1" stroke-miterlimit="4"/><path stroke-linecap="butt" transform="matrix(0.995789, 0, 0, 0.98992, 409.510126, -162.900579)" fill-opacity="1" fill="#000000" fill-rule="evenodd" stroke-linejoin="miter" d="M 418.16869 168.738155 L 469.886466 168.738155 L 469.886466 424.448492 L 418.16869 424.448492 Z M 418.16869 168.738155 " stroke="#000000" stroke-width="1.207" stroke-opacity="1" stroke-miterlimit="4"/><path stroke-linecap="butt" transform="matrix(0.995789, 0, 0, 0.98992, 409.510126, -162.900579)" fill-opacity="1" fill="#000000" fill-rule="evenodd" stroke-linejoin="miter" d="M 519.968448 169.760176 L 571.686224 169.760176 L 571.686224 425.470513 L 519.968448 425.470513 Z M 519.968448 169.760176 " stroke="#000000" stroke-width="1.207" stroke-opacity="1" stroke-miterlimit="4"/><path stroke-linecap="butt" transform="matrix(0.995789, 0, 0, 0.98992, 409.510126, -162.900579)" fill-opacity="1" fill="#000000" fill-rule="evenodd" stroke-linejoin="miter" d="M 623.800199 169.251138 L 675.517975 169.251138 L 675.517975 424.961476 L 623.800199 424.961476 Z M 623.800199 169.251138 " stroke="#000000" stroke-width="1.207" stroke-opacity="1" stroke-miterlimit="4"/><g clip-path="url(#aa03e48f76)"><path stroke-linecap="butt" transform="matrix(0.995789, 0, 0, 0.98992, 409.510126, -162.900579)" fill="none" stroke-linejoin="miter" d="M 33.517731 167.94895 L 751.855044 167.94895 L 751.855044 617.089506 L 33.517731 617.089506 Z M 33.517731 167.94895 " stroke="#000000" stroke-width="2.375" stroke-opacity="1" stroke-miterlimit="4"/></g><g clip-path="url(#0b2c39fb05)"><path stroke-linecap="butt" transform="matrix(2.288434, 0, 0, 2.288462, 428.538452, -14.654009)" fill="none" stroke-linejoin="miter" d="M 50.744573 114.679263 L 50.744573 202.135644 " stroke="#000000" stroke-width="2.375" stroke-opacity="1" stroke-miterlimit="4"/></g><g clip-path="url(#7a4959bf04)"><path stroke-linecap="butt" transform="matrix(2.288434, 0, 0, 2.288462, 428.538452, -14.654009)" fill="none" stroke-linejoin="miter" d="M 95.847398 114.259358 L 95.847398 201.715738 " stroke="#000000" stroke-width="2.375" stroke-opacity="1" stroke-miterlimit="4"/></g><g clip-path="url(#6b1321845c)"><path stroke-linecap="butt" transform="matrix(2.288434, 0, 0, 2.288462, 428.538452, -14.654009)" fill="none" stroke-linejoin="miter" d="M 184.960599 114.839715 L 184.960599 202.296095 " stroke="#000000" stroke-width="2.375" stroke-opacity="1" stroke-miterlimit="4"/></g><g clip-path="url(#af5f9a1471)"><path stroke-linecap="butt" transform="matrix(2.288434, 0, 0, 2.288462, 428.538452, -14.654009)" fill="none" stroke-linejoin="miter" d="M 229.269691 114.839715 L 229.269691 202.296095 " stroke="#000000" stroke-width="2.375" stroke-opacity="1" stroke-miterlimit="4"/></g><g clip-path="url(#1035e4897f)"><path stroke-linecap="butt" transform="matrix(2.288434, 0, 0, 2.288462, 428.538452, -14.654009)" fill="none" stroke-linejoin="miter" d="M 274.69001 114.520519 L 274.69001 201.975192 " stroke="#000000" stroke-width="2.375" stroke-opacity="1" stroke-miterlimit="4"/></g><g clip-path="url(#5c7bc3e61c)"><path stroke-linecap="butt" transform="matrix(2.288434, 0, 0, 2.288462, 428.538452, -14.654009)" fill="none" stroke-linejoin="miter" d="M 140.349376 8.069396 L 140.349376 201.949588 " stroke="#000000" stroke-width="2.375" stroke-opacity="1" stroke-miterlimit="4"/></g><path stroke-linecap="butt" transform="matrix(2.288434, 0, 0, 2.288462, 428.538452, -14.654009)" fill-opacity="1" fill="#000000" fill-rule="nonzero" stroke-linejoin="miter" d="M 42.836258 12.567163 L 61.513741 12.567163 L 61.513741 115.696595 L 42.836258 115.696595 Z M 42.836258 12.567163 " stroke="#000000" stroke-width="5" stroke-opacity="1" stroke-miterlimit="4"/><path stroke-linecap="butt" transform="matrix(0.995789, 0, 0, 0.98992, 409.510126, -162.900579)" fill-opacity="1" fill="#000000" fill-rule="evenodd" stroke-linejoin="miter" d="M 832.079577 167.799001 L 883.797353 167.799001 L 883.797353 423.509338 L 832.079577 423.509338 Z M 832.079577 167.799001 " stroke="#000000" stroke-width="1.207" stroke-opacity="1" stroke-miterlimit="4"/><path stroke-linecap="butt" transform="matrix(0.995789, 0, 0, 0.98992, 409.510126, -162.900579)" fill-opacity="1" fill="#000000" fill-rule="evenodd" stroke-linejoin="miter" d="M 934.471672 167.668782 L 986.189448 167.668782 L 986.189448 423.379119 L 934.471672 423.379119 Z M 934.471672 167.668782 " stroke="#000000" stroke-width="1.207" stroke-opacity="1" stroke-miterlimit="4"/><g clip-path="url(#b416712016)"><path stroke-linecap="butt" transform="matrix(0.995789, 0, 0, 0.98992, 409.510126, -162.900579)" fill="none" stroke-linejoin="miter" d="M 754.918726 166.37054 L 1473.259962 166.37054 L 1473.259962 615.511096 L 754.918726 615.511096 Z M 754.918726 166.37054 " stroke="#000000" stroke-width="2.375" stroke-opacity="1" stroke-miterlimit="4"/></g><g clip-path="url(#c058f847e5)"><path stroke-linecap="butt" transform="matrix(2.288434, 0, 0, 2.288462, 428.538452, -14.654009)" fill="none" stroke-linejoin="miter" d="M 364.660101 113.999904 L 364.660101 201.456285 " stroke="#000000" stroke-width="2.375" stroke-opacity="1" stroke-miterlimit="4"/></g><path stroke-linecap="butt" transform="matrix(2.288434, 0, 0, 2.288462, 428.538452, -14.654009)" fill="none" stroke-linejoin="miter" d="M 409.759513 113.579999 L 409.759513 201.036379 " stroke="#000000" stroke-width="2.375" stroke-opacity="1" stroke-miterlimit="4"/><g clip-path="url(#1750fdcc39)"><path stroke-linecap="butt" transform="matrix(2.288434, 0, 0, 2.288462, 428.538452, -14.654009)" fill="none" stroke-linejoin="miter" d="M 454.259784 7.386624 L 454.259784 201.266815 " stroke="#000000" stroke-width="2.375" stroke-opacity="1" stroke-miterlimit="4"/></g><path stroke-linecap="butt" transform="matrix(2.288434, 0, 0, 2.288462, 428.538452, -14.654009)" fill-opacity="1" fill="#000000" fill-rule="nonzero" stroke-linejoin="miter" d="M 87.092435 11.35012 L 105.76821 11.35012 L 105.76821 114.479552 L 87.092435 114.479552 Z M 87.092435 11.35012 " stroke="#000000" stroke-width="5" stroke-opacity="1" stroke-miterlimit="4"/><path stroke-linecap="butt" transform="matrix(2.288434, 0, 0, 2.288462, 428.538452, -14.654009)" fill-opacity="1" fill="#000000" fill-rule="nonzero" stroke-linejoin="miter" d="M 176.420712 11.35012 L 195.096487 11.35012 L 195.096487 114.479552 L 176.420712 114.479552 Z M 176.420712 11.35012 " stroke="#000000" stroke-width="5" stroke-opacity="1" stroke-miterlimit="4"/><path stroke-linecap="butt" transform="matrix(2.288434, 0, 0, 2.288462, 428.538452, -14.654009)" fill-opacity="1" fill="#000000" fill-rule="nonzero" stroke-linejoin="miter" d="M 220.270634 12.16262 L 238.946409 12.16262 L 238.946409 115.292052 L 220.270634 115.292052 Z M 220.270634 12.16262 " stroke="#000000" stroke-width="5" stroke-opacity="1" stroke-miterlimit="4"/><path stroke-linecap="butt" transform="matrix(2.288434, 0, 0, 2.288462, 428.538452, -14.654009)" fill-opacity="1" fill="#000000" fill-rule="nonzero" stroke-linejoin="miter" d="M 265.740454 12.16262 L 284.416229 12.16262 L 284.416229 115.292052 L 265.740454 115.292052 Z M 265.740454 12.16262 " stroke="#000000" stroke-width="5" stroke-opacity="1" stroke-miterlimit="4"/><path stroke-linecap="butt" transform="matrix(2.288434, 0, 0, 2.288462, 428.538452, -14.654009)" fill-opacity="1" fill="#000000" fill-rule="nonzero" stroke-linejoin="miter" d="M 355.879534 10.53762 L 374.557016 10.53762 L 374.557016 113.66876 L 355.879534 113.66876 Z M 355.879534 10.53762 " stroke="#000000" stroke-width="5" stroke-opacity="1" stroke-miterlimit="4"/><path stroke-linecap="butt" transform="matrix(2.288434, 0, 0, 2.288462, 428.538452, -14.654009)" fill-opacity="1" fill="#000000" fill-rule="nonzero" stroke-linejoin="miter" d="M 401.359596 10.53762 L 420.037078 10.53762 L 420.037078 113.66876 L 401.359596 113.66876 Z M 401.359596 10.53762 " stroke="#000000" stroke-width="5" stroke-opacity="1" stroke-miterlimit="4"/><path stroke-linecap="butt" transform="matrix(0.995789, 0, 0, 0.98992, -1027.97707, -162.900579)" fill-opacity="1" fill="#000000" fill-rule="evenodd" stroke-linejoin="miter" d="M 1139.599978 167.171583 L 1191.317754 167.171583 L 1191.317754 422.88192 L 1139.599978 422.88192 Z M 1139.599978 167.171583 " stroke="#000000" stroke-width="1.207" stroke-opacity="1" stroke-miterlimit="4"/><path stroke-linecap="butt" transform="matrix(0.995789, 0, 0, 0.98992, -1027.97707, -162.900579)" fill-opacity="1" fill="#000000" fill-rule="evenodd" stroke-linejoin="miter" d="M 1241.399735 168.181766 L 1293.117511 168.181766 L 1293.117511 423.888157 L 1241.399735 423.888157 Z M 1241.399735 168.181766 " stroke="#000000" stroke-width="1.207" stroke-opacity="1" stroke-miterlimit="4"/><path stroke-linecap="butt" transform="matrix(0.995789, 0, 0, 0.98992, -1027.97707, -162.900579)" fill-opacity="1" fill="#000000" fill-rule="evenodd" stroke-linejoin="miter" d="M 1345.200105 167.668782 L 1396.917881 167.668782 L 1396.917881 423.379119 L 1345.200105 423.379119 Z M 1345.200105 167.668782 " stroke="#000000" stroke-width="1.207" stroke-opacity="1" stroke-miterlimit="4"/><g clip-path="url(#eaa8be8e46)"><path stroke-linecap="butt" transform="matrix(0.995789, 0, 0, 0.98992, -1027.97707, -162.900579)" fill="none" stroke-linejoin="miter" d="M 754.921559 166.37054 L 1473.258873 166.37054 L 1473.258873 615.511096 L 754.921559 615.511096 Z M 754.921559 166.37054 " stroke="#000000" stroke-width="2.375" stroke-opacity="1" stroke-miterlimit="4"/></g><g clip-path="url(#3699433a7d)"><path stroke-linecap="butt" transform="matrix(2.288434, 0, 0, 2.288462, -1008.948744, -14.654009)" fill="none" stroke-linejoin="miter" d="M 498.870532 114.150114 L 498.870532 201.606495 " stroke="#000000" stroke-width="2.375" stroke-opacity="1" stroke-miterlimit="4"/></g><g clip-path="url(#10c85e6674)"><path stroke-linecap="butt" transform="matrix(2.288434, 0, 0, 2.288462, -1008.948744, -14.654009)" fill="none" stroke-linejoin="miter" d="M 543.189866 114.150114 L 543.189866 201.606495 " stroke="#000000" stroke-width="2.375" stroke-opacity="1" stroke-miterlimit="4"/></g><path stroke-linecap="butt" transform="matrix(2.288434, 0, 0, 2.288462, -1008.948744, -14.654009)" fill="none" stroke-linejoin="miter" d="M 588.599943 113.839453 L 588.599943 201.295833 " stroke="#000000" stroke-width="2.375" stroke-opacity="1" stroke-miterlimit="4"/><g clip-path="url(#b5f15c51da)"><path stroke-linecap="butt" transform="matrix(2.288434, 0, 0, 2.288462, -1008.948744, -14.654009)" fill="none" stroke-linejoin="miter" d="M 454.25931 7.386624 L 454.25931 201.266815 " stroke="#000000" stroke-width="2.375" stroke-opacity="1" stroke-miterlimit="4"/></g><path stroke-linecap="butt" transform="matrix(2.288434, 0, 0, 2.288462, -1008.948744, -14.654009)" fill-opacity="1" fill="#000000" fill-rule="nonzero" stroke-linejoin="miter" d="M 490.680571 12.973413 L 509.356346 12.973413 L 509.356346 116.104552 L 490.680571 116.104552 Z M 490.680571 12.973413 " stroke="#000000" stroke-width="5" stroke-opacity="1" stroke-miterlimit="4"/><path stroke-linecap="butt" transform="matrix(2.288434, 0, 0, 2.288462, -1008.948744, -14.654009)" fill-opacity="1" fill="#000000" fill-rule="nonzero" stroke-linejoin="miter" d="M 534.530493 13.785913 L 553.206268 13.785913 L 553.206268 116.915345 L 534.530493 116.915345 Z M 534.530493 13.785913 " stroke="#000000" stroke-width="5" stroke-opacity="1" stroke-miterlimit="4"/><path stroke-linecap="butt" transform="matrix(2.288434, 0, 0, 2.288462, -1008.948744, -14.654009)" fill-opacity="1" fill="#000000" fill-rule="nonzero" stroke-linejoin="miter" d="M 579.199752 12.973413 L 597.877234 12.973413 L 597.877234 116.104552 L 579.199752 116.104552 Z M 579.199752 12.973413 " stroke="#000000" stroke-width="5" stroke-opacity="1" stroke-miterlimit="4"/><g clip-path="url(#5db75c34ee)"><path fill="#000000" d="M 181.917969 354.882812 C 163.921875 354.882812 149.347656 369.457031 149.347656 387.449219 C 149.347656 405.445312 163.921875 420.019531 181.917969 420.019531 C 199.910156 420.019531 214.484375 405.445312 214.484375 387.449219 C 214.484375 369.457031 199.910156 354.882812 181.917969 354.882812 Z M 181.917969 354.882812 " fill-opacity="1" fill-rule="nonzero"/></g><g clip-path="url(#5666cb2bd8)"><path fill="#000000" d="M 596.371094 354.882812 C 578.375 354.882812 563.800781 369.457031 563.800781 387.449219 C 563.800781 405.445312 578.375 420.019531 596.371094 420.019531 C 614.363281 420.019531 628.9375 405.445312 628.9375 387.449219 C 628.9375 369.457031 614.363281 354.882812 596.371094 354.882812 Z M 596.371094 354.882812 " fill-opacity="1" fill-rule="nonzero"/></g><g clip-path="url(#b02373ebbb)"><path fill="#000000" d="M 389.144531 354.882812 C 371.148438 354.882812 356.574219 369.457031 356.574219 387.449219 C 356.574219 405.445312 371.148438 420.019531 389.144531 420.019531 C 407.136719 420.019531 421.710938 405.445312 421.710938 387.449219 C 421.710938 369.457031 407.136719 354.882812 389.144531 354.882812 Z M 389.144531 354.882812 " fill-opacity="1" fill-rule="nonzero"/></g></g></g></svg>