<svg xmlns="http://www.w3.org/2000/svg" xmlns:xlink="http://www.w3.org/1999/xlink" width="2000" zoomAndPan="magnify" viewBox="0 0 1500 1499.999933" height="2000" preserveAspectRatio="xMidYMid meet" version="1.0"><defs><clipPath id="6c0e729c73"><path d="M 410.035156 2 L 1122 2 L 1122 445.554688 L 410.035156 445.554688 Z M 410.035156 2 " clip-rule="nonzero"/></clipPath><clipPath id="c02d36dc1e"><path d="M 509 243 L 516 243 L 516 445.554688 L 509 445.554688 Z M 509 243 " clip-rule="nonzero"/></clipPath><clipPath id="feb9ea3c99"><path d="M 612 242 L 618 242 L 618 445.554688 L 612 445.554688 Z M 612 242 " clip-rule="nonzero"/></clipPath><clipPath id="23352b98c5"><path d="M 814 243 L 820 243 L 820 445.554688 L 814 445.554688 Z M 814 243 " clip-rule="nonzero"/></clipPath><clipPath id="d7de665f3d"><path d="M 914 243 L 921 243 L 921 445.554688 L 914 445.554688 Z M 914 243 " clip-rule="nonzero"/></clipPath><clipPath id="779c512e7c"><path d="M 1017 242 L 1024 242 L 1024 445.554688 L 1017 445.554688 Z M 1017 242 " clip-rule="nonzero"/></clipPath><clipPath id="54cff6cc0d"><path d="M 713 1 L 719 1 L 719 445.554688 L 713 445.554688 Z M 713 1 " clip-rule="nonzero"/></clipPath><clipPath id="c1f11081e4"><path d="M 1122 0.710938 L 1431.457031 0.710938 L 1431.457031 444 L 1122 444 Z M 1122 0.710938 " clip-rule="nonzero"/></clipPath><clipPath id="094212734b"><path d="M 1221 241 L 1228 241 L 1228 445.554688 L 1221 445.554688 Z M 1221 241 " clip-rule="nonzero"/></clipPath><clipPath id="4796ecc875"><path d="M 1424 0.710938 L 1431 0.710938 L 1431 445 L 1424 445 Z M 1424 0.710938 " clip-rule="nonzero"/></clipPath><clipPath id="4975d474f9"><path d="M 0.523438 0.710938 L 409.691406 0.710938 L 409.691406 444 L 0.523438 444 Z M 0.523438 0.710938 " clip-rule="nonzero"/></clipPath><clipPath id="fc83ecb028"><path d="M 101 241 L 107 241 L 107 445.554688 L 101 445.554688 Z M 101 241 " clip-rule="nonzero"/></clipPath><clipPath id="391ea62beb"><path d="M 202 241 L 208 241 L 208 445.554688 L 202 445.554688 Z M 202 241 " clip-rule="nonzero"/></clipPath><clipPath id="d7a1e9d3b1"><path d="M 305 241 L 311 241 L 311 445.554688 L 305 445.554688 Z M 305 241 " clip-rule="nonzero"/></clipPath><clipPath id="f987259658"><path d="M 0.523438 0.710938 L 6 0.710938 L 6 445 L 0.523438 445 Z M 0.523438 0.710938 " clip-rule="nonzero"/></clipPath><clipPath id="6ac800572d"><path d="M 120.789062 351.703125 L 184.746094 351.703125 L 184.746094 415.664062 L 120.789062 415.664062 Z M 120.789062 351.703125 " clip-rule="nonzero"/></clipPath><clipPath id="f95bdeec48"><path d="M 531.488281 351.703125 L 595.445312 351.703125 L 595.445312 415.664062 L 531.488281 415.664062 Z M 531.488281 351.703125 " clip-rule="nonzero"/></clipPath><clipPath id="c23df97906"><path d="M 277.460938 178.367188 L 340 178.367188 L 340 241 L 277.460938 241 Z M 277.460938 178.367188 " clip-rule="nonzero"/></clipPath><clipPath id="2f2de83468"><path d="M 276.503906 209.503906 C 276.503906 227.226562 290.875 241.59375 308.597656 241.59375 C 326.320312 241.59375 340.6875 227.226562 340.6875 209.503906 C 340.6875 191.78125 326.320312 177.410156 308.597656 177.410156 C 290.875 177.410156 276.503906 191.78125 276.503906 209.503906 Z M 276.503906 209.503906 " clip-rule="nonzero"/></clipPath><clipPath id="54a12d336c"><path d="M 308.597656 178.558594 C 325.6875 178.558594 339.542969 192.410156 339.542969 209.503906 C 339.542969 226.59375 325.6875 240.449219 308.597656 240.449219 C 291.507812 240.449219 277.652344 226.59375 277.652344 209.503906 C 277.652344 192.410156 291.507812 178.558594 308.597656 178.558594 Z M 308.597656 178.558594 " clip-rule="nonzero"/></clipPath><clipPath id="91564225fa"><path d="M 276.503906 177.410156 L 340.464844 177.410156 L 340.464844 241.371094 L 276.503906 241.371094 Z M 276.503906 177.410156 " clip-rule="nonzero"/></clipPath><clipPath id="af068bc4a7"><path d="M 276.503906 209.503906 C 276.503906 227.226562 290.875 241.59375 308.597656 241.59375 C 326.320312 241.59375 340.6875 227.226562 340.6875 209.503906 C 340.6875 191.78125 326.320312 177.410156 308.597656 177.410156 C 290.875 177.410156 276.503906 191.78125 276.503906 209.503906 Z M 276.503906 209.503906 " clip-rule="nonzero"/></clipPath><clipPath id="6c740c1c0c"><path d="M 276.503906 209.503906 C 276.503906 227.226562 290.875 241.59375 308.597656 241.59375 C 326.320312 241.59375 340.6875 227.226562 340.6875 209.503906 C 340.6875 191.777344 326.320312 177.410156 308.597656 177.410156 C 290.875 177.410156 276.503906 191.777344 276.503906 209.503906 Z M 276.503906 209.503906 " clip-rule="nonzero"/></clipPath><clipPath id="dab7730b53"><rect x="0" width="1466" y="0" height="446"/></clipPath></defs><g transform="matrix(1, 0, 0, 1, 34, 527)"><g clip-path="url(#dab7730b53)"><path stroke-linecap="butt" transform="matrix(0.986867, 0, 0, 0.981764, 378.591901, -161.520832)" fill-opacity="1" fill="#000000" fill-rule="evenodd" stroke-linejoin="miter" d="M 110.670177 169.379153 L 162.388481 169.379153 L 162.388481 425.089142 L 110.670177 425.089142 Z M 110.670177 169.379153 " stroke="#000000" stroke-width="1.207" stroke-opacity="1" stroke-miterlimit="4"/><path stroke-linecap="butt" transform="matrix(0.986867, 0, 0, 0.981764, 378.591901, -161.520832)" fill-opacity="1" fill="#000000" fill-rule="evenodd" stroke-linejoin="miter" d="M 213.06181 169.251831 L 264.776156 169.251831 L 264.776156 424.96182 L 213.06181 424.96182 Z M 213.06181 169.251831 " stroke="#000000" stroke-width="1.207" stroke-opacity="1" stroke-miterlimit="4"/><path stroke-linecap="butt" transform="matrix(0.986867, 0, 0, 0.981764, 378.591901, -161.520832)" fill-opacity="1" fill="#000000" fill-rule="evenodd" stroke-linejoin="miter" d="M 418.169652 168.738565 L 469.887955 168.738565 L 469.887955 424.448554 L 418.169652 424.448554 Z M 418.169652 168.738565 " stroke="#000000" stroke-width="1.207" stroke-opacity="1" stroke-miterlimit="4"/><path stroke-linecap="butt" transform="matrix(0.986867, 0, 0, 0.981764, 378.591901, -161.520832)" fill-opacity="1" fill="#000000" fill-rule="evenodd" stroke-linejoin="miter" d="M 519.971508 169.761119 L 571.689811 169.761119 L 571.689811 425.471108 L 519.971508 425.471108 Z M 519.971508 169.761119 " stroke="#000000" stroke-width="1.207" stroke-opacity="1" stroke-miterlimit="4"/><path stroke-linecap="butt" transform="matrix(0.986867, 0, 0, 0.981764, 378.591901, -161.520832)" fill-opacity="1" fill="#000000" fill-rule="evenodd" stroke-linejoin="miter" d="M 623.79998 169.251831 L 675.518284 169.251831 L 675.518284 424.96182 L 623.79998 424.96182 Z M 623.79998 169.251831 " stroke="#000000" stroke-width="1.207" stroke-opacity="1" stroke-miterlimit="4"/><g clip-path="url(#6c0e729c73)"><path stroke-linecap="butt" transform="matrix(0.986867, 0, 0, 0.981764, 378.591901, -161.520832)" fill="none" stroke-linejoin="miter" d="M 33.516253 167.950761 L 751.856812 167.950761 L 751.856812 617.090469 L 33.516253 617.090469 Z M 33.516253 167.950761 " stroke="#000000" stroke-width="2.375" stroke-opacity="1" stroke-miterlimit="4"/></g><g clip-path="url(#c02d36dc1e)"><path stroke-linecap="butt" transform="matrix(2.267929, 0, 0, 2.269607, 397.449743, -14.49565)" fill="none" stroke-linejoin="miter" d="M 50.74472 114.67926 L 50.74472 202.135877 " stroke="#000000" stroke-width="2.375" stroke-opacity="1" stroke-miterlimit="4"/></g><g clip-path="url(#feb9ea3c99)"><path stroke-linecap="butt" transform="matrix(2.267929, 0, 0, 2.269607, 397.449743, -14.49565)" fill="none" stroke-linejoin="miter" d="M 95.847133 114.259309 L 95.847133 201.715926 " stroke="#000000" stroke-width="2.375" stroke-opacity="1" stroke-miterlimit="4"/></g><g clip-path="url(#23352b98c5)"><path stroke-linecap="butt" transform="matrix(2.267929, 0, 0, 2.269607, 397.449743, -14.49565)" fill="none" stroke-linejoin="miter" d="M 184.959967 114.839324 L 184.959967 202.295941 " stroke="#000000" stroke-width="2.375" stroke-opacity="1" stroke-miterlimit="4"/></g><g clip-path="url(#d7de665f3d)"><path stroke-linecap="butt" transform="matrix(2.267929, 0, 0, 2.269607, 397.449743, -14.49565)" fill="none" stroke-linejoin="miter" d="M 229.270082 114.839324 L 229.270082 202.295941 " stroke="#000000" stroke-width="2.375" stroke-opacity="1" stroke-miterlimit="4"/></g><g clip-path="url(#779c512e7c)"><path stroke-linecap="butt" transform="matrix(2.267929, 0, 0, 2.269607, 397.449743, -14.49565)" fill="none" stroke-linejoin="miter" d="M 274.689415 114.519197 L 274.689415 201.975814 " stroke="#000000" stroke-width="2.375" stroke-opacity="1" stroke-miterlimit="4"/></g><g clip-path="url(#54cff6cc0d)"><path stroke-linecap="butt" transform="matrix(2.267929, 0, 0, 2.269607, 397.449743, -14.49565)" fill="none" stroke-linejoin="miter" d="M 140.350156 8.06838 L 140.350156 201.948276 " stroke="#000000" stroke-width="2.375" stroke-opacity="1" stroke-miterlimit="4"/></g><path stroke-linecap="butt" transform="matrix(2.267929, 0, 0, 2.269607, 397.449743, -14.49565)" fill-opacity="1" fill="#000000" fill-rule="nonzero" stroke-linejoin="miter" d="M 42.837244 12.567369 L 61.514803 12.567369 L 61.514803 115.696438 L 42.837244 115.696438 Z M 42.837244 12.567369 " stroke="#000000" stroke-width="5" stroke-opacity="1" stroke-miterlimit="4"/><path stroke-linecap="butt" transform="matrix(0.986867, 0, 0, 0.981764, 378.591901, -161.520832)" fill-opacity="1" fill="#000000" fill-rule="evenodd" stroke-linejoin="miter" d="M 832.078369 167.799567 L 883.796672 167.799567 L 883.796672 423.509556 L 832.078369 423.509556 Z M 832.078369 167.799567 " stroke="#000000" stroke-width="1.207" stroke-opacity="1" stroke-miterlimit="4"/><path stroke-linecap="butt" transform="matrix(0.986867, 0, 0, 0.981764, 378.591901, -161.520832)" fill-opacity="1" fill="#000000" fill-rule="evenodd" stroke-linejoin="miter" d="M 934.470002 167.668266 L 986.188305 167.668266 L 986.188305 423.378255 L 934.470002 423.378255 Z M 934.470002 167.668266 " stroke="#000000" stroke-width="1.207" stroke-opacity="1" stroke-miterlimit="4"/><g clip-path="url(#c1f11081e4)"><path stroke-linecap="butt" transform="matrix(0.986867, 0, 0, 0.981764, 378.591901, -161.520832)" fill="none" stroke-linejoin="miter" d="M 754.920486 166.371175 L 1473.261045 166.371175 L 1473.261045 615.510882 L 754.920486 615.510882 Z M 754.920486 166.371175 " stroke="#000000" stroke-width="2.375" stroke-opacity="1" stroke-miterlimit="4"/></g><g clip-path="url(#094212734b)"><path stroke-linecap="butt" transform="matrix(2.267929, 0, 0, 2.269607, 397.449743, -14.49565)" fill="none" stroke-linejoin="miter" d="M 364.659996 113.999421 L 364.659996 201.456038 " stroke="#000000" stroke-width="2.375" stroke-opacity="1" stroke-miterlimit="4"/></g><path stroke-linecap="butt" transform="matrix(2.267929, 0, 0, 2.269607, 397.449743, -14.49565)" fill="none" stroke-linejoin="miter" d="M 409.760687 113.579469 L 409.760687 201.036087 " stroke="#000000" stroke-width="2.375" stroke-opacity="1" stroke-miterlimit="4"/><g clip-path="url(#4796ecc875)"><path stroke-linecap="butt" transform="matrix(2.267929, 0, 0, 2.269607, 397.449743, -14.49565)" fill="none" stroke-linejoin="miter" d="M 454.260265 7.38682 L 454.260265 201.266716 " stroke="#000000" stroke-width="2.375" stroke-opacity="1" stroke-miterlimit="4"/></g><path stroke-linecap="butt" transform="matrix(2.267929, 0, 0, 2.269607, 397.449743, -14.49565)" fill-opacity="1" fill="#000000" fill-rule="nonzero" stroke-linejoin="miter" d="M 87.092243 11.350542 L 105.769802 11.350542 L 105.769802 114.479611 L 87.092243 114.479611 Z M 87.092243 11.350542 " stroke="#000000" stroke-width="5" stroke-opacity="1" stroke-miterlimit="4"/><path stroke-linecap="butt" transform="matrix(2.267929, 0, 0, 2.269607, 397.449743, -14.49565)" fill-opacity="1" fill="#000000" fill-rule="nonzero" stroke-linejoin="miter" d="M 176.420374 11.350542 L 195.096211 11.350542 L 195.096211 114.479611 L 176.420374 114.479611 Z M 176.420374 11.350542 " stroke="#000000" stroke-width="5" stroke-opacity="1" stroke-miterlimit="4"/><path stroke-linecap="butt" transform="matrix(2.267929, 0, 0, 2.269607, 397.449743, -14.49565)" fill-opacity="1" fill="#000000" fill-rule="nonzero" stroke-linejoin="miter" d="M 220.270613 12.161186 L 238.94645 12.161186 L 238.94645 115.291976 L 220.270613 115.291976 Z M 220.270613 12.161186 " stroke="#000000" stroke-width="5" stroke-opacity="1" stroke-miterlimit="4"/><path stroke-linecap="butt" transform="matrix(2.267929, 0, 0, 2.269607, 397.449743, -14.49565)" fill-opacity="1" fill="#000000" fill-rule="nonzero" stroke-linejoin="miter" d="M 265.739894 12.161186 L 284.417454 12.161186 L 284.417454 115.291976 L 265.739894 115.291976 Z M 265.739894 12.161186 " stroke="#000000" stroke-width="5" stroke-opacity="1" stroke-miterlimit="4"/><path stroke-linecap="butt" transform="matrix(2.267929, 0, 0, 2.269607, 397.449743, -14.49565)" fill-opacity="1" fill="#000000" fill-rule="nonzero" stroke-linejoin="miter" d="M 355.87927 10.538177 L 374.556829 10.538177 L 374.556829 113.667246 L 355.87927 113.667246 Z M 355.87927 10.538177 " stroke="#000000" stroke-width="5" stroke-opacity="1" stroke-miterlimit="4"/><path stroke-linecap="butt" transform="matrix(2.267929, 0, 0, 2.269607, 397.449743, -14.49565)" fill-opacity="1" fill="#000000" fill-rule="nonzero" stroke-linejoin="miter" d="M 401.360608 10.538177 L 420.036445 10.538177 L 420.036445 113.667246 L 401.360608 113.667246 Z M 401.360608 10.538177 " stroke="#000000" stroke-width="5" stroke-opacity="1" stroke-miterlimit="4"/><path stroke-linecap="butt" transform="matrix(0.986867, 0, 0, 0.981764, -1046.012607, -161.520832)" fill-opacity="1" fill="#000000" fill-rule="evenodd" stroke-linejoin="miter" d="M 1139.60062 167.170915 L 1191.318923 167.170915 L 1191.318923 422.880904 L 1139.60062 422.880904 Z M 1139.60062 167.170915 " stroke="#000000" stroke-width="1.207" stroke-opacity="1" stroke-miterlimit="4"/><path stroke-linecap="butt" transform="matrix(0.986867, 0, 0, 0.981764, -1046.012607, -161.520832)" fill-opacity="1" fill="#000000" fill-rule="evenodd" stroke-linejoin="miter" d="M 1241.398518 168.181532 L 1293.116821 168.181532 L 1293.116821 423.891521 L 1241.398518 423.891521 Z M 1241.398518 168.181532 " stroke="#000000" stroke-width="1.207" stroke-opacity="1" stroke-miterlimit="4"/><path stroke-linecap="butt" transform="matrix(0.986867, 0, 0, 0.981764, -1046.012607, -161.520832)" fill-opacity="1" fill="#000000" fill-rule="evenodd" stroke-linejoin="miter" d="M 1345.199283 167.668266 L 1396.917586 167.668266 L 1396.917586 423.378255 L 1345.199283 423.378255 Z M 1345.199283 167.668266 " stroke="#000000" stroke-width="1.207" stroke-opacity="1" stroke-miterlimit="4"/><g clip-path="url(#4975d474f9)"><path stroke-linecap="butt" transform="matrix(0.986867, 0, 0, 0.981764, -1046.012607, -161.520832)" fill="none" stroke-linejoin="miter" d="M 754.919513 166.371175 L 1473.260072 166.371175 L 1473.260072 615.510882 L 754.919513 615.510882 Z M 754.919513 166.371175 " stroke="#000000" stroke-width="2.375" stroke-opacity="1" stroke-miterlimit="4"/></g><g clip-path="url(#fc83ecb028)"><path stroke-linecap="butt" transform="matrix(2.267929, 0, 0, 2.269607, -1027.154801, -14.49565)" fill="none" stroke-linejoin="miter" d="M 498.869668 114.149158 L 498.869668 201.605775 " stroke="#000000" stroke-width="2.375" stroke-opacity="1" stroke-miterlimit="4"/></g><g clip-path="url(#391ea62beb)"><path stroke-linecap="butt" transform="matrix(2.267929, 0, 0, 2.269607, -1027.154801, -14.49565)" fill="none" stroke-linejoin="miter" d="M 543.190118 114.149158 L 543.190118 201.605775 " stroke="#000000" stroke-width="2.375" stroke-opacity="1" stroke-miterlimit="4"/></g><g clip-path="url(#d7a1e9d3b1)"><path stroke-linecap="butt" transform="matrix(2.267929, 0, 0, 2.269607, -1027.154801, -14.49565)" fill="none" stroke-linejoin="miter" d="M 588.600839 113.839357 L 588.600839 201.295975 " stroke="#000000" stroke-width="2.375" stroke-opacity="1" stroke-miterlimit="4"/></g><g clip-path="url(#f987259658)"><path stroke-linecap="butt" transform="matrix(2.267929, 0, 0, 2.269607, -1027.154801, -14.49565)" fill="none" stroke-linejoin="miter" d="M 454.259858 7.38682 L 454.259858 201.266716 " stroke="#000000" stroke-width="2.375" stroke-opacity="1" stroke-miterlimit="4"/></g><path stroke-linecap="butt" transform="matrix(2.267929, 0, 0, 2.269607, -1027.154801, -14.49565)" fill-opacity="1" fill="#000000" fill-rule="nonzero" stroke-linejoin="miter" d="M 490.679721 12.973551 L 509.35728 12.973551 L 509.35728 116.104341 L 490.679721 116.104341 Z M 490.679721 12.973551 " stroke="#000000" stroke-width="5" stroke-opacity="1" stroke-miterlimit="4"/><path stroke-linecap="butt" transform="matrix(2.267929, 0, 0, 2.269607, -1027.154801, -14.49565)" fill-opacity="1" fill="#000000" fill-rule="nonzero" stroke-linejoin="miter" d="M 534.529959 13.785917 L 553.207518 13.785917 L 553.207518 116.916707 L 534.529959 116.916707 Z M 534.529959 13.785917 " stroke="#000000" stroke-width="5" stroke-opacity="1" stroke-miterlimit="4"/><path stroke-linecap="butt" transform="matrix(2.267929, 0, 0, 2.269607, -1027.154801, -14.49565)" fill-opacity="1" fill="#000000" fill-rule="nonzero" stroke-linejoin="miter" d="M 579.200053 12.973551 L 597.877612 12.973551 L 597.877612 116.104341 L 579.200053 116.104341 Z M 579.200053 12.973551 " stroke="#000000" stroke-width="5" stroke-opacity="1" stroke-miterlimit="4"/><g clip-path="url(#6ac800572d)"><path fill="#000000" d="M 152.769531 351.703125 C 135.101562 351.703125 120.789062 366.015625 120.789062 383.683594 C 120.789062 401.351562 135.101562 415.664062 152.769531 415.664062 C 170.4375 415.664062 184.746094 401.351562 184.746094 383.683594 C 184.746094 366.015625 170.4375 351.703125 152.769531 351.703125 Z M 152.769531 351.703125 " fill-opacity="1" fill-rule="nonzero"/></g><g clip-path="url(#f95bdeec48)"><path fill="#000000" d="M 563.464844 351.703125 C 545.796875 351.703125 531.488281 366.015625 531.488281 383.683594 C 531.488281 401.351562 545.796875 415.664062 563.464844 415.664062 C 581.136719 415.664062 595.445312 401.351562 595.445312 383.683594 C 595.445312 366.015625 581.136719 351.703125 563.464844 351.703125 Z M 563.464844 351.703125 " fill-opacity="1" fill-rule="nonzero"/></g><g clip-path="url(#c23df97906)"><g clip-path="url(#2f2de83468)"><g clip-path="url(#54a12d336c)"><path fill="#ffffff" d="M 308.597656 177.410156 C 290.867188 177.410156 276.503906 191.773438 276.503906 209.503906 C 276.503906 227.234375 290.867188 241.59375 308.597656 241.59375 C 326.328125 241.59375 340.6875 227.234375 340.6875 209.503906 C 340.6875 191.773438 326.328125 177.410156 308.597656 177.410156 Z M 308.597656 177.410156 " fill-opacity="1" fill-rule="nonzero"/></g></g></g><g clip-path="url(#91564225fa)"><g clip-path="url(#af068bc4a7)"><g clip-path="url(#6c740c1c0c)"><path stroke-linecap="butt" transform="matrix(0.954599, 0, 0, 0.954599, 276.505515, 177.411579)" fill="none" stroke-linejoin="miter" d="M -0.00168485 33.618652 C -0.00168485 52.184205 15.052904 67.234702 33.618457 67.234702 C 52.18401 67.234702 67.234507 52.184205 67.234507 33.618652 C 67.234507 15.049007 52.18401 -0.00148992 33.618457 -0.00148992 C 15.052904 -0.00148992 -0.00168485 15.049007 -0.00168485 33.618652 Z M -0.00168485 33.618652 " stroke="#000000" stroke-width="10.999384" stroke-opacity="1" stroke-miterlimit="4"/></g></g></g></g></g></svg>