<svg xmlns="http://www.w3.org/2000/svg" xmlns:xlink="http://www.w3.org/1999/xlink" width="2000" zoomAndPan="magnify" viewBox="0 0 1500 607.92" height="800" preserveAspectRatio="xMidYMid meet" version="1.0"><defs><clipPath id="eb5bd8c83b"><path d="M 0.0976562 0 L 1499.898438 0 L 1499.898438 599.921875 L 0.0976562 599.921875 Z M 0.0976562 0 " clip-rule="nonzero"/></clipPath><clipPath id="849c130ca6"><path d="M 91 19 L 141 19 L 141 263 L 91 263 Z M 91 19 " clip-rule="nonzero"/></clipPath><clipPath id="0478f2780f"><path d="M 16.089844 35.136719 L 16.089844 426.785156 C 16.089844 437.554688 24.820312 446.28125 35.589844 446.28125 L 1376.410156 446.28125 C 1387.179688 446.28125 1395.910156 437.554688 1395.910156 426.785156 L 1395.910156 35.136719 C 1395.910156 24.367188 1387.179688 15.636719 1376.410156 15.636719 L 35.589844 15.636719 C 24.820312 15.636719 16.089844 24.367188 16.089844 35.136719 Z M 16.089844 35.136719 " clip-rule="nonzero"/></clipPath><clipPath id="a8ae5f883b"><path d="M 36.890625 16.9375 L 1375.109375 16.9375 C 1385.878906 16.9375 1394.609375 25.667969 1394.609375 36.4375 L 1394.609375 425.484375 C 1394.609375 436.253906 1385.878906 444.980469 1375.109375 444.980469 L 36.890625 444.980469 C 26.121094 444.980469 17.390625 436.253906 17.390625 425.484375 L 17.390625 36.4375 C 17.390625 25.667969 26.121094 16.9375 36.890625 16.9375 Z M 36.890625 16.9375 " clip-rule="nonzero"/></clipPath><clipPath id="8ef63a61da"><path d="M 90 18 L 142 18 L 142 264 L 90 264 Z M 90 18 " clip-rule="nonzero"/></clipPath><clipPath id="bf5c242779"><path d="M 16.089844 35.136719 L 16.089844 426.785156 C 16.089844 437.554688 24.820312 446.28125 35.589844 446.28125 L 1376.410156 446.28125 C 1387.179688 446.28125 1395.910156 437.554688 1395.910156 426.785156 L 1395.910156 35.136719 C 1395.910156 24.367188 1387.179688 15.636719 1376.410156 15.636719 L 35.589844 15.636719 C 24.820312 15.636719 16.089844 24.367188 16.089844 35.136719 Z M 16.089844 35.136719 " clip-rule="nonzero"/></clipPath><clipPath id="3c668ae394"><path d="M 36.890625 16.9375 L 1375.109375 16.9375 C 1385.878906 16.9375 1394.609375 25.667969 1394.609375 36.4375 L 1394.609375 425.484375 C 1394.609375 436.253906 1385.878906 444.980469 1375.109375 444.980469 L 36.890625 444.980469 C 26.121094 444.980469 17.390625 436.253906 17.390625 425.484375 L 17.390625 36.4375 C 17.390625 25.667969 26.121094 16.9375 36.890625 16.9375 Z M 36.890625 16.9375 " clip-rule="nonzero"/></clipPath><clipPath id="1253dcf70e"><path d="M 189 19 L 239 19 L 239 263 L 189 263 Z M 189 19 " clip-rule="nonzero"/></clipPath><clipPath id="d01de26d99"><path d="M 16.089844 35.136719 L 16.089844 426.785156 C 16.089844 437.554688 24.820312 446.28125 35.589844 446.28125 L 1376.410156 446.28125 C 1387.179688 446.28125 1395.910156 437.554688 1395.910156 426.785156 L 1395.910156 35.136719 C 1395.910156 24.367188 1387.179688 15.636719 1376.410156 15.636719 L 35.589844 15.636719 C 24.820312 15.636719 16.089844 24.367188 16.089844 35.136719 Z M 16.089844 35.136719 " clip-rule="nonzero"/></clipPath><clipPath id="1ce165b191"><path d="M 36.890625 16.9375 L 1375.109375 16.9375 C 1385.878906 16.9375 1394.609375 25.667969 1394.609375 36.4375 L 1394.609375 425.484375 C 1394.609375 436.253906 1385.878906 444.980469 1375.109375 444.980469 L 36.890625 444.980469 C 26.121094 444.980469 17.390625 436.253906 17.390625 425.484375 L 17.390625 36.4375 C 17.390625 25.667969 26.121094 16.9375 36.890625 16.9375 Z M 36.890625 16.9375 " clip-rule="nonzero"/></clipPath><clipPath id="fce3666ac1"><path d="M 188 18 L 240 18 L 240 263 L 188 263 Z M 188 18 " clip-rule="nonzero"/></clipPath><clipPath id="4eb6b7a5d4"><path d="M 16.089844 35.136719 L 16.089844 426.785156 C 16.089844 437.554688 24.820312 446.28125 35.589844 446.28125 L 1376.410156 446.28125 C 1387.179688 446.28125 1395.910156 437.554688 1395.910156 426.785156 L 1395.910156 35.136719 C 1395.910156 24.367188 1387.179688 15.636719 1376.410156 15.636719 L 35.589844 15.636719 C 24.820312 15.636719 16.089844 24.367188 16.089844 35.136719 Z M 16.089844 35.136719 " clip-rule="nonzero"/></clipPath><clipPath id="c9cb774dbc"><path d="M 36.890625 16.9375 L 1375.109375 16.9375 C 1385.878906 16.9375 1394.609375 25.667969 1394.609375 36.4375 L 1394.609375 425.484375 C 1394.609375 436.253906 1385.878906 444.980469 1375.109375 444.980469 L 36.890625 444.980469 C 26.121094 444.980469 17.390625 436.253906 17.390625 425.484375 L 17.390625 36.4375 C 17.390625 25.667969 26.121094 16.9375 36.890625 16.9375 Z M 36.890625 16.9375 " clip-rule="nonzero"/></clipPath><clipPath id="7f4c873a02"><path d="M 385 18 L 435 18 L 435 262 L 385 262 Z M 385 18 " clip-rule="nonzero"/></clipPath><clipPath id="607e6b051d"><path d="M 16.089844 35.136719 L 16.089844 426.785156 C 16.089844 437.554688 24.820312 446.28125 35.589844 446.28125 L 1376.410156 446.28125 C 1387.179688 446.28125 1395.910156 437.554688 1395.910156 426.785156 L 1395.910156 35.136719 C 1395.910156 24.367188 1387.179688 15.636719 1376.410156 15.636719 L 35.589844 15.636719 C 24.820312 15.636719 16.089844 24.367188 16.089844 35.136719 Z M 16.089844 35.136719 " clip-rule="nonzero"/></clipPath><clipPath id="1856cc5a26"><path d="M 36.890625 16.9375 L 1375.109375 16.9375 C 1385.878906 16.9375 1394.609375 25.667969 1394.609375 36.4375 L 1394.609375 425.484375 C 1394.609375 436.253906 1385.878906 444.980469 1375.109375 444.980469 L 36.890625 444.980469 C 26.121094 444.980469 17.390625 436.253906 17.390625 425.484375 L 17.390625 36.4375 C 17.390625 25.667969 26.121094 16.9375 36.890625 16.9375 Z M 36.890625 16.9375 " clip-rule="nonzero"/></clipPath><clipPath id="89bbcf0d66"><path d="M 384 18 L 436 18 L 436 263 L 384 263 Z M 384 18 " clip-rule="nonzero"/></clipPath><clipPath id="dc9c6e3f85"><path d="M 16.089844 35.136719 L 16.089844 426.785156 C 16.089844 437.554688 24.820312 446.28125 35.589844 446.28125 L 1376.410156 446.28125 C 1387.179688 446.28125 1395.910156 437.554688 1395.910156 426.785156 L 1395.910156 35.136719 C 1395.910156 24.367188 1387.179688 15.636719 1376.410156 15.636719 L 35.589844 15.636719 C 24.820312 15.636719 16.089844 24.367188 16.089844 35.136719 Z M 16.089844 35.136719 " clip-rule="nonzero"/></clipPath><clipPath id="480cbd2beb"><path d="M 36.890625 16.9375 L 1375.109375 16.9375 C 1385.878906 16.9375 1394.609375 25.667969 1394.609375 36.4375 L 1394.609375 425.484375 C 1394.609375 436.253906 1385.878906 444.980469 1375.109375 444.980469 L 36.890625 444.980469 C 26.121094 444.980469 17.390625 436.253906 17.390625 425.484375 L 17.390625 36.4375 C 17.390625 25.667969 26.121094 16.9375 36.890625 16.9375 Z M 36.890625 16.9375 " clip-rule="nonzero"/></clipPath><clipPath id="427cb48763"><path d="M 482 19 L 533 19 L 533 263 L 482 263 Z M 482 19 " clip-rule="nonzero"/></clipPath><clipPath id="219b393e7c"><path d="M 16.089844 35.136719 L 16.089844 426.785156 C 16.089844 437.554688 24.820312 446.28125 35.589844 446.28125 L 1376.410156 446.28125 C 1387.179688 446.28125 1395.910156 437.554688 1395.910156 426.785156 L 1395.910156 35.136719 C 1395.910156 24.367188 1387.179688 15.636719 1376.410156 15.636719 L 35.589844 15.636719 C 24.820312 15.636719 16.089844 24.367188 16.089844 35.136719 Z M 16.089844 35.136719 " clip-rule="nonzero"/></clipPath><clipPath id="cab190d487"><path d="M 36.890625 16.9375 L 1375.109375 16.9375 C 1385.878906 16.9375 1394.609375 25.667969 1394.609375 36.4375 L 1394.609375 425.484375 C 1394.609375 436.253906 1385.878906 444.980469 1375.109375 444.980469 L 36.890625 444.980469 C 26.121094 444.980469 17.390625 436.253906 17.390625 425.484375 L 17.390625 36.4375 C 17.390625 25.667969 26.121094 16.9375 36.890625 16.9375 Z M 36.890625 16.9375 " clip-rule="nonzero"/></clipPath><clipPath id="dc6ba523bc"><path d="M 482 19 L 533 19 L 533 264 L 482 264 Z M 482 19 " clip-rule="nonzero"/></clipPath><clipPath id="7cf29d3f93"><path d="M 16.089844 35.136719 L 16.089844 426.785156 C 16.089844 437.554688 24.820312 446.28125 35.589844 446.28125 L 1376.410156 446.28125 C 1387.179688 446.28125 1395.910156 437.554688 1395.910156 426.785156 L 1395.910156 35.136719 C 1395.910156 24.367188 1387.179688 15.636719 1376.410156 15.636719 L 35.589844 15.636719 C 24.820312 15.636719 16.089844 24.367188 16.089844 35.136719 Z M 16.089844 35.136719 " clip-rule="nonzero"/></clipPath><clipPath id="9f86c5f76f"><path d="M 36.890625 16.9375 L 1375.109375 16.9375 C 1385.878906 16.9375 1394.609375 25.667969 1394.609375 36.4375 L 1394.609375 425.484375 C 1394.609375 436.253906 1385.878906 444.980469 1375.109375 444.980469 L 36.890625 444.980469 C 26.121094 444.980469 17.390625 436.253906 17.390625 425.484375 L 17.390625 36.4375 C 17.390625 25.667969 26.121094 16.9375 36.890625 16.9375 Z M 36.890625 16.9375 " clip-rule="nonzero"/></clipPath><clipPath id="47de0254b2"><path d="M 582 19 L 632 19 L 632 263 L 582 263 Z M 582 19 " clip-rule="nonzero"/></clipPath><clipPath id="a68296f6b5"><path d="M 16.089844 35.136719 L 16.089844 426.785156 C 16.089844 437.554688 24.820312 446.28125 35.589844 446.28125 L 1376.410156 446.28125 C 1387.179688 446.28125 1395.910156 437.554688 1395.910156 426.785156 L 1395.910156 35.136719 C 1395.910156 24.367188 1387.179688 15.636719 1376.410156 15.636719 L 35.589844 15.636719 C 24.820312 15.636719 16.089844 24.367188 16.089844 35.136719 Z M 16.089844 35.136719 " clip-rule="nonzero"/></clipPath><clipPath id="2d16ffe590"><path d="M 36.890625 16.9375 L 1375.109375 16.9375 C 1385.878906 16.9375 1394.609375 25.667969 1394.609375 36.4375 L 1394.609375 425.484375 C 1394.609375 436.253906 1385.878906 444.980469 1375.109375 444.980469 L 36.890625 444.980469 C 26.121094 444.980469 17.390625 436.253906 17.390625 425.484375 L 17.390625 36.4375 C 17.390625 25.667969 26.121094 16.9375 36.890625 16.9375 Z M 36.890625 16.9375 " clip-rule="nonzero"/></clipPath><clipPath id="10db75f06a"><path d="M 581 18 L 633 18 L 633 263 L 581 263 Z M 581 18 " clip-rule="nonzero"/></clipPath><clipPath id="1ce32f7571"><path d="M 16.089844 35.136719 L 16.089844 426.785156 C 16.089844 437.554688 24.820312 446.28125 35.589844 446.28125 L 1376.410156 446.28125 C 1387.179688 446.28125 1395.910156 437.554688 1395.910156 426.785156 L 1395.910156 35.136719 C 1395.910156 24.367188 1387.179688 15.636719 1376.410156 15.636719 L 35.589844 15.636719 C 24.820312 15.636719 16.089844 24.367188 16.089844 35.136719 Z M 16.089844 35.136719 " clip-rule="nonzero"/></clipPath><clipPath id="022887aa75"><path d="M 36.890625 16.9375 L 1375.109375 16.9375 C 1385.878906 16.9375 1394.609375 25.667969 1394.609375 36.4375 L 1394.609375 425.484375 C 1394.609375 436.253906 1385.878906 444.980469 1375.109375 444.980469 L 36.890625 444.980469 C 26.121094 444.980469 17.390625 436.253906 17.390625 425.484375 L 17.390625 36.4375 C 17.390625 25.667969 26.121094 16.9375 36.890625 16.9375 Z M 36.890625 16.9375 " clip-rule="nonzero"/></clipPath><clipPath id="8b9647f5e9"><path d="M 17.175781 17 L 706 17 L 706 445 L 17.175781 445 Z M 17.175781 17 " clip-rule="nonzero"/></clipPath><clipPath id="9c9254f697"><path d="M 16.089844 35.136719 L 16.089844 426.785156 C 16.089844 437.554688 24.820312 446.28125 35.589844 446.28125 L 1376.410156 446.28125 C 1387.179688 446.28125 1395.910156 437.554688 1395.910156 426.785156 L 1395.910156 35.136719 C 1395.910156 24.367188 1387.179688 15.636719 1376.410156 15.636719 L 35.589844 15.636719 C 24.820312 15.636719 16.089844 24.367188 16.089844 35.136719 Z M 16.089844 35.136719 " clip-rule="nonzero"/></clipPath><clipPath id="50591d8084"><path d="M 36.890625 16.9375 L 1375.109375 16.9375 C 1385.878906 16.9375 1394.609375 25.667969 1394.609375 36.4375 L 1394.609375 425.484375 C 1394.609375 436.253906 1385.878906 444.980469 1375.109375 444.980469 L 36.890625 444.980469 C 26.121094 444.980469 17.390625 436.253906 17.390625 425.484375 L 17.390625 36.4375 C 17.390625 25.667969 26.121094 16.9375 36.890625 16.9375 Z M 36.890625 16.9375 " clip-rule="nonzero"/></clipPath><clipPath id="efb36582e4"><path d="M 112 250 L 119 250 L 119 445 L 112 445 Z M 112 250 " clip-rule="nonzero"/></clipPath><clipPath id="0735028916"><path d="M 16.089844 35.136719 L 16.089844 426.785156 C 16.089844 437.554688 24.820312 446.28125 35.589844 446.28125 L 1376.410156 446.28125 C 1387.179688 446.28125 1395.910156 437.554688 1395.910156 426.785156 L 1395.910156 35.136719 C 1395.910156 24.367188 1387.179688 15.636719 1376.410156 15.636719 L 35.589844 15.636719 C 24.820312 15.636719 16.089844 24.367188 16.089844 35.136719 Z M 16.089844 35.136719 " clip-rule="nonzero"/></clipPath><clipPath id="d7d5e1ed61"><path d="M 36.890625 16.9375 L 1375.109375 16.9375 C 1385.878906 16.9375 1394.609375 25.667969 1394.609375 36.4375 L 1394.609375 425.484375 C 1394.609375 436.253906 1385.878906 444.980469 1375.109375 444.980469 L 36.890625 444.980469 C 26.121094 444.980469 17.390625 436.253906 17.390625 425.484375 L 17.390625 36.4375 C 17.390625 25.667969 26.121094 16.9375 36.890625 16.9375 Z M 36.890625 16.9375 " clip-rule="nonzero"/></clipPath><clipPath id="4651bba05a"><path d="M 211 249 L 218 249 L 218 445 L 211 445 Z M 211 249 " clip-rule="nonzero"/></clipPath><clipPath id="f0127d1b35"><path d="M 16.089844 35.136719 L 16.089844 426.785156 C 16.089844 437.554688 24.820312 446.28125 35.589844 446.28125 L 1376.410156 446.28125 C 1387.179688 446.28125 1395.910156 437.554688 1395.910156 426.785156 L 1395.910156 35.136719 C 1395.910156 24.367188 1387.179688 15.636719 1376.410156 15.636719 L 35.589844 15.636719 C 24.820312 15.636719 16.089844 24.367188 16.089844 35.136719 Z M 16.089844 35.136719 " clip-rule="nonzero"/></clipPath><clipPath id="8742d33fa5"><path d="M 36.890625 16.9375 L 1375.109375 16.9375 C 1385.878906 16.9375 1394.609375 25.667969 1394.609375 36.4375 L 1394.609375 425.484375 C 1394.609375 436.253906 1385.878906 444.980469 1375.109375 444.980469 L 36.890625 444.980469 C 26.121094 444.980469 17.390625 436.253906 17.390625 425.484375 L 17.390625 36.4375 C 17.390625 25.667969 26.121094 16.9375 36.890625 16.9375 Z M 36.890625 16.9375 " clip-rule="nonzero"/></clipPath><clipPath id="dcd3dcef5d"><path d="M 407 250 L 413 250 L 413 445 L 407 445 Z M 407 250 " clip-rule="nonzero"/></clipPath><clipPath id="cb17312d55"><path d="M 16.089844 35.136719 L 16.089844 426.785156 C 16.089844 437.554688 24.820312 446.28125 35.589844 446.28125 L 1376.410156 446.28125 C 1387.179688 446.28125 1395.910156 437.554688 1395.910156 426.785156 L 1395.910156 35.136719 C 1395.910156 24.367188 1387.179688 15.636719 1376.410156 15.636719 L 35.589844 15.636719 C 24.820312 15.636719 16.089844 24.367188 16.089844 35.136719 Z M 16.089844 35.136719 " clip-rule="nonzero"/></clipPath><clipPath id="f48ac8f22b"><path d="M 36.890625 16.9375 L 1375.109375 16.9375 C 1385.878906 16.9375 1394.609375 25.667969 1394.609375 36.4375 L 1394.609375 425.484375 C 1394.609375 436.253906 1385.878906 444.980469 1375.109375 444.980469 L 36.890625 444.980469 C 26.121094 444.980469 17.390625 436.253906 17.390625 425.484375 L 17.390625 36.4375 C 17.390625 25.667969 26.121094 16.9375 36.890625 16.9375 Z M 36.890625 16.9375 " clip-rule="nonzero"/></clipPath><clipPath id="dda221bcd6"><path d="M 505 250 L 511 250 L 511 445 L 505 445 Z M 505 250 " clip-rule="nonzero"/></clipPath><clipPath id="4abcb9388e"><path d="M 16.089844 35.136719 L 16.089844 426.785156 C 16.089844 437.554688 24.820312 446.28125 35.589844 446.28125 L 1376.410156 446.28125 C 1387.179688 446.28125 1395.910156 437.554688 1395.910156 426.785156 L 1395.910156 35.136719 C 1395.910156 24.367188 1387.179688 15.636719 1376.410156 15.636719 L 35.589844 15.636719 C 24.820312 15.636719 16.089844 24.367188 16.089844 35.136719 Z M 16.089844 35.136719 " clip-rule="nonzero"/></clipPath><clipPath id="393b6252e5"><path d="M 36.890625 16.9375 L 1375.109375 16.9375 C 1385.878906 16.9375 1394.609375 25.667969 1394.609375 36.4375 L 1394.609375 425.484375 C 1394.609375 436.253906 1385.878906 444.980469 1375.109375 444.980469 L 36.890625 444.980469 C 26.121094 444.980469 17.390625 436.253906 17.390625 425.484375 L 17.390625 36.4375 C 17.390625 25.667969 26.121094 16.9375 36.890625 16.9375 Z M 36.890625 16.9375 " clip-rule="nonzero"/></clipPath><clipPath id="6266207951"><path d="M 604 249 L 611 249 L 611 445 L 604 445 Z M 604 249 " clip-rule="nonzero"/></clipPath><clipPath id="6bc1829442"><path d="M 16.089844 35.136719 L 16.089844 426.785156 C 16.089844 437.554688 24.820312 446.28125 35.589844 446.28125 L 1376.410156 446.28125 C 1387.179688 446.28125 1395.910156 437.554688 1395.910156 426.785156 L 1395.910156 35.136719 C 1395.910156 24.367188 1387.179688 15.636719 1376.410156 15.636719 L 35.589844 15.636719 C 24.820312 15.636719 16.089844 24.367188 16.089844 35.136719 Z M 16.089844 35.136719 " clip-rule="nonzero"/></clipPath><clipPath id="671e98bd4a"><path d="M 36.890625 16.9375 L 1375.109375 16.9375 C 1385.878906 16.9375 1394.609375 25.667969 1394.609375 36.4375 L 1394.609375 425.484375 C 1394.609375 436.253906 1385.878906 444.980469 1375.109375 444.980469 L 36.890625 444.980469 C 26.121094 444.980469 17.390625 436.253906 17.390625 425.484375 L 17.390625 36.4375 C 17.390625 25.667969 26.121094 16.9375 36.890625 16.9375 Z M 36.890625 16.9375 " clip-rule="nonzero"/></clipPath><clipPath id="b887978fbd"><path d="M 309 16.722656 L 315 16.722656 L 315 445 L 309 445 Z M 309 16.722656 " clip-rule="nonzero"/></clipPath><clipPath id="b8725a8f46"><path d="M 16.089844 35.136719 L 16.089844 426.785156 C 16.089844 437.554688 24.820312 446.28125 35.589844 446.28125 L 1376.410156 446.28125 C 1387.179688 446.28125 1395.910156 437.554688 1395.910156 426.785156 L 1395.910156 35.136719 C 1395.910156 24.367188 1387.179688 15.636719 1376.410156 15.636719 L 35.589844 15.636719 C 24.820312 15.636719 16.089844 24.367188 16.089844 35.136719 Z M 16.089844 35.136719 " clip-rule="nonzero"/></clipPath><clipPath id="10d7418ec4"><path d="M 36.890625 16.9375 L 1375.109375 16.9375 C 1385.878906 16.9375 1394.609375 25.667969 1394.609375 36.4375 L 1394.609375 425.484375 C 1394.609375 436.253906 1385.878906 444.980469 1375.109375 444.980469 L 36.890625 444.980469 C 26.121094 444.980469 17.390625 436.253906 17.390625 425.484375 L 17.390625 36.4375 C 17.390625 25.667969 26.121094 16.9375 36.890625 16.9375 Z M 36.890625 16.9375 " clip-rule="nonzero"/></clipPath><clipPath id="4233c5d4f2"><path d="M 98 28 L 140 28 L 140 255 L 98 255 Z M 98 28 " clip-rule="nonzero"/></clipPath><clipPath id="ef255ab698"><path d="M 16.089844 35.136719 L 16.089844 426.785156 C 16.089844 437.554688 24.820312 446.28125 35.589844 446.28125 L 1376.410156 446.28125 C 1387.179688 446.28125 1395.910156 437.554688 1395.910156 426.785156 L 1395.910156 35.136719 C 1395.910156 24.367188 1387.179688 15.636719 1376.410156 15.636719 L 35.589844 15.636719 C 24.820312 15.636719 16.089844 24.367188 16.089844 35.136719 Z M 16.089844 35.136719 " clip-rule="nonzero"/></clipPath><clipPath id="70cea235ca"><path d="M 36.890625 16.9375 L 1375.109375 16.9375 C 1385.878906 16.9375 1394.609375 25.667969 1394.609375 36.4375 L 1394.609375 425.484375 C 1394.609375 436.253906 1385.878906 444.980469 1375.109375 444.980469 L 36.890625 444.980469 C 26.121094 444.980469 17.390625 436.253906 17.390625 425.484375 L 17.390625 36.4375 C 17.390625 25.667969 26.121094 16.9375 36.890625 16.9375 Z M 36.890625 16.9375 " clip-rule="nonzero"/></clipPath><clipPath id="cefd918777"><path d="M 92 23 L 145 23 L 145 261 L 92 261 Z M 92 23 " clip-rule="nonzero"/></clipPath><clipPath id="050dc69529"><path d="M 16.089844 35.136719 L 16.089844 426.785156 C 16.089844 437.554688 24.820312 446.28125 35.589844 446.28125 L 1376.410156 446.28125 C 1387.179688 446.28125 1395.910156 437.554688 1395.910156 426.785156 L 1395.910156 35.136719 C 1395.910156 24.367188 1387.179688 15.636719 1376.410156 15.636719 L 35.589844 15.636719 C 24.820312 15.636719 16.089844 24.367188 16.089844 35.136719 Z M 16.089844 35.136719 " clip-rule="nonzero"/></clipPath><clipPath id="4c11df7672"><path d="M 36.890625 16.9375 L 1375.109375 16.9375 C 1385.878906 16.9375 1394.609375 25.667969 1394.609375 36.4375 L 1394.609375 425.484375 C 1394.609375 436.253906 1385.878906 444.980469 1375.109375 444.980469 L 36.890625 444.980469 C 26.121094 444.980469 17.390625 436.253906 17.390625 425.484375 L 17.390625 36.4375 C 17.390625 25.667969 26.121094 16.9375 36.890625 16.9375 Z M 36.890625 16.9375 " clip-rule="nonzero"/></clipPath><clipPath id="6ff70628c2"><path d="M 781 18 L 831 18 L 831 261 L 781 261 Z M 781 18 " clip-rule="nonzero"/></clipPath><clipPath id="ba324e7366"><path d="M 16.089844 35.136719 L 16.089844 426.785156 C 16.089844 437.554688 24.820312 446.28125 35.589844 446.28125 L 1376.410156 446.28125 C 1387.179688 446.28125 1395.910156 437.554688 1395.910156 426.785156 L 1395.910156 35.136719 C 1395.910156 24.367188 1387.179688 15.636719 1376.410156 15.636719 L 35.589844 15.636719 C 24.820312 15.636719 16.089844 24.367188 16.089844 35.136719 Z M 16.089844 35.136719 " clip-rule="nonzero"/></clipPath><clipPath id="fc17d39715"><path d="M 36.890625 16.9375 L 1375.109375 16.9375 C 1385.878906 16.9375 1394.609375 25.667969 1394.609375 36.4375 L 1394.609375 425.484375 C 1394.609375 436.253906 1385.878906 444.980469 1375.109375 444.980469 L 36.890625 444.980469 C 26.121094 444.980469 17.390625 436.253906 17.390625 425.484375 L 17.390625 36.4375 C 17.390625 25.667969 26.121094 16.9375 36.890625 16.9375 Z M 36.890625 16.9375 " clip-rule="nonzero"/></clipPath><clipPath id="07b2c8c233"><path d="M 780 17 L 832 17 L 832 262 L 780 262 Z M 780 17 " clip-rule="nonzero"/></clipPath><clipPath id="1f53ecd23c"><path d="M 16.089844 35.136719 L 16.089844 426.785156 C 16.089844 437.554688 24.820312 446.28125 35.589844 446.28125 L 1376.410156 446.28125 C 1387.179688 446.28125 1395.910156 437.554688 1395.910156 426.785156 L 1395.910156 35.136719 C 1395.910156 24.367188 1387.179688 15.636719 1376.410156 15.636719 L 35.589844 15.636719 C 24.820312 15.636719 16.089844 24.367188 16.089844 35.136719 Z M 16.089844 35.136719 " clip-rule="nonzero"/></clipPath><clipPath id="73b842397c"><path d="M 36.890625 16.9375 L 1375.109375 16.9375 C 1385.878906 16.9375 1394.609375 25.667969 1394.609375 36.4375 L 1394.609375 425.484375 C 1394.609375 436.253906 1385.878906 444.980469 1375.109375 444.980469 L 36.890625 444.980469 C 26.121094 444.980469 17.390625 436.253906 17.390625 425.484375 L 17.390625 36.4375 C 17.390625 25.667969 26.121094 16.9375 36.890625 16.9375 Z M 36.890625 16.9375 " clip-rule="nonzero"/></clipPath><clipPath id="5eddbfa7f8"><path d="M 879 17 L 929 17 L 929 261 L 879 261 Z M 879 17 " clip-rule="nonzero"/></clipPath><clipPath id="1a05038e8b"><path d="M 16.089844 35.136719 L 16.089844 426.785156 C 16.089844 437.554688 24.820312 446.28125 35.589844 446.28125 L 1376.410156 446.28125 C 1387.179688 446.28125 1395.910156 437.554688 1395.910156 426.785156 L 1395.910156 35.136719 C 1395.910156 24.367188 1387.179688 15.636719 1376.410156 15.636719 L 35.589844 15.636719 C 24.820312 15.636719 16.089844 24.367188 16.089844 35.136719 Z M 16.089844 35.136719 " clip-rule="nonzero"/></clipPath><clipPath id="50388afd8c"><path d="M 36.890625 16.9375 L 1375.109375 16.9375 C 1385.878906 16.9375 1394.609375 25.667969 1394.609375 36.4375 L 1394.609375 425.484375 C 1394.609375 436.253906 1385.878906 444.980469 1375.109375 444.980469 L 36.890625 444.980469 C 26.121094 444.980469 17.390625 436.253906 17.390625 425.484375 L 17.390625 36.4375 C 17.390625 25.667969 26.121094 16.9375 36.890625 16.9375 Z M 36.890625 16.9375 " clip-rule="nonzero"/></clipPath><clipPath id="8596fa8a92"><path d="M 878 17 L 930 17 L 930 262 L 878 262 Z M 878 17 " clip-rule="nonzero"/></clipPath><clipPath id="d11c2bc37d"><path d="M 16.089844 35.136719 L 16.089844 426.785156 C 16.089844 437.554688 24.820312 446.28125 35.589844 446.28125 L 1376.410156 446.28125 C 1387.179688 446.28125 1395.910156 437.554688 1395.910156 426.785156 L 1395.910156 35.136719 C 1395.910156 24.367188 1387.179688 15.636719 1376.410156 15.636719 L 35.589844 15.636719 C 24.820312 15.636719 16.089844 24.367188 16.089844 35.136719 Z M 16.089844 35.136719 " clip-rule="nonzero"/></clipPath><clipPath id="f434428e36"><path d="M 36.890625 16.9375 L 1375.109375 16.9375 C 1385.878906 16.9375 1394.609375 25.667969 1394.609375 36.4375 L 1394.609375 425.484375 C 1394.609375 436.253906 1385.878906 444.980469 1375.109375 444.980469 L 36.890625 444.980469 C 26.121094 444.980469 17.390625 436.253906 17.390625 425.484375 L 17.390625 36.4375 C 17.390625 25.667969 26.121094 16.9375 36.890625 16.9375 Z M 36.890625 16.9375 " clip-rule="nonzero"/></clipPath><clipPath id="bf8efea13f"><path d="M 1075 17 L 1125 17 L 1125 261 L 1075 261 Z M 1075 17 " clip-rule="nonzero"/></clipPath><clipPath id="29b453934b"><path d="M 16.089844 35.136719 L 16.089844 426.785156 C 16.089844 437.554688 24.820312 446.28125 35.589844 446.28125 L 1376.410156 446.28125 C 1387.179688 446.28125 1395.910156 437.554688 1395.910156 426.785156 L 1395.910156 35.136719 C 1395.910156 24.367188 1387.179688 15.636719 1376.410156 15.636719 L 35.589844 15.636719 C 24.820312 15.636719 16.089844 24.367188 16.089844 35.136719 Z M 16.089844 35.136719 " clip-rule="nonzero"/></clipPath><clipPath id="b410d508a0"><path d="M 36.890625 16.9375 L 1375.109375 16.9375 C 1385.878906 16.9375 1394.609375 25.667969 1394.609375 36.4375 L 1394.609375 425.484375 C 1394.609375 436.253906 1385.878906 444.980469 1375.109375 444.980469 L 36.890625 444.980469 C 26.121094 444.980469 17.390625 436.253906 17.390625 425.484375 L 17.390625 36.4375 C 17.390625 25.667969 26.121094 16.9375 36.890625 16.9375 Z M 36.890625 16.9375 " clip-rule="nonzero"/></clipPath><clipPath id="be65ebbcb4"><path d="M 1074 16.722656 L 1126 16.722656 L 1126 261 L 1074 261 Z M 1074 16.722656 " clip-rule="nonzero"/></clipPath><clipPath id="689f78b4d3"><path d="M 16.089844 35.136719 L 16.089844 426.785156 C 16.089844 437.554688 24.820312 446.28125 35.589844 446.28125 L 1376.410156 446.28125 C 1387.179688 446.28125 1395.910156 437.554688 1395.910156 426.785156 L 1395.910156 35.136719 C 1395.910156 24.367188 1387.179688 15.636719 1376.410156 15.636719 L 35.589844 15.636719 C 24.820312 15.636719 16.089844 24.367188 16.089844 35.136719 Z M 16.089844 35.136719 " clip-rule="nonzero"/></clipPath><clipPath id="3f2d0c3c1e"><path d="M 36.890625 16.9375 L 1375.109375 16.9375 C 1385.878906 16.9375 1394.609375 25.667969 1394.609375 36.4375 L 1394.609375 425.484375 C 1394.609375 436.253906 1385.878906 444.980469 1375.109375 444.980469 L 36.890625 444.980469 C 26.121094 444.980469 17.390625 436.253906 17.390625 425.484375 L 17.390625 36.4375 C 17.390625 25.667969 26.121094 16.9375 36.890625 16.9375 Z M 36.890625 16.9375 " clip-rule="nonzero"/></clipPath><clipPath id="b4dedff1ae"><path d="M 1172 18 L 1223 18 L 1223 262 L 1172 262 Z M 1172 18 " clip-rule="nonzero"/></clipPath><clipPath id="7c37c54ec6"><path d="M 16.089844 35.136719 L 16.089844 426.785156 C 16.089844 437.554688 24.820312 446.28125 35.589844 446.28125 L 1376.410156 446.28125 C 1387.179688 446.28125 1395.910156 437.554688 1395.910156 426.785156 L 1395.910156 35.136719 C 1395.910156 24.367188 1387.179688 15.636719 1376.410156 15.636719 L 35.589844 15.636719 C 24.820312 15.636719 16.089844 24.367188 16.089844 35.136719 Z M 16.089844 35.136719 " clip-rule="nonzero"/></clipPath><clipPath id="422d658c2d"><path d="M 36.890625 16.9375 L 1375.109375 16.9375 C 1385.878906 16.9375 1394.609375 25.667969 1394.609375 36.4375 L 1394.609375 425.484375 C 1394.609375 436.253906 1385.878906 444.980469 1375.109375 444.980469 L 36.890625 444.980469 C 26.121094 444.980469 17.390625 436.253906 17.390625 425.484375 L 17.390625 36.4375 C 17.390625 25.667969 26.121094 16.9375 36.890625 16.9375 Z M 36.890625 16.9375 " clip-rule="nonzero"/></clipPath><clipPath id="01ca293572"><path d="M 1172 17 L 1223 17 L 1223 262 L 1172 262 Z M 1172 17 " clip-rule="nonzero"/></clipPath><clipPath id="64af1eca82"><path d="M 16.089844 35.136719 L 16.089844 426.785156 C 16.089844 437.554688 24.820312 446.28125 35.589844 446.28125 L 1376.410156 446.28125 C 1387.179688 446.28125 1395.910156 437.554688 1395.910156 426.785156 L 1395.910156 35.136719 C 1395.910156 24.367188 1387.179688 15.636719 1376.410156 15.636719 L 35.589844 15.636719 C 24.820312 15.636719 16.089844 24.367188 16.089844 35.136719 Z M 16.089844 35.136719 " clip-rule="nonzero"/></clipPath><clipPath id="471f3110ac"><path d="M 36.890625 16.9375 L 1375.109375 16.9375 C 1385.878906 16.9375 1394.609375 25.667969 1394.609375 36.4375 L 1394.609375 425.484375 C 1394.609375 436.253906 1385.878906 444.980469 1375.109375 444.980469 L 36.890625 444.980469 C 26.121094 444.980469 17.390625 436.253906 17.390625 425.484375 L 17.390625 36.4375 C 17.390625 25.667969 26.121094 16.9375 36.890625 16.9375 Z M 36.890625 16.9375 " clip-rule="nonzero"/></clipPath><clipPath id="c404c70e24"><path d="M 1271 17 L 1322 17 L 1322 261 L 1271 261 Z M 1271 17 " clip-rule="nonzero"/></clipPath><clipPath id="f11b61e17e"><path d="M 16.089844 35.136719 L 16.089844 426.785156 C 16.089844 437.554688 24.820312 446.28125 35.589844 446.28125 L 1376.410156 446.28125 C 1387.179688 446.28125 1395.910156 437.554688 1395.910156 426.785156 L 1395.910156 35.136719 C 1395.910156 24.367188 1387.179688 15.636719 1376.410156 15.636719 L 35.589844 15.636719 C 24.820312 15.636719 16.089844 24.367188 16.089844 35.136719 Z M 16.089844 35.136719 " clip-rule="nonzero"/></clipPath><clipPath id="90238b6087"><path d="M 36.890625 16.9375 L 1375.109375 16.9375 C 1385.878906 16.9375 1394.609375 25.667969 1394.609375 36.4375 L 1394.609375 425.484375 C 1394.609375 436.253906 1385.878906 444.980469 1375.109375 444.980469 L 36.890625 444.980469 C 26.121094 444.980469 17.390625 436.253906 17.390625 425.484375 L 17.390625 36.4375 C 17.390625 25.667969 26.121094 16.9375 36.890625 16.9375 Z M 36.890625 16.9375 " clip-rule="nonzero"/></clipPath><clipPath id="978b39a674"><path d="M 1271 17 L 1322 17 L 1322 262 L 1271 262 Z M 1271 17 " clip-rule="nonzero"/></clipPath><clipPath id="85aaf18dc3"><path d="M 16.089844 35.136719 L 16.089844 426.785156 C 16.089844 437.554688 24.820312 446.28125 35.589844 446.28125 L 1376.410156 446.28125 C 1387.179688 446.28125 1395.910156 437.554688 1395.910156 426.785156 L 1395.910156 35.136719 C 1395.910156 24.367188 1387.179688 15.636719 1376.410156 15.636719 L 35.589844 15.636719 C 24.820312 15.636719 16.089844 24.367188 16.089844 35.136719 Z M 16.089844 35.136719 " clip-rule="nonzero"/></clipPath><clipPath id="9d61d6368b"><path d="M 36.890625 16.9375 L 1375.109375 16.9375 C 1385.878906 16.9375 1394.609375 25.667969 1394.609375 36.4375 L 1394.609375 425.484375 C 1394.609375 436.253906 1385.878906 444.980469 1375.109375 444.980469 L 36.890625 444.980469 C 26.121094 444.980469 17.390625 436.253906 17.390625 425.484375 L 17.390625 36.4375 C 17.390625 25.667969 26.121094 16.9375 36.890625 16.9375 Z M 36.890625 16.9375 " clip-rule="nonzero"/></clipPath><clipPath id="192702cabe"><path d="M 706 16.722656 L 1394.953125 16.722656 L 1394.953125 445 L 706 445 Z M 706 16.722656 " clip-rule="nonzero"/></clipPath><clipPath id="18f3394132"><path d="M 16.089844 35.136719 L 16.089844 426.785156 C 16.089844 437.554688 24.820312 446.28125 35.589844 446.28125 L 1376.410156 446.28125 C 1387.179688 446.28125 1395.910156 437.554688 1395.910156 426.785156 L 1395.910156 35.136719 C 1395.910156 24.367188 1387.179688 15.636719 1376.410156 15.636719 L 35.589844 15.636719 C 24.820312 15.636719 16.089844 24.367188 16.089844 35.136719 Z M 16.089844 35.136719 " clip-rule="nonzero"/></clipPath><clipPath id="ef5e2905a1"><path d="M 36.890625 16.9375 L 1375.109375 16.9375 C 1385.878906 16.9375 1394.609375 25.667969 1394.609375 36.4375 L 1394.609375 425.484375 C 1394.609375 436.253906 1385.878906 444.980469 1375.109375 444.980469 L 36.890625 444.980469 C 26.121094 444.980469 17.390625 436.253906 17.390625 425.484375 L 17.390625 36.4375 C 17.390625 25.667969 26.121094 16.9375 36.890625 16.9375 Z M 36.890625 16.9375 " clip-rule="nonzero"/></clipPath><clipPath id="588b97ca27"><path d="M 802 248 L 808 248 L 808 445 L 802 445 Z M 802 248 " clip-rule="nonzero"/></clipPath><clipPath id="2acb6da046"><path d="M 16.089844 35.136719 L 16.089844 426.785156 C 16.089844 437.554688 24.820312 446.28125 35.589844 446.28125 L 1376.410156 446.28125 C 1387.179688 446.28125 1395.910156 437.554688 1395.910156 426.785156 L 1395.910156 35.136719 C 1395.910156 24.367188 1387.179688 15.636719 1376.410156 15.636719 L 35.589844 15.636719 C 24.820312 15.636719 16.089844 24.367188 16.089844 35.136719 Z M 16.089844 35.136719 " clip-rule="nonzero"/></clipPath><clipPath id="ef81bb0149"><path d="M 36.890625 16.9375 L 1375.109375 16.9375 C 1385.878906 16.9375 1394.609375 25.667969 1394.609375 36.4375 L 1394.609375 425.484375 C 1394.609375 436.253906 1385.878906 444.980469 1375.109375 444.980469 L 36.890625 444.980469 C 26.121094 444.980469 17.390625 436.253906 17.390625 425.484375 L 17.390625 36.4375 C 17.390625 25.667969 26.121094 16.9375 36.890625 16.9375 Z M 36.890625 16.9375 " clip-rule="nonzero"/></clipPath><clipPath id="a23e7fff4f"><path d="M 901 247 L 907 247 L 907 445 L 901 445 Z M 901 247 " clip-rule="nonzero"/></clipPath><clipPath id="c771d7405c"><path d="M 16.089844 35.136719 L 16.089844 426.785156 C 16.089844 437.554688 24.820312 446.28125 35.589844 446.28125 L 1376.410156 446.28125 C 1387.179688 446.28125 1395.910156 437.554688 1395.910156 426.785156 L 1395.910156 35.136719 C 1395.910156 24.367188 1387.179688 15.636719 1376.410156 15.636719 L 35.589844 15.636719 C 24.820312 15.636719 16.089844 24.367188 16.089844 35.136719 Z M 16.089844 35.136719 " clip-rule="nonzero"/></clipPath><clipPath id="7ba4744598"><path d="M 36.890625 16.9375 L 1375.109375 16.9375 C 1385.878906 16.9375 1394.609375 25.667969 1394.609375 36.4375 L 1394.609375 425.484375 C 1394.609375 436.253906 1385.878906 444.980469 1375.109375 444.980469 L 36.890625 444.980469 C 26.121094 444.980469 17.390625 436.253906 17.390625 425.484375 L 17.390625 36.4375 C 17.390625 25.667969 26.121094 16.9375 36.890625 16.9375 Z M 36.890625 16.9375 " clip-rule="nonzero"/></clipPath><clipPath id="cc69b083f8"><path d="M 1097 248 L 1103 248 L 1103 445 L 1097 445 Z M 1097 248 " clip-rule="nonzero"/></clipPath><clipPath id="10f199f66f"><path d="M 16.089844 35.136719 L 16.089844 426.785156 C 16.089844 437.554688 24.820312 446.28125 35.589844 446.28125 L 1376.410156 446.28125 C 1387.179688 446.28125 1395.910156 437.554688 1395.910156 426.785156 L 1395.910156 35.136719 C 1395.910156 24.367188 1387.179688 15.636719 1376.410156 15.636719 L 35.589844 15.636719 C 24.820312 15.636719 16.089844 24.367188 16.089844 35.136719 Z M 16.089844 35.136719 " clip-rule="nonzero"/></clipPath><clipPath id="e42c6e9615"><path d="M 36.890625 16.9375 L 1375.109375 16.9375 C 1385.878906 16.9375 1394.609375 25.667969 1394.609375 36.4375 L 1394.609375 425.484375 C 1394.609375 436.253906 1385.878906 444.980469 1375.109375 444.980469 L 36.890625 444.980469 C 26.121094 444.980469 17.390625 436.253906 17.390625 425.484375 L 17.390625 36.4375 C 17.390625 25.667969 26.121094 16.9375 36.890625 16.9375 Z M 36.890625 16.9375 " clip-rule="nonzero"/></clipPath><clipPath id="8b0aaf573e"><path d="M 1194 248 L 1201 248 L 1201 445 L 1194 445 Z M 1194 248 " clip-rule="nonzero"/></clipPath><clipPath id="59610abb99"><path d="M 16.089844 35.136719 L 16.089844 426.785156 C 16.089844 437.554688 24.820312 446.28125 35.589844 446.28125 L 1376.410156 446.28125 C 1387.179688 446.28125 1395.910156 437.554688 1395.910156 426.785156 L 1395.910156 35.136719 C 1395.910156 24.367188 1387.179688 15.636719 1376.410156 15.636719 L 35.589844 15.636719 C 24.820312 15.636719 16.089844 24.367188 16.089844 35.136719 Z M 16.089844 35.136719 " clip-rule="nonzero"/></clipPath><clipPath id="be12d02244"><path d="M 36.890625 16.9375 L 1375.109375 16.9375 C 1385.878906 16.9375 1394.609375 25.667969 1394.609375 36.4375 L 1394.609375 425.484375 C 1394.609375 436.253906 1385.878906 444.980469 1375.109375 444.980469 L 36.890625 444.980469 C 26.121094 444.980469 17.390625 436.253906 17.390625 425.484375 L 17.390625 36.4375 C 17.390625 25.667969 26.121094 16.9375 36.890625 16.9375 Z M 36.890625 16.9375 " clip-rule="nonzero"/></clipPath><clipPath id="9fbdc5e604"><path d="M 1294 248 L 1300 248 L 1300 445 L 1294 445 Z M 1294 248 " clip-rule="nonzero"/></clipPath><clipPath id="3c577972dd"><path d="M 16.089844 35.136719 L 16.089844 426.785156 C 16.089844 437.554688 24.820312 446.28125 35.589844 446.28125 L 1376.410156 446.28125 C 1387.179688 446.28125 1395.910156 437.554688 1395.910156 426.785156 L 1395.910156 35.136719 C 1395.910156 24.367188 1387.179688 15.636719 1376.410156 15.636719 L 35.589844 15.636719 C 24.820312 15.636719 16.089844 24.367188 16.089844 35.136719 Z M 16.089844 35.136719 " clip-rule="nonzero"/></clipPath><clipPath id="af2b3cec1e"><path d="M 36.890625 16.9375 L 1375.109375 16.9375 C 1385.878906 16.9375 1394.609375 25.667969 1394.609375 36.4375 L 1394.609375 425.484375 C 1394.609375 436.253906 1385.878906 444.980469 1375.109375 444.980469 L 36.890625 444.980469 C 26.121094 444.980469 17.390625 436.253906 17.390625 425.484375 L 17.390625 36.4375 C 17.390625 25.667969 26.121094 16.9375 36.890625 16.9375 Z M 36.890625 16.9375 " clip-rule="nonzero"/></clipPath><clipPath id="7ea6178cba"><path d="M 999 16.722656 L 1005 16.722656 L 1005 445 L 999 445 Z M 999 16.722656 " clip-rule="nonzero"/></clipPath><clipPath id="d872c48c0d"><path d="M 16.089844 35.136719 L 16.089844 426.785156 C 16.089844 437.554688 24.820312 446.28125 35.589844 446.28125 L 1376.410156 446.28125 C 1387.179688 446.28125 1395.910156 437.554688 1395.910156 426.785156 L 1395.910156 35.136719 C 1395.910156 24.367188 1387.179688 15.636719 1376.410156 15.636719 L 35.589844 15.636719 C 24.820312 15.636719 16.089844 24.367188 16.089844 35.136719 Z M 16.089844 35.136719 " clip-rule="nonzero"/></clipPath><clipPath id="fc5e94ad7c"><path d="M 36.890625 16.9375 L 1375.109375 16.9375 C 1385.878906 16.9375 1394.609375 25.667969 1394.609375 36.4375 L 1394.609375 425.484375 C 1394.609375 436.253906 1385.878906 444.980469 1375.109375 444.980469 L 36.890625 444.980469 C 26.121094 444.980469 17.390625 436.253906 17.390625 425.484375 L 17.390625 36.4375 C 17.390625 25.667969 26.121094 16.9375 36.890625 16.9375 Z M 36.890625 16.9375 " clip-rule="nonzero"/></clipPath><clipPath id="b32b475b9b"><path d="M 195 25 L 237 25 L 237 253 L 195 253 Z M 195 25 " clip-rule="nonzero"/></clipPath><clipPath id="8066af4be8"><path d="M 16.089844 35.136719 L 16.089844 426.785156 C 16.089844 437.554688 24.820312 446.28125 35.589844 446.28125 L 1376.410156 446.28125 C 1387.179688 446.28125 1395.910156 437.554688 1395.910156 426.785156 L 1395.910156 35.136719 C 1395.910156 24.367188 1387.179688 15.636719 1376.410156 15.636719 L 35.589844 15.636719 C 24.820312 15.636719 16.089844 24.367188 16.089844 35.136719 Z M 16.089844 35.136719 " clip-rule="nonzero"/></clipPath><clipPath id="ee876d9014"><path d="M 36.890625 16.9375 L 1375.109375 16.9375 C 1385.878906 16.9375 1394.609375 25.667969 1394.609375 36.4375 L 1394.609375 425.484375 C 1394.609375 436.253906 1385.878906 444.980469 1375.109375 444.980469 L 36.890625 444.980469 C 26.121094 444.980469 17.390625 436.253906 17.390625 425.484375 L 17.390625 36.4375 C 17.390625 25.667969 26.121094 16.9375 36.890625 16.9375 Z M 36.890625 16.9375 " clip-rule="nonzero"/></clipPath><clipPath id="90fa7a7d01"><path d="M 189 20 L 242 20 L 242 258 L 189 258 Z M 189 20 " clip-rule="nonzero"/></clipPath><clipPath id="994bf7dac8"><path d="M 16.089844 35.136719 L 16.089844 426.785156 C 16.089844 437.554688 24.820312 446.28125 35.589844 446.28125 L 1376.410156 446.28125 C 1387.179688 446.28125 1395.910156 437.554688 1395.910156 426.785156 L 1395.910156 35.136719 C 1395.910156 24.367188 1387.179688 15.636719 1376.410156 15.636719 L 35.589844 15.636719 C 24.820312 15.636719 16.089844 24.367188 16.089844 35.136719 Z M 16.089844 35.136719 " clip-rule="nonzero"/></clipPath><clipPath id="10c5a50a37"><path d="M 36.890625 16.9375 L 1375.109375 16.9375 C 1385.878906 16.9375 1394.609375 25.667969 1394.609375 36.4375 L 1394.609375 425.484375 C 1394.609375 436.253906 1385.878906 444.980469 1375.109375 444.980469 L 36.890625 444.980469 C 26.121094 444.980469 17.390625 436.253906 17.390625 425.484375 L 17.390625 36.4375 C 17.390625 25.667969 26.121094 16.9375 36.890625 16.9375 Z M 36.890625 16.9375 " clip-rule="nonzero"/></clipPath><clipPath id="2b272fbc5d"><path d="M 391 25 L 433 25 L 433 253 L 391 253 Z M 391 25 " clip-rule="nonzero"/></clipPath><clipPath id="6b61c32fa2"><path d="M 16.089844 35.136719 L 16.089844 426.785156 C 16.089844 437.554688 24.820312 446.28125 35.589844 446.28125 L 1376.410156 446.28125 C 1387.179688 446.28125 1395.910156 437.554688 1395.910156 426.785156 L 1395.910156 35.136719 C 1395.910156 24.367188 1387.179688 15.636719 1376.410156 15.636719 L 35.589844 15.636719 C 24.820312 15.636719 16.089844 24.367188 16.089844 35.136719 Z M 16.089844 35.136719 " clip-rule="nonzero"/></clipPath><clipPath id="daf1c943a3"><path d="M 36.890625 16.9375 L 1375.109375 16.9375 C 1385.878906 16.9375 1394.609375 25.667969 1394.609375 36.4375 L 1394.609375 425.484375 C 1394.609375 436.253906 1385.878906 444.980469 1375.109375 444.980469 L 36.890625 444.980469 C 26.121094 444.980469 17.390625 436.253906 17.390625 425.484375 L 17.390625 36.4375 C 17.390625 25.667969 26.121094 16.9375 36.890625 16.9375 Z M 36.890625 16.9375 " clip-rule="nonzero"/></clipPath><clipPath id="5fe15b2be5"><path d="M 386 20 L 439 20 L 439 258 L 386 258 Z M 386 20 " clip-rule="nonzero"/></clipPath><clipPath id="0f1687dcb7"><path d="M 16.089844 35.136719 L 16.089844 426.785156 C 16.089844 437.554688 24.820312 446.28125 35.589844 446.28125 L 1376.410156 446.28125 C 1387.179688 446.28125 1395.910156 437.554688 1395.910156 426.785156 L 1395.910156 35.136719 C 1395.910156 24.367188 1387.179688 15.636719 1376.410156 15.636719 L 35.589844 15.636719 C 24.820312 15.636719 16.089844 24.367188 16.089844 35.136719 Z M 16.089844 35.136719 " clip-rule="nonzero"/></clipPath><clipPath id="3f4e9a565e"><path d="M 36.890625 16.9375 L 1375.109375 16.9375 C 1385.878906 16.9375 1394.609375 25.667969 1394.609375 36.4375 L 1394.609375 425.484375 C 1394.609375 436.253906 1385.878906 444.980469 1375.109375 444.980469 L 36.890625 444.980469 C 26.121094 444.980469 17.390625 436.253906 17.390625 425.484375 L 17.390625 36.4375 C 17.390625 25.667969 26.121094 16.9375 36.890625 16.9375 Z M 36.890625 16.9375 " clip-rule="nonzero"/></clipPath><clipPath id="6299d538b2"><path d="M 487 27 L 529 27 L 529 255 L 487 255 Z M 487 27 " clip-rule="nonzero"/></clipPath><clipPath id="f8d2ae16f9"><path d="M 16.089844 35.136719 L 16.089844 426.785156 C 16.089844 437.554688 24.820312 446.28125 35.589844 446.28125 L 1376.410156 446.28125 C 1387.179688 446.28125 1395.910156 437.554688 1395.910156 426.785156 L 1395.910156 35.136719 C 1395.910156 24.367188 1387.179688 15.636719 1376.410156 15.636719 L 35.589844 15.636719 C 24.820312 15.636719 16.089844 24.367188 16.089844 35.136719 Z M 16.089844 35.136719 " clip-rule="nonzero"/></clipPath><clipPath id="652e2257e0"><path d="M 36.890625 16.9375 L 1375.109375 16.9375 C 1385.878906 16.9375 1394.609375 25.667969 1394.609375 36.4375 L 1394.609375 425.484375 C 1394.609375 436.253906 1385.878906 444.980469 1375.109375 444.980469 L 36.890625 444.980469 C 26.121094 444.980469 17.390625 436.253906 17.390625 425.484375 L 17.390625 36.4375 C 17.390625 25.667969 26.121094 16.9375 36.890625 16.9375 Z M 36.890625 16.9375 " clip-rule="nonzero"/></clipPath><clipPath id="58dfa4e541"><path d="M 482 22 L 535 22 L 535 260 L 482 260 Z M 482 22 " clip-rule="nonzero"/></clipPath><clipPath id="d175962b3b"><path d="M 16.089844 35.136719 L 16.089844 426.785156 C 16.089844 437.554688 24.820312 446.28125 35.589844 446.28125 L 1376.410156 446.28125 C 1387.179688 446.28125 1395.910156 437.554688 1395.910156 426.785156 L 1395.910156 35.136719 C 1395.910156 24.367188 1387.179688 15.636719 1376.410156 15.636719 L 35.589844 15.636719 C 24.820312 15.636719 16.089844 24.367188 16.089844 35.136719 Z M 16.089844 35.136719 " clip-rule="nonzero"/></clipPath><clipPath id="5f63fa359a"><path d="M 36.890625 16.9375 L 1375.109375 16.9375 C 1385.878906 16.9375 1394.609375 25.667969 1394.609375 36.4375 L 1394.609375 425.484375 C 1394.609375 436.253906 1385.878906 444.980469 1375.109375 444.980469 L 36.890625 444.980469 C 26.121094 444.980469 17.390625 436.253906 17.390625 425.484375 L 17.390625 36.4375 C 17.390625 25.667969 26.121094 16.9375 36.890625 16.9375 Z M 36.890625 16.9375 " clip-rule="nonzero"/></clipPath><clipPath id="5dc6625f97"><path d="M 587 27 L 629 27 L 629 255 L 587 255 Z M 587 27 " clip-rule="nonzero"/></clipPath><clipPath id="324724e83a"><path d="M 16.089844 35.136719 L 16.089844 426.785156 C 16.089844 437.554688 24.820312 446.28125 35.589844 446.28125 L 1376.410156 446.28125 C 1387.179688 446.28125 1395.910156 437.554688 1395.910156 426.785156 L 1395.910156 35.136719 C 1395.910156 24.367188 1387.179688 15.636719 1376.410156 15.636719 L 35.589844 15.636719 C 24.820312 15.636719 16.089844 24.367188 16.089844 35.136719 Z M 16.089844 35.136719 " clip-rule="nonzero"/></clipPath><clipPath id="616ef90225"><path d="M 36.890625 16.9375 L 1375.109375 16.9375 C 1385.878906 16.9375 1394.609375 25.667969 1394.609375 36.4375 L 1394.609375 425.484375 C 1394.609375 436.253906 1385.878906 444.980469 1375.109375 444.980469 L 36.890625 444.980469 C 26.121094 444.980469 17.390625 436.253906 17.390625 425.484375 L 17.390625 36.4375 C 17.390625 25.667969 26.121094 16.9375 36.890625 16.9375 Z M 36.890625 16.9375 " clip-rule="nonzero"/></clipPath><clipPath id="4b40795d5f"><path d="M 582 22 L 635 22 L 635 260 L 582 260 Z M 582 22 " clip-rule="nonzero"/></clipPath><clipPath id="64c7d45d29"><path d="M 16.089844 35.136719 L 16.089844 426.785156 C 16.089844 437.554688 24.820312 446.28125 35.589844 446.28125 L 1376.410156 446.28125 C 1387.179688 446.28125 1395.910156 437.554688 1395.910156 426.785156 L 1395.910156 35.136719 C 1395.910156 24.367188 1387.179688 15.636719 1376.410156 15.636719 L 35.589844 15.636719 C 24.820312 15.636719 16.089844 24.367188 16.089844 35.136719 Z M 16.089844 35.136719 " clip-rule="nonzero"/></clipPath><clipPath id="79fc4da33c"><path d="M 36.890625 16.9375 L 1375.109375 16.9375 C 1385.878906 16.9375 1394.609375 25.667969 1394.609375 36.4375 L 1394.609375 425.484375 C 1394.609375 436.253906 1385.878906 444.980469 1375.109375 444.980469 L 36.890625 444.980469 C 26.121094 444.980469 17.390625 436.253906 17.390625 425.484375 L 17.390625 36.4375 C 17.390625 25.667969 26.121094 16.9375 36.890625 16.9375 Z M 36.890625 16.9375 " clip-rule="nonzero"/></clipPath><clipPath id="5afc8bd454"><path d="M 785 24 L 827 24 L 827 251 L 785 251 Z M 785 24 " clip-rule="nonzero"/></clipPath><clipPath id="193e4f7b84"><path d="M 16.089844 35.136719 L 16.089844 426.785156 C 16.089844 437.554688 24.820312 446.28125 35.589844 446.28125 L 1376.410156 446.28125 C 1387.179688 446.28125 1395.910156 437.554688 1395.910156 426.785156 L 1395.910156 35.136719 C 1395.910156 24.367188 1387.179688 15.636719 1376.410156 15.636719 L 35.589844 15.636719 C 24.820312 15.636719 16.089844 24.367188 16.089844 35.136719 Z M 16.089844 35.136719 " clip-rule="nonzero"/></clipPath><clipPath id="a6dca52dd1"><path d="M 36.890625 16.9375 L 1375.109375 16.9375 C 1385.878906 16.9375 1394.609375 25.667969 1394.609375 36.4375 L 1394.609375 425.484375 C 1394.609375 436.253906 1385.878906 444.980469 1375.109375 444.980469 L 36.890625 444.980469 C 26.121094 444.980469 17.390625 436.253906 17.390625 425.484375 L 17.390625 36.4375 C 17.390625 25.667969 26.121094 16.9375 36.890625 16.9375 Z M 36.890625 16.9375 " clip-rule="nonzero"/></clipPath><clipPath id="152a1ba1b0"><path d="M 780 18 L 833 18 L 833 256 L 780 256 Z M 780 18 " clip-rule="nonzero"/></clipPath><clipPath id="28896c09fb"><path d="M 16.089844 35.136719 L 16.089844 426.785156 C 16.089844 437.554688 24.820312 446.28125 35.589844 446.28125 L 1376.410156 446.28125 C 1387.179688 446.28125 1395.910156 437.554688 1395.910156 426.785156 L 1395.910156 35.136719 C 1395.910156 24.367188 1387.179688 15.636719 1376.410156 15.636719 L 35.589844 15.636719 C 24.820312 15.636719 16.089844 24.367188 16.089844 35.136719 Z M 16.089844 35.136719 " clip-rule="nonzero"/></clipPath><clipPath id="c45896a246"><path d="M 36.890625 16.9375 L 1375.109375 16.9375 C 1385.878906 16.9375 1394.609375 25.667969 1394.609375 36.4375 L 1394.609375 425.484375 C 1394.609375 436.253906 1385.878906 444.980469 1375.109375 444.980469 L 36.890625 444.980469 C 26.121094 444.980469 17.390625 436.253906 17.390625 425.484375 L 17.390625 36.4375 C 17.390625 25.667969 26.121094 16.9375 36.890625 16.9375 Z M 36.890625 16.9375 " clip-rule="nonzero"/></clipPath><clipPath id="9345210285"><path d="M 885 24 L 927 24 L 927 251 L 885 251 Z M 885 24 " clip-rule="nonzero"/></clipPath><clipPath id="0393b5776e"><path d="M 16.089844 35.136719 L 16.089844 426.785156 C 16.089844 437.554688 24.820312 446.28125 35.589844 446.28125 L 1376.410156 446.28125 C 1387.179688 446.28125 1395.910156 437.554688 1395.910156 426.785156 L 1395.910156 35.136719 C 1395.910156 24.367188 1387.179688 15.636719 1376.410156 15.636719 L 35.589844 15.636719 C 24.820312 15.636719 16.089844 24.367188 16.089844 35.136719 Z M 16.089844 35.136719 " clip-rule="nonzero"/></clipPath><clipPath id="4a59cb48bc"><path d="M 36.890625 16.9375 L 1375.109375 16.9375 C 1385.878906 16.9375 1394.609375 25.667969 1394.609375 36.4375 L 1394.609375 425.484375 C 1394.609375 436.253906 1385.878906 444.980469 1375.109375 444.980469 L 36.890625 444.980469 C 26.121094 444.980469 17.390625 436.253906 17.390625 425.484375 L 17.390625 36.4375 C 17.390625 25.667969 26.121094 16.9375 36.890625 16.9375 Z M 36.890625 16.9375 " clip-rule="nonzero"/></clipPath><clipPath id="83b3475623"><path d="M 880 18 L 933 18 L 933 256 L 880 256 Z M 880 18 " clip-rule="nonzero"/></clipPath><clipPath id="c588ff35db"><path d="M 16.089844 35.136719 L 16.089844 426.785156 C 16.089844 437.554688 24.820312 446.28125 35.589844 446.28125 L 1376.410156 446.28125 C 1387.179688 446.28125 1395.910156 437.554688 1395.910156 426.785156 L 1395.910156 35.136719 C 1395.910156 24.367188 1387.179688 15.636719 1376.410156 15.636719 L 35.589844 15.636719 C 24.820312 15.636719 16.089844 24.367188 16.089844 35.136719 Z M 16.089844 35.136719 " clip-rule="nonzero"/></clipPath><clipPath id="5deaca1cd6"><path d="M 36.890625 16.9375 L 1375.109375 16.9375 C 1385.878906 16.9375 1394.609375 25.667969 1394.609375 36.4375 L 1394.609375 425.484375 C 1394.609375 436.253906 1385.878906 444.980469 1375.109375 444.980469 L 36.890625 444.980469 C 26.121094 444.980469 17.390625 436.253906 17.390625 425.484375 L 17.390625 36.4375 C 17.390625 25.667969 26.121094 16.9375 36.890625 16.9375 Z M 36.890625 16.9375 " clip-rule="nonzero"/></clipPath><clipPath id="e1d98261ab"><path d="M 1082 29 L 1124 29 L 1124 256 L 1082 256 Z M 1082 29 " clip-rule="nonzero"/></clipPath><clipPath id="705e3e33b5"><path d="M 16.089844 35.136719 L 16.089844 426.785156 C 16.089844 437.554688 24.820312 446.28125 35.589844 446.28125 L 1376.410156 446.28125 C 1387.179688 446.28125 1395.910156 437.554688 1395.910156 426.785156 L 1395.910156 35.136719 C 1395.910156 24.367188 1387.179688 15.636719 1376.410156 15.636719 L 35.589844 15.636719 C 24.820312 15.636719 16.089844 24.367188 16.089844 35.136719 Z M 16.089844 35.136719 " clip-rule="nonzero"/></clipPath><clipPath id="2da0c3e7f8"><path d="M 36.890625 16.9375 L 1375.109375 16.9375 C 1385.878906 16.9375 1394.609375 25.667969 1394.609375 36.4375 L 1394.609375 425.484375 C 1394.609375 436.253906 1385.878906 444.980469 1375.109375 444.980469 L 36.890625 444.980469 C 26.121094 444.980469 17.390625 436.253906 17.390625 425.484375 L 17.390625 36.4375 C 17.390625 25.667969 26.121094 16.9375 36.890625 16.9375 Z M 36.890625 16.9375 " clip-rule="nonzero"/></clipPath><clipPath id="84a84f37ed"><path d="M 1076 23 L 1129 23 L 1129 262 L 1076 262 Z M 1076 23 " clip-rule="nonzero"/></clipPath><clipPath id="b10e4125d9"><path d="M 16.089844 35.136719 L 16.089844 426.785156 C 16.089844 437.554688 24.820312 446.28125 35.589844 446.28125 L 1376.410156 446.28125 C 1387.179688 446.28125 1395.910156 437.554688 1395.910156 426.785156 L 1395.910156 35.136719 C 1395.910156 24.367188 1387.179688 15.636719 1376.410156 15.636719 L 35.589844 15.636719 C 24.820312 15.636719 16.089844 24.367188 16.089844 35.136719 Z M 16.089844 35.136719 " clip-rule="nonzero"/></clipPath><clipPath id="aaf246b70d"><path d="M 36.890625 16.9375 L 1375.109375 16.9375 C 1385.878906 16.9375 1394.609375 25.667969 1394.609375 36.4375 L 1394.609375 425.484375 C 1394.609375 436.253906 1385.878906 444.980469 1375.109375 444.980469 L 36.890625 444.980469 C 26.121094 444.980469 17.390625 436.253906 17.390625 425.484375 L 17.390625 36.4375 C 17.390625 25.667969 26.121094 16.9375 36.890625 16.9375 Z M 36.890625 16.9375 " clip-rule="nonzero"/></clipPath><clipPath id="54e409dd22"><path d="M 1178 31 L 1220 31 L 1220 258 L 1178 258 Z M 1178 31 " clip-rule="nonzero"/></clipPath><clipPath id="0743f07855"><path d="M 16.089844 35.136719 L 16.089844 426.785156 C 16.089844 437.554688 24.820312 446.28125 35.589844 446.28125 L 1376.410156 446.28125 C 1387.179688 446.28125 1395.910156 437.554688 1395.910156 426.785156 L 1395.910156 35.136719 C 1395.910156 24.367188 1387.179688 15.636719 1376.410156 15.636719 L 35.589844 15.636719 C 24.820312 15.636719 16.089844 24.367188 16.089844 35.136719 Z M 16.089844 35.136719 " clip-rule="nonzero"/></clipPath><clipPath id="753bce8756"><path d="M 36.890625 16.9375 L 1375.109375 16.9375 C 1385.878906 16.9375 1394.609375 25.667969 1394.609375 36.4375 L 1394.609375 425.484375 C 1394.609375 436.253906 1385.878906 444.980469 1375.109375 444.980469 L 36.890625 444.980469 C 26.121094 444.980469 17.390625 436.253906 17.390625 425.484375 L 17.390625 36.4375 C 17.390625 25.667969 26.121094 16.9375 36.890625 16.9375 Z M 36.890625 16.9375 " clip-rule="nonzero"/></clipPath><clipPath id="7ac5c715ea"><path d="M 1172 25 L 1225 25 L 1225 264 L 1172 264 Z M 1172 25 " clip-rule="nonzero"/></clipPath><clipPath id="58b06e7d9e"><path d="M 16.089844 35.136719 L 16.089844 426.785156 C 16.089844 437.554688 24.820312 446.28125 35.589844 446.28125 L 1376.410156 446.28125 C 1387.179688 446.28125 1395.910156 437.554688 1395.910156 426.785156 L 1395.910156 35.136719 C 1395.910156 24.367188 1387.179688 15.636719 1376.410156 15.636719 L 35.589844 15.636719 C 24.820312 15.636719 16.089844 24.367188 16.089844 35.136719 Z M 16.089844 35.136719 " clip-rule="nonzero"/></clipPath><clipPath id="fdbb990781"><path d="M 36.890625 16.9375 L 1375.109375 16.9375 C 1385.878906 16.9375 1394.609375 25.667969 1394.609375 36.4375 L 1394.609375 425.484375 C 1394.609375 436.253906 1385.878906 444.980469 1375.109375 444.980469 L 36.890625 444.980469 C 26.121094 444.980469 17.390625 436.253906 17.390625 425.484375 L 17.390625 36.4375 C 17.390625 25.667969 26.121094 16.9375 36.890625 16.9375 Z M 36.890625 16.9375 " clip-rule="nonzero"/></clipPath><clipPath id="6fdc1b64f7"><path d="M 1276 29 L 1318 29 L 1318 256 L 1276 256 Z M 1276 29 " clip-rule="nonzero"/></clipPath><clipPath id="8c180e6b3b"><path d="M 16.089844 35.136719 L 16.089844 426.785156 C 16.089844 437.554688 24.820312 446.28125 35.589844 446.28125 L 1376.410156 446.28125 C 1387.179688 446.28125 1395.910156 437.554688 1395.910156 426.785156 L 1395.910156 35.136719 C 1395.910156 24.367188 1387.179688 15.636719 1376.410156 15.636719 L 35.589844 15.636719 C 24.820312 15.636719 16.089844 24.367188 16.089844 35.136719 Z M 16.089844 35.136719 " clip-rule="nonzero"/></clipPath><clipPath id="0eb57c94b2"><path d="M 36.890625 16.9375 L 1375.109375 16.9375 C 1385.878906 16.9375 1394.609375 25.667969 1394.609375 36.4375 L 1394.609375 425.484375 C 1394.609375 436.253906 1385.878906 444.980469 1375.109375 444.980469 L 36.890625 444.980469 C 26.121094 444.980469 17.390625 436.253906 17.390625 425.484375 L 17.390625 36.4375 C 17.390625 25.667969 26.121094 16.9375 36.890625 16.9375 Z M 36.890625 16.9375 " clip-rule="nonzero"/></clipPath><clipPath id="5e15b47db4"><path d="M 1271 23 L 1324 23 L 1324 262 L 1271 262 Z M 1271 23 " clip-rule="nonzero"/></clipPath><clipPath id="3adb406546"><path d="M 16.089844 35.136719 L 16.089844 426.785156 C 16.089844 437.554688 24.820312 446.28125 35.589844 446.28125 L 1376.410156 446.28125 C 1387.179688 446.28125 1395.910156 437.554688 1395.910156 426.785156 L 1395.910156 35.136719 C 1395.910156 24.367188 1387.179688 15.636719 1376.410156 15.636719 L 35.589844 15.636719 C 24.820312 15.636719 16.089844 24.367188 16.089844 35.136719 Z M 16.089844 35.136719 " clip-rule="nonzero"/></clipPath><clipPath id="487faae368"><path d="M 36.890625 16.9375 L 1375.109375 16.9375 C 1385.878906 16.9375 1394.609375 25.667969 1394.609375 36.4375 L 1394.609375 425.484375 C 1394.609375 436.253906 1385.878906 444.980469 1375.109375 444.980469 L 36.890625 444.980469 C 26.121094 444.980469 17.390625 436.253906 17.390625 425.484375 L 17.390625 36.4375 C 17.390625 25.667969 26.121094 16.9375 36.890625 16.9375 Z M 36.890625 16.9375 " clip-rule="nonzero"/></clipPath><clipPath id="a947777ed3"><path d="M 16.089844 15.636719 L 1396 15.636719 L 1396 445.992188 L 16.089844 445.992188 Z M 16.089844 15.636719 " clip-rule="nonzero"/></clipPath><clipPath id="22e2d67aeb"><path d="M 16.089844 35.136719 L 16.089844 426.785156 C 16.089844 437.554688 24.820312 446.28125 35.589844 446.28125 L 1376.410156 446.28125 C 1387.179688 446.28125 1395.910156 437.554688 1395.910156 426.785156 L 1395.910156 35.136719 C 1395.910156 24.367188 1387.179688 15.636719 1376.410156 15.636719 L 35.589844 15.636719 C 24.820312 15.636719 16.089844 24.367188 16.089844 35.136719 Z M 16.089844 35.136719 " clip-rule="nonzero"/></clipPath><clipPath id="ac5826c728"><path d="M 16.089844 35.136719 L 16.089844 426.78125 C 16.089844 437.550781 24.820312 446.28125 35.589844 446.28125 L 1376.40625 446.28125 C 1387.171875 446.28125 1395.902344 437.550781 1395.902344 426.78125 L 1395.902344 35.136719 C 1395.902344 24.367188 1387.171875 15.636719 1376.40625 15.636719 L 35.589844 15.636719 C 24.820312 15.636719 16.089844 24.367188 16.089844 35.136719 Z M 16.089844 35.136719 " clip-rule="nonzero"/></clipPath><clipPath id="b47c3f9a16"><path d="M 135.140625 355.300781 L 196.929688 355.300781 L 196.929688 417.089844 L 135.140625 417.089844 Z M 135.140625 355.300781 " clip-rule="nonzero"/></clipPath><clipPath id="f0d29b3e44"><path d="M 527.09375 355.300781 L 588.882812 355.300781 L 588.882812 417.089844 L 527.09375 417.089844 Z M 527.09375 355.300781 " clip-rule="nonzero"/></clipPath><clipPath id="b5eceef9d4"><path d="M 380.710938 183.269531 L 441 183.269531 L 441 243.976562 L 380.710938 243.976562 Z M 380.710938 183.269531 " clip-rule="nonzero"/></clipPath><clipPath id="4a9e781afb"><path d="M 379.625 213.273438 C 379.625 230.441406 393.542969 244.359375 410.710938 244.359375 C 427.878906 244.359375 441.796875 230.441406 441.796875 213.273438 C 441.796875 196.105469 427.878906 182.1875 410.710938 182.1875 C 393.542969 182.1875 379.625 196.105469 379.625 213.273438 Z M 379.625 213.273438 " clip-rule="nonzero"/></clipPath><clipPath id="dd1fd2e2a4"><path d="M 410.710938 183.488281 C 427.160156 183.488281 440.496094 196.824219 440.496094 213.273438 C 440.496094 229.722656 427.160156 243.058594 410.710938 243.058594 C 394.261719 243.058594 380.925781 229.722656 380.925781 213.273438 C 380.925781 196.824219 394.261719 183.488281 410.710938 183.488281 Z M 410.710938 183.488281 " clip-rule="nonzero"/></clipPath><clipPath id="7913eb7b4e"><path d="M 379.625 182.1875 L 441.414062 182.1875 L 441.414062 243.976562 L 379.625 243.976562 Z M 379.625 182.1875 " clip-rule="nonzero"/></clipPath><clipPath id="e5856f5b34"><path d="M 379.625 213.273438 C 379.625 230.441406 393.542969 244.359375 410.710938 244.359375 C 427.878906 244.359375 441.796875 230.441406 441.796875 213.273438 C 441.796875 196.105469 427.878906 182.1875 410.710938 182.1875 C 393.542969 182.1875 379.625 196.105469 379.625 213.273438 Z M 379.625 213.273438 " clip-rule="nonzero"/></clipPath><clipPath id="19c303cb2f"><path d="M 379.625 213.265625 C 379.625 230.433594 393.542969 244.347656 410.707031 244.347656 C 427.871094 244.347656 441.789062 230.433594 441.789062 213.265625 C 441.789062 196.101562 427.871094 182.1875 410.707031 182.1875 C 393.542969 182.1875 379.625 196.101562 379.625 213.265625 Z M 379.625 213.265625 " clip-rule="nonzero"/></clipPath><clipPath id="aeb8245687"><rect x="0" width="1412" y="0" height="463"/></clipPath></defs><g clip-path="url(#eb5bd8c83b)"><path fill="#ffffff" d="M 0.0976562 0 L 1499.902344 0 L 1499.902344 599.921875 L 0.0976562 599.921875 Z M 0.0976562 0 " fill-opacity="1" fill-rule="nonzero"/><path fill="#ffffff" d="M 0.0976562 0 L 1499.902344 0 L 1499.902344 599.921875 L 0.0976562 599.921875 Z M 0.0976562 0 " fill-opacity="1" fill-rule="nonzero"/></g><g transform="matrix(1, 0, 0, 1, 44, 69)"><g clip-path="url(#aeb8245687)"><g clip-path="url(#849c130ca6)"><g clip-path="url(#0478f2780f)"><g clip-path="url(#a8ae5f883b)"><path fill="#000000" d="M 91.445312 19.566406 L 140.894531 19.566406 L 140.894531 262.433594 L 91.445312 262.433594 Z M 91.445312 19.566406 " fill-opacity="1" fill-rule="evenodd"/></g></g></g><g clip-path="url(#8ef63a61da)"><g clip-path="url(#bf5c242779)"><g clip-path="url(#3c668ae394)"><path stroke-linecap="butt" transform="matrix(0.95616, 0, 0, 0.949784, -14.373634, -141.309181)" fill="none" stroke-linejoin="miter" d="M 110.670726 169.381188 L 162.387182 169.381188 L 162.387182 425.088927 L 110.670726 425.088927 Z M 110.670726 169.381188 " stroke="#000000" stroke-width="1.207" stroke-opacity="1" stroke-miterlimit="4"/></g></g></g><g clip-path="url(#1253dcf70e)"><g clip-path="url(#d01de26d99)"><g clip-path="url(#1ce165b191)"><path fill="#000000" d="M 189.347656 19.441406 L 238.796875 19.441406 L 238.796875 262.3125 L 189.347656 262.3125 Z M 189.347656 19.441406 " fill-opacity="1" fill-rule="evenodd"/></g></g></g><g clip-path="url(#fce3666ac1)"><g clip-path="url(#4eb6b7a5d4)"><g clip-path="url(#c9cb774dbc)"><path stroke-linecap="butt" transform="matrix(0.95616, 0, 0, 0.949784, -14.373634, -141.309181)" fill="none" stroke-linejoin="miter" d="M 213.061874 169.249579 L 264.77833 169.249579 L 264.77833 424.961431 L 213.061874 424.961431 Z M 213.061874 169.249579 " stroke="#000000" stroke-width="1.207" stroke-opacity="1" stroke-miterlimit="4"/></g></g></g><g clip-path="url(#7f4c873a02)"><g clip-path="url(#607e6b051d)"><g clip-path="url(#1856cc5a26)"><path fill="#000000" d="M 385.464844 18.957031 L 434.914062 18.957031 L 434.914062 261.828125 L 385.464844 261.828125 Z M 385.464844 18.957031 " fill-opacity="1" fill-rule="evenodd"/></g></g></g><g clip-path="url(#89bbcf0d66)"><g clip-path="url(#dc9c6e3f85)"><g clip-path="url(#480cbd2beb)"><path stroke-linecap="butt" transform="matrix(0.95616, 0, 0, 0.949784, -14.373634, -141.309181)" fill="none" stroke-linejoin="miter" d="M 418.170999 168.739595 L 469.887455 168.739595 L 469.887455 424.451446 L 418.170999 424.451446 Z M 418.170999 168.739595 " stroke="#000000" stroke-width="1.207" stroke-opacity="1" stroke-miterlimit="4"/></g></g></g><g clip-path="url(#427cb48763)"><g clip-path="url(#219b393e7c)"><g clip-path="url(#cab190d487)"><path fill="#000000" d="M 482.800781 19.925781 L 532.25 19.925781 L 532.25 262.796875 L 482.800781 262.796875 Z M 482.800781 19.925781 " fill-opacity="1" fill-rule="evenodd"/></g></g></g><g clip-path="url(#dc6ba523bc)"><g clip-path="url(#7cf29d3f93)"><g clip-path="url(#9f86c5f76f)"><path stroke-linecap="butt" transform="matrix(0.95616, 0, 0, 0.949784, -14.373634, -141.309181)" fill="none" stroke-linejoin="miter" d="M 519.969771 169.759563 L 571.686227 169.759563 L 571.686227 425.471415 L 519.969771 425.471415 Z M 519.969771 169.759563 " stroke="#000000" stroke-width="1.207" stroke-opacity="1" stroke-miterlimit="4"/></g></g></g><g clip-path="url(#47de0254b2)"><g clip-path="url(#a68296f6b5)"><g clip-path="url(#2d16ffe590)"><path fill="#000000" d="M 582.078125 19.441406 L 631.53125 19.441406 L 631.53125 262.3125 L 582.078125 262.3125 Z M 582.078125 19.441406 " fill-opacity="1" fill-rule="evenodd"/></g></g></g><g clip-path="url(#10db75f06a)"><g clip-path="url(#1ce32f7571)"><g clip-path="url(#022887aa75)"><path stroke-linecap="butt" transform="matrix(0.95616, 0, 0, 0.949784, -14.373634, -141.309181)" fill="none" stroke-linejoin="miter" d="M 623.798963 169.249579 L 675.519504 169.249579 L 675.519504 424.961431 L 623.798963 424.961431 Z M 623.798963 169.249579 " stroke="#000000" stroke-width="1.207" stroke-opacity="1" stroke-miterlimit="4"/></g></g></g><g clip-path="url(#8b9647f5e9)"><g clip-path="url(#9c9254f697)"><g clip-path="url(#50591d8084)"><path stroke-linecap="butt" transform="matrix(0.95616, 0, 0, 0.949784, -14.373634, -141.309181)" fill="none" stroke-linejoin="miter" d="M 33.51479 167.949942 L 751.854285 167.949942 L 751.854285 617.089764 L 33.51479 617.089764 Z M 33.51479 167.949942 " stroke="#000000" stroke-width="2.375" stroke-opacity="1" stroke-miterlimit="4"/></g></g></g><g clip-path="url(#efb36582e4)"><g clip-path="url(#0735028916)"><g clip-path="url(#d7d5e1ed61)"><path stroke-linecap="butt" transform="matrix(2.197362, 0, 0, 2.195677, 3.897432, 0.926799)" fill="none" stroke-linejoin="miter" d="M 50.744887 114.67976 L 50.744887 202.136751 " stroke="#000000" stroke-width="2.375" stroke-opacity="1" stroke-miterlimit="4"/></g></g></g><g clip-path="url(#4651bba05a)"><g clip-path="url(#f0127d1b35)"><g clip-path="url(#8742d33fa5)"><path stroke-linecap="butt" transform="matrix(2.197362, 0, 0, 2.195677, 3.897432, 0.926799)" fill="none" stroke-linejoin="miter" d="M 95.846899 114.259901 L 95.846899 201.715112 " stroke="#000000" stroke-width="2.375" stroke-opacity="1" stroke-miterlimit="4"/></g></g></g><g clip-path="url(#dcd3dcef5d)"><g clip-path="url(#cb17312d55)"><g clip-path="url(#f48ac8f22b)"><path stroke-linecap="butt" transform="matrix(2.197362, 0, 0, 2.195677, 3.897432, 0.926799)" fill="none" stroke-linejoin="miter" d="M 184.959414 114.839875 L 184.959414 202.296866 " stroke="#000000" stroke-width="2.375" stroke-opacity="1" stroke-miterlimit="4"/></g></g></g><g clip-path="url(#dda221bcd6)"><g clip-path="url(#4abcb9388e)"><g clip-path="url(#393b6252e5)"><path stroke-linecap="butt" transform="matrix(2.197362, 0, 0, 2.195677, 3.897432, 0.926799)" fill="none" stroke-linejoin="miter" d="M 229.27035 114.839875 L 229.27035 202.296866 " stroke="#000000" stroke-width="2.375" stroke-opacity="1" stroke-miterlimit="4"/></g></g></g><g clip-path="url(#6266207951)"><g clip-path="url(#6bc1829442)"><g clip-path="url(#671e98bd4a)"><path stroke-linecap="butt" transform="matrix(2.197362, 0, 0, 2.195677, 3.897432, 0.926799)" fill="none" stroke-linejoin="miter" d="M 274.690569 114.519644 L 274.690569 201.976635 " stroke="#000000" stroke-width="2.375" stroke-opacity="1" stroke-miterlimit="4"/></g></g></g><g clip-path="url(#b887978fbd)"><g clip-path="url(#b8725a8f46)"><g clip-path="url(#10d7418ec4)"><path stroke-linecap="butt" transform="matrix(2.197362, 0, 0, 2.195677, 3.897432, 0.926799)" fill="none" stroke-linejoin="miter" d="M 140.349825 8.069369 L 140.349825 201.94817 " stroke="#000000" stroke-width="2.375" stroke-opacity="1" stroke-miterlimit="4"/></g></g></g><g clip-path="url(#4233c5d4f2)"><g clip-path="url(#ef255ab698)"><g clip-path="url(#70cea235ca)"><path fill="#000000" d="M 98.027344 28.519531 L 139.066406 28.519531 L 139.066406 254.960938 L 98.027344 254.960938 Z M 98.027344 28.519531 " fill-opacity="1" fill-rule="nonzero"/></g></g></g><g clip-path="url(#cefd918777)"><g clip-path="url(#050dc69529)"><g clip-path="url(#4c11df7672)"><path stroke-linecap="butt" transform="matrix(2.197362, 0, 0, 2.195677, 3.897432, 0.926799)" fill="none" stroke-linejoin="miter" d="M 42.83768 12.566842 L 61.51419 12.566842 L 61.51419 115.697384 L 42.83768 115.697384 Z M 42.83768 12.566842 " stroke="#000000" stroke-width="5" stroke-opacity="1" stroke-miterlimit="4"/></g></g></g><g clip-path="url(#6ff70628c2)"><g clip-path="url(#ba324e7366)"><g clip-path="url(#fc17d39715)"><path fill="#000000" d="M 781.226562 18.066406 L 830.679688 18.066406 L 830.679688 260.933594 L 781.226562 260.933594 Z M 781.226562 18.066406 " fill-opacity="1" fill-rule="evenodd"/></g></g></g><g clip-path="url(#07b2c8c233)"><g clip-path="url(#1f53ecd23c)"><g clip-path="url(#73b842397c)"><path stroke-linecap="butt" transform="matrix(0.95616, 0, 0, 0.949784, -14.373634, -141.309181)" fill="none" stroke-linejoin="miter" d="M 832.078319 167.801882 L 883.798861 167.801882 L 883.798861 423.509621 L 832.078319 423.509621 Z M 832.078319 167.801882 " stroke="#000000" stroke-width="1.207" stroke-opacity="1" stroke-miterlimit="4"/></g></g></g><g clip-path="url(#5eddbfa7f8)"><g clip-path="url(#1a05038e8b)"><g clip-path="url(#50388afd8c)"><path fill="#000000" d="M 879.128906 17.941406 L 928.582031 17.941406 L 928.582031 260.808594 L 879.128906 260.808594 Z M 879.128906 17.941406 " fill-opacity="1" fill-rule="evenodd"/></g></g></g><g clip-path="url(#8596fa8a92)"><g clip-path="url(#d11c2bc37d)"><g clip-path="url(#f434428e36)"><path stroke-linecap="butt" transform="matrix(0.95616, 0, 0, 0.949784, -14.373634, -141.309181)" fill="none" stroke-linejoin="miter" d="M 934.469468 167.670273 L 986.190009 167.670273 L 986.190009 423.378012 L 934.469468 423.378012 Z M 934.469468 167.670273 " stroke="#000000" stroke-width="1.207" stroke-opacity="1" stroke-miterlimit="4"/></g></g></g><g clip-path="url(#bf8efea13f)"><g clip-path="url(#29b453934b)"><g clip-path="url(#b410d508a0)"><path fill="#000000" d="M 1075.265625 17.464844 L 1124.71875 17.464844 L 1124.71875 260.335938 L 1075.265625 260.335938 Z M 1075.265625 17.464844 " fill-opacity="1" fill-rule="evenodd"/></g></g></g><g clip-path="url(#be65ebbcb4)"><g clip-path="url(#689f78b4d3)"><g clip-path="url(#3f2d0c3c1e)"><path stroke-linecap="butt" transform="matrix(0.95616, 0, 0, 0.949784, -14.373634, -141.309181)" fill="none" stroke-linejoin="miter" d="M 1139.599019 167.168514 L 1191.319561 167.168514 L 1191.319561 422.880366 L 1139.599019 422.880366 Z M 1139.599019 167.168514 " stroke="#000000" stroke-width="1.207" stroke-opacity="1" stroke-miterlimit="4"/></g></g></g><g clip-path="url(#b4dedff1ae)"><g clip-path="url(#7c37c54ec6)"><g clip-path="url(#422d658c2d)"><path fill="#000000" d="M 1172.605469 18.425781 L 1222.054688 18.425781 L 1222.054688 261.292969 L 1172.605469 261.292969 Z M 1172.605469 18.425781 " fill-opacity="1" fill-rule="evenodd"/></g></g></g><g clip-path="url(#01ca293572)"><g clip-path="url(#64af1eca82)"><g clip-path="url(#471f3110ac)"><path stroke-linecap="butt" transform="matrix(0.95616, 0, 0, 0.949784, -14.373634, -141.309181)" fill="none" stroke-linejoin="miter" d="M 1241.401877 168.180257 L 1293.118333 168.180257 L 1293.118333 423.887996 L 1241.401877 423.887996 Z M 1241.401877 168.180257 " stroke="#000000" stroke-width="1.207" stroke-opacity="1" stroke-miterlimit="4"/></g></g></g><g clip-path="url(#c404c70e24)"><g clip-path="url(#f11b61e17e)"><g clip-path="url(#90238b6087)"><path fill="#000000" d="M 1271.851562 17.941406 L 1321.304688 17.941406 L 1321.304688 260.808594 L 1271.851562 260.808594 Z M 1271.851562 17.941406 " fill-opacity="1" fill-rule="evenodd"/></g></g></g><g clip-path="url(#978b39a674)"><g clip-path="url(#85aaf18dc3)"><g clip-path="url(#9d61d6368b)"><path stroke-linecap="butt" transform="matrix(0.95616, 0, 0, 0.949784, -14.373634, -141.309181)" fill="none" stroke-linejoin="miter" d="M 1345.198386 167.670273 L 1396.918927 167.670273 L 1396.918927 423.378012 L 1345.198386 423.378012 Z M 1345.198386 167.670273 " stroke="#000000" stroke-width="1.207" stroke-opacity="1" stroke-miterlimit="4"/></g></g></g><g clip-path="url(#192702cabe)"><g clip-path="url(#18f3394132)"><g clip-path="url(#ef5e2905a1)"><path stroke-linecap="butt" transform="matrix(0.95616, 0, 0, 0.949784, -14.373634, -141.309181)" fill="none" stroke-linejoin="miter" d="M 754.918298 166.370636 L 1473.261879 166.370636 L 1473.261879 615.510458 L 754.918298 615.510458 Z M 754.918298 166.370636 " stroke="#000000" stroke-width="2.375" stroke-opacity="1" stroke-miterlimit="4"/></g></g></g><g clip-path="url(#588b97ca27)"><g clip-path="url(#2acb6da046)"><g clip-path="url(#ef81bb0149)"><path stroke-linecap="butt" transform="matrix(2.197362, 0, 0, 2.195677, 3.897432, 0.926799)" fill="none" stroke-linejoin="miter" d="M 364.659936 114.000157 L 364.659936 201.455369 " stroke="#000000" stroke-width="2.375" stroke-opacity="1" stroke-miterlimit="4"/></g></g></g><g clip-path="url(#a23e7fff4f)"><g clip-path="url(#c771d7405c)"><g clip-path="url(#7ba4744598)"><path stroke-linecap="butt" transform="matrix(2.197362, 0, 0, 2.195677, 3.897432, 0.926799)" fill="none" stroke-linejoin="miter" d="M 409.76017 113.580298 L 409.76017 201.03551 " stroke="#000000" stroke-width="2.375" stroke-opacity="1" stroke-miterlimit="4"/></g></g></g><g clip-path="url(#cc69b083f8)"><g clip-path="url(#10f199f66f)"><g clip-path="url(#e42c6e9615)"><path stroke-linecap="butt" transform="matrix(2.197362, 0, 0, 2.195677, 3.897432, 0.926799)" fill="none" stroke-linejoin="miter" d="M 498.869131 114.149599 L 498.869131 201.60659 " stroke="#000000" stroke-width="2.375" stroke-opacity="1" stroke-miterlimit="4"/></g></g></g><g clip-path="url(#8b0aaf573e)"><g clip-path="url(#59610abb99)"><g clip-path="url(#be12d02244)"><path stroke-linecap="butt" transform="matrix(2.197362, 0, 0, 2.195677, 3.897432, 0.926799)" fill="none" stroke-linejoin="miter" d="M 543.190732 114.149599 L 543.190732 201.60659 " stroke="#000000" stroke-width="2.375" stroke-opacity="1" stroke-miterlimit="4"/></g></g></g><g clip-path="url(#9fbdc5e604)"><g clip-path="url(#3c577972dd)"><g clip-path="url(#af2b3cec1e)"><path stroke-linecap="butt" transform="matrix(2.197362, 0, 0, 2.195677, 3.897432, 0.926799)" fill="none" stroke-linejoin="miter" d="M 588.600286 113.840042 L 588.600286 201.295253 " stroke="#000000" stroke-width="2.375" stroke-opacity="1" stroke-miterlimit="4"/></g></g></g><g clip-path="url(#7ea6178cba)"><g clip-path="url(#d872c48c0d)"><g clip-path="url(#fc5e94ad7c)"><path stroke-linecap="butt" transform="matrix(2.197362, 0, 0, 2.195677, 3.897432, 0.926799)" fill="none" stroke-linejoin="miter" d="M 454.259542 7.386209 L 454.259542 201.266788 " stroke="#000000" stroke-width="2.375" stroke-opacity="1" stroke-miterlimit="4"/></g></g></g><g clip-path="url(#b32b475b9b)"><g clip-path="url(#8066af4be8)"><g clip-path="url(#ee876d9014)"><path fill="#000000" d="M 195.269531 25.847656 L 236.308594 25.847656 L 236.308594 252.289062 L 195.269531 252.289062 Z M 195.269531 25.847656 " fill-opacity="1" fill-rule="nonzero"/></g></g></g><g clip-path="url(#90fa7a7d01)"><g clip-path="url(#994bf7dac8)"><g clip-path="url(#10c5a50a37)"><path stroke-linecap="butt" transform="matrix(2.197362, 0, 0, 2.195677, 3.897432, 0.926799)" fill="none" stroke-linejoin="miter" d="M 87.091729 11.349963 L 105.768239 11.349963 L 105.768239 114.480505 L 87.091729 114.480505 Z M 87.091729 11.349963 " stroke="#000000" stroke-width="5" stroke-opacity="1" stroke-miterlimit="4"/></g></g></g><g clip-path="url(#2b272fbc5d)"><g clip-path="url(#6b61c32fa2)"><g clip-path="url(#daf1c943a3)"><path fill="#000000" d="M 391.554688 25.847656 L 432.597656 25.847656 L 432.597656 252.289062 L 391.554688 252.289062 Z M 391.554688 25.847656 " fill-opacity="1" fill-rule="nonzero"/></g></g></g><g clip-path="url(#5fe15b2be5)"><g clip-path="url(#0f1687dcb7)"><g clip-path="url(#3f4e9a565e)"><path stroke-linecap="butt" transform="matrix(2.197362, 0, 0, 2.195677, 3.897432, 0.926799)" fill="none" stroke-linejoin="miter" d="M 176.419346 11.349963 L 195.097634 11.349963 L 195.097634 114.480505 L 176.419346 114.480505 Z M 176.419346 11.349963 " stroke="#000000" stroke-width="5" stroke-opacity="1" stroke-miterlimit="4"/></g></g></g><g clip-path="url(#6299d538b2)"><g clip-path="url(#f8d2ae16f9)"><g clip-path="url(#652e2257e0)"><path fill="#000000" d="M 487.910156 27.628906 L 528.949219 27.628906 L 528.949219 254.070312 L 487.910156 254.070312 Z M 487.910156 27.628906 " fill-opacity="1" fill-rule="nonzero"/></g></g></g><g clip-path="url(#58dfa4e541)"><g clip-path="url(#d175962b3b)"><g clip-path="url(#5f63fa359a)"><path stroke-linecap="butt" transform="matrix(2.197362, 0, 0, 2.195677, 3.897432, 0.926799)" fill="none" stroke-linejoin="miter" d="M 220.269858 12.161216 L 238.946367 12.161216 L 238.946367 115.291758 L 220.269858 115.291758 Z M 220.269858 12.161216 " stroke="#000000" stroke-width="5" stroke-opacity="1" stroke-miterlimit="4"/></g></g></g><g clip-path="url(#5dc6625f97)"><g clip-path="url(#324724e83a)"><g clip-path="url(#616ef90225)"><path fill="#000000" d="M 587.824219 27.628906 L 628.863281 27.628906 L 628.863281 254.070312 L 587.824219 254.070312 Z M 587.824219 27.628906 " fill-opacity="1" fill-rule="nonzero"/></g></g></g><g clip-path="url(#4b40795d5f)"><g clip-path="url(#64c7d45d29)"><g clip-path="url(#79fc4da33c)"><path stroke-linecap="butt" transform="matrix(2.197362, 0, 0, 2.195677, 3.897432, 0.926799)" fill="none" stroke-linejoin="miter" d="M 265.739853 12.161216 L 284.416363 12.161216 L 284.416363 115.291758 L 265.739853 115.291758 Z M 265.739853 12.161216 " stroke="#000000" stroke-width="5" stroke-opacity="1" stroke-miterlimit="4"/></g></g></g><g clip-path="url(#5afc8bd454)"><g clip-path="url(#193e4f7b84)"><g clip-path="url(#a6dca52dd1)"><path fill="#000000" d="M 785.894531 24.066406 L 826.933594 24.066406 L 826.933594 250.503906 L 785.894531 250.503906 Z M 785.894531 24.066406 " fill-opacity="1" fill-rule="nonzero"/></g></g></g><g clip-path="url(#152a1ba1b0)"><g clip-path="url(#28896c09fb)"><g clip-path="url(#c45896a246)"><path stroke-linecap="butt" transform="matrix(2.197362, 0, 0, 2.195677, 3.897432, 0.926799)" fill="none" stroke-linejoin="miter" d="M 355.879879 10.53871 L 374.556389 10.53871 L 374.556389 113.667472 L 355.879879 113.667472 Z M 355.879879 10.53871 " stroke="#000000" stroke-width="5" stroke-opacity="1" stroke-miterlimit="4"/></g></g></g><g clip-path="url(#9345210285)"><g clip-path="url(#0393b5776e)"><g clip-path="url(#4a59cb48bc)"><path fill="#000000" d="M 885.832031 24.066406 L 926.871094 24.066406 L 926.871094 250.503906 L 885.832031 250.503906 Z M 885.832031 24.066406 " fill-opacity="1" fill-rule="nonzero"/></g></g></g><g clip-path="url(#83b3475623)"><g clip-path="url(#c588ff35db)"><g clip-path="url(#5deaca1cd6)"><path stroke-linecap="butt" transform="matrix(2.197362, 0, 0, 2.195677, 3.897432, 0.926799)" fill="none" stroke-linejoin="miter" d="M 401.36054 10.53871 L 420.03705 10.53871 L 420.03705 113.667472 L 401.36054 113.667472 Z M 401.36054 10.53871 " stroke="#000000" stroke-width="5" stroke-opacity="1" stroke-miterlimit="4"/></g></g></g><g clip-path="url(#e1d98261ab)"><g clip-path="url(#705e3e33b5)"><g clip-path="url(#2da0c3e7f8)"><path fill="#000000" d="M 1082.097656 29.414062 L 1123.140625 29.414062 L 1123.140625 255.855469 L 1082.097656 255.855469 Z M 1082.097656 29.414062 " fill-opacity="1" fill-rule="nonzero"/></g></g></g><g clip-path="url(#84a84f37ed)"><g clip-path="url(#b10e4125d9)"><g clip-path="url(#aaf246b70d)"><path stroke-linecap="butt" transform="matrix(2.197362, 0, 0, 2.195677, 3.897432, 0.926799)" fill="none" stroke-linejoin="miter" d="M 490.679269 12.974248 L 509.357557 12.974248 L 509.357557 116.10479 L 490.679269 116.10479 Z M 490.679269 12.974248 " stroke="#000000" stroke-width="5" stroke-opacity="1" stroke-miterlimit="4"/></g></g></g><g clip-path="url(#54e409dd22)"><g clip-path="url(#0743f07855)"><g clip-path="url(#753bce8756)"><path fill="#000000" d="M 1178.453125 31.195312 L 1219.492188 31.195312 L 1219.492188 257.636719 L 1178.453125 257.636719 Z M 1178.453125 31.195312 " fill-opacity="1" fill-rule="nonzero"/></g></g></g><g clip-path="url(#7ac5c715ea)"><g clip-path="url(#58b06e7d9e)"><g clip-path="url(#fdbb990781)"><path stroke-linecap="butt" transform="matrix(2.197362, 0, 0, 2.195677, 3.897432, 0.926799)" fill="none" stroke-linejoin="miter" d="M 534.529781 13.785501 L 553.20629 13.785501 L 553.20629 116.916043 L 534.529781 116.916043 Z M 534.529781 13.785501 " stroke="#000000" stroke-width="5" stroke-opacity="1" stroke-miterlimit="4"/></g></g></g><g clip-path="url(#6fdc1b64f7)"><g clip-path="url(#8c180e6b3b)"><g clip-path="url(#0eb57c94b2)"><path fill="#000000" d="M 1276.609375 29.414062 L 1317.648438 29.414062 L 1317.648438 255.855469 L 1276.609375 255.855469 Z M 1276.609375 29.414062 " fill-opacity="1" fill-rule="nonzero"/></g></g></g><g clip-path="url(#5e15b47db4)"><g clip-path="url(#3adb406546)"><g clip-path="url(#487faae368)"><path stroke-linecap="butt" transform="matrix(2.197362, 0, 0, 2.195677, 3.897432, 0.926799)" fill="none" stroke-linejoin="miter" d="M 579.199811 12.974248 L 597.876321 12.974248 L 597.876321 116.10479 L 579.199811 116.10479 Z M 579.199811 12.974248 " stroke="#000000" stroke-width="5" stroke-opacity="1" stroke-miterlimit="4"/></g></g></g><g clip-path="url(#a947777ed3)"><g clip-path="url(#22e2d67aeb)"><g clip-path="url(#ac5826c728)"><path stroke-linecap="butt" transform="matrix(1.084012, 0, 0, 1.084012, 16.090791, 15.638566)" fill="none" stroke-linejoin="miter" d="M -0.000873444 17.987024 L -0.000873444 379.278656 C -0.000873444 389.213537 8.052974 397.267384 17.987854 397.267384 L 1254.889457 397.267384 C 1264.820734 397.267384 1272.874581 389.213537 1272.874581 379.278656 L 1272.874581 17.987024 C 1272.874581 8.052144 1264.820734 -0.0017039 1254.889457 -0.0017039 L 17.987854 -0.0017039 C 8.052974 -0.0017039 -0.000873444 8.052144 -0.000873444 17.987024 Z M -0.000873444 17.987024 " stroke="#000000" stroke-width="6.91783" stroke-opacity="1" stroke-miterlimit="4"/></g></g></g><g clip-path="url(#b47c3f9a16)"><path fill="#000000" d="M 166.035156 355.300781 C 148.964844 355.300781 135.140625 369.128906 135.140625 386.195312 C 135.140625 403.265625 148.964844 417.089844 166.035156 417.089844 C 183.101562 417.089844 196.929688 403.265625 196.929688 386.195312 C 196.929688 369.128906 183.101562 355.300781 166.035156 355.300781 Z M 166.035156 355.300781 " fill-opacity="1" fill-rule="nonzero"/></g><g clip-path="url(#f0d29b3e44)"><path fill="#000000" d="M 557.988281 355.300781 C 540.917969 355.300781 527.09375 369.128906 527.09375 386.195312 C 527.09375 403.265625 540.917969 417.089844 557.988281 417.089844 C 575.058594 417.089844 588.882812 403.265625 588.882812 386.195312 C 588.882812 369.128906 575.058594 355.300781 557.988281 355.300781 Z M 557.988281 355.300781 " fill-opacity="1" fill-rule="nonzero"/></g><g clip-path="url(#b5eceef9d4)"><g clip-path="url(#4a9e781afb)"><g clip-path="url(#dd1fd2e2a4)"><path fill="#ffffff" d="M 410.707031 182.1875 C 393.535156 182.1875 379.625 196.09375 379.625 213.265625 C 379.625 230.4375 393.535156 244.347656 410.707031 244.347656 C 427.878906 244.347656 441.789062 230.4375 441.789062 213.265625 C 441.789062 196.09375 427.878906 182.1875 410.707031 182.1875 Z M 410.707031 182.1875 " fill-opacity="1" fill-rule="nonzero"/></g></g></g><g clip-path="url(#7913eb7b4e)"><g clip-path="url(#e5856f5b34)"><g clip-path="url(#19c303cb2f)"><path stroke-linecap="butt" transform="matrix(1.084012, 0, 0, 1.084012, 379.626408, 182.186604)" fill="none" stroke-linejoin="miter" d="M -0.00129878 28.670358 C -0.00129878 44.507788 12.83801 57.343493 28.671836 57.343493 C 44.505663 57.343493 57.344971 44.507788 57.344971 28.670358 C 57.344971 12.836532 44.505663 0.000826638 28.671836 0.000826638 C 12.83801 0.000826638 -0.00129878 12.836532 -0.00129878 28.670358 Z M -0.00129878 28.670358 " stroke="#000000" stroke-width="9.684963" stroke-opacity="1" stroke-miterlimit="4"/></g></g></g></g></g></svg>