<svg xmlns="http://www.w3.org/2000/svg" xmlns:xlink="http://www.w3.org/1999/xlink" width="2000" zoomAndPan="magnify" viewBox="0 0 1500 607.92" height="800" preserveAspectRatio="xMidYMid meet" version="1.0"><defs><clipPath id="165c1c11ed"><path d="M 0.0976562 0 L 1499.898438 0 L 1499.898438 599.921875 L 0.0976562 599.921875 Z M 0.0976562 0 " clip-rule="nonzero"/></clipPath><clipPath id="04c3b9e5e7"><path d="M 91 19 L 141 19 L 141 263 L 91 263 Z M 91 19 " clip-rule="nonzero"/></clipPath><clipPath id="be86a3cf05"><path d="M 16.089844 35.136719 L 16.089844 426.785156 C 16.089844 437.554688 24.820312 446.28125 35.589844 446.28125 L 1376.410156 446.28125 C 1387.179688 446.28125 1395.910156 437.554688 1395.910156 426.785156 L 1395.910156 35.136719 C 1395.910156 24.367188 1387.179688 15.636719 1376.410156 15.636719 L 35.589844 15.636719 C 24.820312 15.636719 16.089844 24.367188 16.089844 35.136719 Z M 16.089844 35.136719 " clip-rule="nonzero"/></clipPath><clipPath id="9b05a5fe74"><path d="M 36.890625 16.9375 L 1375.109375 16.9375 C 1385.878906 16.9375 1394.609375 25.667969 1394.609375 36.4375 L 1394.609375 425.484375 C 1394.609375 436.253906 1385.878906 444.980469 1375.109375 444.980469 L 36.890625 444.980469 C 26.121094 444.980469 17.390625 436.253906 17.390625 425.484375 L 17.390625 36.4375 C 17.390625 25.667969 26.121094 16.9375 36.890625 16.9375 Z M 36.890625 16.9375 " clip-rule="nonzero"/></clipPath><clipPath id="2ca9a791b8"><path d="M 90 18 L 142 18 L 142 264 L 90 264 Z M 90 18 " clip-rule="nonzero"/></clipPath><clipPath id="fcf9d146b8"><path d="M 16.089844 35.136719 L 16.089844 426.785156 C 16.089844 437.554688 24.820312 446.28125 35.589844 446.28125 L 1376.410156 446.28125 C 1387.179688 446.28125 1395.910156 437.554688 1395.910156 426.785156 L 1395.910156 35.136719 C 1395.910156 24.367188 1387.179688 15.636719 1376.410156 15.636719 L 35.589844 15.636719 C 24.820312 15.636719 16.089844 24.367188 16.089844 35.136719 Z M 16.089844 35.136719 " clip-rule="nonzero"/></clipPath><clipPath id="57479d61dd"><path d="M 36.890625 16.9375 L 1375.109375 16.9375 C 1385.878906 16.9375 1394.609375 25.667969 1394.609375 36.4375 L 1394.609375 425.484375 C 1394.609375 436.253906 1385.878906 444.980469 1375.109375 444.980469 L 36.890625 444.980469 C 26.121094 444.980469 17.390625 436.253906 17.390625 425.484375 L 17.390625 36.4375 C 17.390625 25.667969 26.121094 16.9375 36.890625 16.9375 Z M 36.890625 16.9375 " clip-rule="nonzero"/></clipPath><clipPath id="34cd2c4305"><path d="M 189 19 L 239 19 L 239 263 L 189 263 Z M 189 19 " clip-rule="nonzero"/></clipPath><clipPath id="96bfbde7df"><path d="M 16.089844 35.136719 L 16.089844 426.785156 C 16.089844 437.554688 24.820312 446.28125 35.589844 446.28125 L 1376.410156 446.28125 C 1387.179688 446.28125 1395.910156 437.554688 1395.910156 426.785156 L 1395.910156 35.136719 C 1395.910156 24.367188 1387.179688 15.636719 1376.410156 15.636719 L 35.589844 15.636719 C 24.820312 15.636719 16.089844 24.367188 16.089844 35.136719 Z M 16.089844 35.136719 " clip-rule="nonzero"/></clipPath><clipPath id="4f0960939c"><path d="M 36.890625 16.9375 L 1375.109375 16.9375 C 1385.878906 16.9375 1394.609375 25.667969 1394.609375 36.4375 L 1394.609375 425.484375 C 1394.609375 436.253906 1385.878906 444.980469 1375.109375 444.980469 L 36.890625 444.980469 C 26.121094 444.980469 17.390625 436.253906 17.390625 425.484375 L 17.390625 36.4375 C 17.390625 25.667969 26.121094 16.9375 36.890625 16.9375 Z M 36.890625 16.9375 " clip-rule="nonzero"/></clipPath><clipPath id="530db4e4ce"><path d="M 188 18 L 240 18 L 240 263 L 188 263 Z M 188 18 " clip-rule="nonzero"/></clipPath><clipPath id="7402cb3b8e"><path d="M 16.089844 35.136719 L 16.089844 426.785156 C 16.089844 437.554688 24.820312 446.28125 35.589844 446.28125 L 1376.410156 446.28125 C 1387.179688 446.28125 1395.910156 437.554688 1395.910156 426.785156 L 1395.910156 35.136719 C 1395.910156 24.367188 1387.179688 15.636719 1376.410156 15.636719 L 35.589844 15.636719 C 24.820312 15.636719 16.089844 24.367188 16.089844 35.136719 Z M 16.089844 35.136719 " clip-rule="nonzero"/></clipPath><clipPath id="a91e67fcbf"><path d="M 36.890625 16.9375 L 1375.109375 16.9375 C 1385.878906 16.9375 1394.609375 25.667969 1394.609375 36.4375 L 1394.609375 425.484375 C 1394.609375 436.253906 1385.878906 444.980469 1375.109375 444.980469 L 36.890625 444.980469 C 26.121094 444.980469 17.390625 436.253906 17.390625 425.484375 L 17.390625 36.4375 C 17.390625 25.667969 26.121094 16.9375 36.890625 16.9375 Z M 36.890625 16.9375 " clip-rule="nonzero"/></clipPath><clipPath id="40d1c48b23"><path d="M 385 18 L 435 18 L 435 262 L 385 262 Z M 385 18 " clip-rule="nonzero"/></clipPath><clipPath id="d06f652686"><path d="M 16.089844 35.136719 L 16.089844 426.785156 C 16.089844 437.554688 24.820312 446.28125 35.589844 446.28125 L 1376.410156 446.28125 C 1387.179688 446.28125 1395.910156 437.554688 1395.910156 426.785156 L 1395.910156 35.136719 C 1395.910156 24.367188 1387.179688 15.636719 1376.410156 15.636719 L 35.589844 15.636719 C 24.820312 15.636719 16.089844 24.367188 16.089844 35.136719 Z M 16.089844 35.136719 " clip-rule="nonzero"/></clipPath><clipPath id="bc7d8dfa41"><path d="M 36.890625 16.9375 L 1375.109375 16.9375 C 1385.878906 16.9375 1394.609375 25.667969 1394.609375 36.4375 L 1394.609375 425.484375 C 1394.609375 436.253906 1385.878906 444.980469 1375.109375 444.980469 L 36.890625 444.980469 C 26.121094 444.980469 17.390625 436.253906 17.390625 425.484375 L 17.390625 36.4375 C 17.390625 25.667969 26.121094 16.9375 36.890625 16.9375 Z M 36.890625 16.9375 " clip-rule="nonzero"/></clipPath><clipPath id="0a8a229e68"><path d="M 384 18 L 436 18 L 436 263 L 384 263 Z M 384 18 " clip-rule="nonzero"/></clipPath><clipPath id="2be5d76884"><path d="M 16.089844 35.136719 L 16.089844 426.785156 C 16.089844 437.554688 24.820312 446.28125 35.589844 446.28125 L 1376.410156 446.28125 C 1387.179688 446.28125 1395.910156 437.554688 1395.910156 426.785156 L 1395.910156 35.136719 C 1395.910156 24.367188 1387.179688 15.636719 1376.410156 15.636719 L 35.589844 15.636719 C 24.820312 15.636719 16.089844 24.367188 16.089844 35.136719 Z M 16.089844 35.136719 " clip-rule="nonzero"/></clipPath><clipPath id="e1af313272"><path d="M 36.890625 16.9375 L 1375.109375 16.9375 C 1385.878906 16.9375 1394.609375 25.667969 1394.609375 36.4375 L 1394.609375 425.484375 C 1394.609375 436.253906 1385.878906 444.980469 1375.109375 444.980469 L 36.890625 444.980469 C 26.121094 444.980469 17.390625 436.253906 17.390625 425.484375 L 17.390625 36.4375 C 17.390625 25.667969 26.121094 16.9375 36.890625 16.9375 Z M 36.890625 16.9375 " clip-rule="nonzero"/></clipPath><clipPath id="bd3ee1158c"><path d="M 482 19 L 533 19 L 533 263 L 482 263 Z M 482 19 " clip-rule="nonzero"/></clipPath><clipPath id="ccc1463786"><path d="M 16.089844 35.136719 L 16.089844 426.785156 C 16.089844 437.554688 24.820312 446.28125 35.589844 446.28125 L 1376.410156 446.28125 C 1387.179688 446.28125 1395.910156 437.554688 1395.910156 426.785156 L 1395.910156 35.136719 C 1395.910156 24.367188 1387.179688 15.636719 1376.410156 15.636719 L 35.589844 15.636719 C 24.820312 15.636719 16.089844 24.367188 16.089844 35.136719 Z M 16.089844 35.136719 " clip-rule="nonzero"/></clipPath><clipPath id="a3b474f0b3"><path d="M 36.890625 16.9375 L 1375.109375 16.9375 C 1385.878906 16.9375 1394.609375 25.667969 1394.609375 36.4375 L 1394.609375 425.484375 C 1394.609375 436.253906 1385.878906 444.980469 1375.109375 444.980469 L 36.890625 444.980469 C 26.121094 444.980469 17.390625 436.253906 17.390625 425.484375 L 17.390625 36.4375 C 17.390625 25.667969 26.121094 16.9375 36.890625 16.9375 Z M 36.890625 16.9375 " clip-rule="nonzero"/></clipPath><clipPath id="38491298ed"><path d="M 482 19 L 533 19 L 533 264 L 482 264 Z M 482 19 " clip-rule="nonzero"/></clipPath><clipPath id="aed87e89f4"><path d="M 16.089844 35.136719 L 16.089844 426.785156 C 16.089844 437.554688 24.820312 446.28125 35.589844 446.28125 L 1376.410156 446.28125 C 1387.179688 446.28125 1395.910156 437.554688 1395.910156 426.785156 L 1395.910156 35.136719 C 1395.910156 24.367188 1387.179688 15.636719 1376.410156 15.636719 L 35.589844 15.636719 C 24.820312 15.636719 16.089844 24.367188 16.089844 35.136719 Z M 16.089844 35.136719 " clip-rule="nonzero"/></clipPath><clipPath id="890223256c"><path d="M 36.890625 16.9375 L 1375.109375 16.9375 C 1385.878906 16.9375 1394.609375 25.667969 1394.609375 36.4375 L 1394.609375 425.484375 C 1394.609375 436.253906 1385.878906 444.980469 1375.109375 444.980469 L 36.890625 444.980469 C 26.121094 444.980469 17.390625 436.253906 17.390625 425.484375 L 17.390625 36.4375 C 17.390625 25.667969 26.121094 16.9375 36.890625 16.9375 Z M 36.890625 16.9375 " clip-rule="nonzero"/></clipPath><clipPath id="de28aba7e5"><path d="M 582 19 L 632 19 L 632 263 L 582 263 Z M 582 19 " clip-rule="nonzero"/></clipPath><clipPath id="8ad5dca2e5"><path d="M 16.089844 35.136719 L 16.089844 426.785156 C 16.089844 437.554688 24.820312 446.28125 35.589844 446.28125 L 1376.410156 446.28125 C 1387.179688 446.28125 1395.910156 437.554688 1395.910156 426.785156 L 1395.910156 35.136719 C 1395.910156 24.367188 1387.179688 15.636719 1376.410156 15.636719 L 35.589844 15.636719 C 24.820312 15.636719 16.089844 24.367188 16.089844 35.136719 Z M 16.089844 35.136719 " clip-rule="nonzero"/></clipPath><clipPath id="c63b057a48"><path d="M 36.890625 16.9375 L 1375.109375 16.9375 C 1385.878906 16.9375 1394.609375 25.667969 1394.609375 36.4375 L 1394.609375 425.484375 C 1394.609375 436.253906 1385.878906 444.980469 1375.109375 444.980469 L 36.890625 444.980469 C 26.121094 444.980469 17.390625 436.253906 17.390625 425.484375 L 17.390625 36.4375 C 17.390625 25.667969 26.121094 16.9375 36.890625 16.9375 Z M 36.890625 16.9375 " clip-rule="nonzero"/></clipPath><clipPath id="c2d768eb23"><path d="M 581 18 L 633 18 L 633 263 L 581 263 Z M 581 18 " clip-rule="nonzero"/></clipPath><clipPath id="fad7aa5268"><path d="M 16.089844 35.136719 L 16.089844 426.785156 C 16.089844 437.554688 24.820312 446.28125 35.589844 446.28125 L 1376.410156 446.28125 C 1387.179688 446.28125 1395.910156 437.554688 1395.910156 426.785156 L 1395.910156 35.136719 C 1395.910156 24.367188 1387.179688 15.636719 1376.410156 15.636719 L 35.589844 15.636719 C 24.820312 15.636719 16.089844 24.367188 16.089844 35.136719 Z M 16.089844 35.136719 " clip-rule="nonzero"/></clipPath><clipPath id="aaa4edb044"><path d="M 36.890625 16.9375 L 1375.109375 16.9375 C 1385.878906 16.9375 1394.609375 25.667969 1394.609375 36.4375 L 1394.609375 425.484375 C 1394.609375 436.253906 1385.878906 444.980469 1375.109375 444.980469 L 36.890625 444.980469 C 26.121094 444.980469 17.390625 436.253906 17.390625 425.484375 L 17.390625 36.4375 C 17.390625 25.667969 26.121094 16.9375 36.890625 16.9375 Z M 36.890625 16.9375 " clip-rule="nonzero"/></clipPath><clipPath id="8d1f98771f"><path d="M 17.175781 17 L 706 17 L 706 445 L 17.175781 445 Z M 17.175781 17 " clip-rule="nonzero"/></clipPath><clipPath id="24542311ab"><path d="M 16.089844 35.136719 L 16.089844 426.785156 C 16.089844 437.554688 24.820312 446.28125 35.589844 446.28125 L 1376.410156 446.28125 C 1387.179688 446.28125 1395.910156 437.554688 1395.910156 426.785156 L 1395.910156 35.136719 C 1395.910156 24.367188 1387.179688 15.636719 1376.410156 15.636719 L 35.589844 15.636719 C 24.820312 15.636719 16.089844 24.367188 16.089844 35.136719 Z M 16.089844 35.136719 " clip-rule="nonzero"/></clipPath><clipPath id="5d9486ff06"><path d="M 36.890625 16.9375 L 1375.109375 16.9375 C 1385.878906 16.9375 1394.609375 25.667969 1394.609375 36.4375 L 1394.609375 425.484375 C 1394.609375 436.253906 1385.878906 444.980469 1375.109375 444.980469 L 36.890625 444.980469 C 26.121094 444.980469 17.390625 436.253906 17.390625 425.484375 L 17.390625 36.4375 C 17.390625 25.667969 26.121094 16.9375 36.890625 16.9375 Z M 36.890625 16.9375 " clip-rule="nonzero"/></clipPath><clipPath id="f83d018db6"><path d="M 112 250 L 119 250 L 119 445 L 112 445 Z M 112 250 " clip-rule="nonzero"/></clipPath><clipPath id="333f5e9bdf"><path d="M 16.089844 35.136719 L 16.089844 426.785156 C 16.089844 437.554688 24.820312 446.28125 35.589844 446.28125 L 1376.410156 446.28125 C 1387.179688 446.28125 1395.910156 437.554688 1395.910156 426.785156 L 1395.910156 35.136719 C 1395.910156 24.367188 1387.179688 15.636719 1376.410156 15.636719 L 35.589844 15.636719 C 24.820312 15.636719 16.089844 24.367188 16.089844 35.136719 Z M 16.089844 35.136719 " clip-rule="nonzero"/></clipPath><clipPath id="b534cabd50"><path d="M 36.890625 16.9375 L 1375.109375 16.9375 C 1385.878906 16.9375 1394.609375 25.667969 1394.609375 36.4375 L 1394.609375 425.484375 C 1394.609375 436.253906 1385.878906 444.980469 1375.109375 444.980469 L 36.890625 444.980469 C 26.121094 444.980469 17.390625 436.253906 17.390625 425.484375 L 17.390625 36.4375 C 17.390625 25.667969 26.121094 16.9375 36.890625 16.9375 Z M 36.890625 16.9375 " clip-rule="nonzero"/></clipPath><clipPath id="77c9b9b7a5"><path d="M 211 249 L 218 249 L 218 445 L 211 445 Z M 211 249 " clip-rule="nonzero"/></clipPath><clipPath id="1141181254"><path d="M 16.089844 35.136719 L 16.089844 426.785156 C 16.089844 437.554688 24.820312 446.28125 35.589844 446.28125 L 1376.410156 446.28125 C 1387.179688 446.28125 1395.910156 437.554688 1395.910156 426.785156 L 1395.910156 35.136719 C 1395.910156 24.367188 1387.179688 15.636719 1376.410156 15.636719 L 35.589844 15.636719 C 24.820312 15.636719 16.089844 24.367188 16.089844 35.136719 Z M 16.089844 35.136719 " clip-rule="nonzero"/></clipPath><clipPath id="bb6c72461a"><path d="M 36.890625 16.9375 L 1375.109375 16.9375 C 1385.878906 16.9375 1394.609375 25.667969 1394.609375 36.4375 L 1394.609375 425.484375 C 1394.609375 436.253906 1385.878906 444.980469 1375.109375 444.980469 L 36.890625 444.980469 C 26.121094 444.980469 17.390625 436.253906 17.390625 425.484375 L 17.390625 36.4375 C 17.390625 25.667969 26.121094 16.9375 36.890625 16.9375 Z M 36.890625 16.9375 " clip-rule="nonzero"/></clipPath><clipPath id="07e3aaebc7"><path d="M 407 250 L 413 250 L 413 445 L 407 445 Z M 407 250 " clip-rule="nonzero"/></clipPath><clipPath id="19dfd38175"><path d="M 16.089844 35.136719 L 16.089844 426.785156 C 16.089844 437.554688 24.820312 446.28125 35.589844 446.28125 L 1376.410156 446.28125 C 1387.179688 446.28125 1395.910156 437.554688 1395.910156 426.785156 L 1395.910156 35.136719 C 1395.910156 24.367188 1387.179688 15.636719 1376.410156 15.636719 L 35.589844 15.636719 C 24.820312 15.636719 16.089844 24.367188 16.089844 35.136719 Z M 16.089844 35.136719 " clip-rule="nonzero"/></clipPath><clipPath id="5007f4312e"><path d="M 36.890625 16.9375 L 1375.109375 16.9375 C 1385.878906 16.9375 1394.609375 25.667969 1394.609375 36.4375 L 1394.609375 425.484375 C 1394.609375 436.253906 1385.878906 444.980469 1375.109375 444.980469 L 36.890625 444.980469 C 26.121094 444.980469 17.390625 436.253906 17.390625 425.484375 L 17.390625 36.4375 C 17.390625 25.667969 26.121094 16.9375 36.890625 16.9375 Z M 36.890625 16.9375 " clip-rule="nonzero"/></clipPath><clipPath id="9ea31c9d77"><path d="M 505 250 L 511 250 L 511 445 L 505 445 Z M 505 250 " clip-rule="nonzero"/></clipPath><clipPath id="ed78c188ed"><path d="M 16.089844 35.136719 L 16.089844 426.785156 C 16.089844 437.554688 24.820312 446.28125 35.589844 446.28125 L 1376.410156 446.28125 C 1387.179688 446.28125 1395.910156 437.554688 1395.910156 426.785156 L 1395.910156 35.136719 C 1395.910156 24.367188 1387.179688 15.636719 1376.410156 15.636719 L 35.589844 15.636719 C 24.820312 15.636719 16.089844 24.367188 16.089844 35.136719 Z M 16.089844 35.136719 " clip-rule="nonzero"/></clipPath><clipPath id="4fbef117eb"><path d="M 36.890625 16.9375 L 1375.109375 16.9375 C 1385.878906 16.9375 1394.609375 25.667969 1394.609375 36.4375 L 1394.609375 425.484375 C 1394.609375 436.253906 1385.878906 444.980469 1375.109375 444.980469 L 36.890625 444.980469 C 26.121094 444.980469 17.390625 436.253906 17.390625 425.484375 L 17.390625 36.4375 C 17.390625 25.667969 26.121094 16.9375 36.890625 16.9375 Z M 36.890625 16.9375 " clip-rule="nonzero"/></clipPath><clipPath id="5348777df7"><path d="M 604 249 L 611 249 L 611 445 L 604 445 Z M 604 249 " clip-rule="nonzero"/></clipPath><clipPath id="f10caf09e5"><path d="M 16.089844 35.136719 L 16.089844 426.785156 C 16.089844 437.554688 24.820312 446.28125 35.589844 446.28125 L 1376.410156 446.28125 C 1387.179688 446.28125 1395.910156 437.554688 1395.910156 426.785156 L 1395.910156 35.136719 C 1395.910156 24.367188 1387.179688 15.636719 1376.410156 15.636719 L 35.589844 15.636719 C 24.820312 15.636719 16.089844 24.367188 16.089844 35.136719 Z M 16.089844 35.136719 " clip-rule="nonzero"/></clipPath><clipPath id="e95f417f9c"><path d="M 36.890625 16.9375 L 1375.109375 16.9375 C 1385.878906 16.9375 1394.609375 25.667969 1394.609375 36.4375 L 1394.609375 425.484375 C 1394.609375 436.253906 1385.878906 444.980469 1375.109375 444.980469 L 36.890625 444.980469 C 26.121094 444.980469 17.390625 436.253906 17.390625 425.484375 L 17.390625 36.4375 C 17.390625 25.667969 26.121094 16.9375 36.890625 16.9375 Z M 36.890625 16.9375 " clip-rule="nonzero"/></clipPath><clipPath id="988212e857"><path d="M 309 16.722656 L 315 16.722656 L 315 445 L 309 445 Z M 309 16.722656 " clip-rule="nonzero"/></clipPath><clipPath id="1d499c8981"><path d="M 16.089844 35.136719 L 16.089844 426.785156 C 16.089844 437.554688 24.820312 446.28125 35.589844 446.28125 L 1376.410156 446.28125 C 1387.179688 446.28125 1395.910156 437.554688 1395.910156 426.785156 L 1395.910156 35.136719 C 1395.910156 24.367188 1387.179688 15.636719 1376.410156 15.636719 L 35.589844 15.636719 C 24.820312 15.636719 16.089844 24.367188 16.089844 35.136719 Z M 16.089844 35.136719 " clip-rule="nonzero"/></clipPath><clipPath id="17ed5c5b4c"><path d="M 36.890625 16.9375 L 1375.109375 16.9375 C 1385.878906 16.9375 1394.609375 25.667969 1394.609375 36.4375 L 1394.609375 425.484375 C 1394.609375 436.253906 1385.878906 444.980469 1375.109375 444.980469 L 36.890625 444.980469 C 26.121094 444.980469 17.390625 436.253906 17.390625 425.484375 L 17.390625 36.4375 C 17.390625 25.667969 26.121094 16.9375 36.890625 16.9375 Z M 36.890625 16.9375 " clip-rule="nonzero"/></clipPath><clipPath id="27c06e1b4c"><path d="M 98 28 L 140 28 L 140 255 L 98 255 Z M 98 28 " clip-rule="nonzero"/></clipPath><clipPath id="1c94f26b48"><path d="M 16.089844 35.136719 L 16.089844 426.785156 C 16.089844 437.554688 24.820312 446.28125 35.589844 446.28125 L 1376.410156 446.28125 C 1387.179688 446.28125 1395.910156 437.554688 1395.910156 426.785156 L 1395.910156 35.136719 C 1395.910156 24.367188 1387.179688 15.636719 1376.410156 15.636719 L 35.589844 15.636719 C 24.820312 15.636719 16.089844 24.367188 16.089844 35.136719 Z M 16.089844 35.136719 " clip-rule="nonzero"/></clipPath><clipPath id="eb00c3092e"><path d="M 36.890625 16.9375 L 1375.109375 16.9375 C 1385.878906 16.9375 1394.609375 25.667969 1394.609375 36.4375 L 1394.609375 425.484375 C 1394.609375 436.253906 1385.878906 444.980469 1375.109375 444.980469 L 36.890625 444.980469 C 26.121094 444.980469 17.390625 436.253906 17.390625 425.484375 L 17.390625 36.4375 C 17.390625 25.667969 26.121094 16.9375 36.890625 16.9375 Z M 36.890625 16.9375 " clip-rule="nonzero"/></clipPath><clipPath id="642872c9f6"><path d="M 92 23 L 145 23 L 145 261 L 92 261 Z M 92 23 " clip-rule="nonzero"/></clipPath><clipPath id="fcc4369169"><path d="M 16.089844 35.136719 L 16.089844 426.785156 C 16.089844 437.554688 24.820312 446.28125 35.589844 446.28125 L 1376.410156 446.28125 C 1387.179688 446.28125 1395.910156 437.554688 1395.910156 426.785156 L 1395.910156 35.136719 C 1395.910156 24.367188 1387.179688 15.636719 1376.410156 15.636719 L 35.589844 15.636719 C 24.820312 15.636719 16.089844 24.367188 16.089844 35.136719 Z M 16.089844 35.136719 " clip-rule="nonzero"/></clipPath><clipPath id="705036316f"><path d="M 36.890625 16.9375 L 1375.109375 16.9375 C 1385.878906 16.9375 1394.609375 25.667969 1394.609375 36.4375 L 1394.609375 425.484375 C 1394.609375 436.253906 1385.878906 444.980469 1375.109375 444.980469 L 36.890625 444.980469 C 26.121094 444.980469 17.390625 436.253906 17.390625 425.484375 L 17.390625 36.4375 C 17.390625 25.667969 26.121094 16.9375 36.890625 16.9375 Z M 36.890625 16.9375 " clip-rule="nonzero"/></clipPath><clipPath id="c86ac04112"><path d="M 781 18 L 831 18 L 831 261 L 781 261 Z M 781 18 " clip-rule="nonzero"/></clipPath><clipPath id="955bcf0f6a"><path d="M 16.089844 35.136719 L 16.089844 426.785156 C 16.089844 437.554688 24.820312 446.28125 35.589844 446.28125 L 1376.410156 446.28125 C 1387.179688 446.28125 1395.910156 437.554688 1395.910156 426.785156 L 1395.910156 35.136719 C 1395.910156 24.367188 1387.179688 15.636719 1376.410156 15.636719 L 35.589844 15.636719 C 24.820312 15.636719 16.089844 24.367188 16.089844 35.136719 Z M 16.089844 35.136719 " clip-rule="nonzero"/></clipPath><clipPath id="43e6662595"><path d="M 36.890625 16.9375 L 1375.109375 16.9375 C 1385.878906 16.9375 1394.609375 25.667969 1394.609375 36.4375 L 1394.609375 425.484375 C 1394.609375 436.253906 1385.878906 444.980469 1375.109375 444.980469 L 36.890625 444.980469 C 26.121094 444.980469 17.390625 436.253906 17.390625 425.484375 L 17.390625 36.4375 C 17.390625 25.667969 26.121094 16.9375 36.890625 16.9375 Z M 36.890625 16.9375 " clip-rule="nonzero"/></clipPath><clipPath id="fce67f5444"><path d="M 780 17 L 832 17 L 832 262 L 780 262 Z M 780 17 " clip-rule="nonzero"/></clipPath><clipPath id="74b070ef6a"><path d="M 16.089844 35.136719 L 16.089844 426.785156 C 16.089844 437.554688 24.820312 446.28125 35.589844 446.28125 L 1376.410156 446.28125 C 1387.179688 446.28125 1395.910156 437.554688 1395.910156 426.785156 L 1395.910156 35.136719 C 1395.910156 24.367188 1387.179688 15.636719 1376.410156 15.636719 L 35.589844 15.636719 C 24.820312 15.636719 16.089844 24.367188 16.089844 35.136719 Z M 16.089844 35.136719 " clip-rule="nonzero"/></clipPath><clipPath id="c5aee74690"><path d="M 36.890625 16.9375 L 1375.109375 16.9375 C 1385.878906 16.9375 1394.609375 25.667969 1394.609375 36.4375 L 1394.609375 425.484375 C 1394.609375 436.253906 1385.878906 444.980469 1375.109375 444.980469 L 36.890625 444.980469 C 26.121094 444.980469 17.390625 436.253906 17.390625 425.484375 L 17.390625 36.4375 C 17.390625 25.667969 26.121094 16.9375 36.890625 16.9375 Z M 36.890625 16.9375 " clip-rule="nonzero"/></clipPath><clipPath id="9d91a814ef"><path d="M 879 17 L 929 17 L 929 261 L 879 261 Z M 879 17 " clip-rule="nonzero"/></clipPath><clipPath id="a77008379b"><path d="M 16.089844 35.136719 L 16.089844 426.785156 C 16.089844 437.554688 24.820312 446.28125 35.589844 446.28125 L 1376.410156 446.28125 C 1387.179688 446.28125 1395.910156 437.554688 1395.910156 426.785156 L 1395.910156 35.136719 C 1395.910156 24.367188 1387.179688 15.636719 1376.410156 15.636719 L 35.589844 15.636719 C 24.820312 15.636719 16.089844 24.367188 16.089844 35.136719 Z M 16.089844 35.136719 " clip-rule="nonzero"/></clipPath><clipPath id="db54368200"><path d="M 36.890625 16.9375 L 1375.109375 16.9375 C 1385.878906 16.9375 1394.609375 25.667969 1394.609375 36.4375 L 1394.609375 425.484375 C 1394.609375 436.253906 1385.878906 444.980469 1375.109375 444.980469 L 36.890625 444.980469 C 26.121094 444.980469 17.390625 436.253906 17.390625 425.484375 L 17.390625 36.4375 C 17.390625 25.667969 26.121094 16.9375 36.890625 16.9375 Z M 36.890625 16.9375 " clip-rule="nonzero"/></clipPath><clipPath id="e0bf91e5a7"><path d="M 878 17 L 930 17 L 930 262 L 878 262 Z M 878 17 " clip-rule="nonzero"/></clipPath><clipPath id="8ebb2dc6a1"><path d="M 16.089844 35.136719 L 16.089844 426.785156 C 16.089844 437.554688 24.820312 446.28125 35.589844 446.28125 L 1376.410156 446.28125 C 1387.179688 446.28125 1395.910156 437.554688 1395.910156 426.785156 L 1395.910156 35.136719 C 1395.910156 24.367188 1387.179688 15.636719 1376.410156 15.636719 L 35.589844 15.636719 C 24.820312 15.636719 16.089844 24.367188 16.089844 35.136719 Z M 16.089844 35.136719 " clip-rule="nonzero"/></clipPath><clipPath id="f7d900ccb3"><path d="M 36.890625 16.9375 L 1375.109375 16.9375 C 1385.878906 16.9375 1394.609375 25.667969 1394.609375 36.4375 L 1394.609375 425.484375 C 1394.609375 436.253906 1385.878906 444.980469 1375.109375 444.980469 L 36.890625 444.980469 C 26.121094 444.980469 17.390625 436.253906 17.390625 425.484375 L 17.390625 36.4375 C 17.390625 25.667969 26.121094 16.9375 36.890625 16.9375 Z M 36.890625 16.9375 " clip-rule="nonzero"/></clipPath><clipPath id="e05a6b50af"><path d="M 1075 17 L 1125 17 L 1125 261 L 1075 261 Z M 1075 17 " clip-rule="nonzero"/></clipPath><clipPath id="f4a4349670"><path d="M 16.089844 35.136719 L 16.089844 426.785156 C 16.089844 437.554688 24.820312 446.28125 35.589844 446.28125 L 1376.410156 446.28125 C 1387.179688 446.28125 1395.910156 437.554688 1395.910156 426.785156 L 1395.910156 35.136719 C 1395.910156 24.367188 1387.179688 15.636719 1376.410156 15.636719 L 35.589844 15.636719 C 24.820312 15.636719 16.089844 24.367188 16.089844 35.136719 Z M 16.089844 35.136719 " clip-rule="nonzero"/></clipPath><clipPath id="160e0d1244"><path d="M 36.890625 16.9375 L 1375.109375 16.9375 C 1385.878906 16.9375 1394.609375 25.667969 1394.609375 36.4375 L 1394.609375 425.484375 C 1394.609375 436.253906 1385.878906 444.980469 1375.109375 444.980469 L 36.890625 444.980469 C 26.121094 444.980469 17.390625 436.253906 17.390625 425.484375 L 17.390625 36.4375 C 17.390625 25.667969 26.121094 16.9375 36.890625 16.9375 Z M 36.890625 16.9375 " clip-rule="nonzero"/></clipPath><clipPath id="d913847591"><path d="M 1074 16.722656 L 1126 16.722656 L 1126 261 L 1074 261 Z M 1074 16.722656 " clip-rule="nonzero"/></clipPath><clipPath id="4f95ddaf56"><path d="M 16.089844 35.136719 L 16.089844 426.785156 C 16.089844 437.554688 24.820312 446.28125 35.589844 446.28125 L 1376.410156 446.28125 C 1387.179688 446.28125 1395.910156 437.554688 1395.910156 426.785156 L 1395.910156 35.136719 C 1395.910156 24.367188 1387.179688 15.636719 1376.410156 15.636719 L 35.589844 15.636719 C 24.820312 15.636719 16.089844 24.367188 16.089844 35.136719 Z M 16.089844 35.136719 " clip-rule="nonzero"/></clipPath><clipPath id="fb1d7e0906"><path d="M 36.890625 16.9375 L 1375.109375 16.9375 C 1385.878906 16.9375 1394.609375 25.667969 1394.609375 36.4375 L 1394.609375 425.484375 C 1394.609375 436.253906 1385.878906 444.980469 1375.109375 444.980469 L 36.890625 444.980469 C 26.121094 444.980469 17.390625 436.253906 17.390625 425.484375 L 17.390625 36.4375 C 17.390625 25.667969 26.121094 16.9375 36.890625 16.9375 Z M 36.890625 16.9375 " clip-rule="nonzero"/></clipPath><clipPath id="c94df0134c"><path d="M 1172 18 L 1223 18 L 1223 262 L 1172 262 Z M 1172 18 " clip-rule="nonzero"/></clipPath><clipPath id="4809d0c798"><path d="M 16.089844 35.136719 L 16.089844 426.785156 C 16.089844 437.554688 24.820312 446.28125 35.589844 446.28125 L 1376.410156 446.28125 C 1387.179688 446.28125 1395.910156 437.554688 1395.910156 426.785156 L 1395.910156 35.136719 C 1395.910156 24.367188 1387.179688 15.636719 1376.410156 15.636719 L 35.589844 15.636719 C 24.820312 15.636719 16.089844 24.367188 16.089844 35.136719 Z M 16.089844 35.136719 " clip-rule="nonzero"/></clipPath><clipPath id="8e650b4c36"><path d="M 36.890625 16.9375 L 1375.109375 16.9375 C 1385.878906 16.9375 1394.609375 25.667969 1394.609375 36.4375 L 1394.609375 425.484375 C 1394.609375 436.253906 1385.878906 444.980469 1375.109375 444.980469 L 36.890625 444.980469 C 26.121094 444.980469 17.390625 436.253906 17.390625 425.484375 L 17.390625 36.4375 C 17.390625 25.667969 26.121094 16.9375 36.890625 16.9375 Z M 36.890625 16.9375 " clip-rule="nonzero"/></clipPath><clipPath id="e291d4fc43"><path d="M 1172 17 L 1223 17 L 1223 262 L 1172 262 Z M 1172 17 " clip-rule="nonzero"/></clipPath><clipPath id="3989f70701"><path d="M 16.089844 35.136719 L 16.089844 426.785156 C 16.089844 437.554688 24.820312 446.28125 35.589844 446.28125 L 1376.410156 446.28125 C 1387.179688 446.28125 1395.910156 437.554688 1395.910156 426.785156 L 1395.910156 35.136719 C 1395.910156 24.367188 1387.179688 15.636719 1376.410156 15.636719 L 35.589844 15.636719 C 24.820312 15.636719 16.089844 24.367188 16.089844 35.136719 Z M 16.089844 35.136719 " clip-rule="nonzero"/></clipPath><clipPath id="d67f5f4d9f"><path d="M 36.890625 16.9375 L 1375.109375 16.9375 C 1385.878906 16.9375 1394.609375 25.667969 1394.609375 36.4375 L 1394.609375 425.484375 C 1394.609375 436.253906 1385.878906 444.980469 1375.109375 444.980469 L 36.890625 444.980469 C 26.121094 444.980469 17.390625 436.253906 17.390625 425.484375 L 17.390625 36.4375 C 17.390625 25.667969 26.121094 16.9375 36.890625 16.9375 Z M 36.890625 16.9375 " clip-rule="nonzero"/></clipPath><clipPath id="77409f1cbc"><path d="M 1271 17 L 1322 17 L 1322 261 L 1271 261 Z M 1271 17 " clip-rule="nonzero"/></clipPath><clipPath id="52629ed8b4"><path d="M 16.089844 35.136719 L 16.089844 426.785156 C 16.089844 437.554688 24.820312 446.28125 35.589844 446.28125 L 1376.410156 446.28125 C 1387.179688 446.28125 1395.910156 437.554688 1395.910156 426.785156 L 1395.910156 35.136719 C 1395.910156 24.367188 1387.179688 15.636719 1376.410156 15.636719 L 35.589844 15.636719 C 24.820312 15.636719 16.089844 24.367188 16.089844 35.136719 Z M 16.089844 35.136719 " clip-rule="nonzero"/></clipPath><clipPath id="c25f6d66a6"><path d="M 36.890625 16.9375 L 1375.109375 16.9375 C 1385.878906 16.9375 1394.609375 25.667969 1394.609375 36.4375 L 1394.609375 425.484375 C 1394.609375 436.253906 1385.878906 444.980469 1375.109375 444.980469 L 36.890625 444.980469 C 26.121094 444.980469 17.390625 436.253906 17.390625 425.484375 L 17.390625 36.4375 C 17.390625 25.667969 26.121094 16.9375 36.890625 16.9375 Z M 36.890625 16.9375 " clip-rule="nonzero"/></clipPath><clipPath id="7256dc20f4"><path d="M 1271 17 L 1322 17 L 1322 262 L 1271 262 Z M 1271 17 " clip-rule="nonzero"/></clipPath><clipPath id="36fd0fc533"><path d="M 16.089844 35.136719 L 16.089844 426.785156 C 16.089844 437.554688 24.820312 446.28125 35.589844 446.28125 L 1376.410156 446.28125 C 1387.179688 446.28125 1395.910156 437.554688 1395.910156 426.785156 L 1395.910156 35.136719 C 1395.910156 24.367188 1387.179688 15.636719 1376.410156 15.636719 L 35.589844 15.636719 C 24.820312 15.636719 16.089844 24.367188 16.089844 35.136719 Z M 16.089844 35.136719 " clip-rule="nonzero"/></clipPath><clipPath id="f38c0a2673"><path d="M 36.890625 16.9375 L 1375.109375 16.9375 C 1385.878906 16.9375 1394.609375 25.667969 1394.609375 36.4375 L 1394.609375 425.484375 C 1394.609375 436.253906 1385.878906 444.980469 1375.109375 444.980469 L 36.890625 444.980469 C 26.121094 444.980469 17.390625 436.253906 17.390625 425.484375 L 17.390625 36.4375 C 17.390625 25.667969 26.121094 16.9375 36.890625 16.9375 Z M 36.890625 16.9375 " clip-rule="nonzero"/></clipPath><clipPath id="48e61f8c02"><path d="M 706 16.722656 L 1394.953125 16.722656 L 1394.953125 445 L 706 445 Z M 706 16.722656 " clip-rule="nonzero"/></clipPath><clipPath id="3795a064d8"><path d="M 16.089844 35.136719 L 16.089844 426.785156 C 16.089844 437.554688 24.820312 446.28125 35.589844 446.28125 L 1376.410156 446.28125 C 1387.179688 446.28125 1395.910156 437.554688 1395.910156 426.785156 L 1395.910156 35.136719 C 1395.910156 24.367188 1387.179688 15.636719 1376.410156 15.636719 L 35.589844 15.636719 C 24.820312 15.636719 16.089844 24.367188 16.089844 35.136719 Z M 16.089844 35.136719 " clip-rule="nonzero"/></clipPath><clipPath id="36de7bb26c"><path d="M 36.890625 16.9375 L 1375.109375 16.9375 C 1385.878906 16.9375 1394.609375 25.667969 1394.609375 36.4375 L 1394.609375 425.484375 C 1394.609375 436.253906 1385.878906 444.980469 1375.109375 444.980469 L 36.890625 444.980469 C 26.121094 444.980469 17.390625 436.253906 17.390625 425.484375 L 17.390625 36.4375 C 17.390625 25.667969 26.121094 16.9375 36.890625 16.9375 Z M 36.890625 16.9375 " clip-rule="nonzero"/></clipPath><clipPath id="ea38e799ac"><path d="M 802 248 L 808 248 L 808 445 L 802 445 Z M 802 248 " clip-rule="nonzero"/></clipPath><clipPath id="71615794dd"><path d="M 16.089844 35.136719 L 16.089844 426.785156 C 16.089844 437.554688 24.820312 446.28125 35.589844 446.28125 L 1376.410156 446.28125 C 1387.179688 446.28125 1395.910156 437.554688 1395.910156 426.785156 L 1395.910156 35.136719 C 1395.910156 24.367188 1387.179688 15.636719 1376.410156 15.636719 L 35.589844 15.636719 C 24.820312 15.636719 16.089844 24.367188 16.089844 35.136719 Z M 16.089844 35.136719 " clip-rule="nonzero"/></clipPath><clipPath id="e7185b1fc9"><path d="M 36.890625 16.9375 L 1375.109375 16.9375 C 1385.878906 16.9375 1394.609375 25.667969 1394.609375 36.4375 L 1394.609375 425.484375 C 1394.609375 436.253906 1385.878906 444.980469 1375.109375 444.980469 L 36.890625 444.980469 C 26.121094 444.980469 17.390625 436.253906 17.390625 425.484375 L 17.390625 36.4375 C 17.390625 25.667969 26.121094 16.9375 36.890625 16.9375 Z M 36.890625 16.9375 " clip-rule="nonzero"/></clipPath><clipPath id="7f6a29e0f7"><path d="M 901 247 L 907 247 L 907 445 L 901 445 Z M 901 247 " clip-rule="nonzero"/></clipPath><clipPath id="f22490757c"><path d="M 16.089844 35.136719 L 16.089844 426.785156 C 16.089844 437.554688 24.820312 446.28125 35.589844 446.28125 L 1376.410156 446.28125 C 1387.179688 446.28125 1395.910156 437.554688 1395.910156 426.785156 L 1395.910156 35.136719 C 1395.910156 24.367188 1387.179688 15.636719 1376.410156 15.636719 L 35.589844 15.636719 C 24.820312 15.636719 16.089844 24.367188 16.089844 35.136719 Z M 16.089844 35.136719 " clip-rule="nonzero"/></clipPath><clipPath id="4b79057f8b"><path d="M 36.890625 16.9375 L 1375.109375 16.9375 C 1385.878906 16.9375 1394.609375 25.667969 1394.609375 36.4375 L 1394.609375 425.484375 C 1394.609375 436.253906 1385.878906 444.980469 1375.109375 444.980469 L 36.890625 444.980469 C 26.121094 444.980469 17.390625 436.253906 17.390625 425.484375 L 17.390625 36.4375 C 17.390625 25.667969 26.121094 16.9375 36.890625 16.9375 Z M 36.890625 16.9375 " clip-rule="nonzero"/></clipPath><clipPath id="26b8b768a4"><path d="M 1097 248 L 1103 248 L 1103 445 L 1097 445 Z M 1097 248 " clip-rule="nonzero"/></clipPath><clipPath id="88ca61bd96"><path d="M 16.089844 35.136719 L 16.089844 426.785156 C 16.089844 437.554688 24.820312 446.28125 35.589844 446.28125 L 1376.410156 446.28125 C 1387.179688 446.28125 1395.910156 437.554688 1395.910156 426.785156 L 1395.910156 35.136719 C 1395.910156 24.367188 1387.179688 15.636719 1376.410156 15.636719 L 35.589844 15.636719 C 24.820312 15.636719 16.089844 24.367188 16.089844 35.136719 Z M 16.089844 35.136719 " clip-rule="nonzero"/></clipPath><clipPath id="35bfafeb9e"><path d="M 36.890625 16.9375 L 1375.109375 16.9375 C 1385.878906 16.9375 1394.609375 25.667969 1394.609375 36.4375 L 1394.609375 425.484375 C 1394.609375 436.253906 1385.878906 444.980469 1375.109375 444.980469 L 36.890625 444.980469 C 26.121094 444.980469 17.390625 436.253906 17.390625 425.484375 L 17.390625 36.4375 C 17.390625 25.667969 26.121094 16.9375 36.890625 16.9375 Z M 36.890625 16.9375 " clip-rule="nonzero"/></clipPath><clipPath id="fa0ce66609"><path d="M 1194 248 L 1201 248 L 1201 445 L 1194 445 Z M 1194 248 " clip-rule="nonzero"/></clipPath><clipPath id="b75455bf8b"><path d="M 16.089844 35.136719 L 16.089844 426.785156 C 16.089844 437.554688 24.820312 446.28125 35.589844 446.28125 L 1376.410156 446.28125 C 1387.179688 446.28125 1395.910156 437.554688 1395.910156 426.785156 L 1395.910156 35.136719 C 1395.910156 24.367188 1387.179688 15.636719 1376.410156 15.636719 L 35.589844 15.636719 C 24.820312 15.636719 16.089844 24.367188 16.089844 35.136719 Z M 16.089844 35.136719 " clip-rule="nonzero"/></clipPath><clipPath id="035576b047"><path d="M 36.890625 16.9375 L 1375.109375 16.9375 C 1385.878906 16.9375 1394.609375 25.667969 1394.609375 36.4375 L 1394.609375 425.484375 C 1394.609375 436.253906 1385.878906 444.980469 1375.109375 444.980469 L 36.890625 444.980469 C 26.121094 444.980469 17.390625 436.253906 17.390625 425.484375 L 17.390625 36.4375 C 17.390625 25.667969 26.121094 16.9375 36.890625 16.9375 Z M 36.890625 16.9375 " clip-rule="nonzero"/></clipPath><clipPath id="9a1295bd79"><path d="M 1294 248 L 1300 248 L 1300 445 L 1294 445 Z M 1294 248 " clip-rule="nonzero"/></clipPath><clipPath id="fcafb5a5b6"><path d="M 16.089844 35.136719 L 16.089844 426.785156 C 16.089844 437.554688 24.820312 446.28125 35.589844 446.28125 L 1376.410156 446.28125 C 1387.179688 446.28125 1395.910156 437.554688 1395.910156 426.785156 L 1395.910156 35.136719 C 1395.910156 24.367188 1387.179688 15.636719 1376.410156 15.636719 L 35.589844 15.636719 C 24.820312 15.636719 16.089844 24.367188 16.089844 35.136719 Z M 16.089844 35.136719 " clip-rule="nonzero"/></clipPath><clipPath id="d4fe3e468c"><path d="M 36.890625 16.9375 L 1375.109375 16.9375 C 1385.878906 16.9375 1394.609375 25.667969 1394.609375 36.4375 L 1394.609375 425.484375 C 1394.609375 436.253906 1385.878906 444.980469 1375.109375 444.980469 L 36.890625 444.980469 C 26.121094 444.980469 17.390625 436.253906 17.390625 425.484375 L 17.390625 36.4375 C 17.390625 25.667969 26.121094 16.9375 36.890625 16.9375 Z M 36.890625 16.9375 " clip-rule="nonzero"/></clipPath><clipPath id="b1c2784fb1"><path d="M 999 16.722656 L 1005 16.722656 L 1005 445 L 999 445 Z M 999 16.722656 " clip-rule="nonzero"/></clipPath><clipPath id="2ff69f5348"><path d="M 16.089844 35.136719 L 16.089844 426.785156 C 16.089844 437.554688 24.820312 446.28125 35.589844 446.28125 L 1376.410156 446.28125 C 1387.179688 446.28125 1395.910156 437.554688 1395.910156 426.785156 L 1395.910156 35.136719 C 1395.910156 24.367188 1387.179688 15.636719 1376.410156 15.636719 L 35.589844 15.636719 C 24.820312 15.636719 16.089844 24.367188 16.089844 35.136719 Z M 16.089844 35.136719 " clip-rule="nonzero"/></clipPath><clipPath id="d9318850ac"><path d="M 36.890625 16.9375 L 1375.109375 16.9375 C 1385.878906 16.9375 1394.609375 25.667969 1394.609375 36.4375 L 1394.609375 425.484375 C 1394.609375 436.253906 1385.878906 444.980469 1375.109375 444.980469 L 36.890625 444.980469 C 26.121094 444.980469 17.390625 436.253906 17.390625 425.484375 L 17.390625 36.4375 C 17.390625 25.667969 26.121094 16.9375 36.890625 16.9375 Z M 36.890625 16.9375 " clip-rule="nonzero"/></clipPath><clipPath id="eb00fad079"><path d="M 195 25 L 237 25 L 237 253 L 195 253 Z M 195 25 " clip-rule="nonzero"/></clipPath><clipPath id="2a67e93a20"><path d="M 16.089844 35.136719 L 16.089844 426.785156 C 16.089844 437.554688 24.820312 446.28125 35.589844 446.28125 L 1376.410156 446.28125 C 1387.179688 446.28125 1395.910156 437.554688 1395.910156 426.785156 L 1395.910156 35.136719 C 1395.910156 24.367188 1387.179688 15.636719 1376.410156 15.636719 L 35.589844 15.636719 C 24.820312 15.636719 16.089844 24.367188 16.089844 35.136719 Z M 16.089844 35.136719 " clip-rule="nonzero"/></clipPath><clipPath id="3911cb09e4"><path d="M 36.890625 16.9375 L 1375.109375 16.9375 C 1385.878906 16.9375 1394.609375 25.667969 1394.609375 36.4375 L 1394.609375 425.484375 C 1394.609375 436.253906 1385.878906 444.980469 1375.109375 444.980469 L 36.890625 444.980469 C 26.121094 444.980469 17.390625 436.253906 17.390625 425.484375 L 17.390625 36.4375 C 17.390625 25.667969 26.121094 16.9375 36.890625 16.9375 Z M 36.890625 16.9375 " clip-rule="nonzero"/></clipPath><clipPath id="bc5b5eae56"><path d="M 189 20 L 242 20 L 242 258 L 189 258 Z M 189 20 " clip-rule="nonzero"/></clipPath><clipPath id="b00eb72da3"><path d="M 16.089844 35.136719 L 16.089844 426.785156 C 16.089844 437.554688 24.820312 446.28125 35.589844 446.28125 L 1376.410156 446.28125 C 1387.179688 446.28125 1395.910156 437.554688 1395.910156 426.785156 L 1395.910156 35.136719 C 1395.910156 24.367188 1387.179688 15.636719 1376.410156 15.636719 L 35.589844 15.636719 C 24.820312 15.636719 16.089844 24.367188 16.089844 35.136719 Z M 16.089844 35.136719 " clip-rule="nonzero"/></clipPath><clipPath id="90a036a892"><path d="M 36.890625 16.9375 L 1375.109375 16.9375 C 1385.878906 16.9375 1394.609375 25.667969 1394.609375 36.4375 L 1394.609375 425.484375 C 1394.609375 436.253906 1385.878906 444.980469 1375.109375 444.980469 L 36.890625 444.980469 C 26.121094 444.980469 17.390625 436.253906 17.390625 425.484375 L 17.390625 36.4375 C 17.390625 25.667969 26.121094 16.9375 36.890625 16.9375 Z M 36.890625 16.9375 " clip-rule="nonzero"/></clipPath><clipPath id="efd50ce7b3"><path d="M 391 25 L 433 25 L 433 253 L 391 253 Z M 391 25 " clip-rule="nonzero"/></clipPath><clipPath id="5ae7e94f15"><path d="M 16.089844 35.136719 L 16.089844 426.785156 C 16.089844 437.554688 24.820312 446.28125 35.589844 446.28125 L 1376.410156 446.28125 C 1387.179688 446.28125 1395.910156 437.554688 1395.910156 426.785156 L 1395.910156 35.136719 C 1395.910156 24.367188 1387.179688 15.636719 1376.410156 15.636719 L 35.589844 15.636719 C 24.820312 15.636719 16.089844 24.367188 16.089844 35.136719 Z M 16.089844 35.136719 " clip-rule="nonzero"/></clipPath><clipPath id="17dfb12fbd"><path d="M 36.890625 16.9375 L 1375.109375 16.9375 C 1385.878906 16.9375 1394.609375 25.667969 1394.609375 36.4375 L 1394.609375 425.484375 C 1394.609375 436.253906 1385.878906 444.980469 1375.109375 444.980469 L 36.890625 444.980469 C 26.121094 444.980469 17.390625 436.253906 17.390625 425.484375 L 17.390625 36.4375 C 17.390625 25.667969 26.121094 16.9375 36.890625 16.9375 Z M 36.890625 16.9375 " clip-rule="nonzero"/></clipPath><clipPath id="2037a09d06"><path d="M 386 20 L 439 20 L 439 258 L 386 258 Z M 386 20 " clip-rule="nonzero"/></clipPath><clipPath id="d4b9c8e753"><path d="M 16.089844 35.136719 L 16.089844 426.785156 C 16.089844 437.554688 24.820312 446.28125 35.589844 446.28125 L 1376.410156 446.28125 C 1387.179688 446.28125 1395.910156 437.554688 1395.910156 426.785156 L 1395.910156 35.136719 C 1395.910156 24.367188 1387.179688 15.636719 1376.410156 15.636719 L 35.589844 15.636719 C 24.820312 15.636719 16.089844 24.367188 16.089844 35.136719 Z M 16.089844 35.136719 " clip-rule="nonzero"/></clipPath><clipPath id="77e0086316"><path d="M 36.890625 16.9375 L 1375.109375 16.9375 C 1385.878906 16.9375 1394.609375 25.667969 1394.609375 36.4375 L 1394.609375 425.484375 C 1394.609375 436.253906 1385.878906 444.980469 1375.109375 444.980469 L 36.890625 444.980469 C 26.121094 444.980469 17.390625 436.253906 17.390625 425.484375 L 17.390625 36.4375 C 17.390625 25.667969 26.121094 16.9375 36.890625 16.9375 Z M 36.890625 16.9375 " clip-rule="nonzero"/></clipPath><clipPath id="fa8e84cfb5"><path d="M 487 27 L 529 27 L 529 255 L 487 255 Z M 487 27 " clip-rule="nonzero"/></clipPath><clipPath id="1d7274c79d"><path d="M 16.089844 35.136719 L 16.089844 426.785156 C 16.089844 437.554688 24.820312 446.28125 35.589844 446.28125 L 1376.410156 446.28125 C 1387.179688 446.28125 1395.910156 437.554688 1395.910156 426.785156 L 1395.910156 35.136719 C 1395.910156 24.367188 1387.179688 15.636719 1376.410156 15.636719 L 35.589844 15.636719 C 24.820312 15.636719 16.089844 24.367188 16.089844 35.136719 Z M 16.089844 35.136719 " clip-rule="nonzero"/></clipPath><clipPath id="215afae0b9"><path d="M 36.890625 16.9375 L 1375.109375 16.9375 C 1385.878906 16.9375 1394.609375 25.667969 1394.609375 36.4375 L 1394.609375 425.484375 C 1394.609375 436.253906 1385.878906 444.980469 1375.109375 444.980469 L 36.890625 444.980469 C 26.121094 444.980469 17.390625 436.253906 17.390625 425.484375 L 17.390625 36.4375 C 17.390625 25.667969 26.121094 16.9375 36.890625 16.9375 Z M 36.890625 16.9375 " clip-rule="nonzero"/></clipPath><clipPath id="3d40f05246"><path d="M 482 22 L 535 22 L 535 260 L 482 260 Z M 482 22 " clip-rule="nonzero"/></clipPath><clipPath id="535c1dba1a"><path d="M 16.089844 35.136719 L 16.089844 426.785156 C 16.089844 437.554688 24.820312 446.28125 35.589844 446.28125 L 1376.410156 446.28125 C 1387.179688 446.28125 1395.910156 437.554688 1395.910156 426.785156 L 1395.910156 35.136719 C 1395.910156 24.367188 1387.179688 15.636719 1376.410156 15.636719 L 35.589844 15.636719 C 24.820312 15.636719 16.089844 24.367188 16.089844 35.136719 Z M 16.089844 35.136719 " clip-rule="nonzero"/></clipPath><clipPath id="43062a7fff"><path d="M 36.890625 16.9375 L 1375.109375 16.9375 C 1385.878906 16.9375 1394.609375 25.667969 1394.609375 36.4375 L 1394.609375 425.484375 C 1394.609375 436.253906 1385.878906 444.980469 1375.109375 444.980469 L 36.890625 444.980469 C 26.121094 444.980469 17.390625 436.253906 17.390625 425.484375 L 17.390625 36.4375 C 17.390625 25.667969 26.121094 16.9375 36.890625 16.9375 Z M 36.890625 16.9375 " clip-rule="nonzero"/></clipPath><clipPath id="27acd42497"><path d="M 587 27 L 629 27 L 629 255 L 587 255 Z M 587 27 " clip-rule="nonzero"/></clipPath><clipPath id="715063bf1c"><path d="M 16.089844 35.136719 L 16.089844 426.785156 C 16.089844 437.554688 24.820312 446.28125 35.589844 446.28125 L 1376.410156 446.28125 C 1387.179688 446.28125 1395.910156 437.554688 1395.910156 426.785156 L 1395.910156 35.136719 C 1395.910156 24.367188 1387.179688 15.636719 1376.410156 15.636719 L 35.589844 15.636719 C 24.820312 15.636719 16.089844 24.367188 16.089844 35.136719 Z M 16.089844 35.136719 " clip-rule="nonzero"/></clipPath><clipPath id="08114844ec"><path d="M 36.890625 16.9375 L 1375.109375 16.9375 C 1385.878906 16.9375 1394.609375 25.667969 1394.609375 36.4375 L 1394.609375 425.484375 C 1394.609375 436.253906 1385.878906 444.980469 1375.109375 444.980469 L 36.890625 444.980469 C 26.121094 444.980469 17.390625 436.253906 17.390625 425.484375 L 17.390625 36.4375 C 17.390625 25.667969 26.121094 16.9375 36.890625 16.9375 Z M 36.890625 16.9375 " clip-rule="nonzero"/></clipPath><clipPath id="d0630dc707"><path d="M 582 22 L 635 22 L 635 260 L 582 260 Z M 582 22 " clip-rule="nonzero"/></clipPath><clipPath id="9902b00f28"><path d="M 16.089844 35.136719 L 16.089844 426.785156 C 16.089844 437.554688 24.820312 446.28125 35.589844 446.28125 L 1376.410156 446.28125 C 1387.179688 446.28125 1395.910156 437.554688 1395.910156 426.785156 L 1395.910156 35.136719 C 1395.910156 24.367188 1387.179688 15.636719 1376.410156 15.636719 L 35.589844 15.636719 C 24.820312 15.636719 16.089844 24.367188 16.089844 35.136719 Z M 16.089844 35.136719 " clip-rule="nonzero"/></clipPath><clipPath id="f09637c0f2"><path d="M 36.890625 16.9375 L 1375.109375 16.9375 C 1385.878906 16.9375 1394.609375 25.667969 1394.609375 36.4375 L 1394.609375 425.484375 C 1394.609375 436.253906 1385.878906 444.980469 1375.109375 444.980469 L 36.890625 444.980469 C 26.121094 444.980469 17.390625 436.253906 17.390625 425.484375 L 17.390625 36.4375 C 17.390625 25.667969 26.121094 16.9375 36.890625 16.9375 Z M 36.890625 16.9375 " clip-rule="nonzero"/></clipPath><clipPath id="a603cf5be8"><path d="M 785 24 L 827 24 L 827 251 L 785 251 Z M 785 24 " clip-rule="nonzero"/></clipPath><clipPath id="ecd6afddd7"><path d="M 16.089844 35.136719 L 16.089844 426.785156 C 16.089844 437.554688 24.820312 446.28125 35.589844 446.28125 L 1376.410156 446.28125 C 1387.179688 446.28125 1395.910156 437.554688 1395.910156 426.785156 L 1395.910156 35.136719 C 1395.910156 24.367188 1387.179688 15.636719 1376.410156 15.636719 L 35.589844 15.636719 C 24.820312 15.636719 16.089844 24.367188 16.089844 35.136719 Z M 16.089844 35.136719 " clip-rule="nonzero"/></clipPath><clipPath id="6dd4fb8a38"><path d="M 36.890625 16.9375 L 1375.109375 16.9375 C 1385.878906 16.9375 1394.609375 25.667969 1394.609375 36.4375 L 1394.609375 425.484375 C 1394.609375 436.253906 1385.878906 444.980469 1375.109375 444.980469 L 36.890625 444.980469 C 26.121094 444.980469 17.390625 436.253906 17.390625 425.484375 L 17.390625 36.4375 C 17.390625 25.667969 26.121094 16.9375 36.890625 16.9375 Z M 36.890625 16.9375 " clip-rule="nonzero"/></clipPath><clipPath id="66fc8885a1"><path d="M 780 18 L 833 18 L 833 256 L 780 256 Z M 780 18 " clip-rule="nonzero"/></clipPath><clipPath id="151be7d4ec"><path d="M 16.089844 35.136719 L 16.089844 426.785156 C 16.089844 437.554688 24.820312 446.28125 35.589844 446.28125 L 1376.410156 446.28125 C 1387.179688 446.28125 1395.910156 437.554688 1395.910156 426.785156 L 1395.910156 35.136719 C 1395.910156 24.367188 1387.179688 15.636719 1376.410156 15.636719 L 35.589844 15.636719 C 24.820312 15.636719 16.089844 24.367188 16.089844 35.136719 Z M 16.089844 35.136719 " clip-rule="nonzero"/></clipPath><clipPath id="e51470aeaa"><path d="M 36.890625 16.9375 L 1375.109375 16.9375 C 1385.878906 16.9375 1394.609375 25.667969 1394.609375 36.4375 L 1394.609375 425.484375 C 1394.609375 436.253906 1385.878906 444.980469 1375.109375 444.980469 L 36.890625 444.980469 C 26.121094 444.980469 17.390625 436.253906 17.390625 425.484375 L 17.390625 36.4375 C 17.390625 25.667969 26.121094 16.9375 36.890625 16.9375 Z M 36.890625 16.9375 " clip-rule="nonzero"/></clipPath><clipPath id="e25902e12b"><path d="M 885 24 L 927 24 L 927 251 L 885 251 Z M 885 24 " clip-rule="nonzero"/></clipPath><clipPath id="bdd52a57bd"><path d="M 16.089844 35.136719 L 16.089844 426.785156 C 16.089844 437.554688 24.820312 446.28125 35.589844 446.28125 L 1376.410156 446.28125 C 1387.179688 446.28125 1395.910156 437.554688 1395.910156 426.785156 L 1395.910156 35.136719 C 1395.910156 24.367188 1387.179688 15.636719 1376.410156 15.636719 L 35.589844 15.636719 C 24.820312 15.636719 16.089844 24.367188 16.089844 35.136719 Z M 16.089844 35.136719 " clip-rule="nonzero"/></clipPath><clipPath id="5e0f8a1ada"><path d="M 36.890625 16.9375 L 1375.109375 16.9375 C 1385.878906 16.9375 1394.609375 25.667969 1394.609375 36.4375 L 1394.609375 425.484375 C 1394.609375 436.253906 1385.878906 444.980469 1375.109375 444.980469 L 36.890625 444.980469 C 26.121094 444.980469 17.390625 436.253906 17.390625 425.484375 L 17.390625 36.4375 C 17.390625 25.667969 26.121094 16.9375 36.890625 16.9375 Z M 36.890625 16.9375 " clip-rule="nonzero"/></clipPath><clipPath id="1115aae267"><path d="M 880 18 L 933 18 L 933 256 L 880 256 Z M 880 18 " clip-rule="nonzero"/></clipPath><clipPath id="ce97c850ea"><path d="M 16.089844 35.136719 L 16.089844 426.785156 C 16.089844 437.554688 24.820312 446.28125 35.589844 446.28125 L 1376.410156 446.28125 C 1387.179688 446.28125 1395.910156 437.554688 1395.910156 426.785156 L 1395.910156 35.136719 C 1395.910156 24.367188 1387.179688 15.636719 1376.410156 15.636719 L 35.589844 15.636719 C 24.820312 15.636719 16.089844 24.367188 16.089844 35.136719 Z M 16.089844 35.136719 " clip-rule="nonzero"/></clipPath><clipPath id="66fcc948fb"><path d="M 36.890625 16.9375 L 1375.109375 16.9375 C 1385.878906 16.9375 1394.609375 25.667969 1394.609375 36.4375 L 1394.609375 425.484375 C 1394.609375 436.253906 1385.878906 444.980469 1375.109375 444.980469 L 36.890625 444.980469 C 26.121094 444.980469 17.390625 436.253906 17.390625 425.484375 L 17.390625 36.4375 C 17.390625 25.667969 26.121094 16.9375 36.890625 16.9375 Z M 36.890625 16.9375 " clip-rule="nonzero"/></clipPath><clipPath id="aacc832413"><path d="M 1082 29 L 1124 29 L 1124 256 L 1082 256 Z M 1082 29 " clip-rule="nonzero"/></clipPath><clipPath id="aaac766bcb"><path d="M 16.089844 35.136719 L 16.089844 426.785156 C 16.089844 437.554688 24.820312 446.28125 35.589844 446.28125 L 1376.410156 446.28125 C 1387.179688 446.28125 1395.910156 437.554688 1395.910156 426.785156 L 1395.910156 35.136719 C 1395.910156 24.367188 1387.179688 15.636719 1376.410156 15.636719 L 35.589844 15.636719 C 24.820312 15.636719 16.089844 24.367188 16.089844 35.136719 Z M 16.089844 35.136719 " clip-rule="nonzero"/></clipPath><clipPath id="de990e8ae5"><path d="M 36.890625 16.9375 L 1375.109375 16.9375 C 1385.878906 16.9375 1394.609375 25.667969 1394.609375 36.4375 L 1394.609375 425.484375 C 1394.609375 436.253906 1385.878906 444.980469 1375.109375 444.980469 L 36.890625 444.980469 C 26.121094 444.980469 17.390625 436.253906 17.390625 425.484375 L 17.390625 36.4375 C 17.390625 25.667969 26.121094 16.9375 36.890625 16.9375 Z M 36.890625 16.9375 " clip-rule="nonzero"/></clipPath><clipPath id="75f118b5d7"><path d="M 1076 23 L 1129 23 L 1129 262 L 1076 262 Z M 1076 23 " clip-rule="nonzero"/></clipPath><clipPath id="fb2a77889b"><path d="M 16.089844 35.136719 L 16.089844 426.785156 C 16.089844 437.554688 24.820312 446.28125 35.589844 446.28125 L 1376.410156 446.28125 C 1387.179688 446.28125 1395.910156 437.554688 1395.910156 426.785156 L 1395.910156 35.136719 C 1395.910156 24.367188 1387.179688 15.636719 1376.410156 15.636719 L 35.589844 15.636719 C 24.820312 15.636719 16.089844 24.367188 16.089844 35.136719 Z M 16.089844 35.136719 " clip-rule="nonzero"/></clipPath><clipPath id="ee5d2e9bda"><path d="M 36.890625 16.9375 L 1375.109375 16.9375 C 1385.878906 16.9375 1394.609375 25.667969 1394.609375 36.4375 L 1394.609375 425.484375 C 1394.609375 436.253906 1385.878906 444.980469 1375.109375 444.980469 L 36.890625 444.980469 C 26.121094 444.980469 17.390625 436.253906 17.390625 425.484375 L 17.390625 36.4375 C 17.390625 25.667969 26.121094 16.9375 36.890625 16.9375 Z M 36.890625 16.9375 " clip-rule="nonzero"/></clipPath><clipPath id="7fdac52867"><path d="M 1178 31 L 1220 31 L 1220 258 L 1178 258 Z M 1178 31 " clip-rule="nonzero"/></clipPath><clipPath id="305c4dbf18"><path d="M 16.089844 35.136719 L 16.089844 426.785156 C 16.089844 437.554688 24.820312 446.28125 35.589844 446.28125 L 1376.410156 446.28125 C 1387.179688 446.28125 1395.910156 437.554688 1395.910156 426.785156 L 1395.910156 35.136719 C 1395.910156 24.367188 1387.179688 15.636719 1376.410156 15.636719 L 35.589844 15.636719 C 24.820312 15.636719 16.089844 24.367188 16.089844 35.136719 Z M 16.089844 35.136719 " clip-rule="nonzero"/></clipPath><clipPath id="928a4b4fa9"><path d="M 36.890625 16.9375 L 1375.109375 16.9375 C 1385.878906 16.9375 1394.609375 25.667969 1394.609375 36.4375 L 1394.609375 425.484375 C 1394.609375 436.253906 1385.878906 444.980469 1375.109375 444.980469 L 36.890625 444.980469 C 26.121094 444.980469 17.390625 436.253906 17.390625 425.484375 L 17.390625 36.4375 C 17.390625 25.667969 26.121094 16.9375 36.890625 16.9375 Z M 36.890625 16.9375 " clip-rule="nonzero"/></clipPath><clipPath id="9ac6837f20"><path d="M 1172 25 L 1225 25 L 1225 264 L 1172 264 Z M 1172 25 " clip-rule="nonzero"/></clipPath><clipPath id="4b4c1315d1"><path d="M 16.089844 35.136719 L 16.089844 426.785156 C 16.089844 437.554688 24.820312 446.28125 35.589844 446.28125 L 1376.410156 446.28125 C 1387.179688 446.28125 1395.910156 437.554688 1395.910156 426.785156 L 1395.910156 35.136719 C 1395.910156 24.367188 1387.179688 15.636719 1376.410156 15.636719 L 35.589844 15.636719 C 24.820312 15.636719 16.089844 24.367188 16.089844 35.136719 Z M 16.089844 35.136719 " clip-rule="nonzero"/></clipPath><clipPath id="ee3349b94e"><path d="M 36.890625 16.9375 L 1375.109375 16.9375 C 1385.878906 16.9375 1394.609375 25.667969 1394.609375 36.4375 L 1394.609375 425.484375 C 1394.609375 436.253906 1385.878906 444.980469 1375.109375 444.980469 L 36.890625 444.980469 C 26.121094 444.980469 17.390625 436.253906 17.390625 425.484375 L 17.390625 36.4375 C 17.390625 25.667969 26.121094 16.9375 36.890625 16.9375 Z M 36.890625 16.9375 " clip-rule="nonzero"/></clipPath><clipPath id="98738ea53f"><path d="M 1276 29 L 1318 29 L 1318 256 L 1276 256 Z M 1276 29 " clip-rule="nonzero"/></clipPath><clipPath id="403e3eee33"><path d="M 16.089844 35.136719 L 16.089844 426.785156 C 16.089844 437.554688 24.820312 446.28125 35.589844 446.28125 L 1376.410156 446.28125 C 1387.179688 446.28125 1395.910156 437.554688 1395.910156 426.785156 L 1395.910156 35.136719 C 1395.910156 24.367188 1387.179688 15.636719 1376.410156 15.636719 L 35.589844 15.636719 C 24.820312 15.636719 16.089844 24.367188 16.089844 35.136719 Z M 16.089844 35.136719 " clip-rule="nonzero"/></clipPath><clipPath id="7fafdb307e"><path d="M 36.890625 16.9375 L 1375.109375 16.9375 C 1385.878906 16.9375 1394.609375 25.667969 1394.609375 36.4375 L 1394.609375 425.484375 C 1394.609375 436.253906 1385.878906 444.980469 1375.109375 444.980469 L 36.890625 444.980469 C 26.121094 444.980469 17.390625 436.253906 17.390625 425.484375 L 17.390625 36.4375 C 17.390625 25.667969 26.121094 16.9375 36.890625 16.9375 Z M 36.890625 16.9375 " clip-rule="nonzero"/></clipPath><clipPath id="cbb761ac6e"><path d="M 1271 23 L 1324 23 L 1324 262 L 1271 262 Z M 1271 23 " clip-rule="nonzero"/></clipPath><clipPath id="84025925c5"><path d="M 16.089844 35.136719 L 16.089844 426.785156 C 16.089844 437.554688 24.820312 446.28125 35.589844 446.28125 L 1376.410156 446.28125 C 1387.179688 446.28125 1395.910156 437.554688 1395.910156 426.785156 L 1395.910156 35.136719 C 1395.910156 24.367188 1387.179688 15.636719 1376.410156 15.636719 L 35.589844 15.636719 C 24.820312 15.636719 16.089844 24.367188 16.089844 35.136719 Z M 16.089844 35.136719 " clip-rule="nonzero"/></clipPath><clipPath id="fb01402ab0"><path d="M 36.890625 16.9375 L 1375.109375 16.9375 C 1385.878906 16.9375 1394.609375 25.667969 1394.609375 36.4375 L 1394.609375 425.484375 C 1394.609375 436.253906 1385.878906 444.980469 1375.109375 444.980469 L 36.890625 444.980469 C 26.121094 444.980469 17.390625 436.253906 17.390625 425.484375 L 17.390625 36.4375 C 17.390625 25.667969 26.121094 16.9375 36.890625 16.9375 Z M 36.890625 16.9375 " clip-rule="nonzero"/></clipPath><clipPath id="6ecd01e0ae"><path d="M 16.089844 15.636719 L 1396 15.636719 L 1396 445.992188 L 16.089844 445.992188 Z M 16.089844 15.636719 " clip-rule="nonzero"/></clipPath><clipPath id="4d1c7a5fc9"><path d="M 16.089844 35.136719 L 16.089844 426.785156 C 16.089844 437.554688 24.820312 446.28125 35.589844 446.28125 L 1376.410156 446.28125 C 1387.179688 446.28125 1395.910156 437.554688 1395.910156 426.785156 L 1395.910156 35.136719 C 1395.910156 24.367188 1387.179688 15.636719 1376.410156 15.636719 L 35.589844 15.636719 C 24.820312 15.636719 16.089844 24.367188 16.089844 35.136719 Z M 16.089844 35.136719 " clip-rule="nonzero"/></clipPath><clipPath id="af2574e565"><path d="M 16.089844 35.136719 L 16.089844 426.78125 C 16.089844 437.550781 24.820312 446.28125 35.589844 446.28125 L 1376.40625 446.28125 C 1387.171875 446.28125 1395.902344 437.550781 1395.902344 426.78125 L 1395.902344 35.136719 C 1395.902344 24.367188 1387.171875 15.636719 1376.40625 15.636719 L 35.589844 15.636719 C 24.820312 15.636719 16.089844 24.367188 16.089844 35.136719 Z M 16.089844 35.136719 " clip-rule="nonzero"/></clipPath><clipPath id="67de93eec5"><path d="M 135.964844 355.300781 L 197.753906 355.300781 L 197.753906 417.089844 L 135.964844 417.089844 Z M 135.964844 355.300781 " clip-rule="nonzero"/></clipPath><clipPath id="ec98955c25"><path d="M 333.976562 355.300781 L 395.765625 355.300781 L 395.765625 417.089844 L 333.976562 417.089844 Z M 333.976562 355.300781 " clip-rule="nonzero"/></clipPath><clipPath id="a6da305414"><path d="M 532.269531 355.300781 L 594.058594 355.300781 L 594.058594 417.089844 L 532.269531 417.089844 Z M 532.269531 355.300781 " clip-rule="nonzero"/></clipPath><clipPath id="7be533ae62"><rect x="0" width="1412" y="0" height="463"/></clipPath></defs><g clip-path="url(#165c1c11ed)"><path fill="#ffffff" d="M 0.0976562 0 L 1499.902344 0 L 1499.902344 599.921875 L 0.0976562 599.921875 Z M 0.0976562 0 " fill-opacity="1" fill-rule="nonzero"/><path fill="#ffffff" d="M 0.0976562 0 L 1499.902344 0 L 1499.902344 599.921875 L 0.0976562 599.921875 Z M 0.0976562 0 " fill-opacity="1" fill-rule="nonzero"/></g><g transform="matrix(1, 0, 0, 1, 44, 69)"><g clip-path="url(#7be533ae62)"><g clip-path="url(#04c3b9e5e7)"><g clip-path="url(#be86a3cf05)"><g clip-path="url(#9b05a5fe74)"><path fill="#000000" d="M 91.445312 19.566406 L 140.894531 19.566406 L 140.894531 262.433594 L 91.445312 262.433594 Z M 91.445312 19.566406 " fill-opacity="1" fill-rule="evenodd"/></g></g></g><g clip-path="url(#2ca9a791b8)"><g clip-path="url(#fcf9d146b8)"><g clip-path="url(#57479d61dd)"><path stroke-linecap="butt" transform="matrix(0.95616, 0, 0, 0.949784, -14.373634, -141.309181)" fill="none" stroke-linejoin="miter" d="M 110.670726 169.381188 L 162.387182 169.381188 L 162.387182 425.088927 L 110.670726 425.088927 Z M 110.670726 169.381188 " stroke="#000000" stroke-width="1.207" stroke-opacity="1" stroke-miterlimit="4"/></g></g></g><g clip-path="url(#34cd2c4305)"><g clip-path="url(#96bfbde7df)"><g clip-path="url(#4f0960939c)"><path fill="#000000" d="M 189.347656 19.441406 L 238.796875 19.441406 L 238.796875 262.3125 L 189.347656 262.3125 Z M 189.347656 19.441406 " fill-opacity="1" fill-rule="evenodd"/></g></g></g><g clip-path="url(#530db4e4ce)"><g clip-path="url(#7402cb3b8e)"><g clip-path="url(#a91e67fcbf)"><path stroke-linecap="butt" transform="matrix(0.95616, 0, 0, 0.949784, -14.373634, -141.309181)" fill="none" stroke-linejoin="miter" d="M 213.061874 169.249579 L 264.77833 169.249579 L 264.77833 424.961431 L 213.061874 424.961431 Z M 213.061874 169.249579 " stroke="#000000" stroke-width="1.207" stroke-opacity="1" stroke-miterlimit="4"/></g></g></g><g clip-path="url(#40d1c48b23)"><g clip-path="url(#d06f652686)"><g clip-path="url(#bc7d8dfa41)"><path fill="#000000" d="M 385.464844 18.957031 L 434.914062 18.957031 L 434.914062 261.828125 L 385.464844 261.828125 Z M 385.464844 18.957031 " fill-opacity="1" fill-rule="evenodd"/></g></g></g><g clip-path="url(#0a8a229e68)"><g clip-path="url(#2be5d76884)"><g clip-path="url(#e1af313272)"><path stroke-linecap="butt" transform="matrix(0.95616, 0, 0, 0.949784, -14.373634, -141.309181)" fill="none" stroke-linejoin="miter" d="M 418.170999 168.739595 L 469.887455 168.739595 L 469.887455 424.451446 L 418.170999 424.451446 Z M 418.170999 168.739595 " stroke="#000000" stroke-width="1.207" stroke-opacity="1" stroke-miterlimit="4"/></g></g></g><g clip-path="url(#bd3ee1158c)"><g clip-path="url(#ccc1463786)"><g clip-path="url(#a3b474f0b3)"><path fill="#000000" d="M 482.800781 19.925781 L 532.25 19.925781 L 532.25 262.796875 L 482.800781 262.796875 Z M 482.800781 19.925781 " fill-opacity="1" fill-rule="evenodd"/></g></g></g><g clip-path="url(#38491298ed)"><g clip-path="url(#aed87e89f4)"><g clip-path="url(#890223256c)"><path stroke-linecap="butt" transform="matrix(0.95616, 0, 0, 0.949784, -14.373634, -141.309181)" fill="none" stroke-linejoin="miter" d="M 519.969771 169.759563 L 571.686227 169.759563 L 571.686227 425.471415 L 519.969771 425.471415 Z M 519.969771 169.759563 " stroke="#000000" stroke-width="1.207" stroke-opacity="1" stroke-miterlimit="4"/></g></g></g><g clip-path="url(#de28aba7e5)"><g clip-path="url(#8ad5dca2e5)"><g clip-path="url(#c63b057a48)"><path fill="#000000" d="M 582.078125 19.441406 L 631.53125 19.441406 L 631.53125 262.3125 L 582.078125 262.3125 Z M 582.078125 19.441406 " fill-opacity="1" fill-rule="evenodd"/></g></g></g><g clip-path="url(#c2d768eb23)"><g clip-path="url(#fad7aa5268)"><g clip-path="url(#aaa4edb044)"><path stroke-linecap="butt" transform="matrix(0.95616, 0, 0, 0.949784, -14.373634, -141.309181)" fill="none" stroke-linejoin="miter" d="M 623.798963 169.249579 L 675.519504 169.249579 L 675.519504 424.961431 L 623.798963 424.961431 Z M 623.798963 169.249579 " stroke="#000000" stroke-width="1.207" stroke-opacity="1" stroke-miterlimit="4"/></g></g></g><g clip-path="url(#8d1f98771f)"><g clip-path="url(#24542311ab)"><g clip-path="url(#5d9486ff06)"><path stroke-linecap="butt" transform="matrix(0.95616, 0, 0, 0.949784, -14.373634, -141.309181)" fill="none" stroke-linejoin="miter" d="M 33.51479 167.949942 L 751.854285 167.949942 L 751.854285 617.089764 L 33.51479 617.089764 Z M 33.51479 167.949942 " stroke="#000000" stroke-width="2.375" stroke-opacity="1" stroke-miterlimit="4"/></g></g></g><g clip-path="url(#f83d018db6)"><g clip-path="url(#333f5e9bdf)"><g clip-path="url(#b534cabd50)"><path stroke-linecap="butt" transform="matrix(2.197362, 0, 0, 2.195677, 3.897432, 0.926792)" fill="none" stroke-linejoin="miter" d="M 50.744887 114.679763 L 50.744887 202.136754 " stroke="#000000" stroke-width="2.375" stroke-opacity="1" stroke-miterlimit="4"/></g></g></g><g clip-path="url(#77c9b9b7a5)"><g clip-path="url(#1141181254)"><g clip-path="url(#bb6c72461a)"><path stroke-linecap="butt" transform="matrix(2.197362, 0, 0, 2.195677, 3.897432, 0.926792)" fill="none" stroke-linejoin="miter" d="M 95.846899 114.259904 L 95.846899 201.715116 " stroke="#000000" stroke-width="2.375" stroke-opacity="1" stroke-miterlimit="4"/></g></g></g><g clip-path="url(#07e3aaebc7)"><g clip-path="url(#19dfd38175)"><g clip-path="url(#5007f4312e)"><path stroke-linecap="butt" transform="matrix(2.197362, 0, 0, 2.195677, 3.897432, 0.926792)" fill="none" stroke-linejoin="miter" d="M 184.959414 114.839879 L 184.959414 202.29687 " stroke="#000000" stroke-width="2.375" stroke-opacity="1" stroke-miterlimit="4"/></g></g></g><g clip-path="url(#9ea31c9d77)"><g clip-path="url(#ed78c188ed)"><g clip-path="url(#4fbef117eb)"><path stroke-linecap="butt" transform="matrix(2.197362, 0, 0, 2.195677, 3.897432, 0.926792)" fill="none" stroke-linejoin="miter" d="M 229.27035 114.839879 L 229.27035 202.29687 " stroke="#000000" stroke-width="2.375" stroke-opacity="1" stroke-miterlimit="4"/></g></g></g><g clip-path="url(#5348777df7)"><g clip-path="url(#f10caf09e5)"><g clip-path="url(#e95f417f9c)"><path stroke-linecap="butt" transform="matrix(2.197362, 0, 0, 2.195677, 3.897432, 0.926792)" fill="none" stroke-linejoin="miter" d="M 274.690569 114.519647 L 274.690569 201.976638 " stroke="#000000" stroke-width="2.375" stroke-opacity="1" stroke-miterlimit="4"/></g></g></g><g clip-path="url(#988212e857)"><g clip-path="url(#1d499c8981)"><g clip-path="url(#17ed5c5b4c)"><path stroke-linecap="butt" transform="matrix(2.197362, 0, 0, 2.195677, 3.897432, 0.926792)" fill="none" stroke-linejoin="miter" d="M 140.349825 8.069373 L 140.349825 201.948173 " stroke="#000000" stroke-width="2.375" stroke-opacity="1" stroke-miterlimit="4"/></g></g></g><g clip-path="url(#27c06e1b4c)"><g clip-path="url(#1c94f26b48)"><g clip-path="url(#eb00c3092e)"><path fill="#000000" d="M 98.027344 28.519531 L 139.066406 28.519531 L 139.066406 254.960938 L 98.027344 254.960938 Z M 98.027344 28.519531 " fill-opacity="1" fill-rule="nonzero"/></g></g></g><g clip-path="url(#642872c9f6)"><g clip-path="url(#fcc4369169)"><g clip-path="url(#705036316f)"><path stroke-linecap="butt" transform="matrix(2.197362, 0, 0, 2.195677, 3.897432, 0.926792)" fill="none" stroke-linejoin="miter" d="M 42.83768 12.566846 L 61.51419 12.566846 L 61.51419 115.697387 L 42.83768 115.697387 Z M 42.83768 12.566846 " stroke="#000000" stroke-width="5" stroke-opacity="1" stroke-miterlimit="4"/></g></g></g><g clip-path="url(#c86ac04112)"><g clip-path="url(#955bcf0f6a)"><g clip-path="url(#43e6662595)"><path fill="#000000" d="M 781.226562 18.066406 L 830.679688 18.066406 L 830.679688 260.933594 L 781.226562 260.933594 Z M 781.226562 18.066406 " fill-opacity="1" fill-rule="evenodd"/></g></g></g><g clip-path="url(#fce67f5444)"><g clip-path="url(#74b070ef6a)"><g clip-path="url(#c5aee74690)"><path stroke-linecap="butt" transform="matrix(0.95616, 0, 0, 0.949784, -14.373634, -141.309181)" fill="none" stroke-linejoin="miter" d="M 832.078319 167.801882 L 883.798861 167.801882 L 883.798861 423.509621 L 832.078319 423.509621 Z M 832.078319 167.801882 " stroke="#000000" stroke-width="1.207" stroke-opacity="1" stroke-miterlimit="4"/></g></g></g><g clip-path="url(#9d91a814ef)"><g clip-path="url(#a77008379b)"><g clip-path="url(#db54368200)"><path fill="#000000" d="M 879.128906 17.941406 L 928.582031 17.941406 L 928.582031 260.808594 L 879.128906 260.808594 Z M 879.128906 17.941406 " fill-opacity="1" fill-rule="evenodd"/></g></g></g><g clip-path="url(#e0bf91e5a7)"><g clip-path="url(#8ebb2dc6a1)"><g clip-path="url(#f7d900ccb3)"><path stroke-linecap="butt" transform="matrix(0.95616, 0, 0, 0.949784, -14.373634, -141.309181)" fill="none" stroke-linejoin="miter" d="M 934.469468 167.670273 L 986.190009 167.670273 L 986.190009 423.378012 L 934.469468 423.378012 Z M 934.469468 167.670273 " stroke="#000000" stroke-width="1.207" stroke-opacity="1" stroke-miterlimit="4"/></g></g></g><g clip-path="url(#e05a6b50af)"><g clip-path="url(#f4a4349670)"><g clip-path="url(#160e0d1244)"><path fill="#000000" d="M 1075.265625 17.464844 L 1124.71875 17.464844 L 1124.71875 260.335938 L 1075.265625 260.335938 Z M 1075.265625 17.464844 " fill-opacity="1" fill-rule="evenodd"/></g></g></g><g clip-path="url(#d913847591)"><g clip-path="url(#4f95ddaf56)"><g clip-path="url(#fb1d7e0906)"><path stroke-linecap="butt" transform="matrix(0.95616, 0, 0, 0.949784, -14.373634, -141.309181)" fill="none" stroke-linejoin="miter" d="M 1139.599019 167.168514 L 1191.319561 167.168514 L 1191.319561 422.880366 L 1139.599019 422.880366 Z M 1139.599019 167.168514 " stroke="#000000" stroke-width="1.207" stroke-opacity="1" stroke-miterlimit="4"/></g></g></g><g clip-path="url(#c94df0134c)"><g clip-path="url(#4809d0c798)"><g clip-path="url(#8e650b4c36)"><path fill="#000000" d="M 1172.605469 18.425781 L 1222.054688 18.425781 L 1222.054688 261.292969 L 1172.605469 261.292969 Z M 1172.605469 18.425781 " fill-opacity="1" fill-rule="evenodd"/></g></g></g><g clip-path="url(#e291d4fc43)"><g clip-path="url(#3989f70701)"><g clip-path="url(#d67f5f4d9f)"><path stroke-linecap="butt" transform="matrix(0.95616, 0, 0, 0.949784, -14.373634, -141.309181)" fill="none" stroke-linejoin="miter" d="M 1241.401877 168.180257 L 1293.118333 168.180257 L 1293.118333 423.887996 L 1241.401877 423.887996 Z M 1241.401877 168.180257 " stroke="#000000" stroke-width="1.207" stroke-opacity="1" stroke-miterlimit="4"/></g></g></g><g clip-path="url(#77409f1cbc)"><g clip-path="url(#52629ed8b4)"><g clip-path="url(#c25f6d66a6)"><path fill="#000000" d="M 1271.851562 17.941406 L 1321.304688 17.941406 L 1321.304688 260.808594 L 1271.851562 260.808594 Z M 1271.851562 17.941406 " fill-opacity="1" fill-rule="evenodd"/></g></g></g><g clip-path="url(#7256dc20f4)"><g clip-path="url(#36fd0fc533)"><g clip-path="url(#f38c0a2673)"><path stroke-linecap="butt" transform="matrix(0.95616, 0, 0, 0.949784, -14.373634, -141.309181)" fill="none" stroke-linejoin="miter" d="M 1345.198386 167.670273 L 1396.918927 167.670273 L 1396.918927 423.378012 L 1345.198386 423.378012 Z M 1345.198386 167.670273 " stroke="#000000" stroke-width="1.207" stroke-opacity="1" stroke-miterlimit="4"/></g></g></g><g clip-path="url(#48e61f8c02)"><g clip-path="url(#3795a064d8)"><g clip-path="url(#36de7bb26c)"><path stroke-linecap="butt" transform="matrix(0.95616, 0, 0, 0.949784, -14.373634, -141.309181)" fill="none" stroke-linejoin="miter" d="M 754.918298 166.370636 L 1473.261879 166.370636 L 1473.261879 615.510458 L 754.918298 615.510458 Z M 754.918298 166.370636 " stroke="#000000" stroke-width="2.375" stroke-opacity="1" stroke-miterlimit="4"/></g></g></g><g clip-path="url(#ea38e799ac)"><g clip-path="url(#71615794dd)"><g clip-path="url(#e7185b1fc9)"><path stroke-linecap="butt" transform="matrix(2.197362, 0, 0, 2.195677, 3.897432, 0.926792)" fill="none" stroke-linejoin="miter" d="M 364.659936 114.000161 L 364.659936 201.455373 " stroke="#000000" stroke-width="2.375" stroke-opacity="1" stroke-miterlimit="4"/></g></g></g><g clip-path="url(#7f6a29e0f7)"><g clip-path="url(#f22490757c)"><g clip-path="url(#4b79057f8b)"><path stroke-linecap="butt" transform="matrix(2.197362, 0, 0, 2.195677, 3.897432, 0.926792)" fill="none" stroke-linejoin="miter" d="M 409.76017 113.580302 L 409.76017 201.035514 " stroke="#000000" stroke-width="2.375" stroke-opacity="1" stroke-miterlimit="4"/></g></g></g><g clip-path="url(#26b8b768a4)"><g clip-path="url(#88ca61bd96)"><g clip-path="url(#35bfafeb9e)"><path stroke-linecap="butt" transform="matrix(2.197362, 0, 0, 2.195677, 3.897432, 0.926792)" fill="none" stroke-linejoin="miter" d="M 498.869131 114.149602 L 498.869131 201.606593 " stroke="#000000" stroke-width="2.375" stroke-opacity="1" stroke-miterlimit="4"/></g></g></g><g clip-path="url(#fa0ce66609)"><g clip-path="url(#b75455bf8b)"><g clip-path="url(#035576b047)"><path stroke-linecap="butt" transform="matrix(2.197362, 0, 0, 2.195677, 3.897432, 0.926792)" fill="none" stroke-linejoin="miter" d="M 543.190732 114.149602 L 543.190732 201.606593 " stroke="#000000" stroke-width="2.375" stroke-opacity="1" stroke-miterlimit="4"/></g></g></g><g clip-path="url(#9a1295bd79)"><g clip-path="url(#fcafb5a5b6)"><g clip-path="url(#d4fe3e468c)"><path stroke-linecap="butt" transform="matrix(2.197362, 0, 0, 2.195677, 3.897432, 0.926792)" fill="none" stroke-linejoin="miter" d="M 588.600286 113.840045 L 588.600286 201.295257 " stroke="#000000" stroke-width="2.375" stroke-opacity="1" stroke-miterlimit="4"/></g></g></g><g clip-path="url(#b1c2784fb1)"><g clip-path="url(#2ff69f5348)"><g clip-path="url(#d9318850ac)"><path stroke-linecap="butt" transform="matrix(2.197362, 0, 0, 2.195677, 3.897432, 0.926792)" fill="none" stroke-linejoin="miter" d="M 454.259542 7.386212 L 454.259542 201.266792 " stroke="#000000" stroke-width="2.375" stroke-opacity="1" stroke-miterlimit="4"/></g></g></g><g clip-path="url(#eb00fad079)"><g clip-path="url(#2a67e93a20)"><g clip-path="url(#3911cb09e4)"><path fill="#000000" d="M 195.269531 25.847656 L 236.308594 25.847656 L 236.308594 252.289062 L 195.269531 252.289062 Z M 195.269531 25.847656 " fill-opacity="1" fill-rule="nonzero"/></g></g></g><g clip-path="url(#bc5b5eae56)"><g clip-path="url(#b00eb72da3)"><g clip-path="url(#90a036a892)"><path stroke-linecap="butt" transform="matrix(2.197362, 0, 0, 2.195677, 3.897432, 0.926792)" fill="none" stroke-linejoin="miter" d="M 87.091729 11.349966 L 105.768239 11.349966 L 105.768239 114.480508 L 87.091729 114.480508 Z M 87.091729 11.349966 " stroke="#000000" stroke-width="5" stroke-opacity="1" stroke-miterlimit="4"/></g></g></g><g clip-path="url(#efd50ce7b3)"><g clip-path="url(#5ae7e94f15)"><g clip-path="url(#17dfb12fbd)"><path fill="#000000" d="M 391.554688 25.847656 L 432.597656 25.847656 L 432.597656 252.289062 L 391.554688 252.289062 Z M 391.554688 25.847656 " fill-opacity="1" fill-rule="nonzero"/></g></g></g><g clip-path="url(#2037a09d06)"><g clip-path="url(#d4b9c8e753)"><g clip-path="url(#77e0086316)"><path stroke-linecap="butt" transform="matrix(2.197362, 0, 0, 2.195677, 3.897432, 0.926792)" fill="none" stroke-linejoin="miter" d="M 176.419346 11.349966 L 195.097634 11.349966 L 195.097634 114.480508 L 176.419346 114.480508 Z M 176.419346 11.349966 " stroke="#000000" stroke-width="5" stroke-opacity="1" stroke-miterlimit="4"/></g></g></g><g clip-path="url(#fa8e84cfb5)"><g clip-path="url(#1d7274c79d)"><g clip-path="url(#215afae0b9)"><path fill="#000000" d="M 487.910156 27.628906 L 528.949219 27.628906 L 528.949219 254.070312 L 487.910156 254.070312 Z M 487.910156 27.628906 " fill-opacity="1" fill-rule="nonzero"/></g></g></g><g clip-path="url(#3d40f05246)"><g clip-path="url(#535c1dba1a)"><g clip-path="url(#43062a7fff)"><path stroke-linecap="butt" transform="matrix(2.197362, 0, 0, 2.195677, 3.897432, 0.926792)" fill="none" stroke-linejoin="miter" d="M 220.269858 12.161219 L 238.946367 12.161219 L 238.946367 115.291761 L 220.269858 115.291761 Z M 220.269858 12.161219 " stroke="#000000" stroke-width="5" stroke-opacity="1" stroke-miterlimit="4"/></g></g></g><g clip-path="url(#27acd42497)"><g clip-path="url(#715063bf1c)"><g clip-path="url(#08114844ec)"><path fill="#000000" d="M 587.824219 27.628906 L 628.863281 27.628906 L 628.863281 254.070312 L 587.824219 254.070312 Z M 587.824219 27.628906 " fill-opacity="1" fill-rule="nonzero"/></g></g></g><g clip-path="url(#d0630dc707)"><g clip-path="url(#9902b00f28)"><g clip-path="url(#f09637c0f2)"><path stroke-linecap="butt" transform="matrix(2.197362, 0, 0, 2.195677, 3.897432, 0.926792)" fill="none" stroke-linejoin="miter" d="M 265.739853 12.161219 L 284.416363 12.161219 L 284.416363 115.291761 L 265.739853 115.291761 Z M 265.739853 12.161219 " stroke="#000000" stroke-width="5" stroke-opacity="1" stroke-miterlimit="4"/></g></g></g><g clip-path="url(#a603cf5be8)"><g clip-path="url(#ecd6afddd7)"><g clip-path="url(#6dd4fb8a38)"><path fill="#000000" d="M 785.894531 24.066406 L 826.933594 24.066406 L 826.933594 250.503906 L 785.894531 250.503906 Z M 785.894531 24.066406 " fill-opacity="1" fill-rule="nonzero"/></g></g></g><g clip-path="url(#66fc8885a1)"><g clip-path="url(#151be7d4ec)"><g clip-path="url(#e51470aeaa)"><path stroke-linecap="butt" transform="matrix(2.197362, 0, 0, 2.195677, 3.897432, 0.926792)" fill="none" stroke-linejoin="miter" d="M 355.879879 10.538713 L 374.556389 10.538713 L 374.556389 113.667476 L 355.879879 113.667476 Z M 355.879879 10.538713 " stroke="#000000" stroke-width="5" stroke-opacity="1" stroke-miterlimit="4"/></g></g></g><g clip-path="url(#e25902e12b)"><g clip-path="url(#bdd52a57bd)"><g clip-path="url(#5e0f8a1ada)"><path fill="#000000" d="M 885.832031 24.066406 L 926.871094 24.066406 L 926.871094 250.503906 L 885.832031 250.503906 Z M 885.832031 24.066406 " fill-opacity="1" fill-rule="nonzero"/></g></g></g><g clip-path="url(#1115aae267)"><g clip-path="url(#ce97c850ea)"><g clip-path="url(#66fcc948fb)"><path stroke-linecap="butt" transform="matrix(2.197362, 0, 0, 2.195677, 3.897432, 0.926792)" fill="none" stroke-linejoin="miter" d="M 401.36054 10.538713 L 420.03705 10.538713 L 420.03705 113.667476 L 401.36054 113.667476 Z M 401.36054 10.538713 " stroke="#000000" stroke-width="5" stroke-opacity="1" stroke-miterlimit="4"/></g></g></g><g clip-path="url(#aacc832413)"><g clip-path="url(#aaac766bcb)"><g clip-path="url(#de990e8ae5)"><path fill="#000000" d="M 1082.097656 29.414062 L 1123.140625 29.414062 L 1123.140625 255.855469 L 1082.097656 255.855469 Z M 1082.097656 29.414062 " fill-opacity="1" fill-rule="nonzero"/></g></g></g><g clip-path="url(#75f118b5d7)"><g clip-path="url(#fb2a77889b)"><g clip-path="url(#ee5d2e9bda)"><path stroke-linecap="butt" transform="matrix(2.197362, 0, 0, 2.195677, 3.897432, 0.926792)" fill="none" stroke-linejoin="miter" d="M 490.679269 12.974251 L 509.357557 12.974251 L 509.357557 116.104793 L 490.679269 116.104793 Z M 490.679269 12.974251 " stroke="#000000" stroke-width="5" stroke-opacity="1" stroke-miterlimit="4"/></g></g></g><g clip-path="url(#7fdac52867)"><g clip-path="url(#305c4dbf18)"><g clip-path="url(#928a4b4fa9)"><path fill="#000000" d="M 1178.453125 31.195312 L 1219.492188 31.195312 L 1219.492188 257.636719 L 1178.453125 257.636719 Z M 1178.453125 31.195312 " fill-opacity="1" fill-rule="nonzero"/></g></g></g><g clip-path="url(#9ac6837f20)"><g clip-path="url(#4b4c1315d1)"><g clip-path="url(#ee3349b94e)"><path stroke-linecap="butt" transform="matrix(2.197362, 0, 0, 2.195677, 3.897432, 0.926792)" fill="none" stroke-linejoin="miter" d="M 534.529781 13.785504 L 553.20629 13.785504 L 553.20629 116.916046 L 534.529781 116.916046 Z M 534.529781 13.785504 " stroke="#000000" stroke-width="5" stroke-opacity="1" stroke-miterlimit="4"/></g></g></g><g clip-path="url(#98738ea53f)"><g clip-path="url(#403e3eee33)"><g clip-path="url(#7fafdb307e)"><path fill="#000000" d="M 1276.609375 29.414062 L 1317.648438 29.414062 L 1317.648438 255.855469 L 1276.609375 255.855469 Z M 1276.609375 29.414062 " fill-opacity="1" fill-rule="nonzero"/></g></g></g><g clip-path="url(#cbb761ac6e)"><g clip-path="url(#84025925c5)"><g clip-path="url(#fb01402ab0)"><path stroke-linecap="butt" transform="matrix(2.197362, 0, 0, 2.195677, 3.897432, 0.926792)" fill="none" stroke-linejoin="miter" d="M 579.199811 12.974251 L 597.876321 12.974251 L 597.876321 116.104793 L 579.199811 116.104793 Z M 579.199811 12.974251 " stroke="#000000" stroke-width="5" stroke-opacity="1" stroke-miterlimit="4"/></g></g></g><g clip-path="url(#6ecd01e0ae)"><g clip-path="url(#4d1c7a5fc9)"><g clip-path="url(#af2574e565)"><path stroke-linecap="butt" transform="matrix(1.084012, 0, 0, 1.084012, 16.090791, 15.638559)" fill="none" stroke-linejoin="miter" d="M -0.000873444 17.98703 L -0.000873444 379.278663 C -0.000873444 389.213543 8.052974 397.267391 17.987854 397.267391 L 1254.889457 397.267391 C 1264.820734 397.267391 1272.874581 389.213543 1272.874581 379.278663 L 1272.874581 17.98703 C 1272.874581 8.05215 1264.820734 -0.00169725 1254.889457 -0.00169725 L 17.987854 -0.00169725 C 8.052974 -0.00169725 -0.000873444 8.05215 -0.000873444 17.98703 Z M -0.000873444 17.98703 " stroke="#000000" stroke-width="6.91783" stroke-opacity="1" stroke-miterlimit="4"/></g></g></g><g clip-path="url(#67de93eec5)"><path fill="#000000" d="M 166.859375 355.300781 C 149.789062 355.300781 135.964844 369.128906 135.964844 386.195312 C 135.964844 403.265625 149.789062 417.089844 166.859375 417.089844 C 183.929688 417.089844 197.753906 403.265625 197.753906 386.195312 C 197.753906 369.128906 183.929688 355.300781 166.859375 355.300781 Z M 166.859375 355.300781 " fill-opacity="1" fill-rule="nonzero"/></g><g clip-path="url(#ec98955c25)"><path fill="#000000" d="M 364.871094 355.300781 C 347.800781 355.300781 333.976562 369.128906 333.976562 386.195312 C 333.976562 403.265625 347.800781 417.089844 364.871094 417.089844 C 381.9375 417.089844 395.765625 403.265625 395.765625 386.195312 C 395.765625 369.128906 381.9375 355.300781 364.871094 355.300781 Z M 364.871094 355.300781 " fill-opacity="1" fill-rule="nonzero"/></g><g clip-path="url(#a6da305414)"><path fill="#000000" d="M 563.164062 355.300781 C 546.097656 355.300781 532.269531 369.128906 532.269531 386.195312 C 532.269531 403.265625 546.097656 417.089844 563.164062 417.089844 C 580.234375 417.089844 594.058594 403.265625 594.058594 386.195312 C 594.058594 369.128906 580.234375 355.300781 563.164062 355.300781 Z M 563.164062 355.300781 " fill-opacity="1" fill-rule="nonzero"/></g></g></g></svg>