<svg xmlns="http://www.w3.org/2000/svg" xmlns:xlink="http://www.w3.org/1999/xlink" width="2000" zoomAndPan="magnify" viewBox="0 0 1500 1499.999933" height="2000" preserveAspectRatio="xMidYMid meet" version="1.0"><defs><g/><clipPath id="f796b2c4e8"><path d="M 394.183594 56.824219 L 1106 56.824219 L 1106 253.75 L 394.183594 253.75 Z M 394.183594 56.824219 " clip-rule="nonzero"/></clipPath><clipPath id="a9e4a17f9e"><path d="M 415.183594 56.824219 L 1084.816406 56.824219 C 1096.414062 56.824219 1105.816406 66.226562 1105.816406 77.824219 L 1105.816406 232.75 C 1105.816406 244.347656 1096.414062 253.75 1084.816406 253.75 L 415.183594 253.75 C 403.585938 253.75 394.183594 244.347656 394.183594 232.75 L 394.183594 77.824219 C 394.183594 66.226562 403.585938 56.824219 415.183594 56.824219 Z M 415.183594 56.824219 " clip-rule="nonzero"/></clipPath><clipPath id="9694db917e"><path d="M 0.183594 0.824219 L 711.921875 0.824219 L 711.921875 197.75 L 0.183594 197.75 Z M 0.183594 0.824219 " clip-rule="nonzero"/></clipPath><clipPath id="c3a392cdd9"><path d="M 21.183594 0.824219 L 690.816406 0.824219 C 702.414062 0.824219 711.816406 10.226562 711.816406 21.824219 L 711.816406 176.75 C 711.816406 188.347656 702.414062 197.75 690.816406 197.75 L 21.183594 197.75 C 9.585938 197.75 0.183594 188.347656 0.183594 176.75 L 0.183594 21.824219 C 0.183594 10.226562 9.585938 0.824219 21.183594 0.824219 Z M 21.183594 0.824219 " clip-rule="nonzero"/></clipPath><clipPath id="f61f9d6ab7"><rect x="0" width="712" y="0" height="198"/></clipPath><clipPath id="42e864aa35"><path d="M 394.183594 217.839844 L 1105.816406 217.839844 L 1105.816406 253.75 L 394.183594 253.75 Z M 394.183594 217.839844 " clip-rule="nonzero"/></clipPath><clipPath id="3276286379"><path d="M 0.183594 0.839844 L 711.816406 0.839844 L 711.816406 36.75 L 0.183594 36.75 Z M 0.183594 0.839844 " clip-rule="nonzero"/></clipPath><clipPath id="b1c62a6ccc"><rect x="0" width="712" y="0" height="37"/></clipPath><clipPath id="4a0e026fcc"><path d="M 0.171875 21 L 711.921875 21 L 711.921875 1232 L 0.171875 1232 Z M 0.171875 21 " clip-rule="nonzero"/></clipPath><clipPath id="5e88512a5a"><path d="M 711.804688 38.464844 L 711.804688 1213.921875 C 711.804688 1218.496094 709.988281 1222.882812 706.753906 1226.121094 C 703.515625 1229.355469 699.128906 1231.171875 694.554688 1231.171875 L 17.421875 1231.171875 C 12.847656 1231.171875 8.460938 1229.355469 5.222656 1226.121094 C 1.988281 1222.882812 0.171875 1218.496094 0.171875 1213.921875 L 0.171875 38.464844 C 0.171875 33.890625 1.988281 29.503906 5.222656 26.265625 C 8.460938 23.03125 12.847656 21.214844 17.421875 21.214844 L 694.554688 21.214844 C 699.128906 21.214844 703.515625 23.03125 706.753906 26.265625 C 709.988281 29.503906 711.804688 33.890625 711.804688 38.464844 Z M 711.804688 38.464844 " clip-rule="nonzero"/></clipPath><clipPath id="8b5464b461"><path d="M 0.171875 0.0390625 L 711.921875 0.0390625 L 711.921875 1210 L 0.171875 1210 Z M 0.171875 0.0390625 " clip-rule="nonzero"/></clipPath><clipPath id="92ee392472"><path d="M 711.804688 17.464844 L 711.804688 1192.921875 C 711.804688 1197.496094 709.988281 1201.882812 706.753906 1205.121094 C 703.515625 1208.355469 699.128906 1210.171875 694.554688 1210.171875 L 17.421875 1210.171875 C 12.847656 1210.171875 8.460938 1208.355469 5.222656 1205.121094 C 1.988281 1201.882812 0.171875 1197.496094 0.171875 1192.921875 L 0.171875 17.464844 C 0.171875 12.890625 1.988281 8.503906 5.222656 5.265625 C 8.460938 2.03125 12.847656 0.214844 17.421875 0.214844 L 694.554688 0.214844 C 699.128906 0.214844 703.515625 2.03125 706.753906 5.265625 C 709.988281 8.503906 711.804688 12.890625 711.804688 17.464844 Z M 711.804688 17.464844 " clip-rule="nonzero"/></clipPath><clipPath id="fd7fc75f20"><rect x="0" width="712" y="0" height="1211"/></clipPath><clipPath id="31aa9a5ddf"><path d="M 253 1 L 265 1 L 265 1236.640625 L 253 1236.640625 Z M 253 1 " clip-rule="nonzero"/></clipPath><clipPath id="83b14d0786"><path d="M 410 1 L 422 1 L 422 1236.640625 L 410 1236.640625 Z M 410 1 " clip-rule="nonzero"/></clipPath><clipPath id="3dcaa42957"><path d="M 567 1 L 579 1 L 579 1236.640625 L 567 1236.640625 Z M 567 1 " clip-rule="nonzero"/></clipPath><clipPath id="107e5088b1"><rect x="0" width="712" y="0" height="1237"/></clipPath><clipPath id="4cebe5c5be"><path d="M 744.816406 17.242188 L 777.585938 17.242188 L 777.585938 350.039062 L 744.816406 350.039062 Z M 744.816406 17.242188 " clip-rule="nonzero"/></clipPath><clipPath id="4f87cacabc"><path d="M 0.816406 0.242188 L 33.585938 0.242188 L 33.585938 333.039062 L 0.816406 333.039062 Z M 0.816406 0.242188 " clip-rule="nonzero"/></clipPath><clipPath id="d135367a55"><rect x="0" width="34" y="0" height="334"/></clipPath><clipPath id="b4ddaa99b4"><path d="M 0.414062 1 L 133 1 L 133 88.578125 L 0.414062 88.578125 Z M 0.414062 1 " clip-rule="nonzero"/></clipPath><clipPath id="85c690b0c8"><path d="M 33.183594 0.992188 L 744.816406 0.992188 L 744.816406 366.292969 L 33.183594 366.292969 Z M 33.183594 0.992188 " clip-rule="nonzero"/></clipPath><clipPath id="66719befe3"><path d="M 0.183594 0.992188 L 711.816406 0.992188 L 711.816406 366.292969 L 0.183594 366.292969 Z M 0.183594 0.992188 " clip-rule="nonzero"/></clipPath><clipPath id="8946a358f2"><rect x="0" width="712" y="0" height="367"/></clipPath><clipPath id="c39cdced36"><path d="M 0.414062 21.90625 L 33.183594 21.90625 L 33.183594 354.703125 L 0.414062 354.703125 Z M 0.414062 21.90625 " clip-rule="nonzero"/></clipPath><clipPath id="d919ad9485"><path d="M 0.414062 0.90625 L 33.183594 0.90625 L 33.183594 333.703125 L 0.414062 333.703125 Z M 0.414062 0.90625 " clip-rule="nonzero"/></clipPath><clipPath id="49a77ccead"><rect x="0" width="34" y="0" height="334"/></clipPath><clipPath id="7b6dbfd707"><path d="M 645.386719 1 L 777.800781 1 L 777.800781 88.578125 L 645.386719 88.578125 Z M 645.386719 1 " clip-rule="nonzero"/></clipPath><clipPath id="b00f6fcb05"><path d="M 0.199219 278.691406 L 132.601562 278.691406 L 132.601562 366.277344 L 0.199219 366.277344 Z M 0.199219 278.691406 " clip-rule="nonzero"/></clipPath><clipPath id="b060b736f2"><path d="M 645 278.691406 L 777.574219 278.691406 L 777.574219 366.277344 L 645 366.277344 Z M 645 278.691406 " clip-rule="nonzero"/></clipPath><clipPath id="ffbb651bd7"><path d="M 604.484375 179.925781 L 627.382812 179.925781 L 627.382812 202.824219 L 604.484375 202.824219 Z M 604.484375 179.925781 " clip-rule="nonzero"/></clipPath><clipPath id="757877f8b4"><path d="M 615.933594 179.925781 C 609.609375 179.925781 604.484375 185.050781 604.484375 191.375 C 604.484375 197.699219 609.609375 202.824219 615.933594 202.824219 C 622.253906 202.824219 627.382812 197.699219 627.382812 191.375 C 627.382812 185.050781 622.253906 179.925781 615.933594 179.925781 Z M 615.933594 179.925781 " clip-rule="nonzero"/></clipPath><clipPath id="d1da24e925"><path d="M 0.484375 0.925781 L 23.382812 0.925781 L 23.382812 23.824219 L 0.484375 23.824219 Z M 0.484375 0.925781 " clip-rule="nonzero"/></clipPath><clipPath id="f0971b1cef"><path d="M 11.933594 0.925781 C 5.609375 0.925781 0.484375 6.050781 0.484375 12.375 C 0.484375 18.699219 5.609375 23.824219 11.933594 23.824219 C 18.253906 23.824219 23.382812 18.699219 23.382812 12.375 C 23.382812 6.050781 18.253906 0.925781 11.933594 0.925781 Z M 11.933594 0.925781 " clip-rule="nonzero"/></clipPath><clipPath id="30754a9705"><rect x="0" width="24" y="0" height="24"/></clipPath><clipPath id="ca9acfd40b"><rect x="0" width="778" y="0" height="367"/></clipPath></defs><g clip-path="url(#f796b2c4e8)"><g clip-path="url(#a9e4a17f9e)"><g transform="matrix(1, 0, 0, 1, 394, 56)"><g clip-path="url(#f61f9d6ab7)"><g clip-path="url(#9694db917e)"><g clip-path="url(#c3a392cdd9)"><path fill="#de0f3f" d="M 0.183594 0.824219 L 711.738281 0.824219 L 711.738281 197.75 L 0.183594 197.75 Z M 0.183594 0.824219 " fill-opacity="1" fill-rule="nonzero"/></g></g></g></g></g></g><g clip-path="url(#42e864aa35)"><g transform="matrix(1, 0, 0, 1, 394, 217)"><g clip-path="url(#b1c62a6ccc)"><g clip-path="url(#3276286379)"><path fill="#d2b48c" d="M 0.183594 0.839844 L 711.792969 0.839844 L 711.792969 36.75 L 0.183594 36.75 Z M 0.183594 0.839844 " fill-opacity="1" fill-rule="nonzero"/></g></g></g></g><g transform="matrix(1, 0, 0, 1, 394, 212)"><g clip-path="url(#107e5088b1)"><g clip-path="url(#4a0e026fcc)"><g clip-path="url(#5e88512a5a)"><g transform="matrix(1, 0, 0, 1, 0, 21)"><g clip-path="url(#fd7fc75f20)"><g clip-path="url(#8b5464b461)"><g clip-path="url(#92ee392472)"><path fill="#d2b48c" d="M 711.804688 0.214844 L 711.804688 1209.433594 L 0.171875 1209.433594 L 0.171875 0.214844 Z M 711.804688 0.214844 " fill-opacity="1" fill-rule="nonzero"/></g></g></g></g></g></g><g clip-path="url(#31aa9a5ddf)"><path stroke-linecap="butt" transform="matrix(0.00000000231616, -1.327062, 1.327062, 0.00000000231616, 253.492908, 1231.169536)" fill="none" stroke-linejoin="miter" d="M 0.00118077 3.999716 L 922.698172 3.999715 " stroke="#ffffff" stroke-width="8" stroke-opacity="1" stroke-miterlimit="4"/></g><g clip-path="url(#83b14d0786)"><path stroke-linecap="butt" transform="matrix(0, -1.327062, 1.327062, 0, 410.5739, 1231.169536)" fill="none" stroke-linejoin="miter" d="M 0.00118076 4.000499 L 922.698172 4.000499 " stroke="#ffffff" stroke-width="8" stroke-opacity="1" stroke-miterlimit="4"/></g><g clip-path="url(#3dcaa42957)"><path stroke-linecap="butt" transform="matrix(0, -1.327062, 1.327062, 0, 567.654871, 1231.169536)" fill="none" stroke-linejoin="miter" d="M 0.00118076 4.001299 L 922.698172 4.001299 " stroke="#ffffff" stroke-width="8" stroke-opacity="1" stroke-miterlimit="4"/></g></g></g><path stroke-linecap="butt" transform="matrix(0, -0.75, 0.75, 0, 515.234869, 1443.170712)" fill="none" stroke-linejoin="miter" d="M -0.00155107 6.499342 L 1633.77984 6.499342 " stroke="#ffffff" stroke-width="13" stroke-opacity="1" stroke-miterlimit="4"/><g transform="matrix(1, 0, 0, 1, 361, 894)"><g clip-path="url(#ca9acfd40b)"><g clip-path="url(#4cebe5c5be)"><g transform="matrix(1, 0, 0, 1, 744, 17)"><g clip-path="url(#d135367a55)"><g clip-path="url(#4f87cacabc)"><path fill="#de0f3f" d="M 0.816406 0.242188 L 33.585938 0.242188 L 33.585938 333.050781 L 0.816406 333.050781 Z M 0.816406 0.242188 " fill-opacity="1" fill-rule="nonzero"/></g></g></g></g><g clip-path="url(#b4ddaa99b4)"><path fill="#de0f3f" d="M 115.09375 1 C 124.765625 1 132.601562 8.835938 132.601562 18.507812 L 132.601562 88.546875 L 0.414062 88.546875 L 0.414062 18.507812 C 0.414062 8.835938 8.25 1 17.925781 1 Z M 115.09375 1 " fill-opacity="1" fill-rule="nonzero"/></g><g clip-path="url(#85c690b0c8)"><g transform="matrix(1, 0, 0, 1, 33, 0.000000000000113687)"><g clip-path="url(#8946a358f2)"><g clip-path="url(#66719befe3)"><path fill="#de0f3f" d="M 0.183594 0.992188 L 712.238281 0.992188 L 712.238281 366.292969 L 0.183594 366.292969 Z M 0.183594 0.992188 " fill-opacity="1" fill-rule="nonzero"/></g></g></g></g><g clip-path="url(#c39cdced36)"><g transform="matrix(1, 0, 0, 1, 0, 21)"><g clip-path="url(#49a77ccead)"><g clip-path="url(#d919ad9485)"><path fill="#de0f3f" d="M 0.414062 0.90625 L 33.183594 0.90625 L 33.183594 333.714844 L 0.414062 333.714844 Z M 0.414062 0.90625 " fill-opacity="1" fill-rule="nonzero"/></g></g></g></g><g clip-path="url(#7b6dbfd707)"><path fill="#de0f3f" d="M 760.066406 1 C 769.738281 1 777.574219 8.835938 777.574219 18.507812 L 777.574219 88.546875 L 645.386719 88.546875 L 645.386719 18.507812 C 645.386719 8.835938 653.222656 1 662.894531 1 Z M 760.066406 1 " fill-opacity="1" fill-rule="nonzero"/></g><g clip-path="url(#b00f6fcb05)"><path fill="#de0f3f" d="M 17.925781 366.265625 C 8.25 366.265625 0.414062 358.429688 0.414062 348.757812 L 0.414062 278.71875 L 132.601562 278.71875 L 132.601562 348.757812 C 132.601562 358.429688 124.765625 366.265625 115.09375 366.265625 Z M 17.925781 366.265625 " fill-opacity="1" fill-rule="nonzero"/></g><g clip-path="url(#b060b736f2)"><path fill="#de0f3f" d="M 662.894531 366.265625 C 653.222656 366.265625 645.386719 358.429688 645.386719 348.757812 L 645.386719 278.71875 L 777.574219 278.71875 L 777.574219 348.757812 C 777.574219 358.429688 769.738281 366.265625 760.066406 366.265625 Z M 662.894531 366.265625 " fill-opacity="1" fill-rule="nonzero"/></g><g fill="#ffffff" fill-opacity="1"><g transform="translate(116.000791, 234.733495)"><g><path d="M 70.46875 -66.421875 L 47.734375 -66.421875 L 47.734375 0 L 26.765625 0 L 26.765625 -66.421875 L 4.03125 -66.421875 L 4.03125 -87.40625 L 70.46875 -87.40625 Z M 70.46875 -66.421875 "/></g></g></g><g fill="#ffffff" fill-opacity="1"><g transform="translate(167.232985, 234.733495)"><g><path d="M 71.140625 0 L 64.8125 -12.234375 L 31.875 -12.234375 L 25.546875 0 L 1.34375 0 L 48.40625 -87.40625 L 95.34375 0 Z M 56.34375 -28.640625 L 48.40625 -43.96875 L 40.34375 -28.640625 Z M 56.34375 -28.640625 "/></g></g></g><g fill="#ffffff" fill-opacity="1"><g transform="translate(257.595884, 234.733495)"><g><path d="M 69.921875 -48.953125 C 71.710938 -48.140625 73.503906 -46.523438 75.296875 -44.109375 C 78.890625 -39.359375 80.6875 -33.035156 80.6875 -25.140625 C 80.6875 -15.546875 76.515625 -8.46875 68.171875 -3.90625 C 63.960938 -1.65625 59.75 -0.351562 55.53125 0 L 8.0625 0 L 8.0625 -87.40625 L 48.546875 -87.40625 C 51.859375 -87.40625 55.398438 -86.6875 59.171875 -85.25 C 66.609375 -82.382812 71.359375 -77.410156 73.421875 -70.328125 C 74.941406 -65.210938 74.804688 -60.101562 73.015625 -55 C 72.117188 -52.488281 71.085938 -50.472656 69.921875 -48.953125 Z M 29.046875 -71.140625 L 29.046875 -51.640625 L 47.734375 -51.640625 C 50.421875 -51.640625 52.753906 -52.578125 54.734375 -54.453125 C 56.609375 -56.335938 57.546875 -58.625 57.546875 -61.3125 C 57.546875 -64.09375 56.609375 -66.425781 54.734375 -68.3125 C 52.753906 -70.195312 50.421875 -71.140625 47.734375 -71.140625 Z M 64.28125 -25.8125 C 64.28125 -28.507812 63.335938 -30.84375 61.453125 -32.8125 C 59.566406 -34.695312 57.28125 -35.640625 54.59375 -35.640625 L 29.046875 -35.640625 L 29.046875 -16.140625 L 54.59375 -16.140625 C 57.28125 -16.140625 59.566406 -17.078125 61.453125 -18.953125 C 63.335938 -20.835938 64.28125 -23.125 64.28125 -25.8125 Z M 64.28125 -25.8125 "/></g></g></g><g fill="#ffffff" fill-opacity="1"><g transform="translate(328.998552, 234.733495)"><g><path d="M 71.140625 0 L 64.8125 -12.234375 L 31.875 -12.234375 L 25.546875 0 L 1.34375 0 L 48.40625 -87.40625 L 95.34375 0 Z M 56.34375 -28.640625 L 48.40625 -43.96875 L 40.34375 -28.640625 Z M 56.34375 -28.640625 "/></g></g></g><g fill="#ffffff" fill-opacity="1"><g transform="translate(412.234485, 234.733495)"><g><path d="M 39.671875 0.140625 C 33.753906 0.140625 28.550781 -0.710938 24.0625 -2.421875 C 20.476562 -3.859375 16.804688 -6.234375 13.046875 -9.546875 C 8.742188 -13.492188 6.007812 -18.378906 4.84375 -24.203125 C 4.394531 -26.085938 4.171875 -27.972656 4.171875 -29.859375 C 4.078125 -30.484375 4.078125 -31.109375 4.171875 -31.734375 L 4.171875 -32.671875 L 22.59375 -32.40625 L 22.59375 -32.546875 C 22.59375 -29.222656 23.3125 -26.488281 24.75 -24.34375 C 27.4375 -20.300781 32.410156 -18.28125 39.671875 -18.28125 C 51.328125 -18.28125 57.15625 -21.015625 57.15625 -26.484375 C 57.15625 -31.773438 51.144531 -35.09375 39.125 -36.4375 C 32.226562 -37.25 26.3125 -38.6875 21.375 -40.75 C 16.800781 -42.625 13.082031 -45.132812 10.21875 -48.28125 C 6.1875 -52.757812 4.171875 -57.957031 4.171875 -63.875 C 4.171875 -67.550781 4.84375 -71.003906 6.1875 -74.234375 C 7.175781 -76.648438 8.519531 -78.84375 10.21875 -80.8125 C 16.488281 -87.894531 26.441406 -91.4375 40.078125 -91.4375 C 48.234375 -91.4375 55.132812 -89.820312 60.78125 -86.59375 C 65.082031 -84.175781 68.578125 -80.953125 71.265625 -76.921875 C 73.242188 -73.867188 74.632812 -70.367188 75.4375 -66.421875 C 75.707031 -65.078125 75.882812 -63.734375 75.96875 -62.390625 C 76.0625 -61.941406 76.109375 -61.492188 76.109375 -61.046875 L 76.109375 -60.234375 L 57.6875 -60.234375 L 57.6875 -60.109375 C 57.78125 -62.796875 57.109375 -65.082031 55.671875 -66.96875 C 52.796875 -71 47.597656 -73.015625 40.078125 -73.015625 C 35.503906 -73.015625 31.738281 -72.429688 28.78125 -71.265625 C 25.101562 -69.828125 23.265625 -67.765625 23.265625 -65.078125 C 23.265625 -59.523438 29.222656 -56.078125 41.140625 -54.734375 C 54.585938 -53.203125 64.269531 -49.03125 70.1875 -42.21875 C 74.132812 -37.5625 76.109375 -32.316406 76.109375 -26.484375 L 76.109375 -25.28125 C 76.109375 -24.738281 76.0625 -24.203125 75.96875 -23.671875 C 75.882812 -22.234375 75.707031 -20.882812 75.4375 -19.625 C 74.539062 -16.039062 72.835938 -12.859375 70.328125 -10.078125 C 67.367188 -6.765625 63.378906 -4.210938 58.359375 -2.421875 C 53.335938 -0.710938 47.109375 0.140625 39.671875 0.140625 Z M 39.671875 0.140625 "/></g></g></g><g fill="#ffffff" fill-opacity="1"><g transform="translate(492.377873, 234.733495)"><g><path d="M 78.125 -11.03125 C 69.613281 -3.945312 59.890625 -0.40625 48.953125 -0.40625 C 36.578125 -0.40625 26 -4.796875 17.21875 -13.578125 C 8.425781 -22.367188 4.03125 -32.945312 4.03125 -45.3125 C 4.03125 -57.769531 8.425781 -68.394531 17.21875 -77.1875 C 26 -85.96875 36.578125 -90.359375 48.953125 -90.359375 C 59.972656 -90.359375 69.695312 -86.773438 78.125 -79.609375 L 64.671875 -66.296875 C 60.109375 -69.785156 54.867188 -71.53125 48.953125 -71.53125 C 41.773438 -71.53125 35.632812 -68.976562 30.53125 -63.875 C 25.414062 -58.757812 22.859375 -52.570312 22.859375 -45.3125 C 22.859375 -38.144531 25.414062 -32.003906 30.53125 -26.890625 C 35.632812 -21.785156 41.773438 -19.234375 48.953125 -19.234375 C 54.867188 -19.234375 60.109375 -20.976562 64.671875 -24.46875 Z M 78.125 -11.03125 "/></g></g></g><g fill="#ffffff" fill-opacity="1"><g transform="translate(567.81466, 234.733495)"><g><path d="M 47.0625 -87 C 59.519531 -87 70.144531 -82.609375 78.9375 -73.828125 C 87.71875 -65.035156 92.109375 -54.410156 92.109375 -41.953125 C 92.109375 -29.492188 87.71875 -18.867188 78.9375 -10.078125 C 70.144531 -1.296875 59.519531 3.09375 47.0625 3.09375 C 34.601562 3.09375 23.976562 -1.296875 15.1875 -10.078125 C 6.40625 -18.867188 2.015625 -29.492188 2.015625 -41.953125 C 2.015625 -54.410156 6.40625 -65.035156 15.1875 -73.828125 C 23.976562 -82.609375 34.601562 -87 47.0625 -87 Z M 65.625 -23.390625 C 70.726562 -28.503906 73.28125 -34.691406 73.28125 -41.953125 C 73.28125 -49.210938 70.726562 -55.398438 65.625 -60.515625 C 60.507812 -65.617188 54.320312 -68.171875 47.0625 -68.171875 C 39.800781 -68.171875 33.613281 -65.617188 28.5 -60.515625 C 23.394531 -55.398438 20.84375 -49.210938 20.84375 -41.953125 C 20.84375 -34.691406 23.394531 -28.503906 28.5 -23.390625 C 33.789062 -18.285156 39.976562 -15.734375 47.0625 -15.734375 C 54.144531 -15.734375 60.332031 -18.285156 65.625 -23.390625 Z M 65.625 -23.390625 "/></g></g></g><path stroke-linecap="butt" transform="matrix(-0.828221, 1.036892, -1.036892, -0.828221, 648.676322, 251.294646)" fill="none" stroke-linejoin="miter" d="M 3.565999 13.422997 C 9.95623 0.859593 16.344257 0.858018 22.735592 13.425172 " stroke="#000000" stroke-width="8" stroke-opacity="1" stroke-miterlimit="4"/><g clip-path="url(#ffbb651bd7)"><g clip-path="url(#757877f8b4)"><g transform="matrix(1, 0, 0, 1, 604, 179)"><g clip-path="url(#30754a9705)"><g clip-path="url(#d1da24e925)"><g clip-path="url(#f0971b1cef)"><path fill="#ffffff" d="M 0.484375 0.925781 L 23.382812 0.925781 L 23.382812 23.824219 L 0.484375 23.824219 Z M 0.484375 0.925781 " fill-opacity="1" fill-rule="nonzero"/></g></g></g></g></g></g><path stroke-linecap="butt" transform="matrix(-0.441187, 1.251578, -1.251578, -0.441187, 638.967459, 82.069994)" fill="none" stroke-linejoin="miter" d="M 4.222339 3.176558 C 2.01187 26.761336 16.316144 26.762646 47.130429 3.175912 " stroke="#000000" stroke-width="8" stroke-opacity="1" stroke-miterlimit="4"/><path stroke-linecap="butt" transform="matrix(-0.885045, 0.988833, -0.988833, -0.885045, 643.875723, 91.01005)" fill="none" stroke-linejoin="miter" d="M 4.029177 13.088694 C 3.312014 0.97091 16.069769 0.968766 42.304175 13.088612 " stroke="#000000" stroke-width="8" stroke-opacity="1" stroke-miterlimit="4"/><path stroke-linecap="butt" transform="matrix(0.376041, -1.27267, 1.27267, 0.376041, 568.140153, 153.305045)" fill="none" stroke-linejoin="miter" d="M 3.273434 13.42527 C 12.110418 0.857243 20.94731 0.858172 29.786099 13.424402 " stroke="#000000" stroke-width="8" stroke-opacity="1" stroke-miterlimit="4"/></g></g></svg>