<svg xmlns="http://www.w3.org/2000/svg" xmlns:xlink="http://www.w3.org/1999/xlink" width="1058" zoomAndPan="magnify" viewBox="0 0 793.5 242.249991" height="323" preserveAspectRatio="xMidYMid meet" version="1.0"><defs><g/><clipPath id="624450a4a9"><rect x="0" width="546" y="0" height="177"/></clipPath><clipPath id="53de6e0946"><path d="M 563 121 L 702 121 L 702 241.503906 L 563 241.503906 Z M 563 121 " clip-rule="nonzero"/></clipPath><clipPath id="10a2b12e25"><path d="M 611.265625 116.914062 L 634.09375 116.914062 L 634.09375 139.742188 L 611.265625 139.742188 Z M 611.265625 116.914062 " clip-rule="nonzero"/></clipPath><clipPath id="e734c26619"><path d="M 622.679688 116.914062 C 616.375 116.914062 611.265625 122.023438 611.265625 128.328125 C 611.265625 134.632812 616.375 139.742188 622.679688 139.742188 C 628.984375 139.742188 634.09375 134.632812 634.09375 128.328125 C 634.09375 122.023438 628.984375 116.914062 622.679688 116.914062 Z M 622.679688 116.914062 " clip-rule="nonzero"/></clipPath><clipPath id="adfd5ea83b"><path d="M 0.265625 0.914062 L 23.09375 0.914062 L 23.09375 23.742188 L 0.265625 23.742188 Z M 0.265625 0.914062 " clip-rule="nonzero"/></clipPath><clipPath id="20d826e2fd"><path d="M 11.679688 0.914062 C 5.375 0.914062 0.265625 6.023438 0.265625 12.328125 C 0.265625 18.632812 5.375 23.742188 11.679688 23.742188 C 17.984375 23.742188 23.09375 18.632812 23.09375 12.328125 C 23.09375 6.023438 17.984375 0.914062 11.679688 0.914062 Z M 11.679688 0.914062 " clip-rule="nonzero"/></clipPath><clipPath id="5ea3ad1398"><rect x="0" width="24" y="0" height="24"/></clipPath></defs><g transform="matrix(1, 0, 0, 1, 123, 32)"><g clip-path="url(#624450a4a9)"><g fill="#de0f3f" fill-opacity="1"><g transform="translate(1.291004, 139.551639)"><g><path d="M 70.25 -66.234375 L 47.59375 -66.234375 L 47.59375 0 L 26.671875 0 L 26.671875 -66.234375 L 4.015625 -66.234375 L 4.015625 -87.140625 L 70.25 -87.140625 Z M 70.25 -66.234375 "/></g></g></g><g fill="#de0f3f" fill-opacity="1"><g transform="translate(52.365073, 139.551639)"><g><path d="M 70.921875 0 L 64.625 -12.203125 L 31.765625 -12.203125 L 25.46875 0 L 1.34375 0 L 48.265625 -87.140625 L 95.046875 0 Z M 56.171875 -28.5625 L 48.265625 -43.84375 L 40.21875 -28.5625 Z M 56.171875 -28.5625 "/></g></g></g><g fill="#de0f3f" fill-opacity="1"><g transform="translate(142.449075, 139.551639)"><g><path d="M 69.71875 -48.796875 C 71.5 -47.992188 73.285156 -46.382812 75.078125 -43.96875 C 78.648438 -39.238281 80.4375 -32.9375 80.4375 -25.0625 C 80.4375 -15.5 76.28125 -8.441406 67.96875 -3.890625 C 63.769531 -1.648438 59.570312 -0.351562 55.375 0 L 8.046875 0 L 8.046875 -87.140625 L 48.390625 -87.140625 C 51.703125 -87.140625 55.234375 -86.425781 58.984375 -85 C 66.398438 -82.132812 71.140625 -77.171875 73.203125 -70.109375 C 74.722656 -65.015625 74.585938 -59.921875 72.796875 -54.828125 C 71.898438 -52.328125 70.875 -50.316406 69.71875 -48.796875 Z M 28.953125 -70.921875 L 28.953125 -51.484375 L 47.59375 -51.484375 C 50.269531 -51.484375 52.59375 -52.421875 54.5625 -54.296875 C 56.4375 -56.171875 57.375 -58.445312 57.375 -61.125 C 57.375 -63.894531 56.4375 -66.222656 54.5625 -68.109375 C 52.59375 -69.984375 50.269531 -70.921875 47.59375 -70.921875 Z M 64.078125 -25.734375 C 64.078125 -28.421875 63.140625 -30.75 61.265625 -32.71875 C 59.390625 -34.59375 57.109375 -35.53125 54.421875 -35.53125 L 28.953125 -35.53125 L 28.953125 -16.09375 L 54.421875 -16.09375 C 57.109375 -16.09375 59.390625 -17.03125 61.265625 -18.90625 C 63.140625 -20.78125 64.078125 -23.054688 64.078125 -25.734375 Z M 64.078125 -25.734375 "/></g></g></g><g fill="#de0f3f" fill-opacity="1"><g transform="translate(213.631366, 139.551639)"><g><path d="M 70.921875 0 L 64.625 -12.203125 L 31.765625 -12.203125 L 25.46875 0 L 1.34375 0 L 48.265625 -87.140625 L 95.046875 0 Z M 56.171875 -28.5625 L 48.265625 -43.84375 L 40.21875 -28.5625 Z M 56.171875 -28.5625 "/></g></g></g><g fill="#de0f3f" fill-opacity="1"><g transform="translate(296.610398, 139.551639)"><g><path d="M 39.546875 0.140625 C 33.648438 0.140625 28.46875 -0.707031 24 -2.40625 C 20.425781 -3.84375 16.757812 -6.210938 13 -9.515625 C 8.707031 -13.453125 5.984375 -18.320312 4.828125 -24.125 C 4.378906 -26.007812 4.15625 -27.890625 4.15625 -29.765625 C 4.0625 -30.390625 4.0625 -31.015625 4.15625 -31.640625 L 4.15625 -32.578125 L 22.515625 -32.3125 L 22.515625 -32.4375 C 22.515625 -29.132812 23.234375 -26.410156 24.671875 -24.265625 C 27.347656 -20.242188 32.304688 -18.234375 39.546875 -18.234375 C 51.171875 -18.234375 56.984375 -20.957031 56.984375 -26.40625 C 56.984375 -31.675781 50.992188 -34.984375 39.015625 -36.328125 C 32.128906 -37.128906 26.226562 -38.5625 21.3125 -40.625 C 16.757812 -42.5 13.050781 -45 10.1875 -48.125 C 6.164062 -52.59375 4.15625 -57.78125 4.15625 -63.6875 C 4.15625 -67.34375 4.828125 -70.78125 6.171875 -74 C 7.148438 -76.414062 8.488281 -78.609375 10.1875 -80.578125 C 16.445312 -87.628906 26.367188 -91.15625 39.953125 -91.15625 C 48.085938 -91.15625 54.96875 -89.550781 60.59375 -86.34375 C 64.882812 -83.925781 68.367188 -80.707031 71.046875 -76.6875 C 73.015625 -73.644531 74.398438 -70.160156 75.203125 -66.234375 C 75.472656 -64.890625 75.65625 -63.546875 75.75 -62.203125 C 75.832031 -61.753906 75.875 -61.304688 75.875 -60.859375 L 75.875 -60.0625 L 57.515625 -60.0625 L 57.515625 -59.921875 C 57.597656 -62.609375 56.925781 -64.890625 55.5 -66.765625 C 52.644531 -70.785156 47.460938 -72.796875 39.953125 -72.796875 C 35.390625 -72.796875 31.632812 -72.210938 28.6875 -71.046875 C 25.019531 -69.617188 23.1875 -67.566406 23.1875 -64.890625 C 23.1875 -59.347656 29.128906 -55.90625 41.015625 -54.5625 C 54.421875 -53.039062 64.078125 -48.882812 69.984375 -42.09375 C 73.910156 -37.445312 75.875 -32.21875 75.875 -26.40625 L 75.875 -25.203125 C 75.875 -24.671875 75.832031 -24.132812 75.75 -23.59375 C 75.65625 -22.164062 75.472656 -20.828125 75.203125 -19.578125 C 74.316406 -15.992188 72.617188 -12.820312 70.109375 -10.0625 C 67.160156 -6.75 63.1875 -4.195312 58.1875 -2.40625 C 53.175781 -0.707031 46.960938 0.140625 39.546875 0.140625 Z M 39.546875 0.140625 "/></g></g></g><g fill="#de0f3f" fill-opacity="1"><g transform="translate(376.50643, 139.551639)"><g><path d="M 77.890625 -11 C 69.398438 -3.9375 59.703125 -0.40625 48.796875 -0.40625 C 36.460938 -0.40625 25.914062 -4.785156 17.15625 -13.546875 C 8.394531 -22.296875 4.015625 -32.835938 4.015625 -45.171875 C 4.015625 -57.597656 8.394531 -68.191406 17.15625 -76.953125 C 25.914062 -85.710938 36.460938 -90.09375 48.796875 -90.09375 C 59.785156 -90.09375 69.484375 -86.515625 77.890625 -79.359375 L 64.484375 -66.09375 C 59.921875 -69.582031 54.691406 -71.328125 48.796875 -71.328125 C 41.648438 -71.328125 35.53125 -68.78125 30.4375 -63.6875 C 25.34375 -58.582031 22.796875 -52.410156 22.796875 -45.171875 C 22.796875 -38.023438 25.34375 -31.90625 30.4375 -26.8125 C 35.53125 -21.71875 41.648438 -19.171875 48.796875 -19.171875 C 54.691406 -19.171875 59.921875 -20.914062 64.484375 -24.40625 Z M 77.890625 -11 "/></g></g></g><g fill="#de0f3f" fill-opacity="1"><g transform="translate(451.710389, 139.551639)"><g><path d="M 46.921875 -86.734375 C 59.347656 -86.734375 69.9375 -82.351562 78.6875 -73.59375 C 87.445312 -64.84375 91.828125 -54.253906 91.828125 -41.828125 C 91.828125 -29.398438 87.445312 -18.8125 78.6875 -10.0625 C 69.9375 -1.300781 59.347656 3.078125 46.921875 3.078125 C 34.492188 3.078125 23.90625 -1.300781 15.15625 -10.0625 C 6.394531 -18.8125 2.015625 -29.398438 2.015625 -41.828125 C 2.015625 -54.253906 6.394531 -64.84375 15.15625 -73.59375 C 23.90625 -82.351562 34.492188 -86.734375 46.921875 -86.734375 Z M 65.421875 -23.328125 C 70.515625 -28.421875 73.0625 -34.585938 73.0625 -41.828125 C 73.0625 -49.066406 70.515625 -55.234375 65.421875 -60.328125 C 60.328125 -65.421875 54.160156 -67.96875 46.921875 -67.96875 C 39.679688 -67.96875 33.515625 -65.421875 28.421875 -60.328125 C 23.328125 -55.234375 20.78125 -49.066406 20.78125 -41.828125 C 20.78125 -34.585938 23.328125 -28.421875 28.421875 -23.328125 C 33.691406 -18.234375 39.859375 -15.6875 46.921875 -15.6875 C 53.984375 -15.6875 60.148438 -18.234375 65.421875 -23.328125 Z M 65.421875 -23.328125 "/></g></g></g></g></g><g clip-path="url(#53de6e0946)"><path stroke-linecap="butt" transform="matrix(-0.466631, 0.584199, -0.584199, -0.466631, 655.244383, 188.066525)" fill="none" stroke-linejoin="miter" d="M 6.241012 23.677085 C 17.546235 1.441161 28.85412 1.442423 40.161405 23.676786 " stroke="#000000" stroke-width="14" stroke-opacity="1" stroke-miterlimit="4"/></g><g clip-path="url(#10a2b12e25)"><g clip-path="url(#e734c26619)"><g transform="matrix(1, 0, 0, 1, 611, 116)"><g clip-path="url(#5ea3ad1398)"><g clip-path="url(#adfd5ea83b)"><g clip-path="url(#20d826e2fd)"><path fill="#de0f3f" d="M 0.265625 0.914062 L 23.09375 0.914062 L 23.09375 23.742188 L 0.265625 23.742188 Z M 0.265625 0.914062 " fill-opacity="1" fill-rule="nonzero"/></g></g></g></g></g></g><path stroke-linecap="butt" transform="matrix(-0.248571, 0.705156, -0.705156, -0.248571, 645.588669, 19.390549)" fill="none" stroke-linejoin="miter" d="M 7.393422 5.557418 C 3.48606 47.290409 28.792048 47.29415 83.312837 5.557049 " stroke="#000000" stroke-width="14" stroke-opacity="1" stroke-miterlimit="4"/><path stroke-linecap="butt" transform="matrix(-0.498646, 0.557122, -0.557122, -0.498646, 650.46451, 28.274354)" fill="none" stroke-linejoin="miter" d="M 7.048845 23.082526 C 5.783549 1.638054 28.356525 1.641433 74.77556 23.085697 " stroke="#000000" stroke-width="14" stroke-opacity="1" stroke-miterlimit="4"/><path stroke-linecap="butt" transform="matrix(0.211867, -0.717039, 0.717039, 0.211867, 575.108544, 90.349096)" fill="none" stroke-linejoin="miter" d="M 5.727598 23.673514 C 21.363465 1.440949 36.998484 1.440892 52.639145 23.676873 " stroke="#000000" stroke-width="14" stroke-opacity="1" stroke-miterlimit="4"/></svg>