<svg xmlns="http://www.w3.org/2000/svg" viewBox="0 0 496 512" fill="#1DB954">
  <path d="M248 8C111.1 8 0 119.1 0 256s111.1 248 248 248 248-111.1 248-248S384.9 8 248 8zm100.7 364.9c-4.2 0-6.8-1.3-10.7-3.6-62.4-37.6-135-39.2-206.7-24.5-3.9 1-9 2.6-11.9 2.6-9.7 0-15.8-7.7-15.8-15.8 0-10.3 6.1-15.2 13.6-16.8 81.9-18.1 165.6-16 235.3 28.7 6.1 3.9 11 7.4 11 16.9 0 9.7-7.1 11.8-15.2 11.8zm105.9-59.6c-5.2 0-8.4-1.3-12.9-3.9-71.2-42.5-187.7-44.7-255.5-26-4.6 1.2-9 2.6-11.1 2.6-9.7 0-15.8-7.7-15.8-15.8 0-10.3 6.1-15.2 13.6-16.8 77.2-19.7 203.7-17 281.1 30.2 6.1 3.9 11 7.4 11 16.9 0 9.7-7.1 11.8-15.2 11.8zm4.1-62.6c-79.5-46.4-210.5-50.6-286.3-29.2-5.3 1.5-9.5 2.7-11.5 2.7-9.7 0-15.8-7.7-15.8-15.8 0-10.3 6.1-15.2 13.6-16.8 85.2-22.6 223.9-18 315.4 34.5 8.1 4.8 11.5 11 11.5 16.9 0 9.7-7.1 11.8-15.2 11.8z"/>
</svg>
