<svg xmlns="http://www.w3.org/2000/svg" xmlns:xlink="http://www.w3.org/1999/xlink" width="2000" zoomAndPan="magnify" viewBox="0 0 1500 1499.999933" height="2000" preserveAspectRatio="xMidYMid meet" version="1.0"><defs><clipPath id="afe6fbd6bc"><path d="M 460.222656 540 L 1133 540 L 1133 959.265625 L 460.222656 959.265625 Z M 460.222656 540 " clip-rule="nonzero"/></clipPath><clipPath id="7dbb099e70"><path d="M 554 768 L 560 768 L 560 959.265625 L 554 959.265625 Z M 554 768 " clip-rule="nonzero"/></clipPath><clipPath id="95e9ae851c"><path d="M 651 767 L 657 767 L 657 959.265625 L 651 959.265625 Z M 651 767 " clip-rule="nonzero"/></clipPath><clipPath id="ccf791e613"><path d="M 842 768 L 848 768 L 848 959.265625 L 842 959.265625 Z M 842 768 " clip-rule="nonzero"/></clipPath><clipPath id="cf08e21851"><path d="M 937 768 L 943 768 L 943 959.265625 L 937 959.265625 Z M 937 768 " clip-rule="nonzero"/></clipPath><clipPath id="3333126128"><path d="M 1034 767 L 1040 767 L 1040 959.265625 L 1034 959.265625 Z M 1034 767 " clip-rule="nonzero"/></clipPath><clipPath id="7e169522ca"><path d="M 746 539.265625 L 752 539.265625 L 752 959.265625 L 746 959.265625 Z M 746 539.265625 " clip-rule="nonzero"/></clipPath><clipPath id="e8ab948ef4"><path d="M 1133 539.265625 L 1425.472656 539.265625 L 1425.472656 958 L 1133 958 Z M 1133 539.265625 " clip-rule="nonzero"/></clipPath><clipPath id="07708ab5c9"><path d="M 1227 766 L 1233 766 L 1233 959.265625 L 1227 959.265625 Z M 1227 766 " clip-rule="nonzero"/></clipPath><clipPath id="68a1d7f48a"><path d="M 1419 539.265625 L 1425 539.265625 L 1425 959 L 1419 959 Z M 1419 539.265625 " clip-rule="nonzero"/></clipPath><clipPath id="6972423d09"><path d="M 74.875 540.765625 L 461 540.765625 L 461 960 L 74.875 960 Z M 74.875 540.765625 " clip-rule="nonzero"/></clipPath><clipPath id="c5c0eb950c"><path d="M 170 768 L 176 768 L 176 960.765625 L 170 960.765625 Z M 170 768 " clip-rule="nonzero"/></clipPath><clipPath id="f45dd582d4"><path d="M 265 768 L 271 768 L 271 960.765625 L 265 960.765625 Z M 265 768 " clip-rule="nonzero"/></clipPath><clipPath id="ca18e5ebde"><path d="M 362 767 L 368 767 L 368 960.765625 L 362 960.765625 Z M 362 767 " clip-rule="nonzero"/></clipPath><clipPath id="d0e6b08df8"><path d="M 74.875 540.765625 L 80 540.765625 L 80 960.765625 L 74.875 960.765625 Z M 74.875 540.765625 " clip-rule="nonzero"/></clipPath><clipPath id="8c10335966"><path d="M 289.203125 872.332031 L 349.953125 872.332031 L 349.953125 933.082031 L 289.203125 933.082031 Z M 289.203125 872.332031 " clip-rule="nonzero"/></clipPath><clipPath id="4fd91d8bbb"><path d="M 674.371094 872.332031 L 735.121094 872.332031 L 735.121094 933.082031 L 674.371094 933.082031 Z M 674.371094 872.332031 " clip-rule="nonzero"/></clipPath><clipPath id="2959c59f8c"><path d="M 529 701 L 588 701 L 588 760 L 529 760 Z M 529 701 " clip-rule="nonzero"/></clipPath><clipPath id="8036a33649"><path d="M 528.136719 730.5 C 528.136719 747.242188 541.707031 760.816406 558.449219 760.816406 C 575.191406 760.816406 588.765625 747.242188 588.765625 730.5 C 588.765625 713.757812 575.191406 700.183594 558.449219 700.183594 C 541.707031 700.183594 528.136719 713.757812 528.136719 730.5 Z M 528.136719 730.5 " clip-rule="nonzero"/></clipPath><clipPath id="7aabfa9179"><path d="M 558.449219 701.085938 C 574.695312 701.085938 587.867188 714.253906 587.867188 730.5 C 587.867188 746.746094 574.695312 759.914062 558.449219 759.914062 C 542.203125 759.914062 529.035156 746.746094 529.035156 730.5 C 529.035156 714.253906 542.203125 701.085938 558.449219 701.085938 Z M 558.449219 701.085938 " clip-rule="nonzero"/></clipPath><clipPath id="79122d2012"><path d="M 528.136719 700.183594 L 588.875 700.183594 L 588.875 760.925781 L 528.136719 760.925781 Z M 528.136719 700.183594 " clip-rule="nonzero"/></clipPath><clipPath id="092751b55f"><path d="M 528.136719 730.5 C 528.136719 747.242188 541.707031 760.816406 558.449219 760.816406 C 575.191406 760.816406 588.765625 747.242188 588.765625 730.5 C 588.765625 713.757812 575.191406 700.183594 558.449219 700.183594 C 541.707031 700.183594 528.136719 713.757812 528.136719 730.5 Z M 528.136719 730.5 " clip-rule="nonzero"/></clipPath><clipPath id="5e923fb612"><path d="M 528.136719 730.496094 C 528.136719 747.234375 541.707031 760.804688 558.445312 760.804688 C 575.1875 760.804688 588.757812 747.234375 588.757812 730.496094 C 588.757812 713.753906 575.1875 700.183594 558.445312 700.183594 C 541.707031 700.183594 528.136719 713.753906 528.136719 730.496094 Z M 528.136719 730.496094 " clip-rule="nonzero"/></clipPath></defs><path stroke-linecap="butt" transform="matrix(0.932291, 0, 0, 0.926936, 430.51802, 386.093764)" fill-opacity="1" fill="#000000" fill-rule="evenodd" stroke-linejoin="miter" d="M 110.670636 169.379504 L 162.387127 169.379504 L 162.387127 425.090196 L 110.670636 425.090196 Z M 110.670636 169.379504 " stroke="#000000" stroke-width="1.207" stroke-opacity="1" stroke-miterlimit="4"/><path stroke-linecap="butt" transform="matrix(0.932291, 0, 0, 0.926936, 430.51802, 386.093764)" fill-opacity="1" fill="#000000" fill-rule="evenodd" stroke-linejoin="miter" d="M 213.060321 169.248865 L 264.776811 169.248865 L 264.776811 424.959557 L 213.060321 424.959557 Z M 213.060321 169.248865 " stroke="#000000" stroke-width="1.207" stroke-opacity="1" stroke-miterlimit="4"/><path stroke-linecap="butt" transform="matrix(0.932291, 0, 0, 0.926936, 430.51802, 386.093764)" fill-opacity="1" fill="#000000" fill-rule="evenodd" stroke-linejoin="miter" d="M 418.170695 168.738952 L 469.887186 168.738952 L 469.887186 424.449644 L 418.170695 424.449644 Z M 418.170695 168.738952 " stroke="#000000" stroke-width="1.207" stroke-opacity="1" stroke-miterlimit="4"/><path stroke-linecap="butt" transform="matrix(0.932291, 0, 0, 0.926936, 430.51802, 386.093764)" fill-opacity="1" fill="#000000" fill-rule="evenodd" stroke-linejoin="miter" d="M 519.969598 169.758778 L 571.686088 169.758778 L 571.686088 425.46947 L 519.969598 425.46947 Z M 519.969598 169.758778 " stroke="#000000" stroke-width="1.207" stroke-opacity="1" stroke-miterlimit="4"/><path stroke-linecap="butt" transform="matrix(0.932291, 0, 0, 0.926936, 430.51802, 386.093764)" fill-opacity="1" fill="#000000" fill-rule="evenodd" stroke-linejoin="miter" d="M 623.800623 169.248865 L 675.517114 169.248865 L 675.517114 424.959557 L 623.800623 424.959557 Z M 623.800623 169.248865 " stroke="#000000" stroke-width="1.207" stroke-opacity="1" stroke-miterlimit="4"/><g clip-path="url(#afe6fbd6bc)"><path stroke-linecap="butt" transform="matrix(0.932291, 0, 0, 0.926936, 430.51802, 386.093764)" fill="none" stroke-linejoin="miter" d="M 33.51699 167.950905 L 751.85791 167.950905 L 751.85791 617.091297 L 33.51699 617.091297 Z M 33.51699 167.950905 " stroke="#000000" stroke-width="2.375" stroke-opacity="1" stroke-miterlimit="4"/></g><g clip-path="url(#7dbb099e70)"><path stroke-linecap="butt" transform="matrix(2.142509, 0, 0, 2.142857, 448.332979, 524.907991)" fill="none" stroke-linejoin="miter" d="M 50.745033 114.680717 L 50.745033 202.135159 " stroke="#000000" stroke-width="2.375" stroke-opacity="1" stroke-miterlimit="4"/></g><g clip-path="url(#95e9ae851c)"><path stroke-linecap="butt" transform="matrix(2.142509, 0, 0, 2.142857, 448.332979, 524.907991)" fill="none" stroke-linejoin="miter" d="M 95.847666 114.259623 L 95.847666 201.715888 " stroke="#000000" stroke-width="2.375" stroke-opacity="1" stroke-miterlimit="4"/></g><g clip-path="url(#ccf791e613)"><path stroke-linecap="butt" transform="matrix(2.142509, 0, 0, 2.142857, 448.332979, 524.907991)" fill="none" stroke-linejoin="miter" d="M 184.960827 114.839311 L 184.960827 202.295576 " stroke="#000000" stroke-width="2.375" stroke-opacity="1" stroke-miterlimit="4"/></g><g clip-path="url(#cf08e21851)"><path stroke-linecap="butt" transform="matrix(2.142509, 0, 0, 2.142857, 448.332979, 524.907991)" fill="none" stroke-linejoin="miter" d="M 229.270362 114.839311 L 229.270362 202.295576 " stroke="#000000" stroke-width="2.375" stroke-opacity="1" stroke-miterlimit="4"/></g><g clip-path="url(#3333126128)"><path stroke-linecap="butt" transform="matrix(2.142509, 0, 0, 2.142857, 448.332979, 524.907991)" fill="none" stroke-linejoin="miter" d="M 274.690234 114.520301 L 274.690234 201.976565 " stroke="#000000" stroke-width="2.375" stroke-opacity="1" stroke-miterlimit="4"/></g><g clip-path="url(#7e169522ca)"><path stroke-linecap="butt" transform="matrix(2.142509, 0, 0, 2.142857, 448.332979, 524.907991)" fill="none" stroke-linejoin="miter" d="M 140.350462 8.069241 L 140.350462 201.949222 " stroke="#000000" stroke-width="2.375" stroke-opacity="1" stroke-miterlimit="4"/></g><path stroke-linecap="butt" transform="matrix(2.142509, 0, 0, 2.142857, 448.332979, 524.907991)" fill-opacity="1" fill="#000000" fill-rule="nonzero" stroke-linejoin="miter" d="M 42.83776 12.566377 L 61.51475 12.566377 L 61.51475 115.697905 L 42.83776 115.697905 Z M 42.83776 12.566377 " stroke="#000000" stroke-width="5" stroke-opacity="1" stroke-miterlimit="4"/><path stroke-linecap="butt" transform="matrix(0.932291, 0, 0, 0.926936, 430.51802, 386.093764)" fill-opacity="1" fill="#000000" fill-rule="evenodd" stroke-linejoin="miter" d="M 832.078596 167.799196 L 883.799276 167.799196 L 883.799276 423.509888 L 832.078596 423.509888 Z M 832.078596 167.799196 " stroke="#000000" stroke-width="1.207" stroke-opacity="1" stroke-miterlimit="4"/><path stroke-linecap="butt" transform="matrix(0.932291, 0, 0, 0.926936, 430.51802, 386.093764)" fill-opacity="1" fill="#000000" fill-rule="evenodd" stroke-linejoin="miter" d="M 934.468281 167.668557 L 986.188961 167.668557 L 986.188961 423.379249 L 934.468281 423.379249 Z M 934.468281 167.668557 " stroke="#000000" stroke-width="1.207" stroke-opacity="1" stroke-miterlimit="4"/><g clip-path="url(#e8ab948ef4)"><path stroke-linecap="butt" transform="matrix(0.932291, 0, 0, 0.926936, 430.51802, 386.093764)" fill="none" stroke-linejoin="miter" d="M 754.92076 166.370597 L 1473.26168 166.370597 L 1473.26168 615.510989 L 754.92076 615.510989 Z M 754.92076 166.370597 " stroke="#000000" stroke-width="2.375" stroke-opacity="1" stroke-miterlimit="4"/></g><g clip-path="url(#07708ab5c9)"><path stroke-linecap="butt" transform="matrix(2.142509, 0, 0, 2.142857, 448.332979, 524.907991)" fill="none" stroke-linejoin="miter" d="M 364.660304 114.000769 L 364.660304 201.455211 " stroke="#000000" stroke-width="2.375" stroke-opacity="1" stroke-miterlimit="4"/></g><path stroke-linecap="butt" transform="matrix(2.142509, 0, 0, 2.142857, 448.332979, 524.907991)" fill="none" stroke-linejoin="miter" d="M 409.75929 113.579675 L 409.75929 201.03594 " stroke="#000000" stroke-width="2.375" stroke-opacity="1" stroke-miterlimit="4"/><g clip-path="url(#68a1d7f48a)"><path stroke-linecap="butt" transform="matrix(2.142509, 0, 0, 2.142857, 448.332979, 524.907991)" fill="none" stroke-linejoin="miter" d="M 454.260263 7.38747 L 454.260263 201.267451 " stroke="#000000" stroke-width="2.375" stroke-opacity="1" stroke-miterlimit="4"/></g><path stroke-linecap="butt" transform="matrix(2.142509, 0, 0, 2.142857, 448.332979, 524.907991)" fill-opacity="1" fill="#000000" fill-rule="nonzero" stroke-linejoin="miter" d="M 87.092599 11.350492 L 105.769589 11.350492 L 105.769589 114.480196 L 87.092599 114.480196 Z M 87.092599 11.350492 " stroke="#000000" stroke-width="5" stroke-opacity="1" stroke-miterlimit="4"/><path stroke-linecap="butt" transform="matrix(2.142509, 0, 0, 2.142857, 448.332979, 524.907991)" fill-opacity="1" fill="#000000" fill-rule="nonzero" stroke-linejoin="miter" d="M 176.420899 11.350492 L 195.097889 11.350492 L 195.097889 114.480196 L 176.420899 114.480196 Z M 176.420899 11.350492 " stroke="#000000" stroke-width="5" stroke-opacity="1" stroke-miterlimit="4"/><path stroke-linecap="butt" transform="matrix(2.142509, 0, 0, 2.142857, 448.332979, 524.907991)" fill-opacity="1" fill="#000000" fill-rule="nonzero" stroke-linejoin="miter" d="M 220.269161 12.16169 L 238.946151 12.16169 L 238.946151 115.291394 L 220.269161 115.291394 Z M 220.269161 12.16169 " stroke="#000000" stroke-width="5" stroke-opacity="1" stroke-miterlimit="4"/><path stroke-linecap="butt" transform="matrix(2.142509, 0, 0, 2.142857, 448.332979, 524.907991)" fill-opacity="1" fill="#000000" fill-rule="nonzero" stroke-linejoin="miter" d="M 265.740083 12.16169 L 284.417073 12.16169 L 284.417073 115.291394 L 265.740083 115.291394 Z M 265.740083 12.16169 " stroke="#000000" stroke-width="5" stroke-opacity="1" stroke-miterlimit="4"/><path stroke-linecap="butt" transform="matrix(2.142509, 0, 0, 2.142857, 448.332979, 524.907991)" fill-opacity="1" fill="#000000" fill-rule="nonzero" stroke-linejoin="miter" d="M 355.879713 10.537471 L 374.556702 10.537471 L 374.556702 113.667175 L 355.879713 113.667175 Z M 355.879713 10.537471 " stroke="#000000" stroke-width="5" stroke-opacity="1" stroke-miterlimit="4"/><path stroke-linecap="butt" transform="matrix(2.142509, 0, 0, 2.142857, 448.332979, 524.907991)" fill-opacity="1" fill="#000000" fill-rule="nonzero" stroke-linejoin="miter" d="M 401.35975 10.537471 L 420.03674 10.537471 L 420.03674 113.667175 L 401.35975 113.667175 Z M 401.35975 10.537471 " stroke="#000000" stroke-width="5" stroke-opacity="1" stroke-miterlimit="4"/><path stroke-linecap="butt" transform="matrix(0.932292, 0, 0, 0.926936, -913.67396, 387.593764)" fill-opacity="1" fill="#000000" fill-rule="evenodd" stroke-linejoin="miter" d="M 1139.600074 167.171287 L 1191.316558 167.171287 L 1191.316558 422.881979 L 1139.600074 422.881979 Z M 1139.600074 167.171287 " stroke="#000000" stroke-width="1.207" stroke-opacity="1" stroke-miterlimit="4"/><path stroke-linecap="butt" transform="matrix(0.932292, 0, 0, 0.926936, -913.67396, 387.593764)" fill-opacity="1" fill="#000000" fill-rule="evenodd" stroke-linejoin="miter" d="M 1241.398963 168.17847 L 1293.119637 168.17847 L 1293.119637 423.889162 L 1241.398963 423.889162 Z M 1241.398963 168.17847 " stroke="#000000" stroke-width="1.207" stroke-opacity="1" stroke-miterlimit="4"/><path stroke-linecap="butt" transform="matrix(0.932292, 0, 0, 0.926936, -913.67396, 387.593764)" fill-opacity="1" fill="#000000" fill-rule="evenodd" stroke-linejoin="miter" d="M 1345.200645 167.668557 L 1396.917129 167.668557 L 1396.917129 423.379249 L 1345.200645 423.379249 Z M 1345.200645 167.668557 " stroke="#000000" stroke-width="1.207" stroke-opacity="1" stroke-miterlimit="4"/><g clip-path="url(#6972423d09)"><path stroke-linecap="butt" transform="matrix(0.932292, 0, 0, 0.926936, -913.67396, 387.593764)" fill="none" stroke-linejoin="miter" d="M 754.921279 166.370597 L 1473.257916 166.370597 L 1473.257916 615.510989 L 754.921279 615.510989 Z M 754.921279 166.370597 " stroke="#000000" stroke-width="2.375" stroke-opacity="1" stroke-miterlimit="4"/></g><g clip-path="url(#c5c0eb950c)"><path stroke-linecap="butt" transform="matrix(2.14251, 0, 0, 2.142857, -895.859001, 526.407991)" fill="none" stroke-linejoin="miter" d="M 498.870846 114.150249 L 498.870846 201.606513 " stroke="#000000" stroke-width="2.375" stroke-opacity="1" stroke-miterlimit="4"/></g><g clip-path="url(#f45dd582d4)"><path stroke-linecap="butt" transform="matrix(2.14251, 0, 0, 2.142857, -895.859001, 526.407991)" fill="none" stroke-linejoin="miter" d="M 543.189493 114.150249 L 543.189493 201.606513 " stroke="#000000" stroke-width="2.375" stroke-opacity="1" stroke-miterlimit="4"/></g><g clip-path="url(#ca18e5ebde)"><path stroke-linecap="butt" transform="matrix(2.14251, 0, 0, 2.142857, -895.859001, 526.407991)" fill="none" stroke-linejoin="miter" d="M 588.600243 113.840353 L 588.600243 201.296617 " stroke="#000000" stroke-width="2.375" stroke-opacity="1" stroke-miterlimit="4"/></g><g clip-path="url(#d0e6b08df8)"><path stroke-linecap="butt" transform="matrix(2.14251, 0, 0, 2.142857, -895.859001, 526.407991)" fill="none" stroke-linejoin="miter" d="M 454.260485 7.38747 L 454.260485 201.267451 " stroke="#000000" stroke-width="2.375" stroke-opacity="1" stroke-miterlimit="4"/></g><path stroke-linecap="butt" transform="matrix(2.14251, 0, 0, 2.142857, -895.859001, 526.407991)" fill-opacity="1" fill="#000000" fill-rule="nonzero" stroke-linejoin="miter" d="M 490.679153 12.974711 L 509.35614 12.974711 L 509.35614 116.104416 L 490.679153 116.104416 Z M 490.679153 12.974711 " stroke="#000000" stroke-width="5" stroke-opacity="1" stroke-miterlimit="4"/><path stroke-linecap="butt" transform="matrix(2.14251, 0, 0, 2.142857, -895.859001, 526.407991)" fill-opacity="1" fill="#000000" fill-rule="nonzero" stroke-linejoin="miter" d="M 534.529234 13.785909 L 553.206221 13.785909 L 553.206221 116.915614 L 534.529234 116.915614 Z M 534.529234 13.785909 " stroke="#000000" stroke-width="5" stroke-opacity="1" stroke-miterlimit="4"/><path stroke-linecap="butt" transform="matrix(2.14251, 0, 0, 2.142857, -895.859001, 526.407991)" fill-opacity="1" fill="#000000" fill-rule="nonzero" stroke-linejoin="miter" d="M 579.19976 12.974711 L 597.876748 12.974711 L 597.876748 116.104416 L 579.19976 116.104416 Z M 579.19976 12.974711 " stroke="#000000" stroke-width="5" stroke-opacity="1" stroke-miterlimit="4"/><g clip-path="url(#8c10335966)"><path fill="#000000" d="M 319.578125 872.332031 C 302.796875 872.332031 289.203125 885.921875 289.203125 902.707031 C 289.203125 919.488281 302.796875 933.082031 319.578125 933.082031 C 336.359375 933.082031 349.953125 919.488281 349.953125 902.707031 C 349.953125 885.921875 336.359375 872.332031 319.578125 872.332031 Z M 319.578125 872.332031 " fill-opacity="1" fill-rule="nonzero"/></g><g clip-path="url(#4fd91d8bbb)"><path fill="#000000" d="M 704.746094 872.332031 C 687.960938 872.332031 674.371094 885.921875 674.371094 902.707031 C 674.371094 919.488281 687.960938 933.082031 704.746094 933.082031 C 721.527344 933.082031 735.121094 919.488281 735.121094 902.707031 C 735.121094 885.921875 721.527344 872.332031 704.746094 872.332031 Z M 704.746094 872.332031 " fill-opacity="1" fill-rule="nonzero"/></g><g clip-path="url(#2959c59f8c)"><g clip-path="url(#8036a33649)"><g clip-path="url(#7aabfa9179)"><path fill="#ffffff" d="M 558.445312 700.183594 C 541.699219 700.183594 528.136719 713.75 528.136719 730.496094 C 528.136719 747.242188 541.699219 760.804688 558.445312 760.804688 C 575.191406 760.804688 588.757812 747.242188 588.757812 730.496094 C 588.757812 713.75 575.191406 700.183594 558.445312 700.183594 Z M 558.445312 700.183594 " fill-opacity="1" fill-rule="nonzero"/></g></g></g><g clip-path="url(#79122d2012)"><g clip-path="url(#092751b55f)"><g clip-path="url(#5e923fb612)"><path stroke-linecap="butt" transform="matrix(0.75, 0, 0, 0.75, 528.135468, 700.18492)" fill="none" stroke-linejoin="miter" d="M 0.00166785 40.414902 C 0.00166785 62.732612 18.095419 80.826364 40.41313 80.826364 C 62.736048 80.826364 80.8298 62.732612 80.8298 40.414902 C 80.8298 18.091984 62.736048 -0.00176792 40.41313 -0.00176792 C 18.095419 -0.00176792 0.00166785 18.091984 0.00166785 40.414902 Z M 0.00166785 40.414902 " stroke="#000000" stroke-width="14" stroke-opacity="1" stroke-miterlimit="4"/></g></g></g></svg>