<svg xmlns="http://www.w3.org/2000/svg" xmlns:xlink="http://www.w3.org/1999/xlink" width="2000" zoomAndPan="magnify" viewBox="0 0 1500 607.92" height="800" preserveAspectRatio="xMidYMid meet" version="1.0"><defs><clipPath id="3831869f3b"><path d="M 0.0976562 0 L 1499.898438 0 L 1499.898438 599.921875 L 0.0976562 599.921875 Z M 0.0976562 0 " clip-rule="nonzero"/></clipPath><clipPath id="1ce937f91d"><path d="M 58 84 L 1499.898438 84 L 1499.898438 517 L 58 517 Z M 58 84 " clip-rule="nonzero"/></clipPath><clipPath id="308e21a42f"><path d="M 396 2 L 1084 2 L 1084 429.488281 L 396 429.488281 Z M 396 2 " clip-rule="nonzero"/></clipPath><clipPath id="348032b462"><path d="M 492 234 L 498 234 L 498 429.488281 L 492 429.488281 Z M 492 234 " clip-rule="nonzero"/></clipPath><clipPath id="a671f02c7d"><path d="M 591 233 L 597 233 L 597 429.488281 L 591 429.488281 Z M 591 233 " clip-rule="nonzero"/></clipPath><clipPath id="f7bc7a973a"><path d="M 786 234 L 792 234 L 792 429.488281 L 786 429.488281 Z M 786 234 " clip-rule="nonzero"/></clipPath><clipPath id="49faa666b0"><path d="M 883 234 L 889 234 L 889 429.488281 L 883 429.488281 Z M 883 234 " clip-rule="nonzero"/></clipPath><clipPath id="9eeb9e6acf"><path d="M 982 233 L 988 233 L 988 429.488281 L 982 429.488281 Z M 982 233 " clip-rule="nonzero"/></clipPath><clipPath id="bf8dd2ea77"><path d="M 688 1 L 694 1 L 694 429.488281 L 688 429.488281 Z M 688 1 " clip-rule="nonzero"/></clipPath><clipPath id="2ed3418d8e"><path d="M 1083 0.609375 L 1382.183594 0.609375 L 1382.183594 428 L 1083 428 Z M 1083 0.609375 " clip-rule="nonzero"/></clipPath><clipPath id="477fc49e00"><path d="M 1179 232 L 1185 232 L 1185 429.488281 L 1179 429.488281 Z M 1179 232 " clip-rule="nonzero"/></clipPath><clipPath id="ae33fcf4d6"><path d="M 1375 0.609375 L 1382 0.609375 L 1382 429 L 1375 429 Z M 1375 0.609375 " clip-rule="nonzero"/></clipPath><clipPath id="1636f4c958"><path d="M 2.089844 2.144531 L 397.480469 2.144531 L 397.480469 430 L 2.089844 430 Z M 2.089844 2.144531 " clip-rule="nonzero"/></clipPath><clipPath id="1f6bf1cd70"><path d="M 100 234 L 106 234 L 106 431.019531 L 100 431.019531 Z M 100 234 " clip-rule="nonzero"/></clipPath><clipPath id="602d18f02b"><path d="M 197 234 L 203 234 L 203 431.019531 L 197 431.019531 Z M 197 234 " clip-rule="nonzero"/></clipPath><clipPath id="0640cb2591"><path d="M 2.089844 2.144531 L 8 2.144531 L 8 431 L 2.089844 431 Z M 2.089844 2.144531 " clip-rule="nonzero"/></clipPath><clipPath id="aee5d413e4"><path d="M 221.109375 340.96875 L 282.6875 340.96875 L 282.6875 402.546875 L 221.109375 402.546875 Z M 221.109375 340.96875 " clip-rule="nonzero"/></clipPath><clipPath id="26c09acd97"><path d="M 614.714844 340.96875 L 676.289062 340.96875 L 676.289062 402.546875 L 614.714844 402.546875 Z M 614.714844 340.96875 " clip-rule="nonzero"/></clipPath><clipPath id="b65c4c4d32"><path d="M 466.355469 166.136719 L 526 166.136719 L 526 226 L 466.355469 226 Z M 466.355469 166.136719 " clip-rule="nonzero"/></clipPath><clipPath id="2540c57f7c"><path d="M 465.277344 196.035156 C 465.277344 213.144531 479.144531 227.011719 496.253906 227.011719 C 513.363281 227.011719 527.234375 213.144531 527.234375 196.035156 C 527.234375 178.925781 513.363281 165.054688 496.253906 165.054688 C 479.144531 165.054688 465.277344 178.925781 465.277344 196.035156 Z M 465.277344 196.035156 " clip-rule="nonzero"/></clipPath><clipPath id="d9df2289a9"><path d="M 496.253906 166.351562 C 512.648438 166.351562 525.9375 179.640625 525.9375 196.035156 C 525.9375 212.425781 512.648438 225.714844 496.253906 225.714844 C 479.863281 225.714844 466.574219 212.425781 466.574219 196.035156 C 466.574219 179.640625 479.863281 166.351562 496.253906 166.351562 Z M 496.253906 166.351562 " clip-rule="nonzero"/></clipPath><clipPath id="ea88f6a26e"><path d="M 465.277344 165.054688 L 526.851562 165.054688 L 526.851562 226.632812 L 465.277344 226.632812 Z M 465.277344 165.054688 " clip-rule="nonzero"/></clipPath><clipPath id="6e295aa230"><path d="M 465.277344 196.035156 C 465.277344 213.144531 479.144531 227.011719 496.253906 227.011719 C 513.363281 227.011719 527.234375 213.144531 527.234375 196.035156 C 527.234375 178.925781 513.363281 165.054688 496.253906 165.054688 C 479.144531 165.054688 465.277344 178.925781 465.277344 196.035156 Z M 465.277344 196.035156 " clip-rule="nonzero"/></clipPath><clipPath id="885ff2665c"><path d="M 465.277344 196.027344 C 465.277344 213.136719 479.144531 227.003906 496.25 227.003906 C 513.355469 227.003906 527.222656 213.136719 527.222656 196.027344 C 527.222656 178.921875 513.355469 165.054688 496.25 165.054688 C 479.144531 165.054688 465.277344 178.921875 465.277344 196.027344 Z M 465.277344 196.027344 " clip-rule="nonzero"/></clipPath><clipPath id="484de71ef8"><rect x="0" width="1442" y="0" height="433"/></clipPath></defs><g clip-path="url(#3831869f3b)"><path fill="#ffffff" d="M 0.0976562 0 L 1499.902344 0 L 1499.902344 599.921875 L 0.0976562 599.921875 Z M 0.0976562 0 " fill-opacity="1" fill-rule="nonzero"/><path fill="#ffffff" d="M 0.0976562 0 L 1499.902344 0 L 1499.902344 599.921875 L 0.0976562 599.921875 Z M 0.0976562 0 " fill-opacity="1" fill-rule="nonzero"/></g><g clip-path="url(#1ce937f91d)"><g transform="matrix(1, 0, 0, 1, 58, 84)"><g clip-path="url(#484de71ef8)"><path stroke-linecap="butt" transform="matrix(0.952882, 0, 0, 0.946528, 365.515418, -155.798445)" fill-opacity="1" fill="#000000" fill-rule="evenodd" stroke-linejoin="miter" d="M 110.671896 169.378964 L 162.390009 169.378964 L 162.390009 425.091566 L 110.671896 425.091566 Z M 110.671896 169.378964 " stroke="#000000" stroke-width="1.207" stroke-opacity="1" stroke-miterlimit="4"/><path stroke-linecap="butt" transform="matrix(0.952882, 0, 0, 0.946528, 365.515418, -155.798445)" fill-opacity="1" fill="#000000" fill-rule="evenodd" stroke-linejoin="miter" d="M 213.058674 169.251029 L 264.776787 169.251029 L 264.776787 424.959505 L 213.058674 424.959505 Z M 213.058674 169.251029 " stroke="#000000" stroke-width="1.207" stroke-opacity="1" stroke-miterlimit="4"/><path stroke-linecap="butt" transform="matrix(0.952882, 0, 0, 0.946528, 365.515418, -155.798445)" fill-opacity="1" fill="#000000" fill-rule="evenodd" stroke-linejoin="miter" d="M 418.16838 168.73929 L 469.886493 168.73929 L 469.886493 424.451893 L 418.16838 424.451893 Z M 418.16838 168.73929 " stroke="#000000" stroke-width="1.207" stroke-opacity="1" stroke-miterlimit="4"/><path stroke-linecap="butt" transform="matrix(0.952882, 0, 0, 0.946528, 365.515418, -155.798445)" fill-opacity="1" fill="#000000" fill-rule="evenodd" stroke-linejoin="miter" d="M 519.968943 169.758641 L 571.687056 169.758641 L 571.687056 425.471243 L 519.968943 425.471243 Z M 519.968943 169.758641 " stroke="#000000" stroke-width="1.207" stroke-opacity="1" stroke-miterlimit="4"/><path stroke-linecap="butt" transform="matrix(0.952882, 0, 0, 0.946528, 365.515418, -155.798445)" fill-opacity="1" fill="#000000" fill-rule="evenodd" stroke-linejoin="miter" d="M 623.798712 169.251029 L 675.516825 169.251029 L 675.516825 424.959505 L 623.798712 424.959505 Z M 623.798712 169.251029 " stroke="#000000" stroke-width="1.207" stroke-opacity="1" stroke-miterlimit="4"/><g clip-path="url(#308e21a42f)"><path stroke-linecap="butt" transform="matrix(0.952882, 0, 0, 0.946528, 365.515418, -155.798445)" fill="none" stroke-linejoin="miter" d="M 33.516965 167.951048 L 751.855973 167.951048 L 751.855973 617.088555 L 33.516965 617.088555 Z M 33.516965 167.951048 " stroke="#000000" stroke-width="2.375" stroke-opacity="1" stroke-miterlimit="4"/></g><g clip-path="url(#348032b462)"><path stroke-linecap="butt" transform="matrix(2.189828, 0, 0, 2.188149, 383.723842, -14.050155)" fill="none" stroke-linejoin="miter" d="M 50.745448 114.679979 L 50.745448 202.136177 " stroke="#000000" stroke-width="2.375" stroke-opacity="1" stroke-miterlimit="4"/></g><g clip-path="url(#a671f02c7d)"><path stroke-linecap="butt" transform="matrix(2.189828, 0, 0, 2.188149, 383.723842, -14.050155)" fill="none" stroke-linejoin="miter" d="M 95.847444 114.260461 L 95.847444 201.716659 " stroke="#000000" stroke-width="2.375" stroke-opacity="1" stroke-miterlimit="4"/></g><g clip-path="url(#f7bc7a973a)"><path stroke-linecap="butt" transform="matrix(2.189828, 0, 0, 2.188149, 383.723842, -14.050155)" fill="none" stroke-linejoin="miter" d="M 184.959742 114.840646 L 184.959742 202.296844 " stroke="#000000" stroke-width="2.375" stroke-opacity="1" stroke-miterlimit="4"/></g><g clip-path="url(#49faa666b0)"><path stroke-linecap="butt" transform="matrix(2.189828, 0, 0, 2.188149, 383.723842, -14.050155)" fill="none" stroke-linejoin="miter" d="M 229.269724 114.840646 L 229.269724 202.296844 " stroke="#000000" stroke-width="2.375" stroke-opacity="1" stroke-miterlimit="4"/></g><g clip-path="url(#9eeb9e6acf)"><path stroke-linecap="butt" transform="matrix(2.189828, 0, 0, 2.188149, 383.723842, -14.050155)" fill="none" stroke-linejoin="miter" d="M 274.68924 114.519312 L 274.68924 201.975511 " stroke="#000000" stroke-width="2.375" stroke-opacity="1" stroke-miterlimit="4"/></g><g clip-path="url(#bf8dd2ea77)"><path stroke-linecap="butt" transform="matrix(2.189828, 0, 0, 2.188149, 383.723842, -14.050155)" fill="none" stroke-linejoin="miter" d="M 140.350079 8.068749 L 140.350079 201.948733 " stroke="#000000" stroke-width="2.375" stroke-opacity="1" stroke-miterlimit="4"/></g><path stroke-linecap="butt" transform="matrix(2.189828, 0, 0, 2.188149, 383.723842, -14.050155)" fill-opacity="1" fill="#000000" fill-rule="nonzero" stroke-linejoin="miter" d="M 42.837793 12.567414 L 61.514343 12.567414 L 61.514343 115.697534 L 42.837793 115.697534 Z M 42.837793 12.567414 " stroke="#000000" stroke-width="5" stroke-opacity="1" stroke-miterlimit="4"/><path stroke-linecap="butt" transform="matrix(0.952882, 0, 0, 0.946528, 365.515418, -155.798445)" fill-opacity="1" fill="#000000" fill-rule="evenodd" stroke-linejoin="miter" d="M 832.081359 167.798351 L 883.799472 167.798351 L 883.799472 423.510953 L 832.081359 423.510953 Z M 832.081359 167.798351 " stroke="#000000" stroke-width="1.207" stroke-opacity="1" stroke-miterlimit="4"/><path stroke-linecap="butt" transform="matrix(0.952882, 0, 0, 0.946528, 365.515418, -155.798445)" fill-opacity="1" fill="#000000" fill-rule="evenodd" stroke-linejoin="miter" d="M 934.468137 167.670417 L 986.18625 167.670417 L 986.18625 423.378892 L 934.468137 423.378892 Z M 934.468137 167.670417 " stroke="#000000" stroke-width="1.207" stroke-opacity="1" stroke-miterlimit="4"/><g clip-path="url(#2ed3418d8e)"><path stroke-linecap="butt" transform="matrix(0.952882, 0, 0, 0.946528, 365.515418, -155.798445)" fill="none" stroke-linejoin="miter" d="M 754.91823 166.370435 L 1473.261338 166.370435 L 1473.261338 615.507942 L 754.91823 615.507942 Z M 754.91823 166.370435 " stroke="#000000" stroke-width="2.375" stroke-opacity="1" stroke-miterlimit="4"/></g><g clip-path="url(#477fc49e00)"><path stroke-linecap="butt" transform="matrix(2.189828, 0, 0, 2.188149, 383.723842, -14.050155)" fill="none" stroke-linejoin="miter" d="M 364.659553 113.999824 L 364.659553 201.456022 " stroke="#000000" stroke-width="2.375" stroke-opacity="1" stroke-miterlimit="4"/></g><path stroke-linecap="butt" transform="matrix(2.189828, 0, 0, 2.188149, 383.723842, -14.050155)" fill="none" stroke-linejoin="miter" d="M 409.759765 113.580305 L 409.759765 201.036504 " stroke="#000000" stroke-width="2.375" stroke-opacity="1" stroke-miterlimit="4"/><g clip-path="url(#ae33fcf4d6)"><path stroke-linecap="butt" transform="matrix(2.189828, 0, 0, 2.188149, 383.723842, -14.050155)" fill="none" stroke-linejoin="miter" d="M 454.260616 7.386808 L 454.260616 201.266793 " stroke="#000000" stroke-width="2.375" stroke-opacity="1" stroke-miterlimit="4"/></g><path stroke-linecap="butt" transform="matrix(2.189828, 0, 0, 2.188149, 383.723842, -14.050155)" fill-opacity="1" fill="#000000" fill-rule="nonzero" stroke-linejoin="miter" d="M 87.092477 11.349918 L 105.769027 11.349918 L 105.769027 114.480038 L 87.092477 114.480038 Z M 87.092477 11.349918 " stroke="#000000" stroke-width="5" stroke-opacity="1" stroke-miterlimit="4"/><path stroke-linecap="butt" transform="matrix(2.189828, 0, 0, 2.188149, 383.723842, -14.050155)" fill-opacity="1" fill="#000000" fill-rule="nonzero" stroke-linejoin="miter" d="M 176.420616 11.349918 L 195.097167 11.349918 L 195.097167 114.480038 L 176.420616 114.480038 Z M 176.420616 11.349918 " stroke="#000000" stroke-width="5" stroke-opacity="1" stroke-miterlimit="4"/><path stroke-linecap="butt" transform="matrix(2.189828, 0, 0, 2.188149, 383.723842, -14.050155)" fill-opacity="1" fill="#000000" fill-rule="nonzero" stroke-linejoin="miter" d="M 220.270374 12.162177 L 238.946924 12.162177 L 238.946924 115.292297 L 220.270374 115.292297 Z M 220.270374 12.162177 " stroke="#000000" stroke-width="5" stroke-opacity="1" stroke-miterlimit="4"/><path stroke-linecap="butt" transform="matrix(2.189828, 0, 0, 2.188149, 383.723842, -14.050155)" fill-opacity="1" fill="#000000" fill-rule="nonzero" stroke-linejoin="miter" d="M 265.739836 12.162177 L 284.416387 12.162177 L 284.416387 115.292297 L 265.739836 115.292297 Z M 265.739836 12.162177 " stroke="#000000" stroke-width="5" stroke-opacity="1" stroke-miterlimit="4"/><path stroke-linecap="butt" transform="matrix(2.189828, 0, 0, 2.188149, 383.723842, -14.050155)" fill-opacity="1" fill="#000000" fill-rule="nonzero" stroke-linejoin="miter" d="M 355.879612 10.537659 L 374.556162 10.537659 L 374.556162 113.667779 L 355.879612 113.667779 Z M 355.879612 10.537659 " stroke="#000000" stroke-width="5" stroke-opacity="1" stroke-miterlimit="4"/><path stroke-linecap="butt" transform="matrix(2.189828, 0, 0, 2.188149, 383.723842, -14.050155)" fill-opacity="1" fill="#000000" fill-rule="nonzero" stroke-linejoin="miter" d="M 401.359777 10.537659 L 420.036328 10.537659 L 420.036328 113.667779 L 401.359777 113.667779 Z M 401.359777 10.537659 " stroke="#000000" stroke-width="5" stroke-opacity="1" stroke-miterlimit="4"/><path stroke-linecap="butt" transform="matrix(0.952882, 0, 0, 0.946528, -1007.94259, -154.265584)" fill-opacity="1" fill="#000000" fill-rule="evenodd" stroke-linejoin="miter" d="M 1139.599567 167.16937 L 1191.317689 167.16937 L 1191.317689 422.881991 L 1139.599567 422.881991 Z M 1139.599567 167.16937 " stroke="#000000" stroke-width="1.207" stroke-opacity="1" stroke-miterlimit="4"/><path stroke-linecap="butt" transform="matrix(0.952882, 0, 0, 0.946528, -1007.94259, -154.265584)" fill-opacity="1" fill="#000000" fill-rule="evenodd" stroke-linejoin="miter" d="M 1241.400148 168.180467 L 1293.11827 168.180467 L 1293.11827 423.888961 L 1241.400148 423.888961 Z M 1241.400148 168.180467 " stroke="#000000" stroke-width="1.207" stroke-opacity="1" stroke-miterlimit="4"/><path stroke-linecap="butt" transform="matrix(0.952882, 0, 0, 0.946528, -1007.94259, -154.265584)" fill-opacity="1" fill="#000000" fill-rule="evenodd" stroke-linejoin="miter" d="M 1345.201239 167.668728 L 1396.919361 167.668728 L 1396.919361 423.381349 L 1345.201239 423.381349 Z M 1345.201239 167.668728 " stroke="#000000" stroke-width="1.207" stroke-opacity="1" stroke-miterlimit="4"/><g clip-path="url(#1636f4c958)"><path stroke-linecap="butt" transform="matrix(0.952882, 0, 0, 0.946528, -1007.94259, -154.265584)" fill="none" stroke-linejoin="miter" d="M 754.919388 166.368746 L 1473.258523 166.368746 L 1473.258523 615.510414 L 754.919388 615.510414 Z M 754.919388 166.368746 " stroke="#000000" stroke-width="2.375" stroke-opacity="1" stroke-miterlimit="4"/></g><g clip-path="url(#1f6bf1cd70)"><path stroke-linecap="butt" transform="matrix(2.189828, 0, 0, 2.188149, -989.734267, -12.517302)" fill="none" stroke-linejoin="miter" d="M 498.870875 114.150844 L 498.870875 201.605267 " stroke="#000000" stroke-width="2.375" stroke-opacity="1" stroke-miterlimit="4"/></g><g clip-path="url(#602d18f02b)"><path stroke-linecap="butt" transform="matrix(2.189828, 0, 0, 2.188149, -989.734267, -12.517302)" fill="none" stroke-linejoin="miter" d="M 543.189786 114.150844 L 543.189786 201.605267 " stroke="#000000" stroke-width="2.375" stroke-opacity="1" stroke-miterlimit="4"/></g><path stroke-linecap="butt" transform="matrix(2.189828, 0, 0, 2.188149, -989.734267, -12.517302)" fill="none" stroke-linejoin="miter" d="M 588.600391 113.840222 L 588.600391 201.29643 " stroke="#000000" stroke-width="2.375" stroke-opacity="1" stroke-miterlimit="4"/><g clip-path="url(#0640cb2591)"><path stroke-linecap="butt" transform="matrix(2.189828, 0, 0, 2.188149, -989.734267, -12.517302)" fill="none" stroke-linejoin="miter" d="M 454.259419 7.386076 L 454.259419 201.266082 " stroke="#000000" stroke-width="2.375" stroke-opacity="1" stroke-miterlimit="4"/></g><path stroke-linecap="butt" transform="matrix(2.189828, 0, 0, 2.188149, -989.734267, -12.517302)" fill-opacity="1" fill="#000000" fill-rule="nonzero" stroke-linejoin="miter" d="M 490.679592 12.973705 L 509.356146 12.973705 L 509.356146 116.103837 L 490.679592 116.103837 Z M 490.679592 12.973705 " stroke="#000000" stroke-width="5" stroke-opacity="1" stroke-miterlimit="4"/><path stroke-linecap="butt" transform="matrix(2.189828, 0, 0, 2.188149, -989.734267, -12.517302)" fill-opacity="1" fill="#000000" fill-rule="nonzero" stroke-linejoin="miter" d="M 534.529358 13.785964 L 553.207697 13.785964 L 553.207697 116.916096 L 534.529358 116.916096 Z M 534.529358 13.785964 " stroke="#000000" stroke-width="5" stroke-opacity="1" stroke-miterlimit="4"/><path stroke-linecap="butt" transform="matrix(2.189828, 0, 0, 2.188149, -989.734267, -12.517302)" fill-opacity="1" fill="#000000" fill-rule="nonzero" stroke-linejoin="miter" d="M 579.199681 12.973705 L 597.876235 12.973705 L 597.876235 116.103837 L 579.199681 116.103837 Z M 579.199681 12.973705 " stroke="#000000" stroke-width="5" stroke-opacity="1" stroke-miterlimit="4"/><g clip-path="url(#aee5d413e4)"><path fill="#000000" d="M 251.898438 340.96875 C 234.890625 340.96875 221.109375 354.746094 221.109375 371.757812 C 221.109375 388.769531 234.890625 402.546875 251.898438 402.546875 C 268.910156 402.546875 282.6875 388.769531 282.6875 371.757812 C 282.6875 354.746094 268.910156 340.96875 251.898438 340.96875 Z M 251.898438 340.96875 " fill-opacity="1" fill-rule="nonzero"/></g><g clip-path="url(#26c09acd97)"><path fill="#000000" d="M 645.503906 340.96875 C 628.492188 340.96875 614.714844 354.746094 614.714844 371.757812 C 614.714844 388.769531 628.492188 402.546875 645.503906 402.546875 C 662.511719 402.546875 676.289062 388.769531 676.289062 371.757812 C 676.289062 354.746094 662.511719 340.96875 645.503906 340.96875 Z M 645.503906 340.96875 " fill-opacity="1" fill-rule="nonzero"/></g><g clip-path="url(#b65c4c4d32)"><g clip-path="url(#2540c57f7c)"><g clip-path="url(#d9df2289a9)"><path fill="#ffffff" d="M 496.25 165.054688 C 479.136719 165.054688 465.277344 178.914062 465.277344 196.027344 C 465.277344 213.140625 479.136719 227.003906 496.25 227.003906 C 513.363281 227.003906 527.222656 213.140625 527.222656 196.027344 C 527.222656 178.914062 513.363281 165.054688 496.25 165.054688 Z M 496.25 165.054688 " fill-opacity="1" fill-rule="nonzero"/></g></g></g><g clip-path="url(#ea88f6a26e)"><g clip-path="url(#6e295aa230)"><g clip-path="url(#885ff2665c)"><path stroke-linecap="butt" transform="matrix(1.080295, 0, 0, 1.080295, 465.276326, 165.054597)" fill="none" stroke-linejoin="miter" d="M 0.000941931 28.670627 C 0.000941931 44.508309 12.837419 57.344786 28.671485 57.344786 C 44.505551 57.344786 57.342028 44.508309 57.342028 28.670627 C 57.342028 12.836561 44.505551 0.0000834335 28.671485 0.0000834335 C 12.837419 0.0000834335 0.000941931 12.836561 0.000941931 28.670627 Z M 0.000941931 28.670627 " stroke="#000000" stroke-width="9.718285" stroke-opacity="1" stroke-miterlimit="4"/></g></g></g></g></g></g></svg>