<svg xmlns="http://www.w3.org/2000/svg" xmlns:xlink="http://www.w3.org/1999/xlink" width="2000" zoomAndPan="magnify" viewBox="0 0 1500 1499.999933" height="2000" preserveAspectRatio="xMidYMid meet" version="1.0"><defs><clipPath id="f4b9ad54bd"><path d="M 150 543 L 199 543 L 199 781 L 150 781 Z M 150 543 " clip-rule="nonzero"/></clipPath><clipPath id="bfe6433c78"><path d="M 77.191406 559.515625 L 77.191406 940.484375 C 77.191406 951.253906 85.921875 959.984375 96.691406 959.984375 L 1403.308594 959.984375 C 1414.078125 959.984375 1422.808594 951.253906 1422.808594 940.484375 L 1422.808594 559.515625 C 1422.808594 548.746094 1414.078125 540.015625 1403.308594 540.015625 L 96.691406 540.015625 C 85.921875 540.015625 77.191406 548.746094 77.191406 559.515625 Z M 77.191406 559.515625 " clip-rule="nonzero"/></clipPath><clipPath id="37c7b0cf37"><path d="M 97.589844 540.914062 L 1402.410156 540.914062 C 1413.179688 540.914062 1421.910156 549.644531 1421.910156 560.414062 L 1421.910156 939.585938 C 1421.910156 950.355469 1413.179688 959.085938 1402.410156 959.085938 L 97.589844 959.085938 C 86.820312 959.085938 78.089844 950.355469 78.089844 939.585938 L 78.089844 560.414062 C 78.089844 549.644531 86.820312 540.914062 97.589844 540.914062 Z M 97.589844 540.914062 " clip-rule="nonzero"/></clipPath><clipPath id="1a0119562b"><path d="M 150 543 L 200 543 L 200 782 L 150 782 Z M 150 543 " clip-rule="nonzero"/></clipPath><clipPath id="7b1e07602e"><path d="M 77.191406 559.515625 L 77.191406 940.484375 C 77.191406 951.253906 85.921875 959.984375 96.691406 959.984375 L 1403.308594 959.984375 C 1414.078125 959.984375 1422.808594 951.253906 1422.808594 940.484375 L 1422.808594 559.515625 C 1422.808594 548.746094 1414.078125 540.015625 1403.308594 540.015625 L 96.691406 540.015625 C 85.921875 540.015625 77.191406 548.746094 77.191406 559.515625 Z M 77.191406 559.515625 " clip-rule="nonzero"/></clipPath><clipPath id="967a4fc6b2"><path d="M 97.589844 540.914062 L 1402.410156 540.914062 C 1413.179688 540.914062 1421.910156 549.644531 1421.910156 560.414062 L 1421.910156 939.585938 C 1421.910156 950.355469 1413.179688 959.085938 1402.410156 959.085938 L 97.589844 959.085938 C 86.820312 959.085938 78.089844 950.355469 78.089844 939.585938 L 78.089844 560.414062 C 78.089844 549.644531 86.820312 540.914062 97.589844 540.914062 Z M 97.589844 540.914062 " clip-rule="nonzero"/></clipPath><clipPath id="b97df6cfb7"><path d="M 246 543 L 295 543 L 295 781 L 246 781 Z M 246 543 " clip-rule="nonzero"/></clipPath><clipPath id="e79d07cdbd"><path d="M 77.191406 559.515625 L 77.191406 940.484375 C 77.191406 951.253906 85.921875 959.984375 96.691406 959.984375 L 1403.308594 959.984375 C 1414.078125 959.984375 1422.808594 951.253906 1422.808594 940.484375 L 1422.808594 559.515625 C 1422.808594 548.746094 1414.078125 540.015625 1403.308594 540.015625 L 96.691406 540.015625 C 85.921875 540.015625 77.191406 548.746094 77.191406 559.515625 Z M 77.191406 559.515625 " clip-rule="nonzero"/></clipPath><clipPath id="8fa7eb68e5"><path d="M 97.589844 540.914062 L 1402.410156 540.914062 C 1413.179688 540.914062 1421.910156 549.644531 1421.910156 560.414062 L 1421.910156 939.585938 C 1421.910156 950.355469 1413.179688 959.085938 1402.410156 959.085938 L 97.589844 959.085938 C 86.820312 959.085938 78.089844 950.355469 78.089844 939.585938 L 78.089844 560.414062 C 78.089844 549.644531 86.820312 540.914062 97.589844 540.914062 Z M 97.589844 540.914062 " clip-rule="nonzero"/></clipPath><clipPath id="9a6a7ce82a"><path d="M 245 543 L 295 543 L 295 782 L 245 782 Z M 245 543 " clip-rule="nonzero"/></clipPath><clipPath id="6747de11ad"><path d="M 77.191406 559.515625 L 77.191406 940.484375 C 77.191406 951.253906 85.921875 959.984375 96.691406 959.984375 L 1403.308594 959.984375 C 1414.078125 959.984375 1422.808594 951.253906 1422.808594 940.484375 L 1422.808594 559.515625 C 1422.808594 548.746094 1414.078125 540.015625 1403.308594 540.015625 L 96.691406 540.015625 C 85.921875 540.015625 77.191406 548.746094 77.191406 559.515625 Z M 77.191406 559.515625 " clip-rule="nonzero"/></clipPath><clipPath id="0891af598b"><path d="M 97.589844 540.914062 L 1402.410156 540.914062 C 1413.179688 540.914062 1421.910156 549.644531 1421.910156 560.414062 L 1421.910156 939.585938 C 1421.910156 950.355469 1413.179688 959.085938 1402.410156 959.085938 L 97.589844 959.085938 C 86.820312 959.085938 78.089844 950.355469 78.089844 939.585938 L 78.089844 560.414062 C 78.089844 549.644531 86.820312 540.914062 97.589844 540.914062 Z M 97.589844 540.914062 " clip-rule="nonzero"/></clipPath><clipPath id="188f1709ea"><path d="M 437 543 L 486 543 L 486 781 L 437 781 Z M 437 543 " clip-rule="nonzero"/></clipPath><clipPath id="6f33398cc2"><path d="M 77.191406 559.515625 L 77.191406 940.484375 C 77.191406 951.253906 85.921875 959.984375 96.691406 959.984375 L 1403.308594 959.984375 C 1414.078125 959.984375 1422.808594 951.253906 1422.808594 940.484375 L 1422.808594 559.515625 C 1422.808594 548.746094 1414.078125 540.015625 1403.308594 540.015625 L 96.691406 540.015625 C 85.921875 540.015625 77.191406 548.746094 77.191406 559.515625 Z M 77.191406 559.515625 " clip-rule="nonzero"/></clipPath><clipPath id="d2b45676d3"><path d="M 97.589844 540.914062 L 1402.410156 540.914062 C 1413.179688 540.914062 1421.910156 549.644531 1421.910156 560.414062 L 1421.910156 939.585938 C 1421.910156 950.355469 1413.179688 959.085938 1402.410156 959.085938 L 97.589844 959.085938 C 86.820312 959.085938 78.089844 950.355469 78.089844 939.585938 L 78.089844 560.414062 C 78.089844 549.644531 86.820312 540.914062 97.589844 540.914062 Z M 97.589844 540.914062 " clip-rule="nonzero"/></clipPath><clipPath id="bb9811dfca"><path d="M 436 542 L 487 542 L 487 781 L 436 781 Z M 436 542 " clip-rule="nonzero"/></clipPath><clipPath id="55dd3a9fb6"><path d="M 77.191406 559.515625 L 77.191406 940.484375 C 77.191406 951.253906 85.921875 959.984375 96.691406 959.984375 L 1403.308594 959.984375 C 1414.078125 959.984375 1422.808594 951.253906 1422.808594 940.484375 L 1422.808594 559.515625 C 1422.808594 548.746094 1414.078125 540.015625 1403.308594 540.015625 L 96.691406 540.015625 C 85.921875 540.015625 77.191406 548.746094 77.191406 559.515625 Z M 77.191406 559.515625 " clip-rule="nonzero"/></clipPath><clipPath id="52237a1869"><path d="M 97.589844 540.914062 L 1402.410156 540.914062 C 1413.179688 540.914062 1421.910156 549.644531 1421.910156 560.414062 L 1421.910156 939.585938 C 1421.910156 950.355469 1413.179688 959.085938 1402.410156 959.085938 L 97.589844 959.085938 C 86.820312 959.085938 78.089844 950.355469 78.089844 939.585938 L 78.089844 560.414062 C 78.089844 549.644531 86.820312 540.914062 97.589844 540.914062 Z M 97.589844 540.914062 " clip-rule="nonzero"/></clipPath><clipPath id="0588674e9d"><path d="M 532 544 L 581 544 L 581 782 L 532 782 Z M 532 544 " clip-rule="nonzero"/></clipPath><clipPath id="5bea8a60a7"><path d="M 77.191406 559.515625 L 77.191406 940.484375 C 77.191406 951.253906 85.921875 959.984375 96.691406 959.984375 L 1403.308594 959.984375 C 1414.078125 959.984375 1422.808594 951.253906 1422.808594 940.484375 L 1422.808594 559.515625 C 1422.808594 548.746094 1414.078125 540.015625 1403.308594 540.015625 L 96.691406 540.015625 C 85.921875 540.015625 77.191406 548.746094 77.191406 559.515625 Z M 77.191406 559.515625 " clip-rule="nonzero"/></clipPath><clipPath id="9a43565b26"><path d="M 97.589844 540.914062 L 1402.410156 540.914062 C 1413.179688 540.914062 1421.910156 549.644531 1421.910156 560.414062 L 1421.910156 939.585938 C 1421.910156 950.355469 1413.179688 959.085938 1402.410156 959.085938 L 97.589844 959.085938 C 86.820312 959.085938 78.089844 950.355469 78.089844 939.585938 L 78.089844 560.414062 C 78.089844 549.644531 86.820312 540.914062 97.589844 540.914062 Z M 97.589844 540.914062 " clip-rule="nonzero"/></clipPath><clipPath id="359c5e4bf0"><path d="M 531 543 L 582 543 L 582 782 L 531 782 Z M 531 543 " clip-rule="nonzero"/></clipPath><clipPath id="8e75de8efd"><path d="M 77.191406 559.515625 L 77.191406 940.484375 C 77.191406 951.253906 85.921875 959.984375 96.691406 959.984375 L 1403.308594 959.984375 C 1414.078125 959.984375 1422.808594 951.253906 1422.808594 940.484375 L 1422.808594 559.515625 C 1422.808594 548.746094 1414.078125 540.015625 1403.308594 540.015625 L 96.691406 540.015625 C 85.921875 540.015625 77.191406 548.746094 77.191406 559.515625 Z M 77.191406 559.515625 " clip-rule="nonzero"/></clipPath><clipPath id="9a872d557e"><path d="M 97.589844 540.914062 L 1402.410156 540.914062 C 1413.179688 540.914062 1421.910156 549.644531 1421.910156 560.414062 L 1421.910156 939.585938 C 1421.910156 950.355469 1413.179688 959.085938 1402.410156 959.085938 L 97.589844 959.085938 C 86.820312 959.085938 78.089844 950.355469 78.089844 939.585938 L 78.089844 560.414062 C 78.089844 549.644531 86.820312 540.914062 97.589844 540.914062 Z M 97.589844 540.914062 " clip-rule="nonzero"/></clipPath><clipPath id="e63422b257"><path d="M 629 543 L 678 543 L 678 781 L 629 781 Z M 629 543 " clip-rule="nonzero"/></clipPath><clipPath id="33c0e63fdb"><path d="M 77.191406 559.515625 L 77.191406 940.484375 C 77.191406 951.253906 85.921875 959.984375 96.691406 959.984375 L 1403.308594 959.984375 C 1414.078125 959.984375 1422.808594 951.253906 1422.808594 940.484375 L 1422.808594 559.515625 C 1422.808594 548.746094 1414.078125 540.015625 1403.308594 540.015625 L 96.691406 540.015625 C 85.921875 540.015625 77.191406 548.746094 77.191406 559.515625 Z M 77.191406 559.515625 " clip-rule="nonzero"/></clipPath><clipPath id="d5297d3ea1"><path d="M 97.589844 540.914062 L 1402.410156 540.914062 C 1413.179688 540.914062 1421.910156 549.644531 1421.910156 560.414062 L 1421.910156 939.585938 C 1421.910156 950.355469 1413.179688 959.085938 1402.410156 959.085938 L 97.589844 959.085938 C 86.820312 959.085938 78.089844 950.355469 78.089844 939.585938 L 78.089844 560.414062 C 78.089844 549.644531 86.820312 540.914062 97.589844 540.914062 Z M 97.589844 540.914062 " clip-rule="nonzero"/></clipPath><clipPath id="664514d9f1"><path d="M 628 543 L 678 543 L 678 782 L 628 782 Z M 628 543 " clip-rule="nonzero"/></clipPath><clipPath id="0d50ae4cf4"><path d="M 77.191406 559.515625 L 77.191406 940.484375 C 77.191406 951.253906 85.921875 959.984375 96.691406 959.984375 L 1403.308594 959.984375 C 1414.078125 959.984375 1422.808594 951.253906 1422.808594 940.484375 L 1422.808594 559.515625 C 1422.808594 548.746094 1414.078125 540.015625 1403.308594 540.015625 L 96.691406 540.015625 C 85.921875 540.015625 77.191406 548.746094 77.191406 559.515625 Z M 77.191406 559.515625 " clip-rule="nonzero"/></clipPath><clipPath id="15e65e19c5"><path d="M 97.589844 540.914062 L 1402.410156 540.914062 C 1413.179688 540.914062 1421.910156 549.644531 1421.910156 560.414062 L 1421.910156 939.585938 C 1421.910156 950.355469 1413.179688 959.085938 1402.410156 959.085938 L 97.589844 959.085938 C 86.820312 959.085938 78.089844 950.355469 78.089844 939.585938 L 78.089844 560.414062 C 78.089844 549.644531 86.820312 540.914062 97.589844 540.914062 Z M 97.589844 540.914062 " clip-rule="nonzero"/></clipPath><clipPath id="a9754a8020"><path d="M 78 541 L 750 541 L 750 959.265625 L 78 959.265625 Z M 78 541 " clip-rule="nonzero"/></clipPath><clipPath id="0f78028a94"><path d="M 77.191406 559.515625 L 77.191406 940.484375 C 77.191406 951.253906 85.921875 959.984375 96.691406 959.984375 L 1403.308594 959.984375 C 1414.078125 959.984375 1422.808594 951.253906 1422.808594 940.484375 L 1422.808594 559.515625 C 1422.808594 548.746094 1414.078125 540.015625 1403.308594 540.015625 L 96.691406 540.015625 C 85.921875 540.015625 77.191406 548.746094 77.191406 559.515625 Z M 77.191406 559.515625 " clip-rule="nonzero"/></clipPath><clipPath id="b2f758526b"><path d="M 97.589844 540.914062 L 1402.410156 540.914062 C 1413.179688 540.914062 1421.910156 549.644531 1421.910156 560.414062 L 1421.910156 939.585938 C 1421.910156 950.355469 1413.179688 959.085938 1402.410156 959.085938 L 97.589844 959.085938 C 86.820312 959.085938 78.089844 950.355469 78.089844 939.585938 L 78.089844 560.414062 C 78.089844 549.644531 86.820312 540.914062 97.589844 540.914062 Z M 97.589844 540.914062 " clip-rule="nonzero"/></clipPath><clipPath id="b1202c2af0"><path d="M 171 768 L 177 768 L 177 959.265625 L 171 959.265625 Z M 171 768 " clip-rule="nonzero"/></clipPath><clipPath id="96c1cf62bd"><path d="M 77.191406 559.515625 L 77.191406 940.484375 C 77.191406 951.253906 85.921875 959.984375 96.691406 959.984375 L 1403.308594 959.984375 C 1414.078125 959.984375 1422.808594 951.253906 1422.808594 940.484375 L 1422.808594 559.515625 C 1422.808594 548.746094 1414.078125 540.015625 1403.308594 540.015625 L 96.691406 540.015625 C 85.921875 540.015625 77.191406 548.746094 77.191406 559.515625 Z M 77.191406 559.515625 " clip-rule="nonzero"/></clipPath><clipPath id="dd59626cff"><path d="M 97.589844 540.914062 L 1402.410156 540.914062 C 1413.179688 540.914062 1421.910156 549.644531 1421.910156 560.414062 L 1421.910156 939.585938 C 1421.910156 950.355469 1413.179688 959.085938 1402.410156 959.085938 L 97.589844 959.085938 C 86.820312 959.085938 78.089844 950.355469 78.089844 939.585938 L 78.089844 560.414062 C 78.089844 549.644531 86.820312 540.914062 97.589844 540.914062 Z M 97.589844 540.914062 " clip-rule="nonzero"/></clipPath><clipPath id="30f54e01e6"><path d="M 268 767 L 274 767 L 274 959.265625 L 268 959.265625 Z M 268 767 " clip-rule="nonzero"/></clipPath><clipPath id="f19c1ddbfb"><path d="M 77.191406 559.515625 L 77.191406 940.484375 C 77.191406 951.253906 85.921875 959.984375 96.691406 959.984375 L 1403.308594 959.984375 C 1414.078125 959.984375 1422.808594 951.253906 1422.808594 940.484375 L 1422.808594 559.515625 C 1422.808594 548.746094 1414.078125 540.015625 1403.308594 540.015625 L 96.691406 540.015625 C 85.921875 540.015625 77.191406 548.746094 77.191406 559.515625 Z M 77.191406 559.515625 " clip-rule="nonzero"/></clipPath><clipPath id="e9ff729569"><path d="M 97.589844 540.914062 L 1402.410156 540.914062 C 1413.179688 540.914062 1421.910156 549.644531 1421.910156 560.414062 L 1421.910156 939.585938 C 1421.910156 950.355469 1413.179688 959.085938 1402.410156 959.085938 L 97.589844 959.085938 C 86.820312 959.085938 78.089844 950.355469 78.089844 939.585938 L 78.089844 560.414062 C 78.089844 549.644531 86.820312 540.914062 97.589844 540.914062 Z M 97.589844 540.914062 " clip-rule="nonzero"/></clipPath><clipPath id="d0f97611e3"><path d="M 459 769 L 465 769 L 465 959.265625 L 459 959.265625 Z M 459 769 " clip-rule="nonzero"/></clipPath><clipPath id="2016599654"><path d="M 77.191406 559.515625 L 77.191406 940.484375 C 77.191406 951.253906 85.921875 959.984375 96.691406 959.984375 L 1403.308594 959.984375 C 1414.078125 959.984375 1422.808594 951.253906 1422.808594 940.484375 L 1422.808594 559.515625 C 1422.808594 548.746094 1414.078125 540.015625 1403.308594 540.015625 L 96.691406 540.015625 C 85.921875 540.015625 77.191406 548.746094 77.191406 559.515625 Z M 77.191406 559.515625 " clip-rule="nonzero"/></clipPath><clipPath id="057c5cdc7f"><path d="M 97.589844 540.914062 L 1402.410156 540.914062 C 1413.179688 540.914062 1421.910156 549.644531 1421.910156 560.414062 L 1421.910156 939.585938 C 1421.910156 950.355469 1413.179688 959.085938 1402.410156 959.085938 L 97.589844 959.085938 C 86.820312 959.085938 78.089844 950.355469 78.089844 939.585938 L 78.089844 560.414062 C 78.089844 549.644531 86.820312 540.914062 97.589844 540.914062 Z M 97.589844 540.914062 " clip-rule="nonzero"/></clipPath><clipPath id="272cc98746"><path d="M 553 769 L 560 769 L 560 959.265625 L 553 959.265625 Z M 553 769 " clip-rule="nonzero"/></clipPath><clipPath id="6e961eea83"><path d="M 77.191406 559.515625 L 77.191406 940.484375 C 77.191406 951.253906 85.921875 959.984375 96.691406 959.984375 L 1403.308594 959.984375 C 1414.078125 959.984375 1422.808594 951.253906 1422.808594 940.484375 L 1422.808594 559.515625 C 1422.808594 548.746094 1414.078125 540.015625 1403.308594 540.015625 L 96.691406 540.015625 C 85.921875 540.015625 77.191406 548.746094 77.191406 559.515625 Z M 77.191406 559.515625 " clip-rule="nonzero"/></clipPath><clipPath id="ae4ddd2a8b"><path d="M 97.589844 540.914062 L 1402.410156 540.914062 C 1413.179688 540.914062 1421.910156 549.644531 1421.910156 560.414062 L 1421.910156 939.585938 C 1421.910156 950.355469 1413.179688 959.085938 1402.410156 959.085938 L 97.589844 959.085938 C 86.820312 959.085938 78.089844 950.355469 78.089844 939.585938 L 78.089844 560.414062 C 78.089844 549.644531 86.820312 540.914062 97.589844 540.914062 Z M 97.589844 540.914062 " clip-rule="nonzero"/></clipPath><clipPath id="cb4eb16572"><path d="M 651 768 L 657 768 L 657 959.265625 L 651 959.265625 Z M 651 768 " clip-rule="nonzero"/></clipPath><clipPath id="7ac9c46ac0"><path d="M 77.191406 559.515625 L 77.191406 940.484375 C 77.191406 951.253906 85.921875 959.984375 96.691406 959.984375 L 1403.308594 959.984375 C 1414.078125 959.984375 1422.808594 951.253906 1422.808594 940.484375 L 1422.808594 559.515625 C 1422.808594 548.746094 1414.078125 540.015625 1403.308594 540.015625 L 96.691406 540.015625 C 85.921875 540.015625 77.191406 548.746094 77.191406 559.515625 Z M 77.191406 559.515625 " clip-rule="nonzero"/></clipPath><clipPath id="f9d4885ea5"><path d="M 97.589844 540.914062 L 1402.410156 540.914062 C 1413.179688 540.914062 1421.910156 549.644531 1421.910156 560.414062 L 1421.910156 939.585938 C 1421.910156 950.355469 1413.179688 959.085938 1402.410156 959.085938 L 97.589844 959.085938 C 86.820312 959.085938 78.089844 950.355469 78.089844 939.585938 L 78.089844 560.414062 C 78.089844 549.644531 86.820312 540.914062 97.589844 540.914062 Z M 97.589844 540.914062 " clip-rule="nonzero"/></clipPath><clipPath id="d1fddc0162"><path d="M 363 540.765625 L 369 540.765625 L 369 959.265625 L 363 959.265625 Z M 363 540.765625 " clip-rule="nonzero"/></clipPath><clipPath id="2245eff86e"><path d="M 77.191406 559.515625 L 77.191406 940.484375 C 77.191406 951.253906 85.921875 959.984375 96.691406 959.984375 L 1403.308594 959.984375 C 1414.078125 959.984375 1422.808594 951.253906 1422.808594 940.484375 L 1422.808594 559.515625 C 1422.808594 548.746094 1414.078125 540.015625 1403.308594 540.015625 L 96.691406 540.015625 C 85.921875 540.015625 77.191406 548.746094 77.191406 559.515625 Z M 77.191406 559.515625 " clip-rule="nonzero"/></clipPath><clipPath id="807f4b5137"><path d="M 97.589844 540.914062 L 1402.410156 540.914062 C 1413.179688 540.914062 1421.910156 549.644531 1421.910156 560.414062 L 1421.910156 939.585938 C 1421.910156 950.355469 1413.179688 959.085938 1402.410156 959.085938 L 97.589844 959.085938 C 86.820312 959.085938 78.089844 950.355469 78.089844 939.585938 L 78.089844 560.414062 C 78.089844 549.644531 86.820312 540.914062 97.589844 540.914062 Z M 97.589844 540.914062 " clip-rule="nonzero"/></clipPath><clipPath id="b73f79ebc9"><path d="M 157 552 L 198 552 L 198 774 L 157 774 Z M 157 552 " clip-rule="nonzero"/></clipPath><clipPath id="918b615e95"><path d="M 77.191406 559.515625 L 77.191406 940.484375 C 77.191406 951.253906 85.921875 959.984375 96.691406 959.984375 L 1403.308594 959.984375 C 1414.078125 959.984375 1422.808594 951.253906 1422.808594 940.484375 L 1422.808594 559.515625 C 1422.808594 548.746094 1414.078125 540.015625 1403.308594 540.015625 L 96.691406 540.015625 C 85.921875 540.015625 77.191406 548.746094 77.191406 559.515625 Z M 77.191406 559.515625 " clip-rule="nonzero"/></clipPath><clipPath id="6fbf672709"><path d="M 97.589844 540.914062 L 1402.410156 540.914062 C 1413.179688 540.914062 1421.910156 549.644531 1421.910156 560.414062 L 1421.910156 939.585938 C 1421.910156 950.355469 1413.179688 959.085938 1402.410156 959.085938 L 97.589844 959.085938 C 86.820312 959.085938 78.089844 950.355469 78.089844 939.585938 L 78.089844 560.414062 C 78.089844 549.644531 86.820312 540.914062 97.589844 540.914062 Z M 97.589844 540.914062 " clip-rule="nonzero"/></clipPath><clipPath id="65b4b5951a"><path d="M 151 547 L 203 547 L 203 779 L 151 779 Z M 151 547 " clip-rule="nonzero"/></clipPath><clipPath id="c4eaf99d74"><path d="M 77.191406 559.515625 L 77.191406 940.484375 C 77.191406 951.253906 85.921875 959.984375 96.691406 959.984375 L 1403.308594 959.984375 C 1414.078125 959.984375 1422.808594 951.253906 1422.808594 940.484375 L 1422.808594 559.515625 C 1422.808594 548.746094 1414.078125 540.015625 1403.308594 540.015625 L 96.691406 540.015625 C 85.921875 540.015625 77.191406 548.746094 77.191406 559.515625 Z M 77.191406 559.515625 " clip-rule="nonzero"/></clipPath><clipPath id="c0731ede0e"><path d="M 97.589844 540.914062 L 1402.410156 540.914062 C 1413.179688 540.914062 1421.910156 549.644531 1421.910156 560.414062 L 1421.910156 939.585938 C 1421.910156 950.355469 1413.179688 959.085938 1402.410156 959.085938 L 97.589844 959.085938 C 86.820312 959.085938 78.089844 950.355469 78.089844 939.585938 L 78.089844 560.414062 C 78.089844 549.644531 86.820312 540.914062 97.589844 540.914062 Z M 97.589844 540.914062 " clip-rule="nonzero"/></clipPath><clipPath id="149d4b404f"><path d="M 823 542 L 872 542 L 872 780 L 823 780 Z M 823 542 " clip-rule="nonzero"/></clipPath><clipPath id="8ba9d622aa"><path d="M 77.191406 559.515625 L 77.191406 940.484375 C 77.191406 951.253906 85.921875 959.984375 96.691406 959.984375 L 1403.308594 959.984375 C 1414.078125 959.984375 1422.808594 951.253906 1422.808594 940.484375 L 1422.808594 559.515625 C 1422.808594 548.746094 1414.078125 540.015625 1403.308594 540.015625 L 96.691406 540.015625 C 85.921875 540.015625 77.191406 548.746094 77.191406 559.515625 Z M 77.191406 559.515625 " clip-rule="nonzero"/></clipPath><clipPath id="73a49c734f"><path d="M 97.589844 540.914062 L 1402.410156 540.914062 C 1413.179688 540.914062 1421.910156 549.644531 1421.910156 560.414062 L 1421.910156 939.585938 C 1421.910156 950.355469 1413.179688 959.085938 1402.410156 959.085938 L 97.589844 959.085938 C 86.820312 959.085938 78.089844 950.355469 78.089844 939.585938 L 78.089844 560.414062 C 78.089844 549.644531 86.820312 540.914062 97.589844 540.914062 Z M 97.589844 540.914062 " clip-rule="nonzero"/></clipPath><clipPath id="bde34a0aa9"><path d="M 822 541 L 873 541 L 873 780 L 822 780 Z M 822 541 " clip-rule="nonzero"/></clipPath><clipPath id="ab8e886dcb"><path d="M 77.191406 559.515625 L 77.191406 940.484375 C 77.191406 951.253906 85.921875 959.984375 96.691406 959.984375 L 1403.308594 959.984375 C 1414.078125 959.984375 1422.808594 951.253906 1422.808594 940.484375 L 1422.808594 559.515625 C 1422.808594 548.746094 1414.078125 540.015625 1403.308594 540.015625 L 96.691406 540.015625 C 85.921875 540.015625 77.191406 548.746094 77.191406 559.515625 Z M 77.191406 559.515625 " clip-rule="nonzero"/></clipPath><clipPath id="c350f007da"><path d="M 97.589844 540.914062 L 1402.410156 540.914062 C 1413.179688 540.914062 1421.910156 549.644531 1421.910156 560.414062 L 1421.910156 939.585938 C 1421.910156 950.355469 1413.179688 959.085938 1402.410156 959.085938 L 97.589844 959.085938 C 86.820312 959.085938 78.089844 950.355469 78.089844 939.585938 L 78.089844 560.414062 C 78.089844 549.644531 86.820312 540.914062 97.589844 540.914062 Z M 97.589844 540.914062 " clip-rule="nonzero"/></clipPath><clipPath id="a7166fb30c"><path d="M 918 542 L 967 542 L 967 780 L 918 780 Z M 918 542 " clip-rule="nonzero"/></clipPath><clipPath id="138f799f77"><path d="M 77.191406 559.515625 L 77.191406 940.484375 C 77.191406 951.253906 85.921875 959.984375 96.691406 959.984375 L 1403.308594 959.984375 C 1414.078125 959.984375 1422.808594 951.253906 1422.808594 940.484375 L 1422.808594 559.515625 C 1422.808594 548.746094 1414.078125 540.015625 1403.308594 540.015625 L 96.691406 540.015625 C 85.921875 540.015625 77.191406 548.746094 77.191406 559.515625 Z M 77.191406 559.515625 " clip-rule="nonzero"/></clipPath><clipPath id="bdaef49908"><path d="M 97.589844 540.914062 L 1402.410156 540.914062 C 1413.179688 540.914062 1421.910156 549.644531 1421.910156 560.414062 L 1421.910156 939.585938 C 1421.910156 950.355469 1413.179688 959.085938 1402.410156 959.085938 L 97.589844 959.085938 C 86.820312 959.085938 78.089844 950.355469 78.089844 939.585938 L 78.089844 560.414062 C 78.089844 549.644531 86.820312 540.914062 97.589844 540.914062 Z M 97.589844 540.914062 " clip-rule="nonzero"/></clipPath><clipPath id="a78b418b2c"><path d="M 918 541 L 968 541 L 968 780 L 918 780 Z M 918 541 " clip-rule="nonzero"/></clipPath><clipPath id="66b53339cb"><path d="M 77.191406 559.515625 L 77.191406 940.484375 C 77.191406 951.253906 85.921875 959.984375 96.691406 959.984375 L 1403.308594 959.984375 C 1414.078125 959.984375 1422.808594 951.253906 1422.808594 940.484375 L 1422.808594 559.515625 C 1422.808594 548.746094 1414.078125 540.015625 1403.308594 540.015625 L 96.691406 540.015625 C 85.921875 540.015625 77.191406 548.746094 77.191406 559.515625 Z M 77.191406 559.515625 " clip-rule="nonzero"/></clipPath><clipPath id="d2a1e8f709"><path d="M 97.589844 540.914062 L 1402.410156 540.914062 C 1413.179688 540.914062 1421.910156 549.644531 1421.910156 560.414062 L 1421.910156 939.585938 C 1421.910156 950.355469 1413.179688 959.085938 1402.410156 959.085938 L 97.589844 959.085938 C 86.820312 959.085938 78.089844 950.355469 78.089844 939.585938 L 78.089844 560.414062 C 78.089844 549.644531 86.820312 540.914062 97.589844 540.914062 Z M 97.589844 540.914062 " clip-rule="nonzero"/></clipPath><clipPath id="42f8d74e2f"><path d="M 1109 541 L 1159 541 L 1159 779 L 1109 779 Z M 1109 541 " clip-rule="nonzero"/></clipPath><clipPath id="60697355ed"><path d="M 77.191406 559.515625 L 77.191406 940.484375 C 77.191406 951.253906 85.921875 959.984375 96.691406 959.984375 L 1403.308594 959.984375 C 1414.078125 959.984375 1422.808594 951.253906 1422.808594 940.484375 L 1422.808594 559.515625 C 1422.808594 548.746094 1414.078125 540.015625 1403.308594 540.015625 L 96.691406 540.015625 C 85.921875 540.015625 77.191406 548.746094 77.191406 559.515625 Z M 77.191406 559.515625 " clip-rule="nonzero"/></clipPath><clipPath id="d634943aeb"><path d="M 97.589844 540.914062 L 1402.410156 540.914062 C 1413.179688 540.914062 1421.910156 549.644531 1421.910156 560.414062 L 1421.910156 939.585938 C 1421.910156 950.355469 1413.179688 959.085938 1402.410156 959.085938 L 97.589844 959.085938 C 86.820312 959.085938 78.089844 950.355469 78.089844 939.585938 L 78.089844 560.414062 C 78.089844 549.644531 86.820312 540.914062 97.589844 540.914062 Z M 97.589844 540.914062 " clip-rule="nonzero"/></clipPath><clipPath id="d697883714"><path d="M 1109 541 L 1159 541 L 1159 780 L 1109 780 Z M 1109 541 " clip-rule="nonzero"/></clipPath><clipPath id="7ab4514dc4"><path d="M 77.191406 559.515625 L 77.191406 940.484375 C 77.191406 951.253906 85.921875 959.984375 96.691406 959.984375 L 1403.308594 959.984375 C 1414.078125 959.984375 1422.808594 951.253906 1422.808594 940.484375 L 1422.808594 559.515625 C 1422.808594 548.746094 1414.078125 540.015625 1403.308594 540.015625 L 96.691406 540.015625 C 85.921875 540.015625 77.191406 548.746094 77.191406 559.515625 Z M 77.191406 559.515625 " clip-rule="nonzero"/></clipPath><clipPath id="fac90493a8"><path d="M 97.589844 540.914062 L 1402.410156 540.914062 C 1413.179688 540.914062 1421.910156 549.644531 1421.910156 560.414062 L 1421.910156 939.585938 C 1421.910156 950.355469 1413.179688 959.085938 1402.410156 959.085938 L 97.589844 959.085938 C 86.820312 959.085938 78.089844 950.355469 78.089844 939.585938 L 78.089844 560.414062 C 78.089844 549.644531 86.820312 540.914062 97.589844 540.914062 Z M 97.589844 540.914062 " clip-rule="nonzero"/></clipPath><clipPath id="d76ce9ee69"><path d="M 1204 542 L 1254 542 L 1254 780 L 1204 780 Z M 1204 542 " clip-rule="nonzero"/></clipPath><clipPath id="06d010030f"><path d="M 77.191406 559.515625 L 77.191406 940.484375 C 77.191406 951.253906 85.921875 959.984375 96.691406 959.984375 L 1403.308594 959.984375 C 1414.078125 959.984375 1422.808594 951.253906 1422.808594 940.484375 L 1422.808594 559.515625 C 1422.808594 548.746094 1414.078125 540.015625 1403.308594 540.015625 L 96.691406 540.015625 C 85.921875 540.015625 77.191406 548.746094 77.191406 559.515625 Z M 77.191406 559.515625 " clip-rule="nonzero"/></clipPath><clipPath id="67a546a18e"><path d="M 97.589844 540.914062 L 1402.410156 540.914062 C 1413.179688 540.914062 1421.910156 549.644531 1421.910156 560.414062 L 1421.910156 939.585938 C 1421.910156 950.355469 1413.179688 959.085938 1402.410156 959.085938 L 97.589844 959.085938 C 86.820312 959.085938 78.089844 950.355469 78.089844 939.585938 L 78.089844 560.414062 C 78.089844 549.644531 86.820312 540.914062 97.589844 540.914062 Z M 97.589844 540.914062 " clip-rule="nonzero"/></clipPath><clipPath id="2cc6c2ce8e"><path d="M 1204 542 L 1254 542 L 1254 781 L 1204 781 Z M 1204 542 " clip-rule="nonzero"/></clipPath><clipPath id="796385bc7d"><path d="M 77.191406 559.515625 L 77.191406 940.484375 C 77.191406 951.253906 85.921875 959.984375 96.691406 959.984375 L 1403.308594 959.984375 C 1414.078125 959.984375 1422.808594 951.253906 1422.808594 940.484375 L 1422.808594 559.515625 C 1422.808594 548.746094 1414.078125 540.015625 1403.308594 540.015625 L 96.691406 540.015625 C 85.921875 540.015625 77.191406 548.746094 77.191406 559.515625 Z M 77.191406 559.515625 " clip-rule="nonzero"/></clipPath><clipPath id="37bb252245"><path d="M 97.589844 540.914062 L 1402.410156 540.914062 C 1413.179688 540.914062 1421.910156 549.644531 1421.910156 560.414062 L 1421.910156 939.585938 C 1421.910156 950.355469 1413.179688 959.085938 1402.410156 959.085938 L 97.589844 959.085938 C 86.820312 959.085938 78.089844 950.355469 78.089844 939.585938 L 78.089844 560.414062 C 78.089844 549.644531 86.820312 540.914062 97.589844 540.914062 Z M 97.589844 540.914062 " clip-rule="nonzero"/></clipPath><clipPath id="dec6371a3c"><path d="M 1301 542 L 1350 542 L 1350 780 L 1301 780 Z M 1301 542 " clip-rule="nonzero"/></clipPath><clipPath id="6db5bd2c48"><path d="M 77.191406 559.515625 L 77.191406 940.484375 C 77.191406 951.253906 85.921875 959.984375 96.691406 959.984375 L 1403.308594 959.984375 C 1414.078125 959.984375 1422.808594 951.253906 1422.808594 940.484375 L 1422.808594 559.515625 C 1422.808594 548.746094 1414.078125 540.015625 1403.308594 540.015625 L 96.691406 540.015625 C 85.921875 540.015625 77.191406 548.746094 77.191406 559.515625 Z M 77.191406 559.515625 " clip-rule="nonzero"/></clipPath><clipPath id="a4275ea316"><path d="M 97.589844 540.914062 L 1402.410156 540.914062 C 1413.179688 540.914062 1421.910156 549.644531 1421.910156 560.414062 L 1421.910156 939.585938 C 1421.910156 950.355469 1413.179688 959.085938 1402.410156 959.085938 L 97.589844 959.085938 C 86.820312 959.085938 78.089844 950.355469 78.089844 939.585938 L 78.089844 560.414062 C 78.089844 549.644531 86.820312 540.914062 97.589844 540.914062 Z M 97.589844 540.914062 " clip-rule="nonzero"/></clipPath><clipPath id="7aa787e402"><path d="M 1301 541 L 1351 541 L 1351 780 L 1301 780 Z M 1301 541 " clip-rule="nonzero"/></clipPath><clipPath id="43c4ebf371"><path d="M 77.191406 559.515625 L 77.191406 940.484375 C 77.191406 951.253906 85.921875 959.984375 96.691406 959.984375 L 1403.308594 959.984375 C 1414.078125 959.984375 1422.808594 951.253906 1422.808594 940.484375 L 1422.808594 559.515625 C 1422.808594 548.746094 1414.078125 540.015625 1403.308594 540.015625 L 96.691406 540.015625 C 85.921875 540.015625 77.191406 548.746094 77.191406 559.515625 Z M 77.191406 559.515625 " clip-rule="nonzero"/></clipPath><clipPath id="d9723b81a5"><path d="M 97.589844 540.914062 L 1402.410156 540.914062 C 1413.179688 540.914062 1421.910156 549.644531 1421.910156 560.414062 L 1421.910156 939.585938 C 1421.910156 950.355469 1413.179688 959.085938 1402.410156 959.085938 L 97.589844 959.085938 C 86.820312 959.085938 78.089844 950.355469 78.089844 939.585938 L 78.089844 560.414062 C 78.089844 549.644531 86.820312 540.914062 97.589844 540.914062 Z M 97.589844 540.914062 " clip-rule="nonzero"/></clipPath><clipPath id="5761165d2c"><path d="M 750 540.765625 L 1421.941406 540.765625 L 1421.941406 959 L 750 959 Z M 750 540.765625 " clip-rule="nonzero"/></clipPath><clipPath id="c3c0f1f121"><path d="M 77.191406 559.515625 L 77.191406 940.484375 C 77.191406 951.253906 85.921875 959.984375 96.691406 959.984375 L 1403.308594 959.984375 C 1414.078125 959.984375 1422.808594 951.253906 1422.808594 940.484375 L 1422.808594 559.515625 C 1422.808594 548.746094 1414.078125 540.015625 1403.308594 540.015625 L 96.691406 540.015625 C 85.921875 540.015625 77.191406 548.746094 77.191406 559.515625 Z M 77.191406 559.515625 " clip-rule="nonzero"/></clipPath><clipPath id="745c065457"><path d="M 97.589844 540.914062 L 1402.410156 540.914062 C 1413.179688 540.914062 1421.910156 549.644531 1421.910156 560.414062 L 1421.910156 939.585938 C 1421.910156 950.355469 1413.179688 959.085938 1402.410156 959.085938 L 97.589844 959.085938 C 86.820312 959.085938 78.089844 950.355469 78.089844 939.585938 L 78.089844 560.414062 C 78.089844 549.644531 86.820312 540.914062 97.589844 540.914062 Z M 97.589844 540.914062 " clip-rule="nonzero"/></clipPath><clipPath id="e39243c857"><path d="M 844 767 L 850 767 L 850 959.265625 L 844 959.265625 Z M 844 767 " clip-rule="nonzero"/></clipPath><clipPath id="fada9045ad"><path d="M 77.191406 559.515625 L 77.191406 940.484375 C 77.191406 951.253906 85.921875 959.984375 96.691406 959.984375 L 1403.308594 959.984375 C 1414.078125 959.984375 1422.808594 951.253906 1422.808594 940.484375 L 1422.808594 559.515625 C 1422.808594 548.746094 1414.078125 540.015625 1403.308594 540.015625 L 96.691406 540.015625 C 85.921875 540.015625 77.191406 548.746094 77.191406 559.515625 Z M 77.191406 559.515625 " clip-rule="nonzero"/></clipPath><clipPath id="8f7916c024"><path d="M 97.589844 540.914062 L 1402.410156 540.914062 C 1413.179688 540.914062 1421.910156 549.644531 1421.910156 560.414062 L 1421.910156 939.585938 C 1421.910156 950.355469 1413.179688 959.085938 1402.410156 959.085938 L 97.589844 959.085938 C 86.820312 959.085938 78.089844 950.355469 78.089844 939.585938 L 78.089844 560.414062 C 78.089844 549.644531 86.820312 540.914062 97.589844 540.914062 Z M 97.589844 540.914062 " clip-rule="nonzero"/></clipPath><clipPath id="211cbddec5"><path d="M 940 766 L 946 766 L 946 959 L 940 959 Z M 940 766 " clip-rule="nonzero"/></clipPath><clipPath id="c9726549a2"><path d="M 77.191406 559.515625 L 77.191406 940.484375 C 77.191406 951.253906 85.921875 959.984375 96.691406 959.984375 L 1403.308594 959.984375 C 1414.078125 959.984375 1422.808594 951.253906 1422.808594 940.484375 L 1422.808594 559.515625 C 1422.808594 548.746094 1414.078125 540.015625 1403.308594 540.015625 L 96.691406 540.015625 C 85.921875 540.015625 77.191406 548.746094 77.191406 559.515625 Z M 77.191406 559.515625 " clip-rule="nonzero"/></clipPath><clipPath id="254e9b7759"><path d="M 97.589844 540.914062 L 1402.410156 540.914062 C 1413.179688 540.914062 1421.910156 549.644531 1421.910156 560.414062 L 1421.910156 939.585938 C 1421.910156 950.355469 1413.179688 959.085938 1402.410156 959.085938 L 97.589844 959.085938 C 86.820312 959.085938 78.089844 950.355469 78.089844 939.585938 L 78.089844 560.414062 C 78.089844 549.644531 86.820312 540.914062 97.589844 540.914062 Z M 97.589844 540.914062 " clip-rule="nonzero"/></clipPath><clipPath id="4977024e30"><path d="M 1131 767 L 1137 767 L 1137 959.265625 L 1131 959.265625 Z M 1131 767 " clip-rule="nonzero"/></clipPath><clipPath id="1342fb2639"><path d="M 77.191406 559.515625 L 77.191406 940.484375 C 77.191406 951.253906 85.921875 959.984375 96.691406 959.984375 L 1403.308594 959.984375 C 1414.078125 959.984375 1422.808594 951.253906 1422.808594 940.484375 L 1422.808594 559.515625 C 1422.808594 548.746094 1414.078125 540.015625 1403.308594 540.015625 L 96.691406 540.015625 C 85.921875 540.015625 77.191406 548.746094 77.191406 559.515625 Z M 77.191406 559.515625 " clip-rule="nonzero"/></clipPath><clipPath id="76be4430fc"><path d="M 97.589844 540.914062 L 1402.410156 540.914062 C 1413.179688 540.914062 1421.910156 549.644531 1421.910156 560.414062 L 1421.910156 939.585938 C 1421.910156 950.355469 1413.179688 959.085938 1402.410156 959.085938 L 97.589844 959.085938 C 86.820312 959.085938 78.089844 950.355469 78.089844 939.585938 L 78.089844 560.414062 C 78.089844 549.644531 86.820312 540.914062 97.589844 540.914062 Z M 97.589844 540.914062 " clip-rule="nonzero"/></clipPath><clipPath id="41fd8647e7"><path d="M 1226 767 L 1232 767 L 1232 959.265625 L 1226 959.265625 Z M 1226 767 " clip-rule="nonzero"/></clipPath><clipPath id="8f9635808a"><path d="M 77.191406 559.515625 L 77.191406 940.484375 C 77.191406 951.253906 85.921875 959.984375 96.691406 959.984375 L 1403.308594 959.984375 C 1414.078125 959.984375 1422.808594 951.253906 1422.808594 940.484375 L 1422.808594 559.515625 C 1422.808594 548.746094 1414.078125 540.015625 1403.308594 540.015625 L 96.691406 540.015625 C 85.921875 540.015625 77.191406 548.746094 77.191406 559.515625 Z M 77.191406 559.515625 " clip-rule="nonzero"/></clipPath><clipPath id="be43a4fe13"><path d="M 97.589844 540.914062 L 1402.410156 540.914062 C 1413.179688 540.914062 1421.910156 549.644531 1421.910156 560.414062 L 1421.910156 939.585938 C 1421.910156 950.355469 1413.179688 959.085938 1402.410156 959.085938 L 97.589844 959.085938 C 86.820312 959.085938 78.089844 950.355469 78.089844 939.585938 L 78.089844 560.414062 C 78.089844 549.644531 86.820312 540.914062 97.589844 540.914062 Z M 97.589844 540.914062 " clip-rule="nonzero"/></clipPath><clipPath id="0c1f1f8b81"><path d="M 1323 767 L 1329 767 L 1329 959.265625 L 1323 959.265625 Z M 1323 767 " clip-rule="nonzero"/></clipPath><clipPath id="3ba49e6a90"><path d="M 77.191406 559.515625 L 77.191406 940.484375 C 77.191406 951.253906 85.921875 959.984375 96.691406 959.984375 L 1403.308594 959.984375 C 1414.078125 959.984375 1422.808594 951.253906 1422.808594 940.484375 L 1422.808594 559.515625 C 1422.808594 548.746094 1414.078125 540.015625 1403.308594 540.015625 L 96.691406 540.015625 C 85.921875 540.015625 77.191406 548.746094 77.191406 559.515625 Z M 77.191406 559.515625 " clip-rule="nonzero"/></clipPath><clipPath id="54995b34b4"><path d="M 97.589844 540.914062 L 1402.410156 540.914062 C 1413.179688 540.914062 1421.910156 549.644531 1421.910156 560.414062 L 1421.910156 939.585938 C 1421.910156 950.355469 1413.179688 959.085938 1402.410156 959.085938 L 97.589844 959.085938 C 86.820312 959.085938 78.089844 950.355469 78.089844 939.585938 L 78.089844 560.414062 C 78.089844 549.644531 86.820312 540.914062 97.589844 540.914062 Z M 97.589844 540.914062 " clip-rule="nonzero"/></clipPath><clipPath id="88340a870e"><path d="M 1036 540.765625 L 1042 540.765625 L 1042 959.265625 L 1036 959.265625 Z M 1036 540.765625 " clip-rule="nonzero"/></clipPath><clipPath id="b4b786d162"><path d="M 77.191406 559.515625 L 77.191406 940.484375 C 77.191406 951.253906 85.921875 959.984375 96.691406 959.984375 L 1403.308594 959.984375 C 1414.078125 959.984375 1422.808594 951.253906 1422.808594 940.484375 L 1422.808594 559.515625 C 1422.808594 548.746094 1414.078125 540.015625 1403.308594 540.015625 L 96.691406 540.015625 C 85.921875 540.015625 77.191406 548.746094 77.191406 559.515625 Z M 77.191406 559.515625 " clip-rule="nonzero"/></clipPath><clipPath id="cf40d0b5a1"><path d="M 97.589844 540.914062 L 1402.410156 540.914062 C 1413.179688 540.914062 1421.910156 549.644531 1421.910156 560.414062 L 1421.910156 939.585938 C 1421.910156 950.355469 1413.179688 959.085938 1402.410156 959.085938 L 97.589844 959.085938 C 86.820312 959.085938 78.089844 950.355469 78.089844 939.585938 L 78.089844 560.414062 C 78.089844 549.644531 86.820312 540.914062 97.589844 540.914062 Z M 97.589844 540.914062 " clip-rule="nonzero"/></clipPath><clipPath id="2ea5148c67"><path d="M 251 549 L 292 549 L 292 771 L 251 771 Z M 251 549 " clip-rule="nonzero"/></clipPath><clipPath id="6ac4ce841a"><path d="M 77.191406 559.515625 L 77.191406 940.484375 C 77.191406 951.253906 85.921875 959.984375 96.691406 959.984375 L 1403.308594 959.984375 C 1414.078125 959.984375 1422.808594 951.253906 1422.808594 940.484375 L 1422.808594 559.515625 C 1422.808594 548.746094 1414.078125 540.015625 1403.308594 540.015625 L 96.691406 540.015625 C 85.921875 540.015625 77.191406 548.746094 77.191406 559.515625 Z M 77.191406 559.515625 " clip-rule="nonzero"/></clipPath><clipPath id="5f894cb9f6"><path d="M 97.589844 540.914062 L 1402.410156 540.914062 C 1413.179688 540.914062 1421.910156 549.644531 1421.910156 560.414062 L 1421.910156 939.585938 C 1421.910156 950.355469 1413.179688 959.085938 1402.410156 959.085938 L 97.589844 959.085938 C 86.820312 959.085938 78.089844 950.355469 78.089844 939.585938 L 78.089844 560.414062 C 78.089844 549.644531 86.820312 540.914062 97.589844 540.914062 Z M 97.589844 540.914062 " clip-rule="nonzero"/></clipPath><clipPath id="2de84e1b74"><path d="M 246 544 L 298 544 L 298 777 L 246 777 Z M 246 544 " clip-rule="nonzero"/></clipPath><clipPath id="ab5cf682af"><path d="M 77.191406 559.515625 L 77.191406 940.484375 C 77.191406 951.253906 85.921875 959.984375 96.691406 959.984375 L 1403.308594 959.984375 C 1414.078125 959.984375 1422.808594 951.253906 1422.808594 940.484375 L 1422.808594 559.515625 C 1422.808594 548.746094 1414.078125 540.015625 1403.308594 540.015625 L 96.691406 540.015625 C 85.921875 540.015625 77.191406 548.746094 77.191406 559.515625 Z M 77.191406 559.515625 " clip-rule="nonzero"/></clipPath><clipPath id="0cbf98ca22"><path d="M 97.589844 540.914062 L 1402.410156 540.914062 C 1413.179688 540.914062 1421.910156 549.644531 1421.910156 560.414062 L 1421.910156 939.585938 C 1421.910156 950.355469 1413.179688 959.085938 1402.410156 959.085938 L 97.589844 959.085938 C 86.820312 959.085938 78.089844 950.355469 78.089844 939.585938 L 78.089844 560.414062 C 78.089844 549.644531 86.820312 540.914062 97.589844 540.914062 Z M 97.589844 540.914062 " clip-rule="nonzero"/></clipPath><clipPath id="b20d8f2d2d"><path d="M 443 549 L 484 549 L 484 771 L 443 771 Z M 443 549 " clip-rule="nonzero"/></clipPath><clipPath id="5a30accb13"><path d="M 77.191406 559.515625 L 77.191406 940.484375 C 77.191406 951.253906 85.921875 959.984375 96.691406 959.984375 L 1403.308594 959.984375 C 1414.078125 959.984375 1422.808594 951.253906 1422.808594 940.484375 L 1422.808594 559.515625 C 1422.808594 548.746094 1414.078125 540.015625 1403.308594 540.015625 L 96.691406 540.015625 C 85.921875 540.015625 77.191406 548.746094 77.191406 559.515625 Z M 77.191406 559.515625 " clip-rule="nonzero"/></clipPath><clipPath id="1abc65ea93"><path d="M 97.589844 540.914062 L 1402.410156 540.914062 C 1413.179688 540.914062 1421.910156 549.644531 1421.910156 560.414062 L 1421.910156 939.585938 C 1421.910156 950.355469 1413.179688 959.085938 1402.410156 959.085938 L 97.589844 959.085938 C 86.820312 959.085938 78.089844 950.355469 78.089844 939.585938 L 78.089844 560.414062 C 78.089844 549.644531 86.820312 540.914062 97.589844 540.914062 Z M 97.589844 540.914062 " clip-rule="nonzero"/></clipPath><clipPath id="7d9110606a"><path d="M 437 544 L 489 544 L 489 777 L 437 777 Z M 437 544 " clip-rule="nonzero"/></clipPath><clipPath id="cbb9bd59bd"><path d="M 77.191406 559.515625 L 77.191406 940.484375 C 77.191406 951.253906 85.921875 959.984375 96.691406 959.984375 L 1403.308594 959.984375 C 1414.078125 959.984375 1422.808594 951.253906 1422.808594 940.484375 L 1422.808594 559.515625 C 1422.808594 548.746094 1414.078125 540.015625 1403.308594 540.015625 L 96.691406 540.015625 C 85.921875 540.015625 77.191406 548.746094 77.191406 559.515625 Z M 77.191406 559.515625 " clip-rule="nonzero"/></clipPath><clipPath id="fad327ef3b"><path d="M 97.589844 540.914062 L 1402.410156 540.914062 C 1413.179688 540.914062 1421.910156 549.644531 1421.910156 560.414062 L 1421.910156 939.585938 C 1421.910156 950.355469 1413.179688 959.085938 1402.410156 959.085938 L 97.589844 959.085938 C 86.820312 959.085938 78.089844 950.355469 78.089844 939.585938 L 78.089844 560.414062 C 78.089844 549.644531 86.820312 540.914062 97.589844 540.914062 Z M 97.589844 540.914062 " clip-rule="nonzero"/></clipPath><clipPath id="5ac21df18f"><path d="M 537 551 L 578 551 L 578 773 L 537 773 Z M 537 551 " clip-rule="nonzero"/></clipPath><clipPath id="ab1610762a"><path d="M 77.191406 559.515625 L 77.191406 940.484375 C 77.191406 951.253906 85.921875 959.984375 96.691406 959.984375 L 1403.308594 959.984375 C 1414.078125 959.984375 1422.808594 951.253906 1422.808594 940.484375 L 1422.808594 559.515625 C 1422.808594 548.746094 1414.078125 540.015625 1403.308594 540.015625 L 96.691406 540.015625 C 85.921875 540.015625 77.191406 548.746094 77.191406 559.515625 Z M 77.191406 559.515625 " clip-rule="nonzero"/></clipPath><clipPath id="ec2933eb57"><path d="M 97.589844 540.914062 L 1402.410156 540.914062 C 1413.179688 540.914062 1421.910156 549.644531 1421.910156 560.414062 L 1421.910156 939.585938 C 1421.910156 950.355469 1413.179688 959.085938 1402.410156 959.085938 L 97.589844 959.085938 C 86.820312 959.085938 78.089844 950.355469 78.089844 939.585938 L 78.089844 560.414062 C 78.089844 549.644531 86.820312 540.914062 97.589844 540.914062 Z M 97.589844 540.914062 " clip-rule="nonzero"/></clipPath><clipPath id="ac974ecb68"><path d="M 531 546 L 583 546 L 583 779 L 531 779 Z M 531 546 " clip-rule="nonzero"/></clipPath><clipPath id="c99d3e9d26"><path d="M 77.191406 559.515625 L 77.191406 940.484375 C 77.191406 951.253906 85.921875 959.984375 96.691406 959.984375 L 1403.308594 959.984375 C 1414.078125 959.984375 1422.808594 951.253906 1422.808594 940.484375 L 1422.808594 559.515625 C 1422.808594 548.746094 1414.078125 540.015625 1403.308594 540.015625 L 96.691406 540.015625 C 85.921875 540.015625 77.191406 548.746094 77.191406 559.515625 Z M 77.191406 559.515625 " clip-rule="nonzero"/></clipPath><clipPath id="6eb9ba7a7f"><path d="M 97.589844 540.914062 L 1402.410156 540.914062 C 1413.179688 540.914062 1421.910156 549.644531 1421.910156 560.414062 L 1421.910156 939.585938 C 1421.910156 950.355469 1413.179688 959.085938 1402.410156 959.085938 L 97.589844 959.085938 C 86.820312 959.085938 78.089844 950.355469 78.089844 939.585938 L 78.089844 560.414062 C 78.089844 549.644531 86.820312 540.914062 97.589844 540.914062 Z M 97.589844 540.914062 " clip-rule="nonzero"/></clipPath><clipPath id="eb78d536d5"><path d="M 634 551 L 675 551 L 675 773 L 634 773 Z M 634 551 " clip-rule="nonzero"/></clipPath><clipPath id="0b3fe89cac"><path d="M 77.191406 559.515625 L 77.191406 940.484375 C 77.191406 951.253906 85.921875 959.984375 96.691406 959.984375 L 1403.308594 959.984375 C 1414.078125 959.984375 1422.808594 951.253906 1422.808594 940.484375 L 1422.808594 559.515625 C 1422.808594 548.746094 1414.078125 540.015625 1403.308594 540.015625 L 96.691406 540.015625 C 85.921875 540.015625 77.191406 548.746094 77.191406 559.515625 Z M 77.191406 559.515625 " clip-rule="nonzero"/></clipPath><clipPath id="f5d54f6036"><path d="M 97.589844 540.914062 L 1402.410156 540.914062 C 1413.179688 540.914062 1421.910156 549.644531 1421.910156 560.414062 L 1421.910156 939.585938 C 1421.910156 950.355469 1413.179688 959.085938 1402.410156 959.085938 L 97.589844 959.085938 C 86.820312 959.085938 78.089844 950.355469 78.089844 939.585938 L 78.089844 560.414062 C 78.089844 549.644531 86.820312 540.914062 97.589844 540.914062 Z M 97.589844 540.914062 " clip-rule="nonzero"/></clipPath><clipPath id="3eb6f2f739"><path d="M 629 546 L 681 546 L 681 779 L 629 779 Z M 629 546 " clip-rule="nonzero"/></clipPath><clipPath id="1d1c6d7475"><path d="M 77.191406 559.515625 L 77.191406 940.484375 C 77.191406 951.253906 85.921875 959.984375 96.691406 959.984375 L 1403.308594 959.984375 C 1414.078125 959.984375 1422.808594 951.253906 1422.808594 940.484375 L 1422.808594 559.515625 C 1422.808594 548.746094 1414.078125 540.015625 1403.308594 540.015625 L 96.691406 540.015625 C 85.921875 540.015625 77.191406 548.746094 77.191406 559.515625 Z M 77.191406 559.515625 " clip-rule="nonzero"/></clipPath><clipPath id="1a56530667"><path d="M 97.589844 540.914062 L 1402.410156 540.914062 C 1413.179688 540.914062 1421.910156 549.644531 1421.910156 560.414062 L 1421.910156 939.585938 C 1421.910156 950.355469 1413.179688 959.085938 1402.410156 959.085938 L 97.589844 959.085938 C 86.820312 959.085938 78.089844 950.355469 78.089844 939.585938 L 78.089844 560.414062 C 78.089844 549.644531 86.820312 540.914062 97.589844 540.914062 Z M 97.589844 540.914062 " clip-rule="nonzero"/></clipPath><clipPath id="7c9117ba90"><path d="M 827 548 L 868 548 L 868 770 L 827 770 Z M 827 548 " clip-rule="nonzero"/></clipPath><clipPath id="0549e9b5ef"><path d="M 77.191406 559.515625 L 77.191406 940.484375 C 77.191406 951.253906 85.921875 959.984375 96.691406 959.984375 L 1403.308594 959.984375 C 1414.078125 959.984375 1422.808594 951.253906 1422.808594 940.484375 L 1422.808594 559.515625 C 1422.808594 548.746094 1414.078125 540.015625 1403.308594 540.015625 L 96.691406 540.015625 C 85.921875 540.015625 77.191406 548.746094 77.191406 559.515625 Z M 77.191406 559.515625 " clip-rule="nonzero"/></clipPath><clipPath id="89ed636b26"><path d="M 97.589844 540.914062 L 1402.410156 540.914062 C 1413.179688 540.914062 1421.910156 549.644531 1421.910156 560.414062 L 1421.910156 939.585938 C 1421.910156 950.355469 1413.179688 959.085938 1402.410156 959.085938 L 97.589844 959.085938 C 86.820312 959.085938 78.089844 950.355469 78.089844 939.585938 L 78.089844 560.414062 C 78.089844 549.644531 86.820312 540.914062 97.589844 540.914062 Z M 97.589844 540.914062 " clip-rule="nonzero"/></clipPath><clipPath id="70feb2f4f4"><path d="M 822 542 L 874 542 L 874 775 L 822 775 Z M 822 542 " clip-rule="nonzero"/></clipPath><clipPath id="9790f015d8"><path d="M 77.191406 559.515625 L 77.191406 940.484375 C 77.191406 951.253906 85.921875 959.984375 96.691406 959.984375 L 1403.308594 959.984375 C 1414.078125 959.984375 1422.808594 951.253906 1422.808594 940.484375 L 1422.808594 559.515625 C 1422.808594 548.746094 1414.078125 540.015625 1403.308594 540.015625 L 96.691406 540.015625 C 85.921875 540.015625 77.191406 548.746094 77.191406 559.515625 Z M 77.191406 559.515625 " clip-rule="nonzero"/></clipPath><clipPath id="651d2ad212"><path d="M 97.589844 540.914062 L 1402.410156 540.914062 C 1413.179688 540.914062 1421.910156 549.644531 1421.910156 560.414062 L 1421.910156 939.585938 C 1421.910156 950.355469 1413.179688 959.085938 1402.410156 959.085938 L 97.589844 959.085938 C 86.820312 959.085938 78.089844 950.355469 78.089844 939.585938 L 78.089844 560.414062 C 78.089844 549.644531 86.820312 540.914062 97.589844 540.914062 Z M 97.589844 540.914062 " clip-rule="nonzero"/></clipPath><clipPath id="6e87ff96c3"><path d="M 925 548 L 966 548 L 966 770 L 925 770 Z M 925 548 " clip-rule="nonzero"/></clipPath><clipPath id="2174196e83"><path d="M 77.191406 559.515625 L 77.191406 940.484375 C 77.191406 951.253906 85.921875 959.984375 96.691406 959.984375 L 1403.308594 959.984375 C 1414.078125 959.984375 1422.808594 951.253906 1422.808594 940.484375 L 1422.808594 559.515625 C 1422.808594 548.746094 1414.078125 540.015625 1403.308594 540.015625 L 96.691406 540.015625 C 85.921875 540.015625 77.191406 548.746094 77.191406 559.515625 Z M 77.191406 559.515625 " clip-rule="nonzero"/></clipPath><clipPath id="b9517ca7ea"><path d="M 97.589844 540.914062 L 1402.410156 540.914062 C 1413.179688 540.914062 1421.910156 549.644531 1421.910156 560.414062 L 1421.910156 939.585938 C 1421.910156 950.355469 1413.179688 959.085938 1402.410156 959.085938 L 97.589844 959.085938 C 86.820312 959.085938 78.089844 950.355469 78.089844 939.585938 L 78.089844 560.414062 C 78.089844 549.644531 86.820312 540.914062 97.589844 540.914062 Z M 97.589844 540.914062 " clip-rule="nonzero"/></clipPath><clipPath id="3fdd9d7502"><path d="M 919 542 L 971 542 L 971 775 L 919 775 Z M 919 542 " clip-rule="nonzero"/></clipPath><clipPath id="3dfcefb0c8"><path d="M 77.191406 559.515625 L 77.191406 940.484375 C 77.191406 951.253906 85.921875 959.984375 96.691406 959.984375 L 1403.308594 959.984375 C 1414.078125 959.984375 1422.808594 951.253906 1422.808594 940.484375 L 1422.808594 559.515625 C 1422.808594 548.746094 1414.078125 540.015625 1403.308594 540.015625 L 96.691406 540.015625 C 85.921875 540.015625 77.191406 548.746094 77.191406 559.515625 Z M 77.191406 559.515625 " clip-rule="nonzero"/></clipPath><clipPath id="72d6a14e58"><path d="M 97.589844 540.914062 L 1402.410156 540.914062 C 1413.179688 540.914062 1421.910156 549.644531 1421.910156 560.414062 L 1421.910156 939.585938 C 1421.910156 950.355469 1413.179688 959.085938 1402.410156 959.085938 L 97.589844 959.085938 C 86.820312 959.085938 78.089844 950.355469 78.089844 939.585938 L 78.089844 560.414062 C 78.089844 549.644531 86.820312 540.914062 97.589844 540.914062 Z M 97.589844 540.914062 " clip-rule="nonzero"/></clipPath><clipPath id="31445c9ca3"><path d="M 1116 553 L 1157 553 L 1157 775 L 1116 775 Z M 1116 553 " clip-rule="nonzero"/></clipPath><clipPath id="065ea2f5fb"><path d="M 77.191406 559.515625 L 77.191406 940.484375 C 77.191406 951.253906 85.921875 959.984375 96.691406 959.984375 L 1403.308594 959.984375 C 1414.078125 959.984375 1422.808594 951.253906 1422.808594 940.484375 L 1422.808594 559.515625 C 1422.808594 548.746094 1414.078125 540.015625 1403.308594 540.015625 L 96.691406 540.015625 C 85.921875 540.015625 77.191406 548.746094 77.191406 559.515625 Z M 77.191406 559.515625 " clip-rule="nonzero"/></clipPath><clipPath id="13a9ff6ab3"><path d="M 97.589844 540.914062 L 1402.410156 540.914062 C 1413.179688 540.914062 1421.910156 549.644531 1421.910156 560.414062 L 1421.910156 939.585938 C 1421.910156 950.355469 1413.179688 959.085938 1402.410156 959.085938 L 97.589844 959.085938 C 86.820312 959.085938 78.089844 950.355469 78.089844 939.585938 L 78.089844 560.414062 C 78.089844 549.644531 86.820312 540.914062 97.589844 540.914062 Z M 97.589844 540.914062 " clip-rule="nonzero"/></clipPath><clipPath id="99a905582b"><path d="M 1111 548 L 1162 548 L 1162 780 L 1111 780 Z M 1111 548 " clip-rule="nonzero"/></clipPath><clipPath id="1fd9598041"><path d="M 77.191406 559.515625 L 77.191406 940.484375 C 77.191406 951.253906 85.921875 959.984375 96.691406 959.984375 L 1403.308594 959.984375 C 1414.078125 959.984375 1422.808594 951.253906 1422.808594 940.484375 L 1422.808594 559.515625 C 1422.808594 548.746094 1414.078125 540.015625 1403.308594 540.015625 L 96.691406 540.015625 C 85.921875 540.015625 77.191406 548.746094 77.191406 559.515625 Z M 77.191406 559.515625 " clip-rule="nonzero"/></clipPath><clipPath id="43214f5975"><path d="M 97.589844 540.914062 L 1402.410156 540.914062 C 1413.179688 540.914062 1421.910156 549.644531 1421.910156 560.414062 L 1421.910156 939.585938 C 1421.910156 950.355469 1413.179688 959.085938 1402.410156 959.085938 L 97.589844 959.085938 C 86.820312 959.085938 78.089844 950.355469 78.089844 939.585938 L 78.089844 560.414062 C 78.089844 549.644531 86.820312 540.914062 97.589844 540.914062 Z M 97.589844 540.914062 " clip-rule="nonzero"/></clipPath><clipPath id="3719a532d8"><path d="M 1210 555 L 1251 555 L 1251 777 L 1210 777 Z M 1210 555 " clip-rule="nonzero"/></clipPath><clipPath id="d926175ef0"><path d="M 77.191406 559.515625 L 77.191406 940.484375 C 77.191406 951.253906 85.921875 959.984375 96.691406 959.984375 L 1403.308594 959.984375 C 1414.078125 959.984375 1422.808594 951.253906 1422.808594 940.484375 L 1422.808594 559.515625 C 1422.808594 548.746094 1414.078125 540.015625 1403.308594 540.015625 L 96.691406 540.015625 C 85.921875 540.015625 77.191406 548.746094 77.191406 559.515625 Z M 77.191406 559.515625 " clip-rule="nonzero"/></clipPath><clipPath id="c96cfb50a0"><path d="M 97.589844 540.914062 L 1402.410156 540.914062 C 1413.179688 540.914062 1421.910156 549.644531 1421.910156 560.414062 L 1421.910156 939.585938 C 1421.910156 950.355469 1413.179688 959.085938 1402.410156 959.085938 L 97.589844 959.085938 C 86.820312 959.085938 78.089844 950.355469 78.089844 939.585938 L 78.089844 560.414062 C 78.089844 549.644531 86.820312 540.914062 97.589844 540.914062 Z M 97.589844 540.914062 " clip-rule="nonzero"/></clipPath><clipPath id="027a30b298"><path d="M 1205 549 L 1256 549 L 1256 782 L 1205 782 Z M 1205 549 " clip-rule="nonzero"/></clipPath><clipPath id="321f77977d"><path d="M 77.191406 559.515625 L 77.191406 940.484375 C 77.191406 951.253906 85.921875 959.984375 96.691406 959.984375 L 1403.308594 959.984375 C 1414.078125 959.984375 1422.808594 951.253906 1422.808594 940.484375 L 1422.808594 559.515625 C 1422.808594 548.746094 1414.078125 540.015625 1403.308594 540.015625 L 96.691406 540.015625 C 85.921875 540.015625 77.191406 548.746094 77.191406 559.515625 Z M 77.191406 559.515625 " clip-rule="nonzero"/></clipPath><clipPath id="ee20313bee"><path d="M 97.589844 540.914062 L 1402.410156 540.914062 C 1413.179688 540.914062 1421.910156 549.644531 1421.910156 560.414062 L 1421.910156 939.585938 C 1421.910156 950.355469 1413.179688 959.085938 1402.410156 959.085938 L 97.589844 959.085938 C 86.820312 959.085938 78.089844 950.355469 78.089844 939.585938 L 78.089844 560.414062 C 78.089844 549.644531 86.820312 540.914062 97.589844 540.914062 Z M 97.589844 540.914062 " clip-rule="nonzero"/></clipPath><clipPath id="563585fa87"><path d="M 1306 553 L 1347 553 L 1347 775 L 1306 775 Z M 1306 553 " clip-rule="nonzero"/></clipPath><clipPath id="02f99e8959"><path d="M 77.191406 559.515625 L 77.191406 940.484375 C 77.191406 951.253906 85.921875 959.984375 96.691406 959.984375 L 1403.308594 959.984375 C 1414.078125 959.984375 1422.808594 951.253906 1422.808594 940.484375 L 1422.808594 559.515625 C 1422.808594 548.746094 1414.078125 540.015625 1403.308594 540.015625 L 96.691406 540.015625 C 85.921875 540.015625 77.191406 548.746094 77.191406 559.515625 Z M 77.191406 559.515625 " clip-rule="nonzero"/></clipPath><clipPath id="ef564c9c76"><path d="M 97.589844 540.914062 L 1402.410156 540.914062 C 1413.179688 540.914062 1421.910156 549.644531 1421.910156 560.414062 L 1421.910156 939.585938 C 1421.910156 950.355469 1413.179688 959.085938 1402.410156 959.085938 L 97.589844 959.085938 C 86.820312 959.085938 78.089844 950.355469 78.089844 939.585938 L 78.089844 560.414062 C 78.089844 549.644531 86.820312 540.914062 97.589844 540.914062 Z M 97.589844 540.914062 " clip-rule="nonzero"/></clipPath><clipPath id="a90b67987a"><path d="M 1300 548 L 1352 548 L 1352 780 L 1300 780 Z M 1300 548 " clip-rule="nonzero"/></clipPath><clipPath id="512e284102"><path d="M 77.191406 559.515625 L 77.191406 940.484375 C 77.191406 951.253906 85.921875 959.984375 96.691406 959.984375 L 1403.308594 959.984375 C 1414.078125 959.984375 1422.808594 951.253906 1422.808594 940.484375 L 1422.808594 559.515625 C 1422.808594 548.746094 1414.078125 540.015625 1403.308594 540.015625 L 96.691406 540.015625 C 85.921875 540.015625 77.191406 548.746094 77.191406 559.515625 Z M 77.191406 559.515625 " clip-rule="nonzero"/></clipPath><clipPath id="a1033bd092"><path d="M 97.589844 540.914062 L 1402.410156 540.914062 C 1413.179688 540.914062 1421.910156 549.644531 1421.910156 560.414062 L 1421.910156 939.585938 C 1421.910156 950.355469 1413.179688 959.085938 1402.410156 959.085938 L 97.589844 959.085938 C 86.820312 959.085938 78.089844 950.355469 78.089844 939.585938 L 78.089844 560.414062 C 78.089844 549.644531 86.820312 540.914062 97.589844 540.914062 Z M 97.589844 540.914062 " clip-rule="nonzero"/></clipPath><clipPath id="61a9f3bda1"><path d="M 77.191406 540.015625 L 1422.691406 540.015625 L 1422.691406 960 L 77.191406 960 Z M 77.191406 540.015625 " clip-rule="nonzero"/></clipPath><clipPath id="bb4f99794c"><path d="M 77.191406 559.515625 L 77.191406 940.484375 C 77.191406 951.253906 85.921875 959.984375 96.691406 959.984375 L 1403.308594 959.984375 C 1414.078125 959.984375 1422.808594 951.253906 1422.808594 940.484375 L 1422.808594 559.515625 C 1422.808594 548.746094 1414.078125 540.015625 1403.308594 540.015625 L 96.691406 540.015625 C 85.921875 540.015625 77.191406 548.746094 77.191406 559.515625 Z M 77.191406 559.515625 " clip-rule="nonzero"/></clipPath><clipPath id="fd341bbb03"><path d="M 77.191406 559.515625 L 77.191406 940.480469 C 77.191406 951.25 85.921875 959.980469 96.691406 959.980469 L 1403.296875 959.980469 C 1414.066406 959.980469 1422.796875 951.25 1422.796875 940.480469 L 1422.796875 559.515625 C 1422.796875 548.746094 1414.066406 540.015625 1403.296875 540.015625 L 96.691406 540.015625 C 85.921875 540.015625 77.191406 548.746094 77.191406 559.515625 Z M 77.191406 559.515625 " clip-rule="nonzero"/></clipPath><clipPath id="89a4d28361"><path d="M 95.371094 871.261719 L 156.121094 871.261719 L 156.121094 932.011719 L 95.371094 932.011719 Z M 95.371094 871.261719 " clip-rule="nonzero"/></clipPath><clipPath id="801dce066b"><path d="M 289.277344 871.261719 L 350.027344 871.261719 L 350.027344 932.011719 L 289.277344 932.011719 Z M 289.277344 871.261719 " clip-rule="nonzero"/></clipPath><clipPath id="54ee5305cb"><path d="M 480.40625 871.261719 L 541.15625 871.261719 L 541.15625 932.011719 L 480.40625 932.011719 Z M 480.40625 871.261719 " clip-rule="nonzero"/></clipPath></defs><g clip-path="url(#f4b9ad54bd)"><g clip-path="url(#bfe6433c78)"><g clip-path="url(#37c7b0cf37)"><path fill="#000000" d="M 150.664062 543.847656 L 198.878906 543.847656 L 198.878906 780.875 L 150.664062 780.875 Z M 150.664062 543.847656 " fill-opacity="1" fill-rule="evenodd"/></g></g></g><g clip-path="url(#1a0119562b)"><g clip-path="url(#7b1e07602e)"><g clip-path="url(#967a4fc6b2)"><path stroke-linecap="butt" transform="matrix(0.932292, 0, 0, 0.926936, 47.487538, 386.843764)" fill="none" stroke-linejoin="miter" d="M 110.669807 169.379504 L 162.386295 169.379504 L 162.386295 425.090196 L 110.669807 425.090196 Z M 110.669807 169.379504 " stroke="#000000" stroke-width="1.207" stroke-opacity="1" stroke-miterlimit="4"/></g></g></g><g clip-path="url(#b97df6cfb7)"><g clip-path="url(#e79d07cdbd)"><g clip-path="url(#8fa7eb68e5)"><path fill="#000000" d="M 246.121094 543.726562 L 294.335938 543.726562 L 294.335938 780.753906 L 246.121094 780.753906 Z M 246.121094 543.726562 " fill-opacity="1" fill-rule="evenodd"/></g></g></g><g clip-path="url(#9a6a7ce82a)"><g clip-path="url(#6747de11ad)"><g clip-path="url(#0891af598b)"><path stroke-linecap="butt" transform="matrix(0.932292, 0, 0, 0.926936, 47.487538, 386.843764)" fill="none" stroke-linejoin="miter" d="M 213.059486 169.248865 L 264.775974 169.248865 L 264.775974 424.959557 L 213.059486 424.959557 Z M 213.059486 169.248865 " stroke="#000000" stroke-width="1.207" stroke-opacity="1" stroke-miterlimit="4"/></g></g></g><g clip-path="url(#188f1709ea)"><g clip-path="url(#6f33398cc2)"><g clip-path="url(#d2b45676d3)"><path fill="#000000" d="M 437.34375 543.253906 L 485.558594 543.253906 L 485.558594 780.28125 L 437.34375 780.28125 Z M 437.34375 543.253906 " fill-opacity="1" fill-rule="evenodd"/></g></g></g><g clip-path="url(#bb9811dfca)"><g clip-path="url(#55dd3a9fb6)"><g clip-path="url(#52237a1869)"><path stroke-linecap="butt" transform="matrix(0.932292, 0, 0, 0.926936, 47.487538, 386.843764)" fill="none" stroke-linejoin="miter" d="M 418.16985 168.738952 L 469.886338 168.738952 L 469.886338 424.449644 L 418.16985 424.449644 Z M 418.16985 168.738952 " stroke="#000000" stroke-width="1.207" stroke-opacity="1" stroke-miterlimit="4"/></g></g></g><g clip-path="url(#0588674e9d)"><g clip-path="url(#5bea8a60a7)"><g clip-path="url(#9a43565b26)"><path fill="#000000" d="M 532.25 544.199219 L 580.46875 544.199219 L 580.46875 781.226562 L 532.25 781.226562 Z M 532.25 544.199219 " fill-opacity="1" fill-rule="evenodd"/></g></g></g><g clip-path="url(#359c5e4bf0)"><g clip-path="url(#8e75de8efd)"><g clip-path="url(#9a872d557e)"><path stroke-linecap="butt" transform="matrix(0.932292, 0, 0, 0.926936, 47.487538, 386.843764)" fill="none" stroke-linejoin="miter" d="M 519.968747 169.758778 L 571.689425 169.758778 L 571.689425 425.46947 L 519.968747 425.46947 Z M 519.968747 169.758778 " stroke="#000000" stroke-width="1.207" stroke-opacity="1" stroke-miterlimit="4"/></g></g></g><g clip-path="url(#e63422b257)"><g clip-path="url(#33c0e63fdb)"><g clip-path="url(#d5297d3ea1)"><path fill="#000000" d="M 629.050781 543.726562 L 677.265625 543.726562 L 677.265625 780.753906 L 629.050781 780.753906 Z M 629.050781 543.726562 " fill-opacity="1" fill-rule="evenodd"/></g></g></g><g clip-path="url(#664514d9f1)"><g clip-path="url(#0d50ae4cf4)"><g clip-path="url(#15e65e19c5)"><path stroke-linecap="butt" transform="matrix(0.932292, 0, 0, 0.926936, 47.487538, 386.843764)" fill="none" stroke-linejoin="miter" d="M 623.799767 169.248865 L 675.516255 169.248865 L 675.516255 424.959557 L 623.799767 424.959557 Z M 623.799767 169.248865 " stroke="#000000" stroke-width="1.207" stroke-opacity="1" stroke-miterlimit="4"/></g></g></g><g clip-path="url(#a9754a8020)"><g clip-path="url(#0f78028a94)"><g clip-path="url(#b2f758526b)"><path stroke-linecap="butt" transform="matrix(0.932292, 0, 0, 0.926936, 47.487538, 386.843764)" fill="none" stroke-linejoin="miter" d="M 33.516165 167.950905 L 751.857048 167.950905 L 751.857048 617.091297 L 33.516165 617.091297 Z M 33.516165 167.950905 " stroke="#000000" stroke-width="2.375" stroke-opacity="1" stroke-miterlimit="4"/></g></g></g><g clip-path="url(#b1202c2af0)"><g clip-path="url(#96c1cf62bd)"><g clip-path="url(#dd59626cff)"><path stroke-linecap="butt" transform="matrix(2.142509, 0, 0, 2.142857, 65.302506, 525.657991)" fill="none" stroke-linejoin="miter" d="M 50.74467 114.680717 L 50.74467 202.135159 " stroke="#000000" stroke-width="2.375" stroke-opacity="1" stroke-miterlimit="4"/></g></g></g><g clip-path="url(#30f54e01e6)"><g clip-path="url(#f19c1ddbfb)"><g clip-path="url(#e9ff729569)"><path stroke-linecap="butt" transform="matrix(2.142509, 0, 0, 2.142857, 65.302506, 525.657991)" fill="none" stroke-linejoin="miter" d="M 95.847303 114.259623 L 95.847303 201.715888 " stroke="#000000" stroke-width="2.375" stroke-opacity="1" stroke-miterlimit="4"/></g></g></g><g clip-path="url(#d0f97611e3)"><g clip-path="url(#2016599654)"><g clip-path="url(#057c5cdc7f)"><path stroke-linecap="butt" transform="matrix(2.142509, 0, 0, 2.142857, 65.302506, 525.657991)" fill="none" stroke-linejoin="miter" d="M 184.960464 114.839311 L 184.960464 202.295576 " stroke="#000000" stroke-width="2.375" stroke-opacity="1" stroke-miterlimit="4"/></g></g></g><g clip-path="url(#272cc98746)"><g clip-path="url(#6e961eea83)"><g clip-path="url(#ae4ddd2a8b)"><path stroke-linecap="butt" transform="matrix(2.142509, 0, 0, 2.142857, 65.302506, 525.657991)" fill="none" stroke-linejoin="miter" d="M 229.269999 114.839311 L 229.269999 202.295576 " stroke="#000000" stroke-width="2.375" stroke-opacity="1" stroke-miterlimit="4"/></g></g></g><g clip-path="url(#cb4eb16572)"><g clip-path="url(#7ac9c46ac0)"><g clip-path="url(#f9d4885ea5)"><path stroke-linecap="butt" transform="matrix(2.142509, 0, 0, 2.142857, 65.302506, 525.657991)" fill="none" stroke-linejoin="miter" d="M 274.689871 114.520301 L 274.689871 201.976565 " stroke="#000000" stroke-width="2.375" stroke-opacity="1" stroke-miterlimit="4"/></g></g></g><g clip-path="url(#d1fddc0162)"><g clip-path="url(#2245eff86e)"><g clip-path="url(#807f4b5137)"><path stroke-linecap="butt" transform="matrix(2.142509, 0, 0, 2.142857, 65.302506, 525.657991)" fill="none" stroke-linejoin="miter" d="M 140.350099 8.069241 L 140.350099 201.949222 " stroke="#000000" stroke-width="2.375" stroke-opacity="1" stroke-miterlimit="4"/></g></g></g><g clip-path="url(#b73f79ebc9)"><g clip-path="url(#918b615e95)"><g clip-path="url(#6fbf672709)"><path fill="#000000" d="M 157.082031 552.585938 L 197.097656 552.585938 L 197.097656 773.582031 L 157.082031 773.582031 Z M 157.082031 552.585938 " fill-opacity="1" fill-rule="nonzero"/></g></g></g><g clip-path="url(#65b4b5951a)"><g clip-path="url(#c4eaf99d74)"><g clip-path="url(#c0731ede0e)"><path stroke-linecap="butt" transform="matrix(2.142509, 0, 0, 2.142857, 65.302506, 525.657991)" fill="none" stroke-linejoin="miter" d="M 42.837398 12.566377 L 61.514387 12.566377 L 61.514387 115.697905 L 42.837398 115.697905 Z M 42.837398 12.566377 " stroke="#000000" stroke-width="5" stroke-opacity="1" stroke-miterlimit="4"/></g></g></g><g clip-path="url(#149d4b404f)"><g clip-path="url(#8ba9d622aa)"><g clip-path="url(#73a49c734f)"><path fill="#000000" d="M 823.230469 542.382812 L 871.445312 542.382812 L 871.445312 779.410156 L 823.230469 779.410156 Z M 823.230469 542.382812 " fill-opacity="1" fill-rule="evenodd"/></g></g></g><g clip-path="url(#bde34a0aa9)"><g clip-path="url(#ab8e886dcb)"><g clip-path="url(#c350f007da)"><path stroke-linecap="butt" transform="matrix(0.932292, 0, 0, 0.926936, 47.487538, 386.843764)" fill="none" stroke-linejoin="miter" d="M 832.08192 167.799196 L 883.798407 167.799196 L 883.798407 423.509888 L 832.08192 423.509888 Z M 832.08192 167.799196 " stroke="#000000" stroke-width="1.207" stroke-opacity="1" stroke-miterlimit="4"/></g></g></g><g clip-path="url(#a7166fb30c)"><g clip-path="url(#138f799f77)"><g clip-path="url(#bdaef49908)"><path fill="#000000" d="M 918.6875 542.261719 L 966.902344 542.261719 L 966.902344 779.289062 L 918.6875 779.289062 Z M 918.6875 542.261719 " fill-opacity="1" fill-rule="evenodd"/></g></g></g><g clip-path="url(#a78b418b2c)"><g clip-path="url(#66b53339cb)"><g clip-path="url(#d2a1e8f709)"><path stroke-linecap="butt" transform="matrix(0.932292, 0, 0, 0.926936, 47.487538, 386.843764)" fill="none" stroke-linejoin="miter" d="M 934.471599 167.668557 L 986.188087 167.668557 L 986.188087 423.379249 L 934.471599 423.379249 Z M 934.471599 167.668557 " stroke="#000000" stroke-width="1.207" stroke-opacity="1" stroke-miterlimit="4"/></g></g></g><g clip-path="url(#42f8d74e2f)"><g clip-path="url(#60697355ed)"><g clip-path="url(#d634943aeb)"><path fill="#000000" d="M 1109.925781 541.800781 L 1158.144531 541.800781 L 1158.144531 778.828125 L 1109.925781 778.828125 Z M 1109.925781 541.800781 " fill-opacity="1" fill-rule="evenodd"/></g></g></g><g clip-path="url(#d697883714)"><g clip-path="url(#7ab4514dc4)"><g clip-path="url(#fac90493a8)"><path stroke-linecap="butt" transform="matrix(0.932292, 0, 0, 0.926936, 47.487538, 386.843764)" fill="none" stroke-linejoin="miter" d="M 1139.598723 167.171287 L 1191.3194 167.171287 L 1191.3194 422.881979 L 1139.598723 422.881979 Z M 1139.598723 167.171287 " stroke="#000000" stroke-width="1.207" stroke-opacity="1" stroke-miterlimit="4"/></g></g></g><g clip-path="url(#d76ce9ee69)"><g clip-path="url(#06d010030f)"><g clip-path="url(#67a546a18e)"><path fill="#000000" d="M 1204.835938 542.734375 L 1253.050781 542.734375 L 1253.050781 779.761719 L 1204.835938 779.761719 Z M 1204.835938 542.734375 " fill-opacity="1" fill-rule="evenodd"/></g></g></g><g clip-path="url(#2cc6c2ce8e)"><g clip-path="url(#796385bc7d)"><g clip-path="url(#37bb252245)"><path stroke-linecap="butt" transform="matrix(0.932292, 0, 0, 0.926936, 47.487538, 386.843764)" fill="none" stroke-linejoin="miter" d="M 1241.40181 168.17847 L 1293.118297 168.17847 L 1293.118297 423.889162 L 1241.40181 423.889162 Z M 1241.40181 168.17847 " stroke="#000000" stroke-width="1.207" stroke-opacity="1" stroke-miterlimit="4"/></g></g></g><g clip-path="url(#dec6371a3c)"><g clip-path="url(#6db5bd2c48)"><g clip-path="url(#a4275ea316)"><path fill="#000000" d="M 1301.605469 542.261719 L 1349.824219 542.261719 L 1349.824219 779.289062 L 1301.605469 779.289062 Z M 1301.605469 542.261719 " fill-opacity="1" fill-rule="evenodd"/></g></g></g><g clip-path="url(#7aa787e402)"><g clip-path="url(#43c4ebf371)"><g clip-path="url(#d9723b81a5)"><path stroke-linecap="butt" transform="matrix(0.932292, 0, 0, 0.926936, 47.487538, 386.843764)" fill="none" stroke-linejoin="miter" d="M 1345.19931 167.668557 L 1396.919988 167.668557 L 1396.919988 423.379249 L 1345.19931 423.379249 Z M 1345.19931 167.668557 " stroke="#000000" stroke-width="1.207" stroke-opacity="1" stroke-miterlimit="4"/></g></g></g><g clip-path="url(#5761165d2c)"><g clip-path="url(#c3c0f1f121)"><g clip-path="url(#745c065457)"><path stroke-linecap="butt" transform="matrix(0.932292, 0, 0, 0.926936, 47.487538, 386.843764)" fill="none" stroke-linejoin="miter" d="M 754.919898 166.370597 L 1473.260781 166.370597 L 1473.260781 615.510989 L 754.919898 615.510989 Z M 754.919898 166.370597 " stroke="#000000" stroke-width="2.375" stroke-opacity="1" stroke-miterlimit="4"/></g></g></g><g clip-path="url(#e39243c857)"><g clip-path="url(#fada9045ad)"><g clip-path="url(#8f7916c024)"><path stroke-linecap="butt" transform="matrix(2.142509, 0, 0, 2.142857, 65.302506, 525.657991)" fill="none" stroke-linejoin="miter" d="M 364.659941 114.000769 L 364.659941 201.455211 " stroke="#000000" stroke-width="2.375" stroke-opacity="1" stroke-miterlimit="4"/></g></g></g><g clip-path="url(#211cbddec5)"><g clip-path="url(#c9726549a2)"><g clip-path="url(#254e9b7759)"><path stroke-linecap="butt" transform="matrix(2.142509, 0, 0, 2.142857, 65.302506, 525.657991)" fill="none" stroke-linejoin="miter" d="M 409.760751 113.579675 L 409.760751 201.03594 " stroke="#000000" stroke-width="2.375" stroke-opacity="1" stroke-miterlimit="4"/></g></g></g><g clip-path="url(#4977024e30)"><g clip-path="url(#1342fb2639)"><g clip-path="url(#76be4430fc)"><path stroke-linecap="butt" transform="matrix(2.142509, 0, 0, 2.142857, 65.302506, 525.657991)" fill="none" stroke-linejoin="miter" d="M 498.870265 114.150248 L 498.870265 201.606513 " stroke="#000000" stroke-width="2.375" stroke-opacity="1" stroke-miterlimit="4"/></g></g></g><g clip-path="url(#41fd8647e7)"><g clip-path="url(#8f9635808a)"><g clip-path="url(#be43a4fe13)"><path stroke-linecap="butt" transform="matrix(2.142509, 0, 0, 2.142857, 65.302506, 525.657991)" fill="none" stroke-linejoin="miter" d="M 543.19074 114.150248 L 543.19074 201.606513 " stroke="#000000" stroke-width="2.375" stroke-opacity="1" stroke-miterlimit="4"/></g></g></g><g clip-path="url(#0c1f1f8b81)"><g clip-path="url(#3ba49e6a90)"><g clip-path="url(#54995b34b4)"><path stroke-linecap="butt" transform="matrix(2.142509, 0, 0, 2.142857, 65.302506, 525.657991)" fill="none" stroke-linejoin="miter" d="M 588.599672 113.840353 L 588.599672 201.296617 " stroke="#000000" stroke-width="2.375" stroke-opacity="1" stroke-miterlimit="4"/></g></g></g><g clip-path="url(#88340a870e)"><g clip-path="url(#b4b786d162)"><g clip-path="url(#cf40d0b5a1)"><path stroke-linecap="butt" transform="matrix(2.142509, 0, 0, 2.142857, 65.302506, 525.657991)" fill="none" stroke-linejoin="miter" d="M 454.2599 7.38747 L 454.2599 201.267451 " stroke="#000000" stroke-width="2.375" stroke-opacity="1" stroke-miterlimit="4"/></g></g></g><g clip-path="url(#2ea5148c67)"><g clip-path="url(#6ac4ce841a)"><g clip-path="url(#5f894cb9f6)"><path fill="#000000" d="M 251.898438 549.980469 L 291.914062 549.980469 L 291.914062 770.972656 L 251.898438 770.972656 Z M 251.898438 549.980469 " fill-opacity="1" fill-rule="nonzero"/></g></g></g><g clip-path="url(#2de84e1b74)"><g clip-path="url(#ab5cf682af)"><g clip-path="url(#0cbf98ca22)"><path stroke-linecap="butt" transform="matrix(2.142509, 0, 0, 2.142857, 65.302506, 525.657991)" fill="none" stroke-linejoin="miter" d="M 87.092236 11.350492 L 105.769226 11.350492 L 105.769226 114.480196 L 87.092236 114.480196 Z M 87.092236 11.350492 " stroke="#000000" stroke-width="5" stroke-opacity="1" stroke-miterlimit="4"/></g></g></g><g clip-path="url(#b20d8f2d2d)"><g clip-path="url(#5a30accb13)"><g clip-path="url(#1abc65ea93)"><path fill="#000000" d="M 443.285156 549.980469 L 483.300781 549.980469 L 483.300781 770.972656 L 443.285156 770.972656 Z M 443.285156 549.980469 " fill-opacity="1" fill-rule="nonzero"/></g></g></g><g clip-path="url(#7d9110606a)"><g clip-path="url(#cbb9bd59bd)"><g clip-path="url(#fad327ef3b)"><path stroke-linecap="butt" transform="matrix(2.142509, 0, 0, 2.142857, 65.302506, 525.657991)" fill="none" stroke-linejoin="miter" d="M 176.420536 11.350492 L 195.097526 11.350492 L 195.097526 114.480196 L 176.420536 114.480196 Z M 176.420536 11.350492 " stroke="#000000" stroke-width="5" stroke-opacity="1" stroke-miterlimit="4"/></g></g></g><g clip-path="url(#5ac21df18f)"><g clip-path="url(#ab1610762a)"><g clip-path="url(#ec2933eb57)"><path fill="#000000" d="M 537.234375 551.71875 L 577.25 551.71875 L 577.25 772.710938 L 537.234375 772.710938 Z M 537.234375 551.71875 " fill-opacity="1" fill-rule="nonzero"/></g></g></g><g clip-path="url(#ac974ecb68)"><g clip-path="url(#c99d3e9d26)"><g clip-path="url(#6eb9ba7a7f)"><path stroke-linecap="butt" transform="matrix(2.142509, 0, 0, 2.142857, 65.302506, 525.657991)" fill="none" stroke-linejoin="miter" d="M 220.270622 12.16169 L 238.947611 12.16169 L 238.947611 115.291395 L 220.270622 115.291395 Z M 220.270622 12.16169 " stroke="#000000" stroke-width="5" stroke-opacity="1" stroke-miterlimit="4"/></g></g></g><g clip-path="url(#eb78d536d5)"><g clip-path="url(#0b3fe89cac)"><g clip-path="url(#f5d54f6036)"><path fill="#000000" d="M 634.652344 551.71875 L 674.667969 551.71875 L 674.667969 772.710938 L 634.652344 772.710938 Z M 634.652344 551.71875 " fill-opacity="1" fill-rule="nonzero"/></g></g></g><g clip-path="url(#3eb6f2f739)"><g clip-path="url(#1d1c6d7475)"><g clip-path="url(#1a56530667)"><path stroke-linecap="butt" transform="matrix(2.142509, 0, 0, 2.142857, 65.302506, 525.657991)" fill="none" stroke-linejoin="miter" d="M 265.73972 12.16169 L 284.41671 12.16169 L 284.41671 115.291395 L 265.73972 115.291395 Z M 265.73972 12.16169 " stroke="#000000" stroke-width="5" stroke-opacity="1" stroke-miterlimit="4"/></g></g></g><g clip-path="url(#7c9117ba90)"><g clip-path="url(#0549e9b5ef)"><g clip-path="url(#89ed636b26)"><path fill="#000000" d="M 827.777344 548.238281 L 867.792969 548.238281 L 867.792969 769.230469 L 827.777344 769.230469 Z M 827.777344 548.238281 " fill-opacity="1" fill-rule="nonzero"/></g></g></g><g clip-path="url(#70feb2f4f4)"><g clip-path="url(#9790f015d8)"><g clip-path="url(#651d2ad212)"><path stroke-linecap="butt" transform="matrix(2.142509, 0, 0, 2.142857, 65.302506, 525.657991)" fill="none" stroke-linejoin="miter" d="M 355.87935 10.537471 L 374.556339 10.537471 L 374.556339 113.667175 L 355.87935 113.667175 Z M 355.87935 10.537471 " stroke="#000000" stroke-width="5" stroke-opacity="1" stroke-miterlimit="4"/></g></g></g><g clip-path="url(#6e87ff96c3)"><g clip-path="url(#2174196e83)"><g clip-path="url(#b9517ca7ea)"><path fill="#000000" d="M 925.21875 548.238281 L 965.234375 548.238281 L 965.234375 769.230469 L 925.21875 769.230469 Z M 925.21875 548.238281 " fill-opacity="1" fill-rule="nonzero"/></g></g></g><g clip-path="url(#3fdd9d7502)"><g clip-path="url(#3dfcefb0c8)"><g clip-path="url(#72d6a14e58)"><path stroke-linecap="butt" transform="matrix(2.142509, 0, 0, 2.142857, 65.302506, 525.657991)" fill="none" stroke-linejoin="miter" d="M 401.359387 10.537471 L 420.036377 10.537471 L 420.036377 113.667175 L 401.359387 113.667175 Z M 401.359387 10.537471 " stroke="#000000" stroke-width="5" stroke-opacity="1" stroke-miterlimit="4"/></g></g></g><g clip-path="url(#31445c9ca3)"><g clip-path="url(#065ea2f5fb)"><g clip-path="url(#13a9ff6ab3)"><path fill="#000000" d="M 1116.589844 553.460938 L 1156.605469 553.460938 L 1156.605469 774.453125 L 1116.589844 774.453125 Z M 1116.589844 553.460938 " fill-opacity="1" fill-rule="nonzero"/></g></g></g><g clip-path="url(#99a905582b)"><g clip-path="url(#1fd9598041)"><g clip-path="url(#43214f5975)"><path stroke-linecap="butt" transform="matrix(2.142509, 0, 0, 2.142857, 65.302506, 525.657991)" fill="none" stroke-linejoin="miter" d="M 490.680394 12.974711 L 509.357384 12.974711 L 509.357384 116.104415 L 490.680394 116.104415 Z M 490.680394 12.974711 " stroke="#000000" stroke-width="5" stroke-opacity="1" stroke-miterlimit="4"/></g></g></g><g clip-path="url(#3719a532d8)"><g clip-path="url(#d926175ef0)"><g clip-path="url(#c96cfb50a0)"><path fill="#000000" d="M 1210.539062 555.199219 L 1250.554688 555.199219 L 1250.554688 776.191406 L 1210.539062 776.191406 Z M 1210.539062 555.199219 " fill-opacity="1" fill-rule="nonzero"/></g></g></g><g clip-path="url(#027a30b298)"><g clip-path="url(#321f77977d)"><g clip-path="url(#ee20313bee)"><path stroke-linecap="butt" transform="matrix(2.142509, 0, 0, 2.142857, 65.302506, 525.657991)" fill="none" stroke-linejoin="miter" d="M 534.53048 13.785909 L 553.20747 13.785909 L 553.20747 116.915614 L 534.53048 116.915614 Z M 534.53048 13.785909 " stroke="#000000" stroke-width="5" stroke-opacity="1" stroke-miterlimit="4"/></g></g></g><g clip-path="url(#563585fa87)"><g clip-path="url(#02f99e8959)"><g clip-path="url(#ef564c9c76)"><path fill="#000000" d="M 1306.242188 553.460938 L 1346.257812 553.460938 L 1346.257812 774.453125 L 1306.242188 774.453125 Z M 1306.242188 553.460938 " fill-opacity="1" fill-rule="nonzero"/></g></g></g><g clip-path="url(#a90b67987a)"><g clip-path="url(#512e284102)"><g clip-path="url(#a1033bd092)"><path stroke-linecap="butt" transform="matrix(2.142509, 0, 0, 2.142857, 65.302506, 525.657991)" fill="none" stroke-linejoin="miter" d="M 579.199188 12.974711 L 597.876178 12.974711 L 597.876178 116.104415 L 579.199188 116.104415 Z M 579.199188 12.974711 " stroke="#000000" stroke-width="5" stroke-opacity="1" stroke-miterlimit="4"/></g></g></g><g clip-path="url(#61a9f3bda1)"><g clip-path="url(#bb4f99794c)"><g clip-path="url(#fd341bbb03)"><path stroke-linecap="butt" transform="matrix(0.75, 0, 0, 0.75, 77.19158, 540.015101)" fill="none" stroke-linejoin="miter" d="M -0.000231002 26.0007 L -0.000231002 533.953869 C -0.000231002 548.313245 11.640396 559.953871 25.999773 559.953871 L 1768.140659 559.953871 C 1782.500037 559.953871 1794.140663 548.313245 1794.140663 533.953869 L 1794.140663 26.0007 C 1794.140663 11.641324 1782.500037 0.000698018 1768.140659 0.000698018 L 25.999773 0.000698018 C 11.640396 0.000698018 -0.000231002 11.641324 -0.000231002 26.0007 Z M -0.000231002 26.0007 " stroke="#000000" stroke-width="10" stroke-opacity="1" stroke-miterlimit="4"/></g></g></g><g clip-path="url(#89a4d28361)"><path fill="#000000" d="M 125.746094 871.261719 C 108.964844 871.261719 95.371094 884.851562 95.371094 901.636719 C 95.371094 918.417969 108.964844 932.011719 125.746094 932.011719 C 142.527344 932.011719 156.121094 918.417969 156.121094 901.636719 C 156.121094 884.851562 142.527344 871.261719 125.746094 871.261719 Z M 125.746094 871.261719 " fill-opacity="1" fill-rule="nonzero"/></g><g clip-path="url(#801dce066b)"><path fill="#000000" d="M 319.652344 871.261719 C 302.871094 871.261719 289.277344 884.851562 289.277344 901.636719 C 289.277344 918.417969 302.871094 932.011719 319.652344 932.011719 C 336.433594 932.011719 350.027344 918.417969 350.027344 901.636719 C 350.027344 884.851562 336.433594 871.261719 319.652344 871.261719 Z M 319.652344 871.261719 " fill-opacity="1" fill-rule="nonzero"/></g><g clip-path="url(#54ee5305cb)"><path fill="#000000" d="M 510.78125 871.261719 C 494 871.261719 480.40625 884.851562 480.40625 901.636719 C 480.40625 918.417969 494 932.011719 510.78125 932.011719 C 527.566406 932.011719 541.15625 918.417969 541.15625 901.636719 C 541.15625 884.851562 527.566406 871.261719 510.78125 871.261719 Z M 510.78125 871.261719 " fill-opacity="1" fill-rule="nonzero"/></g></svg>