<svg xmlns="http://www.w3.org/2000/svg" xmlns:xlink="http://www.w3.org/1999/xlink" width="2000" zoomAndPan="magnify" viewBox="0 0 1500 1499.999933" height="2000" preserveAspectRatio="xMidYMid meet" version="1.0"><defs><clipPath id="d11558bb1b"><path d="M 150 543 L 199 543 L 199 781 L 150 781 Z M 150 543 " clip-rule="nonzero"/></clipPath><clipPath id="9caa1f61c8"><path d="M 77.191406 559.515625 L 77.191406 940.484375 C 77.191406 951.253906 85.921875 959.984375 96.691406 959.984375 L 1403.308594 959.984375 C 1414.078125 959.984375 1422.808594 951.253906 1422.808594 940.484375 L 1422.808594 559.515625 C 1422.808594 548.746094 1414.078125 540.015625 1403.308594 540.015625 L 96.691406 540.015625 C 85.921875 540.015625 77.191406 548.746094 77.191406 559.515625 Z M 77.191406 559.515625 " clip-rule="nonzero"/></clipPath><clipPath id="fee0959eb3"><path d="M 97.589844 540.914062 L 1402.410156 540.914062 C 1413.179688 540.914062 1421.910156 549.644531 1421.910156 560.414062 L 1421.910156 939.585938 C 1421.910156 950.355469 1413.179688 959.085938 1402.410156 959.085938 L 97.589844 959.085938 C 86.820312 959.085938 78.089844 950.355469 78.089844 939.585938 L 78.089844 560.414062 C 78.089844 549.644531 86.820312 540.914062 97.589844 540.914062 Z M 97.589844 540.914062 " clip-rule="nonzero"/></clipPath><clipPath id="7ded7e3280"><path d="M 150 543 L 200 543 L 200 782 L 150 782 Z M 150 543 " clip-rule="nonzero"/></clipPath><clipPath id="6153c08885"><path d="M 77.191406 559.515625 L 77.191406 940.484375 C 77.191406 951.253906 85.921875 959.984375 96.691406 959.984375 L 1403.308594 959.984375 C 1414.078125 959.984375 1422.808594 951.253906 1422.808594 940.484375 L 1422.808594 559.515625 C 1422.808594 548.746094 1414.078125 540.015625 1403.308594 540.015625 L 96.691406 540.015625 C 85.921875 540.015625 77.191406 548.746094 77.191406 559.515625 Z M 77.191406 559.515625 " clip-rule="nonzero"/></clipPath><clipPath id="9603abfba4"><path d="M 97.589844 540.914062 L 1402.410156 540.914062 C 1413.179688 540.914062 1421.910156 549.644531 1421.910156 560.414062 L 1421.910156 939.585938 C 1421.910156 950.355469 1413.179688 959.085938 1402.410156 959.085938 L 97.589844 959.085938 C 86.820312 959.085938 78.089844 950.355469 78.089844 939.585938 L 78.089844 560.414062 C 78.089844 549.644531 86.820312 540.914062 97.589844 540.914062 Z M 97.589844 540.914062 " clip-rule="nonzero"/></clipPath><clipPath id="c39aca64fd"><path d="M 246 543 L 295 543 L 295 781 L 246 781 Z M 246 543 " clip-rule="nonzero"/></clipPath><clipPath id="09e6582605"><path d="M 77.191406 559.515625 L 77.191406 940.484375 C 77.191406 951.253906 85.921875 959.984375 96.691406 959.984375 L 1403.308594 959.984375 C 1414.078125 959.984375 1422.808594 951.253906 1422.808594 940.484375 L 1422.808594 559.515625 C 1422.808594 548.746094 1414.078125 540.015625 1403.308594 540.015625 L 96.691406 540.015625 C 85.921875 540.015625 77.191406 548.746094 77.191406 559.515625 Z M 77.191406 559.515625 " clip-rule="nonzero"/></clipPath><clipPath id="a4a277eb75"><path d="M 97.589844 540.914062 L 1402.410156 540.914062 C 1413.179688 540.914062 1421.910156 549.644531 1421.910156 560.414062 L 1421.910156 939.585938 C 1421.910156 950.355469 1413.179688 959.085938 1402.410156 959.085938 L 97.589844 959.085938 C 86.820312 959.085938 78.089844 950.355469 78.089844 939.585938 L 78.089844 560.414062 C 78.089844 549.644531 86.820312 540.914062 97.589844 540.914062 Z M 97.589844 540.914062 " clip-rule="nonzero"/></clipPath><clipPath id="30d78bc506"><path d="M 245 543 L 295 543 L 295 782 L 245 782 Z M 245 543 " clip-rule="nonzero"/></clipPath><clipPath id="555ff5ef68"><path d="M 77.191406 559.515625 L 77.191406 940.484375 C 77.191406 951.253906 85.921875 959.984375 96.691406 959.984375 L 1403.308594 959.984375 C 1414.078125 959.984375 1422.808594 951.253906 1422.808594 940.484375 L 1422.808594 559.515625 C 1422.808594 548.746094 1414.078125 540.015625 1403.308594 540.015625 L 96.691406 540.015625 C 85.921875 540.015625 77.191406 548.746094 77.191406 559.515625 Z M 77.191406 559.515625 " clip-rule="nonzero"/></clipPath><clipPath id="be6f512936"><path d="M 97.589844 540.914062 L 1402.410156 540.914062 C 1413.179688 540.914062 1421.910156 549.644531 1421.910156 560.414062 L 1421.910156 939.585938 C 1421.910156 950.355469 1413.179688 959.085938 1402.410156 959.085938 L 97.589844 959.085938 C 86.820312 959.085938 78.089844 950.355469 78.089844 939.585938 L 78.089844 560.414062 C 78.089844 549.644531 86.820312 540.914062 97.589844 540.914062 Z M 97.589844 540.914062 " clip-rule="nonzero"/></clipPath><clipPath id="611c5c3919"><path d="M 437 543 L 486 543 L 486 781 L 437 781 Z M 437 543 " clip-rule="nonzero"/></clipPath><clipPath id="246b62c496"><path d="M 77.191406 559.515625 L 77.191406 940.484375 C 77.191406 951.253906 85.921875 959.984375 96.691406 959.984375 L 1403.308594 959.984375 C 1414.078125 959.984375 1422.808594 951.253906 1422.808594 940.484375 L 1422.808594 559.515625 C 1422.808594 548.746094 1414.078125 540.015625 1403.308594 540.015625 L 96.691406 540.015625 C 85.921875 540.015625 77.191406 548.746094 77.191406 559.515625 Z M 77.191406 559.515625 " clip-rule="nonzero"/></clipPath><clipPath id="b923036b09"><path d="M 97.589844 540.914062 L 1402.410156 540.914062 C 1413.179688 540.914062 1421.910156 549.644531 1421.910156 560.414062 L 1421.910156 939.585938 C 1421.910156 950.355469 1413.179688 959.085938 1402.410156 959.085938 L 97.589844 959.085938 C 86.820312 959.085938 78.089844 950.355469 78.089844 939.585938 L 78.089844 560.414062 C 78.089844 549.644531 86.820312 540.914062 97.589844 540.914062 Z M 97.589844 540.914062 " clip-rule="nonzero"/></clipPath><clipPath id="47d5063090"><path d="M 436 542 L 487 542 L 487 781 L 436 781 Z M 436 542 " clip-rule="nonzero"/></clipPath><clipPath id="c662749963"><path d="M 77.191406 559.515625 L 77.191406 940.484375 C 77.191406 951.253906 85.921875 959.984375 96.691406 959.984375 L 1403.308594 959.984375 C 1414.078125 959.984375 1422.808594 951.253906 1422.808594 940.484375 L 1422.808594 559.515625 C 1422.808594 548.746094 1414.078125 540.015625 1403.308594 540.015625 L 96.691406 540.015625 C 85.921875 540.015625 77.191406 548.746094 77.191406 559.515625 Z M 77.191406 559.515625 " clip-rule="nonzero"/></clipPath><clipPath id="c53525b94d"><path d="M 97.589844 540.914062 L 1402.410156 540.914062 C 1413.179688 540.914062 1421.910156 549.644531 1421.910156 560.414062 L 1421.910156 939.585938 C 1421.910156 950.355469 1413.179688 959.085938 1402.410156 959.085938 L 97.589844 959.085938 C 86.820312 959.085938 78.089844 950.355469 78.089844 939.585938 L 78.089844 560.414062 C 78.089844 549.644531 86.820312 540.914062 97.589844 540.914062 Z M 97.589844 540.914062 " clip-rule="nonzero"/></clipPath><clipPath id="a7e09cc4cd"><path d="M 532 544 L 581 544 L 581 782 L 532 782 Z M 532 544 " clip-rule="nonzero"/></clipPath><clipPath id="7616d52a44"><path d="M 77.191406 559.515625 L 77.191406 940.484375 C 77.191406 951.253906 85.921875 959.984375 96.691406 959.984375 L 1403.308594 959.984375 C 1414.078125 959.984375 1422.808594 951.253906 1422.808594 940.484375 L 1422.808594 559.515625 C 1422.808594 548.746094 1414.078125 540.015625 1403.308594 540.015625 L 96.691406 540.015625 C 85.921875 540.015625 77.191406 548.746094 77.191406 559.515625 Z M 77.191406 559.515625 " clip-rule="nonzero"/></clipPath><clipPath id="451dcb6b2c"><path d="M 97.589844 540.914062 L 1402.410156 540.914062 C 1413.179688 540.914062 1421.910156 549.644531 1421.910156 560.414062 L 1421.910156 939.585938 C 1421.910156 950.355469 1413.179688 959.085938 1402.410156 959.085938 L 97.589844 959.085938 C 86.820312 959.085938 78.089844 950.355469 78.089844 939.585938 L 78.089844 560.414062 C 78.089844 549.644531 86.820312 540.914062 97.589844 540.914062 Z M 97.589844 540.914062 " clip-rule="nonzero"/></clipPath><clipPath id="217f55bd48"><path d="M 531 543 L 582 543 L 582 782 L 531 782 Z M 531 543 " clip-rule="nonzero"/></clipPath><clipPath id="87123fbf2d"><path d="M 77.191406 559.515625 L 77.191406 940.484375 C 77.191406 951.253906 85.921875 959.984375 96.691406 959.984375 L 1403.308594 959.984375 C 1414.078125 959.984375 1422.808594 951.253906 1422.808594 940.484375 L 1422.808594 559.515625 C 1422.808594 548.746094 1414.078125 540.015625 1403.308594 540.015625 L 96.691406 540.015625 C 85.921875 540.015625 77.191406 548.746094 77.191406 559.515625 Z M 77.191406 559.515625 " clip-rule="nonzero"/></clipPath><clipPath id="99e0a4f6d0"><path d="M 97.589844 540.914062 L 1402.410156 540.914062 C 1413.179688 540.914062 1421.910156 549.644531 1421.910156 560.414062 L 1421.910156 939.585938 C 1421.910156 950.355469 1413.179688 959.085938 1402.410156 959.085938 L 97.589844 959.085938 C 86.820312 959.085938 78.089844 950.355469 78.089844 939.585938 L 78.089844 560.414062 C 78.089844 549.644531 86.820312 540.914062 97.589844 540.914062 Z M 97.589844 540.914062 " clip-rule="nonzero"/></clipPath><clipPath id="27fc0ff659"><path d="M 629 543 L 678 543 L 678 781 L 629 781 Z M 629 543 " clip-rule="nonzero"/></clipPath><clipPath id="1c65a4d224"><path d="M 77.191406 559.515625 L 77.191406 940.484375 C 77.191406 951.253906 85.921875 959.984375 96.691406 959.984375 L 1403.308594 959.984375 C 1414.078125 959.984375 1422.808594 951.253906 1422.808594 940.484375 L 1422.808594 559.515625 C 1422.808594 548.746094 1414.078125 540.015625 1403.308594 540.015625 L 96.691406 540.015625 C 85.921875 540.015625 77.191406 548.746094 77.191406 559.515625 Z M 77.191406 559.515625 " clip-rule="nonzero"/></clipPath><clipPath id="e2ea75dbb7"><path d="M 97.589844 540.914062 L 1402.410156 540.914062 C 1413.179688 540.914062 1421.910156 549.644531 1421.910156 560.414062 L 1421.910156 939.585938 C 1421.910156 950.355469 1413.179688 959.085938 1402.410156 959.085938 L 97.589844 959.085938 C 86.820312 959.085938 78.089844 950.355469 78.089844 939.585938 L 78.089844 560.414062 C 78.089844 549.644531 86.820312 540.914062 97.589844 540.914062 Z M 97.589844 540.914062 " clip-rule="nonzero"/></clipPath><clipPath id="d25bd76b63"><path d="M 628 543 L 678 543 L 678 782 L 628 782 Z M 628 543 " clip-rule="nonzero"/></clipPath><clipPath id="9174de1e9a"><path d="M 77.191406 559.515625 L 77.191406 940.484375 C 77.191406 951.253906 85.921875 959.984375 96.691406 959.984375 L 1403.308594 959.984375 C 1414.078125 959.984375 1422.808594 951.253906 1422.808594 940.484375 L 1422.808594 559.515625 C 1422.808594 548.746094 1414.078125 540.015625 1403.308594 540.015625 L 96.691406 540.015625 C 85.921875 540.015625 77.191406 548.746094 77.191406 559.515625 Z M 77.191406 559.515625 " clip-rule="nonzero"/></clipPath><clipPath id="a17e2c9eb6"><path d="M 97.589844 540.914062 L 1402.410156 540.914062 C 1413.179688 540.914062 1421.910156 549.644531 1421.910156 560.414062 L 1421.910156 939.585938 C 1421.910156 950.355469 1413.179688 959.085938 1402.410156 959.085938 L 97.589844 959.085938 C 86.820312 959.085938 78.089844 950.355469 78.089844 939.585938 L 78.089844 560.414062 C 78.089844 549.644531 86.820312 540.914062 97.589844 540.914062 Z M 97.589844 540.914062 " clip-rule="nonzero"/></clipPath><clipPath id="6613f73a32"><path d="M 78 541 L 750 541 L 750 959.265625 L 78 959.265625 Z M 78 541 " clip-rule="nonzero"/></clipPath><clipPath id="a737cd63f0"><path d="M 77.191406 559.515625 L 77.191406 940.484375 C 77.191406 951.253906 85.921875 959.984375 96.691406 959.984375 L 1403.308594 959.984375 C 1414.078125 959.984375 1422.808594 951.253906 1422.808594 940.484375 L 1422.808594 559.515625 C 1422.808594 548.746094 1414.078125 540.015625 1403.308594 540.015625 L 96.691406 540.015625 C 85.921875 540.015625 77.191406 548.746094 77.191406 559.515625 Z M 77.191406 559.515625 " clip-rule="nonzero"/></clipPath><clipPath id="f8958d3c7b"><path d="M 97.589844 540.914062 L 1402.410156 540.914062 C 1413.179688 540.914062 1421.910156 549.644531 1421.910156 560.414062 L 1421.910156 939.585938 C 1421.910156 950.355469 1413.179688 959.085938 1402.410156 959.085938 L 97.589844 959.085938 C 86.820312 959.085938 78.089844 950.355469 78.089844 939.585938 L 78.089844 560.414062 C 78.089844 549.644531 86.820312 540.914062 97.589844 540.914062 Z M 97.589844 540.914062 " clip-rule="nonzero"/></clipPath><clipPath id="5eb97085e8"><path d="M 171 768 L 177 768 L 177 959.265625 L 171 959.265625 Z M 171 768 " clip-rule="nonzero"/></clipPath><clipPath id="cf17b116d5"><path d="M 77.191406 559.515625 L 77.191406 940.484375 C 77.191406 951.253906 85.921875 959.984375 96.691406 959.984375 L 1403.308594 959.984375 C 1414.078125 959.984375 1422.808594 951.253906 1422.808594 940.484375 L 1422.808594 559.515625 C 1422.808594 548.746094 1414.078125 540.015625 1403.308594 540.015625 L 96.691406 540.015625 C 85.921875 540.015625 77.191406 548.746094 77.191406 559.515625 Z M 77.191406 559.515625 " clip-rule="nonzero"/></clipPath><clipPath id="5c5555fcda"><path d="M 97.589844 540.914062 L 1402.410156 540.914062 C 1413.179688 540.914062 1421.910156 549.644531 1421.910156 560.414062 L 1421.910156 939.585938 C 1421.910156 950.355469 1413.179688 959.085938 1402.410156 959.085938 L 97.589844 959.085938 C 86.820312 959.085938 78.089844 950.355469 78.089844 939.585938 L 78.089844 560.414062 C 78.089844 549.644531 86.820312 540.914062 97.589844 540.914062 Z M 97.589844 540.914062 " clip-rule="nonzero"/></clipPath><clipPath id="ee7fe88d5d"><path d="M 268 767 L 274 767 L 274 959.265625 L 268 959.265625 Z M 268 767 " clip-rule="nonzero"/></clipPath><clipPath id="7c7609f3a1"><path d="M 77.191406 559.515625 L 77.191406 940.484375 C 77.191406 951.253906 85.921875 959.984375 96.691406 959.984375 L 1403.308594 959.984375 C 1414.078125 959.984375 1422.808594 951.253906 1422.808594 940.484375 L 1422.808594 559.515625 C 1422.808594 548.746094 1414.078125 540.015625 1403.308594 540.015625 L 96.691406 540.015625 C 85.921875 540.015625 77.191406 548.746094 77.191406 559.515625 Z M 77.191406 559.515625 " clip-rule="nonzero"/></clipPath><clipPath id="02ac46779c"><path d="M 97.589844 540.914062 L 1402.410156 540.914062 C 1413.179688 540.914062 1421.910156 549.644531 1421.910156 560.414062 L 1421.910156 939.585938 C 1421.910156 950.355469 1413.179688 959.085938 1402.410156 959.085938 L 97.589844 959.085938 C 86.820312 959.085938 78.089844 950.355469 78.089844 939.585938 L 78.089844 560.414062 C 78.089844 549.644531 86.820312 540.914062 97.589844 540.914062 Z M 97.589844 540.914062 " clip-rule="nonzero"/></clipPath><clipPath id="ecb0b160d1"><path d="M 459 769 L 465 769 L 465 959.265625 L 459 959.265625 Z M 459 769 " clip-rule="nonzero"/></clipPath><clipPath id="d774e8500d"><path d="M 77.191406 559.515625 L 77.191406 940.484375 C 77.191406 951.253906 85.921875 959.984375 96.691406 959.984375 L 1403.308594 959.984375 C 1414.078125 959.984375 1422.808594 951.253906 1422.808594 940.484375 L 1422.808594 559.515625 C 1422.808594 548.746094 1414.078125 540.015625 1403.308594 540.015625 L 96.691406 540.015625 C 85.921875 540.015625 77.191406 548.746094 77.191406 559.515625 Z M 77.191406 559.515625 " clip-rule="nonzero"/></clipPath><clipPath id="36d35672c7"><path d="M 97.589844 540.914062 L 1402.410156 540.914062 C 1413.179688 540.914062 1421.910156 549.644531 1421.910156 560.414062 L 1421.910156 939.585938 C 1421.910156 950.355469 1413.179688 959.085938 1402.410156 959.085938 L 97.589844 959.085938 C 86.820312 959.085938 78.089844 950.355469 78.089844 939.585938 L 78.089844 560.414062 C 78.089844 549.644531 86.820312 540.914062 97.589844 540.914062 Z M 97.589844 540.914062 " clip-rule="nonzero"/></clipPath><clipPath id="5699d7d49a"><path d="M 553 769 L 560 769 L 560 959.265625 L 553 959.265625 Z M 553 769 " clip-rule="nonzero"/></clipPath><clipPath id="cee418731d"><path d="M 77.191406 559.515625 L 77.191406 940.484375 C 77.191406 951.253906 85.921875 959.984375 96.691406 959.984375 L 1403.308594 959.984375 C 1414.078125 959.984375 1422.808594 951.253906 1422.808594 940.484375 L 1422.808594 559.515625 C 1422.808594 548.746094 1414.078125 540.015625 1403.308594 540.015625 L 96.691406 540.015625 C 85.921875 540.015625 77.191406 548.746094 77.191406 559.515625 Z M 77.191406 559.515625 " clip-rule="nonzero"/></clipPath><clipPath id="7a38a2833e"><path d="M 97.589844 540.914062 L 1402.410156 540.914062 C 1413.179688 540.914062 1421.910156 549.644531 1421.910156 560.414062 L 1421.910156 939.585938 C 1421.910156 950.355469 1413.179688 959.085938 1402.410156 959.085938 L 97.589844 959.085938 C 86.820312 959.085938 78.089844 950.355469 78.089844 939.585938 L 78.089844 560.414062 C 78.089844 549.644531 86.820312 540.914062 97.589844 540.914062 Z M 97.589844 540.914062 " clip-rule="nonzero"/></clipPath><clipPath id="0a5dcb7abb"><path d="M 651 768 L 657 768 L 657 959.265625 L 651 959.265625 Z M 651 768 " clip-rule="nonzero"/></clipPath><clipPath id="036fd97611"><path d="M 77.191406 559.515625 L 77.191406 940.484375 C 77.191406 951.253906 85.921875 959.984375 96.691406 959.984375 L 1403.308594 959.984375 C 1414.078125 959.984375 1422.808594 951.253906 1422.808594 940.484375 L 1422.808594 559.515625 C 1422.808594 548.746094 1414.078125 540.015625 1403.308594 540.015625 L 96.691406 540.015625 C 85.921875 540.015625 77.191406 548.746094 77.191406 559.515625 Z M 77.191406 559.515625 " clip-rule="nonzero"/></clipPath><clipPath id="e3e7012cb0"><path d="M 97.589844 540.914062 L 1402.410156 540.914062 C 1413.179688 540.914062 1421.910156 549.644531 1421.910156 560.414062 L 1421.910156 939.585938 C 1421.910156 950.355469 1413.179688 959.085938 1402.410156 959.085938 L 97.589844 959.085938 C 86.820312 959.085938 78.089844 950.355469 78.089844 939.585938 L 78.089844 560.414062 C 78.089844 549.644531 86.820312 540.914062 97.589844 540.914062 Z M 97.589844 540.914062 " clip-rule="nonzero"/></clipPath><clipPath id="6fe595ef3a"><path d="M 363 540.765625 L 369 540.765625 L 369 959.265625 L 363 959.265625 Z M 363 540.765625 " clip-rule="nonzero"/></clipPath><clipPath id="517039ae28"><path d="M 77.191406 559.515625 L 77.191406 940.484375 C 77.191406 951.253906 85.921875 959.984375 96.691406 959.984375 L 1403.308594 959.984375 C 1414.078125 959.984375 1422.808594 951.253906 1422.808594 940.484375 L 1422.808594 559.515625 C 1422.808594 548.746094 1414.078125 540.015625 1403.308594 540.015625 L 96.691406 540.015625 C 85.921875 540.015625 77.191406 548.746094 77.191406 559.515625 Z M 77.191406 559.515625 " clip-rule="nonzero"/></clipPath><clipPath id="4fb56721bf"><path d="M 97.589844 540.914062 L 1402.410156 540.914062 C 1413.179688 540.914062 1421.910156 549.644531 1421.910156 560.414062 L 1421.910156 939.585938 C 1421.910156 950.355469 1413.179688 959.085938 1402.410156 959.085938 L 97.589844 959.085938 C 86.820312 959.085938 78.089844 950.355469 78.089844 939.585938 L 78.089844 560.414062 C 78.089844 549.644531 86.820312 540.914062 97.589844 540.914062 Z M 97.589844 540.914062 " clip-rule="nonzero"/></clipPath><clipPath id="5eebe0b67b"><path d="M 157 552 L 198 552 L 198 774 L 157 774 Z M 157 552 " clip-rule="nonzero"/></clipPath><clipPath id="7cb6ace43f"><path d="M 77.191406 559.515625 L 77.191406 940.484375 C 77.191406 951.253906 85.921875 959.984375 96.691406 959.984375 L 1403.308594 959.984375 C 1414.078125 959.984375 1422.808594 951.253906 1422.808594 940.484375 L 1422.808594 559.515625 C 1422.808594 548.746094 1414.078125 540.015625 1403.308594 540.015625 L 96.691406 540.015625 C 85.921875 540.015625 77.191406 548.746094 77.191406 559.515625 Z M 77.191406 559.515625 " clip-rule="nonzero"/></clipPath><clipPath id="a557300569"><path d="M 97.589844 540.914062 L 1402.410156 540.914062 C 1413.179688 540.914062 1421.910156 549.644531 1421.910156 560.414062 L 1421.910156 939.585938 C 1421.910156 950.355469 1413.179688 959.085938 1402.410156 959.085938 L 97.589844 959.085938 C 86.820312 959.085938 78.089844 950.355469 78.089844 939.585938 L 78.089844 560.414062 C 78.089844 549.644531 86.820312 540.914062 97.589844 540.914062 Z M 97.589844 540.914062 " clip-rule="nonzero"/></clipPath><clipPath id="2e57c44745"><path d="M 151 547 L 203 547 L 203 779 L 151 779 Z M 151 547 " clip-rule="nonzero"/></clipPath><clipPath id="9da0a8b81b"><path d="M 77.191406 559.515625 L 77.191406 940.484375 C 77.191406 951.253906 85.921875 959.984375 96.691406 959.984375 L 1403.308594 959.984375 C 1414.078125 959.984375 1422.808594 951.253906 1422.808594 940.484375 L 1422.808594 559.515625 C 1422.808594 548.746094 1414.078125 540.015625 1403.308594 540.015625 L 96.691406 540.015625 C 85.921875 540.015625 77.191406 548.746094 77.191406 559.515625 Z M 77.191406 559.515625 " clip-rule="nonzero"/></clipPath><clipPath id="fce36a8c50"><path d="M 97.589844 540.914062 L 1402.410156 540.914062 C 1413.179688 540.914062 1421.910156 549.644531 1421.910156 560.414062 L 1421.910156 939.585938 C 1421.910156 950.355469 1413.179688 959.085938 1402.410156 959.085938 L 97.589844 959.085938 C 86.820312 959.085938 78.089844 950.355469 78.089844 939.585938 L 78.089844 560.414062 C 78.089844 549.644531 86.820312 540.914062 97.589844 540.914062 Z M 97.589844 540.914062 " clip-rule="nonzero"/></clipPath><clipPath id="6df808bc93"><path d="M 823 542 L 872 542 L 872 780 L 823 780 Z M 823 542 " clip-rule="nonzero"/></clipPath><clipPath id="84b7b69a89"><path d="M 77.191406 559.515625 L 77.191406 940.484375 C 77.191406 951.253906 85.921875 959.984375 96.691406 959.984375 L 1403.308594 959.984375 C 1414.078125 959.984375 1422.808594 951.253906 1422.808594 940.484375 L 1422.808594 559.515625 C 1422.808594 548.746094 1414.078125 540.015625 1403.308594 540.015625 L 96.691406 540.015625 C 85.921875 540.015625 77.191406 548.746094 77.191406 559.515625 Z M 77.191406 559.515625 " clip-rule="nonzero"/></clipPath><clipPath id="2b19e3a971"><path d="M 97.589844 540.914062 L 1402.410156 540.914062 C 1413.179688 540.914062 1421.910156 549.644531 1421.910156 560.414062 L 1421.910156 939.585938 C 1421.910156 950.355469 1413.179688 959.085938 1402.410156 959.085938 L 97.589844 959.085938 C 86.820312 959.085938 78.089844 950.355469 78.089844 939.585938 L 78.089844 560.414062 C 78.089844 549.644531 86.820312 540.914062 97.589844 540.914062 Z M 97.589844 540.914062 " clip-rule="nonzero"/></clipPath><clipPath id="7bfb9029f4"><path d="M 822 541 L 873 541 L 873 780 L 822 780 Z M 822 541 " clip-rule="nonzero"/></clipPath><clipPath id="6157e4f797"><path d="M 77.191406 559.515625 L 77.191406 940.484375 C 77.191406 951.253906 85.921875 959.984375 96.691406 959.984375 L 1403.308594 959.984375 C 1414.078125 959.984375 1422.808594 951.253906 1422.808594 940.484375 L 1422.808594 559.515625 C 1422.808594 548.746094 1414.078125 540.015625 1403.308594 540.015625 L 96.691406 540.015625 C 85.921875 540.015625 77.191406 548.746094 77.191406 559.515625 Z M 77.191406 559.515625 " clip-rule="nonzero"/></clipPath><clipPath id="001d5ca66d"><path d="M 97.589844 540.914062 L 1402.410156 540.914062 C 1413.179688 540.914062 1421.910156 549.644531 1421.910156 560.414062 L 1421.910156 939.585938 C 1421.910156 950.355469 1413.179688 959.085938 1402.410156 959.085938 L 97.589844 959.085938 C 86.820312 959.085938 78.089844 950.355469 78.089844 939.585938 L 78.089844 560.414062 C 78.089844 549.644531 86.820312 540.914062 97.589844 540.914062 Z M 97.589844 540.914062 " clip-rule="nonzero"/></clipPath><clipPath id="5a4e0e4de9"><path d="M 918 542 L 967 542 L 967 780 L 918 780 Z M 918 542 " clip-rule="nonzero"/></clipPath><clipPath id="c076f602b2"><path d="M 77.191406 559.515625 L 77.191406 940.484375 C 77.191406 951.253906 85.921875 959.984375 96.691406 959.984375 L 1403.308594 959.984375 C 1414.078125 959.984375 1422.808594 951.253906 1422.808594 940.484375 L 1422.808594 559.515625 C 1422.808594 548.746094 1414.078125 540.015625 1403.308594 540.015625 L 96.691406 540.015625 C 85.921875 540.015625 77.191406 548.746094 77.191406 559.515625 Z M 77.191406 559.515625 " clip-rule="nonzero"/></clipPath><clipPath id="fa58fa702d"><path d="M 97.589844 540.914062 L 1402.410156 540.914062 C 1413.179688 540.914062 1421.910156 549.644531 1421.910156 560.414062 L 1421.910156 939.585938 C 1421.910156 950.355469 1413.179688 959.085938 1402.410156 959.085938 L 97.589844 959.085938 C 86.820312 959.085938 78.089844 950.355469 78.089844 939.585938 L 78.089844 560.414062 C 78.089844 549.644531 86.820312 540.914062 97.589844 540.914062 Z M 97.589844 540.914062 " clip-rule="nonzero"/></clipPath><clipPath id="332d05f47d"><path d="M 918 541 L 968 541 L 968 780 L 918 780 Z M 918 541 " clip-rule="nonzero"/></clipPath><clipPath id="8b909ff701"><path d="M 77.191406 559.515625 L 77.191406 940.484375 C 77.191406 951.253906 85.921875 959.984375 96.691406 959.984375 L 1403.308594 959.984375 C 1414.078125 959.984375 1422.808594 951.253906 1422.808594 940.484375 L 1422.808594 559.515625 C 1422.808594 548.746094 1414.078125 540.015625 1403.308594 540.015625 L 96.691406 540.015625 C 85.921875 540.015625 77.191406 548.746094 77.191406 559.515625 Z M 77.191406 559.515625 " clip-rule="nonzero"/></clipPath><clipPath id="2d86c19d9a"><path d="M 97.589844 540.914062 L 1402.410156 540.914062 C 1413.179688 540.914062 1421.910156 549.644531 1421.910156 560.414062 L 1421.910156 939.585938 C 1421.910156 950.355469 1413.179688 959.085938 1402.410156 959.085938 L 97.589844 959.085938 C 86.820312 959.085938 78.089844 950.355469 78.089844 939.585938 L 78.089844 560.414062 C 78.089844 549.644531 86.820312 540.914062 97.589844 540.914062 Z M 97.589844 540.914062 " clip-rule="nonzero"/></clipPath><clipPath id="2874d77e67"><path d="M 1109 541 L 1159 541 L 1159 779 L 1109 779 Z M 1109 541 " clip-rule="nonzero"/></clipPath><clipPath id="1a28fea40d"><path d="M 77.191406 559.515625 L 77.191406 940.484375 C 77.191406 951.253906 85.921875 959.984375 96.691406 959.984375 L 1403.308594 959.984375 C 1414.078125 959.984375 1422.808594 951.253906 1422.808594 940.484375 L 1422.808594 559.515625 C 1422.808594 548.746094 1414.078125 540.015625 1403.308594 540.015625 L 96.691406 540.015625 C 85.921875 540.015625 77.191406 548.746094 77.191406 559.515625 Z M 77.191406 559.515625 " clip-rule="nonzero"/></clipPath><clipPath id="dcbdd52472"><path d="M 97.589844 540.914062 L 1402.410156 540.914062 C 1413.179688 540.914062 1421.910156 549.644531 1421.910156 560.414062 L 1421.910156 939.585938 C 1421.910156 950.355469 1413.179688 959.085938 1402.410156 959.085938 L 97.589844 959.085938 C 86.820312 959.085938 78.089844 950.355469 78.089844 939.585938 L 78.089844 560.414062 C 78.089844 549.644531 86.820312 540.914062 97.589844 540.914062 Z M 97.589844 540.914062 " clip-rule="nonzero"/></clipPath><clipPath id="136b5104d0"><path d="M 1109 541 L 1159 541 L 1159 780 L 1109 780 Z M 1109 541 " clip-rule="nonzero"/></clipPath><clipPath id="9fd3660316"><path d="M 77.191406 559.515625 L 77.191406 940.484375 C 77.191406 951.253906 85.921875 959.984375 96.691406 959.984375 L 1403.308594 959.984375 C 1414.078125 959.984375 1422.808594 951.253906 1422.808594 940.484375 L 1422.808594 559.515625 C 1422.808594 548.746094 1414.078125 540.015625 1403.308594 540.015625 L 96.691406 540.015625 C 85.921875 540.015625 77.191406 548.746094 77.191406 559.515625 Z M 77.191406 559.515625 " clip-rule="nonzero"/></clipPath><clipPath id="7497d57617"><path d="M 97.589844 540.914062 L 1402.410156 540.914062 C 1413.179688 540.914062 1421.910156 549.644531 1421.910156 560.414062 L 1421.910156 939.585938 C 1421.910156 950.355469 1413.179688 959.085938 1402.410156 959.085938 L 97.589844 959.085938 C 86.820312 959.085938 78.089844 950.355469 78.089844 939.585938 L 78.089844 560.414062 C 78.089844 549.644531 86.820312 540.914062 97.589844 540.914062 Z M 97.589844 540.914062 " clip-rule="nonzero"/></clipPath><clipPath id="02dc2c8007"><path d="M 1204 542 L 1254 542 L 1254 780 L 1204 780 Z M 1204 542 " clip-rule="nonzero"/></clipPath><clipPath id="53c8f975cd"><path d="M 77.191406 559.515625 L 77.191406 940.484375 C 77.191406 951.253906 85.921875 959.984375 96.691406 959.984375 L 1403.308594 959.984375 C 1414.078125 959.984375 1422.808594 951.253906 1422.808594 940.484375 L 1422.808594 559.515625 C 1422.808594 548.746094 1414.078125 540.015625 1403.308594 540.015625 L 96.691406 540.015625 C 85.921875 540.015625 77.191406 548.746094 77.191406 559.515625 Z M 77.191406 559.515625 " clip-rule="nonzero"/></clipPath><clipPath id="1ef035523f"><path d="M 97.589844 540.914062 L 1402.410156 540.914062 C 1413.179688 540.914062 1421.910156 549.644531 1421.910156 560.414062 L 1421.910156 939.585938 C 1421.910156 950.355469 1413.179688 959.085938 1402.410156 959.085938 L 97.589844 959.085938 C 86.820312 959.085938 78.089844 950.355469 78.089844 939.585938 L 78.089844 560.414062 C 78.089844 549.644531 86.820312 540.914062 97.589844 540.914062 Z M 97.589844 540.914062 " clip-rule="nonzero"/></clipPath><clipPath id="f0cbdd56e1"><path d="M 1204 542 L 1254 542 L 1254 781 L 1204 781 Z M 1204 542 " clip-rule="nonzero"/></clipPath><clipPath id="f4b2def2c4"><path d="M 77.191406 559.515625 L 77.191406 940.484375 C 77.191406 951.253906 85.921875 959.984375 96.691406 959.984375 L 1403.308594 959.984375 C 1414.078125 959.984375 1422.808594 951.253906 1422.808594 940.484375 L 1422.808594 559.515625 C 1422.808594 548.746094 1414.078125 540.015625 1403.308594 540.015625 L 96.691406 540.015625 C 85.921875 540.015625 77.191406 548.746094 77.191406 559.515625 Z M 77.191406 559.515625 " clip-rule="nonzero"/></clipPath><clipPath id="c1dfc62f96"><path d="M 97.589844 540.914062 L 1402.410156 540.914062 C 1413.179688 540.914062 1421.910156 549.644531 1421.910156 560.414062 L 1421.910156 939.585938 C 1421.910156 950.355469 1413.179688 959.085938 1402.410156 959.085938 L 97.589844 959.085938 C 86.820312 959.085938 78.089844 950.355469 78.089844 939.585938 L 78.089844 560.414062 C 78.089844 549.644531 86.820312 540.914062 97.589844 540.914062 Z M 97.589844 540.914062 " clip-rule="nonzero"/></clipPath><clipPath id="ff49ca3e3a"><path d="M 1301 542 L 1350 542 L 1350 780 L 1301 780 Z M 1301 542 " clip-rule="nonzero"/></clipPath><clipPath id="9595f28771"><path d="M 77.191406 559.515625 L 77.191406 940.484375 C 77.191406 951.253906 85.921875 959.984375 96.691406 959.984375 L 1403.308594 959.984375 C 1414.078125 959.984375 1422.808594 951.253906 1422.808594 940.484375 L 1422.808594 559.515625 C 1422.808594 548.746094 1414.078125 540.015625 1403.308594 540.015625 L 96.691406 540.015625 C 85.921875 540.015625 77.191406 548.746094 77.191406 559.515625 Z M 77.191406 559.515625 " clip-rule="nonzero"/></clipPath><clipPath id="bd3215f2ec"><path d="M 97.589844 540.914062 L 1402.410156 540.914062 C 1413.179688 540.914062 1421.910156 549.644531 1421.910156 560.414062 L 1421.910156 939.585938 C 1421.910156 950.355469 1413.179688 959.085938 1402.410156 959.085938 L 97.589844 959.085938 C 86.820312 959.085938 78.089844 950.355469 78.089844 939.585938 L 78.089844 560.414062 C 78.089844 549.644531 86.820312 540.914062 97.589844 540.914062 Z M 97.589844 540.914062 " clip-rule="nonzero"/></clipPath><clipPath id="271ce24684"><path d="M 1301 541 L 1351 541 L 1351 780 L 1301 780 Z M 1301 541 " clip-rule="nonzero"/></clipPath><clipPath id="65fbb7aeaa"><path d="M 77.191406 559.515625 L 77.191406 940.484375 C 77.191406 951.253906 85.921875 959.984375 96.691406 959.984375 L 1403.308594 959.984375 C 1414.078125 959.984375 1422.808594 951.253906 1422.808594 940.484375 L 1422.808594 559.515625 C 1422.808594 548.746094 1414.078125 540.015625 1403.308594 540.015625 L 96.691406 540.015625 C 85.921875 540.015625 77.191406 548.746094 77.191406 559.515625 Z M 77.191406 559.515625 " clip-rule="nonzero"/></clipPath><clipPath id="f2935d4685"><path d="M 97.589844 540.914062 L 1402.410156 540.914062 C 1413.179688 540.914062 1421.910156 549.644531 1421.910156 560.414062 L 1421.910156 939.585938 C 1421.910156 950.355469 1413.179688 959.085938 1402.410156 959.085938 L 97.589844 959.085938 C 86.820312 959.085938 78.089844 950.355469 78.089844 939.585938 L 78.089844 560.414062 C 78.089844 549.644531 86.820312 540.914062 97.589844 540.914062 Z M 97.589844 540.914062 " clip-rule="nonzero"/></clipPath><clipPath id="84a0fbd366"><path d="M 750 540.765625 L 1421.941406 540.765625 L 1421.941406 959 L 750 959 Z M 750 540.765625 " clip-rule="nonzero"/></clipPath><clipPath id="465c62619c"><path d="M 77.191406 559.515625 L 77.191406 940.484375 C 77.191406 951.253906 85.921875 959.984375 96.691406 959.984375 L 1403.308594 959.984375 C 1414.078125 959.984375 1422.808594 951.253906 1422.808594 940.484375 L 1422.808594 559.515625 C 1422.808594 548.746094 1414.078125 540.015625 1403.308594 540.015625 L 96.691406 540.015625 C 85.921875 540.015625 77.191406 548.746094 77.191406 559.515625 Z M 77.191406 559.515625 " clip-rule="nonzero"/></clipPath><clipPath id="ea108f7e91"><path d="M 97.589844 540.914062 L 1402.410156 540.914062 C 1413.179688 540.914062 1421.910156 549.644531 1421.910156 560.414062 L 1421.910156 939.585938 C 1421.910156 950.355469 1413.179688 959.085938 1402.410156 959.085938 L 97.589844 959.085938 C 86.820312 959.085938 78.089844 950.355469 78.089844 939.585938 L 78.089844 560.414062 C 78.089844 549.644531 86.820312 540.914062 97.589844 540.914062 Z M 97.589844 540.914062 " clip-rule="nonzero"/></clipPath><clipPath id="8beeb69954"><path d="M 844 767 L 850 767 L 850 959.265625 L 844 959.265625 Z M 844 767 " clip-rule="nonzero"/></clipPath><clipPath id="75fa0856a9"><path d="M 77.191406 559.515625 L 77.191406 940.484375 C 77.191406 951.253906 85.921875 959.984375 96.691406 959.984375 L 1403.308594 959.984375 C 1414.078125 959.984375 1422.808594 951.253906 1422.808594 940.484375 L 1422.808594 559.515625 C 1422.808594 548.746094 1414.078125 540.015625 1403.308594 540.015625 L 96.691406 540.015625 C 85.921875 540.015625 77.191406 548.746094 77.191406 559.515625 Z M 77.191406 559.515625 " clip-rule="nonzero"/></clipPath><clipPath id="b1cab82757"><path d="M 97.589844 540.914062 L 1402.410156 540.914062 C 1413.179688 540.914062 1421.910156 549.644531 1421.910156 560.414062 L 1421.910156 939.585938 C 1421.910156 950.355469 1413.179688 959.085938 1402.410156 959.085938 L 97.589844 959.085938 C 86.820312 959.085938 78.089844 950.355469 78.089844 939.585938 L 78.089844 560.414062 C 78.089844 549.644531 86.820312 540.914062 97.589844 540.914062 Z M 97.589844 540.914062 " clip-rule="nonzero"/></clipPath><clipPath id="879dd43633"><path d="M 940 766 L 946 766 L 946 959 L 940 959 Z M 940 766 " clip-rule="nonzero"/></clipPath><clipPath id="a3630405d4"><path d="M 77.191406 559.515625 L 77.191406 940.484375 C 77.191406 951.253906 85.921875 959.984375 96.691406 959.984375 L 1403.308594 959.984375 C 1414.078125 959.984375 1422.808594 951.253906 1422.808594 940.484375 L 1422.808594 559.515625 C 1422.808594 548.746094 1414.078125 540.015625 1403.308594 540.015625 L 96.691406 540.015625 C 85.921875 540.015625 77.191406 548.746094 77.191406 559.515625 Z M 77.191406 559.515625 " clip-rule="nonzero"/></clipPath><clipPath id="40fda95ab3"><path d="M 97.589844 540.914062 L 1402.410156 540.914062 C 1413.179688 540.914062 1421.910156 549.644531 1421.910156 560.414062 L 1421.910156 939.585938 C 1421.910156 950.355469 1413.179688 959.085938 1402.410156 959.085938 L 97.589844 959.085938 C 86.820312 959.085938 78.089844 950.355469 78.089844 939.585938 L 78.089844 560.414062 C 78.089844 549.644531 86.820312 540.914062 97.589844 540.914062 Z M 97.589844 540.914062 " clip-rule="nonzero"/></clipPath><clipPath id="36a55c6aef"><path d="M 1131 767 L 1137 767 L 1137 959.265625 L 1131 959.265625 Z M 1131 767 " clip-rule="nonzero"/></clipPath><clipPath id="51e47dcca9"><path d="M 77.191406 559.515625 L 77.191406 940.484375 C 77.191406 951.253906 85.921875 959.984375 96.691406 959.984375 L 1403.308594 959.984375 C 1414.078125 959.984375 1422.808594 951.253906 1422.808594 940.484375 L 1422.808594 559.515625 C 1422.808594 548.746094 1414.078125 540.015625 1403.308594 540.015625 L 96.691406 540.015625 C 85.921875 540.015625 77.191406 548.746094 77.191406 559.515625 Z M 77.191406 559.515625 " clip-rule="nonzero"/></clipPath><clipPath id="0bac650574"><path d="M 97.589844 540.914062 L 1402.410156 540.914062 C 1413.179688 540.914062 1421.910156 549.644531 1421.910156 560.414062 L 1421.910156 939.585938 C 1421.910156 950.355469 1413.179688 959.085938 1402.410156 959.085938 L 97.589844 959.085938 C 86.820312 959.085938 78.089844 950.355469 78.089844 939.585938 L 78.089844 560.414062 C 78.089844 549.644531 86.820312 540.914062 97.589844 540.914062 Z M 97.589844 540.914062 " clip-rule="nonzero"/></clipPath><clipPath id="bec893968e"><path d="M 1226 767 L 1232 767 L 1232 959.265625 L 1226 959.265625 Z M 1226 767 " clip-rule="nonzero"/></clipPath><clipPath id="f553fddee4"><path d="M 77.191406 559.515625 L 77.191406 940.484375 C 77.191406 951.253906 85.921875 959.984375 96.691406 959.984375 L 1403.308594 959.984375 C 1414.078125 959.984375 1422.808594 951.253906 1422.808594 940.484375 L 1422.808594 559.515625 C 1422.808594 548.746094 1414.078125 540.015625 1403.308594 540.015625 L 96.691406 540.015625 C 85.921875 540.015625 77.191406 548.746094 77.191406 559.515625 Z M 77.191406 559.515625 " clip-rule="nonzero"/></clipPath><clipPath id="62c47e3218"><path d="M 97.589844 540.914062 L 1402.410156 540.914062 C 1413.179688 540.914062 1421.910156 549.644531 1421.910156 560.414062 L 1421.910156 939.585938 C 1421.910156 950.355469 1413.179688 959.085938 1402.410156 959.085938 L 97.589844 959.085938 C 86.820312 959.085938 78.089844 950.355469 78.089844 939.585938 L 78.089844 560.414062 C 78.089844 549.644531 86.820312 540.914062 97.589844 540.914062 Z M 97.589844 540.914062 " clip-rule="nonzero"/></clipPath><clipPath id="1e59eb1ac3"><path d="M 1323 767 L 1329 767 L 1329 959.265625 L 1323 959.265625 Z M 1323 767 " clip-rule="nonzero"/></clipPath><clipPath id="5893e43c28"><path d="M 77.191406 559.515625 L 77.191406 940.484375 C 77.191406 951.253906 85.921875 959.984375 96.691406 959.984375 L 1403.308594 959.984375 C 1414.078125 959.984375 1422.808594 951.253906 1422.808594 940.484375 L 1422.808594 559.515625 C 1422.808594 548.746094 1414.078125 540.015625 1403.308594 540.015625 L 96.691406 540.015625 C 85.921875 540.015625 77.191406 548.746094 77.191406 559.515625 Z M 77.191406 559.515625 " clip-rule="nonzero"/></clipPath><clipPath id="250da9c4ec"><path d="M 97.589844 540.914062 L 1402.410156 540.914062 C 1413.179688 540.914062 1421.910156 549.644531 1421.910156 560.414062 L 1421.910156 939.585938 C 1421.910156 950.355469 1413.179688 959.085938 1402.410156 959.085938 L 97.589844 959.085938 C 86.820312 959.085938 78.089844 950.355469 78.089844 939.585938 L 78.089844 560.414062 C 78.089844 549.644531 86.820312 540.914062 97.589844 540.914062 Z M 97.589844 540.914062 " clip-rule="nonzero"/></clipPath><clipPath id="ad9fcb3de0"><path d="M 1036 540.765625 L 1042 540.765625 L 1042 959.265625 L 1036 959.265625 Z M 1036 540.765625 " clip-rule="nonzero"/></clipPath><clipPath id="a9166e51dc"><path d="M 77.191406 559.515625 L 77.191406 940.484375 C 77.191406 951.253906 85.921875 959.984375 96.691406 959.984375 L 1403.308594 959.984375 C 1414.078125 959.984375 1422.808594 951.253906 1422.808594 940.484375 L 1422.808594 559.515625 C 1422.808594 548.746094 1414.078125 540.015625 1403.308594 540.015625 L 96.691406 540.015625 C 85.921875 540.015625 77.191406 548.746094 77.191406 559.515625 Z M 77.191406 559.515625 " clip-rule="nonzero"/></clipPath><clipPath id="bc9bd19f20"><path d="M 97.589844 540.914062 L 1402.410156 540.914062 C 1413.179688 540.914062 1421.910156 549.644531 1421.910156 560.414062 L 1421.910156 939.585938 C 1421.910156 950.355469 1413.179688 959.085938 1402.410156 959.085938 L 97.589844 959.085938 C 86.820312 959.085938 78.089844 950.355469 78.089844 939.585938 L 78.089844 560.414062 C 78.089844 549.644531 86.820312 540.914062 97.589844 540.914062 Z M 97.589844 540.914062 " clip-rule="nonzero"/></clipPath><clipPath id="c814cd3986"><path d="M 251 549 L 292 549 L 292 771 L 251 771 Z M 251 549 " clip-rule="nonzero"/></clipPath><clipPath id="61160913d0"><path d="M 77.191406 559.515625 L 77.191406 940.484375 C 77.191406 951.253906 85.921875 959.984375 96.691406 959.984375 L 1403.308594 959.984375 C 1414.078125 959.984375 1422.808594 951.253906 1422.808594 940.484375 L 1422.808594 559.515625 C 1422.808594 548.746094 1414.078125 540.015625 1403.308594 540.015625 L 96.691406 540.015625 C 85.921875 540.015625 77.191406 548.746094 77.191406 559.515625 Z M 77.191406 559.515625 " clip-rule="nonzero"/></clipPath><clipPath id="9c346c3ee7"><path d="M 97.589844 540.914062 L 1402.410156 540.914062 C 1413.179688 540.914062 1421.910156 549.644531 1421.910156 560.414062 L 1421.910156 939.585938 C 1421.910156 950.355469 1413.179688 959.085938 1402.410156 959.085938 L 97.589844 959.085938 C 86.820312 959.085938 78.089844 950.355469 78.089844 939.585938 L 78.089844 560.414062 C 78.089844 549.644531 86.820312 540.914062 97.589844 540.914062 Z M 97.589844 540.914062 " clip-rule="nonzero"/></clipPath><clipPath id="aa8f0d5dbc"><path d="M 246 544 L 298 544 L 298 777 L 246 777 Z M 246 544 " clip-rule="nonzero"/></clipPath><clipPath id="317d3affb3"><path d="M 77.191406 559.515625 L 77.191406 940.484375 C 77.191406 951.253906 85.921875 959.984375 96.691406 959.984375 L 1403.308594 959.984375 C 1414.078125 959.984375 1422.808594 951.253906 1422.808594 940.484375 L 1422.808594 559.515625 C 1422.808594 548.746094 1414.078125 540.015625 1403.308594 540.015625 L 96.691406 540.015625 C 85.921875 540.015625 77.191406 548.746094 77.191406 559.515625 Z M 77.191406 559.515625 " clip-rule="nonzero"/></clipPath><clipPath id="bbd0dfd9a5"><path d="M 97.589844 540.914062 L 1402.410156 540.914062 C 1413.179688 540.914062 1421.910156 549.644531 1421.910156 560.414062 L 1421.910156 939.585938 C 1421.910156 950.355469 1413.179688 959.085938 1402.410156 959.085938 L 97.589844 959.085938 C 86.820312 959.085938 78.089844 950.355469 78.089844 939.585938 L 78.089844 560.414062 C 78.089844 549.644531 86.820312 540.914062 97.589844 540.914062 Z M 97.589844 540.914062 " clip-rule="nonzero"/></clipPath><clipPath id="658859bdc8"><path d="M 443 549 L 484 549 L 484 771 L 443 771 Z M 443 549 " clip-rule="nonzero"/></clipPath><clipPath id="dd53f4f7e6"><path d="M 77.191406 559.515625 L 77.191406 940.484375 C 77.191406 951.253906 85.921875 959.984375 96.691406 959.984375 L 1403.308594 959.984375 C 1414.078125 959.984375 1422.808594 951.253906 1422.808594 940.484375 L 1422.808594 559.515625 C 1422.808594 548.746094 1414.078125 540.015625 1403.308594 540.015625 L 96.691406 540.015625 C 85.921875 540.015625 77.191406 548.746094 77.191406 559.515625 Z M 77.191406 559.515625 " clip-rule="nonzero"/></clipPath><clipPath id="f22a3e31b9"><path d="M 97.589844 540.914062 L 1402.410156 540.914062 C 1413.179688 540.914062 1421.910156 549.644531 1421.910156 560.414062 L 1421.910156 939.585938 C 1421.910156 950.355469 1413.179688 959.085938 1402.410156 959.085938 L 97.589844 959.085938 C 86.820312 959.085938 78.089844 950.355469 78.089844 939.585938 L 78.089844 560.414062 C 78.089844 549.644531 86.820312 540.914062 97.589844 540.914062 Z M 97.589844 540.914062 " clip-rule="nonzero"/></clipPath><clipPath id="d702a7cd1c"><path d="M 437 544 L 489 544 L 489 777 L 437 777 Z M 437 544 " clip-rule="nonzero"/></clipPath><clipPath id="64f4039126"><path d="M 77.191406 559.515625 L 77.191406 940.484375 C 77.191406 951.253906 85.921875 959.984375 96.691406 959.984375 L 1403.308594 959.984375 C 1414.078125 959.984375 1422.808594 951.253906 1422.808594 940.484375 L 1422.808594 559.515625 C 1422.808594 548.746094 1414.078125 540.015625 1403.308594 540.015625 L 96.691406 540.015625 C 85.921875 540.015625 77.191406 548.746094 77.191406 559.515625 Z M 77.191406 559.515625 " clip-rule="nonzero"/></clipPath><clipPath id="c10223da9d"><path d="M 97.589844 540.914062 L 1402.410156 540.914062 C 1413.179688 540.914062 1421.910156 549.644531 1421.910156 560.414062 L 1421.910156 939.585938 C 1421.910156 950.355469 1413.179688 959.085938 1402.410156 959.085938 L 97.589844 959.085938 C 86.820312 959.085938 78.089844 950.355469 78.089844 939.585938 L 78.089844 560.414062 C 78.089844 549.644531 86.820312 540.914062 97.589844 540.914062 Z M 97.589844 540.914062 " clip-rule="nonzero"/></clipPath><clipPath id="868ae7c2a3"><path d="M 537 551 L 578 551 L 578 773 L 537 773 Z M 537 551 " clip-rule="nonzero"/></clipPath><clipPath id="6592eda55d"><path d="M 77.191406 559.515625 L 77.191406 940.484375 C 77.191406 951.253906 85.921875 959.984375 96.691406 959.984375 L 1403.308594 959.984375 C 1414.078125 959.984375 1422.808594 951.253906 1422.808594 940.484375 L 1422.808594 559.515625 C 1422.808594 548.746094 1414.078125 540.015625 1403.308594 540.015625 L 96.691406 540.015625 C 85.921875 540.015625 77.191406 548.746094 77.191406 559.515625 Z M 77.191406 559.515625 " clip-rule="nonzero"/></clipPath><clipPath id="9d12a3551d"><path d="M 97.589844 540.914062 L 1402.410156 540.914062 C 1413.179688 540.914062 1421.910156 549.644531 1421.910156 560.414062 L 1421.910156 939.585938 C 1421.910156 950.355469 1413.179688 959.085938 1402.410156 959.085938 L 97.589844 959.085938 C 86.820312 959.085938 78.089844 950.355469 78.089844 939.585938 L 78.089844 560.414062 C 78.089844 549.644531 86.820312 540.914062 97.589844 540.914062 Z M 97.589844 540.914062 " clip-rule="nonzero"/></clipPath><clipPath id="a3f9df2657"><path d="M 531 546 L 583 546 L 583 779 L 531 779 Z M 531 546 " clip-rule="nonzero"/></clipPath><clipPath id="39e770e93c"><path d="M 77.191406 559.515625 L 77.191406 940.484375 C 77.191406 951.253906 85.921875 959.984375 96.691406 959.984375 L 1403.308594 959.984375 C 1414.078125 959.984375 1422.808594 951.253906 1422.808594 940.484375 L 1422.808594 559.515625 C 1422.808594 548.746094 1414.078125 540.015625 1403.308594 540.015625 L 96.691406 540.015625 C 85.921875 540.015625 77.191406 548.746094 77.191406 559.515625 Z M 77.191406 559.515625 " clip-rule="nonzero"/></clipPath><clipPath id="2fe5cdd15a"><path d="M 97.589844 540.914062 L 1402.410156 540.914062 C 1413.179688 540.914062 1421.910156 549.644531 1421.910156 560.414062 L 1421.910156 939.585938 C 1421.910156 950.355469 1413.179688 959.085938 1402.410156 959.085938 L 97.589844 959.085938 C 86.820312 959.085938 78.089844 950.355469 78.089844 939.585938 L 78.089844 560.414062 C 78.089844 549.644531 86.820312 540.914062 97.589844 540.914062 Z M 97.589844 540.914062 " clip-rule="nonzero"/></clipPath><clipPath id="634a965af2"><path d="M 634 551 L 675 551 L 675 773 L 634 773 Z M 634 551 " clip-rule="nonzero"/></clipPath><clipPath id="e312c7cf63"><path d="M 77.191406 559.515625 L 77.191406 940.484375 C 77.191406 951.253906 85.921875 959.984375 96.691406 959.984375 L 1403.308594 959.984375 C 1414.078125 959.984375 1422.808594 951.253906 1422.808594 940.484375 L 1422.808594 559.515625 C 1422.808594 548.746094 1414.078125 540.015625 1403.308594 540.015625 L 96.691406 540.015625 C 85.921875 540.015625 77.191406 548.746094 77.191406 559.515625 Z M 77.191406 559.515625 " clip-rule="nonzero"/></clipPath><clipPath id="cc26b337b4"><path d="M 97.589844 540.914062 L 1402.410156 540.914062 C 1413.179688 540.914062 1421.910156 549.644531 1421.910156 560.414062 L 1421.910156 939.585938 C 1421.910156 950.355469 1413.179688 959.085938 1402.410156 959.085938 L 97.589844 959.085938 C 86.820312 959.085938 78.089844 950.355469 78.089844 939.585938 L 78.089844 560.414062 C 78.089844 549.644531 86.820312 540.914062 97.589844 540.914062 Z M 97.589844 540.914062 " clip-rule="nonzero"/></clipPath><clipPath id="8967150837"><path d="M 629 546 L 681 546 L 681 779 L 629 779 Z M 629 546 " clip-rule="nonzero"/></clipPath><clipPath id="1e9a8cc7ab"><path d="M 77.191406 559.515625 L 77.191406 940.484375 C 77.191406 951.253906 85.921875 959.984375 96.691406 959.984375 L 1403.308594 959.984375 C 1414.078125 959.984375 1422.808594 951.253906 1422.808594 940.484375 L 1422.808594 559.515625 C 1422.808594 548.746094 1414.078125 540.015625 1403.308594 540.015625 L 96.691406 540.015625 C 85.921875 540.015625 77.191406 548.746094 77.191406 559.515625 Z M 77.191406 559.515625 " clip-rule="nonzero"/></clipPath><clipPath id="d7979fffc9"><path d="M 97.589844 540.914062 L 1402.410156 540.914062 C 1413.179688 540.914062 1421.910156 549.644531 1421.910156 560.414062 L 1421.910156 939.585938 C 1421.910156 950.355469 1413.179688 959.085938 1402.410156 959.085938 L 97.589844 959.085938 C 86.820312 959.085938 78.089844 950.355469 78.089844 939.585938 L 78.089844 560.414062 C 78.089844 549.644531 86.820312 540.914062 97.589844 540.914062 Z M 97.589844 540.914062 " clip-rule="nonzero"/></clipPath><clipPath id="559dedc903"><path d="M 827 548 L 868 548 L 868 770 L 827 770 Z M 827 548 " clip-rule="nonzero"/></clipPath><clipPath id="ecceea2ced"><path d="M 77.191406 559.515625 L 77.191406 940.484375 C 77.191406 951.253906 85.921875 959.984375 96.691406 959.984375 L 1403.308594 959.984375 C 1414.078125 959.984375 1422.808594 951.253906 1422.808594 940.484375 L 1422.808594 559.515625 C 1422.808594 548.746094 1414.078125 540.015625 1403.308594 540.015625 L 96.691406 540.015625 C 85.921875 540.015625 77.191406 548.746094 77.191406 559.515625 Z M 77.191406 559.515625 " clip-rule="nonzero"/></clipPath><clipPath id="60f718c915"><path d="M 97.589844 540.914062 L 1402.410156 540.914062 C 1413.179688 540.914062 1421.910156 549.644531 1421.910156 560.414062 L 1421.910156 939.585938 C 1421.910156 950.355469 1413.179688 959.085938 1402.410156 959.085938 L 97.589844 959.085938 C 86.820312 959.085938 78.089844 950.355469 78.089844 939.585938 L 78.089844 560.414062 C 78.089844 549.644531 86.820312 540.914062 97.589844 540.914062 Z M 97.589844 540.914062 " clip-rule="nonzero"/></clipPath><clipPath id="7683b982c7"><path d="M 822 542 L 874 542 L 874 775 L 822 775 Z M 822 542 " clip-rule="nonzero"/></clipPath><clipPath id="da33e24e1b"><path d="M 77.191406 559.515625 L 77.191406 940.484375 C 77.191406 951.253906 85.921875 959.984375 96.691406 959.984375 L 1403.308594 959.984375 C 1414.078125 959.984375 1422.808594 951.253906 1422.808594 940.484375 L 1422.808594 559.515625 C 1422.808594 548.746094 1414.078125 540.015625 1403.308594 540.015625 L 96.691406 540.015625 C 85.921875 540.015625 77.191406 548.746094 77.191406 559.515625 Z M 77.191406 559.515625 " clip-rule="nonzero"/></clipPath><clipPath id="7a71dbd97a"><path d="M 97.589844 540.914062 L 1402.410156 540.914062 C 1413.179688 540.914062 1421.910156 549.644531 1421.910156 560.414062 L 1421.910156 939.585938 C 1421.910156 950.355469 1413.179688 959.085938 1402.410156 959.085938 L 97.589844 959.085938 C 86.820312 959.085938 78.089844 950.355469 78.089844 939.585938 L 78.089844 560.414062 C 78.089844 549.644531 86.820312 540.914062 97.589844 540.914062 Z M 97.589844 540.914062 " clip-rule="nonzero"/></clipPath><clipPath id="0d65d768f7"><path d="M 925 548 L 966 548 L 966 770 L 925 770 Z M 925 548 " clip-rule="nonzero"/></clipPath><clipPath id="a2ffc4464d"><path d="M 77.191406 559.515625 L 77.191406 940.484375 C 77.191406 951.253906 85.921875 959.984375 96.691406 959.984375 L 1403.308594 959.984375 C 1414.078125 959.984375 1422.808594 951.253906 1422.808594 940.484375 L 1422.808594 559.515625 C 1422.808594 548.746094 1414.078125 540.015625 1403.308594 540.015625 L 96.691406 540.015625 C 85.921875 540.015625 77.191406 548.746094 77.191406 559.515625 Z M 77.191406 559.515625 " clip-rule="nonzero"/></clipPath><clipPath id="e8b8490be5"><path d="M 97.589844 540.914062 L 1402.410156 540.914062 C 1413.179688 540.914062 1421.910156 549.644531 1421.910156 560.414062 L 1421.910156 939.585938 C 1421.910156 950.355469 1413.179688 959.085938 1402.410156 959.085938 L 97.589844 959.085938 C 86.820312 959.085938 78.089844 950.355469 78.089844 939.585938 L 78.089844 560.414062 C 78.089844 549.644531 86.820312 540.914062 97.589844 540.914062 Z M 97.589844 540.914062 " clip-rule="nonzero"/></clipPath><clipPath id="7b2fb3ac03"><path d="M 919 542 L 971 542 L 971 775 L 919 775 Z M 919 542 " clip-rule="nonzero"/></clipPath><clipPath id="797f42ea76"><path d="M 77.191406 559.515625 L 77.191406 940.484375 C 77.191406 951.253906 85.921875 959.984375 96.691406 959.984375 L 1403.308594 959.984375 C 1414.078125 959.984375 1422.808594 951.253906 1422.808594 940.484375 L 1422.808594 559.515625 C 1422.808594 548.746094 1414.078125 540.015625 1403.308594 540.015625 L 96.691406 540.015625 C 85.921875 540.015625 77.191406 548.746094 77.191406 559.515625 Z M 77.191406 559.515625 " clip-rule="nonzero"/></clipPath><clipPath id="708d667fcd"><path d="M 97.589844 540.914062 L 1402.410156 540.914062 C 1413.179688 540.914062 1421.910156 549.644531 1421.910156 560.414062 L 1421.910156 939.585938 C 1421.910156 950.355469 1413.179688 959.085938 1402.410156 959.085938 L 97.589844 959.085938 C 86.820312 959.085938 78.089844 950.355469 78.089844 939.585938 L 78.089844 560.414062 C 78.089844 549.644531 86.820312 540.914062 97.589844 540.914062 Z M 97.589844 540.914062 " clip-rule="nonzero"/></clipPath><clipPath id="80a06672f4"><path d="M 1116 553 L 1157 553 L 1157 775 L 1116 775 Z M 1116 553 " clip-rule="nonzero"/></clipPath><clipPath id="7af82faccf"><path d="M 77.191406 559.515625 L 77.191406 940.484375 C 77.191406 951.253906 85.921875 959.984375 96.691406 959.984375 L 1403.308594 959.984375 C 1414.078125 959.984375 1422.808594 951.253906 1422.808594 940.484375 L 1422.808594 559.515625 C 1422.808594 548.746094 1414.078125 540.015625 1403.308594 540.015625 L 96.691406 540.015625 C 85.921875 540.015625 77.191406 548.746094 77.191406 559.515625 Z M 77.191406 559.515625 " clip-rule="nonzero"/></clipPath><clipPath id="8d3f538fd9"><path d="M 97.589844 540.914062 L 1402.410156 540.914062 C 1413.179688 540.914062 1421.910156 549.644531 1421.910156 560.414062 L 1421.910156 939.585938 C 1421.910156 950.355469 1413.179688 959.085938 1402.410156 959.085938 L 97.589844 959.085938 C 86.820312 959.085938 78.089844 950.355469 78.089844 939.585938 L 78.089844 560.414062 C 78.089844 549.644531 86.820312 540.914062 97.589844 540.914062 Z M 97.589844 540.914062 " clip-rule="nonzero"/></clipPath><clipPath id="12ad620182"><path d="M 1111 548 L 1162 548 L 1162 780 L 1111 780 Z M 1111 548 " clip-rule="nonzero"/></clipPath><clipPath id="5a34381b78"><path d="M 77.191406 559.515625 L 77.191406 940.484375 C 77.191406 951.253906 85.921875 959.984375 96.691406 959.984375 L 1403.308594 959.984375 C 1414.078125 959.984375 1422.808594 951.253906 1422.808594 940.484375 L 1422.808594 559.515625 C 1422.808594 548.746094 1414.078125 540.015625 1403.308594 540.015625 L 96.691406 540.015625 C 85.921875 540.015625 77.191406 548.746094 77.191406 559.515625 Z M 77.191406 559.515625 " clip-rule="nonzero"/></clipPath><clipPath id="7e70d5add8"><path d="M 97.589844 540.914062 L 1402.410156 540.914062 C 1413.179688 540.914062 1421.910156 549.644531 1421.910156 560.414062 L 1421.910156 939.585938 C 1421.910156 950.355469 1413.179688 959.085938 1402.410156 959.085938 L 97.589844 959.085938 C 86.820312 959.085938 78.089844 950.355469 78.089844 939.585938 L 78.089844 560.414062 C 78.089844 549.644531 86.820312 540.914062 97.589844 540.914062 Z M 97.589844 540.914062 " clip-rule="nonzero"/></clipPath><clipPath id="46c36720a4"><path d="M 1210 555 L 1251 555 L 1251 777 L 1210 777 Z M 1210 555 " clip-rule="nonzero"/></clipPath><clipPath id="c3be923823"><path d="M 77.191406 559.515625 L 77.191406 940.484375 C 77.191406 951.253906 85.921875 959.984375 96.691406 959.984375 L 1403.308594 959.984375 C 1414.078125 959.984375 1422.808594 951.253906 1422.808594 940.484375 L 1422.808594 559.515625 C 1422.808594 548.746094 1414.078125 540.015625 1403.308594 540.015625 L 96.691406 540.015625 C 85.921875 540.015625 77.191406 548.746094 77.191406 559.515625 Z M 77.191406 559.515625 " clip-rule="nonzero"/></clipPath><clipPath id="7e4006ed6f"><path d="M 97.589844 540.914062 L 1402.410156 540.914062 C 1413.179688 540.914062 1421.910156 549.644531 1421.910156 560.414062 L 1421.910156 939.585938 C 1421.910156 950.355469 1413.179688 959.085938 1402.410156 959.085938 L 97.589844 959.085938 C 86.820312 959.085938 78.089844 950.355469 78.089844 939.585938 L 78.089844 560.414062 C 78.089844 549.644531 86.820312 540.914062 97.589844 540.914062 Z M 97.589844 540.914062 " clip-rule="nonzero"/></clipPath><clipPath id="201d710752"><path d="M 1205 549 L 1256 549 L 1256 782 L 1205 782 Z M 1205 549 " clip-rule="nonzero"/></clipPath><clipPath id="b9ba0d5066"><path d="M 77.191406 559.515625 L 77.191406 940.484375 C 77.191406 951.253906 85.921875 959.984375 96.691406 959.984375 L 1403.308594 959.984375 C 1414.078125 959.984375 1422.808594 951.253906 1422.808594 940.484375 L 1422.808594 559.515625 C 1422.808594 548.746094 1414.078125 540.015625 1403.308594 540.015625 L 96.691406 540.015625 C 85.921875 540.015625 77.191406 548.746094 77.191406 559.515625 Z M 77.191406 559.515625 " clip-rule="nonzero"/></clipPath><clipPath id="e71621060f"><path d="M 97.589844 540.914062 L 1402.410156 540.914062 C 1413.179688 540.914062 1421.910156 549.644531 1421.910156 560.414062 L 1421.910156 939.585938 C 1421.910156 950.355469 1413.179688 959.085938 1402.410156 959.085938 L 97.589844 959.085938 C 86.820312 959.085938 78.089844 950.355469 78.089844 939.585938 L 78.089844 560.414062 C 78.089844 549.644531 86.820312 540.914062 97.589844 540.914062 Z M 97.589844 540.914062 " clip-rule="nonzero"/></clipPath><clipPath id="67bf59a656"><path d="M 1306 553 L 1347 553 L 1347 775 L 1306 775 Z M 1306 553 " clip-rule="nonzero"/></clipPath><clipPath id="a1bf7cbe0b"><path d="M 77.191406 559.515625 L 77.191406 940.484375 C 77.191406 951.253906 85.921875 959.984375 96.691406 959.984375 L 1403.308594 959.984375 C 1414.078125 959.984375 1422.808594 951.253906 1422.808594 940.484375 L 1422.808594 559.515625 C 1422.808594 548.746094 1414.078125 540.015625 1403.308594 540.015625 L 96.691406 540.015625 C 85.921875 540.015625 77.191406 548.746094 77.191406 559.515625 Z M 77.191406 559.515625 " clip-rule="nonzero"/></clipPath><clipPath id="ed79c1ee06"><path d="M 97.589844 540.914062 L 1402.410156 540.914062 C 1413.179688 540.914062 1421.910156 549.644531 1421.910156 560.414062 L 1421.910156 939.585938 C 1421.910156 950.355469 1413.179688 959.085938 1402.410156 959.085938 L 97.589844 959.085938 C 86.820312 959.085938 78.089844 950.355469 78.089844 939.585938 L 78.089844 560.414062 C 78.089844 549.644531 86.820312 540.914062 97.589844 540.914062 Z M 97.589844 540.914062 " clip-rule="nonzero"/></clipPath><clipPath id="bf4af56444"><path d="M 1300 548 L 1352 548 L 1352 780 L 1300 780 Z M 1300 548 " clip-rule="nonzero"/></clipPath><clipPath id="e80bc64a4c"><path d="M 77.191406 559.515625 L 77.191406 940.484375 C 77.191406 951.253906 85.921875 959.984375 96.691406 959.984375 L 1403.308594 959.984375 C 1414.078125 959.984375 1422.808594 951.253906 1422.808594 940.484375 L 1422.808594 559.515625 C 1422.808594 548.746094 1414.078125 540.015625 1403.308594 540.015625 L 96.691406 540.015625 C 85.921875 540.015625 77.191406 548.746094 77.191406 559.515625 Z M 77.191406 559.515625 " clip-rule="nonzero"/></clipPath><clipPath id="ff0fb4dff3"><path d="M 97.589844 540.914062 L 1402.410156 540.914062 C 1413.179688 540.914062 1421.910156 549.644531 1421.910156 560.414062 L 1421.910156 939.585938 C 1421.910156 950.355469 1413.179688 959.085938 1402.410156 959.085938 L 97.589844 959.085938 C 86.820312 959.085938 78.089844 950.355469 78.089844 939.585938 L 78.089844 560.414062 C 78.089844 549.644531 86.820312 540.914062 97.589844 540.914062 Z M 97.589844 540.914062 " clip-rule="nonzero"/></clipPath><clipPath id="ccf01e4e87"><path d="M 77.191406 540.015625 L 1422.691406 540.015625 L 1422.691406 960 L 77.191406 960 Z M 77.191406 540.015625 " clip-rule="nonzero"/></clipPath><clipPath id="741068bdc3"><path d="M 77.191406 559.515625 L 77.191406 940.484375 C 77.191406 951.253906 85.921875 959.984375 96.691406 959.984375 L 1403.308594 959.984375 C 1414.078125 959.984375 1422.808594 951.253906 1422.808594 940.484375 L 1422.808594 559.515625 C 1422.808594 548.746094 1414.078125 540.015625 1403.308594 540.015625 L 96.691406 540.015625 C 85.921875 540.015625 77.191406 548.746094 77.191406 559.515625 Z M 77.191406 559.515625 " clip-rule="nonzero"/></clipPath><clipPath id="021ee7c896"><path d="M 77.191406 559.515625 L 77.191406 940.480469 C 77.191406 951.25 85.921875 959.980469 96.691406 959.980469 L 1403.296875 959.980469 C 1414.066406 959.980469 1422.796875 951.25 1422.796875 940.480469 L 1422.796875 559.515625 C 1422.796875 548.746094 1414.066406 540.015625 1403.296875 540.015625 L 96.691406 540.015625 C 85.921875 540.015625 77.191406 548.746094 77.191406 559.515625 Z M 77.191406 559.515625 " clip-rule="nonzero"/></clipPath><clipPath id="d112d46ae7"><path d="M 193.289062 871.257812 L 254.039062 871.257812 L 254.039062 932.007812 L 193.289062 932.007812 Z M 193.289062 871.257812 " clip-rule="nonzero"/></clipPath><clipPath id="fb1bd2b747"><path d="M 575.527344 871.257812 L 636.277344 871.257812 L 636.277344 932.007812 L 575.527344 932.007812 Z M 575.527344 871.257812 " clip-rule="nonzero"/></clipPath><clipPath id="213db974b5"><path d="M 432.464844 703.183594 L 491.714844 703.183594 L 491.714844 762.433594 L 432.464844 762.433594 Z M 432.464844 703.183594 " clip-rule="nonzero"/></clipPath><clipPath id="0bde4a7382"><path d="M 431.714844 732.75 C 431.714844 749.492188 445.289062 763.066406 462.03125 763.066406 C 478.773438 763.066406 492.347656 749.492188 492.347656 732.75 C 492.347656 716.007812 478.773438 702.433594 462.03125 702.433594 C 445.289062 702.433594 431.714844 716.007812 431.714844 732.75 Z M 431.714844 732.75 " clip-rule="nonzero"/></clipPath><clipPath id="87024e317f"><path d="M 462.03125 703.335938 C 478.277344 703.335938 491.445312 716.503906 491.445312 732.75 C 491.445312 748.996094 478.277344 762.164062 462.03125 762.164062 C 445.785156 762.164062 432.617188 748.996094 432.617188 732.75 C 432.617188 716.503906 445.785156 703.335938 462.03125 703.335938 Z M 462.03125 703.335938 " clip-rule="nonzero"/></clipPath><clipPath id="4216459000"><path d="M 431.714844 702.433594 L 492.457031 702.433594 L 492.457031 763.175781 L 431.714844 763.175781 Z M 431.714844 702.433594 " clip-rule="nonzero"/></clipPath><clipPath id="cab6aa881a"><path d="M 431.714844 732.75 C 431.714844 749.492188 445.289062 763.066406 462.03125 763.066406 C 478.773438 763.066406 492.347656 749.492188 492.347656 732.75 C 492.347656 716.007812 478.773438 702.433594 462.03125 702.433594 C 445.289062 702.433594 431.714844 716.007812 431.714844 732.75 Z M 431.714844 732.75 " clip-rule="nonzero"/></clipPath><clipPath id="d156463689"><path d="M 431.714844 732.746094 C 431.714844 749.484375 445.285156 763.054688 462.027344 763.054688 C 478.765625 763.054688 492.335938 749.484375 492.335938 732.746094 C 492.335938 716.003906 478.765625 702.433594 462.027344 702.433594 C 445.285156 702.433594 431.714844 716.003906 431.714844 732.746094 Z M 431.714844 732.746094 " clip-rule="nonzero"/></clipPath></defs><g clip-path="url(#d11558bb1b)"><g clip-path="url(#9caa1f61c8)"><g clip-path="url(#fee0959eb3)"><path fill="#000000" d="M 150.664062 543.847656 L 198.878906 543.847656 L 198.878906 780.875 L 150.664062 780.875 Z M 150.664062 543.847656 " fill-opacity="1" fill-rule="evenodd"/></g></g></g><g clip-path="url(#7ded7e3280)"><g clip-path="url(#6153c08885)"><g clip-path="url(#9603abfba4)"><path stroke-linecap="butt" transform="matrix(0.932292, 0, 0, 0.926936, 47.487538, 386.843824)" fill="none" stroke-linejoin="miter" d="M 110.669807 169.379439 L 162.386295 169.379439 L 162.386295 425.090131 L 110.669807 425.090131 Z M 110.669807 169.379439 " stroke="#000000" stroke-width="1.207" stroke-opacity="1" stroke-miterlimit="4"/></g></g></g><g clip-path="url(#c39aca64fd)"><g clip-path="url(#09e6582605)"><g clip-path="url(#a4a277eb75)"><path fill="#000000" d="M 246.121094 543.726562 L 294.335938 543.726562 L 294.335938 780.753906 L 246.121094 780.753906 Z M 246.121094 543.726562 " fill-opacity="1" fill-rule="evenodd"/></g></g></g><g clip-path="url(#30d78bc506)"><g clip-path="url(#555ff5ef68)"><g clip-path="url(#be6f512936)"><path stroke-linecap="butt" transform="matrix(0.932292, 0, 0, 0.926936, 47.487538, 386.843824)" fill="none" stroke-linejoin="miter" d="M 213.059486 169.2488 L 264.775974 169.2488 L 264.775974 424.959492 L 213.059486 424.959492 Z M 213.059486 169.2488 " stroke="#000000" stroke-width="1.207" stroke-opacity="1" stroke-miterlimit="4"/></g></g></g><g clip-path="url(#611c5c3919)"><g clip-path="url(#246b62c496)"><g clip-path="url(#b923036b09)"><path fill="#000000" d="M 437.34375 543.253906 L 485.558594 543.253906 L 485.558594 780.28125 L 437.34375 780.28125 Z M 437.34375 543.253906 " fill-opacity="1" fill-rule="evenodd"/></g></g></g><g clip-path="url(#47d5063090)"><g clip-path="url(#c662749963)"><g clip-path="url(#c53525b94d)"><path stroke-linecap="butt" transform="matrix(0.932292, 0, 0, 0.926936, 47.487538, 386.843824)" fill="none" stroke-linejoin="miter" d="M 418.16985 168.738888 L 469.886338 168.738888 L 469.886338 424.44958 L 418.16985 424.44958 Z M 418.16985 168.738888 " stroke="#000000" stroke-width="1.207" stroke-opacity="1" stroke-miterlimit="4"/></g></g></g><g clip-path="url(#a7e09cc4cd)"><g clip-path="url(#7616d52a44)"><g clip-path="url(#451dcb6b2c)"><path fill="#000000" d="M 532.25 544.199219 L 580.46875 544.199219 L 580.46875 781.226562 L 532.25 781.226562 Z M 532.25 544.199219 " fill-opacity="1" fill-rule="evenodd"/></g></g></g><g clip-path="url(#217f55bd48)"><g clip-path="url(#87123fbf2d)"><g clip-path="url(#99e0a4f6d0)"><path stroke-linecap="butt" transform="matrix(0.932292, 0, 0, 0.926936, 47.487538, 386.843824)" fill="none" stroke-linejoin="miter" d="M 519.968747 169.758713 L 571.689425 169.758713 L 571.689425 425.469405 L 519.968747 425.469405 Z M 519.968747 169.758713 " stroke="#000000" stroke-width="1.207" stroke-opacity="1" stroke-miterlimit="4"/></g></g></g><g clip-path="url(#27fc0ff659)"><g clip-path="url(#1c65a4d224)"><g clip-path="url(#e2ea75dbb7)"><path fill="#000000" d="M 629.050781 543.726562 L 677.265625 543.726562 L 677.265625 780.753906 L 629.050781 780.753906 Z M 629.050781 543.726562 " fill-opacity="1" fill-rule="evenodd"/></g></g></g><g clip-path="url(#d25bd76b63)"><g clip-path="url(#9174de1e9a)"><g clip-path="url(#a17e2c9eb6)"><path stroke-linecap="butt" transform="matrix(0.932292, 0, 0, 0.926936, 47.487538, 386.843824)" fill="none" stroke-linejoin="miter" d="M 623.799767 169.2488 L 675.516255 169.2488 L 675.516255 424.959492 L 623.799767 424.959492 Z M 623.799767 169.2488 " stroke="#000000" stroke-width="1.207" stroke-opacity="1" stroke-miterlimit="4"/></g></g></g><g clip-path="url(#6613f73a32)"><g clip-path="url(#a737cd63f0)"><g clip-path="url(#f8958d3c7b)"><path stroke-linecap="butt" transform="matrix(0.932292, 0, 0, 0.926936, 47.487538, 386.843824)" fill="none" stroke-linejoin="miter" d="M 33.516165 167.950841 L 751.857048 167.950841 L 751.857048 617.091233 L 33.516165 617.091233 Z M 33.516165 167.950841 " stroke="#000000" stroke-width="2.375" stroke-opacity="1" stroke-miterlimit="4"/></g></g></g><g clip-path="url(#5eb97085e8)"><g clip-path="url(#cf17b116d5)"><g clip-path="url(#5c5555fcda)"><path stroke-linecap="butt" transform="matrix(2.142509, 0, 0, 2.142857, 65.302506, 525.658063)" fill="none" stroke-linejoin="miter" d="M 50.74467 114.680684 L 50.74467 202.135125 " stroke="#000000" stroke-width="2.375" stroke-opacity="1" stroke-miterlimit="4"/></g></g></g><g clip-path="url(#ee7fe88d5d)"><g clip-path="url(#7c7609f3a1)"><g clip-path="url(#02ac46779c)"><path stroke-linecap="butt" transform="matrix(2.142509, 0, 0, 2.142857, 65.302506, 525.658063)" fill="none" stroke-linejoin="miter" d="M 95.847303 114.25959 L 95.847303 201.715855 " stroke="#000000" stroke-width="2.375" stroke-opacity="1" stroke-miterlimit="4"/></g></g></g><g clip-path="url(#ecb0b160d1)"><g clip-path="url(#d774e8500d)"><g clip-path="url(#36d35672c7)"><path stroke-linecap="butt" transform="matrix(2.142509, 0, 0, 2.142857, 65.302506, 525.658063)" fill="none" stroke-linejoin="miter" d="M 184.960464 114.839277 L 184.960464 202.295542 " stroke="#000000" stroke-width="2.375" stroke-opacity="1" stroke-miterlimit="4"/></g></g></g><g clip-path="url(#5699d7d49a)"><g clip-path="url(#cee418731d)"><g clip-path="url(#7a38a2833e)"><path stroke-linecap="butt" transform="matrix(2.142509, 0, 0, 2.142857, 65.302506, 525.658063)" fill="none" stroke-linejoin="miter" d="M 229.269999 114.839277 L 229.269999 202.295542 " stroke="#000000" stroke-width="2.375" stroke-opacity="1" stroke-miterlimit="4"/></g></g></g><g clip-path="url(#0a5dcb7abb)"><g clip-path="url(#036fd97611)"><g clip-path="url(#e3e7012cb0)"><path stroke-linecap="butt" transform="matrix(2.142509, 0, 0, 2.142857, 65.302506, 525.658063)" fill="none" stroke-linejoin="miter" d="M 274.689871 114.520267 L 274.689871 201.976532 " stroke="#000000" stroke-width="2.375" stroke-opacity="1" stroke-miterlimit="4"/></g></g></g><g clip-path="url(#6fe595ef3a)"><g clip-path="url(#517039ae28)"><g clip-path="url(#4fb56721bf)"><path stroke-linecap="butt" transform="matrix(2.142509, 0, 0, 2.142857, 65.302506, 525.658063)" fill="none" stroke-linejoin="miter" d="M 140.350099 8.069207 L 140.350099 201.949188 " stroke="#000000" stroke-width="2.375" stroke-opacity="1" stroke-miterlimit="4"/></g></g></g><g clip-path="url(#5eebe0b67b)"><g clip-path="url(#7cb6ace43f)"><g clip-path="url(#a557300569)"><path fill="#000000" d="M 157.082031 552.585938 L 197.097656 552.585938 L 197.097656 773.582031 L 157.082031 773.582031 Z M 157.082031 552.585938 " fill-opacity="1" fill-rule="nonzero"/></g></g></g><g clip-path="url(#2e57c44745)"><g clip-path="url(#9da0a8b81b)"><g clip-path="url(#fce36a8c50)"><path stroke-linecap="butt" transform="matrix(2.142509, 0, 0, 2.142857, 65.302506, 525.658063)" fill="none" stroke-linejoin="miter" d="M 42.837398 12.566344 L 61.514387 12.566344 L 61.514387 115.697871 L 42.837398 115.697871 Z M 42.837398 12.566344 " stroke="#000000" stroke-width="5" stroke-opacity="1" stroke-miterlimit="4"/></g></g></g><g clip-path="url(#6df808bc93)"><g clip-path="url(#84b7b69a89)"><g clip-path="url(#2b19e3a971)"><path fill="#000000" d="M 823.230469 542.382812 L 871.445312 542.382812 L 871.445312 779.410156 L 823.230469 779.410156 Z M 823.230469 542.382812 " fill-opacity="1" fill-rule="evenodd"/></g></g></g><g clip-path="url(#7bfb9029f4)"><g clip-path="url(#6157e4f797)"><g clip-path="url(#001d5ca66d)"><path stroke-linecap="butt" transform="matrix(0.932292, 0, 0, 0.926936, 47.487538, 386.843824)" fill="none" stroke-linejoin="miter" d="M 832.08192 167.799131 L 883.798407 167.799131 L 883.798407 423.509823 L 832.08192 423.509823 Z M 832.08192 167.799131 " stroke="#000000" stroke-width="1.207" stroke-opacity="1" stroke-miterlimit="4"/></g></g></g><g clip-path="url(#5a4e0e4de9)"><g clip-path="url(#c076f602b2)"><g clip-path="url(#fa58fa702d)"><path fill="#000000" d="M 918.6875 542.261719 L 966.902344 542.261719 L 966.902344 779.289062 L 918.6875 779.289062 Z M 918.6875 542.261719 " fill-opacity="1" fill-rule="evenodd"/></g></g></g><g clip-path="url(#332d05f47d)"><g clip-path="url(#8b909ff701)"><g clip-path="url(#2d86c19d9a)"><path stroke-linecap="butt" transform="matrix(0.932292, 0, 0, 0.926936, 47.487538, 386.843824)" fill="none" stroke-linejoin="miter" d="M 934.471599 167.668492 L 986.188087 167.668492 L 986.188087 423.379184 L 934.471599 423.379184 Z M 934.471599 167.668492 " stroke="#000000" stroke-width="1.207" stroke-opacity="1" stroke-miterlimit="4"/></g></g></g><g clip-path="url(#2874d77e67)"><g clip-path="url(#1a28fea40d)"><g clip-path="url(#dcbdd52472)"><path fill="#000000" d="M 1109.925781 541.800781 L 1158.144531 541.800781 L 1158.144531 778.828125 L 1109.925781 778.828125 Z M 1109.925781 541.800781 " fill-opacity="1" fill-rule="evenodd"/></g></g></g><g clip-path="url(#136b5104d0)"><g clip-path="url(#9fd3660316)"><g clip-path="url(#7497d57617)"><path stroke-linecap="butt" transform="matrix(0.932292, 0, 0, 0.926936, 47.487538, 386.843824)" fill="none" stroke-linejoin="miter" d="M 1139.598723 167.171222 L 1191.3194 167.171222 L 1191.3194 422.881914 L 1139.598723 422.881914 Z M 1139.598723 167.171222 " stroke="#000000" stroke-width="1.207" stroke-opacity="1" stroke-miterlimit="4"/></g></g></g><g clip-path="url(#02dc2c8007)"><g clip-path="url(#53c8f975cd)"><g clip-path="url(#1ef035523f)"><path fill="#000000" d="M 1204.835938 542.734375 L 1253.050781 542.734375 L 1253.050781 779.761719 L 1204.835938 779.761719 Z M 1204.835938 542.734375 " fill-opacity="1" fill-rule="evenodd"/></g></g></g><g clip-path="url(#f0cbdd56e1)"><g clip-path="url(#f4b2def2c4)"><g clip-path="url(#c1dfc62f96)"><path stroke-linecap="butt" transform="matrix(0.932292, 0, 0, 0.926936, 47.487538, 386.843824)" fill="none" stroke-linejoin="miter" d="M 1241.40181 168.178405 L 1293.118297 168.178405 L 1293.118297 423.889097 L 1241.40181 423.889097 Z M 1241.40181 168.178405 " stroke="#000000" stroke-width="1.207" stroke-opacity="1" stroke-miterlimit="4"/></g></g></g><g clip-path="url(#ff49ca3e3a)"><g clip-path="url(#9595f28771)"><g clip-path="url(#bd3215f2ec)"><path fill="#000000" d="M 1301.605469 542.261719 L 1349.824219 542.261719 L 1349.824219 779.289062 L 1301.605469 779.289062 Z M 1301.605469 542.261719 " fill-opacity="1" fill-rule="evenodd"/></g></g></g><g clip-path="url(#271ce24684)"><g clip-path="url(#65fbb7aeaa)"><g clip-path="url(#f2935d4685)"><path stroke-linecap="butt" transform="matrix(0.932292, 0, 0, 0.926936, 47.487538, 386.843824)" fill="none" stroke-linejoin="miter" d="M 1345.19931 167.668492 L 1396.919988 167.668492 L 1396.919988 423.379184 L 1345.19931 423.379184 Z M 1345.19931 167.668492 " stroke="#000000" stroke-width="1.207" stroke-opacity="1" stroke-miterlimit="4"/></g></g></g><g clip-path="url(#84a0fbd366)"><g clip-path="url(#465c62619c)"><g clip-path="url(#ea108f7e91)"><path stroke-linecap="butt" transform="matrix(0.932292, 0, 0, 0.926936, 47.487538, 386.843824)" fill="none" stroke-linejoin="miter" d="M 754.919898 166.370533 L 1473.260781 166.370533 L 1473.260781 615.510925 L 754.919898 615.510925 Z M 754.919898 166.370533 " stroke="#000000" stroke-width="2.375" stroke-opacity="1" stroke-miterlimit="4"/></g></g></g><g clip-path="url(#8beeb69954)"><g clip-path="url(#75fa0856a9)"><g clip-path="url(#b1cab82757)"><path stroke-linecap="butt" transform="matrix(2.142509, 0, 0, 2.142857, 65.302506, 525.658063)" fill="none" stroke-linejoin="miter" d="M 364.659941 114.000736 L 364.659941 201.455177 " stroke="#000000" stroke-width="2.375" stroke-opacity="1" stroke-miterlimit="4"/></g></g></g><g clip-path="url(#879dd43633)"><g clip-path="url(#a3630405d4)"><g clip-path="url(#40fda95ab3)"><path stroke-linecap="butt" transform="matrix(2.142509, 0, 0, 2.142857, 65.302506, 525.658063)" fill="none" stroke-linejoin="miter" d="M 409.760751 113.579642 L 409.760751 201.035907 " stroke="#000000" stroke-width="2.375" stroke-opacity="1" stroke-miterlimit="4"/></g></g></g><g clip-path="url(#36a55c6aef)"><g clip-path="url(#51e47dcca9)"><g clip-path="url(#0bac650574)"><path stroke-linecap="butt" transform="matrix(2.142509, 0, 0, 2.142857, 65.302506, 525.658063)" fill="none" stroke-linejoin="miter" d="M 498.870265 114.150215 L 498.870265 201.60648 " stroke="#000000" stroke-width="2.375" stroke-opacity="1" stroke-miterlimit="4"/></g></g></g><g clip-path="url(#bec893968e)"><g clip-path="url(#f553fddee4)"><g clip-path="url(#62c47e3218)"><path stroke-linecap="butt" transform="matrix(2.142509, 0, 0, 2.142857, 65.302506, 525.658063)" fill="none" stroke-linejoin="miter" d="M 543.19074 114.150215 L 543.19074 201.60648 " stroke="#000000" stroke-width="2.375" stroke-opacity="1" stroke-miterlimit="4"/></g></g></g><g clip-path="url(#1e59eb1ac3)"><g clip-path="url(#5893e43c28)"><g clip-path="url(#250da9c4ec)"><path stroke-linecap="butt" transform="matrix(2.142509, 0, 0, 2.142857, 65.302506, 525.658063)" fill="none" stroke-linejoin="miter" d="M 588.599672 113.840319 L 588.599672 201.296584 " stroke="#000000" stroke-width="2.375" stroke-opacity="1" stroke-miterlimit="4"/></g></g></g><g clip-path="url(#ad9fcb3de0)"><g clip-path="url(#a9166e51dc)"><g clip-path="url(#bc9bd19f20)"><path stroke-linecap="butt" transform="matrix(2.142509, 0, 0, 2.142857, 65.302506, 525.658063)" fill="none" stroke-linejoin="miter" d="M 454.2599 7.387437 L 454.2599 201.267417 " stroke="#000000" stroke-width="2.375" stroke-opacity="1" stroke-miterlimit="4"/></g></g></g><g clip-path="url(#c814cd3986)"><g clip-path="url(#61160913d0)"><g clip-path="url(#9c346c3ee7)"><path fill="#000000" d="M 251.898438 549.980469 L 291.914062 549.980469 L 291.914062 770.972656 L 251.898438 770.972656 Z M 251.898438 549.980469 " fill-opacity="1" fill-rule="nonzero"/></g></g></g><g clip-path="url(#aa8f0d5dbc)"><g clip-path="url(#317d3affb3)"><g clip-path="url(#bbd0dfd9a5)"><path stroke-linecap="butt" transform="matrix(2.142509, 0, 0, 2.142857, 65.302506, 525.658063)" fill="none" stroke-linejoin="miter" d="M 87.092236 11.350458 L 105.769226 11.350458 L 105.769226 114.480163 L 87.092236 114.480163 Z M 87.092236 11.350458 " stroke="#000000" stroke-width="5" stroke-opacity="1" stroke-miterlimit="4"/></g></g></g><g clip-path="url(#658859bdc8)"><g clip-path="url(#dd53f4f7e6)"><g clip-path="url(#f22a3e31b9)"><path fill="#000000" d="M 443.285156 549.980469 L 483.300781 549.980469 L 483.300781 770.972656 L 443.285156 770.972656 Z M 443.285156 549.980469 " fill-opacity="1" fill-rule="nonzero"/></g></g></g><g clip-path="url(#d702a7cd1c)"><g clip-path="url(#64f4039126)"><g clip-path="url(#c10223da9d)"><path stroke-linecap="butt" transform="matrix(2.142509, 0, 0, 2.142857, 65.302506, 525.658063)" fill="none" stroke-linejoin="miter" d="M 176.420536 11.350458 L 195.097526 11.350458 L 195.097526 114.480163 L 176.420536 114.480163 Z M 176.420536 11.350458 " stroke="#000000" stroke-width="5" stroke-opacity="1" stroke-miterlimit="4"/></g></g></g><g clip-path="url(#868ae7c2a3)"><g clip-path="url(#6592eda55d)"><g clip-path="url(#9d12a3551d)"><path fill="#000000" d="M 537.234375 551.71875 L 577.25 551.71875 L 577.25 772.710938 L 537.234375 772.710938 Z M 537.234375 551.71875 " fill-opacity="1" fill-rule="nonzero"/></g></g></g><g clip-path="url(#a3f9df2657)"><g clip-path="url(#39e770e93c)"><g clip-path="url(#2fe5cdd15a)"><path stroke-linecap="butt" transform="matrix(2.142509, 0, 0, 2.142857, 65.302506, 525.658063)" fill="none" stroke-linejoin="miter" d="M 220.270622 12.161656 L 238.947611 12.161656 L 238.947611 115.291361 L 220.270622 115.291361 Z M 220.270622 12.161656 " stroke="#000000" stroke-width="5" stroke-opacity="1" stroke-miterlimit="4"/></g></g></g><g clip-path="url(#634a965af2)"><g clip-path="url(#e312c7cf63)"><g clip-path="url(#cc26b337b4)"><path fill="#000000" d="M 634.652344 551.71875 L 674.667969 551.71875 L 674.667969 772.710938 L 634.652344 772.710938 Z M 634.652344 551.71875 " fill-opacity="1" fill-rule="nonzero"/></g></g></g><g clip-path="url(#8967150837)"><g clip-path="url(#1e9a8cc7ab)"><g clip-path="url(#d7979fffc9)"><path stroke-linecap="butt" transform="matrix(2.142509, 0, 0, 2.142857, 65.302506, 525.658063)" fill="none" stroke-linejoin="miter" d="M 265.73972 12.161656 L 284.41671 12.161656 L 284.41671 115.291361 L 265.73972 115.291361 Z M 265.73972 12.161656 " stroke="#000000" stroke-width="5" stroke-opacity="1" stroke-miterlimit="4"/></g></g></g><g clip-path="url(#559dedc903)"><g clip-path="url(#ecceea2ced)"><g clip-path="url(#60f718c915)"><path fill="#000000" d="M 827.777344 548.238281 L 867.792969 548.238281 L 867.792969 769.230469 L 827.777344 769.230469 Z M 827.777344 548.238281 " fill-opacity="1" fill-rule="nonzero"/></g></g></g><g clip-path="url(#7683b982c7)"><g clip-path="url(#da33e24e1b)"><g clip-path="url(#7a71dbd97a)"><path stroke-linecap="butt" transform="matrix(2.142509, 0, 0, 2.142857, 65.302506, 525.658063)" fill="none" stroke-linejoin="miter" d="M 355.87935 10.537437 L 374.556339 10.537437 L 374.556339 113.667142 L 355.87935 113.667142 Z M 355.87935 10.537437 " stroke="#000000" stroke-width="5" stroke-opacity="1" stroke-miterlimit="4"/></g></g></g><g clip-path="url(#0d65d768f7)"><g clip-path="url(#a2ffc4464d)"><g clip-path="url(#e8b8490be5)"><path fill="#000000" d="M 925.21875 548.238281 L 965.234375 548.238281 L 965.234375 769.230469 L 925.21875 769.230469 Z M 925.21875 548.238281 " fill-opacity="1" fill-rule="nonzero"/></g></g></g><g clip-path="url(#7b2fb3ac03)"><g clip-path="url(#797f42ea76)"><g clip-path="url(#708d667fcd)"><path stroke-linecap="butt" transform="matrix(2.142509, 0, 0, 2.142857, 65.302506, 525.658063)" fill="none" stroke-linejoin="miter" d="M 401.359387 10.537437 L 420.036377 10.537437 L 420.036377 113.667142 L 401.359387 113.667142 Z M 401.359387 10.537437 " stroke="#000000" stroke-width="5" stroke-opacity="1" stroke-miterlimit="4"/></g></g></g><g clip-path="url(#80a06672f4)"><g clip-path="url(#7af82faccf)"><g clip-path="url(#8d3f538fd9)"><path fill="#000000" d="M 1116.589844 553.460938 L 1156.605469 553.460938 L 1156.605469 774.453125 L 1116.589844 774.453125 Z M 1116.589844 553.460938 " fill-opacity="1" fill-rule="nonzero"/></g></g></g><g clip-path="url(#12ad620182)"><g clip-path="url(#5a34381b78)"><g clip-path="url(#7e70d5add8)"><path stroke-linecap="butt" transform="matrix(2.142509, 0, 0, 2.142857, 65.302506, 525.658063)" fill="none" stroke-linejoin="miter" d="M 490.680394 12.974677 L 509.357384 12.974677 L 509.357384 116.104382 L 490.680394 116.104382 Z M 490.680394 12.974677 " stroke="#000000" stroke-width="5" stroke-opacity="1" stroke-miterlimit="4"/></g></g></g><g clip-path="url(#46c36720a4)"><g clip-path="url(#c3be923823)"><g clip-path="url(#7e4006ed6f)"><path fill="#000000" d="M 1210.539062 555.199219 L 1250.554688 555.199219 L 1250.554688 776.191406 L 1210.539062 776.191406 Z M 1210.539062 555.199219 " fill-opacity="1" fill-rule="nonzero"/></g></g></g><g clip-path="url(#201d710752)"><g clip-path="url(#b9ba0d5066)"><g clip-path="url(#e71621060f)"><path stroke-linecap="butt" transform="matrix(2.142509, 0, 0, 2.142857, 65.302506, 525.658063)" fill="none" stroke-linejoin="miter" d="M 534.53048 13.785875 L 553.20747 13.785875 L 553.20747 116.91558 L 534.53048 116.91558 Z M 534.53048 13.785875 " stroke="#000000" stroke-width="5" stroke-opacity="1" stroke-miterlimit="4"/></g></g></g><g clip-path="url(#67bf59a656)"><g clip-path="url(#a1bf7cbe0b)"><g clip-path="url(#ed79c1ee06)"><path fill="#000000" d="M 1306.242188 553.460938 L 1346.257812 553.460938 L 1346.257812 774.453125 L 1306.242188 774.453125 Z M 1306.242188 553.460938 " fill-opacity="1" fill-rule="nonzero"/></g></g></g><g clip-path="url(#bf4af56444)"><g clip-path="url(#e80bc64a4c)"><g clip-path="url(#ff0fb4dff3)"><path stroke-linecap="butt" transform="matrix(2.142509, 0, 0, 2.142857, 65.302506, 525.658063)" fill="none" stroke-linejoin="miter" d="M 579.199188 12.974677 L 597.876178 12.974677 L 597.876178 116.104382 L 579.199188 116.104382 Z M 579.199188 12.974677 " stroke="#000000" stroke-width="5" stroke-opacity="1" stroke-miterlimit="4"/></g></g></g><g clip-path="url(#ccf01e4e87)"><g clip-path="url(#741068bdc3)"><g clip-path="url(#021ee7c896)"><path stroke-linecap="butt" transform="matrix(0.75, 0, 0, 0.75, 77.19158, 540.015173)" fill="none" stroke-linejoin="miter" d="M -0.000231002 26.000604 L -0.000231002 533.953773 C -0.000231002 548.313149 11.640396 559.953775 25.999773 559.953775 L 1768.140659 559.953775 C 1782.500037 559.953775 1794.140663 548.313149 1794.140663 533.953773 L 1794.140663 26.000604 C 1794.140663 11.641228 1782.500037 0.000602018 1768.140659 0.000602018 L 25.999773 0.000602018 C 11.640396 0.000602018 -0.000231002 11.641228 -0.000231002 26.000604 Z M -0.000231002 26.000604 " stroke="#000000" stroke-width="10" stroke-opacity="1" stroke-miterlimit="4"/></g></g></g><g clip-path="url(#d112d46ae7)"><path fill="#000000" d="M 223.664062 871.257812 C 206.882812 871.257812 193.289062 884.851562 193.289062 901.632812 C 193.289062 918.417969 206.882812 932.007812 223.664062 932.007812 C 240.445312 932.007812 254.039062 918.417969 254.039062 901.632812 C 254.039062 884.851562 240.445312 871.257812 223.664062 871.257812 Z M 223.664062 871.257812 " fill-opacity="1" fill-rule="nonzero"/></g><g clip-path="url(#fb1bd2b747)"><path fill="#000000" d="M 605.902344 871.257812 C 589.121094 871.257812 575.527344 884.851562 575.527344 901.632812 C 575.527344 918.417969 589.121094 932.007812 605.902344 932.007812 C 622.6875 932.007812 636.277344 918.417969 636.277344 901.632812 C 636.277344 884.851562 622.6875 871.257812 605.902344 871.257812 Z M 605.902344 871.257812 " fill-opacity="1" fill-rule="nonzero"/></g><g clip-path="url(#213db974b5)"><g clip-path="url(#0bde4a7382)"><g clip-path="url(#87024e317f)"><path fill="#ffffff" d="M 462.027344 702.433594 C 445.28125 702.433594 431.714844 716 431.714844 732.746094 C 431.714844 749.492188 445.28125 763.054688 462.027344 763.054688 C 478.773438 763.054688 492.335938 749.492188 492.335938 732.746094 C 492.335938 716 478.773438 702.433594 462.027344 702.433594 Z M 462.027344 702.433594 " fill-opacity="1" fill-rule="nonzero"/></g></g></g><g clip-path="url(#4216459000)"><g clip-path="url(#cab6aa881a)"><g clip-path="url(#d156463689)"><path stroke-linecap="butt" transform="matrix(0.75, 0, 0, 0.75, 431.71622, 702.434919)" fill="none" stroke-linejoin="miter" d="M -0.00183522 40.414902 C -0.00183522 62.732613 18.091916 80.826364 40.414835 80.826364 C 62.732545 80.826364 80.826297 62.732613 80.826297 40.414902 C 80.826297 18.091984 62.732545 -0.00176766 40.414835 -0.00176766 C 18.091916 -0.00176766 -0.00183522 18.091984 -0.00183522 40.414902 Z M -0.00183522 40.414902 " stroke="#000000" stroke-width="14" stroke-opacity="1" stroke-miterlimit="4"/></g></g></g></svg>