<svg xmlns="http://www.w3.org/2000/svg" xmlns:xlink="http://www.w3.org/1999/xlink" width="2000" zoomAndPan="magnify" viewBox="0 0 1500 1499.999933" height="2000" preserveAspectRatio="xMidYMid meet" version="1.0"><defs><clipPath id="cb20fe4b83"><path d="M 150 543 L 199 543 L 199 781 L 150 781 Z M 150 543 " clip-rule="nonzero"/></clipPath><clipPath id="4066da84b9"><path d="M 77.191406 559.515625 L 77.191406 940.484375 C 77.191406 951.253906 85.921875 959.984375 96.691406 959.984375 L 1403.308594 959.984375 C 1414.078125 959.984375 1422.808594 951.253906 1422.808594 940.484375 L 1422.808594 559.515625 C 1422.808594 548.746094 1414.078125 540.015625 1403.308594 540.015625 L 96.691406 540.015625 C 85.921875 540.015625 77.191406 548.746094 77.191406 559.515625 Z M 77.191406 559.515625 " clip-rule="nonzero"/></clipPath><clipPath id="620ce67bf7"><path d="M 97.589844 540.914062 L 1402.410156 540.914062 C 1413.179688 540.914062 1421.910156 549.644531 1421.910156 560.414062 L 1421.910156 939.585938 C 1421.910156 950.355469 1413.179688 959.085938 1402.410156 959.085938 L 97.589844 959.085938 C 86.820312 959.085938 78.089844 950.355469 78.089844 939.585938 L 78.089844 560.414062 C 78.089844 549.644531 86.820312 540.914062 97.589844 540.914062 Z M 97.589844 540.914062 " clip-rule="nonzero"/></clipPath><clipPath id="1d67b36234"><path d="M 150 543 L 200 543 L 200 782 L 150 782 Z M 150 543 " clip-rule="nonzero"/></clipPath><clipPath id="c9097abae5"><path d="M 77.191406 559.515625 L 77.191406 940.484375 C 77.191406 951.253906 85.921875 959.984375 96.691406 959.984375 L 1403.308594 959.984375 C 1414.078125 959.984375 1422.808594 951.253906 1422.808594 940.484375 L 1422.808594 559.515625 C 1422.808594 548.746094 1414.078125 540.015625 1403.308594 540.015625 L 96.691406 540.015625 C 85.921875 540.015625 77.191406 548.746094 77.191406 559.515625 Z M 77.191406 559.515625 " clip-rule="nonzero"/></clipPath><clipPath id="20ff07c8d3"><path d="M 97.589844 540.914062 L 1402.410156 540.914062 C 1413.179688 540.914062 1421.910156 549.644531 1421.910156 560.414062 L 1421.910156 939.585938 C 1421.910156 950.355469 1413.179688 959.085938 1402.410156 959.085938 L 97.589844 959.085938 C 86.820312 959.085938 78.089844 950.355469 78.089844 939.585938 L 78.089844 560.414062 C 78.089844 549.644531 86.820312 540.914062 97.589844 540.914062 Z M 97.589844 540.914062 " clip-rule="nonzero"/></clipPath><clipPath id="64c1c0cc1c"><path d="M 246 543 L 295 543 L 295 781 L 246 781 Z M 246 543 " clip-rule="nonzero"/></clipPath><clipPath id="ef2634c88d"><path d="M 77.191406 559.515625 L 77.191406 940.484375 C 77.191406 951.253906 85.921875 959.984375 96.691406 959.984375 L 1403.308594 959.984375 C 1414.078125 959.984375 1422.808594 951.253906 1422.808594 940.484375 L 1422.808594 559.515625 C 1422.808594 548.746094 1414.078125 540.015625 1403.308594 540.015625 L 96.691406 540.015625 C 85.921875 540.015625 77.191406 548.746094 77.191406 559.515625 Z M 77.191406 559.515625 " clip-rule="nonzero"/></clipPath><clipPath id="95bb1bc8f2"><path d="M 97.589844 540.914062 L 1402.410156 540.914062 C 1413.179688 540.914062 1421.910156 549.644531 1421.910156 560.414062 L 1421.910156 939.585938 C 1421.910156 950.355469 1413.179688 959.085938 1402.410156 959.085938 L 97.589844 959.085938 C 86.820312 959.085938 78.089844 950.355469 78.089844 939.585938 L 78.089844 560.414062 C 78.089844 549.644531 86.820312 540.914062 97.589844 540.914062 Z M 97.589844 540.914062 " clip-rule="nonzero"/></clipPath><clipPath id="179a79bd6f"><path d="M 245 543 L 295 543 L 295 782 L 245 782 Z M 245 543 " clip-rule="nonzero"/></clipPath><clipPath id="b9daed890c"><path d="M 77.191406 559.515625 L 77.191406 940.484375 C 77.191406 951.253906 85.921875 959.984375 96.691406 959.984375 L 1403.308594 959.984375 C 1414.078125 959.984375 1422.808594 951.253906 1422.808594 940.484375 L 1422.808594 559.515625 C 1422.808594 548.746094 1414.078125 540.015625 1403.308594 540.015625 L 96.691406 540.015625 C 85.921875 540.015625 77.191406 548.746094 77.191406 559.515625 Z M 77.191406 559.515625 " clip-rule="nonzero"/></clipPath><clipPath id="1df88c409e"><path d="M 97.589844 540.914062 L 1402.410156 540.914062 C 1413.179688 540.914062 1421.910156 549.644531 1421.910156 560.414062 L 1421.910156 939.585938 C 1421.910156 950.355469 1413.179688 959.085938 1402.410156 959.085938 L 97.589844 959.085938 C 86.820312 959.085938 78.089844 950.355469 78.089844 939.585938 L 78.089844 560.414062 C 78.089844 549.644531 86.820312 540.914062 97.589844 540.914062 Z M 97.589844 540.914062 " clip-rule="nonzero"/></clipPath><clipPath id="9b4f200d48"><path d="M 437 543 L 486 543 L 486 781 L 437 781 Z M 437 543 " clip-rule="nonzero"/></clipPath><clipPath id="abfab2797b"><path d="M 77.191406 559.515625 L 77.191406 940.484375 C 77.191406 951.253906 85.921875 959.984375 96.691406 959.984375 L 1403.308594 959.984375 C 1414.078125 959.984375 1422.808594 951.253906 1422.808594 940.484375 L 1422.808594 559.515625 C 1422.808594 548.746094 1414.078125 540.015625 1403.308594 540.015625 L 96.691406 540.015625 C 85.921875 540.015625 77.191406 548.746094 77.191406 559.515625 Z M 77.191406 559.515625 " clip-rule="nonzero"/></clipPath><clipPath id="3bdbb3ee6f"><path d="M 97.589844 540.914062 L 1402.410156 540.914062 C 1413.179688 540.914062 1421.910156 549.644531 1421.910156 560.414062 L 1421.910156 939.585938 C 1421.910156 950.355469 1413.179688 959.085938 1402.410156 959.085938 L 97.589844 959.085938 C 86.820312 959.085938 78.089844 950.355469 78.089844 939.585938 L 78.089844 560.414062 C 78.089844 549.644531 86.820312 540.914062 97.589844 540.914062 Z M 97.589844 540.914062 " clip-rule="nonzero"/></clipPath><clipPath id="732144a634"><path d="M 436 542 L 487 542 L 487 781 L 436 781 Z M 436 542 " clip-rule="nonzero"/></clipPath><clipPath id="99ec23d0c4"><path d="M 77.191406 559.515625 L 77.191406 940.484375 C 77.191406 951.253906 85.921875 959.984375 96.691406 959.984375 L 1403.308594 959.984375 C 1414.078125 959.984375 1422.808594 951.253906 1422.808594 940.484375 L 1422.808594 559.515625 C 1422.808594 548.746094 1414.078125 540.015625 1403.308594 540.015625 L 96.691406 540.015625 C 85.921875 540.015625 77.191406 548.746094 77.191406 559.515625 Z M 77.191406 559.515625 " clip-rule="nonzero"/></clipPath><clipPath id="833d08e17d"><path d="M 97.589844 540.914062 L 1402.410156 540.914062 C 1413.179688 540.914062 1421.910156 549.644531 1421.910156 560.414062 L 1421.910156 939.585938 C 1421.910156 950.355469 1413.179688 959.085938 1402.410156 959.085938 L 97.589844 959.085938 C 86.820312 959.085938 78.089844 950.355469 78.089844 939.585938 L 78.089844 560.414062 C 78.089844 549.644531 86.820312 540.914062 97.589844 540.914062 Z M 97.589844 540.914062 " clip-rule="nonzero"/></clipPath><clipPath id="f26718208d"><path d="M 532 544 L 581 544 L 581 782 L 532 782 Z M 532 544 " clip-rule="nonzero"/></clipPath><clipPath id="6e1a4ee73e"><path d="M 77.191406 559.515625 L 77.191406 940.484375 C 77.191406 951.253906 85.921875 959.984375 96.691406 959.984375 L 1403.308594 959.984375 C 1414.078125 959.984375 1422.808594 951.253906 1422.808594 940.484375 L 1422.808594 559.515625 C 1422.808594 548.746094 1414.078125 540.015625 1403.308594 540.015625 L 96.691406 540.015625 C 85.921875 540.015625 77.191406 548.746094 77.191406 559.515625 Z M 77.191406 559.515625 " clip-rule="nonzero"/></clipPath><clipPath id="a79debc07b"><path d="M 97.589844 540.914062 L 1402.410156 540.914062 C 1413.179688 540.914062 1421.910156 549.644531 1421.910156 560.414062 L 1421.910156 939.585938 C 1421.910156 950.355469 1413.179688 959.085938 1402.410156 959.085938 L 97.589844 959.085938 C 86.820312 959.085938 78.089844 950.355469 78.089844 939.585938 L 78.089844 560.414062 C 78.089844 549.644531 86.820312 540.914062 97.589844 540.914062 Z M 97.589844 540.914062 " clip-rule="nonzero"/></clipPath><clipPath id="040d4fd28a"><path d="M 531 543 L 582 543 L 582 782 L 531 782 Z M 531 543 " clip-rule="nonzero"/></clipPath><clipPath id="28621d01e1"><path d="M 77.191406 559.515625 L 77.191406 940.484375 C 77.191406 951.253906 85.921875 959.984375 96.691406 959.984375 L 1403.308594 959.984375 C 1414.078125 959.984375 1422.808594 951.253906 1422.808594 940.484375 L 1422.808594 559.515625 C 1422.808594 548.746094 1414.078125 540.015625 1403.308594 540.015625 L 96.691406 540.015625 C 85.921875 540.015625 77.191406 548.746094 77.191406 559.515625 Z M 77.191406 559.515625 " clip-rule="nonzero"/></clipPath><clipPath id="03dcec8030"><path d="M 97.589844 540.914062 L 1402.410156 540.914062 C 1413.179688 540.914062 1421.910156 549.644531 1421.910156 560.414062 L 1421.910156 939.585938 C 1421.910156 950.355469 1413.179688 959.085938 1402.410156 959.085938 L 97.589844 959.085938 C 86.820312 959.085938 78.089844 950.355469 78.089844 939.585938 L 78.089844 560.414062 C 78.089844 549.644531 86.820312 540.914062 97.589844 540.914062 Z M 97.589844 540.914062 " clip-rule="nonzero"/></clipPath><clipPath id="8f54e0db4c"><path d="M 629 543 L 678 543 L 678 781 L 629 781 Z M 629 543 " clip-rule="nonzero"/></clipPath><clipPath id="32f73d20f8"><path d="M 77.191406 559.515625 L 77.191406 940.484375 C 77.191406 951.253906 85.921875 959.984375 96.691406 959.984375 L 1403.308594 959.984375 C 1414.078125 959.984375 1422.808594 951.253906 1422.808594 940.484375 L 1422.808594 559.515625 C 1422.808594 548.746094 1414.078125 540.015625 1403.308594 540.015625 L 96.691406 540.015625 C 85.921875 540.015625 77.191406 548.746094 77.191406 559.515625 Z M 77.191406 559.515625 " clip-rule="nonzero"/></clipPath><clipPath id="4848b0d1ff"><path d="M 97.589844 540.914062 L 1402.410156 540.914062 C 1413.179688 540.914062 1421.910156 549.644531 1421.910156 560.414062 L 1421.910156 939.585938 C 1421.910156 950.355469 1413.179688 959.085938 1402.410156 959.085938 L 97.589844 959.085938 C 86.820312 959.085938 78.089844 950.355469 78.089844 939.585938 L 78.089844 560.414062 C 78.089844 549.644531 86.820312 540.914062 97.589844 540.914062 Z M 97.589844 540.914062 " clip-rule="nonzero"/></clipPath><clipPath id="709f599089"><path d="M 628 543 L 678 543 L 678 782 L 628 782 Z M 628 543 " clip-rule="nonzero"/></clipPath><clipPath id="9ee1d39839"><path d="M 77.191406 559.515625 L 77.191406 940.484375 C 77.191406 951.253906 85.921875 959.984375 96.691406 959.984375 L 1403.308594 959.984375 C 1414.078125 959.984375 1422.808594 951.253906 1422.808594 940.484375 L 1422.808594 559.515625 C 1422.808594 548.746094 1414.078125 540.015625 1403.308594 540.015625 L 96.691406 540.015625 C 85.921875 540.015625 77.191406 548.746094 77.191406 559.515625 Z M 77.191406 559.515625 " clip-rule="nonzero"/></clipPath><clipPath id="22d3d78dbc"><path d="M 97.589844 540.914062 L 1402.410156 540.914062 C 1413.179688 540.914062 1421.910156 549.644531 1421.910156 560.414062 L 1421.910156 939.585938 C 1421.910156 950.355469 1413.179688 959.085938 1402.410156 959.085938 L 97.589844 959.085938 C 86.820312 959.085938 78.089844 950.355469 78.089844 939.585938 L 78.089844 560.414062 C 78.089844 549.644531 86.820312 540.914062 97.589844 540.914062 Z M 97.589844 540.914062 " clip-rule="nonzero"/></clipPath><clipPath id="a1cb8194b1"><path d="M 78 541 L 750 541 L 750 959.265625 L 78 959.265625 Z M 78 541 " clip-rule="nonzero"/></clipPath><clipPath id="b8273dca4a"><path d="M 77.191406 559.515625 L 77.191406 940.484375 C 77.191406 951.253906 85.921875 959.984375 96.691406 959.984375 L 1403.308594 959.984375 C 1414.078125 959.984375 1422.808594 951.253906 1422.808594 940.484375 L 1422.808594 559.515625 C 1422.808594 548.746094 1414.078125 540.015625 1403.308594 540.015625 L 96.691406 540.015625 C 85.921875 540.015625 77.191406 548.746094 77.191406 559.515625 Z M 77.191406 559.515625 " clip-rule="nonzero"/></clipPath><clipPath id="8cdeee99dc"><path d="M 97.589844 540.914062 L 1402.410156 540.914062 C 1413.179688 540.914062 1421.910156 549.644531 1421.910156 560.414062 L 1421.910156 939.585938 C 1421.910156 950.355469 1413.179688 959.085938 1402.410156 959.085938 L 97.589844 959.085938 C 86.820312 959.085938 78.089844 950.355469 78.089844 939.585938 L 78.089844 560.414062 C 78.089844 549.644531 86.820312 540.914062 97.589844 540.914062 Z M 97.589844 540.914062 " clip-rule="nonzero"/></clipPath><clipPath id="5c41335a10"><path d="M 171 768 L 177 768 L 177 959.265625 L 171 959.265625 Z M 171 768 " clip-rule="nonzero"/></clipPath><clipPath id="20754a2010"><path d="M 77.191406 559.515625 L 77.191406 940.484375 C 77.191406 951.253906 85.921875 959.984375 96.691406 959.984375 L 1403.308594 959.984375 C 1414.078125 959.984375 1422.808594 951.253906 1422.808594 940.484375 L 1422.808594 559.515625 C 1422.808594 548.746094 1414.078125 540.015625 1403.308594 540.015625 L 96.691406 540.015625 C 85.921875 540.015625 77.191406 548.746094 77.191406 559.515625 Z M 77.191406 559.515625 " clip-rule="nonzero"/></clipPath><clipPath id="78e44e5e0b"><path d="M 97.589844 540.914062 L 1402.410156 540.914062 C 1413.179688 540.914062 1421.910156 549.644531 1421.910156 560.414062 L 1421.910156 939.585938 C 1421.910156 950.355469 1413.179688 959.085938 1402.410156 959.085938 L 97.589844 959.085938 C 86.820312 959.085938 78.089844 950.355469 78.089844 939.585938 L 78.089844 560.414062 C 78.089844 549.644531 86.820312 540.914062 97.589844 540.914062 Z M 97.589844 540.914062 " clip-rule="nonzero"/></clipPath><clipPath id="1e2d92db93"><path d="M 268 767 L 274 767 L 274 959.265625 L 268 959.265625 Z M 268 767 " clip-rule="nonzero"/></clipPath><clipPath id="79ec162aab"><path d="M 77.191406 559.515625 L 77.191406 940.484375 C 77.191406 951.253906 85.921875 959.984375 96.691406 959.984375 L 1403.308594 959.984375 C 1414.078125 959.984375 1422.808594 951.253906 1422.808594 940.484375 L 1422.808594 559.515625 C 1422.808594 548.746094 1414.078125 540.015625 1403.308594 540.015625 L 96.691406 540.015625 C 85.921875 540.015625 77.191406 548.746094 77.191406 559.515625 Z M 77.191406 559.515625 " clip-rule="nonzero"/></clipPath><clipPath id="39074aa61a"><path d="M 97.589844 540.914062 L 1402.410156 540.914062 C 1413.179688 540.914062 1421.910156 549.644531 1421.910156 560.414062 L 1421.910156 939.585938 C 1421.910156 950.355469 1413.179688 959.085938 1402.410156 959.085938 L 97.589844 959.085938 C 86.820312 959.085938 78.089844 950.355469 78.089844 939.585938 L 78.089844 560.414062 C 78.089844 549.644531 86.820312 540.914062 97.589844 540.914062 Z M 97.589844 540.914062 " clip-rule="nonzero"/></clipPath><clipPath id="898f51cb53"><path d="M 459 769 L 465 769 L 465 959.265625 L 459 959.265625 Z M 459 769 " clip-rule="nonzero"/></clipPath><clipPath id="8ef33713f2"><path d="M 77.191406 559.515625 L 77.191406 940.484375 C 77.191406 951.253906 85.921875 959.984375 96.691406 959.984375 L 1403.308594 959.984375 C 1414.078125 959.984375 1422.808594 951.253906 1422.808594 940.484375 L 1422.808594 559.515625 C 1422.808594 548.746094 1414.078125 540.015625 1403.308594 540.015625 L 96.691406 540.015625 C 85.921875 540.015625 77.191406 548.746094 77.191406 559.515625 Z M 77.191406 559.515625 " clip-rule="nonzero"/></clipPath><clipPath id="8265ca7b46"><path d="M 97.589844 540.914062 L 1402.410156 540.914062 C 1413.179688 540.914062 1421.910156 549.644531 1421.910156 560.414062 L 1421.910156 939.585938 C 1421.910156 950.355469 1413.179688 959.085938 1402.410156 959.085938 L 97.589844 959.085938 C 86.820312 959.085938 78.089844 950.355469 78.089844 939.585938 L 78.089844 560.414062 C 78.089844 549.644531 86.820312 540.914062 97.589844 540.914062 Z M 97.589844 540.914062 " clip-rule="nonzero"/></clipPath><clipPath id="b8f8a08dd2"><path d="M 553 769 L 560 769 L 560 959.265625 L 553 959.265625 Z M 553 769 " clip-rule="nonzero"/></clipPath><clipPath id="d19bb46343"><path d="M 77.191406 559.515625 L 77.191406 940.484375 C 77.191406 951.253906 85.921875 959.984375 96.691406 959.984375 L 1403.308594 959.984375 C 1414.078125 959.984375 1422.808594 951.253906 1422.808594 940.484375 L 1422.808594 559.515625 C 1422.808594 548.746094 1414.078125 540.015625 1403.308594 540.015625 L 96.691406 540.015625 C 85.921875 540.015625 77.191406 548.746094 77.191406 559.515625 Z M 77.191406 559.515625 " clip-rule="nonzero"/></clipPath><clipPath id="35f0f8982c"><path d="M 97.589844 540.914062 L 1402.410156 540.914062 C 1413.179688 540.914062 1421.910156 549.644531 1421.910156 560.414062 L 1421.910156 939.585938 C 1421.910156 950.355469 1413.179688 959.085938 1402.410156 959.085938 L 97.589844 959.085938 C 86.820312 959.085938 78.089844 950.355469 78.089844 939.585938 L 78.089844 560.414062 C 78.089844 549.644531 86.820312 540.914062 97.589844 540.914062 Z M 97.589844 540.914062 " clip-rule="nonzero"/></clipPath><clipPath id="04a44b69ce"><path d="M 651 768 L 657 768 L 657 959.265625 L 651 959.265625 Z M 651 768 " clip-rule="nonzero"/></clipPath><clipPath id="129b341290"><path d="M 77.191406 559.515625 L 77.191406 940.484375 C 77.191406 951.253906 85.921875 959.984375 96.691406 959.984375 L 1403.308594 959.984375 C 1414.078125 959.984375 1422.808594 951.253906 1422.808594 940.484375 L 1422.808594 559.515625 C 1422.808594 548.746094 1414.078125 540.015625 1403.308594 540.015625 L 96.691406 540.015625 C 85.921875 540.015625 77.191406 548.746094 77.191406 559.515625 Z M 77.191406 559.515625 " clip-rule="nonzero"/></clipPath><clipPath id="3b63bbabb9"><path d="M 97.589844 540.914062 L 1402.410156 540.914062 C 1413.179688 540.914062 1421.910156 549.644531 1421.910156 560.414062 L 1421.910156 939.585938 C 1421.910156 950.355469 1413.179688 959.085938 1402.410156 959.085938 L 97.589844 959.085938 C 86.820312 959.085938 78.089844 950.355469 78.089844 939.585938 L 78.089844 560.414062 C 78.089844 549.644531 86.820312 540.914062 97.589844 540.914062 Z M 97.589844 540.914062 " clip-rule="nonzero"/></clipPath><clipPath id="b287833e29"><path d="M 363 540.765625 L 369 540.765625 L 369 959.265625 L 363 959.265625 Z M 363 540.765625 " clip-rule="nonzero"/></clipPath><clipPath id="7b30373713"><path d="M 77.191406 559.515625 L 77.191406 940.484375 C 77.191406 951.253906 85.921875 959.984375 96.691406 959.984375 L 1403.308594 959.984375 C 1414.078125 959.984375 1422.808594 951.253906 1422.808594 940.484375 L 1422.808594 559.515625 C 1422.808594 548.746094 1414.078125 540.015625 1403.308594 540.015625 L 96.691406 540.015625 C 85.921875 540.015625 77.191406 548.746094 77.191406 559.515625 Z M 77.191406 559.515625 " clip-rule="nonzero"/></clipPath><clipPath id="4c0df8e501"><path d="M 97.589844 540.914062 L 1402.410156 540.914062 C 1413.179688 540.914062 1421.910156 549.644531 1421.910156 560.414062 L 1421.910156 939.585938 C 1421.910156 950.355469 1413.179688 959.085938 1402.410156 959.085938 L 97.589844 959.085938 C 86.820312 959.085938 78.089844 950.355469 78.089844 939.585938 L 78.089844 560.414062 C 78.089844 549.644531 86.820312 540.914062 97.589844 540.914062 Z M 97.589844 540.914062 " clip-rule="nonzero"/></clipPath><clipPath id="929a80fdbf"><path d="M 157 552 L 198 552 L 198 774 L 157 774 Z M 157 552 " clip-rule="nonzero"/></clipPath><clipPath id="9e7f78581a"><path d="M 77.191406 559.515625 L 77.191406 940.484375 C 77.191406 951.253906 85.921875 959.984375 96.691406 959.984375 L 1403.308594 959.984375 C 1414.078125 959.984375 1422.808594 951.253906 1422.808594 940.484375 L 1422.808594 559.515625 C 1422.808594 548.746094 1414.078125 540.015625 1403.308594 540.015625 L 96.691406 540.015625 C 85.921875 540.015625 77.191406 548.746094 77.191406 559.515625 Z M 77.191406 559.515625 " clip-rule="nonzero"/></clipPath><clipPath id="23854a514c"><path d="M 97.589844 540.914062 L 1402.410156 540.914062 C 1413.179688 540.914062 1421.910156 549.644531 1421.910156 560.414062 L 1421.910156 939.585938 C 1421.910156 950.355469 1413.179688 959.085938 1402.410156 959.085938 L 97.589844 959.085938 C 86.820312 959.085938 78.089844 950.355469 78.089844 939.585938 L 78.089844 560.414062 C 78.089844 549.644531 86.820312 540.914062 97.589844 540.914062 Z M 97.589844 540.914062 " clip-rule="nonzero"/></clipPath><clipPath id="baeb7fa72f"><path d="M 151 547 L 203 547 L 203 779 L 151 779 Z M 151 547 " clip-rule="nonzero"/></clipPath><clipPath id="a412eff0d8"><path d="M 77.191406 559.515625 L 77.191406 940.484375 C 77.191406 951.253906 85.921875 959.984375 96.691406 959.984375 L 1403.308594 959.984375 C 1414.078125 959.984375 1422.808594 951.253906 1422.808594 940.484375 L 1422.808594 559.515625 C 1422.808594 548.746094 1414.078125 540.015625 1403.308594 540.015625 L 96.691406 540.015625 C 85.921875 540.015625 77.191406 548.746094 77.191406 559.515625 Z M 77.191406 559.515625 " clip-rule="nonzero"/></clipPath><clipPath id="7ff0d36f2d"><path d="M 97.589844 540.914062 L 1402.410156 540.914062 C 1413.179688 540.914062 1421.910156 549.644531 1421.910156 560.414062 L 1421.910156 939.585938 C 1421.910156 950.355469 1413.179688 959.085938 1402.410156 959.085938 L 97.589844 959.085938 C 86.820312 959.085938 78.089844 950.355469 78.089844 939.585938 L 78.089844 560.414062 C 78.089844 549.644531 86.820312 540.914062 97.589844 540.914062 Z M 97.589844 540.914062 " clip-rule="nonzero"/></clipPath><clipPath id="18e09f2434"><path d="M 823 542 L 872 542 L 872 780 L 823 780 Z M 823 542 " clip-rule="nonzero"/></clipPath><clipPath id="ba91cbdb0d"><path d="M 77.191406 559.515625 L 77.191406 940.484375 C 77.191406 951.253906 85.921875 959.984375 96.691406 959.984375 L 1403.308594 959.984375 C 1414.078125 959.984375 1422.808594 951.253906 1422.808594 940.484375 L 1422.808594 559.515625 C 1422.808594 548.746094 1414.078125 540.015625 1403.308594 540.015625 L 96.691406 540.015625 C 85.921875 540.015625 77.191406 548.746094 77.191406 559.515625 Z M 77.191406 559.515625 " clip-rule="nonzero"/></clipPath><clipPath id="8e93ad77f8"><path d="M 97.589844 540.914062 L 1402.410156 540.914062 C 1413.179688 540.914062 1421.910156 549.644531 1421.910156 560.414062 L 1421.910156 939.585938 C 1421.910156 950.355469 1413.179688 959.085938 1402.410156 959.085938 L 97.589844 959.085938 C 86.820312 959.085938 78.089844 950.355469 78.089844 939.585938 L 78.089844 560.414062 C 78.089844 549.644531 86.820312 540.914062 97.589844 540.914062 Z M 97.589844 540.914062 " clip-rule="nonzero"/></clipPath><clipPath id="a354fd8c39"><path d="M 822 541 L 873 541 L 873 780 L 822 780 Z M 822 541 " clip-rule="nonzero"/></clipPath><clipPath id="83e35ce2bc"><path d="M 77.191406 559.515625 L 77.191406 940.484375 C 77.191406 951.253906 85.921875 959.984375 96.691406 959.984375 L 1403.308594 959.984375 C 1414.078125 959.984375 1422.808594 951.253906 1422.808594 940.484375 L 1422.808594 559.515625 C 1422.808594 548.746094 1414.078125 540.015625 1403.308594 540.015625 L 96.691406 540.015625 C 85.921875 540.015625 77.191406 548.746094 77.191406 559.515625 Z M 77.191406 559.515625 " clip-rule="nonzero"/></clipPath><clipPath id="fa4f4c7f0a"><path d="M 97.589844 540.914062 L 1402.410156 540.914062 C 1413.179688 540.914062 1421.910156 549.644531 1421.910156 560.414062 L 1421.910156 939.585938 C 1421.910156 950.355469 1413.179688 959.085938 1402.410156 959.085938 L 97.589844 959.085938 C 86.820312 959.085938 78.089844 950.355469 78.089844 939.585938 L 78.089844 560.414062 C 78.089844 549.644531 86.820312 540.914062 97.589844 540.914062 Z M 97.589844 540.914062 " clip-rule="nonzero"/></clipPath><clipPath id="9f6b964e88"><path d="M 918 542 L 967 542 L 967 780 L 918 780 Z M 918 542 " clip-rule="nonzero"/></clipPath><clipPath id="0bed35c491"><path d="M 77.191406 559.515625 L 77.191406 940.484375 C 77.191406 951.253906 85.921875 959.984375 96.691406 959.984375 L 1403.308594 959.984375 C 1414.078125 959.984375 1422.808594 951.253906 1422.808594 940.484375 L 1422.808594 559.515625 C 1422.808594 548.746094 1414.078125 540.015625 1403.308594 540.015625 L 96.691406 540.015625 C 85.921875 540.015625 77.191406 548.746094 77.191406 559.515625 Z M 77.191406 559.515625 " clip-rule="nonzero"/></clipPath><clipPath id="82420d891a"><path d="M 97.589844 540.914062 L 1402.410156 540.914062 C 1413.179688 540.914062 1421.910156 549.644531 1421.910156 560.414062 L 1421.910156 939.585938 C 1421.910156 950.355469 1413.179688 959.085938 1402.410156 959.085938 L 97.589844 959.085938 C 86.820312 959.085938 78.089844 950.355469 78.089844 939.585938 L 78.089844 560.414062 C 78.089844 549.644531 86.820312 540.914062 97.589844 540.914062 Z M 97.589844 540.914062 " clip-rule="nonzero"/></clipPath><clipPath id="32476571f2"><path d="M 918 541 L 968 541 L 968 780 L 918 780 Z M 918 541 " clip-rule="nonzero"/></clipPath><clipPath id="3d51cb316a"><path d="M 77.191406 559.515625 L 77.191406 940.484375 C 77.191406 951.253906 85.921875 959.984375 96.691406 959.984375 L 1403.308594 959.984375 C 1414.078125 959.984375 1422.808594 951.253906 1422.808594 940.484375 L 1422.808594 559.515625 C 1422.808594 548.746094 1414.078125 540.015625 1403.308594 540.015625 L 96.691406 540.015625 C 85.921875 540.015625 77.191406 548.746094 77.191406 559.515625 Z M 77.191406 559.515625 " clip-rule="nonzero"/></clipPath><clipPath id="32a3e2b8c4"><path d="M 97.589844 540.914062 L 1402.410156 540.914062 C 1413.179688 540.914062 1421.910156 549.644531 1421.910156 560.414062 L 1421.910156 939.585938 C 1421.910156 950.355469 1413.179688 959.085938 1402.410156 959.085938 L 97.589844 959.085938 C 86.820312 959.085938 78.089844 950.355469 78.089844 939.585938 L 78.089844 560.414062 C 78.089844 549.644531 86.820312 540.914062 97.589844 540.914062 Z M 97.589844 540.914062 " clip-rule="nonzero"/></clipPath><clipPath id="abf8d0cf32"><path d="M 1109 541 L 1159 541 L 1159 779 L 1109 779 Z M 1109 541 " clip-rule="nonzero"/></clipPath><clipPath id="34381d989a"><path d="M 77.191406 559.515625 L 77.191406 940.484375 C 77.191406 951.253906 85.921875 959.984375 96.691406 959.984375 L 1403.308594 959.984375 C 1414.078125 959.984375 1422.808594 951.253906 1422.808594 940.484375 L 1422.808594 559.515625 C 1422.808594 548.746094 1414.078125 540.015625 1403.308594 540.015625 L 96.691406 540.015625 C 85.921875 540.015625 77.191406 548.746094 77.191406 559.515625 Z M 77.191406 559.515625 " clip-rule="nonzero"/></clipPath><clipPath id="49fbddd590"><path d="M 97.589844 540.914062 L 1402.410156 540.914062 C 1413.179688 540.914062 1421.910156 549.644531 1421.910156 560.414062 L 1421.910156 939.585938 C 1421.910156 950.355469 1413.179688 959.085938 1402.410156 959.085938 L 97.589844 959.085938 C 86.820312 959.085938 78.089844 950.355469 78.089844 939.585938 L 78.089844 560.414062 C 78.089844 549.644531 86.820312 540.914062 97.589844 540.914062 Z M 97.589844 540.914062 " clip-rule="nonzero"/></clipPath><clipPath id="a7d580e845"><path d="M 1109 541 L 1159 541 L 1159 780 L 1109 780 Z M 1109 541 " clip-rule="nonzero"/></clipPath><clipPath id="22f4cb9358"><path d="M 77.191406 559.515625 L 77.191406 940.484375 C 77.191406 951.253906 85.921875 959.984375 96.691406 959.984375 L 1403.308594 959.984375 C 1414.078125 959.984375 1422.808594 951.253906 1422.808594 940.484375 L 1422.808594 559.515625 C 1422.808594 548.746094 1414.078125 540.015625 1403.308594 540.015625 L 96.691406 540.015625 C 85.921875 540.015625 77.191406 548.746094 77.191406 559.515625 Z M 77.191406 559.515625 " clip-rule="nonzero"/></clipPath><clipPath id="35538e44dc"><path d="M 97.589844 540.914062 L 1402.410156 540.914062 C 1413.179688 540.914062 1421.910156 549.644531 1421.910156 560.414062 L 1421.910156 939.585938 C 1421.910156 950.355469 1413.179688 959.085938 1402.410156 959.085938 L 97.589844 959.085938 C 86.820312 959.085938 78.089844 950.355469 78.089844 939.585938 L 78.089844 560.414062 C 78.089844 549.644531 86.820312 540.914062 97.589844 540.914062 Z M 97.589844 540.914062 " clip-rule="nonzero"/></clipPath><clipPath id="5f6b9d570c"><path d="M 1204 542 L 1254 542 L 1254 780 L 1204 780 Z M 1204 542 " clip-rule="nonzero"/></clipPath><clipPath id="dd8d6f16ea"><path d="M 77.191406 559.515625 L 77.191406 940.484375 C 77.191406 951.253906 85.921875 959.984375 96.691406 959.984375 L 1403.308594 959.984375 C 1414.078125 959.984375 1422.808594 951.253906 1422.808594 940.484375 L 1422.808594 559.515625 C 1422.808594 548.746094 1414.078125 540.015625 1403.308594 540.015625 L 96.691406 540.015625 C 85.921875 540.015625 77.191406 548.746094 77.191406 559.515625 Z M 77.191406 559.515625 " clip-rule="nonzero"/></clipPath><clipPath id="ef34b7ef2a"><path d="M 97.589844 540.914062 L 1402.410156 540.914062 C 1413.179688 540.914062 1421.910156 549.644531 1421.910156 560.414062 L 1421.910156 939.585938 C 1421.910156 950.355469 1413.179688 959.085938 1402.410156 959.085938 L 97.589844 959.085938 C 86.820312 959.085938 78.089844 950.355469 78.089844 939.585938 L 78.089844 560.414062 C 78.089844 549.644531 86.820312 540.914062 97.589844 540.914062 Z M 97.589844 540.914062 " clip-rule="nonzero"/></clipPath><clipPath id="d682a0ea8a"><path d="M 1204 542 L 1254 542 L 1254 781 L 1204 781 Z M 1204 542 " clip-rule="nonzero"/></clipPath><clipPath id="e76a10c013"><path d="M 77.191406 559.515625 L 77.191406 940.484375 C 77.191406 951.253906 85.921875 959.984375 96.691406 959.984375 L 1403.308594 959.984375 C 1414.078125 959.984375 1422.808594 951.253906 1422.808594 940.484375 L 1422.808594 559.515625 C 1422.808594 548.746094 1414.078125 540.015625 1403.308594 540.015625 L 96.691406 540.015625 C 85.921875 540.015625 77.191406 548.746094 77.191406 559.515625 Z M 77.191406 559.515625 " clip-rule="nonzero"/></clipPath><clipPath id="7f26703d54"><path d="M 97.589844 540.914062 L 1402.410156 540.914062 C 1413.179688 540.914062 1421.910156 549.644531 1421.910156 560.414062 L 1421.910156 939.585938 C 1421.910156 950.355469 1413.179688 959.085938 1402.410156 959.085938 L 97.589844 959.085938 C 86.820312 959.085938 78.089844 950.355469 78.089844 939.585938 L 78.089844 560.414062 C 78.089844 549.644531 86.820312 540.914062 97.589844 540.914062 Z M 97.589844 540.914062 " clip-rule="nonzero"/></clipPath><clipPath id="2f7888260d"><path d="M 1301 542 L 1350 542 L 1350 780 L 1301 780 Z M 1301 542 " clip-rule="nonzero"/></clipPath><clipPath id="64dd8b7447"><path d="M 77.191406 559.515625 L 77.191406 940.484375 C 77.191406 951.253906 85.921875 959.984375 96.691406 959.984375 L 1403.308594 959.984375 C 1414.078125 959.984375 1422.808594 951.253906 1422.808594 940.484375 L 1422.808594 559.515625 C 1422.808594 548.746094 1414.078125 540.015625 1403.308594 540.015625 L 96.691406 540.015625 C 85.921875 540.015625 77.191406 548.746094 77.191406 559.515625 Z M 77.191406 559.515625 " clip-rule="nonzero"/></clipPath><clipPath id="5f682e4814"><path d="M 97.589844 540.914062 L 1402.410156 540.914062 C 1413.179688 540.914062 1421.910156 549.644531 1421.910156 560.414062 L 1421.910156 939.585938 C 1421.910156 950.355469 1413.179688 959.085938 1402.410156 959.085938 L 97.589844 959.085938 C 86.820312 959.085938 78.089844 950.355469 78.089844 939.585938 L 78.089844 560.414062 C 78.089844 549.644531 86.820312 540.914062 97.589844 540.914062 Z M 97.589844 540.914062 " clip-rule="nonzero"/></clipPath><clipPath id="cbd0dee8a8"><path d="M 1301 541 L 1351 541 L 1351 780 L 1301 780 Z M 1301 541 " clip-rule="nonzero"/></clipPath><clipPath id="af8dee7ccf"><path d="M 77.191406 559.515625 L 77.191406 940.484375 C 77.191406 951.253906 85.921875 959.984375 96.691406 959.984375 L 1403.308594 959.984375 C 1414.078125 959.984375 1422.808594 951.253906 1422.808594 940.484375 L 1422.808594 559.515625 C 1422.808594 548.746094 1414.078125 540.015625 1403.308594 540.015625 L 96.691406 540.015625 C 85.921875 540.015625 77.191406 548.746094 77.191406 559.515625 Z M 77.191406 559.515625 " clip-rule="nonzero"/></clipPath><clipPath id="613ef87b8b"><path d="M 97.589844 540.914062 L 1402.410156 540.914062 C 1413.179688 540.914062 1421.910156 549.644531 1421.910156 560.414062 L 1421.910156 939.585938 C 1421.910156 950.355469 1413.179688 959.085938 1402.410156 959.085938 L 97.589844 959.085938 C 86.820312 959.085938 78.089844 950.355469 78.089844 939.585938 L 78.089844 560.414062 C 78.089844 549.644531 86.820312 540.914062 97.589844 540.914062 Z M 97.589844 540.914062 " clip-rule="nonzero"/></clipPath><clipPath id="7c03eed4ae"><path d="M 750 540.765625 L 1421.941406 540.765625 L 1421.941406 959 L 750 959 Z M 750 540.765625 " clip-rule="nonzero"/></clipPath><clipPath id="95e6926357"><path d="M 77.191406 559.515625 L 77.191406 940.484375 C 77.191406 951.253906 85.921875 959.984375 96.691406 959.984375 L 1403.308594 959.984375 C 1414.078125 959.984375 1422.808594 951.253906 1422.808594 940.484375 L 1422.808594 559.515625 C 1422.808594 548.746094 1414.078125 540.015625 1403.308594 540.015625 L 96.691406 540.015625 C 85.921875 540.015625 77.191406 548.746094 77.191406 559.515625 Z M 77.191406 559.515625 " clip-rule="nonzero"/></clipPath><clipPath id="9eb217b750"><path d="M 97.589844 540.914062 L 1402.410156 540.914062 C 1413.179688 540.914062 1421.910156 549.644531 1421.910156 560.414062 L 1421.910156 939.585938 C 1421.910156 950.355469 1413.179688 959.085938 1402.410156 959.085938 L 97.589844 959.085938 C 86.820312 959.085938 78.089844 950.355469 78.089844 939.585938 L 78.089844 560.414062 C 78.089844 549.644531 86.820312 540.914062 97.589844 540.914062 Z M 97.589844 540.914062 " clip-rule="nonzero"/></clipPath><clipPath id="cb1fa55fe2"><path d="M 844 767 L 850 767 L 850 959.265625 L 844 959.265625 Z M 844 767 " clip-rule="nonzero"/></clipPath><clipPath id="6c810fbcc0"><path d="M 77.191406 559.515625 L 77.191406 940.484375 C 77.191406 951.253906 85.921875 959.984375 96.691406 959.984375 L 1403.308594 959.984375 C 1414.078125 959.984375 1422.808594 951.253906 1422.808594 940.484375 L 1422.808594 559.515625 C 1422.808594 548.746094 1414.078125 540.015625 1403.308594 540.015625 L 96.691406 540.015625 C 85.921875 540.015625 77.191406 548.746094 77.191406 559.515625 Z M 77.191406 559.515625 " clip-rule="nonzero"/></clipPath><clipPath id="28e387070e"><path d="M 97.589844 540.914062 L 1402.410156 540.914062 C 1413.179688 540.914062 1421.910156 549.644531 1421.910156 560.414062 L 1421.910156 939.585938 C 1421.910156 950.355469 1413.179688 959.085938 1402.410156 959.085938 L 97.589844 959.085938 C 86.820312 959.085938 78.089844 950.355469 78.089844 939.585938 L 78.089844 560.414062 C 78.089844 549.644531 86.820312 540.914062 97.589844 540.914062 Z M 97.589844 540.914062 " clip-rule="nonzero"/></clipPath><clipPath id="c6c8e56619"><path d="M 940 766 L 946 766 L 946 959 L 940 959 Z M 940 766 " clip-rule="nonzero"/></clipPath><clipPath id="3b364f4fb6"><path d="M 77.191406 559.515625 L 77.191406 940.484375 C 77.191406 951.253906 85.921875 959.984375 96.691406 959.984375 L 1403.308594 959.984375 C 1414.078125 959.984375 1422.808594 951.253906 1422.808594 940.484375 L 1422.808594 559.515625 C 1422.808594 548.746094 1414.078125 540.015625 1403.308594 540.015625 L 96.691406 540.015625 C 85.921875 540.015625 77.191406 548.746094 77.191406 559.515625 Z M 77.191406 559.515625 " clip-rule="nonzero"/></clipPath><clipPath id="93b296b64f"><path d="M 97.589844 540.914062 L 1402.410156 540.914062 C 1413.179688 540.914062 1421.910156 549.644531 1421.910156 560.414062 L 1421.910156 939.585938 C 1421.910156 950.355469 1413.179688 959.085938 1402.410156 959.085938 L 97.589844 959.085938 C 86.820312 959.085938 78.089844 950.355469 78.089844 939.585938 L 78.089844 560.414062 C 78.089844 549.644531 86.820312 540.914062 97.589844 540.914062 Z M 97.589844 540.914062 " clip-rule="nonzero"/></clipPath><clipPath id="32c04d61d7"><path d="M 1131 767 L 1137 767 L 1137 959.265625 L 1131 959.265625 Z M 1131 767 " clip-rule="nonzero"/></clipPath><clipPath id="ecb3378a25"><path d="M 77.191406 559.515625 L 77.191406 940.484375 C 77.191406 951.253906 85.921875 959.984375 96.691406 959.984375 L 1403.308594 959.984375 C 1414.078125 959.984375 1422.808594 951.253906 1422.808594 940.484375 L 1422.808594 559.515625 C 1422.808594 548.746094 1414.078125 540.015625 1403.308594 540.015625 L 96.691406 540.015625 C 85.921875 540.015625 77.191406 548.746094 77.191406 559.515625 Z M 77.191406 559.515625 " clip-rule="nonzero"/></clipPath><clipPath id="0ba1e97a73"><path d="M 97.589844 540.914062 L 1402.410156 540.914062 C 1413.179688 540.914062 1421.910156 549.644531 1421.910156 560.414062 L 1421.910156 939.585938 C 1421.910156 950.355469 1413.179688 959.085938 1402.410156 959.085938 L 97.589844 959.085938 C 86.820312 959.085938 78.089844 950.355469 78.089844 939.585938 L 78.089844 560.414062 C 78.089844 549.644531 86.820312 540.914062 97.589844 540.914062 Z M 97.589844 540.914062 " clip-rule="nonzero"/></clipPath><clipPath id="66c9a8a477"><path d="M 1226 767 L 1232 767 L 1232 959.265625 L 1226 959.265625 Z M 1226 767 " clip-rule="nonzero"/></clipPath><clipPath id="e95241a4fd"><path d="M 77.191406 559.515625 L 77.191406 940.484375 C 77.191406 951.253906 85.921875 959.984375 96.691406 959.984375 L 1403.308594 959.984375 C 1414.078125 959.984375 1422.808594 951.253906 1422.808594 940.484375 L 1422.808594 559.515625 C 1422.808594 548.746094 1414.078125 540.015625 1403.308594 540.015625 L 96.691406 540.015625 C 85.921875 540.015625 77.191406 548.746094 77.191406 559.515625 Z M 77.191406 559.515625 " clip-rule="nonzero"/></clipPath><clipPath id="2b790dafa9"><path d="M 97.589844 540.914062 L 1402.410156 540.914062 C 1413.179688 540.914062 1421.910156 549.644531 1421.910156 560.414062 L 1421.910156 939.585938 C 1421.910156 950.355469 1413.179688 959.085938 1402.410156 959.085938 L 97.589844 959.085938 C 86.820312 959.085938 78.089844 950.355469 78.089844 939.585938 L 78.089844 560.414062 C 78.089844 549.644531 86.820312 540.914062 97.589844 540.914062 Z M 97.589844 540.914062 " clip-rule="nonzero"/></clipPath><clipPath id="b02b286bc6"><path d="M 1323 767 L 1329 767 L 1329 959.265625 L 1323 959.265625 Z M 1323 767 " clip-rule="nonzero"/></clipPath><clipPath id="69f7a31595"><path d="M 77.191406 559.515625 L 77.191406 940.484375 C 77.191406 951.253906 85.921875 959.984375 96.691406 959.984375 L 1403.308594 959.984375 C 1414.078125 959.984375 1422.808594 951.253906 1422.808594 940.484375 L 1422.808594 559.515625 C 1422.808594 548.746094 1414.078125 540.015625 1403.308594 540.015625 L 96.691406 540.015625 C 85.921875 540.015625 77.191406 548.746094 77.191406 559.515625 Z M 77.191406 559.515625 " clip-rule="nonzero"/></clipPath><clipPath id="1272dd4b2e"><path d="M 97.589844 540.914062 L 1402.410156 540.914062 C 1413.179688 540.914062 1421.910156 549.644531 1421.910156 560.414062 L 1421.910156 939.585938 C 1421.910156 950.355469 1413.179688 959.085938 1402.410156 959.085938 L 97.589844 959.085938 C 86.820312 959.085938 78.089844 950.355469 78.089844 939.585938 L 78.089844 560.414062 C 78.089844 549.644531 86.820312 540.914062 97.589844 540.914062 Z M 97.589844 540.914062 " clip-rule="nonzero"/></clipPath><clipPath id="d610fb5d3a"><path d="M 1036 540.765625 L 1042 540.765625 L 1042 959.265625 L 1036 959.265625 Z M 1036 540.765625 " clip-rule="nonzero"/></clipPath><clipPath id="a8ca3a57a3"><path d="M 77.191406 559.515625 L 77.191406 940.484375 C 77.191406 951.253906 85.921875 959.984375 96.691406 959.984375 L 1403.308594 959.984375 C 1414.078125 959.984375 1422.808594 951.253906 1422.808594 940.484375 L 1422.808594 559.515625 C 1422.808594 548.746094 1414.078125 540.015625 1403.308594 540.015625 L 96.691406 540.015625 C 85.921875 540.015625 77.191406 548.746094 77.191406 559.515625 Z M 77.191406 559.515625 " clip-rule="nonzero"/></clipPath><clipPath id="a5129b09f4"><path d="M 97.589844 540.914062 L 1402.410156 540.914062 C 1413.179688 540.914062 1421.910156 549.644531 1421.910156 560.414062 L 1421.910156 939.585938 C 1421.910156 950.355469 1413.179688 959.085938 1402.410156 959.085938 L 97.589844 959.085938 C 86.820312 959.085938 78.089844 950.355469 78.089844 939.585938 L 78.089844 560.414062 C 78.089844 549.644531 86.820312 540.914062 97.589844 540.914062 Z M 97.589844 540.914062 " clip-rule="nonzero"/></clipPath><clipPath id="cf98f9f587"><path d="M 251 549 L 292 549 L 292 771 L 251 771 Z M 251 549 " clip-rule="nonzero"/></clipPath><clipPath id="d44308f55c"><path d="M 77.191406 559.515625 L 77.191406 940.484375 C 77.191406 951.253906 85.921875 959.984375 96.691406 959.984375 L 1403.308594 959.984375 C 1414.078125 959.984375 1422.808594 951.253906 1422.808594 940.484375 L 1422.808594 559.515625 C 1422.808594 548.746094 1414.078125 540.015625 1403.308594 540.015625 L 96.691406 540.015625 C 85.921875 540.015625 77.191406 548.746094 77.191406 559.515625 Z M 77.191406 559.515625 " clip-rule="nonzero"/></clipPath><clipPath id="714fc09852"><path d="M 97.589844 540.914062 L 1402.410156 540.914062 C 1413.179688 540.914062 1421.910156 549.644531 1421.910156 560.414062 L 1421.910156 939.585938 C 1421.910156 950.355469 1413.179688 959.085938 1402.410156 959.085938 L 97.589844 959.085938 C 86.820312 959.085938 78.089844 950.355469 78.089844 939.585938 L 78.089844 560.414062 C 78.089844 549.644531 86.820312 540.914062 97.589844 540.914062 Z M 97.589844 540.914062 " clip-rule="nonzero"/></clipPath><clipPath id="d5f8af2258"><path d="M 246 544 L 298 544 L 298 777 L 246 777 Z M 246 544 " clip-rule="nonzero"/></clipPath><clipPath id="07608cd767"><path d="M 77.191406 559.515625 L 77.191406 940.484375 C 77.191406 951.253906 85.921875 959.984375 96.691406 959.984375 L 1403.308594 959.984375 C 1414.078125 959.984375 1422.808594 951.253906 1422.808594 940.484375 L 1422.808594 559.515625 C 1422.808594 548.746094 1414.078125 540.015625 1403.308594 540.015625 L 96.691406 540.015625 C 85.921875 540.015625 77.191406 548.746094 77.191406 559.515625 Z M 77.191406 559.515625 " clip-rule="nonzero"/></clipPath><clipPath id="6d1b96ea30"><path d="M 97.589844 540.914062 L 1402.410156 540.914062 C 1413.179688 540.914062 1421.910156 549.644531 1421.910156 560.414062 L 1421.910156 939.585938 C 1421.910156 950.355469 1413.179688 959.085938 1402.410156 959.085938 L 97.589844 959.085938 C 86.820312 959.085938 78.089844 950.355469 78.089844 939.585938 L 78.089844 560.414062 C 78.089844 549.644531 86.820312 540.914062 97.589844 540.914062 Z M 97.589844 540.914062 " clip-rule="nonzero"/></clipPath><clipPath id="3e34951096"><path d="M 443 549 L 484 549 L 484 771 L 443 771 Z M 443 549 " clip-rule="nonzero"/></clipPath><clipPath id="4eef8088fe"><path d="M 77.191406 559.515625 L 77.191406 940.484375 C 77.191406 951.253906 85.921875 959.984375 96.691406 959.984375 L 1403.308594 959.984375 C 1414.078125 959.984375 1422.808594 951.253906 1422.808594 940.484375 L 1422.808594 559.515625 C 1422.808594 548.746094 1414.078125 540.015625 1403.308594 540.015625 L 96.691406 540.015625 C 85.921875 540.015625 77.191406 548.746094 77.191406 559.515625 Z M 77.191406 559.515625 " clip-rule="nonzero"/></clipPath><clipPath id="5cd66c64a3"><path d="M 97.589844 540.914062 L 1402.410156 540.914062 C 1413.179688 540.914062 1421.910156 549.644531 1421.910156 560.414062 L 1421.910156 939.585938 C 1421.910156 950.355469 1413.179688 959.085938 1402.410156 959.085938 L 97.589844 959.085938 C 86.820312 959.085938 78.089844 950.355469 78.089844 939.585938 L 78.089844 560.414062 C 78.089844 549.644531 86.820312 540.914062 97.589844 540.914062 Z M 97.589844 540.914062 " clip-rule="nonzero"/></clipPath><clipPath id="a75632e464"><path d="M 437 544 L 489 544 L 489 777 L 437 777 Z M 437 544 " clip-rule="nonzero"/></clipPath><clipPath id="2e08c04fa9"><path d="M 77.191406 559.515625 L 77.191406 940.484375 C 77.191406 951.253906 85.921875 959.984375 96.691406 959.984375 L 1403.308594 959.984375 C 1414.078125 959.984375 1422.808594 951.253906 1422.808594 940.484375 L 1422.808594 559.515625 C 1422.808594 548.746094 1414.078125 540.015625 1403.308594 540.015625 L 96.691406 540.015625 C 85.921875 540.015625 77.191406 548.746094 77.191406 559.515625 Z M 77.191406 559.515625 " clip-rule="nonzero"/></clipPath><clipPath id="ba52281528"><path d="M 97.589844 540.914062 L 1402.410156 540.914062 C 1413.179688 540.914062 1421.910156 549.644531 1421.910156 560.414062 L 1421.910156 939.585938 C 1421.910156 950.355469 1413.179688 959.085938 1402.410156 959.085938 L 97.589844 959.085938 C 86.820312 959.085938 78.089844 950.355469 78.089844 939.585938 L 78.089844 560.414062 C 78.089844 549.644531 86.820312 540.914062 97.589844 540.914062 Z M 97.589844 540.914062 " clip-rule="nonzero"/></clipPath><clipPath id="c0ab5f9755"><path d="M 537 551 L 578 551 L 578 773 L 537 773 Z M 537 551 " clip-rule="nonzero"/></clipPath><clipPath id="41c0cb642c"><path d="M 77.191406 559.515625 L 77.191406 940.484375 C 77.191406 951.253906 85.921875 959.984375 96.691406 959.984375 L 1403.308594 959.984375 C 1414.078125 959.984375 1422.808594 951.253906 1422.808594 940.484375 L 1422.808594 559.515625 C 1422.808594 548.746094 1414.078125 540.015625 1403.308594 540.015625 L 96.691406 540.015625 C 85.921875 540.015625 77.191406 548.746094 77.191406 559.515625 Z M 77.191406 559.515625 " clip-rule="nonzero"/></clipPath><clipPath id="127cee0f7b"><path d="M 97.589844 540.914062 L 1402.410156 540.914062 C 1413.179688 540.914062 1421.910156 549.644531 1421.910156 560.414062 L 1421.910156 939.585938 C 1421.910156 950.355469 1413.179688 959.085938 1402.410156 959.085938 L 97.589844 959.085938 C 86.820312 959.085938 78.089844 950.355469 78.089844 939.585938 L 78.089844 560.414062 C 78.089844 549.644531 86.820312 540.914062 97.589844 540.914062 Z M 97.589844 540.914062 " clip-rule="nonzero"/></clipPath><clipPath id="43082cb9d9"><path d="M 531 546 L 583 546 L 583 779 L 531 779 Z M 531 546 " clip-rule="nonzero"/></clipPath><clipPath id="7167d66a1e"><path d="M 77.191406 559.515625 L 77.191406 940.484375 C 77.191406 951.253906 85.921875 959.984375 96.691406 959.984375 L 1403.308594 959.984375 C 1414.078125 959.984375 1422.808594 951.253906 1422.808594 940.484375 L 1422.808594 559.515625 C 1422.808594 548.746094 1414.078125 540.015625 1403.308594 540.015625 L 96.691406 540.015625 C 85.921875 540.015625 77.191406 548.746094 77.191406 559.515625 Z M 77.191406 559.515625 " clip-rule="nonzero"/></clipPath><clipPath id="dc78deeb90"><path d="M 97.589844 540.914062 L 1402.410156 540.914062 C 1413.179688 540.914062 1421.910156 549.644531 1421.910156 560.414062 L 1421.910156 939.585938 C 1421.910156 950.355469 1413.179688 959.085938 1402.410156 959.085938 L 97.589844 959.085938 C 86.820312 959.085938 78.089844 950.355469 78.089844 939.585938 L 78.089844 560.414062 C 78.089844 549.644531 86.820312 540.914062 97.589844 540.914062 Z M 97.589844 540.914062 " clip-rule="nonzero"/></clipPath><clipPath id="f8e9b53e76"><path d="M 634 551 L 675 551 L 675 773 L 634 773 Z M 634 551 " clip-rule="nonzero"/></clipPath><clipPath id="f1e64a8812"><path d="M 77.191406 559.515625 L 77.191406 940.484375 C 77.191406 951.253906 85.921875 959.984375 96.691406 959.984375 L 1403.308594 959.984375 C 1414.078125 959.984375 1422.808594 951.253906 1422.808594 940.484375 L 1422.808594 559.515625 C 1422.808594 548.746094 1414.078125 540.015625 1403.308594 540.015625 L 96.691406 540.015625 C 85.921875 540.015625 77.191406 548.746094 77.191406 559.515625 Z M 77.191406 559.515625 " clip-rule="nonzero"/></clipPath><clipPath id="28479e0c4c"><path d="M 97.589844 540.914062 L 1402.410156 540.914062 C 1413.179688 540.914062 1421.910156 549.644531 1421.910156 560.414062 L 1421.910156 939.585938 C 1421.910156 950.355469 1413.179688 959.085938 1402.410156 959.085938 L 97.589844 959.085938 C 86.820312 959.085938 78.089844 950.355469 78.089844 939.585938 L 78.089844 560.414062 C 78.089844 549.644531 86.820312 540.914062 97.589844 540.914062 Z M 97.589844 540.914062 " clip-rule="nonzero"/></clipPath><clipPath id="e44a0bed0c"><path d="M 629 546 L 681 546 L 681 779 L 629 779 Z M 629 546 " clip-rule="nonzero"/></clipPath><clipPath id="2e9584d9d8"><path d="M 77.191406 559.515625 L 77.191406 940.484375 C 77.191406 951.253906 85.921875 959.984375 96.691406 959.984375 L 1403.308594 959.984375 C 1414.078125 959.984375 1422.808594 951.253906 1422.808594 940.484375 L 1422.808594 559.515625 C 1422.808594 548.746094 1414.078125 540.015625 1403.308594 540.015625 L 96.691406 540.015625 C 85.921875 540.015625 77.191406 548.746094 77.191406 559.515625 Z M 77.191406 559.515625 " clip-rule="nonzero"/></clipPath><clipPath id="5c66e4366a"><path d="M 97.589844 540.914062 L 1402.410156 540.914062 C 1413.179688 540.914062 1421.910156 549.644531 1421.910156 560.414062 L 1421.910156 939.585938 C 1421.910156 950.355469 1413.179688 959.085938 1402.410156 959.085938 L 97.589844 959.085938 C 86.820312 959.085938 78.089844 950.355469 78.089844 939.585938 L 78.089844 560.414062 C 78.089844 549.644531 86.820312 540.914062 97.589844 540.914062 Z M 97.589844 540.914062 " clip-rule="nonzero"/></clipPath><clipPath id="f609f77503"><path d="M 827 548 L 868 548 L 868 770 L 827 770 Z M 827 548 " clip-rule="nonzero"/></clipPath><clipPath id="b28c21ecd2"><path d="M 77.191406 559.515625 L 77.191406 940.484375 C 77.191406 951.253906 85.921875 959.984375 96.691406 959.984375 L 1403.308594 959.984375 C 1414.078125 959.984375 1422.808594 951.253906 1422.808594 940.484375 L 1422.808594 559.515625 C 1422.808594 548.746094 1414.078125 540.015625 1403.308594 540.015625 L 96.691406 540.015625 C 85.921875 540.015625 77.191406 548.746094 77.191406 559.515625 Z M 77.191406 559.515625 " clip-rule="nonzero"/></clipPath><clipPath id="64b5734918"><path d="M 97.589844 540.914062 L 1402.410156 540.914062 C 1413.179688 540.914062 1421.910156 549.644531 1421.910156 560.414062 L 1421.910156 939.585938 C 1421.910156 950.355469 1413.179688 959.085938 1402.410156 959.085938 L 97.589844 959.085938 C 86.820312 959.085938 78.089844 950.355469 78.089844 939.585938 L 78.089844 560.414062 C 78.089844 549.644531 86.820312 540.914062 97.589844 540.914062 Z M 97.589844 540.914062 " clip-rule="nonzero"/></clipPath><clipPath id="4635884e03"><path d="M 822 542 L 874 542 L 874 775 L 822 775 Z M 822 542 " clip-rule="nonzero"/></clipPath><clipPath id="9008d77307"><path d="M 77.191406 559.515625 L 77.191406 940.484375 C 77.191406 951.253906 85.921875 959.984375 96.691406 959.984375 L 1403.308594 959.984375 C 1414.078125 959.984375 1422.808594 951.253906 1422.808594 940.484375 L 1422.808594 559.515625 C 1422.808594 548.746094 1414.078125 540.015625 1403.308594 540.015625 L 96.691406 540.015625 C 85.921875 540.015625 77.191406 548.746094 77.191406 559.515625 Z M 77.191406 559.515625 " clip-rule="nonzero"/></clipPath><clipPath id="497000a68f"><path d="M 97.589844 540.914062 L 1402.410156 540.914062 C 1413.179688 540.914062 1421.910156 549.644531 1421.910156 560.414062 L 1421.910156 939.585938 C 1421.910156 950.355469 1413.179688 959.085938 1402.410156 959.085938 L 97.589844 959.085938 C 86.820312 959.085938 78.089844 950.355469 78.089844 939.585938 L 78.089844 560.414062 C 78.089844 549.644531 86.820312 540.914062 97.589844 540.914062 Z M 97.589844 540.914062 " clip-rule="nonzero"/></clipPath><clipPath id="3b70b656dc"><path d="M 925 548 L 966 548 L 966 770 L 925 770 Z M 925 548 " clip-rule="nonzero"/></clipPath><clipPath id="fb3acd44e3"><path d="M 77.191406 559.515625 L 77.191406 940.484375 C 77.191406 951.253906 85.921875 959.984375 96.691406 959.984375 L 1403.308594 959.984375 C 1414.078125 959.984375 1422.808594 951.253906 1422.808594 940.484375 L 1422.808594 559.515625 C 1422.808594 548.746094 1414.078125 540.015625 1403.308594 540.015625 L 96.691406 540.015625 C 85.921875 540.015625 77.191406 548.746094 77.191406 559.515625 Z M 77.191406 559.515625 " clip-rule="nonzero"/></clipPath><clipPath id="3d5b43c22d"><path d="M 97.589844 540.914062 L 1402.410156 540.914062 C 1413.179688 540.914062 1421.910156 549.644531 1421.910156 560.414062 L 1421.910156 939.585938 C 1421.910156 950.355469 1413.179688 959.085938 1402.410156 959.085938 L 97.589844 959.085938 C 86.820312 959.085938 78.089844 950.355469 78.089844 939.585938 L 78.089844 560.414062 C 78.089844 549.644531 86.820312 540.914062 97.589844 540.914062 Z M 97.589844 540.914062 " clip-rule="nonzero"/></clipPath><clipPath id="51e7c35b64"><path d="M 919 542 L 971 542 L 971 775 L 919 775 Z M 919 542 " clip-rule="nonzero"/></clipPath><clipPath id="f31bca520a"><path d="M 77.191406 559.515625 L 77.191406 940.484375 C 77.191406 951.253906 85.921875 959.984375 96.691406 959.984375 L 1403.308594 959.984375 C 1414.078125 959.984375 1422.808594 951.253906 1422.808594 940.484375 L 1422.808594 559.515625 C 1422.808594 548.746094 1414.078125 540.015625 1403.308594 540.015625 L 96.691406 540.015625 C 85.921875 540.015625 77.191406 548.746094 77.191406 559.515625 Z M 77.191406 559.515625 " clip-rule="nonzero"/></clipPath><clipPath id="cfe09bc619"><path d="M 97.589844 540.914062 L 1402.410156 540.914062 C 1413.179688 540.914062 1421.910156 549.644531 1421.910156 560.414062 L 1421.910156 939.585938 C 1421.910156 950.355469 1413.179688 959.085938 1402.410156 959.085938 L 97.589844 959.085938 C 86.820312 959.085938 78.089844 950.355469 78.089844 939.585938 L 78.089844 560.414062 C 78.089844 549.644531 86.820312 540.914062 97.589844 540.914062 Z M 97.589844 540.914062 " clip-rule="nonzero"/></clipPath><clipPath id="640c28f37a"><path d="M 1116 553 L 1157 553 L 1157 775 L 1116 775 Z M 1116 553 " clip-rule="nonzero"/></clipPath><clipPath id="c5b48f969b"><path d="M 77.191406 559.515625 L 77.191406 940.484375 C 77.191406 951.253906 85.921875 959.984375 96.691406 959.984375 L 1403.308594 959.984375 C 1414.078125 959.984375 1422.808594 951.253906 1422.808594 940.484375 L 1422.808594 559.515625 C 1422.808594 548.746094 1414.078125 540.015625 1403.308594 540.015625 L 96.691406 540.015625 C 85.921875 540.015625 77.191406 548.746094 77.191406 559.515625 Z M 77.191406 559.515625 " clip-rule="nonzero"/></clipPath><clipPath id="10dc7392f1"><path d="M 97.589844 540.914062 L 1402.410156 540.914062 C 1413.179688 540.914062 1421.910156 549.644531 1421.910156 560.414062 L 1421.910156 939.585938 C 1421.910156 950.355469 1413.179688 959.085938 1402.410156 959.085938 L 97.589844 959.085938 C 86.820312 959.085938 78.089844 950.355469 78.089844 939.585938 L 78.089844 560.414062 C 78.089844 549.644531 86.820312 540.914062 97.589844 540.914062 Z M 97.589844 540.914062 " clip-rule="nonzero"/></clipPath><clipPath id="c8d513dee7"><path d="M 1111 548 L 1162 548 L 1162 780 L 1111 780 Z M 1111 548 " clip-rule="nonzero"/></clipPath><clipPath id="5eb9481564"><path d="M 77.191406 559.515625 L 77.191406 940.484375 C 77.191406 951.253906 85.921875 959.984375 96.691406 959.984375 L 1403.308594 959.984375 C 1414.078125 959.984375 1422.808594 951.253906 1422.808594 940.484375 L 1422.808594 559.515625 C 1422.808594 548.746094 1414.078125 540.015625 1403.308594 540.015625 L 96.691406 540.015625 C 85.921875 540.015625 77.191406 548.746094 77.191406 559.515625 Z M 77.191406 559.515625 " clip-rule="nonzero"/></clipPath><clipPath id="fb6520b6a3"><path d="M 97.589844 540.914062 L 1402.410156 540.914062 C 1413.179688 540.914062 1421.910156 549.644531 1421.910156 560.414062 L 1421.910156 939.585938 C 1421.910156 950.355469 1413.179688 959.085938 1402.410156 959.085938 L 97.589844 959.085938 C 86.820312 959.085938 78.089844 950.355469 78.089844 939.585938 L 78.089844 560.414062 C 78.089844 549.644531 86.820312 540.914062 97.589844 540.914062 Z M 97.589844 540.914062 " clip-rule="nonzero"/></clipPath><clipPath id="91776b6354"><path d="M 1210 555 L 1251 555 L 1251 777 L 1210 777 Z M 1210 555 " clip-rule="nonzero"/></clipPath><clipPath id="cf77a2f89a"><path d="M 77.191406 559.515625 L 77.191406 940.484375 C 77.191406 951.253906 85.921875 959.984375 96.691406 959.984375 L 1403.308594 959.984375 C 1414.078125 959.984375 1422.808594 951.253906 1422.808594 940.484375 L 1422.808594 559.515625 C 1422.808594 548.746094 1414.078125 540.015625 1403.308594 540.015625 L 96.691406 540.015625 C 85.921875 540.015625 77.191406 548.746094 77.191406 559.515625 Z M 77.191406 559.515625 " clip-rule="nonzero"/></clipPath><clipPath id="794f977112"><path d="M 97.589844 540.914062 L 1402.410156 540.914062 C 1413.179688 540.914062 1421.910156 549.644531 1421.910156 560.414062 L 1421.910156 939.585938 C 1421.910156 950.355469 1413.179688 959.085938 1402.410156 959.085938 L 97.589844 959.085938 C 86.820312 959.085938 78.089844 950.355469 78.089844 939.585938 L 78.089844 560.414062 C 78.089844 549.644531 86.820312 540.914062 97.589844 540.914062 Z M 97.589844 540.914062 " clip-rule="nonzero"/></clipPath><clipPath id="cfa2e0480f"><path d="M 1205 549 L 1256 549 L 1256 782 L 1205 782 Z M 1205 549 " clip-rule="nonzero"/></clipPath><clipPath id="d95f1bb883"><path d="M 77.191406 559.515625 L 77.191406 940.484375 C 77.191406 951.253906 85.921875 959.984375 96.691406 959.984375 L 1403.308594 959.984375 C 1414.078125 959.984375 1422.808594 951.253906 1422.808594 940.484375 L 1422.808594 559.515625 C 1422.808594 548.746094 1414.078125 540.015625 1403.308594 540.015625 L 96.691406 540.015625 C 85.921875 540.015625 77.191406 548.746094 77.191406 559.515625 Z M 77.191406 559.515625 " clip-rule="nonzero"/></clipPath><clipPath id="d0f03cb10b"><path d="M 97.589844 540.914062 L 1402.410156 540.914062 C 1413.179688 540.914062 1421.910156 549.644531 1421.910156 560.414062 L 1421.910156 939.585938 C 1421.910156 950.355469 1413.179688 959.085938 1402.410156 959.085938 L 97.589844 959.085938 C 86.820312 959.085938 78.089844 950.355469 78.089844 939.585938 L 78.089844 560.414062 C 78.089844 549.644531 86.820312 540.914062 97.589844 540.914062 Z M 97.589844 540.914062 " clip-rule="nonzero"/></clipPath><clipPath id="3b86d822af"><path d="M 1306 553 L 1347 553 L 1347 775 L 1306 775 Z M 1306 553 " clip-rule="nonzero"/></clipPath><clipPath id="248cf8432c"><path d="M 77.191406 559.515625 L 77.191406 940.484375 C 77.191406 951.253906 85.921875 959.984375 96.691406 959.984375 L 1403.308594 959.984375 C 1414.078125 959.984375 1422.808594 951.253906 1422.808594 940.484375 L 1422.808594 559.515625 C 1422.808594 548.746094 1414.078125 540.015625 1403.308594 540.015625 L 96.691406 540.015625 C 85.921875 540.015625 77.191406 548.746094 77.191406 559.515625 Z M 77.191406 559.515625 " clip-rule="nonzero"/></clipPath><clipPath id="4fed5a2a54"><path d="M 97.589844 540.914062 L 1402.410156 540.914062 C 1413.179688 540.914062 1421.910156 549.644531 1421.910156 560.414062 L 1421.910156 939.585938 C 1421.910156 950.355469 1413.179688 959.085938 1402.410156 959.085938 L 97.589844 959.085938 C 86.820312 959.085938 78.089844 950.355469 78.089844 939.585938 L 78.089844 560.414062 C 78.089844 549.644531 86.820312 540.914062 97.589844 540.914062 Z M 97.589844 540.914062 " clip-rule="nonzero"/></clipPath><clipPath id="1c0597a9f4"><path d="M 1300 548 L 1352 548 L 1352 780 L 1300 780 Z M 1300 548 " clip-rule="nonzero"/></clipPath><clipPath id="47c90d4c5d"><path d="M 77.191406 559.515625 L 77.191406 940.484375 C 77.191406 951.253906 85.921875 959.984375 96.691406 959.984375 L 1403.308594 959.984375 C 1414.078125 959.984375 1422.808594 951.253906 1422.808594 940.484375 L 1422.808594 559.515625 C 1422.808594 548.746094 1414.078125 540.015625 1403.308594 540.015625 L 96.691406 540.015625 C 85.921875 540.015625 77.191406 548.746094 77.191406 559.515625 Z M 77.191406 559.515625 " clip-rule="nonzero"/></clipPath><clipPath id="910fbfe42b"><path d="M 97.589844 540.914062 L 1402.410156 540.914062 C 1413.179688 540.914062 1421.910156 549.644531 1421.910156 560.414062 L 1421.910156 939.585938 C 1421.910156 950.355469 1413.179688 959.085938 1402.410156 959.085938 L 97.589844 959.085938 C 86.820312 959.085938 78.089844 950.355469 78.089844 939.585938 L 78.089844 560.414062 C 78.089844 549.644531 86.820312 540.914062 97.589844 540.914062 Z M 97.589844 540.914062 " clip-rule="nonzero"/></clipPath><clipPath id="024c1d32a1"><path d="M 77.191406 540.015625 L 1422.691406 540.015625 L 1422.691406 960 L 77.191406 960 Z M 77.191406 540.015625 " clip-rule="nonzero"/></clipPath><clipPath id="a5c81ca755"><path d="M 77.191406 559.515625 L 77.191406 940.484375 C 77.191406 951.253906 85.921875 959.984375 96.691406 959.984375 L 1403.308594 959.984375 C 1414.078125 959.984375 1422.808594 951.253906 1422.808594 940.484375 L 1422.808594 559.515625 C 1422.808594 548.746094 1414.078125 540.015625 1403.308594 540.015625 L 96.691406 540.015625 C 85.921875 540.015625 77.191406 548.746094 77.191406 559.515625 Z M 77.191406 559.515625 " clip-rule="nonzero"/></clipPath><clipPath id="3ffde97622"><path d="M 77.191406 559.515625 L 77.191406 940.480469 C 77.191406 951.25 85.921875 959.980469 96.691406 959.980469 L 1403.296875 959.980469 C 1414.066406 959.980469 1422.796875 951.25 1422.796875 940.480469 L 1422.796875 559.515625 C 1422.796875 548.746094 1414.066406 540.015625 1403.296875 540.015625 L 96.691406 540.015625 C 85.921875 540.015625 77.191406 548.746094 77.191406 559.515625 Z M 77.191406 559.515625 " clip-rule="nonzero"/></clipPath><clipPath id="d8473c9486"><path d="M 194.09375 871.261719 L 254.84375 871.261719 L 254.84375 932.011719 L 194.09375 932.011719 Z M 194.09375 871.261719 " clip-rule="nonzero"/></clipPath><clipPath id="900e5f1220"><path d="M 387.195312 871.261719 L 447.945312 871.261719 L 447.945312 932.011719 L 387.195312 932.011719 Z M 387.195312 871.261719 " clip-rule="nonzero"/></clipPath><clipPath id="d9fbe2cb63"><path d="M 580.578125 871.261719 L 641.328125 871.261719 L 641.328125 932.011719 L 580.578125 932.011719 Z M 580.578125 871.261719 " clip-rule="nonzero"/></clipPath></defs><g clip-path="url(#cb20fe4b83)"><g clip-path="url(#4066da84b9)"><g clip-path="url(#620ce67bf7)"><path fill="#000000" d="M 150.664062 543.847656 L 198.878906 543.847656 L 198.878906 780.875 L 150.664062 780.875 Z M 150.664062 543.847656 " fill-opacity="1" fill-rule="evenodd"/></g></g></g><g clip-path="url(#1d67b36234)"><g clip-path="url(#c9097abae5)"><g clip-path="url(#20ff07c8d3)"><path stroke-linecap="butt" transform="matrix(0.932292, 0, 0, 0.926936, 47.487538, 386.843764)" fill="none" stroke-linejoin="miter" d="M 110.669807 169.379504 L 162.386295 169.379504 L 162.386295 425.090196 L 110.669807 425.090196 Z M 110.669807 169.379504 " stroke="#000000" stroke-width="1.207" stroke-opacity="1" stroke-miterlimit="4"/></g></g></g><g clip-path="url(#64c1c0cc1c)"><g clip-path="url(#ef2634c88d)"><g clip-path="url(#95bb1bc8f2)"><path fill="#000000" d="M 246.121094 543.726562 L 294.335938 543.726562 L 294.335938 780.753906 L 246.121094 780.753906 Z M 246.121094 543.726562 " fill-opacity="1" fill-rule="evenodd"/></g></g></g><g clip-path="url(#179a79bd6f)"><g clip-path="url(#b9daed890c)"><g clip-path="url(#1df88c409e)"><path stroke-linecap="butt" transform="matrix(0.932292, 0, 0, 0.926936, 47.487538, 386.843764)" fill="none" stroke-linejoin="miter" d="M 213.059486 169.248865 L 264.775974 169.248865 L 264.775974 424.959557 L 213.059486 424.959557 Z M 213.059486 169.248865 " stroke="#000000" stroke-width="1.207" stroke-opacity="1" stroke-miterlimit="4"/></g></g></g><g clip-path="url(#9b4f200d48)"><g clip-path="url(#abfab2797b)"><g clip-path="url(#3bdbb3ee6f)"><path fill="#000000" d="M 437.34375 543.253906 L 485.558594 543.253906 L 485.558594 780.28125 L 437.34375 780.28125 Z M 437.34375 543.253906 " fill-opacity="1" fill-rule="evenodd"/></g></g></g><g clip-path="url(#732144a634)"><g clip-path="url(#99ec23d0c4)"><g clip-path="url(#833d08e17d)"><path stroke-linecap="butt" transform="matrix(0.932292, 0, 0, 0.926936, 47.487538, 386.843764)" fill="none" stroke-linejoin="miter" d="M 418.16985 168.738952 L 469.886338 168.738952 L 469.886338 424.449644 L 418.16985 424.449644 Z M 418.16985 168.738952 " stroke="#000000" stroke-width="1.207" stroke-opacity="1" stroke-miterlimit="4"/></g></g></g><g clip-path="url(#f26718208d)"><g clip-path="url(#6e1a4ee73e)"><g clip-path="url(#a79debc07b)"><path fill="#000000" d="M 532.25 544.199219 L 580.46875 544.199219 L 580.46875 781.226562 L 532.25 781.226562 Z M 532.25 544.199219 " fill-opacity="1" fill-rule="evenodd"/></g></g></g><g clip-path="url(#040d4fd28a)"><g clip-path="url(#28621d01e1)"><g clip-path="url(#03dcec8030)"><path stroke-linecap="butt" transform="matrix(0.932292, 0, 0, 0.926936, 47.487538, 386.843764)" fill="none" stroke-linejoin="miter" d="M 519.968747 169.758778 L 571.689425 169.758778 L 571.689425 425.46947 L 519.968747 425.46947 Z M 519.968747 169.758778 " stroke="#000000" stroke-width="1.207" stroke-opacity="1" stroke-miterlimit="4"/></g></g></g><g clip-path="url(#8f54e0db4c)"><g clip-path="url(#32f73d20f8)"><g clip-path="url(#4848b0d1ff)"><path fill="#000000" d="M 629.050781 543.726562 L 677.265625 543.726562 L 677.265625 780.753906 L 629.050781 780.753906 Z M 629.050781 543.726562 " fill-opacity="1" fill-rule="evenodd"/></g></g></g><g clip-path="url(#709f599089)"><g clip-path="url(#9ee1d39839)"><g clip-path="url(#22d3d78dbc)"><path stroke-linecap="butt" transform="matrix(0.932292, 0, 0, 0.926936, 47.487538, 386.843764)" fill="none" stroke-linejoin="miter" d="M 623.799767 169.248865 L 675.516255 169.248865 L 675.516255 424.959557 L 623.799767 424.959557 Z M 623.799767 169.248865 " stroke="#000000" stroke-width="1.207" stroke-opacity="1" stroke-miterlimit="4"/></g></g></g><g clip-path="url(#a1cb8194b1)"><g clip-path="url(#b8273dca4a)"><g clip-path="url(#8cdeee99dc)"><path stroke-linecap="butt" transform="matrix(0.932292, 0, 0, 0.926936, 47.487538, 386.843764)" fill="none" stroke-linejoin="miter" d="M 33.516165 167.950905 L 751.857048 167.950905 L 751.857048 617.091297 L 33.516165 617.091297 Z M 33.516165 167.950905 " stroke="#000000" stroke-width="2.375" stroke-opacity="1" stroke-miterlimit="4"/></g></g></g><g clip-path="url(#5c41335a10)"><g clip-path="url(#20754a2010)"><g clip-path="url(#78e44e5e0b)"><path stroke-linecap="butt" transform="matrix(2.142509, 0, 0, 2.142857, 65.302506, 525.657991)" fill="none" stroke-linejoin="miter" d="M 50.74467 114.680717 L 50.74467 202.135159 " stroke="#000000" stroke-width="2.375" stroke-opacity="1" stroke-miterlimit="4"/></g></g></g><g clip-path="url(#1e2d92db93)"><g clip-path="url(#79ec162aab)"><g clip-path="url(#39074aa61a)"><path stroke-linecap="butt" transform="matrix(2.142509, 0, 0, 2.142857, 65.302506, 525.657991)" fill="none" stroke-linejoin="miter" d="M 95.847303 114.259623 L 95.847303 201.715888 " stroke="#000000" stroke-width="2.375" stroke-opacity="1" stroke-miterlimit="4"/></g></g></g><g clip-path="url(#898f51cb53)"><g clip-path="url(#8ef33713f2)"><g clip-path="url(#8265ca7b46)"><path stroke-linecap="butt" transform="matrix(2.142509, 0, 0, 2.142857, 65.302506, 525.657991)" fill="none" stroke-linejoin="miter" d="M 184.960464 114.839311 L 184.960464 202.295576 " stroke="#000000" stroke-width="2.375" stroke-opacity="1" stroke-miterlimit="4"/></g></g></g><g clip-path="url(#b8f8a08dd2)"><g clip-path="url(#d19bb46343)"><g clip-path="url(#35f0f8982c)"><path stroke-linecap="butt" transform="matrix(2.142509, 0, 0, 2.142857, 65.302506, 525.657991)" fill="none" stroke-linejoin="miter" d="M 229.269999 114.839311 L 229.269999 202.295576 " stroke="#000000" stroke-width="2.375" stroke-opacity="1" stroke-miterlimit="4"/></g></g></g><g clip-path="url(#04a44b69ce)"><g clip-path="url(#129b341290)"><g clip-path="url(#3b63bbabb9)"><path stroke-linecap="butt" transform="matrix(2.142509, 0, 0, 2.142857, 65.302506, 525.657991)" fill="none" stroke-linejoin="miter" d="M 274.689871 114.520301 L 274.689871 201.976565 " stroke="#000000" stroke-width="2.375" stroke-opacity="1" stroke-miterlimit="4"/></g></g></g><g clip-path="url(#b287833e29)"><g clip-path="url(#7b30373713)"><g clip-path="url(#4c0df8e501)"><path stroke-linecap="butt" transform="matrix(2.142509, 0, 0, 2.142857, 65.302506, 525.657991)" fill="none" stroke-linejoin="miter" d="M 140.350099 8.069241 L 140.350099 201.949222 " stroke="#000000" stroke-width="2.375" stroke-opacity="1" stroke-miterlimit="4"/></g></g></g><g clip-path="url(#929a80fdbf)"><g clip-path="url(#9e7f78581a)"><g clip-path="url(#23854a514c)"><path fill="#000000" d="M 157.082031 552.585938 L 197.097656 552.585938 L 197.097656 773.582031 L 157.082031 773.582031 Z M 157.082031 552.585938 " fill-opacity="1" fill-rule="nonzero"/></g></g></g><g clip-path="url(#baeb7fa72f)"><g clip-path="url(#a412eff0d8)"><g clip-path="url(#7ff0d36f2d)"><path stroke-linecap="butt" transform="matrix(2.142509, 0, 0, 2.142857, 65.302506, 525.657991)" fill="none" stroke-linejoin="miter" d="M 42.837398 12.566377 L 61.514387 12.566377 L 61.514387 115.697905 L 42.837398 115.697905 Z M 42.837398 12.566377 " stroke="#000000" stroke-width="5" stroke-opacity="1" stroke-miterlimit="4"/></g></g></g><g clip-path="url(#18e09f2434)"><g clip-path="url(#ba91cbdb0d)"><g clip-path="url(#8e93ad77f8)"><path fill="#000000" d="M 823.230469 542.382812 L 871.445312 542.382812 L 871.445312 779.410156 L 823.230469 779.410156 Z M 823.230469 542.382812 " fill-opacity="1" fill-rule="evenodd"/></g></g></g><g clip-path="url(#a354fd8c39)"><g clip-path="url(#83e35ce2bc)"><g clip-path="url(#fa4f4c7f0a)"><path stroke-linecap="butt" transform="matrix(0.932292, 0, 0, 0.926936, 47.487538, 386.843764)" fill="none" stroke-linejoin="miter" d="M 832.08192 167.799196 L 883.798407 167.799196 L 883.798407 423.509888 L 832.08192 423.509888 Z M 832.08192 167.799196 " stroke="#000000" stroke-width="1.207" stroke-opacity="1" stroke-miterlimit="4"/></g></g></g><g clip-path="url(#9f6b964e88)"><g clip-path="url(#0bed35c491)"><g clip-path="url(#82420d891a)"><path fill="#000000" d="M 918.6875 542.261719 L 966.902344 542.261719 L 966.902344 779.289062 L 918.6875 779.289062 Z M 918.6875 542.261719 " fill-opacity="1" fill-rule="evenodd"/></g></g></g><g clip-path="url(#32476571f2)"><g clip-path="url(#3d51cb316a)"><g clip-path="url(#32a3e2b8c4)"><path stroke-linecap="butt" transform="matrix(0.932292, 0, 0, 0.926936, 47.487538, 386.843764)" fill="none" stroke-linejoin="miter" d="M 934.471599 167.668557 L 986.188087 167.668557 L 986.188087 423.379249 L 934.471599 423.379249 Z M 934.471599 167.668557 " stroke="#000000" stroke-width="1.207" stroke-opacity="1" stroke-miterlimit="4"/></g></g></g><g clip-path="url(#abf8d0cf32)"><g clip-path="url(#34381d989a)"><g clip-path="url(#49fbddd590)"><path fill="#000000" d="M 1109.925781 541.800781 L 1158.144531 541.800781 L 1158.144531 778.828125 L 1109.925781 778.828125 Z M 1109.925781 541.800781 " fill-opacity="1" fill-rule="evenodd"/></g></g></g><g clip-path="url(#a7d580e845)"><g clip-path="url(#22f4cb9358)"><g clip-path="url(#35538e44dc)"><path stroke-linecap="butt" transform="matrix(0.932292, 0, 0, 0.926936, 47.487538, 386.843764)" fill="none" stroke-linejoin="miter" d="M 1139.598723 167.171287 L 1191.3194 167.171287 L 1191.3194 422.881979 L 1139.598723 422.881979 Z M 1139.598723 167.171287 " stroke="#000000" stroke-width="1.207" stroke-opacity="1" stroke-miterlimit="4"/></g></g></g><g clip-path="url(#5f6b9d570c)"><g clip-path="url(#dd8d6f16ea)"><g clip-path="url(#ef34b7ef2a)"><path fill="#000000" d="M 1204.835938 542.734375 L 1253.050781 542.734375 L 1253.050781 779.761719 L 1204.835938 779.761719 Z M 1204.835938 542.734375 " fill-opacity="1" fill-rule="evenodd"/></g></g></g><g clip-path="url(#d682a0ea8a)"><g clip-path="url(#e76a10c013)"><g clip-path="url(#7f26703d54)"><path stroke-linecap="butt" transform="matrix(0.932292, 0, 0, 0.926936, 47.487538, 386.843764)" fill="none" stroke-linejoin="miter" d="M 1241.40181 168.17847 L 1293.118297 168.17847 L 1293.118297 423.889162 L 1241.40181 423.889162 Z M 1241.40181 168.17847 " stroke="#000000" stroke-width="1.207" stroke-opacity="1" stroke-miterlimit="4"/></g></g></g><g clip-path="url(#2f7888260d)"><g clip-path="url(#64dd8b7447)"><g clip-path="url(#5f682e4814)"><path fill="#000000" d="M 1301.605469 542.261719 L 1349.824219 542.261719 L 1349.824219 779.289062 L 1301.605469 779.289062 Z M 1301.605469 542.261719 " fill-opacity="1" fill-rule="evenodd"/></g></g></g><g clip-path="url(#cbd0dee8a8)"><g clip-path="url(#af8dee7ccf)"><g clip-path="url(#613ef87b8b)"><path stroke-linecap="butt" transform="matrix(0.932292, 0, 0, 0.926936, 47.487538, 386.843764)" fill="none" stroke-linejoin="miter" d="M 1345.19931 167.668557 L 1396.919988 167.668557 L 1396.919988 423.379249 L 1345.19931 423.379249 Z M 1345.19931 167.668557 " stroke="#000000" stroke-width="1.207" stroke-opacity="1" stroke-miterlimit="4"/></g></g></g><g clip-path="url(#7c03eed4ae)"><g clip-path="url(#95e6926357)"><g clip-path="url(#9eb217b750)"><path stroke-linecap="butt" transform="matrix(0.932292, 0, 0, 0.926936, 47.487538, 386.843764)" fill="none" stroke-linejoin="miter" d="M 754.919898 166.370597 L 1473.260781 166.370597 L 1473.260781 615.510989 L 754.919898 615.510989 Z M 754.919898 166.370597 " stroke="#000000" stroke-width="2.375" stroke-opacity="1" stroke-miterlimit="4"/></g></g></g><g clip-path="url(#cb1fa55fe2)"><g clip-path="url(#6c810fbcc0)"><g clip-path="url(#28e387070e)"><path stroke-linecap="butt" transform="matrix(2.142509, 0, 0, 2.142857, 65.302506, 525.657991)" fill="none" stroke-linejoin="miter" d="M 364.659941 114.000769 L 364.659941 201.455211 " stroke="#000000" stroke-width="2.375" stroke-opacity="1" stroke-miterlimit="4"/></g></g></g><g clip-path="url(#c6c8e56619)"><g clip-path="url(#3b364f4fb6)"><g clip-path="url(#93b296b64f)"><path stroke-linecap="butt" transform="matrix(2.142509, 0, 0, 2.142857, 65.302506, 525.657991)" fill="none" stroke-linejoin="miter" d="M 409.760751 113.579675 L 409.760751 201.03594 " stroke="#000000" stroke-width="2.375" stroke-opacity="1" stroke-miterlimit="4"/></g></g></g><g clip-path="url(#32c04d61d7)"><g clip-path="url(#ecb3378a25)"><g clip-path="url(#0ba1e97a73)"><path stroke-linecap="butt" transform="matrix(2.142509, 0, 0, 2.142857, 65.302506, 525.657991)" fill="none" stroke-linejoin="miter" d="M 498.870265 114.150248 L 498.870265 201.606513 " stroke="#000000" stroke-width="2.375" stroke-opacity="1" stroke-miterlimit="4"/></g></g></g><g clip-path="url(#66c9a8a477)"><g clip-path="url(#e95241a4fd)"><g clip-path="url(#2b790dafa9)"><path stroke-linecap="butt" transform="matrix(2.142509, 0, 0, 2.142857, 65.302506, 525.657991)" fill="none" stroke-linejoin="miter" d="M 543.19074 114.150248 L 543.19074 201.606513 " stroke="#000000" stroke-width="2.375" stroke-opacity="1" stroke-miterlimit="4"/></g></g></g><g clip-path="url(#b02b286bc6)"><g clip-path="url(#69f7a31595)"><g clip-path="url(#1272dd4b2e)"><path stroke-linecap="butt" transform="matrix(2.142509, 0, 0, 2.142857, 65.302506, 525.657991)" fill="none" stroke-linejoin="miter" d="M 588.599672 113.840353 L 588.599672 201.296617 " stroke="#000000" stroke-width="2.375" stroke-opacity="1" stroke-miterlimit="4"/></g></g></g><g clip-path="url(#d610fb5d3a)"><g clip-path="url(#a8ca3a57a3)"><g clip-path="url(#a5129b09f4)"><path stroke-linecap="butt" transform="matrix(2.142509, 0, 0, 2.142857, 65.302506, 525.657991)" fill="none" stroke-linejoin="miter" d="M 454.2599 7.38747 L 454.2599 201.267451 " stroke="#000000" stroke-width="2.375" stroke-opacity="1" stroke-miterlimit="4"/></g></g></g><g clip-path="url(#cf98f9f587)"><g clip-path="url(#d44308f55c)"><g clip-path="url(#714fc09852)"><path fill="#000000" d="M 251.898438 549.980469 L 291.914062 549.980469 L 291.914062 770.972656 L 251.898438 770.972656 Z M 251.898438 549.980469 " fill-opacity="1" fill-rule="nonzero"/></g></g></g><g clip-path="url(#d5f8af2258)"><g clip-path="url(#07608cd767)"><g clip-path="url(#6d1b96ea30)"><path stroke-linecap="butt" transform="matrix(2.142509, 0, 0, 2.142857, 65.302506, 525.657991)" fill="none" stroke-linejoin="miter" d="M 87.092236 11.350492 L 105.769226 11.350492 L 105.769226 114.480196 L 87.092236 114.480196 Z M 87.092236 11.350492 " stroke="#000000" stroke-width="5" stroke-opacity="1" stroke-miterlimit="4"/></g></g></g><g clip-path="url(#3e34951096)"><g clip-path="url(#4eef8088fe)"><g clip-path="url(#5cd66c64a3)"><path fill="#000000" d="M 443.285156 549.980469 L 483.300781 549.980469 L 483.300781 770.972656 L 443.285156 770.972656 Z M 443.285156 549.980469 " fill-opacity="1" fill-rule="nonzero"/></g></g></g><g clip-path="url(#a75632e464)"><g clip-path="url(#2e08c04fa9)"><g clip-path="url(#ba52281528)"><path stroke-linecap="butt" transform="matrix(2.142509, 0, 0, 2.142857, 65.302506, 525.657991)" fill="none" stroke-linejoin="miter" d="M 176.420536 11.350492 L 195.097526 11.350492 L 195.097526 114.480196 L 176.420536 114.480196 Z M 176.420536 11.350492 " stroke="#000000" stroke-width="5" stroke-opacity="1" stroke-miterlimit="4"/></g></g></g><g clip-path="url(#c0ab5f9755)"><g clip-path="url(#41c0cb642c)"><g clip-path="url(#127cee0f7b)"><path fill="#000000" d="M 537.234375 551.71875 L 577.25 551.71875 L 577.25 772.710938 L 537.234375 772.710938 Z M 537.234375 551.71875 " fill-opacity="1" fill-rule="nonzero"/></g></g></g><g clip-path="url(#43082cb9d9)"><g clip-path="url(#7167d66a1e)"><g clip-path="url(#dc78deeb90)"><path stroke-linecap="butt" transform="matrix(2.142509, 0, 0, 2.142857, 65.302506, 525.657991)" fill="none" stroke-linejoin="miter" d="M 220.270622 12.16169 L 238.947611 12.16169 L 238.947611 115.291395 L 220.270622 115.291395 Z M 220.270622 12.16169 " stroke="#000000" stroke-width="5" stroke-opacity="1" stroke-miterlimit="4"/></g></g></g><g clip-path="url(#f8e9b53e76)"><g clip-path="url(#f1e64a8812)"><g clip-path="url(#28479e0c4c)"><path fill="#000000" d="M 634.652344 551.71875 L 674.667969 551.71875 L 674.667969 772.710938 L 634.652344 772.710938 Z M 634.652344 551.71875 " fill-opacity="1" fill-rule="nonzero"/></g></g></g><g clip-path="url(#e44a0bed0c)"><g clip-path="url(#2e9584d9d8)"><g clip-path="url(#5c66e4366a)"><path stroke-linecap="butt" transform="matrix(2.142509, 0, 0, 2.142857, 65.302506, 525.657991)" fill="none" stroke-linejoin="miter" d="M 265.73972 12.16169 L 284.41671 12.16169 L 284.41671 115.291395 L 265.73972 115.291395 Z M 265.73972 12.16169 " stroke="#000000" stroke-width="5" stroke-opacity="1" stroke-miterlimit="4"/></g></g></g><g clip-path="url(#f609f77503)"><g clip-path="url(#b28c21ecd2)"><g clip-path="url(#64b5734918)"><path fill="#000000" d="M 827.777344 548.238281 L 867.792969 548.238281 L 867.792969 769.230469 L 827.777344 769.230469 Z M 827.777344 548.238281 " fill-opacity="1" fill-rule="nonzero"/></g></g></g><g clip-path="url(#4635884e03)"><g clip-path="url(#9008d77307)"><g clip-path="url(#497000a68f)"><path stroke-linecap="butt" transform="matrix(2.142509, 0, 0, 2.142857, 65.302506, 525.657991)" fill="none" stroke-linejoin="miter" d="M 355.87935 10.537471 L 374.556339 10.537471 L 374.556339 113.667175 L 355.87935 113.667175 Z M 355.87935 10.537471 " stroke="#000000" stroke-width="5" stroke-opacity="1" stroke-miterlimit="4"/></g></g></g><g clip-path="url(#3b70b656dc)"><g clip-path="url(#fb3acd44e3)"><g clip-path="url(#3d5b43c22d)"><path fill="#000000" d="M 925.21875 548.238281 L 965.234375 548.238281 L 965.234375 769.230469 L 925.21875 769.230469 Z M 925.21875 548.238281 " fill-opacity="1" fill-rule="nonzero"/></g></g></g><g clip-path="url(#51e7c35b64)"><g clip-path="url(#f31bca520a)"><g clip-path="url(#cfe09bc619)"><path stroke-linecap="butt" transform="matrix(2.142509, 0, 0, 2.142857, 65.302506, 525.657991)" fill="none" stroke-linejoin="miter" d="M 401.359387 10.537471 L 420.036377 10.537471 L 420.036377 113.667175 L 401.359387 113.667175 Z M 401.359387 10.537471 " stroke="#000000" stroke-width="5" stroke-opacity="1" stroke-miterlimit="4"/></g></g></g><g clip-path="url(#640c28f37a)"><g clip-path="url(#c5b48f969b)"><g clip-path="url(#10dc7392f1)"><path fill="#000000" d="M 1116.589844 553.460938 L 1156.605469 553.460938 L 1156.605469 774.453125 L 1116.589844 774.453125 Z M 1116.589844 553.460938 " fill-opacity="1" fill-rule="nonzero"/></g></g></g><g clip-path="url(#c8d513dee7)"><g clip-path="url(#5eb9481564)"><g clip-path="url(#fb6520b6a3)"><path stroke-linecap="butt" transform="matrix(2.142509, 0, 0, 2.142857, 65.302506, 525.657991)" fill="none" stroke-linejoin="miter" d="M 490.680394 12.974711 L 509.357384 12.974711 L 509.357384 116.104415 L 490.680394 116.104415 Z M 490.680394 12.974711 " stroke="#000000" stroke-width="5" stroke-opacity="1" stroke-miterlimit="4"/></g></g></g><g clip-path="url(#91776b6354)"><g clip-path="url(#cf77a2f89a)"><g clip-path="url(#794f977112)"><path fill="#000000" d="M 1210.539062 555.199219 L 1250.554688 555.199219 L 1250.554688 776.191406 L 1210.539062 776.191406 Z M 1210.539062 555.199219 " fill-opacity="1" fill-rule="nonzero"/></g></g></g><g clip-path="url(#cfa2e0480f)"><g clip-path="url(#d95f1bb883)"><g clip-path="url(#d0f03cb10b)"><path stroke-linecap="butt" transform="matrix(2.142509, 0, 0, 2.142857, 65.302506, 525.657991)" fill="none" stroke-linejoin="miter" d="M 534.53048 13.785909 L 553.20747 13.785909 L 553.20747 116.915614 L 534.53048 116.915614 Z M 534.53048 13.785909 " stroke="#000000" stroke-width="5" stroke-opacity="1" stroke-miterlimit="4"/></g></g></g><g clip-path="url(#3b86d822af)"><g clip-path="url(#248cf8432c)"><g clip-path="url(#4fed5a2a54)"><path fill="#000000" d="M 1306.242188 553.460938 L 1346.257812 553.460938 L 1346.257812 774.453125 L 1306.242188 774.453125 Z M 1306.242188 553.460938 " fill-opacity="1" fill-rule="nonzero"/></g></g></g><g clip-path="url(#1c0597a9f4)"><g clip-path="url(#47c90d4c5d)"><g clip-path="url(#910fbfe42b)"><path stroke-linecap="butt" transform="matrix(2.142509, 0, 0, 2.142857, 65.302506, 525.657991)" fill="none" stroke-linejoin="miter" d="M 579.199188 12.974711 L 597.876178 12.974711 L 597.876178 116.104415 L 579.199188 116.104415 Z M 579.199188 12.974711 " stroke="#000000" stroke-width="5" stroke-opacity="1" stroke-miterlimit="4"/></g></g></g><g clip-path="url(#024c1d32a1)"><g clip-path="url(#a5c81ca755)"><g clip-path="url(#3ffde97622)"><path stroke-linecap="butt" transform="matrix(0.75, 0, 0, 0.75, 77.19158, 540.015101)" fill="none" stroke-linejoin="miter" d="M -0.000231002 26.0007 L -0.000231002 533.953869 C -0.000231002 548.313245 11.640396 559.953871 25.999773 559.953871 L 1768.140659 559.953871 C 1782.500037 559.953871 1794.140663 548.313245 1794.140663 533.953869 L 1794.140663 26.0007 C 1794.140663 11.641324 1782.500037 0.000698018 1768.140659 0.000698018 L 25.999773 0.000698018 C 11.640396 0.000698018 -0.000231002 11.641324 -0.000231002 26.0007 Z M -0.000231002 26.0007 " stroke="#000000" stroke-width="10" stroke-opacity="1" stroke-miterlimit="4"/></g></g></g><g clip-path="url(#d8473c9486)"><path fill="#000000" d="M 224.46875 871.261719 C 207.6875 871.261719 194.09375 884.851562 194.09375 901.636719 C 194.09375 918.417969 207.6875 932.011719 224.46875 932.011719 C 241.25 932.011719 254.84375 918.417969 254.84375 901.636719 C 254.84375 884.851562 241.25 871.261719 224.46875 871.261719 Z M 224.46875 871.261719 " fill-opacity="1" fill-rule="nonzero"/></g><g clip-path="url(#900e5f1220)"><path fill="#000000" d="M 417.570312 871.261719 C 400.789062 871.261719 387.195312 884.851562 387.195312 901.636719 C 387.195312 918.417969 400.789062 932.011719 417.570312 932.011719 C 434.355469 932.011719 447.945312 918.417969 447.945312 901.636719 C 447.945312 884.851562 434.355469 871.261719 417.570312 871.261719 Z M 417.570312 871.261719 " fill-opacity="1" fill-rule="nonzero"/></g><g clip-path="url(#d9fbe2cb63)"><path fill="#000000" d="M 610.953125 871.261719 C 594.167969 871.261719 580.578125 884.851562 580.578125 901.636719 C 580.578125 918.417969 594.167969 932.011719 610.953125 932.011719 C 627.734375 932.011719 641.328125 918.417969 641.328125 901.636719 C 641.328125 884.851562 627.734375 871.261719 610.953125 871.261719 Z M 610.953125 871.261719 " fill-opacity="1" fill-rule="nonzero"/></g></svg>