<svg xmlns="http://www.w3.org/2000/svg" xmlns:xlink="http://www.w3.org/1999/xlink" width="2000" zoomAndPan="magnify" viewBox="0 0 1500 607.92" height="800" preserveAspectRatio="xMidYMid meet" version="1.0"><defs><clipPath id="85b731d959"><path d="M 0.0976562 0 L 1499.898438 0 L 1499.898438 599.921875 L 0.0976562 599.921875 Z M 0.0976562 0 " clip-rule="nonzero"/></clipPath><clipPath id="cb156ad0da"><path d="M 91 19 L 141 19 L 141 263 L 91 263 Z M 91 19 " clip-rule="nonzero"/></clipPath><clipPath id="5ccbb61c60"><path d="M 16.089844 35.136719 L 16.089844 426.785156 C 16.089844 437.554688 24.820312 446.28125 35.589844 446.28125 L 1376.410156 446.28125 C 1387.179688 446.28125 1395.910156 437.554688 1395.910156 426.785156 L 1395.910156 35.136719 C 1395.910156 24.367188 1387.179688 15.636719 1376.410156 15.636719 L 35.589844 15.636719 C 24.820312 15.636719 16.089844 24.367188 16.089844 35.136719 Z M 16.089844 35.136719 " clip-rule="nonzero"/></clipPath><clipPath id="116590b647"><path d="M 36.890625 16.9375 L 1375.109375 16.9375 C 1385.878906 16.9375 1394.609375 25.667969 1394.609375 36.4375 L 1394.609375 425.484375 C 1394.609375 436.253906 1385.878906 444.980469 1375.109375 444.980469 L 36.890625 444.980469 C 26.121094 444.980469 17.390625 436.253906 17.390625 425.484375 L 17.390625 36.4375 C 17.390625 25.667969 26.121094 16.9375 36.890625 16.9375 Z M 36.890625 16.9375 " clip-rule="nonzero"/></clipPath><clipPath id="fff9771a27"><path d="M 90 18 L 142 18 L 142 264 L 90 264 Z M 90 18 " clip-rule="nonzero"/></clipPath><clipPath id="c25f43f05b"><path d="M 16.089844 35.136719 L 16.089844 426.785156 C 16.089844 437.554688 24.820312 446.28125 35.589844 446.28125 L 1376.410156 446.28125 C 1387.179688 446.28125 1395.910156 437.554688 1395.910156 426.785156 L 1395.910156 35.136719 C 1395.910156 24.367188 1387.179688 15.636719 1376.410156 15.636719 L 35.589844 15.636719 C 24.820312 15.636719 16.089844 24.367188 16.089844 35.136719 Z M 16.089844 35.136719 " clip-rule="nonzero"/></clipPath><clipPath id="962e0885be"><path d="M 36.890625 16.9375 L 1375.109375 16.9375 C 1385.878906 16.9375 1394.609375 25.667969 1394.609375 36.4375 L 1394.609375 425.484375 C 1394.609375 436.253906 1385.878906 444.980469 1375.109375 444.980469 L 36.890625 444.980469 C 26.121094 444.980469 17.390625 436.253906 17.390625 425.484375 L 17.390625 36.4375 C 17.390625 25.667969 26.121094 16.9375 36.890625 16.9375 Z M 36.890625 16.9375 " clip-rule="nonzero"/></clipPath><clipPath id="aa7f1c4542"><path d="M 189 19 L 239 19 L 239 263 L 189 263 Z M 189 19 " clip-rule="nonzero"/></clipPath><clipPath id="8d365be4d8"><path d="M 16.089844 35.136719 L 16.089844 426.785156 C 16.089844 437.554688 24.820312 446.28125 35.589844 446.28125 L 1376.410156 446.28125 C 1387.179688 446.28125 1395.910156 437.554688 1395.910156 426.785156 L 1395.910156 35.136719 C 1395.910156 24.367188 1387.179688 15.636719 1376.410156 15.636719 L 35.589844 15.636719 C 24.820312 15.636719 16.089844 24.367188 16.089844 35.136719 Z M 16.089844 35.136719 " clip-rule="nonzero"/></clipPath><clipPath id="4f7f4d20c4"><path d="M 36.890625 16.9375 L 1375.109375 16.9375 C 1385.878906 16.9375 1394.609375 25.667969 1394.609375 36.4375 L 1394.609375 425.484375 C 1394.609375 436.253906 1385.878906 444.980469 1375.109375 444.980469 L 36.890625 444.980469 C 26.121094 444.980469 17.390625 436.253906 17.390625 425.484375 L 17.390625 36.4375 C 17.390625 25.667969 26.121094 16.9375 36.890625 16.9375 Z M 36.890625 16.9375 " clip-rule="nonzero"/></clipPath><clipPath id="46497a9a44"><path d="M 188 18 L 240 18 L 240 263 L 188 263 Z M 188 18 " clip-rule="nonzero"/></clipPath><clipPath id="217c69771b"><path d="M 16.089844 35.136719 L 16.089844 426.785156 C 16.089844 437.554688 24.820312 446.28125 35.589844 446.28125 L 1376.410156 446.28125 C 1387.179688 446.28125 1395.910156 437.554688 1395.910156 426.785156 L 1395.910156 35.136719 C 1395.910156 24.367188 1387.179688 15.636719 1376.410156 15.636719 L 35.589844 15.636719 C 24.820312 15.636719 16.089844 24.367188 16.089844 35.136719 Z M 16.089844 35.136719 " clip-rule="nonzero"/></clipPath><clipPath id="72ad779d0c"><path d="M 36.890625 16.9375 L 1375.109375 16.9375 C 1385.878906 16.9375 1394.609375 25.667969 1394.609375 36.4375 L 1394.609375 425.484375 C 1394.609375 436.253906 1385.878906 444.980469 1375.109375 444.980469 L 36.890625 444.980469 C 26.121094 444.980469 17.390625 436.253906 17.390625 425.484375 L 17.390625 36.4375 C 17.390625 25.667969 26.121094 16.9375 36.890625 16.9375 Z M 36.890625 16.9375 " clip-rule="nonzero"/></clipPath><clipPath id="c5f1480c93"><path d="M 385 18 L 435 18 L 435 262 L 385 262 Z M 385 18 " clip-rule="nonzero"/></clipPath><clipPath id="b2d4903e66"><path d="M 16.089844 35.136719 L 16.089844 426.785156 C 16.089844 437.554688 24.820312 446.28125 35.589844 446.28125 L 1376.410156 446.28125 C 1387.179688 446.28125 1395.910156 437.554688 1395.910156 426.785156 L 1395.910156 35.136719 C 1395.910156 24.367188 1387.179688 15.636719 1376.410156 15.636719 L 35.589844 15.636719 C 24.820312 15.636719 16.089844 24.367188 16.089844 35.136719 Z M 16.089844 35.136719 " clip-rule="nonzero"/></clipPath><clipPath id="507f3f5645"><path d="M 36.890625 16.9375 L 1375.109375 16.9375 C 1385.878906 16.9375 1394.609375 25.667969 1394.609375 36.4375 L 1394.609375 425.484375 C 1394.609375 436.253906 1385.878906 444.980469 1375.109375 444.980469 L 36.890625 444.980469 C 26.121094 444.980469 17.390625 436.253906 17.390625 425.484375 L 17.390625 36.4375 C 17.390625 25.667969 26.121094 16.9375 36.890625 16.9375 Z M 36.890625 16.9375 " clip-rule="nonzero"/></clipPath><clipPath id="e21fe71e9e"><path d="M 384 18 L 436 18 L 436 263 L 384 263 Z M 384 18 " clip-rule="nonzero"/></clipPath><clipPath id="22ab4f8383"><path d="M 16.089844 35.136719 L 16.089844 426.785156 C 16.089844 437.554688 24.820312 446.28125 35.589844 446.28125 L 1376.410156 446.28125 C 1387.179688 446.28125 1395.910156 437.554688 1395.910156 426.785156 L 1395.910156 35.136719 C 1395.910156 24.367188 1387.179688 15.636719 1376.410156 15.636719 L 35.589844 15.636719 C 24.820312 15.636719 16.089844 24.367188 16.089844 35.136719 Z M 16.089844 35.136719 " clip-rule="nonzero"/></clipPath><clipPath id="f0b6ade20f"><path d="M 36.890625 16.9375 L 1375.109375 16.9375 C 1385.878906 16.9375 1394.609375 25.667969 1394.609375 36.4375 L 1394.609375 425.484375 C 1394.609375 436.253906 1385.878906 444.980469 1375.109375 444.980469 L 36.890625 444.980469 C 26.121094 444.980469 17.390625 436.253906 17.390625 425.484375 L 17.390625 36.4375 C 17.390625 25.667969 26.121094 16.9375 36.890625 16.9375 Z M 36.890625 16.9375 " clip-rule="nonzero"/></clipPath><clipPath id="b0d648d119"><path d="M 482 19 L 533 19 L 533 263 L 482 263 Z M 482 19 " clip-rule="nonzero"/></clipPath><clipPath id="45487fd1d2"><path d="M 16.089844 35.136719 L 16.089844 426.785156 C 16.089844 437.554688 24.820312 446.28125 35.589844 446.28125 L 1376.410156 446.28125 C 1387.179688 446.28125 1395.910156 437.554688 1395.910156 426.785156 L 1395.910156 35.136719 C 1395.910156 24.367188 1387.179688 15.636719 1376.410156 15.636719 L 35.589844 15.636719 C 24.820312 15.636719 16.089844 24.367188 16.089844 35.136719 Z M 16.089844 35.136719 " clip-rule="nonzero"/></clipPath><clipPath id="46501a9a05"><path d="M 36.890625 16.9375 L 1375.109375 16.9375 C 1385.878906 16.9375 1394.609375 25.667969 1394.609375 36.4375 L 1394.609375 425.484375 C 1394.609375 436.253906 1385.878906 444.980469 1375.109375 444.980469 L 36.890625 444.980469 C 26.121094 444.980469 17.390625 436.253906 17.390625 425.484375 L 17.390625 36.4375 C 17.390625 25.667969 26.121094 16.9375 36.890625 16.9375 Z M 36.890625 16.9375 " clip-rule="nonzero"/></clipPath><clipPath id="2b0624e9c5"><path d="M 482 19 L 533 19 L 533 264 L 482 264 Z M 482 19 " clip-rule="nonzero"/></clipPath><clipPath id="b2432c8a90"><path d="M 16.089844 35.136719 L 16.089844 426.785156 C 16.089844 437.554688 24.820312 446.28125 35.589844 446.28125 L 1376.410156 446.28125 C 1387.179688 446.28125 1395.910156 437.554688 1395.910156 426.785156 L 1395.910156 35.136719 C 1395.910156 24.367188 1387.179688 15.636719 1376.410156 15.636719 L 35.589844 15.636719 C 24.820312 15.636719 16.089844 24.367188 16.089844 35.136719 Z M 16.089844 35.136719 " clip-rule="nonzero"/></clipPath><clipPath id="56aaa432d0"><path d="M 36.890625 16.9375 L 1375.109375 16.9375 C 1385.878906 16.9375 1394.609375 25.667969 1394.609375 36.4375 L 1394.609375 425.484375 C 1394.609375 436.253906 1385.878906 444.980469 1375.109375 444.980469 L 36.890625 444.980469 C 26.121094 444.980469 17.390625 436.253906 17.390625 425.484375 L 17.390625 36.4375 C 17.390625 25.667969 26.121094 16.9375 36.890625 16.9375 Z M 36.890625 16.9375 " clip-rule="nonzero"/></clipPath><clipPath id="c2f8c8c47d"><path d="M 582 19 L 632 19 L 632 263 L 582 263 Z M 582 19 " clip-rule="nonzero"/></clipPath><clipPath id="8fe064c04b"><path d="M 16.089844 35.136719 L 16.089844 426.785156 C 16.089844 437.554688 24.820312 446.28125 35.589844 446.28125 L 1376.410156 446.28125 C 1387.179688 446.28125 1395.910156 437.554688 1395.910156 426.785156 L 1395.910156 35.136719 C 1395.910156 24.367188 1387.179688 15.636719 1376.410156 15.636719 L 35.589844 15.636719 C 24.820312 15.636719 16.089844 24.367188 16.089844 35.136719 Z M 16.089844 35.136719 " clip-rule="nonzero"/></clipPath><clipPath id="c1eaabe726"><path d="M 36.890625 16.9375 L 1375.109375 16.9375 C 1385.878906 16.9375 1394.609375 25.667969 1394.609375 36.4375 L 1394.609375 425.484375 C 1394.609375 436.253906 1385.878906 444.980469 1375.109375 444.980469 L 36.890625 444.980469 C 26.121094 444.980469 17.390625 436.253906 17.390625 425.484375 L 17.390625 36.4375 C 17.390625 25.667969 26.121094 16.9375 36.890625 16.9375 Z M 36.890625 16.9375 " clip-rule="nonzero"/></clipPath><clipPath id="c64ae7a38b"><path d="M 581 18 L 633 18 L 633 263 L 581 263 Z M 581 18 " clip-rule="nonzero"/></clipPath><clipPath id="7b4e130036"><path d="M 16.089844 35.136719 L 16.089844 426.785156 C 16.089844 437.554688 24.820312 446.28125 35.589844 446.28125 L 1376.410156 446.28125 C 1387.179688 446.28125 1395.910156 437.554688 1395.910156 426.785156 L 1395.910156 35.136719 C 1395.910156 24.367188 1387.179688 15.636719 1376.410156 15.636719 L 35.589844 15.636719 C 24.820312 15.636719 16.089844 24.367188 16.089844 35.136719 Z M 16.089844 35.136719 " clip-rule="nonzero"/></clipPath><clipPath id="96a6665f8c"><path d="M 36.890625 16.9375 L 1375.109375 16.9375 C 1385.878906 16.9375 1394.609375 25.667969 1394.609375 36.4375 L 1394.609375 425.484375 C 1394.609375 436.253906 1385.878906 444.980469 1375.109375 444.980469 L 36.890625 444.980469 C 26.121094 444.980469 17.390625 436.253906 17.390625 425.484375 L 17.390625 36.4375 C 17.390625 25.667969 26.121094 16.9375 36.890625 16.9375 Z M 36.890625 16.9375 " clip-rule="nonzero"/></clipPath><clipPath id="c66503fb22"><path d="M 17.175781 17 L 706 17 L 706 445 L 17.175781 445 Z M 17.175781 17 " clip-rule="nonzero"/></clipPath><clipPath id="a84c8c5fbb"><path d="M 16.089844 35.136719 L 16.089844 426.785156 C 16.089844 437.554688 24.820312 446.28125 35.589844 446.28125 L 1376.410156 446.28125 C 1387.179688 446.28125 1395.910156 437.554688 1395.910156 426.785156 L 1395.910156 35.136719 C 1395.910156 24.367188 1387.179688 15.636719 1376.410156 15.636719 L 35.589844 15.636719 C 24.820312 15.636719 16.089844 24.367188 16.089844 35.136719 Z M 16.089844 35.136719 " clip-rule="nonzero"/></clipPath><clipPath id="8366b1e9bc"><path d="M 36.890625 16.9375 L 1375.109375 16.9375 C 1385.878906 16.9375 1394.609375 25.667969 1394.609375 36.4375 L 1394.609375 425.484375 C 1394.609375 436.253906 1385.878906 444.980469 1375.109375 444.980469 L 36.890625 444.980469 C 26.121094 444.980469 17.390625 436.253906 17.390625 425.484375 L 17.390625 36.4375 C 17.390625 25.667969 26.121094 16.9375 36.890625 16.9375 Z M 36.890625 16.9375 " clip-rule="nonzero"/></clipPath><clipPath id="68e37b220b"><path d="M 112 250 L 119 250 L 119 445 L 112 445 Z M 112 250 " clip-rule="nonzero"/></clipPath><clipPath id="e22c4ddc26"><path d="M 16.089844 35.136719 L 16.089844 426.785156 C 16.089844 437.554688 24.820312 446.28125 35.589844 446.28125 L 1376.410156 446.28125 C 1387.179688 446.28125 1395.910156 437.554688 1395.910156 426.785156 L 1395.910156 35.136719 C 1395.910156 24.367188 1387.179688 15.636719 1376.410156 15.636719 L 35.589844 15.636719 C 24.820312 15.636719 16.089844 24.367188 16.089844 35.136719 Z M 16.089844 35.136719 " clip-rule="nonzero"/></clipPath><clipPath id="41c6ffdd1f"><path d="M 36.890625 16.9375 L 1375.109375 16.9375 C 1385.878906 16.9375 1394.609375 25.667969 1394.609375 36.4375 L 1394.609375 425.484375 C 1394.609375 436.253906 1385.878906 444.980469 1375.109375 444.980469 L 36.890625 444.980469 C 26.121094 444.980469 17.390625 436.253906 17.390625 425.484375 L 17.390625 36.4375 C 17.390625 25.667969 26.121094 16.9375 36.890625 16.9375 Z M 36.890625 16.9375 " clip-rule="nonzero"/></clipPath><clipPath id="7bc6ae5768"><path d="M 211 249 L 218 249 L 218 445 L 211 445 Z M 211 249 " clip-rule="nonzero"/></clipPath><clipPath id="d46b6d3585"><path d="M 16.089844 35.136719 L 16.089844 426.785156 C 16.089844 437.554688 24.820312 446.28125 35.589844 446.28125 L 1376.410156 446.28125 C 1387.179688 446.28125 1395.910156 437.554688 1395.910156 426.785156 L 1395.910156 35.136719 C 1395.910156 24.367188 1387.179688 15.636719 1376.410156 15.636719 L 35.589844 15.636719 C 24.820312 15.636719 16.089844 24.367188 16.089844 35.136719 Z M 16.089844 35.136719 " clip-rule="nonzero"/></clipPath><clipPath id="5dbed8caf3"><path d="M 36.890625 16.9375 L 1375.109375 16.9375 C 1385.878906 16.9375 1394.609375 25.667969 1394.609375 36.4375 L 1394.609375 425.484375 C 1394.609375 436.253906 1385.878906 444.980469 1375.109375 444.980469 L 36.890625 444.980469 C 26.121094 444.980469 17.390625 436.253906 17.390625 425.484375 L 17.390625 36.4375 C 17.390625 25.667969 26.121094 16.9375 36.890625 16.9375 Z M 36.890625 16.9375 " clip-rule="nonzero"/></clipPath><clipPath id="424e6ea979"><path d="M 407 250 L 413 250 L 413 445 L 407 445 Z M 407 250 " clip-rule="nonzero"/></clipPath><clipPath id="1085cd829c"><path d="M 16.089844 35.136719 L 16.089844 426.785156 C 16.089844 437.554688 24.820312 446.28125 35.589844 446.28125 L 1376.410156 446.28125 C 1387.179688 446.28125 1395.910156 437.554688 1395.910156 426.785156 L 1395.910156 35.136719 C 1395.910156 24.367188 1387.179688 15.636719 1376.410156 15.636719 L 35.589844 15.636719 C 24.820312 15.636719 16.089844 24.367188 16.089844 35.136719 Z M 16.089844 35.136719 " clip-rule="nonzero"/></clipPath><clipPath id="8e2e746dca"><path d="M 36.890625 16.9375 L 1375.109375 16.9375 C 1385.878906 16.9375 1394.609375 25.667969 1394.609375 36.4375 L 1394.609375 425.484375 C 1394.609375 436.253906 1385.878906 444.980469 1375.109375 444.980469 L 36.890625 444.980469 C 26.121094 444.980469 17.390625 436.253906 17.390625 425.484375 L 17.390625 36.4375 C 17.390625 25.667969 26.121094 16.9375 36.890625 16.9375 Z M 36.890625 16.9375 " clip-rule="nonzero"/></clipPath><clipPath id="da60deb5ed"><path d="M 505 250 L 511 250 L 511 445 L 505 445 Z M 505 250 " clip-rule="nonzero"/></clipPath><clipPath id="5c83583cbf"><path d="M 16.089844 35.136719 L 16.089844 426.785156 C 16.089844 437.554688 24.820312 446.28125 35.589844 446.28125 L 1376.410156 446.28125 C 1387.179688 446.28125 1395.910156 437.554688 1395.910156 426.785156 L 1395.910156 35.136719 C 1395.910156 24.367188 1387.179688 15.636719 1376.410156 15.636719 L 35.589844 15.636719 C 24.820312 15.636719 16.089844 24.367188 16.089844 35.136719 Z M 16.089844 35.136719 " clip-rule="nonzero"/></clipPath><clipPath id="73a87765f8"><path d="M 36.890625 16.9375 L 1375.109375 16.9375 C 1385.878906 16.9375 1394.609375 25.667969 1394.609375 36.4375 L 1394.609375 425.484375 C 1394.609375 436.253906 1385.878906 444.980469 1375.109375 444.980469 L 36.890625 444.980469 C 26.121094 444.980469 17.390625 436.253906 17.390625 425.484375 L 17.390625 36.4375 C 17.390625 25.667969 26.121094 16.9375 36.890625 16.9375 Z M 36.890625 16.9375 " clip-rule="nonzero"/></clipPath><clipPath id="b0714de2be"><path d="M 604 249 L 611 249 L 611 445 L 604 445 Z M 604 249 " clip-rule="nonzero"/></clipPath><clipPath id="a741c3c39f"><path d="M 16.089844 35.136719 L 16.089844 426.785156 C 16.089844 437.554688 24.820312 446.28125 35.589844 446.28125 L 1376.410156 446.28125 C 1387.179688 446.28125 1395.910156 437.554688 1395.910156 426.785156 L 1395.910156 35.136719 C 1395.910156 24.367188 1387.179688 15.636719 1376.410156 15.636719 L 35.589844 15.636719 C 24.820312 15.636719 16.089844 24.367188 16.089844 35.136719 Z M 16.089844 35.136719 " clip-rule="nonzero"/></clipPath><clipPath id="29e0b97812"><path d="M 36.890625 16.9375 L 1375.109375 16.9375 C 1385.878906 16.9375 1394.609375 25.667969 1394.609375 36.4375 L 1394.609375 425.484375 C 1394.609375 436.253906 1385.878906 444.980469 1375.109375 444.980469 L 36.890625 444.980469 C 26.121094 444.980469 17.390625 436.253906 17.390625 425.484375 L 17.390625 36.4375 C 17.390625 25.667969 26.121094 16.9375 36.890625 16.9375 Z M 36.890625 16.9375 " clip-rule="nonzero"/></clipPath><clipPath id="3fcd8d62eb"><path d="M 309 16.722656 L 315 16.722656 L 315 445 L 309 445 Z M 309 16.722656 " clip-rule="nonzero"/></clipPath><clipPath id="a47639fc6e"><path d="M 16.089844 35.136719 L 16.089844 426.785156 C 16.089844 437.554688 24.820312 446.28125 35.589844 446.28125 L 1376.410156 446.28125 C 1387.179688 446.28125 1395.910156 437.554688 1395.910156 426.785156 L 1395.910156 35.136719 C 1395.910156 24.367188 1387.179688 15.636719 1376.410156 15.636719 L 35.589844 15.636719 C 24.820312 15.636719 16.089844 24.367188 16.089844 35.136719 Z M 16.089844 35.136719 " clip-rule="nonzero"/></clipPath><clipPath id="120d040465"><path d="M 36.890625 16.9375 L 1375.109375 16.9375 C 1385.878906 16.9375 1394.609375 25.667969 1394.609375 36.4375 L 1394.609375 425.484375 C 1394.609375 436.253906 1385.878906 444.980469 1375.109375 444.980469 L 36.890625 444.980469 C 26.121094 444.980469 17.390625 436.253906 17.390625 425.484375 L 17.390625 36.4375 C 17.390625 25.667969 26.121094 16.9375 36.890625 16.9375 Z M 36.890625 16.9375 " clip-rule="nonzero"/></clipPath><clipPath id="de8cc126e8"><path d="M 98 28 L 140 28 L 140 255 L 98 255 Z M 98 28 " clip-rule="nonzero"/></clipPath><clipPath id="6d1562cd98"><path d="M 16.089844 35.136719 L 16.089844 426.785156 C 16.089844 437.554688 24.820312 446.28125 35.589844 446.28125 L 1376.410156 446.28125 C 1387.179688 446.28125 1395.910156 437.554688 1395.910156 426.785156 L 1395.910156 35.136719 C 1395.910156 24.367188 1387.179688 15.636719 1376.410156 15.636719 L 35.589844 15.636719 C 24.820312 15.636719 16.089844 24.367188 16.089844 35.136719 Z M 16.089844 35.136719 " clip-rule="nonzero"/></clipPath><clipPath id="6c80c53ea1"><path d="M 36.890625 16.9375 L 1375.109375 16.9375 C 1385.878906 16.9375 1394.609375 25.667969 1394.609375 36.4375 L 1394.609375 425.484375 C 1394.609375 436.253906 1385.878906 444.980469 1375.109375 444.980469 L 36.890625 444.980469 C 26.121094 444.980469 17.390625 436.253906 17.390625 425.484375 L 17.390625 36.4375 C 17.390625 25.667969 26.121094 16.9375 36.890625 16.9375 Z M 36.890625 16.9375 " clip-rule="nonzero"/></clipPath><clipPath id="c75b358cdc"><path d="M 92 23 L 145 23 L 145 261 L 92 261 Z M 92 23 " clip-rule="nonzero"/></clipPath><clipPath id="8f21700ca0"><path d="M 16.089844 35.136719 L 16.089844 426.785156 C 16.089844 437.554688 24.820312 446.28125 35.589844 446.28125 L 1376.410156 446.28125 C 1387.179688 446.28125 1395.910156 437.554688 1395.910156 426.785156 L 1395.910156 35.136719 C 1395.910156 24.367188 1387.179688 15.636719 1376.410156 15.636719 L 35.589844 15.636719 C 24.820312 15.636719 16.089844 24.367188 16.089844 35.136719 Z M 16.089844 35.136719 " clip-rule="nonzero"/></clipPath><clipPath id="cc61a35acc"><path d="M 36.890625 16.9375 L 1375.109375 16.9375 C 1385.878906 16.9375 1394.609375 25.667969 1394.609375 36.4375 L 1394.609375 425.484375 C 1394.609375 436.253906 1385.878906 444.980469 1375.109375 444.980469 L 36.890625 444.980469 C 26.121094 444.980469 17.390625 436.253906 17.390625 425.484375 L 17.390625 36.4375 C 17.390625 25.667969 26.121094 16.9375 36.890625 16.9375 Z M 36.890625 16.9375 " clip-rule="nonzero"/></clipPath><clipPath id="bdeaac7988"><path d="M 781 18 L 831 18 L 831 261 L 781 261 Z M 781 18 " clip-rule="nonzero"/></clipPath><clipPath id="8b603c34e8"><path d="M 16.089844 35.136719 L 16.089844 426.785156 C 16.089844 437.554688 24.820312 446.28125 35.589844 446.28125 L 1376.410156 446.28125 C 1387.179688 446.28125 1395.910156 437.554688 1395.910156 426.785156 L 1395.910156 35.136719 C 1395.910156 24.367188 1387.179688 15.636719 1376.410156 15.636719 L 35.589844 15.636719 C 24.820312 15.636719 16.089844 24.367188 16.089844 35.136719 Z M 16.089844 35.136719 " clip-rule="nonzero"/></clipPath><clipPath id="d8a476d966"><path d="M 36.890625 16.9375 L 1375.109375 16.9375 C 1385.878906 16.9375 1394.609375 25.667969 1394.609375 36.4375 L 1394.609375 425.484375 C 1394.609375 436.253906 1385.878906 444.980469 1375.109375 444.980469 L 36.890625 444.980469 C 26.121094 444.980469 17.390625 436.253906 17.390625 425.484375 L 17.390625 36.4375 C 17.390625 25.667969 26.121094 16.9375 36.890625 16.9375 Z M 36.890625 16.9375 " clip-rule="nonzero"/></clipPath><clipPath id="88913e0c9f"><path d="M 780 17 L 832 17 L 832 262 L 780 262 Z M 780 17 " clip-rule="nonzero"/></clipPath><clipPath id="c6618d3103"><path d="M 16.089844 35.136719 L 16.089844 426.785156 C 16.089844 437.554688 24.820312 446.28125 35.589844 446.28125 L 1376.410156 446.28125 C 1387.179688 446.28125 1395.910156 437.554688 1395.910156 426.785156 L 1395.910156 35.136719 C 1395.910156 24.367188 1387.179688 15.636719 1376.410156 15.636719 L 35.589844 15.636719 C 24.820312 15.636719 16.089844 24.367188 16.089844 35.136719 Z M 16.089844 35.136719 " clip-rule="nonzero"/></clipPath><clipPath id="457f523a2a"><path d="M 36.890625 16.9375 L 1375.109375 16.9375 C 1385.878906 16.9375 1394.609375 25.667969 1394.609375 36.4375 L 1394.609375 425.484375 C 1394.609375 436.253906 1385.878906 444.980469 1375.109375 444.980469 L 36.890625 444.980469 C 26.121094 444.980469 17.390625 436.253906 17.390625 425.484375 L 17.390625 36.4375 C 17.390625 25.667969 26.121094 16.9375 36.890625 16.9375 Z M 36.890625 16.9375 " clip-rule="nonzero"/></clipPath><clipPath id="f319a926cc"><path d="M 879 17 L 929 17 L 929 261 L 879 261 Z M 879 17 " clip-rule="nonzero"/></clipPath><clipPath id="5672a6c1eb"><path d="M 16.089844 35.136719 L 16.089844 426.785156 C 16.089844 437.554688 24.820312 446.28125 35.589844 446.28125 L 1376.410156 446.28125 C 1387.179688 446.28125 1395.910156 437.554688 1395.910156 426.785156 L 1395.910156 35.136719 C 1395.910156 24.367188 1387.179688 15.636719 1376.410156 15.636719 L 35.589844 15.636719 C 24.820312 15.636719 16.089844 24.367188 16.089844 35.136719 Z M 16.089844 35.136719 " clip-rule="nonzero"/></clipPath><clipPath id="0ef38bc975"><path d="M 36.890625 16.9375 L 1375.109375 16.9375 C 1385.878906 16.9375 1394.609375 25.667969 1394.609375 36.4375 L 1394.609375 425.484375 C 1394.609375 436.253906 1385.878906 444.980469 1375.109375 444.980469 L 36.890625 444.980469 C 26.121094 444.980469 17.390625 436.253906 17.390625 425.484375 L 17.390625 36.4375 C 17.390625 25.667969 26.121094 16.9375 36.890625 16.9375 Z M 36.890625 16.9375 " clip-rule="nonzero"/></clipPath><clipPath id="528aabbf36"><path d="M 878 17 L 930 17 L 930 262 L 878 262 Z M 878 17 " clip-rule="nonzero"/></clipPath><clipPath id="1955212edc"><path d="M 16.089844 35.136719 L 16.089844 426.785156 C 16.089844 437.554688 24.820312 446.28125 35.589844 446.28125 L 1376.410156 446.28125 C 1387.179688 446.28125 1395.910156 437.554688 1395.910156 426.785156 L 1395.910156 35.136719 C 1395.910156 24.367188 1387.179688 15.636719 1376.410156 15.636719 L 35.589844 15.636719 C 24.820312 15.636719 16.089844 24.367188 16.089844 35.136719 Z M 16.089844 35.136719 " clip-rule="nonzero"/></clipPath><clipPath id="c48d0db5ec"><path d="M 36.890625 16.9375 L 1375.109375 16.9375 C 1385.878906 16.9375 1394.609375 25.667969 1394.609375 36.4375 L 1394.609375 425.484375 C 1394.609375 436.253906 1385.878906 444.980469 1375.109375 444.980469 L 36.890625 444.980469 C 26.121094 444.980469 17.390625 436.253906 17.390625 425.484375 L 17.390625 36.4375 C 17.390625 25.667969 26.121094 16.9375 36.890625 16.9375 Z M 36.890625 16.9375 " clip-rule="nonzero"/></clipPath><clipPath id="0f8bf03765"><path d="M 1075 17 L 1125 17 L 1125 261 L 1075 261 Z M 1075 17 " clip-rule="nonzero"/></clipPath><clipPath id="853e7da9d2"><path d="M 16.089844 35.136719 L 16.089844 426.785156 C 16.089844 437.554688 24.820312 446.28125 35.589844 446.28125 L 1376.410156 446.28125 C 1387.179688 446.28125 1395.910156 437.554688 1395.910156 426.785156 L 1395.910156 35.136719 C 1395.910156 24.367188 1387.179688 15.636719 1376.410156 15.636719 L 35.589844 15.636719 C 24.820312 15.636719 16.089844 24.367188 16.089844 35.136719 Z M 16.089844 35.136719 " clip-rule="nonzero"/></clipPath><clipPath id="0afc319be3"><path d="M 36.890625 16.9375 L 1375.109375 16.9375 C 1385.878906 16.9375 1394.609375 25.667969 1394.609375 36.4375 L 1394.609375 425.484375 C 1394.609375 436.253906 1385.878906 444.980469 1375.109375 444.980469 L 36.890625 444.980469 C 26.121094 444.980469 17.390625 436.253906 17.390625 425.484375 L 17.390625 36.4375 C 17.390625 25.667969 26.121094 16.9375 36.890625 16.9375 Z M 36.890625 16.9375 " clip-rule="nonzero"/></clipPath><clipPath id="20c0001ac3"><path d="M 1074 16.722656 L 1126 16.722656 L 1126 261 L 1074 261 Z M 1074 16.722656 " clip-rule="nonzero"/></clipPath><clipPath id="27face025f"><path d="M 16.089844 35.136719 L 16.089844 426.785156 C 16.089844 437.554688 24.820312 446.28125 35.589844 446.28125 L 1376.410156 446.28125 C 1387.179688 446.28125 1395.910156 437.554688 1395.910156 426.785156 L 1395.910156 35.136719 C 1395.910156 24.367188 1387.179688 15.636719 1376.410156 15.636719 L 35.589844 15.636719 C 24.820312 15.636719 16.089844 24.367188 16.089844 35.136719 Z M 16.089844 35.136719 " clip-rule="nonzero"/></clipPath><clipPath id="99690b3ab8"><path d="M 36.890625 16.9375 L 1375.109375 16.9375 C 1385.878906 16.9375 1394.609375 25.667969 1394.609375 36.4375 L 1394.609375 425.484375 C 1394.609375 436.253906 1385.878906 444.980469 1375.109375 444.980469 L 36.890625 444.980469 C 26.121094 444.980469 17.390625 436.253906 17.390625 425.484375 L 17.390625 36.4375 C 17.390625 25.667969 26.121094 16.9375 36.890625 16.9375 Z M 36.890625 16.9375 " clip-rule="nonzero"/></clipPath><clipPath id="c78577adc0"><path d="M 1172 18 L 1223 18 L 1223 262 L 1172 262 Z M 1172 18 " clip-rule="nonzero"/></clipPath><clipPath id="387b7c3725"><path d="M 16.089844 35.136719 L 16.089844 426.785156 C 16.089844 437.554688 24.820312 446.28125 35.589844 446.28125 L 1376.410156 446.28125 C 1387.179688 446.28125 1395.910156 437.554688 1395.910156 426.785156 L 1395.910156 35.136719 C 1395.910156 24.367188 1387.179688 15.636719 1376.410156 15.636719 L 35.589844 15.636719 C 24.820312 15.636719 16.089844 24.367188 16.089844 35.136719 Z M 16.089844 35.136719 " clip-rule="nonzero"/></clipPath><clipPath id="e148514bd4"><path d="M 36.890625 16.9375 L 1375.109375 16.9375 C 1385.878906 16.9375 1394.609375 25.667969 1394.609375 36.4375 L 1394.609375 425.484375 C 1394.609375 436.253906 1385.878906 444.980469 1375.109375 444.980469 L 36.890625 444.980469 C 26.121094 444.980469 17.390625 436.253906 17.390625 425.484375 L 17.390625 36.4375 C 17.390625 25.667969 26.121094 16.9375 36.890625 16.9375 Z M 36.890625 16.9375 " clip-rule="nonzero"/></clipPath><clipPath id="9fe41eaf90"><path d="M 1172 17 L 1223 17 L 1223 262 L 1172 262 Z M 1172 17 " clip-rule="nonzero"/></clipPath><clipPath id="7852bd3b5e"><path d="M 16.089844 35.136719 L 16.089844 426.785156 C 16.089844 437.554688 24.820312 446.28125 35.589844 446.28125 L 1376.410156 446.28125 C 1387.179688 446.28125 1395.910156 437.554688 1395.910156 426.785156 L 1395.910156 35.136719 C 1395.910156 24.367188 1387.179688 15.636719 1376.410156 15.636719 L 35.589844 15.636719 C 24.820312 15.636719 16.089844 24.367188 16.089844 35.136719 Z M 16.089844 35.136719 " clip-rule="nonzero"/></clipPath><clipPath id="c42b9dddc0"><path d="M 36.890625 16.9375 L 1375.109375 16.9375 C 1385.878906 16.9375 1394.609375 25.667969 1394.609375 36.4375 L 1394.609375 425.484375 C 1394.609375 436.253906 1385.878906 444.980469 1375.109375 444.980469 L 36.890625 444.980469 C 26.121094 444.980469 17.390625 436.253906 17.390625 425.484375 L 17.390625 36.4375 C 17.390625 25.667969 26.121094 16.9375 36.890625 16.9375 Z M 36.890625 16.9375 " clip-rule="nonzero"/></clipPath><clipPath id="ac31183794"><path d="M 1271 17 L 1322 17 L 1322 261 L 1271 261 Z M 1271 17 " clip-rule="nonzero"/></clipPath><clipPath id="4015a3f5b0"><path d="M 16.089844 35.136719 L 16.089844 426.785156 C 16.089844 437.554688 24.820312 446.28125 35.589844 446.28125 L 1376.410156 446.28125 C 1387.179688 446.28125 1395.910156 437.554688 1395.910156 426.785156 L 1395.910156 35.136719 C 1395.910156 24.367188 1387.179688 15.636719 1376.410156 15.636719 L 35.589844 15.636719 C 24.820312 15.636719 16.089844 24.367188 16.089844 35.136719 Z M 16.089844 35.136719 " clip-rule="nonzero"/></clipPath><clipPath id="534b6b8d25"><path d="M 36.890625 16.9375 L 1375.109375 16.9375 C 1385.878906 16.9375 1394.609375 25.667969 1394.609375 36.4375 L 1394.609375 425.484375 C 1394.609375 436.253906 1385.878906 444.980469 1375.109375 444.980469 L 36.890625 444.980469 C 26.121094 444.980469 17.390625 436.253906 17.390625 425.484375 L 17.390625 36.4375 C 17.390625 25.667969 26.121094 16.9375 36.890625 16.9375 Z M 36.890625 16.9375 " clip-rule="nonzero"/></clipPath><clipPath id="76023a406d"><path d="M 1271 17 L 1322 17 L 1322 262 L 1271 262 Z M 1271 17 " clip-rule="nonzero"/></clipPath><clipPath id="76f92f5190"><path d="M 16.089844 35.136719 L 16.089844 426.785156 C 16.089844 437.554688 24.820312 446.28125 35.589844 446.28125 L 1376.410156 446.28125 C 1387.179688 446.28125 1395.910156 437.554688 1395.910156 426.785156 L 1395.910156 35.136719 C 1395.910156 24.367188 1387.179688 15.636719 1376.410156 15.636719 L 35.589844 15.636719 C 24.820312 15.636719 16.089844 24.367188 16.089844 35.136719 Z M 16.089844 35.136719 " clip-rule="nonzero"/></clipPath><clipPath id="d0aa18927c"><path d="M 36.890625 16.9375 L 1375.109375 16.9375 C 1385.878906 16.9375 1394.609375 25.667969 1394.609375 36.4375 L 1394.609375 425.484375 C 1394.609375 436.253906 1385.878906 444.980469 1375.109375 444.980469 L 36.890625 444.980469 C 26.121094 444.980469 17.390625 436.253906 17.390625 425.484375 L 17.390625 36.4375 C 17.390625 25.667969 26.121094 16.9375 36.890625 16.9375 Z M 36.890625 16.9375 " clip-rule="nonzero"/></clipPath><clipPath id="686ff7fb25"><path d="M 706 16.722656 L 1394.953125 16.722656 L 1394.953125 445 L 706 445 Z M 706 16.722656 " clip-rule="nonzero"/></clipPath><clipPath id="0a47bcd561"><path d="M 16.089844 35.136719 L 16.089844 426.785156 C 16.089844 437.554688 24.820312 446.28125 35.589844 446.28125 L 1376.410156 446.28125 C 1387.179688 446.28125 1395.910156 437.554688 1395.910156 426.785156 L 1395.910156 35.136719 C 1395.910156 24.367188 1387.179688 15.636719 1376.410156 15.636719 L 35.589844 15.636719 C 24.820312 15.636719 16.089844 24.367188 16.089844 35.136719 Z M 16.089844 35.136719 " clip-rule="nonzero"/></clipPath><clipPath id="3bc6c1b6e0"><path d="M 36.890625 16.9375 L 1375.109375 16.9375 C 1385.878906 16.9375 1394.609375 25.667969 1394.609375 36.4375 L 1394.609375 425.484375 C 1394.609375 436.253906 1385.878906 444.980469 1375.109375 444.980469 L 36.890625 444.980469 C 26.121094 444.980469 17.390625 436.253906 17.390625 425.484375 L 17.390625 36.4375 C 17.390625 25.667969 26.121094 16.9375 36.890625 16.9375 Z M 36.890625 16.9375 " clip-rule="nonzero"/></clipPath><clipPath id="d65b240780"><path d="M 802 248 L 808 248 L 808 445 L 802 445 Z M 802 248 " clip-rule="nonzero"/></clipPath><clipPath id="41a1c17efd"><path d="M 16.089844 35.136719 L 16.089844 426.785156 C 16.089844 437.554688 24.820312 446.28125 35.589844 446.28125 L 1376.410156 446.28125 C 1387.179688 446.28125 1395.910156 437.554688 1395.910156 426.785156 L 1395.910156 35.136719 C 1395.910156 24.367188 1387.179688 15.636719 1376.410156 15.636719 L 35.589844 15.636719 C 24.820312 15.636719 16.089844 24.367188 16.089844 35.136719 Z M 16.089844 35.136719 " clip-rule="nonzero"/></clipPath><clipPath id="e3b41dc6bd"><path d="M 36.890625 16.9375 L 1375.109375 16.9375 C 1385.878906 16.9375 1394.609375 25.667969 1394.609375 36.4375 L 1394.609375 425.484375 C 1394.609375 436.253906 1385.878906 444.980469 1375.109375 444.980469 L 36.890625 444.980469 C 26.121094 444.980469 17.390625 436.253906 17.390625 425.484375 L 17.390625 36.4375 C 17.390625 25.667969 26.121094 16.9375 36.890625 16.9375 Z M 36.890625 16.9375 " clip-rule="nonzero"/></clipPath><clipPath id="bcb9ce2c11"><path d="M 901 247 L 907 247 L 907 445 L 901 445 Z M 901 247 " clip-rule="nonzero"/></clipPath><clipPath id="9e2eb3d5f1"><path d="M 16.089844 35.136719 L 16.089844 426.785156 C 16.089844 437.554688 24.820312 446.28125 35.589844 446.28125 L 1376.410156 446.28125 C 1387.179688 446.28125 1395.910156 437.554688 1395.910156 426.785156 L 1395.910156 35.136719 C 1395.910156 24.367188 1387.179688 15.636719 1376.410156 15.636719 L 35.589844 15.636719 C 24.820312 15.636719 16.089844 24.367188 16.089844 35.136719 Z M 16.089844 35.136719 " clip-rule="nonzero"/></clipPath><clipPath id="24d6e616ae"><path d="M 36.890625 16.9375 L 1375.109375 16.9375 C 1385.878906 16.9375 1394.609375 25.667969 1394.609375 36.4375 L 1394.609375 425.484375 C 1394.609375 436.253906 1385.878906 444.980469 1375.109375 444.980469 L 36.890625 444.980469 C 26.121094 444.980469 17.390625 436.253906 17.390625 425.484375 L 17.390625 36.4375 C 17.390625 25.667969 26.121094 16.9375 36.890625 16.9375 Z M 36.890625 16.9375 " clip-rule="nonzero"/></clipPath><clipPath id="3ef28f2db9"><path d="M 1097 248 L 1103 248 L 1103 445 L 1097 445 Z M 1097 248 " clip-rule="nonzero"/></clipPath><clipPath id="ee46c91794"><path d="M 16.089844 35.136719 L 16.089844 426.785156 C 16.089844 437.554688 24.820312 446.28125 35.589844 446.28125 L 1376.410156 446.28125 C 1387.179688 446.28125 1395.910156 437.554688 1395.910156 426.785156 L 1395.910156 35.136719 C 1395.910156 24.367188 1387.179688 15.636719 1376.410156 15.636719 L 35.589844 15.636719 C 24.820312 15.636719 16.089844 24.367188 16.089844 35.136719 Z M 16.089844 35.136719 " clip-rule="nonzero"/></clipPath><clipPath id="6629defc06"><path d="M 36.890625 16.9375 L 1375.109375 16.9375 C 1385.878906 16.9375 1394.609375 25.667969 1394.609375 36.4375 L 1394.609375 425.484375 C 1394.609375 436.253906 1385.878906 444.980469 1375.109375 444.980469 L 36.890625 444.980469 C 26.121094 444.980469 17.390625 436.253906 17.390625 425.484375 L 17.390625 36.4375 C 17.390625 25.667969 26.121094 16.9375 36.890625 16.9375 Z M 36.890625 16.9375 " clip-rule="nonzero"/></clipPath><clipPath id="1c198aee01"><path d="M 1194 248 L 1201 248 L 1201 445 L 1194 445 Z M 1194 248 " clip-rule="nonzero"/></clipPath><clipPath id="91ebfef4b6"><path d="M 16.089844 35.136719 L 16.089844 426.785156 C 16.089844 437.554688 24.820312 446.28125 35.589844 446.28125 L 1376.410156 446.28125 C 1387.179688 446.28125 1395.910156 437.554688 1395.910156 426.785156 L 1395.910156 35.136719 C 1395.910156 24.367188 1387.179688 15.636719 1376.410156 15.636719 L 35.589844 15.636719 C 24.820312 15.636719 16.089844 24.367188 16.089844 35.136719 Z M 16.089844 35.136719 " clip-rule="nonzero"/></clipPath><clipPath id="fc852f95fd"><path d="M 36.890625 16.9375 L 1375.109375 16.9375 C 1385.878906 16.9375 1394.609375 25.667969 1394.609375 36.4375 L 1394.609375 425.484375 C 1394.609375 436.253906 1385.878906 444.980469 1375.109375 444.980469 L 36.890625 444.980469 C 26.121094 444.980469 17.390625 436.253906 17.390625 425.484375 L 17.390625 36.4375 C 17.390625 25.667969 26.121094 16.9375 36.890625 16.9375 Z M 36.890625 16.9375 " clip-rule="nonzero"/></clipPath><clipPath id="55a69fd007"><path d="M 1294 248 L 1300 248 L 1300 445 L 1294 445 Z M 1294 248 " clip-rule="nonzero"/></clipPath><clipPath id="a4cd6dd607"><path d="M 16.089844 35.136719 L 16.089844 426.785156 C 16.089844 437.554688 24.820312 446.28125 35.589844 446.28125 L 1376.410156 446.28125 C 1387.179688 446.28125 1395.910156 437.554688 1395.910156 426.785156 L 1395.910156 35.136719 C 1395.910156 24.367188 1387.179688 15.636719 1376.410156 15.636719 L 35.589844 15.636719 C 24.820312 15.636719 16.089844 24.367188 16.089844 35.136719 Z M 16.089844 35.136719 " clip-rule="nonzero"/></clipPath><clipPath id="86c5ec075b"><path d="M 36.890625 16.9375 L 1375.109375 16.9375 C 1385.878906 16.9375 1394.609375 25.667969 1394.609375 36.4375 L 1394.609375 425.484375 C 1394.609375 436.253906 1385.878906 444.980469 1375.109375 444.980469 L 36.890625 444.980469 C 26.121094 444.980469 17.390625 436.253906 17.390625 425.484375 L 17.390625 36.4375 C 17.390625 25.667969 26.121094 16.9375 36.890625 16.9375 Z M 36.890625 16.9375 " clip-rule="nonzero"/></clipPath><clipPath id="243c766642"><path d="M 999 16.722656 L 1005 16.722656 L 1005 445 L 999 445 Z M 999 16.722656 " clip-rule="nonzero"/></clipPath><clipPath id="81c26ebddf"><path d="M 16.089844 35.136719 L 16.089844 426.785156 C 16.089844 437.554688 24.820312 446.28125 35.589844 446.28125 L 1376.410156 446.28125 C 1387.179688 446.28125 1395.910156 437.554688 1395.910156 426.785156 L 1395.910156 35.136719 C 1395.910156 24.367188 1387.179688 15.636719 1376.410156 15.636719 L 35.589844 15.636719 C 24.820312 15.636719 16.089844 24.367188 16.089844 35.136719 Z M 16.089844 35.136719 " clip-rule="nonzero"/></clipPath><clipPath id="18237f5ca5"><path d="M 36.890625 16.9375 L 1375.109375 16.9375 C 1385.878906 16.9375 1394.609375 25.667969 1394.609375 36.4375 L 1394.609375 425.484375 C 1394.609375 436.253906 1385.878906 444.980469 1375.109375 444.980469 L 36.890625 444.980469 C 26.121094 444.980469 17.390625 436.253906 17.390625 425.484375 L 17.390625 36.4375 C 17.390625 25.667969 26.121094 16.9375 36.890625 16.9375 Z M 36.890625 16.9375 " clip-rule="nonzero"/></clipPath><clipPath id="27a0477068"><path d="M 195 25 L 237 25 L 237 253 L 195 253 Z M 195 25 " clip-rule="nonzero"/></clipPath><clipPath id="da8f67004d"><path d="M 16.089844 35.136719 L 16.089844 426.785156 C 16.089844 437.554688 24.820312 446.28125 35.589844 446.28125 L 1376.410156 446.28125 C 1387.179688 446.28125 1395.910156 437.554688 1395.910156 426.785156 L 1395.910156 35.136719 C 1395.910156 24.367188 1387.179688 15.636719 1376.410156 15.636719 L 35.589844 15.636719 C 24.820312 15.636719 16.089844 24.367188 16.089844 35.136719 Z M 16.089844 35.136719 " clip-rule="nonzero"/></clipPath><clipPath id="d9cd351250"><path d="M 36.890625 16.9375 L 1375.109375 16.9375 C 1385.878906 16.9375 1394.609375 25.667969 1394.609375 36.4375 L 1394.609375 425.484375 C 1394.609375 436.253906 1385.878906 444.980469 1375.109375 444.980469 L 36.890625 444.980469 C 26.121094 444.980469 17.390625 436.253906 17.390625 425.484375 L 17.390625 36.4375 C 17.390625 25.667969 26.121094 16.9375 36.890625 16.9375 Z M 36.890625 16.9375 " clip-rule="nonzero"/></clipPath><clipPath id="f2a0c20f8e"><path d="M 189 20 L 242 20 L 242 258 L 189 258 Z M 189 20 " clip-rule="nonzero"/></clipPath><clipPath id="1b1b12309d"><path d="M 16.089844 35.136719 L 16.089844 426.785156 C 16.089844 437.554688 24.820312 446.28125 35.589844 446.28125 L 1376.410156 446.28125 C 1387.179688 446.28125 1395.910156 437.554688 1395.910156 426.785156 L 1395.910156 35.136719 C 1395.910156 24.367188 1387.179688 15.636719 1376.410156 15.636719 L 35.589844 15.636719 C 24.820312 15.636719 16.089844 24.367188 16.089844 35.136719 Z M 16.089844 35.136719 " clip-rule="nonzero"/></clipPath><clipPath id="4c055faeb4"><path d="M 36.890625 16.9375 L 1375.109375 16.9375 C 1385.878906 16.9375 1394.609375 25.667969 1394.609375 36.4375 L 1394.609375 425.484375 C 1394.609375 436.253906 1385.878906 444.980469 1375.109375 444.980469 L 36.890625 444.980469 C 26.121094 444.980469 17.390625 436.253906 17.390625 425.484375 L 17.390625 36.4375 C 17.390625 25.667969 26.121094 16.9375 36.890625 16.9375 Z M 36.890625 16.9375 " clip-rule="nonzero"/></clipPath><clipPath id="9e4201566e"><path d="M 391 25 L 433 25 L 433 253 L 391 253 Z M 391 25 " clip-rule="nonzero"/></clipPath><clipPath id="0c3b52642c"><path d="M 16.089844 35.136719 L 16.089844 426.785156 C 16.089844 437.554688 24.820312 446.28125 35.589844 446.28125 L 1376.410156 446.28125 C 1387.179688 446.28125 1395.910156 437.554688 1395.910156 426.785156 L 1395.910156 35.136719 C 1395.910156 24.367188 1387.179688 15.636719 1376.410156 15.636719 L 35.589844 15.636719 C 24.820312 15.636719 16.089844 24.367188 16.089844 35.136719 Z M 16.089844 35.136719 " clip-rule="nonzero"/></clipPath><clipPath id="96ba9a5321"><path d="M 36.890625 16.9375 L 1375.109375 16.9375 C 1385.878906 16.9375 1394.609375 25.667969 1394.609375 36.4375 L 1394.609375 425.484375 C 1394.609375 436.253906 1385.878906 444.980469 1375.109375 444.980469 L 36.890625 444.980469 C 26.121094 444.980469 17.390625 436.253906 17.390625 425.484375 L 17.390625 36.4375 C 17.390625 25.667969 26.121094 16.9375 36.890625 16.9375 Z M 36.890625 16.9375 " clip-rule="nonzero"/></clipPath><clipPath id="a8338f46e3"><path d="M 386 20 L 439 20 L 439 258 L 386 258 Z M 386 20 " clip-rule="nonzero"/></clipPath><clipPath id="f260782da2"><path d="M 16.089844 35.136719 L 16.089844 426.785156 C 16.089844 437.554688 24.820312 446.28125 35.589844 446.28125 L 1376.410156 446.28125 C 1387.179688 446.28125 1395.910156 437.554688 1395.910156 426.785156 L 1395.910156 35.136719 C 1395.910156 24.367188 1387.179688 15.636719 1376.410156 15.636719 L 35.589844 15.636719 C 24.820312 15.636719 16.089844 24.367188 16.089844 35.136719 Z M 16.089844 35.136719 " clip-rule="nonzero"/></clipPath><clipPath id="c427b81bd2"><path d="M 36.890625 16.9375 L 1375.109375 16.9375 C 1385.878906 16.9375 1394.609375 25.667969 1394.609375 36.4375 L 1394.609375 425.484375 C 1394.609375 436.253906 1385.878906 444.980469 1375.109375 444.980469 L 36.890625 444.980469 C 26.121094 444.980469 17.390625 436.253906 17.390625 425.484375 L 17.390625 36.4375 C 17.390625 25.667969 26.121094 16.9375 36.890625 16.9375 Z M 36.890625 16.9375 " clip-rule="nonzero"/></clipPath><clipPath id="a42353f529"><path d="M 487 27 L 529 27 L 529 255 L 487 255 Z M 487 27 " clip-rule="nonzero"/></clipPath><clipPath id="30f1253a11"><path d="M 16.089844 35.136719 L 16.089844 426.785156 C 16.089844 437.554688 24.820312 446.28125 35.589844 446.28125 L 1376.410156 446.28125 C 1387.179688 446.28125 1395.910156 437.554688 1395.910156 426.785156 L 1395.910156 35.136719 C 1395.910156 24.367188 1387.179688 15.636719 1376.410156 15.636719 L 35.589844 15.636719 C 24.820312 15.636719 16.089844 24.367188 16.089844 35.136719 Z M 16.089844 35.136719 " clip-rule="nonzero"/></clipPath><clipPath id="2106bbc485"><path d="M 36.890625 16.9375 L 1375.109375 16.9375 C 1385.878906 16.9375 1394.609375 25.667969 1394.609375 36.4375 L 1394.609375 425.484375 C 1394.609375 436.253906 1385.878906 444.980469 1375.109375 444.980469 L 36.890625 444.980469 C 26.121094 444.980469 17.390625 436.253906 17.390625 425.484375 L 17.390625 36.4375 C 17.390625 25.667969 26.121094 16.9375 36.890625 16.9375 Z M 36.890625 16.9375 " clip-rule="nonzero"/></clipPath><clipPath id="980cca2d30"><path d="M 482 22 L 535 22 L 535 260 L 482 260 Z M 482 22 " clip-rule="nonzero"/></clipPath><clipPath id="a0ab31e16e"><path d="M 16.089844 35.136719 L 16.089844 426.785156 C 16.089844 437.554688 24.820312 446.28125 35.589844 446.28125 L 1376.410156 446.28125 C 1387.179688 446.28125 1395.910156 437.554688 1395.910156 426.785156 L 1395.910156 35.136719 C 1395.910156 24.367188 1387.179688 15.636719 1376.410156 15.636719 L 35.589844 15.636719 C 24.820312 15.636719 16.089844 24.367188 16.089844 35.136719 Z M 16.089844 35.136719 " clip-rule="nonzero"/></clipPath><clipPath id="d9be4c58fc"><path d="M 36.890625 16.9375 L 1375.109375 16.9375 C 1385.878906 16.9375 1394.609375 25.667969 1394.609375 36.4375 L 1394.609375 425.484375 C 1394.609375 436.253906 1385.878906 444.980469 1375.109375 444.980469 L 36.890625 444.980469 C 26.121094 444.980469 17.390625 436.253906 17.390625 425.484375 L 17.390625 36.4375 C 17.390625 25.667969 26.121094 16.9375 36.890625 16.9375 Z M 36.890625 16.9375 " clip-rule="nonzero"/></clipPath><clipPath id="aafeae314f"><path d="M 587 27 L 629 27 L 629 255 L 587 255 Z M 587 27 " clip-rule="nonzero"/></clipPath><clipPath id="79827ca2e9"><path d="M 16.089844 35.136719 L 16.089844 426.785156 C 16.089844 437.554688 24.820312 446.28125 35.589844 446.28125 L 1376.410156 446.28125 C 1387.179688 446.28125 1395.910156 437.554688 1395.910156 426.785156 L 1395.910156 35.136719 C 1395.910156 24.367188 1387.179688 15.636719 1376.410156 15.636719 L 35.589844 15.636719 C 24.820312 15.636719 16.089844 24.367188 16.089844 35.136719 Z M 16.089844 35.136719 " clip-rule="nonzero"/></clipPath><clipPath id="13ede47d5f"><path d="M 36.890625 16.9375 L 1375.109375 16.9375 C 1385.878906 16.9375 1394.609375 25.667969 1394.609375 36.4375 L 1394.609375 425.484375 C 1394.609375 436.253906 1385.878906 444.980469 1375.109375 444.980469 L 36.890625 444.980469 C 26.121094 444.980469 17.390625 436.253906 17.390625 425.484375 L 17.390625 36.4375 C 17.390625 25.667969 26.121094 16.9375 36.890625 16.9375 Z M 36.890625 16.9375 " clip-rule="nonzero"/></clipPath><clipPath id="9ccc89eaf7"><path d="M 582 22 L 635 22 L 635 260 L 582 260 Z M 582 22 " clip-rule="nonzero"/></clipPath><clipPath id="1f44cfa455"><path d="M 16.089844 35.136719 L 16.089844 426.785156 C 16.089844 437.554688 24.820312 446.28125 35.589844 446.28125 L 1376.410156 446.28125 C 1387.179688 446.28125 1395.910156 437.554688 1395.910156 426.785156 L 1395.910156 35.136719 C 1395.910156 24.367188 1387.179688 15.636719 1376.410156 15.636719 L 35.589844 15.636719 C 24.820312 15.636719 16.089844 24.367188 16.089844 35.136719 Z M 16.089844 35.136719 " clip-rule="nonzero"/></clipPath><clipPath id="84f0aecaf9"><path d="M 36.890625 16.9375 L 1375.109375 16.9375 C 1385.878906 16.9375 1394.609375 25.667969 1394.609375 36.4375 L 1394.609375 425.484375 C 1394.609375 436.253906 1385.878906 444.980469 1375.109375 444.980469 L 36.890625 444.980469 C 26.121094 444.980469 17.390625 436.253906 17.390625 425.484375 L 17.390625 36.4375 C 17.390625 25.667969 26.121094 16.9375 36.890625 16.9375 Z M 36.890625 16.9375 " clip-rule="nonzero"/></clipPath><clipPath id="4147b139db"><path d="M 785 24 L 827 24 L 827 251 L 785 251 Z M 785 24 " clip-rule="nonzero"/></clipPath><clipPath id="5c6eadb0a8"><path d="M 16.089844 35.136719 L 16.089844 426.785156 C 16.089844 437.554688 24.820312 446.28125 35.589844 446.28125 L 1376.410156 446.28125 C 1387.179688 446.28125 1395.910156 437.554688 1395.910156 426.785156 L 1395.910156 35.136719 C 1395.910156 24.367188 1387.179688 15.636719 1376.410156 15.636719 L 35.589844 15.636719 C 24.820312 15.636719 16.089844 24.367188 16.089844 35.136719 Z M 16.089844 35.136719 " clip-rule="nonzero"/></clipPath><clipPath id="6acad31c57"><path d="M 36.890625 16.9375 L 1375.109375 16.9375 C 1385.878906 16.9375 1394.609375 25.667969 1394.609375 36.4375 L 1394.609375 425.484375 C 1394.609375 436.253906 1385.878906 444.980469 1375.109375 444.980469 L 36.890625 444.980469 C 26.121094 444.980469 17.390625 436.253906 17.390625 425.484375 L 17.390625 36.4375 C 17.390625 25.667969 26.121094 16.9375 36.890625 16.9375 Z M 36.890625 16.9375 " clip-rule="nonzero"/></clipPath><clipPath id="af6bbb29e7"><path d="M 780 18 L 833 18 L 833 256 L 780 256 Z M 780 18 " clip-rule="nonzero"/></clipPath><clipPath id="152cfd08bd"><path d="M 16.089844 35.136719 L 16.089844 426.785156 C 16.089844 437.554688 24.820312 446.28125 35.589844 446.28125 L 1376.410156 446.28125 C 1387.179688 446.28125 1395.910156 437.554688 1395.910156 426.785156 L 1395.910156 35.136719 C 1395.910156 24.367188 1387.179688 15.636719 1376.410156 15.636719 L 35.589844 15.636719 C 24.820312 15.636719 16.089844 24.367188 16.089844 35.136719 Z M 16.089844 35.136719 " clip-rule="nonzero"/></clipPath><clipPath id="c982f9536e"><path d="M 36.890625 16.9375 L 1375.109375 16.9375 C 1385.878906 16.9375 1394.609375 25.667969 1394.609375 36.4375 L 1394.609375 425.484375 C 1394.609375 436.253906 1385.878906 444.980469 1375.109375 444.980469 L 36.890625 444.980469 C 26.121094 444.980469 17.390625 436.253906 17.390625 425.484375 L 17.390625 36.4375 C 17.390625 25.667969 26.121094 16.9375 36.890625 16.9375 Z M 36.890625 16.9375 " clip-rule="nonzero"/></clipPath><clipPath id="ae121f1728"><path d="M 885 24 L 927 24 L 927 251 L 885 251 Z M 885 24 " clip-rule="nonzero"/></clipPath><clipPath id="d03344212b"><path d="M 16.089844 35.136719 L 16.089844 426.785156 C 16.089844 437.554688 24.820312 446.28125 35.589844 446.28125 L 1376.410156 446.28125 C 1387.179688 446.28125 1395.910156 437.554688 1395.910156 426.785156 L 1395.910156 35.136719 C 1395.910156 24.367188 1387.179688 15.636719 1376.410156 15.636719 L 35.589844 15.636719 C 24.820312 15.636719 16.089844 24.367188 16.089844 35.136719 Z M 16.089844 35.136719 " clip-rule="nonzero"/></clipPath><clipPath id="5557e8ce5d"><path d="M 36.890625 16.9375 L 1375.109375 16.9375 C 1385.878906 16.9375 1394.609375 25.667969 1394.609375 36.4375 L 1394.609375 425.484375 C 1394.609375 436.253906 1385.878906 444.980469 1375.109375 444.980469 L 36.890625 444.980469 C 26.121094 444.980469 17.390625 436.253906 17.390625 425.484375 L 17.390625 36.4375 C 17.390625 25.667969 26.121094 16.9375 36.890625 16.9375 Z M 36.890625 16.9375 " clip-rule="nonzero"/></clipPath><clipPath id="71b6ebba32"><path d="M 880 18 L 933 18 L 933 256 L 880 256 Z M 880 18 " clip-rule="nonzero"/></clipPath><clipPath id="1250ad55ac"><path d="M 16.089844 35.136719 L 16.089844 426.785156 C 16.089844 437.554688 24.820312 446.28125 35.589844 446.28125 L 1376.410156 446.28125 C 1387.179688 446.28125 1395.910156 437.554688 1395.910156 426.785156 L 1395.910156 35.136719 C 1395.910156 24.367188 1387.179688 15.636719 1376.410156 15.636719 L 35.589844 15.636719 C 24.820312 15.636719 16.089844 24.367188 16.089844 35.136719 Z M 16.089844 35.136719 " clip-rule="nonzero"/></clipPath><clipPath id="7f28c09c27"><path d="M 36.890625 16.9375 L 1375.109375 16.9375 C 1385.878906 16.9375 1394.609375 25.667969 1394.609375 36.4375 L 1394.609375 425.484375 C 1394.609375 436.253906 1385.878906 444.980469 1375.109375 444.980469 L 36.890625 444.980469 C 26.121094 444.980469 17.390625 436.253906 17.390625 425.484375 L 17.390625 36.4375 C 17.390625 25.667969 26.121094 16.9375 36.890625 16.9375 Z M 36.890625 16.9375 " clip-rule="nonzero"/></clipPath><clipPath id="df2431adff"><path d="M 1082 29 L 1124 29 L 1124 256 L 1082 256 Z M 1082 29 " clip-rule="nonzero"/></clipPath><clipPath id="823f6af59d"><path d="M 16.089844 35.136719 L 16.089844 426.785156 C 16.089844 437.554688 24.820312 446.28125 35.589844 446.28125 L 1376.410156 446.28125 C 1387.179688 446.28125 1395.910156 437.554688 1395.910156 426.785156 L 1395.910156 35.136719 C 1395.910156 24.367188 1387.179688 15.636719 1376.410156 15.636719 L 35.589844 15.636719 C 24.820312 15.636719 16.089844 24.367188 16.089844 35.136719 Z M 16.089844 35.136719 " clip-rule="nonzero"/></clipPath><clipPath id="7be27018c9"><path d="M 36.890625 16.9375 L 1375.109375 16.9375 C 1385.878906 16.9375 1394.609375 25.667969 1394.609375 36.4375 L 1394.609375 425.484375 C 1394.609375 436.253906 1385.878906 444.980469 1375.109375 444.980469 L 36.890625 444.980469 C 26.121094 444.980469 17.390625 436.253906 17.390625 425.484375 L 17.390625 36.4375 C 17.390625 25.667969 26.121094 16.9375 36.890625 16.9375 Z M 36.890625 16.9375 " clip-rule="nonzero"/></clipPath><clipPath id="1d57dfff5b"><path d="M 1076 23 L 1129 23 L 1129 262 L 1076 262 Z M 1076 23 " clip-rule="nonzero"/></clipPath><clipPath id="f9c8ad3a7e"><path d="M 16.089844 35.136719 L 16.089844 426.785156 C 16.089844 437.554688 24.820312 446.28125 35.589844 446.28125 L 1376.410156 446.28125 C 1387.179688 446.28125 1395.910156 437.554688 1395.910156 426.785156 L 1395.910156 35.136719 C 1395.910156 24.367188 1387.179688 15.636719 1376.410156 15.636719 L 35.589844 15.636719 C 24.820312 15.636719 16.089844 24.367188 16.089844 35.136719 Z M 16.089844 35.136719 " clip-rule="nonzero"/></clipPath><clipPath id="8d1982f504"><path d="M 36.890625 16.9375 L 1375.109375 16.9375 C 1385.878906 16.9375 1394.609375 25.667969 1394.609375 36.4375 L 1394.609375 425.484375 C 1394.609375 436.253906 1385.878906 444.980469 1375.109375 444.980469 L 36.890625 444.980469 C 26.121094 444.980469 17.390625 436.253906 17.390625 425.484375 L 17.390625 36.4375 C 17.390625 25.667969 26.121094 16.9375 36.890625 16.9375 Z M 36.890625 16.9375 " clip-rule="nonzero"/></clipPath><clipPath id="8df2af4c5b"><path d="M 1178 31 L 1220 31 L 1220 258 L 1178 258 Z M 1178 31 " clip-rule="nonzero"/></clipPath><clipPath id="b98527cd28"><path d="M 16.089844 35.136719 L 16.089844 426.785156 C 16.089844 437.554688 24.820312 446.28125 35.589844 446.28125 L 1376.410156 446.28125 C 1387.179688 446.28125 1395.910156 437.554688 1395.910156 426.785156 L 1395.910156 35.136719 C 1395.910156 24.367188 1387.179688 15.636719 1376.410156 15.636719 L 35.589844 15.636719 C 24.820312 15.636719 16.089844 24.367188 16.089844 35.136719 Z M 16.089844 35.136719 " clip-rule="nonzero"/></clipPath><clipPath id="9389a80c16"><path d="M 36.890625 16.9375 L 1375.109375 16.9375 C 1385.878906 16.9375 1394.609375 25.667969 1394.609375 36.4375 L 1394.609375 425.484375 C 1394.609375 436.253906 1385.878906 444.980469 1375.109375 444.980469 L 36.890625 444.980469 C 26.121094 444.980469 17.390625 436.253906 17.390625 425.484375 L 17.390625 36.4375 C 17.390625 25.667969 26.121094 16.9375 36.890625 16.9375 Z M 36.890625 16.9375 " clip-rule="nonzero"/></clipPath><clipPath id="0e8925c114"><path d="M 1172 25 L 1225 25 L 1225 264 L 1172 264 Z M 1172 25 " clip-rule="nonzero"/></clipPath><clipPath id="97ca7435d3"><path d="M 16.089844 35.136719 L 16.089844 426.785156 C 16.089844 437.554688 24.820312 446.28125 35.589844 446.28125 L 1376.410156 446.28125 C 1387.179688 446.28125 1395.910156 437.554688 1395.910156 426.785156 L 1395.910156 35.136719 C 1395.910156 24.367188 1387.179688 15.636719 1376.410156 15.636719 L 35.589844 15.636719 C 24.820312 15.636719 16.089844 24.367188 16.089844 35.136719 Z M 16.089844 35.136719 " clip-rule="nonzero"/></clipPath><clipPath id="f629c12bee"><path d="M 36.890625 16.9375 L 1375.109375 16.9375 C 1385.878906 16.9375 1394.609375 25.667969 1394.609375 36.4375 L 1394.609375 425.484375 C 1394.609375 436.253906 1385.878906 444.980469 1375.109375 444.980469 L 36.890625 444.980469 C 26.121094 444.980469 17.390625 436.253906 17.390625 425.484375 L 17.390625 36.4375 C 17.390625 25.667969 26.121094 16.9375 36.890625 16.9375 Z M 36.890625 16.9375 " clip-rule="nonzero"/></clipPath><clipPath id="a78d28517e"><path d="M 1276 29 L 1318 29 L 1318 256 L 1276 256 Z M 1276 29 " clip-rule="nonzero"/></clipPath><clipPath id="ca704e2e81"><path d="M 16.089844 35.136719 L 16.089844 426.785156 C 16.089844 437.554688 24.820312 446.28125 35.589844 446.28125 L 1376.410156 446.28125 C 1387.179688 446.28125 1395.910156 437.554688 1395.910156 426.785156 L 1395.910156 35.136719 C 1395.910156 24.367188 1387.179688 15.636719 1376.410156 15.636719 L 35.589844 15.636719 C 24.820312 15.636719 16.089844 24.367188 16.089844 35.136719 Z M 16.089844 35.136719 " clip-rule="nonzero"/></clipPath><clipPath id="e7f1fee40e"><path d="M 36.890625 16.9375 L 1375.109375 16.9375 C 1385.878906 16.9375 1394.609375 25.667969 1394.609375 36.4375 L 1394.609375 425.484375 C 1394.609375 436.253906 1385.878906 444.980469 1375.109375 444.980469 L 36.890625 444.980469 C 26.121094 444.980469 17.390625 436.253906 17.390625 425.484375 L 17.390625 36.4375 C 17.390625 25.667969 26.121094 16.9375 36.890625 16.9375 Z M 36.890625 16.9375 " clip-rule="nonzero"/></clipPath><clipPath id="a63a27a5cf"><path d="M 1271 23 L 1324 23 L 1324 262 L 1271 262 Z M 1271 23 " clip-rule="nonzero"/></clipPath><clipPath id="b459681fd2"><path d="M 16.089844 35.136719 L 16.089844 426.785156 C 16.089844 437.554688 24.820312 446.28125 35.589844 446.28125 L 1376.410156 446.28125 C 1387.179688 446.28125 1395.910156 437.554688 1395.910156 426.785156 L 1395.910156 35.136719 C 1395.910156 24.367188 1387.179688 15.636719 1376.410156 15.636719 L 35.589844 15.636719 C 24.820312 15.636719 16.089844 24.367188 16.089844 35.136719 Z M 16.089844 35.136719 " clip-rule="nonzero"/></clipPath><clipPath id="574031b2ef"><path d="M 36.890625 16.9375 L 1375.109375 16.9375 C 1385.878906 16.9375 1394.609375 25.667969 1394.609375 36.4375 L 1394.609375 425.484375 C 1394.609375 436.253906 1385.878906 444.980469 1375.109375 444.980469 L 36.890625 444.980469 C 26.121094 444.980469 17.390625 436.253906 17.390625 425.484375 L 17.390625 36.4375 C 17.390625 25.667969 26.121094 16.9375 36.890625 16.9375 Z M 36.890625 16.9375 " clip-rule="nonzero"/></clipPath><clipPath id="570812b43b"><path d="M 16.089844 15.636719 L 1396 15.636719 L 1396 445.992188 L 16.089844 445.992188 Z M 16.089844 15.636719 " clip-rule="nonzero"/></clipPath><clipPath id="09765a2a9f"><path d="M 16.089844 35.136719 L 16.089844 426.785156 C 16.089844 437.554688 24.820312 446.28125 35.589844 446.28125 L 1376.410156 446.28125 C 1387.179688 446.28125 1395.910156 437.554688 1395.910156 426.785156 L 1395.910156 35.136719 C 1395.910156 24.367188 1387.179688 15.636719 1376.410156 15.636719 L 35.589844 15.636719 C 24.820312 15.636719 16.089844 24.367188 16.089844 35.136719 Z M 16.089844 35.136719 " clip-rule="nonzero"/></clipPath><clipPath id="2da7f4e4e7"><path d="M 16.089844 35.136719 L 16.089844 426.78125 C 16.089844 437.550781 24.820312 446.28125 35.589844 446.28125 L 1376.40625 446.28125 C 1387.171875 446.28125 1395.902344 437.550781 1395.902344 426.78125 L 1395.902344 35.136719 C 1395.902344 24.367188 1387.171875 15.636719 1376.40625 15.636719 L 35.589844 15.636719 C 24.820312 15.636719 16.089844 24.367188 16.089844 35.136719 Z M 16.089844 35.136719 " clip-rule="nonzero"/></clipPath><clipPath id="c1b1a578fc"><path d="M 229.808594 355.300781 L 291.597656 355.300781 L 291.597656 417.089844 L 229.808594 417.089844 Z M 229.808594 355.300781 " clip-rule="nonzero"/></clipPath><clipPath id="43f8b4deeb"><path d="M 624.632812 355.300781 L 686.421875 355.300781 L 686.421875 417.089844 L 624.632812 417.089844 Z M 624.632812 355.300781 " clip-rule="nonzero"/></clipPath><clipPath id="000133a22f"><path d="M 477 182.5 L 537 182.5 L 537 243 L 477 243 Z M 477 182.5 " clip-rule="nonzero"/></clipPath><clipPath id="75bd0db5a3"><path d="M 475.835938 212.503906 C 475.835938 229.671875 489.753906 243.589844 506.921875 243.589844 C 524.089844 243.589844 538.007812 229.671875 538.007812 212.503906 C 538.007812 195.335938 524.089844 181.417969 506.921875 181.417969 C 489.753906 181.417969 475.835938 195.335938 475.835938 212.503906 Z M 475.835938 212.503906 " clip-rule="nonzero"/></clipPath><clipPath id="36bef8f373"><path d="M 506.921875 182.71875 C 523.371094 182.71875 536.707031 196.054688 536.707031 212.503906 C 536.707031 228.953125 523.371094 242.289062 506.921875 242.289062 C 490.472656 242.289062 477.136719 228.953125 477.136719 212.503906 C 477.136719 196.054688 490.472656 182.71875 506.921875 182.71875 Z M 506.921875 182.71875 " clip-rule="nonzero"/></clipPath><clipPath id="ecfdd25aac"><path d="M 475.835938 181.417969 L 537.625 181.417969 L 537.625 243.207031 L 475.835938 243.207031 Z M 475.835938 181.417969 " clip-rule="nonzero"/></clipPath><clipPath id="2c98a0c75e"><path d="M 475.835938 212.503906 C 475.835938 229.671875 489.753906 243.589844 506.921875 243.589844 C 524.089844 243.589844 538.007812 229.671875 538.007812 212.503906 C 538.007812 195.335938 524.089844 181.417969 506.921875 181.417969 C 489.753906 181.417969 475.835938 195.335938 475.835938 212.503906 Z M 475.835938 212.503906 " clip-rule="nonzero"/></clipPath><clipPath id="e5bf8fa8e3"><path d="M 475.835938 212.5 C 475.835938 229.664062 489.75 243.578125 506.914062 243.578125 C 524.082031 243.578125 537.996094 229.664062 537.996094 212.5 C 537.996094 195.332031 524.082031 181.417969 506.914062 181.417969 C 489.75 181.417969 475.835938 195.332031 475.835938 212.5 Z M 475.835938 212.5 " clip-rule="nonzero"/></clipPath><clipPath id="e023d1c8f0"><rect x="0" width="1412" y="0" height="463"/></clipPath></defs><g clip-path="url(#85b731d959)"><path fill="#ffffff" d="M 0.0976562 0 L 1499.902344 0 L 1499.902344 599.921875 L 0.0976562 599.921875 Z M 0.0976562 0 " fill-opacity="1" fill-rule="nonzero"/><path fill="#ffffff" d="M 0.0976562 0 L 1499.902344 0 L 1499.902344 599.921875 L 0.0976562 599.921875 Z M 0.0976562 0 " fill-opacity="1" fill-rule="nonzero"/></g><g transform="matrix(1, 0, 0, 1, 44, 69)"><g clip-path="url(#e023d1c8f0)"><g clip-path="url(#cb156ad0da)"><g clip-path="url(#5ccbb61c60)"><g clip-path="url(#116590b647)"><path fill="#000000" d="M 91.445312 19.566406 L 140.894531 19.566406 L 140.894531 262.433594 L 91.445312 262.433594 Z M 91.445312 19.566406 " fill-opacity="1" fill-rule="evenodd"/></g></g></g><g clip-path="url(#fff9771a27)"><g clip-path="url(#c25f43f05b)"><g clip-path="url(#962e0885be)"><path stroke-linecap="butt" transform="matrix(0.95616, 0, 0, 0.949784, -14.373634, -141.309181)" fill="none" stroke-linejoin="miter" d="M 110.670726 169.381188 L 162.387182 169.381188 L 162.387182 425.088927 L 110.670726 425.088927 Z M 110.670726 169.381188 " stroke="#000000" stroke-width="1.207" stroke-opacity="1" stroke-miterlimit="4"/></g></g></g><g clip-path="url(#aa7f1c4542)"><g clip-path="url(#8d365be4d8)"><g clip-path="url(#4f7f4d20c4)"><path fill="#000000" d="M 189.347656 19.441406 L 238.796875 19.441406 L 238.796875 262.3125 L 189.347656 262.3125 Z M 189.347656 19.441406 " fill-opacity="1" fill-rule="evenodd"/></g></g></g><g clip-path="url(#46497a9a44)"><g clip-path="url(#217c69771b)"><g clip-path="url(#72ad779d0c)"><path stroke-linecap="butt" transform="matrix(0.95616, 0, 0, 0.949784, -14.373634, -141.309181)" fill="none" stroke-linejoin="miter" d="M 213.061874 169.249579 L 264.77833 169.249579 L 264.77833 424.961431 L 213.061874 424.961431 Z M 213.061874 169.249579 " stroke="#000000" stroke-width="1.207" stroke-opacity="1" stroke-miterlimit="4"/></g></g></g><g clip-path="url(#c5f1480c93)"><g clip-path="url(#b2d4903e66)"><g clip-path="url(#507f3f5645)"><path fill="#000000" d="M 385.464844 18.957031 L 434.914062 18.957031 L 434.914062 261.828125 L 385.464844 261.828125 Z M 385.464844 18.957031 " fill-opacity="1" fill-rule="evenodd"/></g></g></g><g clip-path="url(#e21fe71e9e)"><g clip-path="url(#22ab4f8383)"><g clip-path="url(#f0b6ade20f)"><path stroke-linecap="butt" transform="matrix(0.95616, 0, 0, 0.949784, -14.373634, -141.309181)" fill="none" stroke-linejoin="miter" d="M 418.170999 168.739595 L 469.887455 168.739595 L 469.887455 424.451446 L 418.170999 424.451446 Z M 418.170999 168.739595 " stroke="#000000" stroke-width="1.207" stroke-opacity="1" stroke-miterlimit="4"/></g></g></g><g clip-path="url(#b0d648d119)"><g clip-path="url(#45487fd1d2)"><g clip-path="url(#46501a9a05)"><path fill="#000000" d="M 482.800781 19.925781 L 532.25 19.925781 L 532.25 262.796875 L 482.800781 262.796875 Z M 482.800781 19.925781 " fill-opacity="1" fill-rule="evenodd"/></g></g></g><g clip-path="url(#2b0624e9c5)"><g clip-path="url(#b2432c8a90)"><g clip-path="url(#56aaa432d0)"><path stroke-linecap="butt" transform="matrix(0.95616, 0, 0, 0.949784, -14.373634, -141.309181)" fill="none" stroke-linejoin="miter" d="M 519.969771 169.759563 L 571.686227 169.759563 L 571.686227 425.471415 L 519.969771 425.471415 Z M 519.969771 169.759563 " stroke="#000000" stroke-width="1.207" stroke-opacity="1" stroke-miterlimit="4"/></g></g></g><g clip-path="url(#c2f8c8c47d)"><g clip-path="url(#8fe064c04b)"><g clip-path="url(#c1eaabe726)"><path fill="#000000" d="M 582.078125 19.441406 L 631.53125 19.441406 L 631.53125 262.3125 L 582.078125 262.3125 Z M 582.078125 19.441406 " fill-opacity="1" fill-rule="evenodd"/></g></g></g><g clip-path="url(#c64ae7a38b)"><g clip-path="url(#7b4e130036)"><g clip-path="url(#96a6665f8c)"><path stroke-linecap="butt" transform="matrix(0.95616, 0, 0, 0.949784, -14.373634, -141.309181)" fill="none" stroke-linejoin="miter" d="M 623.798963 169.249579 L 675.519504 169.249579 L 675.519504 424.961431 L 623.798963 424.961431 Z M 623.798963 169.249579 " stroke="#000000" stroke-width="1.207" stroke-opacity="1" stroke-miterlimit="4"/></g></g></g><g clip-path="url(#c66503fb22)"><g clip-path="url(#a84c8c5fbb)"><g clip-path="url(#8366b1e9bc)"><path stroke-linecap="butt" transform="matrix(0.95616, 0, 0, 0.949784, -14.373634, -141.309181)" fill="none" stroke-linejoin="miter" d="M 33.51479 167.949942 L 751.854285 167.949942 L 751.854285 617.089764 L 33.51479 617.089764 Z M 33.51479 167.949942 " stroke="#000000" stroke-width="2.375" stroke-opacity="1" stroke-miterlimit="4"/></g></g></g><g clip-path="url(#68e37b220b)"><g clip-path="url(#e22c4ddc26)"><g clip-path="url(#41c6ffdd1f)"><path stroke-linecap="butt" transform="matrix(2.197362, 0, 0, 2.195677, 3.897432, 0.926792)" fill="none" stroke-linejoin="miter" d="M 50.744887 114.679763 L 50.744887 202.136754 " stroke="#000000" stroke-width="2.375" stroke-opacity="1" stroke-miterlimit="4"/></g></g></g><g clip-path="url(#7bc6ae5768)"><g clip-path="url(#d46b6d3585)"><g clip-path="url(#5dbed8caf3)"><path stroke-linecap="butt" transform="matrix(2.197362, 0, 0, 2.195677, 3.897432, 0.926792)" fill="none" stroke-linejoin="miter" d="M 95.846899 114.259904 L 95.846899 201.715116 " stroke="#000000" stroke-width="2.375" stroke-opacity="1" stroke-miterlimit="4"/></g></g></g><g clip-path="url(#424e6ea979)"><g clip-path="url(#1085cd829c)"><g clip-path="url(#8e2e746dca)"><path stroke-linecap="butt" transform="matrix(2.197362, 0, 0, 2.195677, 3.897432, 0.926792)" fill="none" stroke-linejoin="miter" d="M 184.959414 114.839879 L 184.959414 202.29687 " stroke="#000000" stroke-width="2.375" stroke-opacity="1" stroke-miterlimit="4"/></g></g></g><g clip-path="url(#da60deb5ed)"><g clip-path="url(#5c83583cbf)"><g clip-path="url(#73a87765f8)"><path stroke-linecap="butt" transform="matrix(2.197362, 0, 0, 2.195677, 3.897432, 0.926792)" fill="none" stroke-linejoin="miter" d="M 229.27035 114.839879 L 229.27035 202.29687 " stroke="#000000" stroke-width="2.375" stroke-opacity="1" stroke-miterlimit="4"/></g></g></g><g clip-path="url(#b0714de2be)"><g clip-path="url(#a741c3c39f)"><g clip-path="url(#29e0b97812)"><path stroke-linecap="butt" transform="matrix(2.197362, 0, 0, 2.195677, 3.897432, 0.926792)" fill="none" stroke-linejoin="miter" d="M 274.690569 114.519647 L 274.690569 201.976638 " stroke="#000000" stroke-width="2.375" stroke-opacity="1" stroke-miterlimit="4"/></g></g></g><g clip-path="url(#3fcd8d62eb)"><g clip-path="url(#a47639fc6e)"><g clip-path="url(#120d040465)"><path stroke-linecap="butt" transform="matrix(2.197362, 0, 0, 2.195677, 3.897432, 0.926792)" fill="none" stroke-linejoin="miter" d="M 140.349825 8.069373 L 140.349825 201.948173 " stroke="#000000" stroke-width="2.375" stroke-opacity="1" stroke-miterlimit="4"/></g></g></g><g clip-path="url(#de8cc126e8)"><g clip-path="url(#6d1562cd98)"><g clip-path="url(#6c80c53ea1)"><path fill="#000000" d="M 98.027344 28.519531 L 139.066406 28.519531 L 139.066406 254.960938 L 98.027344 254.960938 Z M 98.027344 28.519531 " fill-opacity="1" fill-rule="nonzero"/></g></g></g><g clip-path="url(#c75b358cdc)"><g clip-path="url(#8f21700ca0)"><g clip-path="url(#cc61a35acc)"><path stroke-linecap="butt" transform="matrix(2.197362, 0, 0, 2.195677, 3.897432, 0.926792)" fill="none" stroke-linejoin="miter" d="M 42.83768 12.566846 L 61.51419 12.566846 L 61.51419 115.697387 L 42.83768 115.697387 Z M 42.83768 12.566846 " stroke="#000000" stroke-width="5" stroke-opacity="1" stroke-miterlimit="4"/></g></g></g><g clip-path="url(#bdeaac7988)"><g clip-path="url(#8b603c34e8)"><g clip-path="url(#d8a476d966)"><path fill="#000000" d="M 781.226562 18.066406 L 830.679688 18.066406 L 830.679688 260.933594 L 781.226562 260.933594 Z M 781.226562 18.066406 " fill-opacity="1" fill-rule="evenodd"/></g></g></g><g clip-path="url(#88913e0c9f)"><g clip-path="url(#c6618d3103)"><g clip-path="url(#457f523a2a)"><path stroke-linecap="butt" transform="matrix(0.95616, 0, 0, 0.949784, -14.373634, -141.309181)" fill="none" stroke-linejoin="miter" d="M 832.078319 167.801882 L 883.798861 167.801882 L 883.798861 423.509621 L 832.078319 423.509621 Z M 832.078319 167.801882 " stroke="#000000" stroke-width="1.207" stroke-opacity="1" stroke-miterlimit="4"/></g></g></g><g clip-path="url(#f319a926cc)"><g clip-path="url(#5672a6c1eb)"><g clip-path="url(#0ef38bc975)"><path fill="#000000" d="M 879.128906 17.941406 L 928.582031 17.941406 L 928.582031 260.808594 L 879.128906 260.808594 Z M 879.128906 17.941406 " fill-opacity="1" fill-rule="evenodd"/></g></g></g><g clip-path="url(#528aabbf36)"><g clip-path="url(#1955212edc)"><g clip-path="url(#c48d0db5ec)"><path stroke-linecap="butt" transform="matrix(0.95616, 0, 0, 0.949784, -14.373634, -141.309181)" fill="none" stroke-linejoin="miter" d="M 934.469468 167.670273 L 986.190009 167.670273 L 986.190009 423.378012 L 934.469468 423.378012 Z M 934.469468 167.670273 " stroke="#000000" stroke-width="1.207" stroke-opacity="1" stroke-miterlimit="4"/></g></g></g><g clip-path="url(#0f8bf03765)"><g clip-path="url(#853e7da9d2)"><g clip-path="url(#0afc319be3)"><path fill="#000000" d="M 1075.265625 17.464844 L 1124.71875 17.464844 L 1124.71875 260.335938 L 1075.265625 260.335938 Z M 1075.265625 17.464844 " fill-opacity="1" fill-rule="evenodd"/></g></g></g><g clip-path="url(#20c0001ac3)"><g clip-path="url(#27face025f)"><g clip-path="url(#99690b3ab8)"><path stroke-linecap="butt" transform="matrix(0.95616, 0, 0, 0.949784, -14.373634, -141.309181)" fill="none" stroke-linejoin="miter" d="M 1139.599019 167.168514 L 1191.319561 167.168514 L 1191.319561 422.880366 L 1139.599019 422.880366 Z M 1139.599019 167.168514 " stroke="#000000" stroke-width="1.207" stroke-opacity="1" stroke-miterlimit="4"/></g></g></g><g clip-path="url(#c78577adc0)"><g clip-path="url(#387b7c3725)"><g clip-path="url(#e148514bd4)"><path fill="#000000" d="M 1172.605469 18.425781 L 1222.054688 18.425781 L 1222.054688 261.292969 L 1172.605469 261.292969 Z M 1172.605469 18.425781 " fill-opacity="1" fill-rule="evenodd"/></g></g></g><g clip-path="url(#9fe41eaf90)"><g clip-path="url(#7852bd3b5e)"><g clip-path="url(#c42b9dddc0)"><path stroke-linecap="butt" transform="matrix(0.95616, 0, 0, 0.949784, -14.373634, -141.309181)" fill="none" stroke-linejoin="miter" d="M 1241.401877 168.180257 L 1293.118333 168.180257 L 1293.118333 423.887996 L 1241.401877 423.887996 Z M 1241.401877 168.180257 " stroke="#000000" stroke-width="1.207" stroke-opacity="1" stroke-miterlimit="4"/></g></g></g><g clip-path="url(#ac31183794)"><g clip-path="url(#4015a3f5b0)"><g clip-path="url(#534b6b8d25)"><path fill="#000000" d="M 1271.851562 17.941406 L 1321.304688 17.941406 L 1321.304688 260.808594 L 1271.851562 260.808594 Z M 1271.851562 17.941406 " fill-opacity="1" fill-rule="evenodd"/></g></g></g><g clip-path="url(#76023a406d)"><g clip-path="url(#76f92f5190)"><g clip-path="url(#d0aa18927c)"><path stroke-linecap="butt" transform="matrix(0.95616, 0, 0, 0.949784, -14.373634, -141.309181)" fill="none" stroke-linejoin="miter" d="M 1345.198386 167.670273 L 1396.918927 167.670273 L 1396.918927 423.378012 L 1345.198386 423.378012 Z M 1345.198386 167.670273 " stroke="#000000" stroke-width="1.207" stroke-opacity="1" stroke-miterlimit="4"/></g></g></g><g clip-path="url(#686ff7fb25)"><g clip-path="url(#0a47bcd561)"><g clip-path="url(#3bc6c1b6e0)"><path stroke-linecap="butt" transform="matrix(0.95616, 0, 0, 0.949784, -14.373634, -141.309181)" fill="none" stroke-linejoin="miter" d="M 754.918298 166.370636 L 1473.261879 166.370636 L 1473.261879 615.510458 L 754.918298 615.510458 Z M 754.918298 166.370636 " stroke="#000000" stroke-width="2.375" stroke-opacity="1" stroke-miterlimit="4"/></g></g></g><g clip-path="url(#d65b240780)"><g clip-path="url(#41a1c17efd)"><g clip-path="url(#e3b41dc6bd)"><path stroke-linecap="butt" transform="matrix(2.197362, 0, 0, 2.195677, 3.897432, 0.926792)" fill="none" stroke-linejoin="miter" d="M 364.659936 114.000161 L 364.659936 201.455373 " stroke="#000000" stroke-width="2.375" stroke-opacity="1" stroke-miterlimit="4"/></g></g></g><g clip-path="url(#bcb9ce2c11)"><g clip-path="url(#9e2eb3d5f1)"><g clip-path="url(#24d6e616ae)"><path stroke-linecap="butt" transform="matrix(2.197362, 0, 0, 2.195677, 3.897432, 0.926792)" fill="none" stroke-linejoin="miter" d="M 409.76017 113.580302 L 409.76017 201.035514 " stroke="#000000" stroke-width="2.375" stroke-opacity="1" stroke-miterlimit="4"/></g></g></g><g clip-path="url(#3ef28f2db9)"><g clip-path="url(#ee46c91794)"><g clip-path="url(#6629defc06)"><path stroke-linecap="butt" transform="matrix(2.197362, 0, 0, 2.195677, 3.897432, 0.926792)" fill="none" stroke-linejoin="miter" d="M 498.869131 114.149602 L 498.869131 201.606593 " stroke="#000000" stroke-width="2.375" stroke-opacity="1" stroke-miterlimit="4"/></g></g></g><g clip-path="url(#1c198aee01)"><g clip-path="url(#91ebfef4b6)"><g clip-path="url(#fc852f95fd)"><path stroke-linecap="butt" transform="matrix(2.197362, 0, 0, 2.195677, 3.897432, 0.926792)" fill="none" stroke-linejoin="miter" d="M 543.190732 114.149602 L 543.190732 201.606593 " stroke="#000000" stroke-width="2.375" stroke-opacity="1" stroke-miterlimit="4"/></g></g></g><g clip-path="url(#55a69fd007)"><g clip-path="url(#a4cd6dd607)"><g clip-path="url(#86c5ec075b)"><path stroke-linecap="butt" transform="matrix(2.197362, 0, 0, 2.195677, 3.897432, 0.926792)" fill="none" stroke-linejoin="miter" d="M 588.600286 113.840045 L 588.600286 201.295257 " stroke="#000000" stroke-width="2.375" stroke-opacity="1" stroke-miterlimit="4"/></g></g></g><g clip-path="url(#243c766642)"><g clip-path="url(#81c26ebddf)"><g clip-path="url(#18237f5ca5)"><path stroke-linecap="butt" transform="matrix(2.197362, 0, 0, 2.195677, 3.897432, 0.926792)" fill="none" stroke-linejoin="miter" d="M 454.259542 7.386212 L 454.259542 201.266792 " stroke="#000000" stroke-width="2.375" stroke-opacity="1" stroke-miterlimit="4"/></g></g></g><g clip-path="url(#27a0477068)"><g clip-path="url(#da8f67004d)"><g clip-path="url(#d9cd351250)"><path fill="#000000" d="M 195.269531 25.847656 L 236.308594 25.847656 L 236.308594 252.289062 L 195.269531 252.289062 Z M 195.269531 25.847656 " fill-opacity="1" fill-rule="nonzero"/></g></g></g><g clip-path="url(#f2a0c20f8e)"><g clip-path="url(#1b1b12309d)"><g clip-path="url(#4c055faeb4)"><path stroke-linecap="butt" transform="matrix(2.197362, 0, 0, 2.195677, 3.897432, 0.926792)" fill="none" stroke-linejoin="miter" d="M 87.091729 11.349966 L 105.768239 11.349966 L 105.768239 114.480508 L 87.091729 114.480508 Z M 87.091729 11.349966 " stroke="#000000" stroke-width="5" stroke-opacity="1" stroke-miterlimit="4"/></g></g></g><g clip-path="url(#9e4201566e)"><g clip-path="url(#0c3b52642c)"><g clip-path="url(#96ba9a5321)"><path fill="#000000" d="M 391.554688 25.847656 L 432.597656 25.847656 L 432.597656 252.289062 L 391.554688 252.289062 Z M 391.554688 25.847656 " fill-opacity="1" fill-rule="nonzero"/></g></g></g><g clip-path="url(#a8338f46e3)"><g clip-path="url(#f260782da2)"><g clip-path="url(#c427b81bd2)"><path stroke-linecap="butt" transform="matrix(2.197362, 0, 0, 2.195677, 3.897432, 0.926792)" fill="none" stroke-linejoin="miter" d="M 176.419346 11.349966 L 195.097634 11.349966 L 195.097634 114.480508 L 176.419346 114.480508 Z M 176.419346 11.349966 " stroke="#000000" stroke-width="5" stroke-opacity="1" stroke-miterlimit="4"/></g></g></g><g clip-path="url(#a42353f529)"><g clip-path="url(#30f1253a11)"><g clip-path="url(#2106bbc485)"><path fill="#000000" d="M 487.910156 27.628906 L 528.949219 27.628906 L 528.949219 254.070312 L 487.910156 254.070312 Z M 487.910156 27.628906 " fill-opacity="1" fill-rule="nonzero"/></g></g></g><g clip-path="url(#980cca2d30)"><g clip-path="url(#a0ab31e16e)"><g clip-path="url(#d9be4c58fc)"><path stroke-linecap="butt" transform="matrix(2.197362, 0, 0, 2.195677, 3.897432, 0.926792)" fill="none" stroke-linejoin="miter" d="M 220.269858 12.161219 L 238.946367 12.161219 L 238.946367 115.291761 L 220.269858 115.291761 Z M 220.269858 12.161219 " stroke="#000000" stroke-width="5" stroke-opacity="1" stroke-miterlimit="4"/></g></g></g><g clip-path="url(#aafeae314f)"><g clip-path="url(#79827ca2e9)"><g clip-path="url(#13ede47d5f)"><path fill="#000000" d="M 587.824219 27.628906 L 628.863281 27.628906 L 628.863281 254.070312 L 587.824219 254.070312 Z M 587.824219 27.628906 " fill-opacity="1" fill-rule="nonzero"/></g></g></g><g clip-path="url(#9ccc89eaf7)"><g clip-path="url(#1f44cfa455)"><g clip-path="url(#84f0aecaf9)"><path stroke-linecap="butt" transform="matrix(2.197362, 0, 0, 2.195677, 3.897432, 0.926792)" fill="none" stroke-linejoin="miter" d="M 265.739853 12.161219 L 284.416363 12.161219 L 284.416363 115.291761 L 265.739853 115.291761 Z M 265.739853 12.161219 " stroke="#000000" stroke-width="5" stroke-opacity="1" stroke-miterlimit="4"/></g></g></g><g clip-path="url(#4147b139db)"><g clip-path="url(#5c6eadb0a8)"><g clip-path="url(#6acad31c57)"><path fill="#000000" d="M 785.894531 24.066406 L 826.933594 24.066406 L 826.933594 250.503906 L 785.894531 250.503906 Z M 785.894531 24.066406 " fill-opacity="1" fill-rule="nonzero"/></g></g></g><g clip-path="url(#af6bbb29e7)"><g clip-path="url(#152cfd08bd)"><g clip-path="url(#c982f9536e)"><path stroke-linecap="butt" transform="matrix(2.197362, 0, 0, 2.195677, 3.897432, 0.926792)" fill="none" stroke-linejoin="miter" d="M 355.879879 10.538713 L 374.556389 10.538713 L 374.556389 113.667476 L 355.879879 113.667476 Z M 355.879879 10.538713 " stroke="#000000" stroke-width="5" stroke-opacity="1" stroke-miterlimit="4"/></g></g></g><g clip-path="url(#ae121f1728)"><g clip-path="url(#d03344212b)"><g clip-path="url(#5557e8ce5d)"><path fill="#000000" d="M 885.832031 24.066406 L 926.871094 24.066406 L 926.871094 250.503906 L 885.832031 250.503906 Z M 885.832031 24.066406 " fill-opacity="1" fill-rule="nonzero"/></g></g></g><g clip-path="url(#71b6ebba32)"><g clip-path="url(#1250ad55ac)"><g clip-path="url(#7f28c09c27)"><path stroke-linecap="butt" transform="matrix(2.197362, 0, 0, 2.195677, 3.897432, 0.926792)" fill="none" stroke-linejoin="miter" d="M 401.36054 10.538713 L 420.03705 10.538713 L 420.03705 113.667476 L 401.36054 113.667476 Z M 401.36054 10.538713 " stroke="#000000" stroke-width="5" stroke-opacity="1" stroke-miterlimit="4"/></g></g></g><g clip-path="url(#df2431adff)"><g clip-path="url(#823f6af59d)"><g clip-path="url(#7be27018c9)"><path fill="#000000" d="M 1082.097656 29.414062 L 1123.140625 29.414062 L 1123.140625 255.855469 L 1082.097656 255.855469 Z M 1082.097656 29.414062 " fill-opacity="1" fill-rule="nonzero"/></g></g></g><g clip-path="url(#1d57dfff5b)"><g clip-path="url(#f9c8ad3a7e)"><g clip-path="url(#8d1982f504)"><path stroke-linecap="butt" transform="matrix(2.197362, 0, 0, 2.195677, 3.897432, 0.926792)" fill="none" stroke-linejoin="miter" d="M 490.679269 12.974251 L 509.357557 12.974251 L 509.357557 116.104793 L 490.679269 116.104793 Z M 490.679269 12.974251 " stroke="#000000" stroke-width="5" stroke-opacity="1" stroke-miterlimit="4"/></g></g></g><g clip-path="url(#8df2af4c5b)"><g clip-path="url(#b98527cd28)"><g clip-path="url(#9389a80c16)"><path fill="#000000" d="M 1178.453125 31.195312 L 1219.492188 31.195312 L 1219.492188 257.636719 L 1178.453125 257.636719 Z M 1178.453125 31.195312 " fill-opacity="1" fill-rule="nonzero"/></g></g></g><g clip-path="url(#0e8925c114)"><g clip-path="url(#97ca7435d3)"><g clip-path="url(#f629c12bee)"><path stroke-linecap="butt" transform="matrix(2.197362, 0, 0, 2.195677, 3.897432, 0.926792)" fill="none" stroke-linejoin="miter" d="M 534.529781 13.785504 L 553.20629 13.785504 L 553.20629 116.916046 L 534.529781 116.916046 Z M 534.529781 13.785504 " stroke="#000000" stroke-width="5" stroke-opacity="1" stroke-miterlimit="4"/></g></g></g><g clip-path="url(#a78d28517e)"><g clip-path="url(#ca704e2e81)"><g clip-path="url(#e7f1fee40e)"><path fill="#000000" d="M 1276.609375 29.414062 L 1317.648438 29.414062 L 1317.648438 255.855469 L 1276.609375 255.855469 Z M 1276.609375 29.414062 " fill-opacity="1" fill-rule="nonzero"/></g></g></g><g clip-path="url(#a63a27a5cf)"><g clip-path="url(#b459681fd2)"><g clip-path="url(#574031b2ef)"><path stroke-linecap="butt" transform="matrix(2.197362, 0, 0, 2.195677, 3.897432, 0.926792)" fill="none" stroke-linejoin="miter" d="M 579.199811 12.974251 L 597.876321 12.974251 L 597.876321 116.104793 L 579.199811 116.104793 Z M 579.199811 12.974251 " stroke="#000000" stroke-width="5" stroke-opacity="1" stroke-miterlimit="4"/></g></g></g><g clip-path="url(#570812b43b)"><g clip-path="url(#09765a2a9f)"><g clip-path="url(#2da7f4e4e7)"><path stroke-linecap="butt" transform="matrix(1.084012, 0, 0, 1.084012, 16.090791, 15.638559)" fill="none" stroke-linejoin="miter" d="M -0.000873444 17.98703 L -0.000873444 379.278663 C -0.000873444 389.213543 8.052974 397.267391 17.987854 397.267391 L 1254.889457 397.267391 C 1264.820734 397.267391 1272.874581 389.213543 1272.874581 379.278663 L 1272.874581 17.98703 C 1272.874581 8.05215 1264.820734 -0.00169725 1254.889457 -0.00169725 L 17.987854 -0.00169725 C 8.052974 -0.00169725 -0.000873444 8.05215 -0.000873444 17.98703 Z M -0.000873444 17.98703 " stroke="#000000" stroke-width="6.91783" stroke-opacity="1" stroke-miterlimit="4"/></g></g></g><g clip-path="url(#c1b1a578fc)"><path fill="#000000" d="M 260.703125 355.300781 C 243.636719 355.300781 229.808594 369.128906 229.808594 386.195312 C 229.808594 403.265625 243.636719 417.089844 260.703125 417.089844 C 277.773438 417.089844 291.597656 403.265625 291.597656 386.195312 C 291.597656 369.128906 277.773438 355.300781 260.703125 355.300781 Z M 260.703125 355.300781 " fill-opacity="1" fill-rule="nonzero"/></g><g clip-path="url(#43f8b4deeb)"><path fill="#000000" d="M 655.527344 355.300781 C 638.457031 355.300781 624.632812 369.128906 624.632812 386.195312 C 624.632812 403.265625 638.457031 417.089844 655.527344 417.089844 C 672.597656 417.089844 686.421875 403.265625 686.421875 386.195312 C 686.421875 369.128906 672.597656 355.300781 655.527344 355.300781 Z M 655.527344 355.300781 " fill-opacity="1" fill-rule="nonzero"/></g><g clip-path="url(#000133a22f)"><g clip-path="url(#75bd0db5a3)"><g clip-path="url(#36bef8f373)"><path fill="#ffffff" d="M 506.914062 181.417969 C 489.742188 181.417969 475.835938 195.324219 475.835938 212.5 C 475.835938 229.671875 489.742188 243.578125 506.914062 243.578125 C 524.085938 243.578125 537.996094 229.671875 537.996094 212.5 C 537.996094 195.324219 524.085938 181.417969 506.914062 181.417969 Z M 506.914062 181.417969 " fill-opacity="1" fill-rule="nonzero"/></g></g></g><g clip-path="url(#ecfdd25aac)"><g clip-path="url(#2c98a0c75e)"><g clip-path="url(#e5bf8fa8e3)"><path stroke-linecap="butt" transform="matrix(1.084012, 0, 0, 1.084012, 475.834939, 181.417544)" fill="none" stroke-linejoin="miter" d="M 0.000920927 28.673527 C 0.000920927 44.507354 12.836626 57.343059 28.670453 57.343059 C 44.507882 57.343059 57.343588 44.507354 57.343588 28.673527 C 57.343588 12.836098 44.507882 0.000392245 28.670453 0.000392245 C 12.836626 0.000392245 0.000920927 12.836098 0.000920927 28.673527 Z M 0.000920927 28.673527 " stroke="#000000" stroke-width="9.684963" stroke-opacity="1" stroke-miterlimit="4"/></g></g></g></g></g></svg>