<svg xmlns="http://www.w3.org/2000/svg" xmlns:xlink="http://www.w3.org/1999/xlink" width="2000" zoomAndPan="magnify" viewBox="0 0 1500 1499.999933" height="2000" preserveAspectRatio="xMidYMid meet" version="1.0"><defs><clipPath id="580a3ed414"><path d="M 150 543 L 199 543 L 199 781 L 150 781 Z M 150 543 " clip-rule="nonzero"/></clipPath><clipPath id="8b5e050cbd"><path d="M 77.191406 559.515625 L 77.191406 940.484375 C 77.191406 951.253906 85.921875 959.984375 96.691406 959.984375 L 1403.308594 959.984375 C 1414.078125 959.984375 1422.808594 951.253906 1422.808594 940.484375 L 1422.808594 559.515625 C 1422.808594 548.746094 1414.078125 540.015625 1403.308594 540.015625 L 96.691406 540.015625 C 85.921875 540.015625 77.191406 548.746094 77.191406 559.515625 Z M 77.191406 559.515625 " clip-rule="nonzero"/></clipPath><clipPath id="c6cfeecbdb"><path d="M 97.589844 540.914062 L 1402.410156 540.914062 C 1413.179688 540.914062 1421.910156 549.644531 1421.910156 560.414062 L 1421.910156 939.585938 C 1421.910156 950.355469 1413.179688 959.085938 1402.410156 959.085938 L 97.589844 959.085938 C 86.820312 959.085938 78.089844 950.355469 78.089844 939.585938 L 78.089844 560.414062 C 78.089844 549.644531 86.820312 540.914062 97.589844 540.914062 Z M 97.589844 540.914062 " clip-rule="nonzero"/></clipPath><clipPath id="88c6f7ba87"><path d="M 150 543 L 200 543 L 200 782 L 150 782 Z M 150 543 " clip-rule="nonzero"/></clipPath><clipPath id="6794c5f09d"><path d="M 77.191406 559.515625 L 77.191406 940.484375 C 77.191406 951.253906 85.921875 959.984375 96.691406 959.984375 L 1403.308594 959.984375 C 1414.078125 959.984375 1422.808594 951.253906 1422.808594 940.484375 L 1422.808594 559.515625 C 1422.808594 548.746094 1414.078125 540.015625 1403.308594 540.015625 L 96.691406 540.015625 C 85.921875 540.015625 77.191406 548.746094 77.191406 559.515625 Z M 77.191406 559.515625 " clip-rule="nonzero"/></clipPath><clipPath id="e28348ba30"><path d="M 97.589844 540.914062 L 1402.410156 540.914062 C 1413.179688 540.914062 1421.910156 549.644531 1421.910156 560.414062 L 1421.910156 939.585938 C 1421.910156 950.355469 1413.179688 959.085938 1402.410156 959.085938 L 97.589844 959.085938 C 86.820312 959.085938 78.089844 950.355469 78.089844 939.585938 L 78.089844 560.414062 C 78.089844 549.644531 86.820312 540.914062 97.589844 540.914062 Z M 97.589844 540.914062 " clip-rule="nonzero"/></clipPath><clipPath id="5d4b01c5c3"><path d="M 246 543 L 295 543 L 295 781 L 246 781 Z M 246 543 " clip-rule="nonzero"/></clipPath><clipPath id="1aa8f924a4"><path d="M 77.191406 559.515625 L 77.191406 940.484375 C 77.191406 951.253906 85.921875 959.984375 96.691406 959.984375 L 1403.308594 959.984375 C 1414.078125 959.984375 1422.808594 951.253906 1422.808594 940.484375 L 1422.808594 559.515625 C 1422.808594 548.746094 1414.078125 540.015625 1403.308594 540.015625 L 96.691406 540.015625 C 85.921875 540.015625 77.191406 548.746094 77.191406 559.515625 Z M 77.191406 559.515625 " clip-rule="nonzero"/></clipPath><clipPath id="fbedf666ba"><path d="M 97.589844 540.914062 L 1402.410156 540.914062 C 1413.179688 540.914062 1421.910156 549.644531 1421.910156 560.414062 L 1421.910156 939.585938 C 1421.910156 950.355469 1413.179688 959.085938 1402.410156 959.085938 L 97.589844 959.085938 C 86.820312 959.085938 78.089844 950.355469 78.089844 939.585938 L 78.089844 560.414062 C 78.089844 549.644531 86.820312 540.914062 97.589844 540.914062 Z M 97.589844 540.914062 " clip-rule="nonzero"/></clipPath><clipPath id="261dc94514"><path d="M 245 543 L 295 543 L 295 782 L 245 782 Z M 245 543 " clip-rule="nonzero"/></clipPath><clipPath id="43246eda19"><path d="M 77.191406 559.515625 L 77.191406 940.484375 C 77.191406 951.253906 85.921875 959.984375 96.691406 959.984375 L 1403.308594 959.984375 C 1414.078125 959.984375 1422.808594 951.253906 1422.808594 940.484375 L 1422.808594 559.515625 C 1422.808594 548.746094 1414.078125 540.015625 1403.308594 540.015625 L 96.691406 540.015625 C 85.921875 540.015625 77.191406 548.746094 77.191406 559.515625 Z M 77.191406 559.515625 " clip-rule="nonzero"/></clipPath><clipPath id="a4d149f462"><path d="M 97.589844 540.914062 L 1402.410156 540.914062 C 1413.179688 540.914062 1421.910156 549.644531 1421.910156 560.414062 L 1421.910156 939.585938 C 1421.910156 950.355469 1413.179688 959.085938 1402.410156 959.085938 L 97.589844 959.085938 C 86.820312 959.085938 78.089844 950.355469 78.089844 939.585938 L 78.089844 560.414062 C 78.089844 549.644531 86.820312 540.914062 97.589844 540.914062 Z M 97.589844 540.914062 " clip-rule="nonzero"/></clipPath><clipPath id="146b544807"><path d="M 437 543 L 486 543 L 486 781 L 437 781 Z M 437 543 " clip-rule="nonzero"/></clipPath><clipPath id="0c85ce15fa"><path d="M 77.191406 559.515625 L 77.191406 940.484375 C 77.191406 951.253906 85.921875 959.984375 96.691406 959.984375 L 1403.308594 959.984375 C 1414.078125 959.984375 1422.808594 951.253906 1422.808594 940.484375 L 1422.808594 559.515625 C 1422.808594 548.746094 1414.078125 540.015625 1403.308594 540.015625 L 96.691406 540.015625 C 85.921875 540.015625 77.191406 548.746094 77.191406 559.515625 Z M 77.191406 559.515625 " clip-rule="nonzero"/></clipPath><clipPath id="63e8802860"><path d="M 97.589844 540.914062 L 1402.410156 540.914062 C 1413.179688 540.914062 1421.910156 549.644531 1421.910156 560.414062 L 1421.910156 939.585938 C 1421.910156 950.355469 1413.179688 959.085938 1402.410156 959.085938 L 97.589844 959.085938 C 86.820312 959.085938 78.089844 950.355469 78.089844 939.585938 L 78.089844 560.414062 C 78.089844 549.644531 86.820312 540.914062 97.589844 540.914062 Z M 97.589844 540.914062 " clip-rule="nonzero"/></clipPath><clipPath id="1f0a70773b"><path d="M 436 542 L 487 542 L 487 781 L 436 781 Z M 436 542 " clip-rule="nonzero"/></clipPath><clipPath id="6be1510002"><path d="M 77.191406 559.515625 L 77.191406 940.484375 C 77.191406 951.253906 85.921875 959.984375 96.691406 959.984375 L 1403.308594 959.984375 C 1414.078125 959.984375 1422.808594 951.253906 1422.808594 940.484375 L 1422.808594 559.515625 C 1422.808594 548.746094 1414.078125 540.015625 1403.308594 540.015625 L 96.691406 540.015625 C 85.921875 540.015625 77.191406 548.746094 77.191406 559.515625 Z M 77.191406 559.515625 " clip-rule="nonzero"/></clipPath><clipPath id="966a3c5f27"><path d="M 97.589844 540.914062 L 1402.410156 540.914062 C 1413.179688 540.914062 1421.910156 549.644531 1421.910156 560.414062 L 1421.910156 939.585938 C 1421.910156 950.355469 1413.179688 959.085938 1402.410156 959.085938 L 97.589844 959.085938 C 86.820312 959.085938 78.089844 950.355469 78.089844 939.585938 L 78.089844 560.414062 C 78.089844 549.644531 86.820312 540.914062 97.589844 540.914062 Z M 97.589844 540.914062 " clip-rule="nonzero"/></clipPath><clipPath id="46c6619037"><path d="M 532 544 L 581 544 L 581 782 L 532 782 Z M 532 544 " clip-rule="nonzero"/></clipPath><clipPath id="fc537e692f"><path d="M 77.191406 559.515625 L 77.191406 940.484375 C 77.191406 951.253906 85.921875 959.984375 96.691406 959.984375 L 1403.308594 959.984375 C 1414.078125 959.984375 1422.808594 951.253906 1422.808594 940.484375 L 1422.808594 559.515625 C 1422.808594 548.746094 1414.078125 540.015625 1403.308594 540.015625 L 96.691406 540.015625 C 85.921875 540.015625 77.191406 548.746094 77.191406 559.515625 Z M 77.191406 559.515625 " clip-rule="nonzero"/></clipPath><clipPath id="0f994e3f02"><path d="M 97.589844 540.914062 L 1402.410156 540.914062 C 1413.179688 540.914062 1421.910156 549.644531 1421.910156 560.414062 L 1421.910156 939.585938 C 1421.910156 950.355469 1413.179688 959.085938 1402.410156 959.085938 L 97.589844 959.085938 C 86.820312 959.085938 78.089844 950.355469 78.089844 939.585938 L 78.089844 560.414062 C 78.089844 549.644531 86.820312 540.914062 97.589844 540.914062 Z M 97.589844 540.914062 " clip-rule="nonzero"/></clipPath><clipPath id="b60733aae7"><path d="M 531 543 L 582 543 L 582 782 L 531 782 Z M 531 543 " clip-rule="nonzero"/></clipPath><clipPath id="55ecbbc9cb"><path d="M 77.191406 559.515625 L 77.191406 940.484375 C 77.191406 951.253906 85.921875 959.984375 96.691406 959.984375 L 1403.308594 959.984375 C 1414.078125 959.984375 1422.808594 951.253906 1422.808594 940.484375 L 1422.808594 559.515625 C 1422.808594 548.746094 1414.078125 540.015625 1403.308594 540.015625 L 96.691406 540.015625 C 85.921875 540.015625 77.191406 548.746094 77.191406 559.515625 Z M 77.191406 559.515625 " clip-rule="nonzero"/></clipPath><clipPath id="08ad9eeef0"><path d="M 97.589844 540.914062 L 1402.410156 540.914062 C 1413.179688 540.914062 1421.910156 549.644531 1421.910156 560.414062 L 1421.910156 939.585938 C 1421.910156 950.355469 1413.179688 959.085938 1402.410156 959.085938 L 97.589844 959.085938 C 86.820312 959.085938 78.089844 950.355469 78.089844 939.585938 L 78.089844 560.414062 C 78.089844 549.644531 86.820312 540.914062 97.589844 540.914062 Z M 97.589844 540.914062 " clip-rule="nonzero"/></clipPath><clipPath id="717bb4acdb"><path d="M 629 543 L 678 543 L 678 781 L 629 781 Z M 629 543 " clip-rule="nonzero"/></clipPath><clipPath id="7602563b3d"><path d="M 77.191406 559.515625 L 77.191406 940.484375 C 77.191406 951.253906 85.921875 959.984375 96.691406 959.984375 L 1403.308594 959.984375 C 1414.078125 959.984375 1422.808594 951.253906 1422.808594 940.484375 L 1422.808594 559.515625 C 1422.808594 548.746094 1414.078125 540.015625 1403.308594 540.015625 L 96.691406 540.015625 C 85.921875 540.015625 77.191406 548.746094 77.191406 559.515625 Z M 77.191406 559.515625 " clip-rule="nonzero"/></clipPath><clipPath id="f629dc3b3e"><path d="M 97.589844 540.914062 L 1402.410156 540.914062 C 1413.179688 540.914062 1421.910156 549.644531 1421.910156 560.414062 L 1421.910156 939.585938 C 1421.910156 950.355469 1413.179688 959.085938 1402.410156 959.085938 L 97.589844 959.085938 C 86.820312 959.085938 78.089844 950.355469 78.089844 939.585938 L 78.089844 560.414062 C 78.089844 549.644531 86.820312 540.914062 97.589844 540.914062 Z M 97.589844 540.914062 " clip-rule="nonzero"/></clipPath><clipPath id="7c2c6bcec0"><path d="M 628 543 L 678 543 L 678 782 L 628 782 Z M 628 543 " clip-rule="nonzero"/></clipPath><clipPath id="1d38cbf86c"><path d="M 77.191406 559.515625 L 77.191406 940.484375 C 77.191406 951.253906 85.921875 959.984375 96.691406 959.984375 L 1403.308594 959.984375 C 1414.078125 959.984375 1422.808594 951.253906 1422.808594 940.484375 L 1422.808594 559.515625 C 1422.808594 548.746094 1414.078125 540.015625 1403.308594 540.015625 L 96.691406 540.015625 C 85.921875 540.015625 77.191406 548.746094 77.191406 559.515625 Z M 77.191406 559.515625 " clip-rule="nonzero"/></clipPath><clipPath id="2642db4d96"><path d="M 97.589844 540.914062 L 1402.410156 540.914062 C 1413.179688 540.914062 1421.910156 549.644531 1421.910156 560.414062 L 1421.910156 939.585938 C 1421.910156 950.355469 1413.179688 959.085938 1402.410156 959.085938 L 97.589844 959.085938 C 86.820312 959.085938 78.089844 950.355469 78.089844 939.585938 L 78.089844 560.414062 C 78.089844 549.644531 86.820312 540.914062 97.589844 540.914062 Z M 97.589844 540.914062 " clip-rule="nonzero"/></clipPath><clipPath id="b64ae9960f"><path d="M 78 541 L 750 541 L 750 959.265625 L 78 959.265625 Z M 78 541 " clip-rule="nonzero"/></clipPath><clipPath id="3b18ca2586"><path d="M 77.191406 559.515625 L 77.191406 940.484375 C 77.191406 951.253906 85.921875 959.984375 96.691406 959.984375 L 1403.308594 959.984375 C 1414.078125 959.984375 1422.808594 951.253906 1422.808594 940.484375 L 1422.808594 559.515625 C 1422.808594 548.746094 1414.078125 540.015625 1403.308594 540.015625 L 96.691406 540.015625 C 85.921875 540.015625 77.191406 548.746094 77.191406 559.515625 Z M 77.191406 559.515625 " clip-rule="nonzero"/></clipPath><clipPath id="874b14d6e0"><path d="M 97.589844 540.914062 L 1402.410156 540.914062 C 1413.179688 540.914062 1421.910156 549.644531 1421.910156 560.414062 L 1421.910156 939.585938 C 1421.910156 950.355469 1413.179688 959.085938 1402.410156 959.085938 L 97.589844 959.085938 C 86.820312 959.085938 78.089844 950.355469 78.089844 939.585938 L 78.089844 560.414062 C 78.089844 549.644531 86.820312 540.914062 97.589844 540.914062 Z M 97.589844 540.914062 " clip-rule="nonzero"/></clipPath><clipPath id="a15c8f29ea"><path d="M 171 768 L 177 768 L 177 959.265625 L 171 959.265625 Z M 171 768 " clip-rule="nonzero"/></clipPath><clipPath id="177d08ae8d"><path d="M 77.191406 559.515625 L 77.191406 940.484375 C 77.191406 951.253906 85.921875 959.984375 96.691406 959.984375 L 1403.308594 959.984375 C 1414.078125 959.984375 1422.808594 951.253906 1422.808594 940.484375 L 1422.808594 559.515625 C 1422.808594 548.746094 1414.078125 540.015625 1403.308594 540.015625 L 96.691406 540.015625 C 85.921875 540.015625 77.191406 548.746094 77.191406 559.515625 Z M 77.191406 559.515625 " clip-rule="nonzero"/></clipPath><clipPath id="4f9441e2cc"><path d="M 97.589844 540.914062 L 1402.410156 540.914062 C 1413.179688 540.914062 1421.910156 549.644531 1421.910156 560.414062 L 1421.910156 939.585938 C 1421.910156 950.355469 1413.179688 959.085938 1402.410156 959.085938 L 97.589844 959.085938 C 86.820312 959.085938 78.089844 950.355469 78.089844 939.585938 L 78.089844 560.414062 C 78.089844 549.644531 86.820312 540.914062 97.589844 540.914062 Z M 97.589844 540.914062 " clip-rule="nonzero"/></clipPath><clipPath id="a6b71143f3"><path d="M 268 767 L 274 767 L 274 959.265625 L 268 959.265625 Z M 268 767 " clip-rule="nonzero"/></clipPath><clipPath id="7e84bb16df"><path d="M 77.191406 559.515625 L 77.191406 940.484375 C 77.191406 951.253906 85.921875 959.984375 96.691406 959.984375 L 1403.308594 959.984375 C 1414.078125 959.984375 1422.808594 951.253906 1422.808594 940.484375 L 1422.808594 559.515625 C 1422.808594 548.746094 1414.078125 540.015625 1403.308594 540.015625 L 96.691406 540.015625 C 85.921875 540.015625 77.191406 548.746094 77.191406 559.515625 Z M 77.191406 559.515625 " clip-rule="nonzero"/></clipPath><clipPath id="4762c05d4d"><path d="M 97.589844 540.914062 L 1402.410156 540.914062 C 1413.179688 540.914062 1421.910156 549.644531 1421.910156 560.414062 L 1421.910156 939.585938 C 1421.910156 950.355469 1413.179688 959.085938 1402.410156 959.085938 L 97.589844 959.085938 C 86.820312 959.085938 78.089844 950.355469 78.089844 939.585938 L 78.089844 560.414062 C 78.089844 549.644531 86.820312 540.914062 97.589844 540.914062 Z M 97.589844 540.914062 " clip-rule="nonzero"/></clipPath><clipPath id="c50573888a"><path d="M 459 769 L 465 769 L 465 959.265625 L 459 959.265625 Z M 459 769 " clip-rule="nonzero"/></clipPath><clipPath id="06b61eb632"><path d="M 77.191406 559.515625 L 77.191406 940.484375 C 77.191406 951.253906 85.921875 959.984375 96.691406 959.984375 L 1403.308594 959.984375 C 1414.078125 959.984375 1422.808594 951.253906 1422.808594 940.484375 L 1422.808594 559.515625 C 1422.808594 548.746094 1414.078125 540.015625 1403.308594 540.015625 L 96.691406 540.015625 C 85.921875 540.015625 77.191406 548.746094 77.191406 559.515625 Z M 77.191406 559.515625 " clip-rule="nonzero"/></clipPath><clipPath id="2e98e5f215"><path d="M 97.589844 540.914062 L 1402.410156 540.914062 C 1413.179688 540.914062 1421.910156 549.644531 1421.910156 560.414062 L 1421.910156 939.585938 C 1421.910156 950.355469 1413.179688 959.085938 1402.410156 959.085938 L 97.589844 959.085938 C 86.820312 959.085938 78.089844 950.355469 78.089844 939.585938 L 78.089844 560.414062 C 78.089844 549.644531 86.820312 540.914062 97.589844 540.914062 Z M 97.589844 540.914062 " clip-rule="nonzero"/></clipPath><clipPath id="1e396b2ea5"><path d="M 553 769 L 560 769 L 560 959.265625 L 553 959.265625 Z M 553 769 " clip-rule="nonzero"/></clipPath><clipPath id="ef8d627a63"><path d="M 77.191406 559.515625 L 77.191406 940.484375 C 77.191406 951.253906 85.921875 959.984375 96.691406 959.984375 L 1403.308594 959.984375 C 1414.078125 959.984375 1422.808594 951.253906 1422.808594 940.484375 L 1422.808594 559.515625 C 1422.808594 548.746094 1414.078125 540.015625 1403.308594 540.015625 L 96.691406 540.015625 C 85.921875 540.015625 77.191406 548.746094 77.191406 559.515625 Z M 77.191406 559.515625 " clip-rule="nonzero"/></clipPath><clipPath id="059f15c0a6"><path d="M 97.589844 540.914062 L 1402.410156 540.914062 C 1413.179688 540.914062 1421.910156 549.644531 1421.910156 560.414062 L 1421.910156 939.585938 C 1421.910156 950.355469 1413.179688 959.085938 1402.410156 959.085938 L 97.589844 959.085938 C 86.820312 959.085938 78.089844 950.355469 78.089844 939.585938 L 78.089844 560.414062 C 78.089844 549.644531 86.820312 540.914062 97.589844 540.914062 Z M 97.589844 540.914062 " clip-rule="nonzero"/></clipPath><clipPath id="c19c782c9e"><path d="M 651 768 L 657 768 L 657 959.265625 L 651 959.265625 Z M 651 768 " clip-rule="nonzero"/></clipPath><clipPath id="5cf35d987a"><path d="M 77.191406 559.515625 L 77.191406 940.484375 C 77.191406 951.253906 85.921875 959.984375 96.691406 959.984375 L 1403.308594 959.984375 C 1414.078125 959.984375 1422.808594 951.253906 1422.808594 940.484375 L 1422.808594 559.515625 C 1422.808594 548.746094 1414.078125 540.015625 1403.308594 540.015625 L 96.691406 540.015625 C 85.921875 540.015625 77.191406 548.746094 77.191406 559.515625 Z M 77.191406 559.515625 " clip-rule="nonzero"/></clipPath><clipPath id="4cc86b64a2"><path d="M 97.589844 540.914062 L 1402.410156 540.914062 C 1413.179688 540.914062 1421.910156 549.644531 1421.910156 560.414062 L 1421.910156 939.585938 C 1421.910156 950.355469 1413.179688 959.085938 1402.410156 959.085938 L 97.589844 959.085938 C 86.820312 959.085938 78.089844 950.355469 78.089844 939.585938 L 78.089844 560.414062 C 78.089844 549.644531 86.820312 540.914062 97.589844 540.914062 Z M 97.589844 540.914062 " clip-rule="nonzero"/></clipPath><clipPath id="9e1d989015"><path d="M 363 540.765625 L 369 540.765625 L 369 959.265625 L 363 959.265625 Z M 363 540.765625 " clip-rule="nonzero"/></clipPath><clipPath id="8d01fe7b60"><path d="M 77.191406 559.515625 L 77.191406 940.484375 C 77.191406 951.253906 85.921875 959.984375 96.691406 959.984375 L 1403.308594 959.984375 C 1414.078125 959.984375 1422.808594 951.253906 1422.808594 940.484375 L 1422.808594 559.515625 C 1422.808594 548.746094 1414.078125 540.015625 1403.308594 540.015625 L 96.691406 540.015625 C 85.921875 540.015625 77.191406 548.746094 77.191406 559.515625 Z M 77.191406 559.515625 " clip-rule="nonzero"/></clipPath><clipPath id="4e67ec31f7"><path d="M 97.589844 540.914062 L 1402.410156 540.914062 C 1413.179688 540.914062 1421.910156 549.644531 1421.910156 560.414062 L 1421.910156 939.585938 C 1421.910156 950.355469 1413.179688 959.085938 1402.410156 959.085938 L 97.589844 959.085938 C 86.820312 959.085938 78.089844 950.355469 78.089844 939.585938 L 78.089844 560.414062 C 78.089844 549.644531 86.820312 540.914062 97.589844 540.914062 Z M 97.589844 540.914062 " clip-rule="nonzero"/></clipPath><clipPath id="443c9c1f21"><path d="M 157 552 L 198 552 L 198 774 L 157 774 Z M 157 552 " clip-rule="nonzero"/></clipPath><clipPath id="faf4510683"><path d="M 77.191406 559.515625 L 77.191406 940.484375 C 77.191406 951.253906 85.921875 959.984375 96.691406 959.984375 L 1403.308594 959.984375 C 1414.078125 959.984375 1422.808594 951.253906 1422.808594 940.484375 L 1422.808594 559.515625 C 1422.808594 548.746094 1414.078125 540.015625 1403.308594 540.015625 L 96.691406 540.015625 C 85.921875 540.015625 77.191406 548.746094 77.191406 559.515625 Z M 77.191406 559.515625 " clip-rule="nonzero"/></clipPath><clipPath id="64c09312b7"><path d="M 97.589844 540.914062 L 1402.410156 540.914062 C 1413.179688 540.914062 1421.910156 549.644531 1421.910156 560.414062 L 1421.910156 939.585938 C 1421.910156 950.355469 1413.179688 959.085938 1402.410156 959.085938 L 97.589844 959.085938 C 86.820312 959.085938 78.089844 950.355469 78.089844 939.585938 L 78.089844 560.414062 C 78.089844 549.644531 86.820312 540.914062 97.589844 540.914062 Z M 97.589844 540.914062 " clip-rule="nonzero"/></clipPath><clipPath id="b4333fd914"><path d="M 151 547 L 203 547 L 203 779 L 151 779 Z M 151 547 " clip-rule="nonzero"/></clipPath><clipPath id="363f133032"><path d="M 77.191406 559.515625 L 77.191406 940.484375 C 77.191406 951.253906 85.921875 959.984375 96.691406 959.984375 L 1403.308594 959.984375 C 1414.078125 959.984375 1422.808594 951.253906 1422.808594 940.484375 L 1422.808594 559.515625 C 1422.808594 548.746094 1414.078125 540.015625 1403.308594 540.015625 L 96.691406 540.015625 C 85.921875 540.015625 77.191406 548.746094 77.191406 559.515625 Z M 77.191406 559.515625 " clip-rule="nonzero"/></clipPath><clipPath id="e74b1dd304"><path d="M 97.589844 540.914062 L 1402.410156 540.914062 C 1413.179688 540.914062 1421.910156 549.644531 1421.910156 560.414062 L 1421.910156 939.585938 C 1421.910156 950.355469 1413.179688 959.085938 1402.410156 959.085938 L 97.589844 959.085938 C 86.820312 959.085938 78.089844 950.355469 78.089844 939.585938 L 78.089844 560.414062 C 78.089844 549.644531 86.820312 540.914062 97.589844 540.914062 Z M 97.589844 540.914062 " clip-rule="nonzero"/></clipPath><clipPath id="faad4bc6e4"><path d="M 823 542 L 872 542 L 872 780 L 823 780 Z M 823 542 " clip-rule="nonzero"/></clipPath><clipPath id="cb60eb094f"><path d="M 77.191406 559.515625 L 77.191406 940.484375 C 77.191406 951.253906 85.921875 959.984375 96.691406 959.984375 L 1403.308594 959.984375 C 1414.078125 959.984375 1422.808594 951.253906 1422.808594 940.484375 L 1422.808594 559.515625 C 1422.808594 548.746094 1414.078125 540.015625 1403.308594 540.015625 L 96.691406 540.015625 C 85.921875 540.015625 77.191406 548.746094 77.191406 559.515625 Z M 77.191406 559.515625 " clip-rule="nonzero"/></clipPath><clipPath id="a297aa6771"><path d="M 97.589844 540.914062 L 1402.410156 540.914062 C 1413.179688 540.914062 1421.910156 549.644531 1421.910156 560.414062 L 1421.910156 939.585938 C 1421.910156 950.355469 1413.179688 959.085938 1402.410156 959.085938 L 97.589844 959.085938 C 86.820312 959.085938 78.089844 950.355469 78.089844 939.585938 L 78.089844 560.414062 C 78.089844 549.644531 86.820312 540.914062 97.589844 540.914062 Z M 97.589844 540.914062 " clip-rule="nonzero"/></clipPath><clipPath id="9f805bcdcb"><path d="M 822 541 L 873 541 L 873 780 L 822 780 Z M 822 541 " clip-rule="nonzero"/></clipPath><clipPath id="21f64ec37d"><path d="M 77.191406 559.515625 L 77.191406 940.484375 C 77.191406 951.253906 85.921875 959.984375 96.691406 959.984375 L 1403.308594 959.984375 C 1414.078125 959.984375 1422.808594 951.253906 1422.808594 940.484375 L 1422.808594 559.515625 C 1422.808594 548.746094 1414.078125 540.015625 1403.308594 540.015625 L 96.691406 540.015625 C 85.921875 540.015625 77.191406 548.746094 77.191406 559.515625 Z M 77.191406 559.515625 " clip-rule="nonzero"/></clipPath><clipPath id="464931aa26"><path d="M 97.589844 540.914062 L 1402.410156 540.914062 C 1413.179688 540.914062 1421.910156 549.644531 1421.910156 560.414062 L 1421.910156 939.585938 C 1421.910156 950.355469 1413.179688 959.085938 1402.410156 959.085938 L 97.589844 959.085938 C 86.820312 959.085938 78.089844 950.355469 78.089844 939.585938 L 78.089844 560.414062 C 78.089844 549.644531 86.820312 540.914062 97.589844 540.914062 Z M 97.589844 540.914062 " clip-rule="nonzero"/></clipPath><clipPath id="7c99c156c0"><path d="M 918 542 L 967 542 L 967 780 L 918 780 Z M 918 542 " clip-rule="nonzero"/></clipPath><clipPath id="3b43a7448a"><path d="M 77.191406 559.515625 L 77.191406 940.484375 C 77.191406 951.253906 85.921875 959.984375 96.691406 959.984375 L 1403.308594 959.984375 C 1414.078125 959.984375 1422.808594 951.253906 1422.808594 940.484375 L 1422.808594 559.515625 C 1422.808594 548.746094 1414.078125 540.015625 1403.308594 540.015625 L 96.691406 540.015625 C 85.921875 540.015625 77.191406 548.746094 77.191406 559.515625 Z M 77.191406 559.515625 " clip-rule="nonzero"/></clipPath><clipPath id="0a26832258"><path d="M 97.589844 540.914062 L 1402.410156 540.914062 C 1413.179688 540.914062 1421.910156 549.644531 1421.910156 560.414062 L 1421.910156 939.585938 C 1421.910156 950.355469 1413.179688 959.085938 1402.410156 959.085938 L 97.589844 959.085938 C 86.820312 959.085938 78.089844 950.355469 78.089844 939.585938 L 78.089844 560.414062 C 78.089844 549.644531 86.820312 540.914062 97.589844 540.914062 Z M 97.589844 540.914062 " clip-rule="nonzero"/></clipPath><clipPath id="377ec764fb"><path d="M 918 541 L 968 541 L 968 780 L 918 780 Z M 918 541 " clip-rule="nonzero"/></clipPath><clipPath id="f9ff48c401"><path d="M 77.191406 559.515625 L 77.191406 940.484375 C 77.191406 951.253906 85.921875 959.984375 96.691406 959.984375 L 1403.308594 959.984375 C 1414.078125 959.984375 1422.808594 951.253906 1422.808594 940.484375 L 1422.808594 559.515625 C 1422.808594 548.746094 1414.078125 540.015625 1403.308594 540.015625 L 96.691406 540.015625 C 85.921875 540.015625 77.191406 548.746094 77.191406 559.515625 Z M 77.191406 559.515625 " clip-rule="nonzero"/></clipPath><clipPath id="a0cd84cecb"><path d="M 97.589844 540.914062 L 1402.410156 540.914062 C 1413.179688 540.914062 1421.910156 549.644531 1421.910156 560.414062 L 1421.910156 939.585938 C 1421.910156 950.355469 1413.179688 959.085938 1402.410156 959.085938 L 97.589844 959.085938 C 86.820312 959.085938 78.089844 950.355469 78.089844 939.585938 L 78.089844 560.414062 C 78.089844 549.644531 86.820312 540.914062 97.589844 540.914062 Z M 97.589844 540.914062 " clip-rule="nonzero"/></clipPath><clipPath id="dcde44c322"><path d="M 1109 541 L 1159 541 L 1159 779 L 1109 779 Z M 1109 541 " clip-rule="nonzero"/></clipPath><clipPath id="6d80798b96"><path d="M 77.191406 559.515625 L 77.191406 940.484375 C 77.191406 951.253906 85.921875 959.984375 96.691406 959.984375 L 1403.308594 959.984375 C 1414.078125 959.984375 1422.808594 951.253906 1422.808594 940.484375 L 1422.808594 559.515625 C 1422.808594 548.746094 1414.078125 540.015625 1403.308594 540.015625 L 96.691406 540.015625 C 85.921875 540.015625 77.191406 548.746094 77.191406 559.515625 Z M 77.191406 559.515625 " clip-rule="nonzero"/></clipPath><clipPath id="10cb8b6b1f"><path d="M 97.589844 540.914062 L 1402.410156 540.914062 C 1413.179688 540.914062 1421.910156 549.644531 1421.910156 560.414062 L 1421.910156 939.585938 C 1421.910156 950.355469 1413.179688 959.085938 1402.410156 959.085938 L 97.589844 959.085938 C 86.820312 959.085938 78.089844 950.355469 78.089844 939.585938 L 78.089844 560.414062 C 78.089844 549.644531 86.820312 540.914062 97.589844 540.914062 Z M 97.589844 540.914062 " clip-rule="nonzero"/></clipPath><clipPath id="2b4f5b2779"><path d="M 1109 541 L 1159 541 L 1159 780 L 1109 780 Z M 1109 541 " clip-rule="nonzero"/></clipPath><clipPath id="4290d1a5ce"><path d="M 77.191406 559.515625 L 77.191406 940.484375 C 77.191406 951.253906 85.921875 959.984375 96.691406 959.984375 L 1403.308594 959.984375 C 1414.078125 959.984375 1422.808594 951.253906 1422.808594 940.484375 L 1422.808594 559.515625 C 1422.808594 548.746094 1414.078125 540.015625 1403.308594 540.015625 L 96.691406 540.015625 C 85.921875 540.015625 77.191406 548.746094 77.191406 559.515625 Z M 77.191406 559.515625 " clip-rule="nonzero"/></clipPath><clipPath id="8ec42dc065"><path d="M 97.589844 540.914062 L 1402.410156 540.914062 C 1413.179688 540.914062 1421.910156 549.644531 1421.910156 560.414062 L 1421.910156 939.585938 C 1421.910156 950.355469 1413.179688 959.085938 1402.410156 959.085938 L 97.589844 959.085938 C 86.820312 959.085938 78.089844 950.355469 78.089844 939.585938 L 78.089844 560.414062 C 78.089844 549.644531 86.820312 540.914062 97.589844 540.914062 Z M 97.589844 540.914062 " clip-rule="nonzero"/></clipPath><clipPath id="3b26b2f5c8"><path d="M 1204 542 L 1254 542 L 1254 780 L 1204 780 Z M 1204 542 " clip-rule="nonzero"/></clipPath><clipPath id="8ce710d4b8"><path d="M 77.191406 559.515625 L 77.191406 940.484375 C 77.191406 951.253906 85.921875 959.984375 96.691406 959.984375 L 1403.308594 959.984375 C 1414.078125 959.984375 1422.808594 951.253906 1422.808594 940.484375 L 1422.808594 559.515625 C 1422.808594 548.746094 1414.078125 540.015625 1403.308594 540.015625 L 96.691406 540.015625 C 85.921875 540.015625 77.191406 548.746094 77.191406 559.515625 Z M 77.191406 559.515625 " clip-rule="nonzero"/></clipPath><clipPath id="e375bf6094"><path d="M 97.589844 540.914062 L 1402.410156 540.914062 C 1413.179688 540.914062 1421.910156 549.644531 1421.910156 560.414062 L 1421.910156 939.585938 C 1421.910156 950.355469 1413.179688 959.085938 1402.410156 959.085938 L 97.589844 959.085938 C 86.820312 959.085938 78.089844 950.355469 78.089844 939.585938 L 78.089844 560.414062 C 78.089844 549.644531 86.820312 540.914062 97.589844 540.914062 Z M 97.589844 540.914062 " clip-rule="nonzero"/></clipPath><clipPath id="d0dda2b2ec"><path d="M 1204 542 L 1254 542 L 1254 781 L 1204 781 Z M 1204 542 " clip-rule="nonzero"/></clipPath><clipPath id="d559fa035b"><path d="M 77.191406 559.515625 L 77.191406 940.484375 C 77.191406 951.253906 85.921875 959.984375 96.691406 959.984375 L 1403.308594 959.984375 C 1414.078125 959.984375 1422.808594 951.253906 1422.808594 940.484375 L 1422.808594 559.515625 C 1422.808594 548.746094 1414.078125 540.015625 1403.308594 540.015625 L 96.691406 540.015625 C 85.921875 540.015625 77.191406 548.746094 77.191406 559.515625 Z M 77.191406 559.515625 " clip-rule="nonzero"/></clipPath><clipPath id="48bd42fde6"><path d="M 97.589844 540.914062 L 1402.410156 540.914062 C 1413.179688 540.914062 1421.910156 549.644531 1421.910156 560.414062 L 1421.910156 939.585938 C 1421.910156 950.355469 1413.179688 959.085938 1402.410156 959.085938 L 97.589844 959.085938 C 86.820312 959.085938 78.089844 950.355469 78.089844 939.585938 L 78.089844 560.414062 C 78.089844 549.644531 86.820312 540.914062 97.589844 540.914062 Z M 97.589844 540.914062 " clip-rule="nonzero"/></clipPath><clipPath id="6221eb7b8f"><path d="M 1301 542 L 1350 542 L 1350 780 L 1301 780 Z M 1301 542 " clip-rule="nonzero"/></clipPath><clipPath id="bb58c4962f"><path d="M 77.191406 559.515625 L 77.191406 940.484375 C 77.191406 951.253906 85.921875 959.984375 96.691406 959.984375 L 1403.308594 959.984375 C 1414.078125 959.984375 1422.808594 951.253906 1422.808594 940.484375 L 1422.808594 559.515625 C 1422.808594 548.746094 1414.078125 540.015625 1403.308594 540.015625 L 96.691406 540.015625 C 85.921875 540.015625 77.191406 548.746094 77.191406 559.515625 Z M 77.191406 559.515625 " clip-rule="nonzero"/></clipPath><clipPath id="e9fc6eedf7"><path d="M 97.589844 540.914062 L 1402.410156 540.914062 C 1413.179688 540.914062 1421.910156 549.644531 1421.910156 560.414062 L 1421.910156 939.585938 C 1421.910156 950.355469 1413.179688 959.085938 1402.410156 959.085938 L 97.589844 959.085938 C 86.820312 959.085938 78.089844 950.355469 78.089844 939.585938 L 78.089844 560.414062 C 78.089844 549.644531 86.820312 540.914062 97.589844 540.914062 Z M 97.589844 540.914062 " clip-rule="nonzero"/></clipPath><clipPath id="ad7323847f"><path d="M 1301 541 L 1351 541 L 1351 780 L 1301 780 Z M 1301 541 " clip-rule="nonzero"/></clipPath><clipPath id="1071802bf2"><path d="M 77.191406 559.515625 L 77.191406 940.484375 C 77.191406 951.253906 85.921875 959.984375 96.691406 959.984375 L 1403.308594 959.984375 C 1414.078125 959.984375 1422.808594 951.253906 1422.808594 940.484375 L 1422.808594 559.515625 C 1422.808594 548.746094 1414.078125 540.015625 1403.308594 540.015625 L 96.691406 540.015625 C 85.921875 540.015625 77.191406 548.746094 77.191406 559.515625 Z M 77.191406 559.515625 " clip-rule="nonzero"/></clipPath><clipPath id="ea7d2ebbad"><path d="M 97.589844 540.914062 L 1402.410156 540.914062 C 1413.179688 540.914062 1421.910156 549.644531 1421.910156 560.414062 L 1421.910156 939.585938 C 1421.910156 950.355469 1413.179688 959.085938 1402.410156 959.085938 L 97.589844 959.085938 C 86.820312 959.085938 78.089844 950.355469 78.089844 939.585938 L 78.089844 560.414062 C 78.089844 549.644531 86.820312 540.914062 97.589844 540.914062 Z M 97.589844 540.914062 " clip-rule="nonzero"/></clipPath><clipPath id="f0196e0b8a"><path d="M 750 540.765625 L 1421.941406 540.765625 L 1421.941406 959 L 750 959 Z M 750 540.765625 " clip-rule="nonzero"/></clipPath><clipPath id="5b61cfd947"><path d="M 77.191406 559.515625 L 77.191406 940.484375 C 77.191406 951.253906 85.921875 959.984375 96.691406 959.984375 L 1403.308594 959.984375 C 1414.078125 959.984375 1422.808594 951.253906 1422.808594 940.484375 L 1422.808594 559.515625 C 1422.808594 548.746094 1414.078125 540.015625 1403.308594 540.015625 L 96.691406 540.015625 C 85.921875 540.015625 77.191406 548.746094 77.191406 559.515625 Z M 77.191406 559.515625 " clip-rule="nonzero"/></clipPath><clipPath id="40c793d728"><path d="M 97.589844 540.914062 L 1402.410156 540.914062 C 1413.179688 540.914062 1421.910156 549.644531 1421.910156 560.414062 L 1421.910156 939.585938 C 1421.910156 950.355469 1413.179688 959.085938 1402.410156 959.085938 L 97.589844 959.085938 C 86.820312 959.085938 78.089844 950.355469 78.089844 939.585938 L 78.089844 560.414062 C 78.089844 549.644531 86.820312 540.914062 97.589844 540.914062 Z M 97.589844 540.914062 " clip-rule="nonzero"/></clipPath><clipPath id="47dfe9b248"><path d="M 844 767 L 850 767 L 850 959.265625 L 844 959.265625 Z M 844 767 " clip-rule="nonzero"/></clipPath><clipPath id="4c9d196386"><path d="M 77.191406 559.515625 L 77.191406 940.484375 C 77.191406 951.253906 85.921875 959.984375 96.691406 959.984375 L 1403.308594 959.984375 C 1414.078125 959.984375 1422.808594 951.253906 1422.808594 940.484375 L 1422.808594 559.515625 C 1422.808594 548.746094 1414.078125 540.015625 1403.308594 540.015625 L 96.691406 540.015625 C 85.921875 540.015625 77.191406 548.746094 77.191406 559.515625 Z M 77.191406 559.515625 " clip-rule="nonzero"/></clipPath><clipPath id="b5ca9774b6"><path d="M 97.589844 540.914062 L 1402.410156 540.914062 C 1413.179688 540.914062 1421.910156 549.644531 1421.910156 560.414062 L 1421.910156 939.585938 C 1421.910156 950.355469 1413.179688 959.085938 1402.410156 959.085938 L 97.589844 959.085938 C 86.820312 959.085938 78.089844 950.355469 78.089844 939.585938 L 78.089844 560.414062 C 78.089844 549.644531 86.820312 540.914062 97.589844 540.914062 Z M 97.589844 540.914062 " clip-rule="nonzero"/></clipPath><clipPath id="48f9a75734"><path d="M 940 766 L 946 766 L 946 959 L 940 959 Z M 940 766 " clip-rule="nonzero"/></clipPath><clipPath id="308c700e0b"><path d="M 77.191406 559.515625 L 77.191406 940.484375 C 77.191406 951.253906 85.921875 959.984375 96.691406 959.984375 L 1403.308594 959.984375 C 1414.078125 959.984375 1422.808594 951.253906 1422.808594 940.484375 L 1422.808594 559.515625 C 1422.808594 548.746094 1414.078125 540.015625 1403.308594 540.015625 L 96.691406 540.015625 C 85.921875 540.015625 77.191406 548.746094 77.191406 559.515625 Z M 77.191406 559.515625 " clip-rule="nonzero"/></clipPath><clipPath id="443f9cdff1"><path d="M 97.589844 540.914062 L 1402.410156 540.914062 C 1413.179688 540.914062 1421.910156 549.644531 1421.910156 560.414062 L 1421.910156 939.585938 C 1421.910156 950.355469 1413.179688 959.085938 1402.410156 959.085938 L 97.589844 959.085938 C 86.820312 959.085938 78.089844 950.355469 78.089844 939.585938 L 78.089844 560.414062 C 78.089844 549.644531 86.820312 540.914062 97.589844 540.914062 Z M 97.589844 540.914062 " clip-rule="nonzero"/></clipPath><clipPath id="d010abc4dd"><path d="M 1131 767 L 1137 767 L 1137 959.265625 L 1131 959.265625 Z M 1131 767 " clip-rule="nonzero"/></clipPath><clipPath id="328e154f81"><path d="M 77.191406 559.515625 L 77.191406 940.484375 C 77.191406 951.253906 85.921875 959.984375 96.691406 959.984375 L 1403.308594 959.984375 C 1414.078125 959.984375 1422.808594 951.253906 1422.808594 940.484375 L 1422.808594 559.515625 C 1422.808594 548.746094 1414.078125 540.015625 1403.308594 540.015625 L 96.691406 540.015625 C 85.921875 540.015625 77.191406 548.746094 77.191406 559.515625 Z M 77.191406 559.515625 " clip-rule="nonzero"/></clipPath><clipPath id="cc0fba4d65"><path d="M 97.589844 540.914062 L 1402.410156 540.914062 C 1413.179688 540.914062 1421.910156 549.644531 1421.910156 560.414062 L 1421.910156 939.585938 C 1421.910156 950.355469 1413.179688 959.085938 1402.410156 959.085938 L 97.589844 959.085938 C 86.820312 959.085938 78.089844 950.355469 78.089844 939.585938 L 78.089844 560.414062 C 78.089844 549.644531 86.820312 540.914062 97.589844 540.914062 Z M 97.589844 540.914062 " clip-rule="nonzero"/></clipPath><clipPath id="ec67c64b64"><path d="M 1226 767 L 1232 767 L 1232 959.265625 L 1226 959.265625 Z M 1226 767 " clip-rule="nonzero"/></clipPath><clipPath id="24ad19f480"><path d="M 77.191406 559.515625 L 77.191406 940.484375 C 77.191406 951.253906 85.921875 959.984375 96.691406 959.984375 L 1403.308594 959.984375 C 1414.078125 959.984375 1422.808594 951.253906 1422.808594 940.484375 L 1422.808594 559.515625 C 1422.808594 548.746094 1414.078125 540.015625 1403.308594 540.015625 L 96.691406 540.015625 C 85.921875 540.015625 77.191406 548.746094 77.191406 559.515625 Z M 77.191406 559.515625 " clip-rule="nonzero"/></clipPath><clipPath id="cf29362a31"><path d="M 97.589844 540.914062 L 1402.410156 540.914062 C 1413.179688 540.914062 1421.910156 549.644531 1421.910156 560.414062 L 1421.910156 939.585938 C 1421.910156 950.355469 1413.179688 959.085938 1402.410156 959.085938 L 97.589844 959.085938 C 86.820312 959.085938 78.089844 950.355469 78.089844 939.585938 L 78.089844 560.414062 C 78.089844 549.644531 86.820312 540.914062 97.589844 540.914062 Z M 97.589844 540.914062 " clip-rule="nonzero"/></clipPath><clipPath id="bc1be61826"><path d="M 1323 767 L 1329 767 L 1329 959.265625 L 1323 959.265625 Z M 1323 767 " clip-rule="nonzero"/></clipPath><clipPath id="2c78ebc16d"><path d="M 77.191406 559.515625 L 77.191406 940.484375 C 77.191406 951.253906 85.921875 959.984375 96.691406 959.984375 L 1403.308594 959.984375 C 1414.078125 959.984375 1422.808594 951.253906 1422.808594 940.484375 L 1422.808594 559.515625 C 1422.808594 548.746094 1414.078125 540.015625 1403.308594 540.015625 L 96.691406 540.015625 C 85.921875 540.015625 77.191406 548.746094 77.191406 559.515625 Z M 77.191406 559.515625 " clip-rule="nonzero"/></clipPath><clipPath id="eb927cfe18"><path d="M 97.589844 540.914062 L 1402.410156 540.914062 C 1413.179688 540.914062 1421.910156 549.644531 1421.910156 560.414062 L 1421.910156 939.585938 C 1421.910156 950.355469 1413.179688 959.085938 1402.410156 959.085938 L 97.589844 959.085938 C 86.820312 959.085938 78.089844 950.355469 78.089844 939.585938 L 78.089844 560.414062 C 78.089844 549.644531 86.820312 540.914062 97.589844 540.914062 Z M 97.589844 540.914062 " clip-rule="nonzero"/></clipPath><clipPath id="bbf5681040"><path d="M 1036 540.765625 L 1042 540.765625 L 1042 959.265625 L 1036 959.265625 Z M 1036 540.765625 " clip-rule="nonzero"/></clipPath><clipPath id="09c6748fb0"><path d="M 77.191406 559.515625 L 77.191406 940.484375 C 77.191406 951.253906 85.921875 959.984375 96.691406 959.984375 L 1403.308594 959.984375 C 1414.078125 959.984375 1422.808594 951.253906 1422.808594 940.484375 L 1422.808594 559.515625 C 1422.808594 548.746094 1414.078125 540.015625 1403.308594 540.015625 L 96.691406 540.015625 C 85.921875 540.015625 77.191406 548.746094 77.191406 559.515625 Z M 77.191406 559.515625 " clip-rule="nonzero"/></clipPath><clipPath id="4870b716d6"><path d="M 97.589844 540.914062 L 1402.410156 540.914062 C 1413.179688 540.914062 1421.910156 549.644531 1421.910156 560.414062 L 1421.910156 939.585938 C 1421.910156 950.355469 1413.179688 959.085938 1402.410156 959.085938 L 97.589844 959.085938 C 86.820312 959.085938 78.089844 950.355469 78.089844 939.585938 L 78.089844 560.414062 C 78.089844 549.644531 86.820312 540.914062 97.589844 540.914062 Z M 97.589844 540.914062 " clip-rule="nonzero"/></clipPath><clipPath id="43695be5e8"><path d="M 251 549 L 292 549 L 292 771 L 251 771 Z M 251 549 " clip-rule="nonzero"/></clipPath><clipPath id="fbaf093517"><path d="M 77.191406 559.515625 L 77.191406 940.484375 C 77.191406 951.253906 85.921875 959.984375 96.691406 959.984375 L 1403.308594 959.984375 C 1414.078125 959.984375 1422.808594 951.253906 1422.808594 940.484375 L 1422.808594 559.515625 C 1422.808594 548.746094 1414.078125 540.015625 1403.308594 540.015625 L 96.691406 540.015625 C 85.921875 540.015625 77.191406 548.746094 77.191406 559.515625 Z M 77.191406 559.515625 " clip-rule="nonzero"/></clipPath><clipPath id="1d1ebec405"><path d="M 97.589844 540.914062 L 1402.410156 540.914062 C 1413.179688 540.914062 1421.910156 549.644531 1421.910156 560.414062 L 1421.910156 939.585938 C 1421.910156 950.355469 1413.179688 959.085938 1402.410156 959.085938 L 97.589844 959.085938 C 86.820312 959.085938 78.089844 950.355469 78.089844 939.585938 L 78.089844 560.414062 C 78.089844 549.644531 86.820312 540.914062 97.589844 540.914062 Z M 97.589844 540.914062 " clip-rule="nonzero"/></clipPath><clipPath id="34019925fa"><path d="M 246 544 L 298 544 L 298 777 L 246 777 Z M 246 544 " clip-rule="nonzero"/></clipPath><clipPath id="b9c692fb83"><path d="M 77.191406 559.515625 L 77.191406 940.484375 C 77.191406 951.253906 85.921875 959.984375 96.691406 959.984375 L 1403.308594 959.984375 C 1414.078125 959.984375 1422.808594 951.253906 1422.808594 940.484375 L 1422.808594 559.515625 C 1422.808594 548.746094 1414.078125 540.015625 1403.308594 540.015625 L 96.691406 540.015625 C 85.921875 540.015625 77.191406 548.746094 77.191406 559.515625 Z M 77.191406 559.515625 " clip-rule="nonzero"/></clipPath><clipPath id="65e8e25b71"><path d="M 97.589844 540.914062 L 1402.410156 540.914062 C 1413.179688 540.914062 1421.910156 549.644531 1421.910156 560.414062 L 1421.910156 939.585938 C 1421.910156 950.355469 1413.179688 959.085938 1402.410156 959.085938 L 97.589844 959.085938 C 86.820312 959.085938 78.089844 950.355469 78.089844 939.585938 L 78.089844 560.414062 C 78.089844 549.644531 86.820312 540.914062 97.589844 540.914062 Z M 97.589844 540.914062 " clip-rule="nonzero"/></clipPath><clipPath id="add62976e2"><path d="M 443 549 L 484 549 L 484 771 L 443 771 Z M 443 549 " clip-rule="nonzero"/></clipPath><clipPath id="df8df1679f"><path d="M 77.191406 559.515625 L 77.191406 940.484375 C 77.191406 951.253906 85.921875 959.984375 96.691406 959.984375 L 1403.308594 959.984375 C 1414.078125 959.984375 1422.808594 951.253906 1422.808594 940.484375 L 1422.808594 559.515625 C 1422.808594 548.746094 1414.078125 540.015625 1403.308594 540.015625 L 96.691406 540.015625 C 85.921875 540.015625 77.191406 548.746094 77.191406 559.515625 Z M 77.191406 559.515625 " clip-rule="nonzero"/></clipPath><clipPath id="a94fd76f0e"><path d="M 97.589844 540.914062 L 1402.410156 540.914062 C 1413.179688 540.914062 1421.910156 549.644531 1421.910156 560.414062 L 1421.910156 939.585938 C 1421.910156 950.355469 1413.179688 959.085938 1402.410156 959.085938 L 97.589844 959.085938 C 86.820312 959.085938 78.089844 950.355469 78.089844 939.585938 L 78.089844 560.414062 C 78.089844 549.644531 86.820312 540.914062 97.589844 540.914062 Z M 97.589844 540.914062 " clip-rule="nonzero"/></clipPath><clipPath id="e9b96f98b9"><path d="M 437 544 L 489 544 L 489 777 L 437 777 Z M 437 544 " clip-rule="nonzero"/></clipPath><clipPath id="271d3ae2f8"><path d="M 77.191406 559.515625 L 77.191406 940.484375 C 77.191406 951.253906 85.921875 959.984375 96.691406 959.984375 L 1403.308594 959.984375 C 1414.078125 959.984375 1422.808594 951.253906 1422.808594 940.484375 L 1422.808594 559.515625 C 1422.808594 548.746094 1414.078125 540.015625 1403.308594 540.015625 L 96.691406 540.015625 C 85.921875 540.015625 77.191406 548.746094 77.191406 559.515625 Z M 77.191406 559.515625 " clip-rule="nonzero"/></clipPath><clipPath id="9ba80a6d3e"><path d="M 97.589844 540.914062 L 1402.410156 540.914062 C 1413.179688 540.914062 1421.910156 549.644531 1421.910156 560.414062 L 1421.910156 939.585938 C 1421.910156 950.355469 1413.179688 959.085938 1402.410156 959.085938 L 97.589844 959.085938 C 86.820312 959.085938 78.089844 950.355469 78.089844 939.585938 L 78.089844 560.414062 C 78.089844 549.644531 86.820312 540.914062 97.589844 540.914062 Z M 97.589844 540.914062 " clip-rule="nonzero"/></clipPath><clipPath id="8926aa808a"><path d="M 537 551 L 578 551 L 578 773 L 537 773 Z M 537 551 " clip-rule="nonzero"/></clipPath><clipPath id="3106888dd4"><path d="M 77.191406 559.515625 L 77.191406 940.484375 C 77.191406 951.253906 85.921875 959.984375 96.691406 959.984375 L 1403.308594 959.984375 C 1414.078125 959.984375 1422.808594 951.253906 1422.808594 940.484375 L 1422.808594 559.515625 C 1422.808594 548.746094 1414.078125 540.015625 1403.308594 540.015625 L 96.691406 540.015625 C 85.921875 540.015625 77.191406 548.746094 77.191406 559.515625 Z M 77.191406 559.515625 " clip-rule="nonzero"/></clipPath><clipPath id="512d492b09"><path d="M 97.589844 540.914062 L 1402.410156 540.914062 C 1413.179688 540.914062 1421.910156 549.644531 1421.910156 560.414062 L 1421.910156 939.585938 C 1421.910156 950.355469 1413.179688 959.085938 1402.410156 959.085938 L 97.589844 959.085938 C 86.820312 959.085938 78.089844 950.355469 78.089844 939.585938 L 78.089844 560.414062 C 78.089844 549.644531 86.820312 540.914062 97.589844 540.914062 Z M 97.589844 540.914062 " clip-rule="nonzero"/></clipPath><clipPath id="1edcc67600"><path d="M 531 546 L 583 546 L 583 779 L 531 779 Z M 531 546 " clip-rule="nonzero"/></clipPath><clipPath id="1575f99af3"><path d="M 77.191406 559.515625 L 77.191406 940.484375 C 77.191406 951.253906 85.921875 959.984375 96.691406 959.984375 L 1403.308594 959.984375 C 1414.078125 959.984375 1422.808594 951.253906 1422.808594 940.484375 L 1422.808594 559.515625 C 1422.808594 548.746094 1414.078125 540.015625 1403.308594 540.015625 L 96.691406 540.015625 C 85.921875 540.015625 77.191406 548.746094 77.191406 559.515625 Z M 77.191406 559.515625 " clip-rule="nonzero"/></clipPath><clipPath id="5fae522b34"><path d="M 97.589844 540.914062 L 1402.410156 540.914062 C 1413.179688 540.914062 1421.910156 549.644531 1421.910156 560.414062 L 1421.910156 939.585938 C 1421.910156 950.355469 1413.179688 959.085938 1402.410156 959.085938 L 97.589844 959.085938 C 86.820312 959.085938 78.089844 950.355469 78.089844 939.585938 L 78.089844 560.414062 C 78.089844 549.644531 86.820312 540.914062 97.589844 540.914062 Z M 97.589844 540.914062 " clip-rule="nonzero"/></clipPath><clipPath id="b3ce7aea2e"><path d="M 634 551 L 675 551 L 675 773 L 634 773 Z M 634 551 " clip-rule="nonzero"/></clipPath><clipPath id="47b771bc2b"><path d="M 77.191406 559.515625 L 77.191406 940.484375 C 77.191406 951.253906 85.921875 959.984375 96.691406 959.984375 L 1403.308594 959.984375 C 1414.078125 959.984375 1422.808594 951.253906 1422.808594 940.484375 L 1422.808594 559.515625 C 1422.808594 548.746094 1414.078125 540.015625 1403.308594 540.015625 L 96.691406 540.015625 C 85.921875 540.015625 77.191406 548.746094 77.191406 559.515625 Z M 77.191406 559.515625 " clip-rule="nonzero"/></clipPath><clipPath id="f2f72ab7f7"><path d="M 97.589844 540.914062 L 1402.410156 540.914062 C 1413.179688 540.914062 1421.910156 549.644531 1421.910156 560.414062 L 1421.910156 939.585938 C 1421.910156 950.355469 1413.179688 959.085938 1402.410156 959.085938 L 97.589844 959.085938 C 86.820312 959.085938 78.089844 950.355469 78.089844 939.585938 L 78.089844 560.414062 C 78.089844 549.644531 86.820312 540.914062 97.589844 540.914062 Z M 97.589844 540.914062 " clip-rule="nonzero"/></clipPath><clipPath id="587d42a6f9"><path d="M 629 546 L 681 546 L 681 779 L 629 779 Z M 629 546 " clip-rule="nonzero"/></clipPath><clipPath id="387091550d"><path d="M 77.191406 559.515625 L 77.191406 940.484375 C 77.191406 951.253906 85.921875 959.984375 96.691406 959.984375 L 1403.308594 959.984375 C 1414.078125 959.984375 1422.808594 951.253906 1422.808594 940.484375 L 1422.808594 559.515625 C 1422.808594 548.746094 1414.078125 540.015625 1403.308594 540.015625 L 96.691406 540.015625 C 85.921875 540.015625 77.191406 548.746094 77.191406 559.515625 Z M 77.191406 559.515625 " clip-rule="nonzero"/></clipPath><clipPath id="6bcee10fd1"><path d="M 97.589844 540.914062 L 1402.410156 540.914062 C 1413.179688 540.914062 1421.910156 549.644531 1421.910156 560.414062 L 1421.910156 939.585938 C 1421.910156 950.355469 1413.179688 959.085938 1402.410156 959.085938 L 97.589844 959.085938 C 86.820312 959.085938 78.089844 950.355469 78.089844 939.585938 L 78.089844 560.414062 C 78.089844 549.644531 86.820312 540.914062 97.589844 540.914062 Z M 97.589844 540.914062 " clip-rule="nonzero"/></clipPath><clipPath id="85756b5178"><path d="M 827 548 L 868 548 L 868 770 L 827 770 Z M 827 548 " clip-rule="nonzero"/></clipPath><clipPath id="770136fcf5"><path d="M 77.191406 559.515625 L 77.191406 940.484375 C 77.191406 951.253906 85.921875 959.984375 96.691406 959.984375 L 1403.308594 959.984375 C 1414.078125 959.984375 1422.808594 951.253906 1422.808594 940.484375 L 1422.808594 559.515625 C 1422.808594 548.746094 1414.078125 540.015625 1403.308594 540.015625 L 96.691406 540.015625 C 85.921875 540.015625 77.191406 548.746094 77.191406 559.515625 Z M 77.191406 559.515625 " clip-rule="nonzero"/></clipPath><clipPath id="2089602ffb"><path d="M 97.589844 540.914062 L 1402.410156 540.914062 C 1413.179688 540.914062 1421.910156 549.644531 1421.910156 560.414062 L 1421.910156 939.585938 C 1421.910156 950.355469 1413.179688 959.085938 1402.410156 959.085938 L 97.589844 959.085938 C 86.820312 959.085938 78.089844 950.355469 78.089844 939.585938 L 78.089844 560.414062 C 78.089844 549.644531 86.820312 540.914062 97.589844 540.914062 Z M 97.589844 540.914062 " clip-rule="nonzero"/></clipPath><clipPath id="a20006ec33"><path d="M 822 542 L 874 542 L 874 775 L 822 775 Z M 822 542 " clip-rule="nonzero"/></clipPath><clipPath id="8b3dc0497e"><path d="M 77.191406 559.515625 L 77.191406 940.484375 C 77.191406 951.253906 85.921875 959.984375 96.691406 959.984375 L 1403.308594 959.984375 C 1414.078125 959.984375 1422.808594 951.253906 1422.808594 940.484375 L 1422.808594 559.515625 C 1422.808594 548.746094 1414.078125 540.015625 1403.308594 540.015625 L 96.691406 540.015625 C 85.921875 540.015625 77.191406 548.746094 77.191406 559.515625 Z M 77.191406 559.515625 " clip-rule="nonzero"/></clipPath><clipPath id="6b22389849"><path d="M 97.589844 540.914062 L 1402.410156 540.914062 C 1413.179688 540.914062 1421.910156 549.644531 1421.910156 560.414062 L 1421.910156 939.585938 C 1421.910156 950.355469 1413.179688 959.085938 1402.410156 959.085938 L 97.589844 959.085938 C 86.820312 959.085938 78.089844 950.355469 78.089844 939.585938 L 78.089844 560.414062 C 78.089844 549.644531 86.820312 540.914062 97.589844 540.914062 Z M 97.589844 540.914062 " clip-rule="nonzero"/></clipPath><clipPath id="180c682673"><path d="M 925 548 L 966 548 L 966 770 L 925 770 Z M 925 548 " clip-rule="nonzero"/></clipPath><clipPath id="9882a46541"><path d="M 77.191406 559.515625 L 77.191406 940.484375 C 77.191406 951.253906 85.921875 959.984375 96.691406 959.984375 L 1403.308594 959.984375 C 1414.078125 959.984375 1422.808594 951.253906 1422.808594 940.484375 L 1422.808594 559.515625 C 1422.808594 548.746094 1414.078125 540.015625 1403.308594 540.015625 L 96.691406 540.015625 C 85.921875 540.015625 77.191406 548.746094 77.191406 559.515625 Z M 77.191406 559.515625 " clip-rule="nonzero"/></clipPath><clipPath id="74e40ec1c0"><path d="M 97.589844 540.914062 L 1402.410156 540.914062 C 1413.179688 540.914062 1421.910156 549.644531 1421.910156 560.414062 L 1421.910156 939.585938 C 1421.910156 950.355469 1413.179688 959.085938 1402.410156 959.085938 L 97.589844 959.085938 C 86.820312 959.085938 78.089844 950.355469 78.089844 939.585938 L 78.089844 560.414062 C 78.089844 549.644531 86.820312 540.914062 97.589844 540.914062 Z M 97.589844 540.914062 " clip-rule="nonzero"/></clipPath><clipPath id="ad0b196b18"><path d="M 919 542 L 971 542 L 971 775 L 919 775 Z M 919 542 " clip-rule="nonzero"/></clipPath><clipPath id="a6bdcc001c"><path d="M 77.191406 559.515625 L 77.191406 940.484375 C 77.191406 951.253906 85.921875 959.984375 96.691406 959.984375 L 1403.308594 959.984375 C 1414.078125 959.984375 1422.808594 951.253906 1422.808594 940.484375 L 1422.808594 559.515625 C 1422.808594 548.746094 1414.078125 540.015625 1403.308594 540.015625 L 96.691406 540.015625 C 85.921875 540.015625 77.191406 548.746094 77.191406 559.515625 Z M 77.191406 559.515625 " clip-rule="nonzero"/></clipPath><clipPath id="0f0855d27f"><path d="M 97.589844 540.914062 L 1402.410156 540.914062 C 1413.179688 540.914062 1421.910156 549.644531 1421.910156 560.414062 L 1421.910156 939.585938 C 1421.910156 950.355469 1413.179688 959.085938 1402.410156 959.085938 L 97.589844 959.085938 C 86.820312 959.085938 78.089844 950.355469 78.089844 939.585938 L 78.089844 560.414062 C 78.089844 549.644531 86.820312 540.914062 97.589844 540.914062 Z M 97.589844 540.914062 " clip-rule="nonzero"/></clipPath><clipPath id="86a22ac4dc"><path d="M 1116 553 L 1157 553 L 1157 775 L 1116 775 Z M 1116 553 " clip-rule="nonzero"/></clipPath><clipPath id="af202b60ee"><path d="M 77.191406 559.515625 L 77.191406 940.484375 C 77.191406 951.253906 85.921875 959.984375 96.691406 959.984375 L 1403.308594 959.984375 C 1414.078125 959.984375 1422.808594 951.253906 1422.808594 940.484375 L 1422.808594 559.515625 C 1422.808594 548.746094 1414.078125 540.015625 1403.308594 540.015625 L 96.691406 540.015625 C 85.921875 540.015625 77.191406 548.746094 77.191406 559.515625 Z M 77.191406 559.515625 " clip-rule="nonzero"/></clipPath><clipPath id="66dc88d3e3"><path d="M 97.589844 540.914062 L 1402.410156 540.914062 C 1413.179688 540.914062 1421.910156 549.644531 1421.910156 560.414062 L 1421.910156 939.585938 C 1421.910156 950.355469 1413.179688 959.085938 1402.410156 959.085938 L 97.589844 959.085938 C 86.820312 959.085938 78.089844 950.355469 78.089844 939.585938 L 78.089844 560.414062 C 78.089844 549.644531 86.820312 540.914062 97.589844 540.914062 Z M 97.589844 540.914062 " clip-rule="nonzero"/></clipPath><clipPath id="74d1291eeb"><path d="M 1111 548 L 1162 548 L 1162 780 L 1111 780 Z M 1111 548 " clip-rule="nonzero"/></clipPath><clipPath id="d6ad67ff3a"><path d="M 77.191406 559.515625 L 77.191406 940.484375 C 77.191406 951.253906 85.921875 959.984375 96.691406 959.984375 L 1403.308594 959.984375 C 1414.078125 959.984375 1422.808594 951.253906 1422.808594 940.484375 L 1422.808594 559.515625 C 1422.808594 548.746094 1414.078125 540.015625 1403.308594 540.015625 L 96.691406 540.015625 C 85.921875 540.015625 77.191406 548.746094 77.191406 559.515625 Z M 77.191406 559.515625 " clip-rule="nonzero"/></clipPath><clipPath id="77331ae987"><path d="M 97.589844 540.914062 L 1402.410156 540.914062 C 1413.179688 540.914062 1421.910156 549.644531 1421.910156 560.414062 L 1421.910156 939.585938 C 1421.910156 950.355469 1413.179688 959.085938 1402.410156 959.085938 L 97.589844 959.085938 C 86.820312 959.085938 78.089844 950.355469 78.089844 939.585938 L 78.089844 560.414062 C 78.089844 549.644531 86.820312 540.914062 97.589844 540.914062 Z M 97.589844 540.914062 " clip-rule="nonzero"/></clipPath><clipPath id="1a03933cc4"><path d="M 1210 555 L 1251 555 L 1251 777 L 1210 777 Z M 1210 555 " clip-rule="nonzero"/></clipPath><clipPath id="b9318087b8"><path d="M 77.191406 559.515625 L 77.191406 940.484375 C 77.191406 951.253906 85.921875 959.984375 96.691406 959.984375 L 1403.308594 959.984375 C 1414.078125 959.984375 1422.808594 951.253906 1422.808594 940.484375 L 1422.808594 559.515625 C 1422.808594 548.746094 1414.078125 540.015625 1403.308594 540.015625 L 96.691406 540.015625 C 85.921875 540.015625 77.191406 548.746094 77.191406 559.515625 Z M 77.191406 559.515625 " clip-rule="nonzero"/></clipPath><clipPath id="8e7d4633e9"><path d="M 97.589844 540.914062 L 1402.410156 540.914062 C 1413.179688 540.914062 1421.910156 549.644531 1421.910156 560.414062 L 1421.910156 939.585938 C 1421.910156 950.355469 1413.179688 959.085938 1402.410156 959.085938 L 97.589844 959.085938 C 86.820312 959.085938 78.089844 950.355469 78.089844 939.585938 L 78.089844 560.414062 C 78.089844 549.644531 86.820312 540.914062 97.589844 540.914062 Z M 97.589844 540.914062 " clip-rule="nonzero"/></clipPath><clipPath id="d7cc01538e"><path d="M 1205 549 L 1256 549 L 1256 782 L 1205 782 Z M 1205 549 " clip-rule="nonzero"/></clipPath><clipPath id="c4802dc5da"><path d="M 77.191406 559.515625 L 77.191406 940.484375 C 77.191406 951.253906 85.921875 959.984375 96.691406 959.984375 L 1403.308594 959.984375 C 1414.078125 959.984375 1422.808594 951.253906 1422.808594 940.484375 L 1422.808594 559.515625 C 1422.808594 548.746094 1414.078125 540.015625 1403.308594 540.015625 L 96.691406 540.015625 C 85.921875 540.015625 77.191406 548.746094 77.191406 559.515625 Z M 77.191406 559.515625 " clip-rule="nonzero"/></clipPath><clipPath id="9ab3f6d859"><path d="M 97.589844 540.914062 L 1402.410156 540.914062 C 1413.179688 540.914062 1421.910156 549.644531 1421.910156 560.414062 L 1421.910156 939.585938 C 1421.910156 950.355469 1413.179688 959.085938 1402.410156 959.085938 L 97.589844 959.085938 C 86.820312 959.085938 78.089844 950.355469 78.089844 939.585938 L 78.089844 560.414062 C 78.089844 549.644531 86.820312 540.914062 97.589844 540.914062 Z M 97.589844 540.914062 " clip-rule="nonzero"/></clipPath><clipPath id="4d2a1362af"><path d="M 1306 553 L 1347 553 L 1347 775 L 1306 775 Z M 1306 553 " clip-rule="nonzero"/></clipPath><clipPath id="461c4e193a"><path d="M 77.191406 559.515625 L 77.191406 940.484375 C 77.191406 951.253906 85.921875 959.984375 96.691406 959.984375 L 1403.308594 959.984375 C 1414.078125 959.984375 1422.808594 951.253906 1422.808594 940.484375 L 1422.808594 559.515625 C 1422.808594 548.746094 1414.078125 540.015625 1403.308594 540.015625 L 96.691406 540.015625 C 85.921875 540.015625 77.191406 548.746094 77.191406 559.515625 Z M 77.191406 559.515625 " clip-rule="nonzero"/></clipPath><clipPath id="052ff4a1cc"><path d="M 97.589844 540.914062 L 1402.410156 540.914062 C 1413.179688 540.914062 1421.910156 549.644531 1421.910156 560.414062 L 1421.910156 939.585938 C 1421.910156 950.355469 1413.179688 959.085938 1402.410156 959.085938 L 97.589844 959.085938 C 86.820312 959.085938 78.089844 950.355469 78.089844 939.585938 L 78.089844 560.414062 C 78.089844 549.644531 86.820312 540.914062 97.589844 540.914062 Z M 97.589844 540.914062 " clip-rule="nonzero"/></clipPath><clipPath id="22b1f99465"><path d="M 1300 548 L 1352 548 L 1352 780 L 1300 780 Z M 1300 548 " clip-rule="nonzero"/></clipPath><clipPath id="26e3a500df"><path d="M 77.191406 559.515625 L 77.191406 940.484375 C 77.191406 951.253906 85.921875 959.984375 96.691406 959.984375 L 1403.308594 959.984375 C 1414.078125 959.984375 1422.808594 951.253906 1422.808594 940.484375 L 1422.808594 559.515625 C 1422.808594 548.746094 1414.078125 540.015625 1403.308594 540.015625 L 96.691406 540.015625 C 85.921875 540.015625 77.191406 548.746094 77.191406 559.515625 Z M 77.191406 559.515625 " clip-rule="nonzero"/></clipPath><clipPath id="0e8af05811"><path d="M 97.589844 540.914062 L 1402.410156 540.914062 C 1413.179688 540.914062 1421.910156 549.644531 1421.910156 560.414062 L 1421.910156 939.585938 C 1421.910156 950.355469 1413.179688 959.085938 1402.410156 959.085938 L 97.589844 959.085938 C 86.820312 959.085938 78.089844 950.355469 78.089844 939.585938 L 78.089844 560.414062 C 78.089844 549.644531 86.820312 540.914062 97.589844 540.914062 Z M 97.589844 540.914062 " clip-rule="nonzero"/></clipPath><clipPath id="2351c8345e"><path d="M 77.191406 540.015625 L 1422.691406 540.015625 L 1422.691406 960 L 77.191406 960 Z M 77.191406 540.015625 " clip-rule="nonzero"/></clipPath><clipPath id="370c9d141c"><path d="M 77.191406 559.515625 L 77.191406 940.484375 C 77.191406 951.253906 85.921875 959.984375 96.691406 959.984375 L 1403.308594 959.984375 C 1414.078125 959.984375 1422.808594 951.253906 1422.808594 940.484375 L 1422.808594 559.515625 C 1422.808594 548.746094 1414.078125 540.015625 1403.308594 540.015625 L 96.691406 540.015625 C 85.921875 540.015625 77.191406 548.746094 77.191406 559.515625 Z M 77.191406 559.515625 " clip-rule="nonzero"/></clipPath><clipPath id="7c27af3ce2"><path d="M 77.191406 559.515625 L 77.191406 940.480469 C 77.191406 951.25 85.921875 959.980469 96.691406 959.980469 L 1403.296875 959.980469 C 1414.066406 959.980469 1422.796875 951.25 1422.796875 940.480469 L 1422.796875 559.515625 C 1422.796875 548.746094 1414.066406 540.015625 1403.296875 540.015625 L 96.691406 540.015625 C 85.921875 540.015625 77.191406 548.746094 77.191406 559.515625 Z M 77.191406 559.515625 " clip-rule="nonzero"/></clipPath><clipPath id="6fade8234a"><path d="M 285.613281 871.261719 L 346.363281 871.261719 L 346.363281 932.011719 L 285.613281 932.011719 Z M 285.613281 871.261719 " clip-rule="nonzero"/></clipPath><clipPath id="faef76a0a6"><path d="M 670.652344 871.261719 L 731.402344 871.261719 L 731.402344 932.011719 L 670.652344 932.011719 Z M 670.652344 871.261719 " clip-rule="nonzero"/></clipPath><clipPath id="0533a45bdb"><path d="M 526.289062 702.433594 L 585.539062 702.433594 L 585.539062 761.683594 L 526.289062 761.683594 Z M 526.289062 702.433594 " clip-rule="nonzero"/></clipPath><clipPath id="5e25e64b0e"><path d="M 525.539062 732 C 525.539062 748.742188 539.113281 762.316406 555.855469 762.316406 C 572.597656 762.316406 586.171875 748.742188 586.171875 732 C 586.171875 715.257812 572.597656 701.683594 555.855469 701.683594 C 539.113281 701.683594 525.539062 715.257812 525.539062 732 Z M 525.539062 732 " clip-rule="nonzero"/></clipPath><clipPath id="df7f0abf86"><path d="M 555.855469 702.585938 C 572.101562 702.585938 585.269531 715.753906 585.269531 732 C 585.269531 748.246094 572.101562 761.414062 555.855469 761.414062 C 539.609375 761.414062 526.441406 748.246094 526.441406 732 C 526.441406 715.753906 539.609375 702.585938 555.855469 702.585938 Z M 555.855469 702.585938 " clip-rule="nonzero"/></clipPath><clipPath id="8deb2ee720"><path d="M 525.539062 701.683594 L 586.28125 701.683594 L 586.28125 762.425781 L 525.539062 762.425781 Z M 525.539062 701.683594 " clip-rule="nonzero"/></clipPath><clipPath id="e387bdeabb"><path d="M 525.539062 732 C 525.539062 748.742188 539.113281 762.316406 555.855469 762.316406 C 572.597656 762.316406 586.171875 748.742188 586.171875 732 C 586.171875 715.257812 572.597656 701.683594 555.855469 701.683594 C 539.113281 701.683594 525.539062 715.257812 525.539062 732 Z M 525.539062 732 " clip-rule="nonzero"/></clipPath><clipPath id="be3f317b89"><path d="M 525.539062 731.996094 C 525.539062 748.734375 539.109375 762.304688 555.851562 762.304688 C 572.589844 762.304688 586.160156 748.734375 586.160156 731.996094 C 586.160156 715.253906 572.589844 701.683594 555.851562 701.683594 C 539.109375 701.683594 525.539062 715.253906 525.539062 731.996094 Z M 525.539062 731.996094 " clip-rule="nonzero"/></clipPath></defs><g clip-path="url(#580a3ed414)"><g clip-path="url(#8b5e050cbd)"><g clip-path="url(#c6cfeecbdb)"><path fill="#000000" d="M 150.664062 543.847656 L 198.878906 543.847656 L 198.878906 780.875 L 150.664062 780.875 Z M 150.664062 543.847656 " fill-opacity="1" fill-rule="evenodd"/></g></g></g><g clip-path="url(#88c6f7ba87)"><g clip-path="url(#6794c5f09d)"><g clip-path="url(#e28348ba30)"><path stroke-linecap="butt" transform="matrix(0.932292, 0, 0, 0.926936, 47.487538, 386.843764)" fill="none" stroke-linejoin="miter" d="M 110.669807 169.379504 L 162.386295 169.379504 L 162.386295 425.090196 L 110.669807 425.090196 Z M 110.669807 169.379504 " stroke="#000000" stroke-width="1.207" stroke-opacity="1" stroke-miterlimit="4"/></g></g></g><g clip-path="url(#5d4b01c5c3)"><g clip-path="url(#1aa8f924a4)"><g clip-path="url(#fbedf666ba)"><path fill="#000000" d="M 246.121094 543.726562 L 294.335938 543.726562 L 294.335938 780.753906 L 246.121094 780.753906 Z M 246.121094 543.726562 " fill-opacity="1" fill-rule="evenodd"/></g></g></g><g clip-path="url(#261dc94514)"><g clip-path="url(#43246eda19)"><g clip-path="url(#a4d149f462)"><path stroke-linecap="butt" transform="matrix(0.932292, 0, 0, 0.926936, 47.487538, 386.843764)" fill="none" stroke-linejoin="miter" d="M 213.059486 169.248865 L 264.775974 169.248865 L 264.775974 424.959557 L 213.059486 424.959557 Z M 213.059486 169.248865 " stroke="#000000" stroke-width="1.207" stroke-opacity="1" stroke-miterlimit="4"/></g></g></g><g clip-path="url(#146b544807)"><g clip-path="url(#0c85ce15fa)"><g clip-path="url(#63e8802860)"><path fill="#000000" d="M 437.34375 543.253906 L 485.558594 543.253906 L 485.558594 780.28125 L 437.34375 780.28125 Z M 437.34375 543.253906 " fill-opacity="1" fill-rule="evenodd"/></g></g></g><g clip-path="url(#1f0a70773b)"><g clip-path="url(#6be1510002)"><g clip-path="url(#966a3c5f27)"><path stroke-linecap="butt" transform="matrix(0.932292, 0, 0, 0.926936, 47.487538, 386.843764)" fill="none" stroke-linejoin="miter" d="M 418.16985 168.738952 L 469.886338 168.738952 L 469.886338 424.449644 L 418.16985 424.449644 Z M 418.16985 168.738952 " stroke="#000000" stroke-width="1.207" stroke-opacity="1" stroke-miterlimit="4"/></g></g></g><g clip-path="url(#46c6619037)"><g clip-path="url(#fc537e692f)"><g clip-path="url(#0f994e3f02)"><path fill="#000000" d="M 532.25 544.199219 L 580.46875 544.199219 L 580.46875 781.226562 L 532.25 781.226562 Z M 532.25 544.199219 " fill-opacity="1" fill-rule="evenodd"/></g></g></g><g clip-path="url(#b60733aae7)"><g clip-path="url(#55ecbbc9cb)"><g clip-path="url(#08ad9eeef0)"><path stroke-linecap="butt" transform="matrix(0.932292, 0, 0, 0.926936, 47.487538, 386.843764)" fill="none" stroke-linejoin="miter" d="M 519.968747 169.758778 L 571.689425 169.758778 L 571.689425 425.46947 L 519.968747 425.46947 Z M 519.968747 169.758778 " stroke="#000000" stroke-width="1.207" stroke-opacity="1" stroke-miterlimit="4"/></g></g></g><g clip-path="url(#717bb4acdb)"><g clip-path="url(#7602563b3d)"><g clip-path="url(#f629dc3b3e)"><path fill="#000000" d="M 629.050781 543.726562 L 677.265625 543.726562 L 677.265625 780.753906 L 629.050781 780.753906 Z M 629.050781 543.726562 " fill-opacity="1" fill-rule="evenodd"/></g></g></g><g clip-path="url(#7c2c6bcec0)"><g clip-path="url(#1d38cbf86c)"><g clip-path="url(#2642db4d96)"><path stroke-linecap="butt" transform="matrix(0.932292, 0, 0, 0.926936, 47.487538, 386.843764)" fill="none" stroke-linejoin="miter" d="M 623.799767 169.248865 L 675.516255 169.248865 L 675.516255 424.959557 L 623.799767 424.959557 Z M 623.799767 169.248865 " stroke="#000000" stroke-width="1.207" stroke-opacity="1" stroke-miterlimit="4"/></g></g></g><g clip-path="url(#b64ae9960f)"><g clip-path="url(#3b18ca2586)"><g clip-path="url(#874b14d6e0)"><path stroke-linecap="butt" transform="matrix(0.932292, 0, 0, 0.926936, 47.487538, 386.843764)" fill="none" stroke-linejoin="miter" d="M 33.516165 167.950905 L 751.857048 167.950905 L 751.857048 617.091297 L 33.516165 617.091297 Z M 33.516165 167.950905 " stroke="#000000" stroke-width="2.375" stroke-opacity="1" stroke-miterlimit="4"/></g></g></g><g clip-path="url(#a15c8f29ea)"><g clip-path="url(#177d08ae8d)"><g clip-path="url(#4f9441e2cc)"><path stroke-linecap="butt" transform="matrix(2.142509, 0, 0, 2.142857, 65.302506, 525.657991)" fill="none" stroke-linejoin="miter" d="M 50.74467 114.680717 L 50.74467 202.135159 " stroke="#000000" stroke-width="2.375" stroke-opacity="1" stroke-miterlimit="4"/></g></g></g><g clip-path="url(#a6b71143f3)"><g clip-path="url(#7e84bb16df)"><g clip-path="url(#4762c05d4d)"><path stroke-linecap="butt" transform="matrix(2.142509, 0, 0, 2.142857, 65.302506, 525.657991)" fill="none" stroke-linejoin="miter" d="M 95.847303 114.259623 L 95.847303 201.715888 " stroke="#000000" stroke-width="2.375" stroke-opacity="1" stroke-miterlimit="4"/></g></g></g><g clip-path="url(#c50573888a)"><g clip-path="url(#06b61eb632)"><g clip-path="url(#2e98e5f215)"><path stroke-linecap="butt" transform="matrix(2.142509, 0, 0, 2.142857, 65.302506, 525.657991)" fill="none" stroke-linejoin="miter" d="M 184.960464 114.839311 L 184.960464 202.295576 " stroke="#000000" stroke-width="2.375" stroke-opacity="1" stroke-miterlimit="4"/></g></g></g><g clip-path="url(#1e396b2ea5)"><g clip-path="url(#ef8d627a63)"><g clip-path="url(#059f15c0a6)"><path stroke-linecap="butt" transform="matrix(2.142509, 0, 0, 2.142857, 65.302506, 525.657991)" fill="none" stroke-linejoin="miter" d="M 229.269999 114.839311 L 229.269999 202.295576 " stroke="#000000" stroke-width="2.375" stroke-opacity="1" stroke-miterlimit="4"/></g></g></g><g clip-path="url(#c19c782c9e)"><g clip-path="url(#5cf35d987a)"><g clip-path="url(#4cc86b64a2)"><path stroke-linecap="butt" transform="matrix(2.142509, 0, 0, 2.142857, 65.302506, 525.657991)" fill="none" stroke-linejoin="miter" d="M 274.689871 114.520301 L 274.689871 201.976565 " stroke="#000000" stroke-width="2.375" stroke-opacity="1" stroke-miterlimit="4"/></g></g></g><g clip-path="url(#9e1d989015)"><g clip-path="url(#8d01fe7b60)"><g clip-path="url(#4e67ec31f7)"><path stroke-linecap="butt" transform="matrix(2.142509, 0, 0, 2.142857, 65.302506, 525.657991)" fill="none" stroke-linejoin="miter" d="M 140.350099 8.069241 L 140.350099 201.949222 " stroke="#000000" stroke-width="2.375" stroke-opacity="1" stroke-miterlimit="4"/></g></g></g><g clip-path="url(#443c9c1f21)"><g clip-path="url(#faf4510683)"><g clip-path="url(#64c09312b7)"><path fill="#000000" d="M 157.082031 552.585938 L 197.097656 552.585938 L 197.097656 773.582031 L 157.082031 773.582031 Z M 157.082031 552.585938 " fill-opacity="1" fill-rule="nonzero"/></g></g></g><g clip-path="url(#b4333fd914)"><g clip-path="url(#363f133032)"><g clip-path="url(#e74b1dd304)"><path stroke-linecap="butt" transform="matrix(2.142509, 0, 0, 2.142857, 65.302506, 525.657991)" fill="none" stroke-linejoin="miter" d="M 42.837398 12.566377 L 61.514387 12.566377 L 61.514387 115.697905 L 42.837398 115.697905 Z M 42.837398 12.566377 " stroke="#000000" stroke-width="5" stroke-opacity="1" stroke-miterlimit="4"/></g></g></g><g clip-path="url(#faad4bc6e4)"><g clip-path="url(#cb60eb094f)"><g clip-path="url(#a297aa6771)"><path fill="#000000" d="M 823.230469 542.382812 L 871.445312 542.382812 L 871.445312 779.410156 L 823.230469 779.410156 Z M 823.230469 542.382812 " fill-opacity="1" fill-rule="evenodd"/></g></g></g><g clip-path="url(#9f805bcdcb)"><g clip-path="url(#21f64ec37d)"><g clip-path="url(#464931aa26)"><path stroke-linecap="butt" transform="matrix(0.932292, 0, 0, 0.926936, 47.487538, 386.843764)" fill="none" stroke-linejoin="miter" d="M 832.08192 167.799196 L 883.798407 167.799196 L 883.798407 423.509888 L 832.08192 423.509888 Z M 832.08192 167.799196 " stroke="#000000" stroke-width="1.207" stroke-opacity="1" stroke-miterlimit="4"/></g></g></g><g clip-path="url(#7c99c156c0)"><g clip-path="url(#3b43a7448a)"><g clip-path="url(#0a26832258)"><path fill="#000000" d="M 918.6875 542.261719 L 966.902344 542.261719 L 966.902344 779.289062 L 918.6875 779.289062 Z M 918.6875 542.261719 " fill-opacity="1" fill-rule="evenodd"/></g></g></g><g clip-path="url(#377ec764fb)"><g clip-path="url(#f9ff48c401)"><g clip-path="url(#a0cd84cecb)"><path stroke-linecap="butt" transform="matrix(0.932292, 0, 0, 0.926936, 47.487538, 386.843764)" fill="none" stroke-linejoin="miter" d="M 934.471599 167.668557 L 986.188087 167.668557 L 986.188087 423.379249 L 934.471599 423.379249 Z M 934.471599 167.668557 " stroke="#000000" stroke-width="1.207" stroke-opacity="1" stroke-miterlimit="4"/></g></g></g><g clip-path="url(#dcde44c322)"><g clip-path="url(#6d80798b96)"><g clip-path="url(#10cb8b6b1f)"><path fill="#000000" d="M 1109.925781 541.800781 L 1158.144531 541.800781 L 1158.144531 778.828125 L 1109.925781 778.828125 Z M 1109.925781 541.800781 " fill-opacity="1" fill-rule="evenodd"/></g></g></g><g clip-path="url(#2b4f5b2779)"><g clip-path="url(#4290d1a5ce)"><g clip-path="url(#8ec42dc065)"><path stroke-linecap="butt" transform="matrix(0.932292, 0, 0, 0.926936, 47.487538, 386.843764)" fill="none" stroke-linejoin="miter" d="M 1139.598723 167.171287 L 1191.3194 167.171287 L 1191.3194 422.881979 L 1139.598723 422.881979 Z M 1139.598723 167.171287 " stroke="#000000" stroke-width="1.207" stroke-opacity="1" stroke-miterlimit="4"/></g></g></g><g clip-path="url(#3b26b2f5c8)"><g clip-path="url(#8ce710d4b8)"><g clip-path="url(#e375bf6094)"><path fill="#000000" d="M 1204.835938 542.734375 L 1253.050781 542.734375 L 1253.050781 779.761719 L 1204.835938 779.761719 Z M 1204.835938 542.734375 " fill-opacity="1" fill-rule="evenodd"/></g></g></g><g clip-path="url(#d0dda2b2ec)"><g clip-path="url(#d559fa035b)"><g clip-path="url(#48bd42fde6)"><path stroke-linecap="butt" transform="matrix(0.932292, 0, 0, 0.926936, 47.487538, 386.843764)" fill="none" stroke-linejoin="miter" d="M 1241.40181 168.17847 L 1293.118297 168.17847 L 1293.118297 423.889162 L 1241.40181 423.889162 Z M 1241.40181 168.17847 " stroke="#000000" stroke-width="1.207" stroke-opacity="1" stroke-miterlimit="4"/></g></g></g><g clip-path="url(#6221eb7b8f)"><g clip-path="url(#bb58c4962f)"><g clip-path="url(#e9fc6eedf7)"><path fill="#000000" d="M 1301.605469 542.261719 L 1349.824219 542.261719 L 1349.824219 779.289062 L 1301.605469 779.289062 Z M 1301.605469 542.261719 " fill-opacity="1" fill-rule="evenodd"/></g></g></g><g clip-path="url(#ad7323847f)"><g clip-path="url(#1071802bf2)"><g clip-path="url(#ea7d2ebbad)"><path stroke-linecap="butt" transform="matrix(0.932292, 0, 0, 0.926936, 47.487538, 386.843764)" fill="none" stroke-linejoin="miter" d="M 1345.19931 167.668557 L 1396.919988 167.668557 L 1396.919988 423.379249 L 1345.19931 423.379249 Z M 1345.19931 167.668557 " stroke="#000000" stroke-width="1.207" stroke-opacity="1" stroke-miterlimit="4"/></g></g></g><g clip-path="url(#f0196e0b8a)"><g clip-path="url(#5b61cfd947)"><g clip-path="url(#40c793d728)"><path stroke-linecap="butt" transform="matrix(0.932292, 0, 0, 0.926936, 47.487538, 386.843764)" fill="none" stroke-linejoin="miter" d="M 754.919898 166.370597 L 1473.260781 166.370597 L 1473.260781 615.510989 L 754.919898 615.510989 Z M 754.919898 166.370597 " stroke="#000000" stroke-width="2.375" stroke-opacity="1" stroke-miterlimit="4"/></g></g></g><g clip-path="url(#47dfe9b248)"><g clip-path="url(#4c9d196386)"><g clip-path="url(#b5ca9774b6)"><path stroke-linecap="butt" transform="matrix(2.142509, 0, 0, 2.142857, 65.302506, 525.657991)" fill="none" stroke-linejoin="miter" d="M 364.659941 114.000769 L 364.659941 201.455211 " stroke="#000000" stroke-width="2.375" stroke-opacity="1" stroke-miterlimit="4"/></g></g></g><g clip-path="url(#48f9a75734)"><g clip-path="url(#308c700e0b)"><g clip-path="url(#443f9cdff1)"><path stroke-linecap="butt" transform="matrix(2.142509, 0, 0, 2.142857, 65.302506, 525.657991)" fill="none" stroke-linejoin="miter" d="M 409.760751 113.579675 L 409.760751 201.03594 " stroke="#000000" stroke-width="2.375" stroke-opacity="1" stroke-miterlimit="4"/></g></g></g><g clip-path="url(#d010abc4dd)"><g clip-path="url(#328e154f81)"><g clip-path="url(#cc0fba4d65)"><path stroke-linecap="butt" transform="matrix(2.142509, 0, 0, 2.142857, 65.302506, 525.657991)" fill="none" stroke-linejoin="miter" d="M 498.870265 114.150248 L 498.870265 201.606513 " stroke="#000000" stroke-width="2.375" stroke-opacity="1" stroke-miterlimit="4"/></g></g></g><g clip-path="url(#ec67c64b64)"><g clip-path="url(#24ad19f480)"><g clip-path="url(#cf29362a31)"><path stroke-linecap="butt" transform="matrix(2.142509, 0, 0, 2.142857, 65.302506, 525.657991)" fill="none" stroke-linejoin="miter" d="M 543.19074 114.150248 L 543.19074 201.606513 " stroke="#000000" stroke-width="2.375" stroke-opacity="1" stroke-miterlimit="4"/></g></g></g><g clip-path="url(#bc1be61826)"><g clip-path="url(#2c78ebc16d)"><g clip-path="url(#eb927cfe18)"><path stroke-linecap="butt" transform="matrix(2.142509, 0, 0, 2.142857, 65.302506, 525.657991)" fill="none" stroke-linejoin="miter" d="M 588.599672 113.840353 L 588.599672 201.296617 " stroke="#000000" stroke-width="2.375" stroke-opacity="1" stroke-miterlimit="4"/></g></g></g><g clip-path="url(#bbf5681040)"><g clip-path="url(#09c6748fb0)"><g clip-path="url(#4870b716d6)"><path stroke-linecap="butt" transform="matrix(2.142509, 0, 0, 2.142857, 65.302506, 525.657991)" fill="none" stroke-linejoin="miter" d="M 454.2599 7.38747 L 454.2599 201.267451 " stroke="#000000" stroke-width="2.375" stroke-opacity="1" stroke-miterlimit="4"/></g></g></g><g clip-path="url(#43695be5e8)"><g clip-path="url(#fbaf093517)"><g clip-path="url(#1d1ebec405)"><path fill="#000000" d="M 251.898438 549.980469 L 291.914062 549.980469 L 291.914062 770.972656 L 251.898438 770.972656 Z M 251.898438 549.980469 " fill-opacity="1" fill-rule="nonzero"/></g></g></g><g clip-path="url(#34019925fa)"><g clip-path="url(#b9c692fb83)"><g clip-path="url(#65e8e25b71)"><path stroke-linecap="butt" transform="matrix(2.142509, 0, 0, 2.142857, 65.302506, 525.657991)" fill="none" stroke-linejoin="miter" d="M 87.092236 11.350492 L 105.769226 11.350492 L 105.769226 114.480196 L 87.092236 114.480196 Z M 87.092236 11.350492 " stroke="#000000" stroke-width="5" stroke-opacity="1" stroke-miterlimit="4"/></g></g></g><g clip-path="url(#add62976e2)"><g clip-path="url(#df8df1679f)"><g clip-path="url(#a94fd76f0e)"><path fill="#000000" d="M 443.285156 549.980469 L 483.300781 549.980469 L 483.300781 770.972656 L 443.285156 770.972656 Z M 443.285156 549.980469 " fill-opacity="1" fill-rule="nonzero"/></g></g></g><g clip-path="url(#e9b96f98b9)"><g clip-path="url(#271d3ae2f8)"><g clip-path="url(#9ba80a6d3e)"><path stroke-linecap="butt" transform="matrix(2.142509, 0, 0, 2.142857, 65.302506, 525.657991)" fill="none" stroke-linejoin="miter" d="M 176.420536 11.350492 L 195.097526 11.350492 L 195.097526 114.480196 L 176.420536 114.480196 Z M 176.420536 11.350492 " stroke="#000000" stroke-width="5" stroke-opacity="1" stroke-miterlimit="4"/></g></g></g><g clip-path="url(#8926aa808a)"><g clip-path="url(#3106888dd4)"><g clip-path="url(#512d492b09)"><path fill="#000000" d="M 537.234375 551.71875 L 577.25 551.71875 L 577.25 772.710938 L 537.234375 772.710938 Z M 537.234375 551.71875 " fill-opacity="1" fill-rule="nonzero"/></g></g></g><g clip-path="url(#1edcc67600)"><g clip-path="url(#1575f99af3)"><g clip-path="url(#5fae522b34)"><path stroke-linecap="butt" transform="matrix(2.142509, 0, 0, 2.142857, 65.302506, 525.657991)" fill="none" stroke-linejoin="miter" d="M 220.270622 12.16169 L 238.947611 12.16169 L 238.947611 115.291395 L 220.270622 115.291395 Z M 220.270622 12.16169 " stroke="#000000" stroke-width="5" stroke-opacity="1" stroke-miterlimit="4"/></g></g></g><g clip-path="url(#b3ce7aea2e)"><g clip-path="url(#47b771bc2b)"><g clip-path="url(#f2f72ab7f7)"><path fill="#000000" d="M 634.652344 551.71875 L 674.667969 551.71875 L 674.667969 772.710938 L 634.652344 772.710938 Z M 634.652344 551.71875 " fill-opacity="1" fill-rule="nonzero"/></g></g></g><g clip-path="url(#587d42a6f9)"><g clip-path="url(#387091550d)"><g clip-path="url(#6bcee10fd1)"><path stroke-linecap="butt" transform="matrix(2.142509, 0, 0, 2.142857, 65.302506, 525.657991)" fill="none" stroke-linejoin="miter" d="M 265.73972 12.16169 L 284.41671 12.16169 L 284.41671 115.291395 L 265.73972 115.291395 Z M 265.73972 12.16169 " stroke="#000000" stroke-width="5" stroke-opacity="1" stroke-miterlimit="4"/></g></g></g><g clip-path="url(#85756b5178)"><g clip-path="url(#770136fcf5)"><g clip-path="url(#2089602ffb)"><path fill="#000000" d="M 827.777344 548.238281 L 867.792969 548.238281 L 867.792969 769.230469 L 827.777344 769.230469 Z M 827.777344 548.238281 " fill-opacity="1" fill-rule="nonzero"/></g></g></g><g clip-path="url(#a20006ec33)"><g clip-path="url(#8b3dc0497e)"><g clip-path="url(#6b22389849)"><path stroke-linecap="butt" transform="matrix(2.142509, 0, 0, 2.142857, 65.302506, 525.657991)" fill="none" stroke-linejoin="miter" d="M 355.87935 10.537471 L 374.556339 10.537471 L 374.556339 113.667175 L 355.87935 113.667175 Z M 355.87935 10.537471 " stroke="#000000" stroke-width="5" stroke-opacity="1" stroke-miterlimit="4"/></g></g></g><g clip-path="url(#180c682673)"><g clip-path="url(#9882a46541)"><g clip-path="url(#74e40ec1c0)"><path fill="#000000" d="M 925.21875 548.238281 L 965.234375 548.238281 L 965.234375 769.230469 L 925.21875 769.230469 Z M 925.21875 548.238281 " fill-opacity="1" fill-rule="nonzero"/></g></g></g><g clip-path="url(#ad0b196b18)"><g clip-path="url(#a6bdcc001c)"><g clip-path="url(#0f0855d27f)"><path stroke-linecap="butt" transform="matrix(2.142509, 0, 0, 2.142857, 65.302506, 525.657991)" fill="none" stroke-linejoin="miter" d="M 401.359387 10.537471 L 420.036377 10.537471 L 420.036377 113.667175 L 401.359387 113.667175 Z M 401.359387 10.537471 " stroke="#000000" stroke-width="5" stroke-opacity="1" stroke-miterlimit="4"/></g></g></g><g clip-path="url(#86a22ac4dc)"><g clip-path="url(#af202b60ee)"><g clip-path="url(#66dc88d3e3)"><path fill="#000000" d="M 1116.589844 553.460938 L 1156.605469 553.460938 L 1156.605469 774.453125 L 1116.589844 774.453125 Z M 1116.589844 553.460938 " fill-opacity="1" fill-rule="nonzero"/></g></g></g><g clip-path="url(#74d1291eeb)"><g clip-path="url(#d6ad67ff3a)"><g clip-path="url(#77331ae987)"><path stroke-linecap="butt" transform="matrix(2.142509, 0, 0, 2.142857, 65.302506, 525.657991)" fill="none" stroke-linejoin="miter" d="M 490.680394 12.974711 L 509.357384 12.974711 L 509.357384 116.104415 L 490.680394 116.104415 Z M 490.680394 12.974711 " stroke="#000000" stroke-width="5" stroke-opacity="1" stroke-miterlimit="4"/></g></g></g><g clip-path="url(#1a03933cc4)"><g clip-path="url(#b9318087b8)"><g clip-path="url(#8e7d4633e9)"><path fill="#000000" d="M 1210.539062 555.199219 L 1250.554688 555.199219 L 1250.554688 776.191406 L 1210.539062 776.191406 Z M 1210.539062 555.199219 " fill-opacity="1" fill-rule="nonzero"/></g></g></g><g clip-path="url(#d7cc01538e)"><g clip-path="url(#c4802dc5da)"><g clip-path="url(#9ab3f6d859)"><path stroke-linecap="butt" transform="matrix(2.142509, 0, 0, 2.142857, 65.302506, 525.657991)" fill="none" stroke-linejoin="miter" d="M 534.53048 13.785909 L 553.20747 13.785909 L 553.20747 116.915614 L 534.53048 116.915614 Z M 534.53048 13.785909 " stroke="#000000" stroke-width="5" stroke-opacity="1" stroke-miterlimit="4"/></g></g></g><g clip-path="url(#4d2a1362af)"><g clip-path="url(#461c4e193a)"><g clip-path="url(#052ff4a1cc)"><path fill="#000000" d="M 1306.242188 553.460938 L 1346.257812 553.460938 L 1346.257812 774.453125 L 1306.242188 774.453125 Z M 1306.242188 553.460938 " fill-opacity="1" fill-rule="nonzero"/></g></g></g><g clip-path="url(#22b1f99465)"><g clip-path="url(#26e3a500df)"><g clip-path="url(#0e8af05811)"><path stroke-linecap="butt" transform="matrix(2.142509, 0, 0, 2.142857, 65.302506, 525.657991)" fill="none" stroke-linejoin="miter" d="M 579.199188 12.974711 L 597.876178 12.974711 L 597.876178 116.104415 L 579.199188 116.104415 Z M 579.199188 12.974711 " stroke="#000000" stroke-width="5" stroke-opacity="1" stroke-miterlimit="4"/></g></g></g><g clip-path="url(#2351c8345e)"><g clip-path="url(#370c9d141c)"><g clip-path="url(#7c27af3ce2)"><path stroke-linecap="butt" transform="matrix(0.75, 0, 0, 0.75, 77.19158, 540.015101)" fill="none" stroke-linejoin="miter" d="M -0.000231002 26.0007 L -0.000231002 533.953869 C -0.000231002 548.313245 11.640396 559.953871 25.999773 559.953871 L 1768.140659 559.953871 C 1782.500037 559.953871 1794.140663 548.313245 1794.140663 533.953869 L 1794.140663 26.0007 C 1794.140663 11.641324 1782.500037 0.000698018 1768.140659 0.000698018 L 25.999773 0.000698018 C 11.640396 0.000698018 -0.000231002 11.641324 -0.000231002 26.0007 Z M -0.000231002 26.0007 " stroke="#000000" stroke-width="10" stroke-opacity="1" stroke-miterlimit="4"/></g></g></g><g clip-path="url(#6fade8234a)"><path fill="#000000" d="M 315.988281 871.261719 C 299.207031 871.261719 285.613281 884.851562 285.613281 901.636719 C 285.613281 918.417969 299.207031 932.011719 315.988281 932.011719 C 332.769531 932.011719 346.363281 918.417969 346.363281 901.636719 C 346.363281 884.851562 332.769531 871.261719 315.988281 871.261719 Z M 315.988281 871.261719 " fill-opacity="1" fill-rule="nonzero"/></g><g clip-path="url(#faef76a0a6)"><path fill="#000000" d="M 701.027344 871.261719 C 684.242188 871.261719 670.652344 884.851562 670.652344 901.636719 C 670.652344 918.417969 684.242188 932.011719 701.027344 932.011719 C 717.808594 932.011719 731.402344 918.417969 731.402344 901.636719 C 731.402344 884.851562 717.808594 871.261719 701.027344 871.261719 Z M 701.027344 871.261719 " fill-opacity="1" fill-rule="nonzero"/></g><g clip-path="url(#0533a45bdb)"><g clip-path="url(#5e25e64b0e)"><g clip-path="url(#df7f0abf86)"><path fill="#ffffff" d="M 555.851562 701.683594 C 539.105469 701.683594 525.539062 715.25 525.539062 731.996094 C 525.539062 748.742188 539.105469 762.304688 555.851562 762.304688 C 572.597656 762.304688 586.160156 748.742188 586.160156 731.996094 C 586.160156 715.25 572.597656 701.683594 555.851562 701.683594 Z M 555.851562 701.683594 " fill-opacity="1" fill-rule="nonzero"/></g></g></g><g clip-path="url(#8deb2ee720)"><g clip-path="url(#e387bdeabb)"><g clip-path="url(#be3f317b89)"><path stroke-linecap="butt" transform="matrix(0.75, 0, 0, 0.75, 525.540036, 701.684968)" fill="none" stroke-linejoin="miter" d="M -0.00129811 40.414838 C -0.00129811 62.732549 18.092453 80.8263 40.415372 80.8263 C 62.733082 80.8263 80.826834 62.732549 80.826834 40.414838 C 80.826834 18.09192 62.733082 -0.00183175 40.415372 -0.00183175 C 18.092453 -0.00183175 -0.00129811 18.09192 -0.00129811 40.414838 Z M -0.00129811 40.414838 " stroke="#000000" stroke-width="14" stroke-opacity="1" stroke-miterlimit="4"/></g></g></g></svg>