<svg xmlns="http://www.w3.org/2000/svg" xmlns:xlink="http://www.w3.org/1999/xlink" width="2000" zoomAndPan="magnify" viewBox="0 0 1500 1499.999933" height="2000" preserveAspectRatio="xMidYMid meet" version="1.0"><defs><clipPath id="7e22459f54"><path d="M 150 543 L 199 543 L 199 781 L 150 781 Z M 150 543 " clip-rule="nonzero"/></clipPath><clipPath id="37e8ea86c3"><path d="M 77.191406 559.515625 L 77.191406 940.484375 C 77.191406 951.253906 85.921875 959.984375 96.691406 959.984375 L 1403.308594 959.984375 C 1414.078125 959.984375 1422.808594 951.253906 1422.808594 940.484375 L 1422.808594 559.515625 C 1422.808594 548.746094 1414.078125 540.015625 1403.308594 540.015625 L 96.691406 540.015625 C 85.921875 540.015625 77.191406 548.746094 77.191406 559.515625 Z M 77.191406 559.515625 " clip-rule="nonzero"/></clipPath><clipPath id="fb41010825"><path d="M 97.589844 540.914062 L 1402.410156 540.914062 C 1413.179688 540.914062 1421.910156 549.644531 1421.910156 560.414062 L 1421.910156 939.585938 C 1421.910156 950.355469 1413.179688 959.085938 1402.410156 959.085938 L 97.589844 959.085938 C 86.820312 959.085938 78.089844 950.355469 78.089844 939.585938 L 78.089844 560.414062 C 78.089844 549.644531 86.820312 540.914062 97.589844 540.914062 Z M 97.589844 540.914062 " clip-rule="nonzero"/></clipPath><clipPath id="d9a078c766"><path d="M 150 543 L 200 543 L 200 782 L 150 782 Z M 150 543 " clip-rule="nonzero"/></clipPath><clipPath id="2687f18bf2"><path d="M 77.191406 559.515625 L 77.191406 940.484375 C 77.191406 951.253906 85.921875 959.984375 96.691406 959.984375 L 1403.308594 959.984375 C 1414.078125 959.984375 1422.808594 951.253906 1422.808594 940.484375 L 1422.808594 559.515625 C 1422.808594 548.746094 1414.078125 540.015625 1403.308594 540.015625 L 96.691406 540.015625 C 85.921875 540.015625 77.191406 548.746094 77.191406 559.515625 Z M 77.191406 559.515625 " clip-rule="nonzero"/></clipPath><clipPath id="3ef424173c"><path d="M 97.589844 540.914062 L 1402.410156 540.914062 C 1413.179688 540.914062 1421.910156 549.644531 1421.910156 560.414062 L 1421.910156 939.585938 C 1421.910156 950.355469 1413.179688 959.085938 1402.410156 959.085938 L 97.589844 959.085938 C 86.820312 959.085938 78.089844 950.355469 78.089844 939.585938 L 78.089844 560.414062 C 78.089844 549.644531 86.820312 540.914062 97.589844 540.914062 Z M 97.589844 540.914062 " clip-rule="nonzero"/></clipPath><clipPath id="6ea39e0394"><path d="M 246 543 L 295 543 L 295 781 L 246 781 Z M 246 543 " clip-rule="nonzero"/></clipPath><clipPath id="3d032ffd40"><path d="M 77.191406 559.515625 L 77.191406 940.484375 C 77.191406 951.253906 85.921875 959.984375 96.691406 959.984375 L 1403.308594 959.984375 C 1414.078125 959.984375 1422.808594 951.253906 1422.808594 940.484375 L 1422.808594 559.515625 C 1422.808594 548.746094 1414.078125 540.015625 1403.308594 540.015625 L 96.691406 540.015625 C 85.921875 540.015625 77.191406 548.746094 77.191406 559.515625 Z M 77.191406 559.515625 " clip-rule="nonzero"/></clipPath><clipPath id="643b976615"><path d="M 97.589844 540.914062 L 1402.410156 540.914062 C 1413.179688 540.914062 1421.910156 549.644531 1421.910156 560.414062 L 1421.910156 939.585938 C 1421.910156 950.355469 1413.179688 959.085938 1402.410156 959.085938 L 97.589844 959.085938 C 86.820312 959.085938 78.089844 950.355469 78.089844 939.585938 L 78.089844 560.414062 C 78.089844 549.644531 86.820312 540.914062 97.589844 540.914062 Z M 97.589844 540.914062 " clip-rule="nonzero"/></clipPath><clipPath id="1f517d1336"><path d="M 245 543 L 295 543 L 295 782 L 245 782 Z M 245 543 " clip-rule="nonzero"/></clipPath><clipPath id="f5dbcbd98a"><path d="M 77.191406 559.515625 L 77.191406 940.484375 C 77.191406 951.253906 85.921875 959.984375 96.691406 959.984375 L 1403.308594 959.984375 C 1414.078125 959.984375 1422.808594 951.253906 1422.808594 940.484375 L 1422.808594 559.515625 C 1422.808594 548.746094 1414.078125 540.015625 1403.308594 540.015625 L 96.691406 540.015625 C 85.921875 540.015625 77.191406 548.746094 77.191406 559.515625 Z M 77.191406 559.515625 " clip-rule="nonzero"/></clipPath><clipPath id="3eb05ac083"><path d="M 97.589844 540.914062 L 1402.410156 540.914062 C 1413.179688 540.914062 1421.910156 549.644531 1421.910156 560.414062 L 1421.910156 939.585938 C 1421.910156 950.355469 1413.179688 959.085938 1402.410156 959.085938 L 97.589844 959.085938 C 86.820312 959.085938 78.089844 950.355469 78.089844 939.585938 L 78.089844 560.414062 C 78.089844 549.644531 86.820312 540.914062 97.589844 540.914062 Z M 97.589844 540.914062 " clip-rule="nonzero"/></clipPath><clipPath id="fa89322b29"><path d="M 437 543 L 486 543 L 486 781 L 437 781 Z M 437 543 " clip-rule="nonzero"/></clipPath><clipPath id="f1a60e0e0b"><path d="M 77.191406 559.515625 L 77.191406 940.484375 C 77.191406 951.253906 85.921875 959.984375 96.691406 959.984375 L 1403.308594 959.984375 C 1414.078125 959.984375 1422.808594 951.253906 1422.808594 940.484375 L 1422.808594 559.515625 C 1422.808594 548.746094 1414.078125 540.015625 1403.308594 540.015625 L 96.691406 540.015625 C 85.921875 540.015625 77.191406 548.746094 77.191406 559.515625 Z M 77.191406 559.515625 " clip-rule="nonzero"/></clipPath><clipPath id="567d3c1c87"><path d="M 97.589844 540.914062 L 1402.410156 540.914062 C 1413.179688 540.914062 1421.910156 549.644531 1421.910156 560.414062 L 1421.910156 939.585938 C 1421.910156 950.355469 1413.179688 959.085938 1402.410156 959.085938 L 97.589844 959.085938 C 86.820312 959.085938 78.089844 950.355469 78.089844 939.585938 L 78.089844 560.414062 C 78.089844 549.644531 86.820312 540.914062 97.589844 540.914062 Z M 97.589844 540.914062 " clip-rule="nonzero"/></clipPath><clipPath id="9ed6cd3a23"><path d="M 436 542 L 487 542 L 487 781 L 436 781 Z M 436 542 " clip-rule="nonzero"/></clipPath><clipPath id="dc6e21b461"><path d="M 77.191406 559.515625 L 77.191406 940.484375 C 77.191406 951.253906 85.921875 959.984375 96.691406 959.984375 L 1403.308594 959.984375 C 1414.078125 959.984375 1422.808594 951.253906 1422.808594 940.484375 L 1422.808594 559.515625 C 1422.808594 548.746094 1414.078125 540.015625 1403.308594 540.015625 L 96.691406 540.015625 C 85.921875 540.015625 77.191406 548.746094 77.191406 559.515625 Z M 77.191406 559.515625 " clip-rule="nonzero"/></clipPath><clipPath id="a595aaed73"><path d="M 97.589844 540.914062 L 1402.410156 540.914062 C 1413.179688 540.914062 1421.910156 549.644531 1421.910156 560.414062 L 1421.910156 939.585938 C 1421.910156 950.355469 1413.179688 959.085938 1402.410156 959.085938 L 97.589844 959.085938 C 86.820312 959.085938 78.089844 950.355469 78.089844 939.585938 L 78.089844 560.414062 C 78.089844 549.644531 86.820312 540.914062 97.589844 540.914062 Z M 97.589844 540.914062 " clip-rule="nonzero"/></clipPath><clipPath id="1cdcbd0684"><path d="M 532 544 L 581 544 L 581 782 L 532 782 Z M 532 544 " clip-rule="nonzero"/></clipPath><clipPath id="490da4302d"><path d="M 77.191406 559.515625 L 77.191406 940.484375 C 77.191406 951.253906 85.921875 959.984375 96.691406 959.984375 L 1403.308594 959.984375 C 1414.078125 959.984375 1422.808594 951.253906 1422.808594 940.484375 L 1422.808594 559.515625 C 1422.808594 548.746094 1414.078125 540.015625 1403.308594 540.015625 L 96.691406 540.015625 C 85.921875 540.015625 77.191406 548.746094 77.191406 559.515625 Z M 77.191406 559.515625 " clip-rule="nonzero"/></clipPath><clipPath id="c407c3c4c1"><path d="M 97.589844 540.914062 L 1402.410156 540.914062 C 1413.179688 540.914062 1421.910156 549.644531 1421.910156 560.414062 L 1421.910156 939.585938 C 1421.910156 950.355469 1413.179688 959.085938 1402.410156 959.085938 L 97.589844 959.085938 C 86.820312 959.085938 78.089844 950.355469 78.089844 939.585938 L 78.089844 560.414062 C 78.089844 549.644531 86.820312 540.914062 97.589844 540.914062 Z M 97.589844 540.914062 " clip-rule="nonzero"/></clipPath><clipPath id="c8170b983e"><path d="M 531 543 L 582 543 L 582 782 L 531 782 Z M 531 543 " clip-rule="nonzero"/></clipPath><clipPath id="1ad2ef17a5"><path d="M 77.191406 559.515625 L 77.191406 940.484375 C 77.191406 951.253906 85.921875 959.984375 96.691406 959.984375 L 1403.308594 959.984375 C 1414.078125 959.984375 1422.808594 951.253906 1422.808594 940.484375 L 1422.808594 559.515625 C 1422.808594 548.746094 1414.078125 540.015625 1403.308594 540.015625 L 96.691406 540.015625 C 85.921875 540.015625 77.191406 548.746094 77.191406 559.515625 Z M 77.191406 559.515625 " clip-rule="nonzero"/></clipPath><clipPath id="42dd11f7f4"><path d="M 97.589844 540.914062 L 1402.410156 540.914062 C 1413.179688 540.914062 1421.910156 549.644531 1421.910156 560.414062 L 1421.910156 939.585938 C 1421.910156 950.355469 1413.179688 959.085938 1402.410156 959.085938 L 97.589844 959.085938 C 86.820312 959.085938 78.089844 950.355469 78.089844 939.585938 L 78.089844 560.414062 C 78.089844 549.644531 86.820312 540.914062 97.589844 540.914062 Z M 97.589844 540.914062 " clip-rule="nonzero"/></clipPath><clipPath id="c0b4078e1b"><path d="M 629 543 L 678 543 L 678 781 L 629 781 Z M 629 543 " clip-rule="nonzero"/></clipPath><clipPath id="e7d84a66ec"><path d="M 77.191406 559.515625 L 77.191406 940.484375 C 77.191406 951.253906 85.921875 959.984375 96.691406 959.984375 L 1403.308594 959.984375 C 1414.078125 959.984375 1422.808594 951.253906 1422.808594 940.484375 L 1422.808594 559.515625 C 1422.808594 548.746094 1414.078125 540.015625 1403.308594 540.015625 L 96.691406 540.015625 C 85.921875 540.015625 77.191406 548.746094 77.191406 559.515625 Z M 77.191406 559.515625 " clip-rule="nonzero"/></clipPath><clipPath id="7f85dbadb9"><path d="M 97.589844 540.914062 L 1402.410156 540.914062 C 1413.179688 540.914062 1421.910156 549.644531 1421.910156 560.414062 L 1421.910156 939.585938 C 1421.910156 950.355469 1413.179688 959.085938 1402.410156 959.085938 L 97.589844 959.085938 C 86.820312 959.085938 78.089844 950.355469 78.089844 939.585938 L 78.089844 560.414062 C 78.089844 549.644531 86.820312 540.914062 97.589844 540.914062 Z M 97.589844 540.914062 " clip-rule="nonzero"/></clipPath><clipPath id="0696d6b4d8"><path d="M 628 543 L 678 543 L 678 782 L 628 782 Z M 628 543 " clip-rule="nonzero"/></clipPath><clipPath id="d95da835b9"><path d="M 77.191406 559.515625 L 77.191406 940.484375 C 77.191406 951.253906 85.921875 959.984375 96.691406 959.984375 L 1403.308594 959.984375 C 1414.078125 959.984375 1422.808594 951.253906 1422.808594 940.484375 L 1422.808594 559.515625 C 1422.808594 548.746094 1414.078125 540.015625 1403.308594 540.015625 L 96.691406 540.015625 C 85.921875 540.015625 77.191406 548.746094 77.191406 559.515625 Z M 77.191406 559.515625 " clip-rule="nonzero"/></clipPath><clipPath id="a3f8941e6b"><path d="M 97.589844 540.914062 L 1402.410156 540.914062 C 1413.179688 540.914062 1421.910156 549.644531 1421.910156 560.414062 L 1421.910156 939.585938 C 1421.910156 950.355469 1413.179688 959.085938 1402.410156 959.085938 L 97.589844 959.085938 C 86.820312 959.085938 78.089844 950.355469 78.089844 939.585938 L 78.089844 560.414062 C 78.089844 549.644531 86.820312 540.914062 97.589844 540.914062 Z M 97.589844 540.914062 " clip-rule="nonzero"/></clipPath><clipPath id="7df8a23828"><path d="M 78 541 L 750 541 L 750 959.265625 L 78 959.265625 Z M 78 541 " clip-rule="nonzero"/></clipPath><clipPath id="46e953124b"><path d="M 77.191406 559.515625 L 77.191406 940.484375 C 77.191406 951.253906 85.921875 959.984375 96.691406 959.984375 L 1403.308594 959.984375 C 1414.078125 959.984375 1422.808594 951.253906 1422.808594 940.484375 L 1422.808594 559.515625 C 1422.808594 548.746094 1414.078125 540.015625 1403.308594 540.015625 L 96.691406 540.015625 C 85.921875 540.015625 77.191406 548.746094 77.191406 559.515625 Z M 77.191406 559.515625 " clip-rule="nonzero"/></clipPath><clipPath id="efb69cb3d2"><path d="M 97.589844 540.914062 L 1402.410156 540.914062 C 1413.179688 540.914062 1421.910156 549.644531 1421.910156 560.414062 L 1421.910156 939.585938 C 1421.910156 950.355469 1413.179688 959.085938 1402.410156 959.085938 L 97.589844 959.085938 C 86.820312 959.085938 78.089844 950.355469 78.089844 939.585938 L 78.089844 560.414062 C 78.089844 549.644531 86.820312 540.914062 97.589844 540.914062 Z M 97.589844 540.914062 " clip-rule="nonzero"/></clipPath><clipPath id="63979df0d0"><path d="M 171 768 L 177 768 L 177 959.265625 L 171 959.265625 Z M 171 768 " clip-rule="nonzero"/></clipPath><clipPath id="80e323bc7d"><path d="M 77.191406 559.515625 L 77.191406 940.484375 C 77.191406 951.253906 85.921875 959.984375 96.691406 959.984375 L 1403.308594 959.984375 C 1414.078125 959.984375 1422.808594 951.253906 1422.808594 940.484375 L 1422.808594 559.515625 C 1422.808594 548.746094 1414.078125 540.015625 1403.308594 540.015625 L 96.691406 540.015625 C 85.921875 540.015625 77.191406 548.746094 77.191406 559.515625 Z M 77.191406 559.515625 " clip-rule="nonzero"/></clipPath><clipPath id="c6711200ee"><path d="M 97.589844 540.914062 L 1402.410156 540.914062 C 1413.179688 540.914062 1421.910156 549.644531 1421.910156 560.414062 L 1421.910156 939.585938 C 1421.910156 950.355469 1413.179688 959.085938 1402.410156 959.085938 L 97.589844 959.085938 C 86.820312 959.085938 78.089844 950.355469 78.089844 939.585938 L 78.089844 560.414062 C 78.089844 549.644531 86.820312 540.914062 97.589844 540.914062 Z M 97.589844 540.914062 " clip-rule="nonzero"/></clipPath><clipPath id="9aa2937488"><path d="M 268 767 L 274 767 L 274 959.265625 L 268 959.265625 Z M 268 767 " clip-rule="nonzero"/></clipPath><clipPath id="13abf0507c"><path d="M 77.191406 559.515625 L 77.191406 940.484375 C 77.191406 951.253906 85.921875 959.984375 96.691406 959.984375 L 1403.308594 959.984375 C 1414.078125 959.984375 1422.808594 951.253906 1422.808594 940.484375 L 1422.808594 559.515625 C 1422.808594 548.746094 1414.078125 540.015625 1403.308594 540.015625 L 96.691406 540.015625 C 85.921875 540.015625 77.191406 548.746094 77.191406 559.515625 Z M 77.191406 559.515625 " clip-rule="nonzero"/></clipPath><clipPath id="0d696edbba"><path d="M 97.589844 540.914062 L 1402.410156 540.914062 C 1413.179688 540.914062 1421.910156 549.644531 1421.910156 560.414062 L 1421.910156 939.585938 C 1421.910156 950.355469 1413.179688 959.085938 1402.410156 959.085938 L 97.589844 959.085938 C 86.820312 959.085938 78.089844 950.355469 78.089844 939.585938 L 78.089844 560.414062 C 78.089844 549.644531 86.820312 540.914062 97.589844 540.914062 Z M 97.589844 540.914062 " clip-rule="nonzero"/></clipPath><clipPath id="be69aa6bee"><path d="M 459 769 L 465 769 L 465 959.265625 L 459 959.265625 Z M 459 769 " clip-rule="nonzero"/></clipPath><clipPath id="f240c3be1b"><path d="M 77.191406 559.515625 L 77.191406 940.484375 C 77.191406 951.253906 85.921875 959.984375 96.691406 959.984375 L 1403.308594 959.984375 C 1414.078125 959.984375 1422.808594 951.253906 1422.808594 940.484375 L 1422.808594 559.515625 C 1422.808594 548.746094 1414.078125 540.015625 1403.308594 540.015625 L 96.691406 540.015625 C 85.921875 540.015625 77.191406 548.746094 77.191406 559.515625 Z M 77.191406 559.515625 " clip-rule="nonzero"/></clipPath><clipPath id="e6cf9d0e88"><path d="M 97.589844 540.914062 L 1402.410156 540.914062 C 1413.179688 540.914062 1421.910156 549.644531 1421.910156 560.414062 L 1421.910156 939.585938 C 1421.910156 950.355469 1413.179688 959.085938 1402.410156 959.085938 L 97.589844 959.085938 C 86.820312 959.085938 78.089844 950.355469 78.089844 939.585938 L 78.089844 560.414062 C 78.089844 549.644531 86.820312 540.914062 97.589844 540.914062 Z M 97.589844 540.914062 " clip-rule="nonzero"/></clipPath><clipPath id="538f6a7157"><path d="M 553 769 L 560 769 L 560 959.265625 L 553 959.265625 Z M 553 769 " clip-rule="nonzero"/></clipPath><clipPath id="5365059a01"><path d="M 77.191406 559.515625 L 77.191406 940.484375 C 77.191406 951.253906 85.921875 959.984375 96.691406 959.984375 L 1403.308594 959.984375 C 1414.078125 959.984375 1422.808594 951.253906 1422.808594 940.484375 L 1422.808594 559.515625 C 1422.808594 548.746094 1414.078125 540.015625 1403.308594 540.015625 L 96.691406 540.015625 C 85.921875 540.015625 77.191406 548.746094 77.191406 559.515625 Z M 77.191406 559.515625 " clip-rule="nonzero"/></clipPath><clipPath id="b5e9e43398"><path d="M 97.589844 540.914062 L 1402.410156 540.914062 C 1413.179688 540.914062 1421.910156 549.644531 1421.910156 560.414062 L 1421.910156 939.585938 C 1421.910156 950.355469 1413.179688 959.085938 1402.410156 959.085938 L 97.589844 959.085938 C 86.820312 959.085938 78.089844 950.355469 78.089844 939.585938 L 78.089844 560.414062 C 78.089844 549.644531 86.820312 540.914062 97.589844 540.914062 Z M 97.589844 540.914062 " clip-rule="nonzero"/></clipPath><clipPath id="b3b59bc887"><path d="M 651 768 L 657 768 L 657 959.265625 L 651 959.265625 Z M 651 768 " clip-rule="nonzero"/></clipPath><clipPath id="ca7f60a03a"><path d="M 77.191406 559.515625 L 77.191406 940.484375 C 77.191406 951.253906 85.921875 959.984375 96.691406 959.984375 L 1403.308594 959.984375 C 1414.078125 959.984375 1422.808594 951.253906 1422.808594 940.484375 L 1422.808594 559.515625 C 1422.808594 548.746094 1414.078125 540.015625 1403.308594 540.015625 L 96.691406 540.015625 C 85.921875 540.015625 77.191406 548.746094 77.191406 559.515625 Z M 77.191406 559.515625 " clip-rule="nonzero"/></clipPath><clipPath id="178e187425"><path d="M 97.589844 540.914062 L 1402.410156 540.914062 C 1413.179688 540.914062 1421.910156 549.644531 1421.910156 560.414062 L 1421.910156 939.585938 C 1421.910156 950.355469 1413.179688 959.085938 1402.410156 959.085938 L 97.589844 959.085938 C 86.820312 959.085938 78.089844 950.355469 78.089844 939.585938 L 78.089844 560.414062 C 78.089844 549.644531 86.820312 540.914062 97.589844 540.914062 Z M 97.589844 540.914062 " clip-rule="nonzero"/></clipPath><clipPath id="042116c1dc"><path d="M 363 540.765625 L 369 540.765625 L 369 959.265625 L 363 959.265625 Z M 363 540.765625 " clip-rule="nonzero"/></clipPath><clipPath id="b9c4a6b9d3"><path d="M 77.191406 559.515625 L 77.191406 940.484375 C 77.191406 951.253906 85.921875 959.984375 96.691406 959.984375 L 1403.308594 959.984375 C 1414.078125 959.984375 1422.808594 951.253906 1422.808594 940.484375 L 1422.808594 559.515625 C 1422.808594 548.746094 1414.078125 540.015625 1403.308594 540.015625 L 96.691406 540.015625 C 85.921875 540.015625 77.191406 548.746094 77.191406 559.515625 Z M 77.191406 559.515625 " clip-rule="nonzero"/></clipPath><clipPath id="0b87a5e19e"><path d="M 97.589844 540.914062 L 1402.410156 540.914062 C 1413.179688 540.914062 1421.910156 549.644531 1421.910156 560.414062 L 1421.910156 939.585938 C 1421.910156 950.355469 1413.179688 959.085938 1402.410156 959.085938 L 97.589844 959.085938 C 86.820312 959.085938 78.089844 950.355469 78.089844 939.585938 L 78.089844 560.414062 C 78.089844 549.644531 86.820312 540.914062 97.589844 540.914062 Z M 97.589844 540.914062 " clip-rule="nonzero"/></clipPath><clipPath id="fe36472ad9"><path d="M 157 552 L 198 552 L 198 774 L 157 774 Z M 157 552 " clip-rule="nonzero"/></clipPath><clipPath id="6f71baac2b"><path d="M 77.191406 559.515625 L 77.191406 940.484375 C 77.191406 951.253906 85.921875 959.984375 96.691406 959.984375 L 1403.308594 959.984375 C 1414.078125 959.984375 1422.808594 951.253906 1422.808594 940.484375 L 1422.808594 559.515625 C 1422.808594 548.746094 1414.078125 540.015625 1403.308594 540.015625 L 96.691406 540.015625 C 85.921875 540.015625 77.191406 548.746094 77.191406 559.515625 Z M 77.191406 559.515625 " clip-rule="nonzero"/></clipPath><clipPath id="a2376a6e9a"><path d="M 97.589844 540.914062 L 1402.410156 540.914062 C 1413.179688 540.914062 1421.910156 549.644531 1421.910156 560.414062 L 1421.910156 939.585938 C 1421.910156 950.355469 1413.179688 959.085938 1402.410156 959.085938 L 97.589844 959.085938 C 86.820312 959.085938 78.089844 950.355469 78.089844 939.585938 L 78.089844 560.414062 C 78.089844 549.644531 86.820312 540.914062 97.589844 540.914062 Z M 97.589844 540.914062 " clip-rule="nonzero"/></clipPath><clipPath id="ff03d48444"><path d="M 151 547 L 203 547 L 203 779 L 151 779 Z M 151 547 " clip-rule="nonzero"/></clipPath><clipPath id="d5747e091f"><path d="M 77.191406 559.515625 L 77.191406 940.484375 C 77.191406 951.253906 85.921875 959.984375 96.691406 959.984375 L 1403.308594 959.984375 C 1414.078125 959.984375 1422.808594 951.253906 1422.808594 940.484375 L 1422.808594 559.515625 C 1422.808594 548.746094 1414.078125 540.015625 1403.308594 540.015625 L 96.691406 540.015625 C 85.921875 540.015625 77.191406 548.746094 77.191406 559.515625 Z M 77.191406 559.515625 " clip-rule="nonzero"/></clipPath><clipPath id="72f9bd78b5"><path d="M 97.589844 540.914062 L 1402.410156 540.914062 C 1413.179688 540.914062 1421.910156 549.644531 1421.910156 560.414062 L 1421.910156 939.585938 C 1421.910156 950.355469 1413.179688 959.085938 1402.410156 959.085938 L 97.589844 959.085938 C 86.820312 959.085938 78.089844 950.355469 78.089844 939.585938 L 78.089844 560.414062 C 78.089844 549.644531 86.820312 540.914062 97.589844 540.914062 Z M 97.589844 540.914062 " clip-rule="nonzero"/></clipPath><clipPath id="284b0ccb78"><path d="M 823 542 L 872 542 L 872 780 L 823 780 Z M 823 542 " clip-rule="nonzero"/></clipPath><clipPath id="6e28800ae6"><path d="M 77.191406 559.515625 L 77.191406 940.484375 C 77.191406 951.253906 85.921875 959.984375 96.691406 959.984375 L 1403.308594 959.984375 C 1414.078125 959.984375 1422.808594 951.253906 1422.808594 940.484375 L 1422.808594 559.515625 C 1422.808594 548.746094 1414.078125 540.015625 1403.308594 540.015625 L 96.691406 540.015625 C 85.921875 540.015625 77.191406 548.746094 77.191406 559.515625 Z M 77.191406 559.515625 " clip-rule="nonzero"/></clipPath><clipPath id="7b4c5b4ce4"><path d="M 97.589844 540.914062 L 1402.410156 540.914062 C 1413.179688 540.914062 1421.910156 549.644531 1421.910156 560.414062 L 1421.910156 939.585938 C 1421.910156 950.355469 1413.179688 959.085938 1402.410156 959.085938 L 97.589844 959.085938 C 86.820312 959.085938 78.089844 950.355469 78.089844 939.585938 L 78.089844 560.414062 C 78.089844 549.644531 86.820312 540.914062 97.589844 540.914062 Z M 97.589844 540.914062 " clip-rule="nonzero"/></clipPath><clipPath id="6b87659b1d"><path d="M 822 541 L 873 541 L 873 780 L 822 780 Z M 822 541 " clip-rule="nonzero"/></clipPath><clipPath id="e138e6d3e7"><path d="M 77.191406 559.515625 L 77.191406 940.484375 C 77.191406 951.253906 85.921875 959.984375 96.691406 959.984375 L 1403.308594 959.984375 C 1414.078125 959.984375 1422.808594 951.253906 1422.808594 940.484375 L 1422.808594 559.515625 C 1422.808594 548.746094 1414.078125 540.015625 1403.308594 540.015625 L 96.691406 540.015625 C 85.921875 540.015625 77.191406 548.746094 77.191406 559.515625 Z M 77.191406 559.515625 " clip-rule="nonzero"/></clipPath><clipPath id="7c6feb9f39"><path d="M 97.589844 540.914062 L 1402.410156 540.914062 C 1413.179688 540.914062 1421.910156 549.644531 1421.910156 560.414062 L 1421.910156 939.585938 C 1421.910156 950.355469 1413.179688 959.085938 1402.410156 959.085938 L 97.589844 959.085938 C 86.820312 959.085938 78.089844 950.355469 78.089844 939.585938 L 78.089844 560.414062 C 78.089844 549.644531 86.820312 540.914062 97.589844 540.914062 Z M 97.589844 540.914062 " clip-rule="nonzero"/></clipPath><clipPath id="a5cb50bd67"><path d="M 918 542 L 967 542 L 967 780 L 918 780 Z M 918 542 " clip-rule="nonzero"/></clipPath><clipPath id="b777bb62b0"><path d="M 77.191406 559.515625 L 77.191406 940.484375 C 77.191406 951.253906 85.921875 959.984375 96.691406 959.984375 L 1403.308594 959.984375 C 1414.078125 959.984375 1422.808594 951.253906 1422.808594 940.484375 L 1422.808594 559.515625 C 1422.808594 548.746094 1414.078125 540.015625 1403.308594 540.015625 L 96.691406 540.015625 C 85.921875 540.015625 77.191406 548.746094 77.191406 559.515625 Z M 77.191406 559.515625 " clip-rule="nonzero"/></clipPath><clipPath id="1f710dc1ec"><path d="M 97.589844 540.914062 L 1402.410156 540.914062 C 1413.179688 540.914062 1421.910156 549.644531 1421.910156 560.414062 L 1421.910156 939.585938 C 1421.910156 950.355469 1413.179688 959.085938 1402.410156 959.085938 L 97.589844 959.085938 C 86.820312 959.085938 78.089844 950.355469 78.089844 939.585938 L 78.089844 560.414062 C 78.089844 549.644531 86.820312 540.914062 97.589844 540.914062 Z M 97.589844 540.914062 " clip-rule="nonzero"/></clipPath><clipPath id="c184a94094"><path d="M 918 541 L 968 541 L 968 780 L 918 780 Z M 918 541 " clip-rule="nonzero"/></clipPath><clipPath id="b007bf52a4"><path d="M 77.191406 559.515625 L 77.191406 940.484375 C 77.191406 951.253906 85.921875 959.984375 96.691406 959.984375 L 1403.308594 959.984375 C 1414.078125 959.984375 1422.808594 951.253906 1422.808594 940.484375 L 1422.808594 559.515625 C 1422.808594 548.746094 1414.078125 540.015625 1403.308594 540.015625 L 96.691406 540.015625 C 85.921875 540.015625 77.191406 548.746094 77.191406 559.515625 Z M 77.191406 559.515625 " clip-rule="nonzero"/></clipPath><clipPath id="2b67c0eb96"><path d="M 97.589844 540.914062 L 1402.410156 540.914062 C 1413.179688 540.914062 1421.910156 549.644531 1421.910156 560.414062 L 1421.910156 939.585938 C 1421.910156 950.355469 1413.179688 959.085938 1402.410156 959.085938 L 97.589844 959.085938 C 86.820312 959.085938 78.089844 950.355469 78.089844 939.585938 L 78.089844 560.414062 C 78.089844 549.644531 86.820312 540.914062 97.589844 540.914062 Z M 97.589844 540.914062 " clip-rule="nonzero"/></clipPath><clipPath id="77aff7a69a"><path d="M 1109 541 L 1159 541 L 1159 779 L 1109 779 Z M 1109 541 " clip-rule="nonzero"/></clipPath><clipPath id="9f0d2f5bde"><path d="M 77.191406 559.515625 L 77.191406 940.484375 C 77.191406 951.253906 85.921875 959.984375 96.691406 959.984375 L 1403.308594 959.984375 C 1414.078125 959.984375 1422.808594 951.253906 1422.808594 940.484375 L 1422.808594 559.515625 C 1422.808594 548.746094 1414.078125 540.015625 1403.308594 540.015625 L 96.691406 540.015625 C 85.921875 540.015625 77.191406 548.746094 77.191406 559.515625 Z M 77.191406 559.515625 " clip-rule="nonzero"/></clipPath><clipPath id="cd6e169461"><path d="M 97.589844 540.914062 L 1402.410156 540.914062 C 1413.179688 540.914062 1421.910156 549.644531 1421.910156 560.414062 L 1421.910156 939.585938 C 1421.910156 950.355469 1413.179688 959.085938 1402.410156 959.085938 L 97.589844 959.085938 C 86.820312 959.085938 78.089844 950.355469 78.089844 939.585938 L 78.089844 560.414062 C 78.089844 549.644531 86.820312 540.914062 97.589844 540.914062 Z M 97.589844 540.914062 " clip-rule="nonzero"/></clipPath><clipPath id="da5ff6622c"><path d="M 1109 541 L 1159 541 L 1159 780 L 1109 780 Z M 1109 541 " clip-rule="nonzero"/></clipPath><clipPath id="d89a35e70f"><path d="M 77.191406 559.515625 L 77.191406 940.484375 C 77.191406 951.253906 85.921875 959.984375 96.691406 959.984375 L 1403.308594 959.984375 C 1414.078125 959.984375 1422.808594 951.253906 1422.808594 940.484375 L 1422.808594 559.515625 C 1422.808594 548.746094 1414.078125 540.015625 1403.308594 540.015625 L 96.691406 540.015625 C 85.921875 540.015625 77.191406 548.746094 77.191406 559.515625 Z M 77.191406 559.515625 " clip-rule="nonzero"/></clipPath><clipPath id="18152b42b1"><path d="M 97.589844 540.914062 L 1402.410156 540.914062 C 1413.179688 540.914062 1421.910156 549.644531 1421.910156 560.414062 L 1421.910156 939.585938 C 1421.910156 950.355469 1413.179688 959.085938 1402.410156 959.085938 L 97.589844 959.085938 C 86.820312 959.085938 78.089844 950.355469 78.089844 939.585938 L 78.089844 560.414062 C 78.089844 549.644531 86.820312 540.914062 97.589844 540.914062 Z M 97.589844 540.914062 " clip-rule="nonzero"/></clipPath><clipPath id="88b4f0564d"><path d="M 1204 542 L 1254 542 L 1254 780 L 1204 780 Z M 1204 542 " clip-rule="nonzero"/></clipPath><clipPath id="1bb451b990"><path d="M 77.191406 559.515625 L 77.191406 940.484375 C 77.191406 951.253906 85.921875 959.984375 96.691406 959.984375 L 1403.308594 959.984375 C 1414.078125 959.984375 1422.808594 951.253906 1422.808594 940.484375 L 1422.808594 559.515625 C 1422.808594 548.746094 1414.078125 540.015625 1403.308594 540.015625 L 96.691406 540.015625 C 85.921875 540.015625 77.191406 548.746094 77.191406 559.515625 Z M 77.191406 559.515625 " clip-rule="nonzero"/></clipPath><clipPath id="dfcb98642e"><path d="M 97.589844 540.914062 L 1402.410156 540.914062 C 1413.179688 540.914062 1421.910156 549.644531 1421.910156 560.414062 L 1421.910156 939.585938 C 1421.910156 950.355469 1413.179688 959.085938 1402.410156 959.085938 L 97.589844 959.085938 C 86.820312 959.085938 78.089844 950.355469 78.089844 939.585938 L 78.089844 560.414062 C 78.089844 549.644531 86.820312 540.914062 97.589844 540.914062 Z M 97.589844 540.914062 " clip-rule="nonzero"/></clipPath><clipPath id="31ba10c6d9"><path d="M 1204 542 L 1254 542 L 1254 781 L 1204 781 Z M 1204 542 " clip-rule="nonzero"/></clipPath><clipPath id="44adfc5682"><path d="M 77.191406 559.515625 L 77.191406 940.484375 C 77.191406 951.253906 85.921875 959.984375 96.691406 959.984375 L 1403.308594 959.984375 C 1414.078125 959.984375 1422.808594 951.253906 1422.808594 940.484375 L 1422.808594 559.515625 C 1422.808594 548.746094 1414.078125 540.015625 1403.308594 540.015625 L 96.691406 540.015625 C 85.921875 540.015625 77.191406 548.746094 77.191406 559.515625 Z M 77.191406 559.515625 " clip-rule="nonzero"/></clipPath><clipPath id="e3105d293a"><path d="M 97.589844 540.914062 L 1402.410156 540.914062 C 1413.179688 540.914062 1421.910156 549.644531 1421.910156 560.414062 L 1421.910156 939.585938 C 1421.910156 950.355469 1413.179688 959.085938 1402.410156 959.085938 L 97.589844 959.085938 C 86.820312 959.085938 78.089844 950.355469 78.089844 939.585938 L 78.089844 560.414062 C 78.089844 549.644531 86.820312 540.914062 97.589844 540.914062 Z M 97.589844 540.914062 " clip-rule="nonzero"/></clipPath><clipPath id="824cb8bc55"><path d="M 1301 542 L 1350 542 L 1350 780 L 1301 780 Z M 1301 542 " clip-rule="nonzero"/></clipPath><clipPath id="2338a4f3fb"><path d="M 77.191406 559.515625 L 77.191406 940.484375 C 77.191406 951.253906 85.921875 959.984375 96.691406 959.984375 L 1403.308594 959.984375 C 1414.078125 959.984375 1422.808594 951.253906 1422.808594 940.484375 L 1422.808594 559.515625 C 1422.808594 548.746094 1414.078125 540.015625 1403.308594 540.015625 L 96.691406 540.015625 C 85.921875 540.015625 77.191406 548.746094 77.191406 559.515625 Z M 77.191406 559.515625 " clip-rule="nonzero"/></clipPath><clipPath id="3c1e0a9fb7"><path d="M 97.589844 540.914062 L 1402.410156 540.914062 C 1413.179688 540.914062 1421.910156 549.644531 1421.910156 560.414062 L 1421.910156 939.585938 C 1421.910156 950.355469 1413.179688 959.085938 1402.410156 959.085938 L 97.589844 959.085938 C 86.820312 959.085938 78.089844 950.355469 78.089844 939.585938 L 78.089844 560.414062 C 78.089844 549.644531 86.820312 540.914062 97.589844 540.914062 Z M 97.589844 540.914062 " clip-rule="nonzero"/></clipPath><clipPath id="877a801bf5"><path d="M 1301 541 L 1351 541 L 1351 780 L 1301 780 Z M 1301 541 " clip-rule="nonzero"/></clipPath><clipPath id="08f53ea4c5"><path d="M 77.191406 559.515625 L 77.191406 940.484375 C 77.191406 951.253906 85.921875 959.984375 96.691406 959.984375 L 1403.308594 959.984375 C 1414.078125 959.984375 1422.808594 951.253906 1422.808594 940.484375 L 1422.808594 559.515625 C 1422.808594 548.746094 1414.078125 540.015625 1403.308594 540.015625 L 96.691406 540.015625 C 85.921875 540.015625 77.191406 548.746094 77.191406 559.515625 Z M 77.191406 559.515625 " clip-rule="nonzero"/></clipPath><clipPath id="a796354964"><path d="M 97.589844 540.914062 L 1402.410156 540.914062 C 1413.179688 540.914062 1421.910156 549.644531 1421.910156 560.414062 L 1421.910156 939.585938 C 1421.910156 950.355469 1413.179688 959.085938 1402.410156 959.085938 L 97.589844 959.085938 C 86.820312 959.085938 78.089844 950.355469 78.089844 939.585938 L 78.089844 560.414062 C 78.089844 549.644531 86.820312 540.914062 97.589844 540.914062 Z M 97.589844 540.914062 " clip-rule="nonzero"/></clipPath><clipPath id="8666563b43"><path d="M 750 540.765625 L 1421.941406 540.765625 L 1421.941406 959 L 750 959 Z M 750 540.765625 " clip-rule="nonzero"/></clipPath><clipPath id="107416eaab"><path d="M 77.191406 559.515625 L 77.191406 940.484375 C 77.191406 951.253906 85.921875 959.984375 96.691406 959.984375 L 1403.308594 959.984375 C 1414.078125 959.984375 1422.808594 951.253906 1422.808594 940.484375 L 1422.808594 559.515625 C 1422.808594 548.746094 1414.078125 540.015625 1403.308594 540.015625 L 96.691406 540.015625 C 85.921875 540.015625 77.191406 548.746094 77.191406 559.515625 Z M 77.191406 559.515625 " clip-rule="nonzero"/></clipPath><clipPath id="b3db4d6ed3"><path d="M 97.589844 540.914062 L 1402.410156 540.914062 C 1413.179688 540.914062 1421.910156 549.644531 1421.910156 560.414062 L 1421.910156 939.585938 C 1421.910156 950.355469 1413.179688 959.085938 1402.410156 959.085938 L 97.589844 959.085938 C 86.820312 959.085938 78.089844 950.355469 78.089844 939.585938 L 78.089844 560.414062 C 78.089844 549.644531 86.820312 540.914062 97.589844 540.914062 Z M 97.589844 540.914062 " clip-rule="nonzero"/></clipPath><clipPath id="96ebc3eed5"><path d="M 844 767 L 850 767 L 850 959.265625 L 844 959.265625 Z M 844 767 " clip-rule="nonzero"/></clipPath><clipPath id="7cfa64cefa"><path d="M 77.191406 559.515625 L 77.191406 940.484375 C 77.191406 951.253906 85.921875 959.984375 96.691406 959.984375 L 1403.308594 959.984375 C 1414.078125 959.984375 1422.808594 951.253906 1422.808594 940.484375 L 1422.808594 559.515625 C 1422.808594 548.746094 1414.078125 540.015625 1403.308594 540.015625 L 96.691406 540.015625 C 85.921875 540.015625 77.191406 548.746094 77.191406 559.515625 Z M 77.191406 559.515625 " clip-rule="nonzero"/></clipPath><clipPath id="bf941098ab"><path d="M 97.589844 540.914062 L 1402.410156 540.914062 C 1413.179688 540.914062 1421.910156 549.644531 1421.910156 560.414062 L 1421.910156 939.585938 C 1421.910156 950.355469 1413.179688 959.085938 1402.410156 959.085938 L 97.589844 959.085938 C 86.820312 959.085938 78.089844 950.355469 78.089844 939.585938 L 78.089844 560.414062 C 78.089844 549.644531 86.820312 540.914062 97.589844 540.914062 Z M 97.589844 540.914062 " clip-rule="nonzero"/></clipPath><clipPath id="accdc23697"><path d="M 940 766 L 946 766 L 946 959 L 940 959 Z M 940 766 " clip-rule="nonzero"/></clipPath><clipPath id="ba57a54340"><path d="M 77.191406 559.515625 L 77.191406 940.484375 C 77.191406 951.253906 85.921875 959.984375 96.691406 959.984375 L 1403.308594 959.984375 C 1414.078125 959.984375 1422.808594 951.253906 1422.808594 940.484375 L 1422.808594 559.515625 C 1422.808594 548.746094 1414.078125 540.015625 1403.308594 540.015625 L 96.691406 540.015625 C 85.921875 540.015625 77.191406 548.746094 77.191406 559.515625 Z M 77.191406 559.515625 " clip-rule="nonzero"/></clipPath><clipPath id="b64b2e278f"><path d="M 97.589844 540.914062 L 1402.410156 540.914062 C 1413.179688 540.914062 1421.910156 549.644531 1421.910156 560.414062 L 1421.910156 939.585938 C 1421.910156 950.355469 1413.179688 959.085938 1402.410156 959.085938 L 97.589844 959.085938 C 86.820312 959.085938 78.089844 950.355469 78.089844 939.585938 L 78.089844 560.414062 C 78.089844 549.644531 86.820312 540.914062 97.589844 540.914062 Z M 97.589844 540.914062 " clip-rule="nonzero"/></clipPath><clipPath id="0d6299ced5"><path d="M 1131 767 L 1137 767 L 1137 959.265625 L 1131 959.265625 Z M 1131 767 " clip-rule="nonzero"/></clipPath><clipPath id="de64f6d742"><path d="M 77.191406 559.515625 L 77.191406 940.484375 C 77.191406 951.253906 85.921875 959.984375 96.691406 959.984375 L 1403.308594 959.984375 C 1414.078125 959.984375 1422.808594 951.253906 1422.808594 940.484375 L 1422.808594 559.515625 C 1422.808594 548.746094 1414.078125 540.015625 1403.308594 540.015625 L 96.691406 540.015625 C 85.921875 540.015625 77.191406 548.746094 77.191406 559.515625 Z M 77.191406 559.515625 " clip-rule="nonzero"/></clipPath><clipPath id="e90a25dc7a"><path d="M 97.589844 540.914062 L 1402.410156 540.914062 C 1413.179688 540.914062 1421.910156 549.644531 1421.910156 560.414062 L 1421.910156 939.585938 C 1421.910156 950.355469 1413.179688 959.085938 1402.410156 959.085938 L 97.589844 959.085938 C 86.820312 959.085938 78.089844 950.355469 78.089844 939.585938 L 78.089844 560.414062 C 78.089844 549.644531 86.820312 540.914062 97.589844 540.914062 Z M 97.589844 540.914062 " clip-rule="nonzero"/></clipPath><clipPath id="5b45838a01"><path d="M 1226 767 L 1232 767 L 1232 959.265625 L 1226 959.265625 Z M 1226 767 " clip-rule="nonzero"/></clipPath><clipPath id="966f89a5b6"><path d="M 77.191406 559.515625 L 77.191406 940.484375 C 77.191406 951.253906 85.921875 959.984375 96.691406 959.984375 L 1403.308594 959.984375 C 1414.078125 959.984375 1422.808594 951.253906 1422.808594 940.484375 L 1422.808594 559.515625 C 1422.808594 548.746094 1414.078125 540.015625 1403.308594 540.015625 L 96.691406 540.015625 C 85.921875 540.015625 77.191406 548.746094 77.191406 559.515625 Z M 77.191406 559.515625 " clip-rule="nonzero"/></clipPath><clipPath id="3a866c2d79"><path d="M 97.589844 540.914062 L 1402.410156 540.914062 C 1413.179688 540.914062 1421.910156 549.644531 1421.910156 560.414062 L 1421.910156 939.585938 C 1421.910156 950.355469 1413.179688 959.085938 1402.410156 959.085938 L 97.589844 959.085938 C 86.820312 959.085938 78.089844 950.355469 78.089844 939.585938 L 78.089844 560.414062 C 78.089844 549.644531 86.820312 540.914062 97.589844 540.914062 Z M 97.589844 540.914062 " clip-rule="nonzero"/></clipPath><clipPath id="b6b3e3e2c0"><path d="M 1323 767 L 1329 767 L 1329 959.265625 L 1323 959.265625 Z M 1323 767 " clip-rule="nonzero"/></clipPath><clipPath id="2cdd8bb341"><path d="M 77.191406 559.515625 L 77.191406 940.484375 C 77.191406 951.253906 85.921875 959.984375 96.691406 959.984375 L 1403.308594 959.984375 C 1414.078125 959.984375 1422.808594 951.253906 1422.808594 940.484375 L 1422.808594 559.515625 C 1422.808594 548.746094 1414.078125 540.015625 1403.308594 540.015625 L 96.691406 540.015625 C 85.921875 540.015625 77.191406 548.746094 77.191406 559.515625 Z M 77.191406 559.515625 " clip-rule="nonzero"/></clipPath><clipPath id="93880a412d"><path d="M 97.589844 540.914062 L 1402.410156 540.914062 C 1413.179688 540.914062 1421.910156 549.644531 1421.910156 560.414062 L 1421.910156 939.585938 C 1421.910156 950.355469 1413.179688 959.085938 1402.410156 959.085938 L 97.589844 959.085938 C 86.820312 959.085938 78.089844 950.355469 78.089844 939.585938 L 78.089844 560.414062 C 78.089844 549.644531 86.820312 540.914062 97.589844 540.914062 Z M 97.589844 540.914062 " clip-rule="nonzero"/></clipPath><clipPath id="fbdffade56"><path d="M 1036 540.765625 L 1042 540.765625 L 1042 959.265625 L 1036 959.265625 Z M 1036 540.765625 " clip-rule="nonzero"/></clipPath><clipPath id="3b1ddd8406"><path d="M 77.191406 559.515625 L 77.191406 940.484375 C 77.191406 951.253906 85.921875 959.984375 96.691406 959.984375 L 1403.308594 959.984375 C 1414.078125 959.984375 1422.808594 951.253906 1422.808594 940.484375 L 1422.808594 559.515625 C 1422.808594 548.746094 1414.078125 540.015625 1403.308594 540.015625 L 96.691406 540.015625 C 85.921875 540.015625 77.191406 548.746094 77.191406 559.515625 Z M 77.191406 559.515625 " clip-rule="nonzero"/></clipPath><clipPath id="7814efb61f"><path d="M 97.589844 540.914062 L 1402.410156 540.914062 C 1413.179688 540.914062 1421.910156 549.644531 1421.910156 560.414062 L 1421.910156 939.585938 C 1421.910156 950.355469 1413.179688 959.085938 1402.410156 959.085938 L 97.589844 959.085938 C 86.820312 959.085938 78.089844 950.355469 78.089844 939.585938 L 78.089844 560.414062 C 78.089844 549.644531 86.820312 540.914062 97.589844 540.914062 Z M 97.589844 540.914062 " clip-rule="nonzero"/></clipPath><clipPath id="382c93624e"><path d="M 251 549 L 292 549 L 292 771 L 251 771 Z M 251 549 " clip-rule="nonzero"/></clipPath><clipPath id="078de0d718"><path d="M 77.191406 559.515625 L 77.191406 940.484375 C 77.191406 951.253906 85.921875 959.984375 96.691406 959.984375 L 1403.308594 959.984375 C 1414.078125 959.984375 1422.808594 951.253906 1422.808594 940.484375 L 1422.808594 559.515625 C 1422.808594 548.746094 1414.078125 540.015625 1403.308594 540.015625 L 96.691406 540.015625 C 85.921875 540.015625 77.191406 548.746094 77.191406 559.515625 Z M 77.191406 559.515625 " clip-rule="nonzero"/></clipPath><clipPath id="aae3a3586d"><path d="M 97.589844 540.914062 L 1402.410156 540.914062 C 1413.179688 540.914062 1421.910156 549.644531 1421.910156 560.414062 L 1421.910156 939.585938 C 1421.910156 950.355469 1413.179688 959.085938 1402.410156 959.085938 L 97.589844 959.085938 C 86.820312 959.085938 78.089844 950.355469 78.089844 939.585938 L 78.089844 560.414062 C 78.089844 549.644531 86.820312 540.914062 97.589844 540.914062 Z M 97.589844 540.914062 " clip-rule="nonzero"/></clipPath><clipPath id="b9e9cbd2fd"><path d="M 246 544 L 298 544 L 298 777 L 246 777 Z M 246 544 " clip-rule="nonzero"/></clipPath><clipPath id="6a45b93b92"><path d="M 77.191406 559.515625 L 77.191406 940.484375 C 77.191406 951.253906 85.921875 959.984375 96.691406 959.984375 L 1403.308594 959.984375 C 1414.078125 959.984375 1422.808594 951.253906 1422.808594 940.484375 L 1422.808594 559.515625 C 1422.808594 548.746094 1414.078125 540.015625 1403.308594 540.015625 L 96.691406 540.015625 C 85.921875 540.015625 77.191406 548.746094 77.191406 559.515625 Z M 77.191406 559.515625 " clip-rule="nonzero"/></clipPath><clipPath id="e7f1afdaaf"><path d="M 97.589844 540.914062 L 1402.410156 540.914062 C 1413.179688 540.914062 1421.910156 549.644531 1421.910156 560.414062 L 1421.910156 939.585938 C 1421.910156 950.355469 1413.179688 959.085938 1402.410156 959.085938 L 97.589844 959.085938 C 86.820312 959.085938 78.089844 950.355469 78.089844 939.585938 L 78.089844 560.414062 C 78.089844 549.644531 86.820312 540.914062 97.589844 540.914062 Z M 97.589844 540.914062 " clip-rule="nonzero"/></clipPath><clipPath id="ef79bb0f25"><path d="M 443 549 L 484 549 L 484 771 L 443 771 Z M 443 549 " clip-rule="nonzero"/></clipPath><clipPath id="329aa41a27"><path d="M 77.191406 559.515625 L 77.191406 940.484375 C 77.191406 951.253906 85.921875 959.984375 96.691406 959.984375 L 1403.308594 959.984375 C 1414.078125 959.984375 1422.808594 951.253906 1422.808594 940.484375 L 1422.808594 559.515625 C 1422.808594 548.746094 1414.078125 540.015625 1403.308594 540.015625 L 96.691406 540.015625 C 85.921875 540.015625 77.191406 548.746094 77.191406 559.515625 Z M 77.191406 559.515625 " clip-rule="nonzero"/></clipPath><clipPath id="45efa5b158"><path d="M 97.589844 540.914062 L 1402.410156 540.914062 C 1413.179688 540.914062 1421.910156 549.644531 1421.910156 560.414062 L 1421.910156 939.585938 C 1421.910156 950.355469 1413.179688 959.085938 1402.410156 959.085938 L 97.589844 959.085938 C 86.820312 959.085938 78.089844 950.355469 78.089844 939.585938 L 78.089844 560.414062 C 78.089844 549.644531 86.820312 540.914062 97.589844 540.914062 Z M 97.589844 540.914062 " clip-rule="nonzero"/></clipPath><clipPath id="d81f0a2545"><path d="M 437 544 L 489 544 L 489 777 L 437 777 Z M 437 544 " clip-rule="nonzero"/></clipPath><clipPath id="60b14e892f"><path d="M 77.191406 559.515625 L 77.191406 940.484375 C 77.191406 951.253906 85.921875 959.984375 96.691406 959.984375 L 1403.308594 959.984375 C 1414.078125 959.984375 1422.808594 951.253906 1422.808594 940.484375 L 1422.808594 559.515625 C 1422.808594 548.746094 1414.078125 540.015625 1403.308594 540.015625 L 96.691406 540.015625 C 85.921875 540.015625 77.191406 548.746094 77.191406 559.515625 Z M 77.191406 559.515625 " clip-rule="nonzero"/></clipPath><clipPath id="221f032489"><path d="M 97.589844 540.914062 L 1402.410156 540.914062 C 1413.179688 540.914062 1421.910156 549.644531 1421.910156 560.414062 L 1421.910156 939.585938 C 1421.910156 950.355469 1413.179688 959.085938 1402.410156 959.085938 L 97.589844 959.085938 C 86.820312 959.085938 78.089844 950.355469 78.089844 939.585938 L 78.089844 560.414062 C 78.089844 549.644531 86.820312 540.914062 97.589844 540.914062 Z M 97.589844 540.914062 " clip-rule="nonzero"/></clipPath><clipPath id="7d2d936506"><path d="M 537 551 L 578 551 L 578 773 L 537 773 Z M 537 551 " clip-rule="nonzero"/></clipPath><clipPath id="386e57cf5e"><path d="M 77.191406 559.515625 L 77.191406 940.484375 C 77.191406 951.253906 85.921875 959.984375 96.691406 959.984375 L 1403.308594 959.984375 C 1414.078125 959.984375 1422.808594 951.253906 1422.808594 940.484375 L 1422.808594 559.515625 C 1422.808594 548.746094 1414.078125 540.015625 1403.308594 540.015625 L 96.691406 540.015625 C 85.921875 540.015625 77.191406 548.746094 77.191406 559.515625 Z M 77.191406 559.515625 " clip-rule="nonzero"/></clipPath><clipPath id="47283569c0"><path d="M 97.589844 540.914062 L 1402.410156 540.914062 C 1413.179688 540.914062 1421.910156 549.644531 1421.910156 560.414062 L 1421.910156 939.585938 C 1421.910156 950.355469 1413.179688 959.085938 1402.410156 959.085938 L 97.589844 959.085938 C 86.820312 959.085938 78.089844 950.355469 78.089844 939.585938 L 78.089844 560.414062 C 78.089844 549.644531 86.820312 540.914062 97.589844 540.914062 Z M 97.589844 540.914062 " clip-rule="nonzero"/></clipPath><clipPath id="07fb1bce7f"><path d="M 531 546 L 583 546 L 583 779 L 531 779 Z M 531 546 " clip-rule="nonzero"/></clipPath><clipPath id="084289f412"><path d="M 77.191406 559.515625 L 77.191406 940.484375 C 77.191406 951.253906 85.921875 959.984375 96.691406 959.984375 L 1403.308594 959.984375 C 1414.078125 959.984375 1422.808594 951.253906 1422.808594 940.484375 L 1422.808594 559.515625 C 1422.808594 548.746094 1414.078125 540.015625 1403.308594 540.015625 L 96.691406 540.015625 C 85.921875 540.015625 77.191406 548.746094 77.191406 559.515625 Z M 77.191406 559.515625 " clip-rule="nonzero"/></clipPath><clipPath id="a28492190e"><path d="M 97.589844 540.914062 L 1402.410156 540.914062 C 1413.179688 540.914062 1421.910156 549.644531 1421.910156 560.414062 L 1421.910156 939.585938 C 1421.910156 950.355469 1413.179688 959.085938 1402.410156 959.085938 L 97.589844 959.085938 C 86.820312 959.085938 78.089844 950.355469 78.089844 939.585938 L 78.089844 560.414062 C 78.089844 549.644531 86.820312 540.914062 97.589844 540.914062 Z M 97.589844 540.914062 " clip-rule="nonzero"/></clipPath><clipPath id="2e72a1eae9"><path d="M 634 551 L 675 551 L 675 773 L 634 773 Z M 634 551 " clip-rule="nonzero"/></clipPath><clipPath id="f734e175e6"><path d="M 77.191406 559.515625 L 77.191406 940.484375 C 77.191406 951.253906 85.921875 959.984375 96.691406 959.984375 L 1403.308594 959.984375 C 1414.078125 959.984375 1422.808594 951.253906 1422.808594 940.484375 L 1422.808594 559.515625 C 1422.808594 548.746094 1414.078125 540.015625 1403.308594 540.015625 L 96.691406 540.015625 C 85.921875 540.015625 77.191406 548.746094 77.191406 559.515625 Z M 77.191406 559.515625 " clip-rule="nonzero"/></clipPath><clipPath id="c3215dd78c"><path d="M 97.589844 540.914062 L 1402.410156 540.914062 C 1413.179688 540.914062 1421.910156 549.644531 1421.910156 560.414062 L 1421.910156 939.585938 C 1421.910156 950.355469 1413.179688 959.085938 1402.410156 959.085938 L 97.589844 959.085938 C 86.820312 959.085938 78.089844 950.355469 78.089844 939.585938 L 78.089844 560.414062 C 78.089844 549.644531 86.820312 540.914062 97.589844 540.914062 Z M 97.589844 540.914062 " clip-rule="nonzero"/></clipPath><clipPath id="d84c724477"><path d="M 629 546 L 681 546 L 681 779 L 629 779 Z M 629 546 " clip-rule="nonzero"/></clipPath><clipPath id="e56fcbeac5"><path d="M 77.191406 559.515625 L 77.191406 940.484375 C 77.191406 951.253906 85.921875 959.984375 96.691406 959.984375 L 1403.308594 959.984375 C 1414.078125 959.984375 1422.808594 951.253906 1422.808594 940.484375 L 1422.808594 559.515625 C 1422.808594 548.746094 1414.078125 540.015625 1403.308594 540.015625 L 96.691406 540.015625 C 85.921875 540.015625 77.191406 548.746094 77.191406 559.515625 Z M 77.191406 559.515625 " clip-rule="nonzero"/></clipPath><clipPath id="d60c7d11be"><path d="M 97.589844 540.914062 L 1402.410156 540.914062 C 1413.179688 540.914062 1421.910156 549.644531 1421.910156 560.414062 L 1421.910156 939.585938 C 1421.910156 950.355469 1413.179688 959.085938 1402.410156 959.085938 L 97.589844 959.085938 C 86.820312 959.085938 78.089844 950.355469 78.089844 939.585938 L 78.089844 560.414062 C 78.089844 549.644531 86.820312 540.914062 97.589844 540.914062 Z M 97.589844 540.914062 " clip-rule="nonzero"/></clipPath><clipPath id="4655b381f5"><path d="M 827 548 L 868 548 L 868 770 L 827 770 Z M 827 548 " clip-rule="nonzero"/></clipPath><clipPath id="b066ba656a"><path d="M 77.191406 559.515625 L 77.191406 940.484375 C 77.191406 951.253906 85.921875 959.984375 96.691406 959.984375 L 1403.308594 959.984375 C 1414.078125 959.984375 1422.808594 951.253906 1422.808594 940.484375 L 1422.808594 559.515625 C 1422.808594 548.746094 1414.078125 540.015625 1403.308594 540.015625 L 96.691406 540.015625 C 85.921875 540.015625 77.191406 548.746094 77.191406 559.515625 Z M 77.191406 559.515625 " clip-rule="nonzero"/></clipPath><clipPath id="3a430636ce"><path d="M 97.589844 540.914062 L 1402.410156 540.914062 C 1413.179688 540.914062 1421.910156 549.644531 1421.910156 560.414062 L 1421.910156 939.585938 C 1421.910156 950.355469 1413.179688 959.085938 1402.410156 959.085938 L 97.589844 959.085938 C 86.820312 959.085938 78.089844 950.355469 78.089844 939.585938 L 78.089844 560.414062 C 78.089844 549.644531 86.820312 540.914062 97.589844 540.914062 Z M 97.589844 540.914062 " clip-rule="nonzero"/></clipPath><clipPath id="784c63123c"><path d="M 822 542 L 874 542 L 874 775 L 822 775 Z M 822 542 " clip-rule="nonzero"/></clipPath><clipPath id="f34251c1d9"><path d="M 77.191406 559.515625 L 77.191406 940.484375 C 77.191406 951.253906 85.921875 959.984375 96.691406 959.984375 L 1403.308594 959.984375 C 1414.078125 959.984375 1422.808594 951.253906 1422.808594 940.484375 L 1422.808594 559.515625 C 1422.808594 548.746094 1414.078125 540.015625 1403.308594 540.015625 L 96.691406 540.015625 C 85.921875 540.015625 77.191406 548.746094 77.191406 559.515625 Z M 77.191406 559.515625 " clip-rule="nonzero"/></clipPath><clipPath id="7bc3d07ba3"><path d="M 97.589844 540.914062 L 1402.410156 540.914062 C 1413.179688 540.914062 1421.910156 549.644531 1421.910156 560.414062 L 1421.910156 939.585938 C 1421.910156 950.355469 1413.179688 959.085938 1402.410156 959.085938 L 97.589844 959.085938 C 86.820312 959.085938 78.089844 950.355469 78.089844 939.585938 L 78.089844 560.414062 C 78.089844 549.644531 86.820312 540.914062 97.589844 540.914062 Z M 97.589844 540.914062 " clip-rule="nonzero"/></clipPath><clipPath id="c990b70847"><path d="M 925 548 L 966 548 L 966 770 L 925 770 Z M 925 548 " clip-rule="nonzero"/></clipPath><clipPath id="552590867a"><path d="M 77.191406 559.515625 L 77.191406 940.484375 C 77.191406 951.253906 85.921875 959.984375 96.691406 959.984375 L 1403.308594 959.984375 C 1414.078125 959.984375 1422.808594 951.253906 1422.808594 940.484375 L 1422.808594 559.515625 C 1422.808594 548.746094 1414.078125 540.015625 1403.308594 540.015625 L 96.691406 540.015625 C 85.921875 540.015625 77.191406 548.746094 77.191406 559.515625 Z M 77.191406 559.515625 " clip-rule="nonzero"/></clipPath><clipPath id="8c15a482c8"><path d="M 97.589844 540.914062 L 1402.410156 540.914062 C 1413.179688 540.914062 1421.910156 549.644531 1421.910156 560.414062 L 1421.910156 939.585938 C 1421.910156 950.355469 1413.179688 959.085938 1402.410156 959.085938 L 97.589844 959.085938 C 86.820312 959.085938 78.089844 950.355469 78.089844 939.585938 L 78.089844 560.414062 C 78.089844 549.644531 86.820312 540.914062 97.589844 540.914062 Z M 97.589844 540.914062 " clip-rule="nonzero"/></clipPath><clipPath id="dfb1ff3f9b"><path d="M 919 542 L 971 542 L 971 775 L 919 775 Z M 919 542 " clip-rule="nonzero"/></clipPath><clipPath id="e3073cf047"><path d="M 77.191406 559.515625 L 77.191406 940.484375 C 77.191406 951.253906 85.921875 959.984375 96.691406 959.984375 L 1403.308594 959.984375 C 1414.078125 959.984375 1422.808594 951.253906 1422.808594 940.484375 L 1422.808594 559.515625 C 1422.808594 548.746094 1414.078125 540.015625 1403.308594 540.015625 L 96.691406 540.015625 C 85.921875 540.015625 77.191406 548.746094 77.191406 559.515625 Z M 77.191406 559.515625 " clip-rule="nonzero"/></clipPath><clipPath id="4d95096154"><path d="M 97.589844 540.914062 L 1402.410156 540.914062 C 1413.179688 540.914062 1421.910156 549.644531 1421.910156 560.414062 L 1421.910156 939.585938 C 1421.910156 950.355469 1413.179688 959.085938 1402.410156 959.085938 L 97.589844 959.085938 C 86.820312 959.085938 78.089844 950.355469 78.089844 939.585938 L 78.089844 560.414062 C 78.089844 549.644531 86.820312 540.914062 97.589844 540.914062 Z M 97.589844 540.914062 " clip-rule="nonzero"/></clipPath><clipPath id="3eaa6e6f0e"><path d="M 1116 553 L 1157 553 L 1157 775 L 1116 775 Z M 1116 553 " clip-rule="nonzero"/></clipPath><clipPath id="0a1ecac2c9"><path d="M 77.191406 559.515625 L 77.191406 940.484375 C 77.191406 951.253906 85.921875 959.984375 96.691406 959.984375 L 1403.308594 959.984375 C 1414.078125 959.984375 1422.808594 951.253906 1422.808594 940.484375 L 1422.808594 559.515625 C 1422.808594 548.746094 1414.078125 540.015625 1403.308594 540.015625 L 96.691406 540.015625 C 85.921875 540.015625 77.191406 548.746094 77.191406 559.515625 Z M 77.191406 559.515625 " clip-rule="nonzero"/></clipPath><clipPath id="00706ba60d"><path d="M 97.589844 540.914062 L 1402.410156 540.914062 C 1413.179688 540.914062 1421.910156 549.644531 1421.910156 560.414062 L 1421.910156 939.585938 C 1421.910156 950.355469 1413.179688 959.085938 1402.410156 959.085938 L 97.589844 959.085938 C 86.820312 959.085938 78.089844 950.355469 78.089844 939.585938 L 78.089844 560.414062 C 78.089844 549.644531 86.820312 540.914062 97.589844 540.914062 Z M 97.589844 540.914062 " clip-rule="nonzero"/></clipPath><clipPath id="cb9e5f9835"><path d="M 1111 548 L 1162 548 L 1162 780 L 1111 780 Z M 1111 548 " clip-rule="nonzero"/></clipPath><clipPath id="84b4738f87"><path d="M 77.191406 559.515625 L 77.191406 940.484375 C 77.191406 951.253906 85.921875 959.984375 96.691406 959.984375 L 1403.308594 959.984375 C 1414.078125 959.984375 1422.808594 951.253906 1422.808594 940.484375 L 1422.808594 559.515625 C 1422.808594 548.746094 1414.078125 540.015625 1403.308594 540.015625 L 96.691406 540.015625 C 85.921875 540.015625 77.191406 548.746094 77.191406 559.515625 Z M 77.191406 559.515625 " clip-rule="nonzero"/></clipPath><clipPath id="6488f5abfb"><path d="M 97.589844 540.914062 L 1402.410156 540.914062 C 1413.179688 540.914062 1421.910156 549.644531 1421.910156 560.414062 L 1421.910156 939.585938 C 1421.910156 950.355469 1413.179688 959.085938 1402.410156 959.085938 L 97.589844 959.085938 C 86.820312 959.085938 78.089844 950.355469 78.089844 939.585938 L 78.089844 560.414062 C 78.089844 549.644531 86.820312 540.914062 97.589844 540.914062 Z M 97.589844 540.914062 " clip-rule="nonzero"/></clipPath><clipPath id="8f4e53fc2d"><path d="M 1210 555 L 1251 555 L 1251 777 L 1210 777 Z M 1210 555 " clip-rule="nonzero"/></clipPath><clipPath id="df8cd72af1"><path d="M 77.191406 559.515625 L 77.191406 940.484375 C 77.191406 951.253906 85.921875 959.984375 96.691406 959.984375 L 1403.308594 959.984375 C 1414.078125 959.984375 1422.808594 951.253906 1422.808594 940.484375 L 1422.808594 559.515625 C 1422.808594 548.746094 1414.078125 540.015625 1403.308594 540.015625 L 96.691406 540.015625 C 85.921875 540.015625 77.191406 548.746094 77.191406 559.515625 Z M 77.191406 559.515625 " clip-rule="nonzero"/></clipPath><clipPath id="a35fec1959"><path d="M 97.589844 540.914062 L 1402.410156 540.914062 C 1413.179688 540.914062 1421.910156 549.644531 1421.910156 560.414062 L 1421.910156 939.585938 C 1421.910156 950.355469 1413.179688 959.085938 1402.410156 959.085938 L 97.589844 959.085938 C 86.820312 959.085938 78.089844 950.355469 78.089844 939.585938 L 78.089844 560.414062 C 78.089844 549.644531 86.820312 540.914062 97.589844 540.914062 Z M 97.589844 540.914062 " clip-rule="nonzero"/></clipPath><clipPath id="1a1500b180"><path d="M 1205 549 L 1256 549 L 1256 782 L 1205 782 Z M 1205 549 " clip-rule="nonzero"/></clipPath><clipPath id="dbf7806cbd"><path d="M 77.191406 559.515625 L 77.191406 940.484375 C 77.191406 951.253906 85.921875 959.984375 96.691406 959.984375 L 1403.308594 959.984375 C 1414.078125 959.984375 1422.808594 951.253906 1422.808594 940.484375 L 1422.808594 559.515625 C 1422.808594 548.746094 1414.078125 540.015625 1403.308594 540.015625 L 96.691406 540.015625 C 85.921875 540.015625 77.191406 548.746094 77.191406 559.515625 Z M 77.191406 559.515625 " clip-rule="nonzero"/></clipPath><clipPath id="65f4b98139"><path d="M 97.589844 540.914062 L 1402.410156 540.914062 C 1413.179688 540.914062 1421.910156 549.644531 1421.910156 560.414062 L 1421.910156 939.585938 C 1421.910156 950.355469 1413.179688 959.085938 1402.410156 959.085938 L 97.589844 959.085938 C 86.820312 959.085938 78.089844 950.355469 78.089844 939.585938 L 78.089844 560.414062 C 78.089844 549.644531 86.820312 540.914062 97.589844 540.914062 Z M 97.589844 540.914062 " clip-rule="nonzero"/></clipPath><clipPath id="292a95b9dc"><path d="M 1306 553 L 1347 553 L 1347 775 L 1306 775 Z M 1306 553 " clip-rule="nonzero"/></clipPath><clipPath id="5f3d251e20"><path d="M 77.191406 559.515625 L 77.191406 940.484375 C 77.191406 951.253906 85.921875 959.984375 96.691406 959.984375 L 1403.308594 959.984375 C 1414.078125 959.984375 1422.808594 951.253906 1422.808594 940.484375 L 1422.808594 559.515625 C 1422.808594 548.746094 1414.078125 540.015625 1403.308594 540.015625 L 96.691406 540.015625 C 85.921875 540.015625 77.191406 548.746094 77.191406 559.515625 Z M 77.191406 559.515625 " clip-rule="nonzero"/></clipPath><clipPath id="22b594c4d7"><path d="M 97.589844 540.914062 L 1402.410156 540.914062 C 1413.179688 540.914062 1421.910156 549.644531 1421.910156 560.414062 L 1421.910156 939.585938 C 1421.910156 950.355469 1413.179688 959.085938 1402.410156 959.085938 L 97.589844 959.085938 C 86.820312 959.085938 78.089844 950.355469 78.089844 939.585938 L 78.089844 560.414062 C 78.089844 549.644531 86.820312 540.914062 97.589844 540.914062 Z M 97.589844 540.914062 " clip-rule="nonzero"/></clipPath><clipPath id="8c730d50b3"><path d="M 1300 548 L 1352 548 L 1352 780 L 1300 780 Z M 1300 548 " clip-rule="nonzero"/></clipPath><clipPath id="f1ff7a35cb"><path d="M 77.191406 559.515625 L 77.191406 940.484375 C 77.191406 951.253906 85.921875 959.984375 96.691406 959.984375 L 1403.308594 959.984375 C 1414.078125 959.984375 1422.808594 951.253906 1422.808594 940.484375 L 1422.808594 559.515625 C 1422.808594 548.746094 1414.078125 540.015625 1403.308594 540.015625 L 96.691406 540.015625 C 85.921875 540.015625 77.191406 548.746094 77.191406 559.515625 Z M 77.191406 559.515625 " clip-rule="nonzero"/></clipPath><clipPath id="47218206bf"><path d="M 97.589844 540.914062 L 1402.410156 540.914062 C 1413.179688 540.914062 1421.910156 549.644531 1421.910156 560.414062 L 1421.910156 939.585938 C 1421.910156 950.355469 1413.179688 959.085938 1402.410156 959.085938 L 97.589844 959.085938 C 86.820312 959.085938 78.089844 950.355469 78.089844 939.585938 L 78.089844 560.414062 C 78.089844 549.644531 86.820312 540.914062 97.589844 540.914062 Z M 97.589844 540.914062 " clip-rule="nonzero"/></clipPath><clipPath id="89782619c8"><path d="M 77.191406 540.015625 L 1422.691406 540.015625 L 1422.691406 960 L 77.191406 960 Z M 77.191406 540.015625 " clip-rule="nonzero"/></clipPath><clipPath id="3d56f804ef"><path d="M 77.191406 559.515625 L 77.191406 940.484375 C 77.191406 951.253906 85.921875 959.984375 96.691406 959.984375 L 1403.308594 959.984375 C 1414.078125 959.984375 1422.808594 951.253906 1422.808594 940.484375 L 1422.808594 559.515625 C 1422.808594 548.746094 1414.078125 540.015625 1403.308594 540.015625 L 96.691406 540.015625 C 85.921875 540.015625 77.191406 548.746094 77.191406 559.515625 Z M 77.191406 559.515625 " clip-rule="nonzero"/></clipPath><clipPath id="d3dad64458"><path d="M 77.191406 559.515625 L 77.191406 940.480469 C 77.191406 951.25 85.921875 959.980469 96.691406 959.980469 L 1403.296875 959.980469 C 1414.066406 959.980469 1422.796875 951.25 1422.796875 940.480469 L 1422.796875 559.515625 C 1422.796875 548.746094 1414.066406 540.015625 1403.296875 540.015625 L 96.691406 540.015625 C 85.921875 540.015625 77.191406 548.746094 77.191406 559.515625 Z M 77.191406 559.515625 " clip-rule="nonzero"/></clipPath><clipPath id="7f6f28c72c"><path d="M 286.417969 871.257812 L 347.167969 871.257812 L 347.167969 932.007812 L 286.417969 932.007812 Z M 286.417969 871.257812 " clip-rule="nonzero"/></clipPath><clipPath id="224d4de927"><path d="M 479.519531 871.257812 L 540.269531 871.257812 L 540.269531 932.007812 L 479.519531 932.007812 Z M 479.519531 871.257812 " clip-rule="nonzero"/></clipPath><clipPath id="8b0a6696fd"><path d="M 672.902344 871.257812 L 733.652344 871.257812 L 733.652344 932.007812 L 672.902344 932.007812 Z M 672.902344 871.257812 " clip-rule="nonzero"/></clipPath></defs><g clip-path="url(#7e22459f54)"><g clip-path="url(#37e8ea86c3)"><g clip-path="url(#fb41010825)"><path fill="#000000" d="M 150.664062 543.847656 L 198.878906 543.847656 L 198.878906 780.875 L 150.664062 780.875 Z M 150.664062 543.847656 " fill-opacity="1" fill-rule="evenodd"/></g></g></g><g clip-path="url(#d9a078c766)"><g clip-path="url(#2687f18bf2)"><g clip-path="url(#3ef424173c)"><path stroke-linecap="butt" transform="matrix(0.932292, 0, 0, 0.926936, 47.487538, 386.843824)" fill="none" stroke-linejoin="miter" d="M 110.669807 169.379439 L 162.386295 169.379439 L 162.386295 425.090131 L 110.669807 425.090131 Z M 110.669807 169.379439 " stroke="#000000" stroke-width="1.207" stroke-opacity="1" stroke-miterlimit="4"/></g></g></g><g clip-path="url(#6ea39e0394)"><g clip-path="url(#3d032ffd40)"><g clip-path="url(#643b976615)"><path fill="#000000" d="M 246.121094 543.726562 L 294.335938 543.726562 L 294.335938 780.753906 L 246.121094 780.753906 Z M 246.121094 543.726562 " fill-opacity="1" fill-rule="evenodd"/></g></g></g><g clip-path="url(#1f517d1336)"><g clip-path="url(#f5dbcbd98a)"><g clip-path="url(#3eb05ac083)"><path stroke-linecap="butt" transform="matrix(0.932292, 0, 0, 0.926936, 47.487538, 386.843824)" fill="none" stroke-linejoin="miter" d="M 213.059486 169.2488 L 264.775974 169.2488 L 264.775974 424.959492 L 213.059486 424.959492 Z M 213.059486 169.2488 " stroke="#000000" stroke-width="1.207" stroke-opacity="1" stroke-miterlimit="4"/></g></g></g><g clip-path="url(#fa89322b29)"><g clip-path="url(#f1a60e0e0b)"><g clip-path="url(#567d3c1c87)"><path fill="#000000" d="M 437.34375 543.253906 L 485.558594 543.253906 L 485.558594 780.28125 L 437.34375 780.28125 Z M 437.34375 543.253906 " fill-opacity="1" fill-rule="evenodd"/></g></g></g><g clip-path="url(#9ed6cd3a23)"><g clip-path="url(#dc6e21b461)"><g clip-path="url(#a595aaed73)"><path stroke-linecap="butt" transform="matrix(0.932292, 0, 0, 0.926936, 47.487538, 386.843824)" fill="none" stroke-linejoin="miter" d="M 418.16985 168.738888 L 469.886338 168.738888 L 469.886338 424.44958 L 418.16985 424.44958 Z M 418.16985 168.738888 " stroke="#000000" stroke-width="1.207" stroke-opacity="1" stroke-miterlimit="4"/></g></g></g><g clip-path="url(#1cdcbd0684)"><g clip-path="url(#490da4302d)"><g clip-path="url(#c407c3c4c1)"><path fill="#000000" d="M 532.25 544.199219 L 580.46875 544.199219 L 580.46875 781.226562 L 532.25 781.226562 Z M 532.25 544.199219 " fill-opacity="1" fill-rule="evenodd"/></g></g></g><g clip-path="url(#c8170b983e)"><g clip-path="url(#1ad2ef17a5)"><g clip-path="url(#42dd11f7f4)"><path stroke-linecap="butt" transform="matrix(0.932292, 0, 0, 0.926936, 47.487538, 386.843824)" fill="none" stroke-linejoin="miter" d="M 519.968747 169.758713 L 571.689425 169.758713 L 571.689425 425.469405 L 519.968747 425.469405 Z M 519.968747 169.758713 " stroke="#000000" stroke-width="1.207" stroke-opacity="1" stroke-miterlimit="4"/></g></g></g><g clip-path="url(#c0b4078e1b)"><g clip-path="url(#e7d84a66ec)"><g clip-path="url(#7f85dbadb9)"><path fill="#000000" d="M 629.050781 543.726562 L 677.265625 543.726562 L 677.265625 780.753906 L 629.050781 780.753906 Z M 629.050781 543.726562 " fill-opacity="1" fill-rule="evenodd"/></g></g></g><g clip-path="url(#0696d6b4d8)"><g clip-path="url(#d95da835b9)"><g clip-path="url(#a3f8941e6b)"><path stroke-linecap="butt" transform="matrix(0.932292, 0, 0, 0.926936, 47.487538, 386.843824)" fill="none" stroke-linejoin="miter" d="M 623.799767 169.2488 L 675.516255 169.2488 L 675.516255 424.959492 L 623.799767 424.959492 Z M 623.799767 169.2488 " stroke="#000000" stroke-width="1.207" stroke-opacity="1" stroke-miterlimit="4"/></g></g></g><g clip-path="url(#7df8a23828)"><g clip-path="url(#46e953124b)"><g clip-path="url(#efb69cb3d2)"><path stroke-linecap="butt" transform="matrix(0.932292, 0, 0, 0.926936, 47.487538, 386.843824)" fill="none" stroke-linejoin="miter" d="M 33.516165 167.950841 L 751.857048 167.950841 L 751.857048 617.091233 L 33.516165 617.091233 Z M 33.516165 167.950841 " stroke="#000000" stroke-width="2.375" stroke-opacity="1" stroke-miterlimit="4"/></g></g></g><g clip-path="url(#63979df0d0)"><g clip-path="url(#80e323bc7d)"><g clip-path="url(#c6711200ee)"><path stroke-linecap="butt" transform="matrix(2.142509, 0, 0, 2.142857, 65.302506, 525.658063)" fill="none" stroke-linejoin="miter" d="M 50.74467 114.680684 L 50.74467 202.135125 " stroke="#000000" stroke-width="2.375" stroke-opacity="1" stroke-miterlimit="4"/></g></g></g><g clip-path="url(#9aa2937488)"><g clip-path="url(#13abf0507c)"><g clip-path="url(#0d696edbba)"><path stroke-linecap="butt" transform="matrix(2.142509, 0, 0, 2.142857, 65.302506, 525.658063)" fill="none" stroke-linejoin="miter" d="M 95.847303 114.25959 L 95.847303 201.715855 " stroke="#000000" stroke-width="2.375" stroke-opacity="1" stroke-miterlimit="4"/></g></g></g><g clip-path="url(#be69aa6bee)"><g clip-path="url(#f240c3be1b)"><g clip-path="url(#e6cf9d0e88)"><path stroke-linecap="butt" transform="matrix(2.142509, 0, 0, 2.142857, 65.302506, 525.658063)" fill="none" stroke-linejoin="miter" d="M 184.960464 114.839277 L 184.960464 202.295542 " stroke="#000000" stroke-width="2.375" stroke-opacity="1" stroke-miterlimit="4"/></g></g></g><g clip-path="url(#538f6a7157)"><g clip-path="url(#5365059a01)"><g clip-path="url(#b5e9e43398)"><path stroke-linecap="butt" transform="matrix(2.142509, 0, 0, 2.142857, 65.302506, 525.658063)" fill="none" stroke-linejoin="miter" d="M 229.269999 114.839277 L 229.269999 202.295542 " stroke="#000000" stroke-width="2.375" stroke-opacity="1" stroke-miterlimit="4"/></g></g></g><g clip-path="url(#b3b59bc887)"><g clip-path="url(#ca7f60a03a)"><g clip-path="url(#178e187425)"><path stroke-linecap="butt" transform="matrix(2.142509, 0, 0, 2.142857, 65.302506, 525.658063)" fill="none" stroke-linejoin="miter" d="M 274.689871 114.520267 L 274.689871 201.976532 " stroke="#000000" stroke-width="2.375" stroke-opacity="1" stroke-miterlimit="4"/></g></g></g><g clip-path="url(#042116c1dc)"><g clip-path="url(#b9c4a6b9d3)"><g clip-path="url(#0b87a5e19e)"><path stroke-linecap="butt" transform="matrix(2.142509, 0, 0, 2.142857, 65.302506, 525.658063)" fill="none" stroke-linejoin="miter" d="M 140.350099 8.069207 L 140.350099 201.949188 " stroke="#000000" stroke-width="2.375" stroke-opacity="1" stroke-miterlimit="4"/></g></g></g><g clip-path="url(#fe36472ad9)"><g clip-path="url(#6f71baac2b)"><g clip-path="url(#a2376a6e9a)"><path fill="#000000" d="M 157.082031 552.585938 L 197.097656 552.585938 L 197.097656 773.582031 L 157.082031 773.582031 Z M 157.082031 552.585938 " fill-opacity="1" fill-rule="nonzero"/></g></g></g><g clip-path="url(#ff03d48444)"><g clip-path="url(#d5747e091f)"><g clip-path="url(#72f9bd78b5)"><path stroke-linecap="butt" transform="matrix(2.142509, 0, 0, 2.142857, 65.302506, 525.658063)" fill="none" stroke-linejoin="miter" d="M 42.837398 12.566344 L 61.514387 12.566344 L 61.514387 115.697871 L 42.837398 115.697871 Z M 42.837398 12.566344 " stroke="#000000" stroke-width="5" stroke-opacity="1" stroke-miterlimit="4"/></g></g></g><g clip-path="url(#284b0ccb78)"><g clip-path="url(#6e28800ae6)"><g clip-path="url(#7b4c5b4ce4)"><path fill="#000000" d="M 823.230469 542.382812 L 871.445312 542.382812 L 871.445312 779.410156 L 823.230469 779.410156 Z M 823.230469 542.382812 " fill-opacity="1" fill-rule="evenodd"/></g></g></g><g clip-path="url(#6b87659b1d)"><g clip-path="url(#e138e6d3e7)"><g clip-path="url(#7c6feb9f39)"><path stroke-linecap="butt" transform="matrix(0.932292, 0, 0, 0.926936, 47.487538, 386.843824)" fill="none" stroke-linejoin="miter" d="M 832.08192 167.799131 L 883.798407 167.799131 L 883.798407 423.509823 L 832.08192 423.509823 Z M 832.08192 167.799131 " stroke="#000000" stroke-width="1.207" stroke-opacity="1" stroke-miterlimit="4"/></g></g></g><g clip-path="url(#a5cb50bd67)"><g clip-path="url(#b777bb62b0)"><g clip-path="url(#1f710dc1ec)"><path fill="#000000" d="M 918.6875 542.261719 L 966.902344 542.261719 L 966.902344 779.289062 L 918.6875 779.289062 Z M 918.6875 542.261719 " fill-opacity="1" fill-rule="evenodd"/></g></g></g><g clip-path="url(#c184a94094)"><g clip-path="url(#b007bf52a4)"><g clip-path="url(#2b67c0eb96)"><path stroke-linecap="butt" transform="matrix(0.932292, 0, 0, 0.926936, 47.487538, 386.843824)" fill="none" stroke-linejoin="miter" d="M 934.471599 167.668492 L 986.188087 167.668492 L 986.188087 423.379184 L 934.471599 423.379184 Z M 934.471599 167.668492 " stroke="#000000" stroke-width="1.207" stroke-opacity="1" stroke-miterlimit="4"/></g></g></g><g clip-path="url(#77aff7a69a)"><g clip-path="url(#9f0d2f5bde)"><g clip-path="url(#cd6e169461)"><path fill="#000000" d="M 1109.925781 541.800781 L 1158.144531 541.800781 L 1158.144531 778.828125 L 1109.925781 778.828125 Z M 1109.925781 541.800781 " fill-opacity="1" fill-rule="evenodd"/></g></g></g><g clip-path="url(#da5ff6622c)"><g clip-path="url(#d89a35e70f)"><g clip-path="url(#18152b42b1)"><path stroke-linecap="butt" transform="matrix(0.932292, 0, 0, 0.926936, 47.487538, 386.843824)" fill="none" stroke-linejoin="miter" d="M 1139.598723 167.171222 L 1191.3194 167.171222 L 1191.3194 422.881914 L 1139.598723 422.881914 Z M 1139.598723 167.171222 " stroke="#000000" stroke-width="1.207" stroke-opacity="1" stroke-miterlimit="4"/></g></g></g><g clip-path="url(#88b4f0564d)"><g clip-path="url(#1bb451b990)"><g clip-path="url(#dfcb98642e)"><path fill="#000000" d="M 1204.835938 542.734375 L 1253.050781 542.734375 L 1253.050781 779.761719 L 1204.835938 779.761719 Z M 1204.835938 542.734375 " fill-opacity="1" fill-rule="evenodd"/></g></g></g><g clip-path="url(#31ba10c6d9)"><g clip-path="url(#44adfc5682)"><g clip-path="url(#e3105d293a)"><path stroke-linecap="butt" transform="matrix(0.932292, 0, 0, 0.926936, 47.487538, 386.843824)" fill="none" stroke-linejoin="miter" d="M 1241.40181 168.178405 L 1293.118297 168.178405 L 1293.118297 423.889097 L 1241.40181 423.889097 Z M 1241.40181 168.178405 " stroke="#000000" stroke-width="1.207" stroke-opacity="1" stroke-miterlimit="4"/></g></g></g><g clip-path="url(#824cb8bc55)"><g clip-path="url(#2338a4f3fb)"><g clip-path="url(#3c1e0a9fb7)"><path fill="#000000" d="M 1301.605469 542.261719 L 1349.824219 542.261719 L 1349.824219 779.289062 L 1301.605469 779.289062 Z M 1301.605469 542.261719 " fill-opacity="1" fill-rule="evenodd"/></g></g></g><g clip-path="url(#877a801bf5)"><g clip-path="url(#08f53ea4c5)"><g clip-path="url(#a796354964)"><path stroke-linecap="butt" transform="matrix(0.932292, 0, 0, 0.926936, 47.487538, 386.843824)" fill="none" stroke-linejoin="miter" d="M 1345.19931 167.668492 L 1396.919988 167.668492 L 1396.919988 423.379184 L 1345.19931 423.379184 Z M 1345.19931 167.668492 " stroke="#000000" stroke-width="1.207" stroke-opacity="1" stroke-miterlimit="4"/></g></g></g><g clip-path="url(#8666563b43)"><g clip-path="url(#107416eaab)"><g clip-path="url(#b3db4d6ed3)"><path stroke-linecap="butt" transform="matrix(0.932292, 0, 0, 0.926936, 47.487538, 386.843824)" fill="none" stroke-linejoin="miter" d="M 754.919898 166.370533 L 1473.260781 166.370533 L 1473.260781 615.510925 L 754.919898 615.510925 Z M 754.919898 166.370533 " stroke="#000000" stroke-width="2.375" stroke-opacity="1" stroke-miterlimit="4"/></g></g></g><g clip-path="url(#96ebc3eed5)"><g clip-path="url(#7cfa64cefa)"><g clip-path="url(#bf941098ab)"><path stroke-linecap="butt" transform="matrix(2.142509, 0, 0, 2.142857, 65.302506, 525.658063)" fill="none" stroke-linejoin="miter" d="M 364.659941 114.000736 L 364.659941 201.455177 " stroke="#000000" stroke-width="2.375" stroke-opacity="1" stroke-miterlimit="4"/></g></g></g><g clip-path="url(#accdc23697)"><g clip-path="url(#ba57a54340)"><g clip-path="url(#b64b2e278f)"><path stroke-linecap="butt" transform="matrix(2.142509, 0, 0, 2.142857, 65.302506, 525.658063)" fill="none" stroke-linejoin="miter" d="M 409.760751 113.579642 L 409.760751 201.035907 " stroke="#000000" stroke-width="2.375" stroke-opacity="1" stroke-miterlimit="4"/></g></g></g><g clip-path="url(#0d6299ced5)"><g clip-path="url(#de64f6d742)"><g clip-path="url(#e90a25dc7a)"><path stroke-linecap="butt" transform="matrix(2.142509, 0, 0, 2.142857, 65.302506, 525.658063)" fill="none" stroke-linejoin="miter" d="M 498.870265 114.150215 L 498.870265 201.60648 " stroke="#000000" stroke-width="2.375" stroke-opacity="1" stroke-miterlimit="4"/></g></g></g><g clip-path="url(#5b45838a01)"><g clip-path="url(#966f89a5b6)"><g clip-path="url(#3a866c2d79)"><path stroke-linecap="butt" transform="matrix(2.142509, 0, 0, 2.142857, 65.302506, 525.658063)" fill="none" stroke-linejoin="miter" d="M 543.19074 114.150215 L 543.19074 201.60648 " stroke="#000000" stroke-width="2.375" stroke-opacity="1" stroke-miterlimit="4"/></g></g></g><g clip-path="url(#b6b3e3e2c0)"><g clip-path="url(#2cdd8bb341)"><g clip-path="url(#93880a412d)"><path stroke-linecap="butt" transform="matrix(2.142509, 0, 0, 2.142857, 65.302506, 525.658063)" fill="none" stroke-linejoin="miter" d="M 588.599672 113.840319 L 588.599672 201.296584 " stroke="#000000" stroke-width="2.375" stroke-opacity="1" stroke-miterlimit="4"/></g></g></g><g clip-path="url(#fbdffade56)"><g clip-path="url(#3b1ddd8406)"><g clip-path="url(#7814efb61f)"><path stroke-linecap="butt" transform="matrix(2.142509, 0, 0, 2.142857, 65.302506, 525.658063)" fill="none" stroke-linejoin="miter" d="M 454.2599 7.387437 L 454.2599 201.267417 " stroke="#000000" stroke-width="2.375" stroke-opacity="1" stroke-miterlimit="4"/></g></g></g><g clip-path="url(#382c93624e)"><g clip-path="url(#078de0d718)"><g clip-path="url(#aae3a3586d)"><path fill="#000000" d="M 251.898438 549.980469 L 291.914062 549.980469 L 291.914062 770.972656 L 251.898438 770.972656 Z M 251.898438 549.980469 " fill-opacity="1" fill-rule="nonzero"/></g></g></g><g clip-path="url(#b9e9cbd2fd)"><g clip-path="url(#6a45b93b92)"><g clip-path="url(#e7f1afdaaf)"><path stroke-linecap="butt" transform="matrix(2.142509, 0, 0, 2.142857, 65.302506, 525.658063)" fill="none" stroke-linejoin="miter" d="M 87.092236 11.350458 L 105.769226 11.350458 L 105.769226 114.480163 L 87.092236 114.480163 Z M 87.092236 11.350458 " stroke="#000000" stroke-width="5" stroke-opacity="1" stroke-miterlimit="4"/></g></g></g><g clip-path="url(#ef79bb0f25)"><g clip-path="url(#329aa41a27)"><g clip-path="url(#45efa5b158)"><path fill="#000000" d="M 443.285156 549.980469 L 483.300781 549.980469 L 483.300781 770.972656 L 443.285156 770.972656 Z M 443.285156 549.980469 " fill-opacity="1" fill-rule="nonzero"/></g></g></g><g clip-path="url(#d81f0a2545)"><g clip-path="url(#60b14e892f)"><g clip-path="url(#221f032489)"><path stroke-linecap="butt" transform="matrix(2.142509, 0, 0, 2.142857, 65.302506, 525.658063)" fill="none" stroke-linejoin="miter" d="M 176.420536 11.350458 L 195.097526 11.350458 L 195.097526 114.480163 L 176.420536 114.480163 Z M 176.420536 11.350458 " stroke="#000000" stroke-width="5" stroke-opacity="1" stroke-miterlimit="4"/></g></g></g><g clip-path="url(#7d2d936506)"><g clip-path="url(#386e57cf5e)"><g clip-path="url(#47283569c0)"><path fill="#000000" d="M 537.234375 551.71875 L 577.25 551.71875 L 577.25 772.710938 L 537.234375 772.710938 Z M 537.234375 551.71875 " fill-opacity="1" fill-rule="nonzero"/></g></g></g><g clip-path="url(#07fb1bce7f)"><g clip-path="url(#084289f412)"><g clip-path="url(#a28492190e)"><path stroke-linecap="butt" transform="matrix(2.142509, 0, 0, 2.142857, 65.302506, 525.658063)" fill="none" stroke-linejoin="miter" d="M 220.270622 12.161656 L 238.947611 12.161656 L 238.947611 115.291361 L 220.270622 115.291361 Z M 220.270622 12.161656 " stroke="#000000" stroke-width="5" stroke-opacity="1" stroke-miterlimit="4"/></g></g></g><g clip-path="url(#2e72a1eae9)"><g clip-path="url(#f734e175e6)"><g clip-path="url(#c3215dd78c)"><path fill="#000000" d="M 634.652344 551.71875 L 674.667969 551.71875 L 674.667969 772.710938 L 634.652344 772.710938 Z M 634.652344 551.71875 " fill-opacity="1" fill-rule="nonzero"/></g></g></g><g clip-path="url(#d84c724477)"><g clip-path="url(#e56fcbeac5)"><g clip-path="url(#d60c7d11be)"><path stroke-linecap="butt" transform="matrix(2.142509, 0, 0, 2.142857, 65.302506, 525.658063)" fill="none" stroke-linejoin="miter" d="M 265.73972 12.161656 L 284.41671 12.161656 L 284.41671 115.291361 L 265.73972 115.291361 Z M 265.73972 12.161656 " stroke="#000000" stroke-width="5" stroke-opacity="1" stroke-miterlimit="4"/></g></g></g><g clip-path="url(#4655b381f5)"><g clip-path="url(#b066ba656a)"><g clip-path="url(#3a430636ce)"><path fill="#000000" d="M 827.777344 548.238281 L 867.792969 548.238281 L 867.792969 769.230469 L 827.777344 769.230469 Z M 827.777344 548.238281 " fill-opacity="1" fill-rule="nonzero"/></g></g></g><g clip-path="url(#784c63123c)"><g clip-path="url(#f34251c1d9)"><g clip-path="url(#7bc3d07ba3)"><path stroke-linecap="butt" transform="matrix(2.142509, 0, 0, 2.142857, 65.302506, 525.658063)" fill="none" stroke-linejoin="miter" d="M 355.87935 10.537437 L 374.556339 10.537437 L 374.556339 113.667142 L 355.87935 113.667142 Z M 355.87935 10.537437 " stroke="#000000" stroke-width="5" stroke-opacity="1" stroke-miterlimit="4"/></g></g></g><g clip-path="url(#c990b70847)"><g clip-path="url(#552590867a)"><g clip-path="url(#8c15a482c8)"><path fill="#000000" d="M 925.21875 548.238281 L 965.234375 548.238281 L 965.234375 769.230469 L 925.21875 769.230469 Z M 925.21875 548.238281 " fill-opacity="1" fill-rule="nonzero"/></g></g></g><g clip-path="url(#dfb1ff3f9b)"><g clip-path="url(#e3073cf047)"><g clip-path="url(#4d95096154)"><path stroke-linecap="butt" transform="matrix(2.142509, 0, 0, 2.142857, 65.302506, 525.658063)" fill="none" stroke-linejoin="miter" d="M 401.359387 10.537437 L 420.036377 10.537437 L 420.036377 113.667142 L 401.359387 113.667142 Z M 401.359387 10.537437 " stroke="#000000" stroke-width="5" stroke-opacity="1" stroke-miterlimit="4"/></g></g></g><g clip-path="url(#3eaa6e6f0e)"><g clip-path="url(#0a1ecac2c9)"><g clip-path="url(#00706ba60d)"><path fill="#000000" d="M 1116.589844 553.460938 L 1156.605469 553.460938 L 1156.605469 774.453125 L 1116.589844 774.453125 Z M 1116.589844 553.460938 " fill-opacity="1" fill-rule="nonzero"/></g></g></g><g clip-path="url(#cb9e5f9835)"><g clip-path="url(#84b4738f87)"><g clip-path="url(#6488f5abfb)"><path stroke-linecap="butt" transform="matrix(2.142509, 0, 0, 2.142857, 65.302506, 525.658063)" fill="none" stroke-linejoin="miter" d="M 490.680394 12.974677 L 509.357384 12.974677 L 509.357384 116.104382 L 490.680394 116.104382 Z M 490.680394 12.974677 " stroke="#000000" stroke-width="5" stroke-opacity="1" stroke-miterlimit="4"/></g></g></g><g clip-path="url(#8f4e53fc2d)"><g clip-path="url(#df8cd72af1)"><g clip-path="url(#a35fec1959)"><path fill="#000000" d="M 1210.539062 555.199219 L 1250.554688 555.199219 L 1250.554688 776.191406 L 1210.539062 776.191406 Z M 1210.539062 555.199219 " fill-opacity="1" fill-rule="nonzero"/></g></g></g><g clip-path="url(#1a1500b180)"><g clip-path="url(#dbf7806cbd)"><g clip-path="url(#65f4b98139)"><path stroke-linecap="butt" transform="matrix(2.142509, 0, 0, 2.142857, 65.302506, 525.658063)" fill="none" stroke-linejoin="miter" d="M 534.53048 13.785875 L 553.20747 13.785875 L 553.20747 116.91558 L 534.53048 116.91558 Z M 534.53048 13.785875 " stroke="#000000" stroke-width="5" stroke-opacity="1" stroke-miterlimit="4"/></g></g></g><g clip-path="url(#292a95b9dc)"><g clip-path="url(#5f3d251e20)"><g clip-path="url(#22b594c4d7)"><path fill="#000000" d="M 1306.242188 553.460938 L 1346.257812 553.460938 L 1346.257812 774.453125 L 1306.242188 774.453125 Z M 1306.242188 553.460938 " fill-opacity="1" fill-rule="nonzero"/></g></g></g><g clip-path="url(#8c730d50b3)"><g clip-path="url(#f1ff7a35cb)"><g clip-path="url(#47218206bf)"><path stroke-linecap="butt" transform="matrix(2.142509, 0, 0, 2.142857, 65.302506, 525.658063)" fill="none" stroke-linejoin="miter" d="M 579.199188 12.974677 L 597.876178 12.974677 L 597.876178 116.104382 L 579.199188 116.104382 Z M 579.199188 12.974677 " stroke="#000000" stroke-width="5" stroke-opacity="1" stroke-miterlimit="4"/></g></g></g><g clip-path="url(#89782619c8)"><g clip-path="url(#3d56f804ef)"><g clip-path="url(#d3dad64458)"><path stroke-linecap="butt" transform="matrix(0.75, 0, 0, 0.75, 77.19158, 540.015173)" fill="none" stroke-linejoin="miter" d="M -0.000231002 26.000604 L -0.000231002 533.953773 C -0.000231002 548.313149 11.640396 559.953775 25.999773 559.953775 L 1768.140659 559.953775 C 1782.500037 559.953775 1794.140663 548.313149 1794.140663 533.953773 L 1794.140663 26.000604 C 1794.140663 11.641228 1782.500037 0.000602018 1768.140659 0.000602018 L 25.999773 0.000602018 C 11.640396 0.000602018 -0.000231002 11.641228 -0.000231002 26.000604 Z M -0.000231002 26.000604 " stroke="#000000" stroke-width="10" stroke-opacity="1" stroke-miterlimit="4"/></g></g></g><g clip-path="url(#7f6f28c72c)"><path fill="#000000" d="M 316.792969 871.257812 C 300.011719 871.257812 286.417969 884.851562 286.417969 901.632812 C 286.417969 918.417969 300.011719 932.007812 316.792969 932.007812 C 333.574219 932.007812 347.167969 918.417969 347.167969 901.632812 C 347.167969 884.851562 333.574219 871.257812 316.792969 871.257812 Z M 316.792969 871.257812 " fill-opacity="1" fill-rule="nonzero"/></g><g clip-path="url(#224d4de927)"><path fill="#000000" d="M 509.894531 871.257812 C 493.113281 871.257812 479.519531 884.851562 479.519531 901.632812 C 479.519531 918.417969 493.113281 932.007812 509.894531 932.007812 C 526.679688 932.007812 540.269531 918.417969 540.269531 901.632812 C 540.269531 884.851562 526.679688 871.257812 509.894531 871.257812 Z M 509.894531 871.257812 " fill-opacity="1" fill-rule="nonzero"/></g><g clip-path="url(#8b0a6696fd)"><path fill="#000000" d="M 703.277344 871.257812 C 686.492188 871.257812 672.902344 884.851562 672.902344 901.632812 C 672.902344 918.417969 686.492188 932.007812 703.277344 932.007812 C 720.058594 932.007812 733.652344 918.417969 733.652344 901.632812 C 733.652344 884.851562 720.058594 871.257812 703.277344 871.257812 Z M 703.277344 871.257812 " fill-opacity="1" fill-rule="nonzero"/></g></svg>