<svg xmlns="http://www.w3.org/2000/svg" xmlns:xlink="http://www.w3.org/1999/xlink" width="2000" zoomAndPan="magnify" viewBox="0 0 1500 1499.999933" height="2000" preserveAspectRatio="xMidYMid meet" version="1.0"><defs><clipPath id="1ba63c0fbc"><path d="M 460.222656 540 L 1133 540 L 1133 959.265625 L 460.222656 959.265625 Z M 460.222656 540 " clip-rule="nonzero"/></clipPath><clipPath id="ba84b3576b"><path d="M 554 768 L 560 768 L 560 959.265625 L 554 959.265625 Z M 554 768 " clip-rule="nonzero"/></clipPath><clipPath id="a8fa70e33d"><path d="M 651 767 L 657 767 L 657 959.265625 L 651 959.265625 Z M 651 767 " clip-rule="nonzero"/></clipPath><clipPath id="342ce3058d"><path d="M 842 768 L 848 768 L 848 959.265625 L 842 959.265625 Z M 842 768 " clip-rule="nonzero"/></clipPath><clipPath id="994037899d"><path d="M 937 768 L 943 768 L 943 959.265625 L 937 959.265625 Z M 937 768 " clip-rule="nonzero"/></clipPath><clipPath id="86c68ccff0"><path d="M 1034 767 L 1040 767 L 1040 959.265625 L 1034 959.265625 Z M 1034 767 " clip-rule="nonzero"/></clipPath><clipPath id="6ebe74654d"><path d="M 746 539.265625 L 752 539.265625 L 752 959.265625 L 746 959.265625 Z M 746 539.265625 " clip-rule="nonzero"/></clipPath><clipPath id="801468c91b"><path d="M 1133 539.265625 L 1425.472656 539.265625 L 1425.472656 958 L 1133 958 Z M 1133 539.265625 " clip-rule="nonzero"/></clipPath><clipPath id="e2a48baa4f"><path d="M 1227 766 L 1233 766 L 1233 959.265625 L 1227 959.265625 Z M 1227 766 " clip-rule="nonzero"/></clipPath><clipPath id="f74cf55adf"><path d="M 1419 539.265625 L 1425 539.265625 L 1425 959 L 1419 959 Z M 1419 539.265625 " clip-rule="nonzero"/></clipPath><clipPath id="f89ba1d82e"><path d="M 74.875 540.765625 L 461 540.765625 L 461 960 L 74.875 960 Z M 74.875 540.765625 " clip-rule="nonzero"/></clipPath><clipPath id="13b862b889"><path d="M 170 768 L 176 768 L 176 960.765625 L 170 960.765625 Z M 170 768 " clip-rule="nonzero"/></clipPath><clipPath id="35d7b893b0"><path d="M 265 768 L 271 768 L 271 960.765625 L 265 960.765625 Z M 265 768 " clip-rule="nonzero"/></clipPath><clipPath id="3fb4587eca"><path d="M 362 767 L 368 767 L 368 960.765625 L 362 960.765625 Z M 362 767 " clip-rule="nonzero"/></clipPath><clipPath id="3c6a41ed10"><path d="M 74.875 540.765625 L 80 540.765625 L 80 960.765625 L 74.875 960.765625 Z M 74.875 540.765625 " clip-rule="nonzero"/></clipPath><clipPath id="3631f510f2"><path d="M 188.488281 872.332031 L 249.238281 872.332031 L 249.238281 933.082031 L 188.488281 933.082031 Z M 188.488281 872.332031 " clip-rule="nonzero"/></clipPath><clipPath id="651d989d88"><path d="M 576.449219 872.332031 L 637.199219 872.332031 L 637.199219 933.082031 L 576.449219 933.082031 Z M 576.449219 872.332031 " clip-rule="nonzero"/></clipPath><clipPath id="7240c1edba"><path d="M 382.46875 872.332031 L 443.21875 872.332031 L 443.21875 933.082031 L 382.46875 933.082031 Z M 382.46875 872.332031 " clip-rule="nonzero"/></clipPath></defs><path stroke-linecap="butt" transform="matrix(0.932291, 0, 0, 0.926936, 430.51802, 386.093707)" fill-opacity="1" fill="#000000" fill-rule="evenodd" stroke-linejoin="miter" d="M 110.670636 169.379566 L 162.387127 169.379566 L 162.387127 425.090258 L 110.670636 425.090258 Z M 110.670636 169.379566 " stroke="#000000" stroke-width="1.207" stroke-opacity="1" stroke-miterlimit="4"/><path stroke-linecap="butt" transform="matrix(0.932291, 0, 0, 0.926936, 430.51802, 386.093707)" fill-opacity="1" fill="#000000" fill-rule="evenodd" stroke-linejoin="miter" d="M 213.060321 169.248927 L 264.776811 169.248927 L 264.776811 424.959619 L 213.060321 424.959619 Z M 213.060321 169.248927 " stroke="#000000" stroke-width="1.207" stroke-opacity="1" stroke-miterlimit="4"/><path stroke-linecap="butt" transform="matrix(0.932291, 0, 0, 0.926936, 430.51802, 386.093707)" fill-opacity="1" fill="#000000" fill-rule="evenodd" stroke-linejoin="miter" d="M 418.170695 168.739014 L 469.887186 168.739014 L 469.887186 424.449706 L 418.170695 424.449706 Z M 418.170695 168.739014 " stroke="#000000" stroke-width="1.207" stroke-opacity="1" stroke-miterlimit="4"/><path stroke-linecap="butt" transform="matrix(0.932291, 0, 0, 0.926936, 430.51802, 386.093707)" fill-opacity="1" fill="#000000" fill-rule="evenodd" stroke-linejoin="miter" d="M 519.969598 169.75884 L 571.686088 169.75884 L 571.686088 425.469532 L 519.969598 425.469532 Z M 519.969598 169.75884 " stroke="#000000" stroke-width="1.207" stroke-opacity="1" stroke-miterlimit="4"/><path stroke-linecap="butt" transform="matrix(0.932291, 0, 0, 0.926936, 430.51802, 386.093707)" fill-opacity="1" fill="#000000" fill-rule="evenodd" stroke-linejoin="miter" d="M 623.800623 169.248927 L 675.517114 169.248927 L 675.517114 424.959619 L 623.800623 424.959619 Z M 623.800623 169.248927 " stroke="#000000" stroke-width="1.207" stroke-opacity="1" stroke-miterlimit="4"/><g clip-path="url(#1ba63c0fbc)"><path stroke-linecap="butt" transform="matrix(0.932291, 0, 0, 0.926936, 430.51802, 386.093707)" fill="none" stroke-linejoin="miter" d="M 33.51699 167.950967 L 751.85791 167.950967 L 751.85791 617.091359 L 33.51699 617.091359 Z M 33.51699 167.950967 " stroke="#000000" stroke-width="2.375" stroke-opacity="1" stroke-miterlimit="4"/></g><g clip-path="url(#ba84b3576b)"><path stroke-linecap="butt" transform="matrix(2.142509, 0, 0, 2.142857, 448.332979, 524.907943)" fill="none" stroke-linejoin="miter" d="M 50.745033 114.68074 L 50.745033 202.135181 " stroke="#000000" stroke-width="2.375" stroke-opacity="1" stroke-miterlimit="4"/></g><g clip-path="url(#a8fa70e33d)"><path stroke-linecap="butt" transform="matrix(2.142509, 0, 0, 2.142857, 448.332979, 524.907943)" fill="none" stroke-linejoin="miter" d="M 95.847666 114.259646 L 95.847666 201.715911 " stroke="#000000" stroke-width="2.375" stroke-opacity="1" stroke-miterlimit="4"/></g><g clip-path="url(#342ce3058d)"><path stroke-linecap="butt" transform="matrix(2.142509, 0, 0, 2.142857, 448.332979, 524.907943)" fill="none" stroke-linejoin="miter" d="M 184.960827 114.839333 L 184.960827 202.295598 " stroke="#000000" stroke-width="2.375" stroke-opacity="1" stroke-miterlimit="4"/></g><g clip-path="url(#994037899d)"><path stroke-linecap="butt" transform="matrix(2.142509, 0, 0, 2.142857, 448.332979, 524.907943)" fill="none" stroke-linejoin="miter" d="M 229.270362 114.839333 L 229.270362 202.295598 " stroke="#000000" stroke-width="2.375" stroke-opacity="1" stroke-miterlimit="4"/></g><g clip-path="url(#86c68ccff0)"><path stroke-linecap="butt" transform="matrix(2.142509, 0, 0, 2.142857, 448.332979, 524.907943)" fill="none" stroke-linejoin="miter" d="M 274.690234 114.520323 L 274.690234 201.976588 " stroke="#000000" stroke-width="2.375" stroke-opacity="1" stroke-miterlimit="4"/></g><g clip-path="url(#6ebe74654d)"><path stroke-linecap="butt" transform="matrix(2.142509, 0, 0, 2.142857, 448.332979, 524.907943)" fill="none" stroke-linejoin="miter" d="M 140.350462 8.069263 L 140.350462 201.949244 " stroke="#000000" stroke-width="2.375" stroke-opacity="1" stroke-miterlimit="4"/></g><path stroke-linecap="butt" transform="matrix(2.142509, 0, 0, 2.142857, 448.332979, 524.907943)" fill-opacity="1" fill="#000000" fill-rule="nonzero" stroke-linejoin="miter" d="M 42.83776 12.5664 L 61.51475 12.5664 L 61.51475 115.696104 L 42.83776 115.696104 Z M 42.83776 12.5664 " stroke="#000000" stroke-width="5" stroke-opacity="1" stroke-miterlimit="4"/><path stroke-linecap="butt" transform="matrix(0.932291, 0, 0, 0.926936, 430.51802, 386.093707)" fill-opacity="1" fill="#000000" fill-rule="evenodd" stroke-linejoin="miter" d="M 832.078596 167.799258 L 883.799276 167.799258 L 883.799276 423.50995 L 832.078596 423.50995 Z M 832.078596 167.799258 " stroke="#000000" stroke-width="1.207" stroke-opacity="1" stroke-miterlimit="4"/><path stroke-linecap="butt" transform="matrix(0.932291, 0, 0, 0.926936, 430.51802, 386.093707)" fill-opacity="1" fill="#000000" fill-rule="evenodd" stroke-linejoin="miter" d="M 934.468281 167.668619 L 986.188961 167.668619 L 986.188961 423.379311 L 934.468281 423.379311 Z M 934.468281 167.668619 " stroke="#000000" stroke-width="1.207" stroke-opacity="1" stroke-miterlimit="4"/><g clip-path="url(#801468c91b)"><path stroke-linecap="butt" transform="matrix(0.932291, 0, 0, 0.926936, 430.51802, 386.093707)" fill="none" stroke-linejoin="miter" d="M 754.92076 166.370659 L 1473.26168 166.370659 L 1473.26168 615.511051 L 754.92076 615.511051 Z M 754.92076 166.370659 " stroke="#000000" stroke-width="2.375" stroke-opacity="1" stroke-miterlimit="4"/></g><g clip-path="url(#e2a48baa4f)"><path stroke-linecap="butt" transform="matrix(2.142509, 0, 0, 2.142857, 448.332979, 524.907943)" fill="none" stroke-linejoin="miter" d="M 364.660304 114.000792 L 364.660304 201.455233 " stroke="#000000" stroke-width="2.375" stroke-opacity="1" stroke-miterlimit="4"/></g><path stroke-linecap="butt" transform="matrix(2.142509, 0, 0, 2.142857, 448.332979, 524.907943)" fill="none" stroke-linejoin="miter" d="M 409.75929 113.579698 L 409.75929 201.035963 " stroke="#000000" stroke-width="2.375" stroke-opacity="1" stroke-miterlimit="4"/><g clip-path="url(#f74cf55adf)"><path stroke-linecap="butt" transform="matrix(2.142509, 0, 0, 2.142857, 448.332979, 524.907943)" fill="none" stroke-linejoin="miter" d="M 454.260263 7.387493 L 454.260263 201.267473 " stroke="#000000" stroke-width="2.375" stroke-opacity="1" stroke-miterlimit="4"/></g><path stroke-linecap="butt" transform="matrix(2.142509, 0, 0, 2.142857, 448.332979, 524.907943)" fill-opacity="1" fill="#000000" fill-rule="nonzero" stroke-linejoin="miter" d="M 87.092599 11.350514 L 105.769589 11.350514 L 105.769589 114.480219 L 87.092599 114.480219 Z M 87.092599 11.350514 " stroke="#000000" stroke-width="5" stroke-opacity="1" stroke-miterlimit="4"/><path stroke-linecap="butt" transform="matrix(2.142509, 0, 0, 2.142857, 448.332979, 524.907943)" fill-opacity="1" fill="#000000" fill-rule="nonzero" stroke-linejoin="miter" d="M 176.420899 11.350514 L 195.097889 11.350514 L 195.097889 114.480219 L 176.420899 114.480219 Z M 176.420899 11.350514 " stroke="#000000" stroke-width="5" stroke-opacity="1" stroke-miterlimit="4"/><path stroke-linecap="butt" transform="matrix(2.142509, 0, 0, 2.142857, 448.332979, 524.907943)" fill-opacity="1" fill="#000000" fill-rule="nonzero" stroke-linejoin="miter" d="M 220.269161 12.161712 L 238.946151 12.161712 L 238.946151 115.291417 L 220.269161 115.291417 Z M 220.269161 12.161712 " stroke="#000000" stroke-width="5" stroke-opacity="1" stroke-miterlimit="4"/><path stroke-linecap="butt" transform="matrix(2.142509, 0, 0, 2.142857, 448.332979, 524.907943)" fill-opacity="1" fill="#000000" fill-rule="nonzero" stroke-linejoin="miter" d="M 265.740083 12.161712 L 284.417073 12.161712 L 284.417073 115.291417 L 265.740083 115.291417 Z M 265.740083 12.161712 " stroke="#000000" stroke-width="5" stroke-opacity="1" stroke-miterlimit="4"/><path stroke-linecap="butt" transform="matrix(2.142509, 0, 0, 2.142857, 448.332979, 524.907943)" fill-opacity="1" fill="#000000" fill-rule="nonzero" stroke-linejoin="miter" d="M 355.879713 10.537493 L 374.556702 10.537493 L 374.556702 113.667198 L 355.879713 113.667198 Z M 355.879713 10.537493 " stroke="#000000" stroke-width="5" stroke-opacity="1" stroke-miterlimit="4"/><path stroke-linecap="butt" transform="matrix(2.142509, 0, 0, 2.142857, 448.332979, 524.907943)" fill-opacity="1" fill="#000000" fill-rule="nonzero" stroke-linejoin="miter" d="M 401.35975 10.537493 L 420.03674 10.537493 L 420.03674 113.667198 L 401.35975 113.667198 Z M 401.35975 10.537493 " stroke="#000000" stroke-width="5" stroke-opacity="1" stroke-miterlimit="4"/><path stroke-linecap="butt" transform="matrix(0.932292, 0, 0, 0.926936, -913.67396, 387.593707)" fill-opacity="1" fill="#000000" fill-rule="evenodd" stroke-linejoin="miter" d="M 1139.600074 167.171349 L 1191.316558 167.171349 L 1191.316558 422.882041 L 1139.600074 422.882041 Z M 1139.600074 167.171349 " stroke="#000000" stroke-width="1.207" stroke-opacity="1" stroke-miterlimit="4"/><path stroke-linecap="butt" transform="matrix(0.932292, 0, 0, 0.926936, -913.67396, 387.593707)" fill-opacity="1" fill="#000000" fill-rule="evenodd" stroke-linejoin="miter" d="M 1241.398963 168.178532 L 1293.119637 168.178532 L 1293.119637 423.889224 L 1241.398963 423.889224 Z M 1241.398963 168.178532 " stroke="#000000" stroke-width="1.207" stroke-opacity="1" stroke-miterlimit="4"/><path stroke-linecap="butt" transform="matrix(0.932292, 0, 0, 0.926936, -913.67396, 387.593707)" fill-opacity="1" fill="#000000" fill-rule="evenodd" stroke-linejoin="miter" d="M 1345.200645 167.668619 L 1396.917129 167.668619 L 1396.917129 423.379311 L 1345.200645 423.379311 Z M 1345.200645 167.668619 " stroke="#000000" stroke-width="1.207" stroke-opacity="1" stroke-miterlimit="4"/><g clip-path="url(#f89ba1d82e)"><path stroke-linecap="butt" transform="matrix(0.932292, 0, 0, 0.926936, -913.67396, 387.593707)" fill="none" stroke-linejoin="miter" d="M 754.921279 166.37066 L 1473.257916 166.37066 L 1473.257916 615.511051 L 754.921279 615.511051 Z M 754.921279 166.37066 " stroke="#000000" stroke-width="2.375" stroke-opacity="1" stroke-miterlimit="4"/></g><g clip-path="url(#13b862b889)"><path stroke-linecap="butt" transform="matrix(2.14251, 0, 0, 2.142857, -895.859001, 526.407943)" fill="none" stroke-linejoin="miter" d="M 498.870846 114.150271 L 498.870846 201.606536 " stroke="#000000" stroke-width="2.375" stroke-opacity="1" stroke-miterlimit="4"/></g><g clip-path="url(#35d7b893b0)"><path stroke-linecap="butt" transform="matrix(2.14251, 0, 0, 2.142857, -895.859001, 526.407943)" fill="none" stroke-linejoin="miter" d="M 543.189493 114.150271 L 543.189493 201.606536 " stroke="#000000" stroke-width="2.375" stroke-opacity="1" stroke-miterlimit="4"/></g><g clip-path="url(#3fb4587eca)"><path stroke-linecap="butt" transform="matrix(2.14251, 0, 0, 2.142857, -895.859001, 526.407943)" fill="none" stroke-linejoin="miter" d="M 588.600243 113.840375 L 588.600243 201.29664 " stroke="#000000" stroke-width="2.375" stroke-opacity="1" stroke-miterlimit="4"/></g><g clip-path="url(#3c6a41ed10)"><path stroke-linecap="butt" transform="matrix(2.14251, 0, 0, 2.142857, -895.859001, 526.407943)" fill="none" stroke-linejoin="miter" d="M 454.260485 7.387493 L 454.260485 201.267473 " stroke="#000000" stroke-width="2.375" stroke-opacity="1" stroke-miterlimit="4"/></g><path stroke-linecap="butt" transform="matrix(2.14251, 0, 0, 2.142857, -895.859001, 526.407943)" fill-opacity="1" fill="#000000" fill-rule="nonzero" stroke-linejoin="miter" d="M 490.679153 12.974733 L 509.35614 12.974733 L 509.35614 116.104438 L 490.679153 116.104438 Z M 490.679153 12.974733 " stroke="#000000" stroke-width="5" stroke-opacity="1" stroke-miterlimit="4"/><path stroke-linecap="butt" transform="matrix(2.14251, 0, 0, 2.142857, -895.859001, 526.407943)" fill-opacity="1" fill="#000000" fill-rule="nonzero" stroke-linejoin="miter" d="M 534.529234 13.785931 L 553.206221 13.785931 L 553.206221 116.915636 L 534.529234 116.915636 Z M 534.529234 13.785931 " stroke="#000000" stroke-width="5" stroke-opacity="1" stroke-miterlimit="4"/><path stroke-linecap="butt" transform="matrix(2.14251, 0, 0, 2.142857, -895.859001, 526.407943)" fill-opacity="1" fill="#000000" fill-rule="nonzero" stroke-linejoin="miter" d="M 579.19976 12.974733 L 597.876748 12.974733 L 597.876748 116.104438 L 579.19976 116.104438 Z M 579.19976 12.974733 " stroke="#000000" stroke-width="5" stroke-opacity="1" stroke-miterlimit="4"/><g clip-path="url(#3631f510f2)"><path fill="#000000" d="M 218.863281 872.332031 C 202.078125 872.332031 188.488281 885.921875 188.488281 902.707031 C 188.488281 919.488281 202.078125 933.082031 218.863281 933.082031 C 235.644531 933.082031 249.238281 919.488281 249.238281 902.707031 C 249.238281 885.921875 235.644531 872.332031 218.863281 872.332031 Z M 218.863281 872.332031 " fill-opacity="1" fill-rule="nonzero"/></g><g clip-path="url(#651d989d88)"><path fill="#000000" d="M 606.824219 872.332031 C 590.042969 872.332031 576.449219 885.921875 576.449219 902.707031 C 576.449219 919.488281 590.042969 933.082031 606.824219 933.082031 C 623.609375 933.082031 637.199219 919.488281 637.199219 902.707031 C 637.199219 885.921875 623.609375 872.332031 606.824219 872.332031 Z M 606.824219 872.332031 " fill-opacity="1" fill-rule="nonzero"/></g><g clip-path="url(#7240c1edba)"><path fill="#000000" d="M 412.84375 872.332031 C 396.0625 872.332031 382.46875 885.921875 382.46875 902.707031 C 382.46875 919.488281 396.0625 933.082031 412.84375 933.082031 C 429.625 933.082031 443.21875 919.488281 443.21875 902.707031 C 443.21875 885.921875 429.625 872.332031 412.84375 872.332031 Z M 412.84375 872.332031 " fill-opacity="1" fill-rule="nonzero"/></g></svg>