<svg xmlns="http://www.w3.org/2000/svg" xmlns:xlink="http://www.w3.org/1999/xlink" width="2000" zoomAndPan="magnify" viewBox="0 0 1500 607.92" height="800" preserveAspectRatio="xMidYMid meet" version="1.0"><defs><clipPath id="0cd7f586f6"><path d="M 0.0976562 0 L 1499.898438 0 L 1499.898438 599.921875 L 0.0976562 599.921875 Z M 0.0976562 0 " clip-rule="nonzero"/></clipPath><clipPath id="8d3e421fdd"><path d="M 59 85 L 1499.898438 85 L 1499.898438 515 L 59 515 Z M 59 85 " clip-rule="nonzero"/></clipPath><clipPath id="021e142da2"><path d="M 396 2 L 1083 2 L 1083 429.5625 L 396 429.5625 Z M 396 2 " clip-rule="nonzero"/></clipPath><clipPath id="be7260d34b"><path d="M 492 234 L 498 234 L 498 429.5625 L 492 429.5625 Z M 492 234 " clip-rule="nonzero"/></clipPath><clipPath id="f02042f6fa"><path d="M 590 233 L 597 233 L 597 429.5625 L 590 429.5625 Z M 590 233 " clip-rule="nonzero"/></clipPath><clipPath id="58e22cca3b"><path d="M 785 234 L 791 234 L 791 429.5625 L 785 429.5625 Z M 785 234 " clip-rule="nonzero"/></clipPath><clipPath id="2546ed6593"><path d="M 882 234 L 888 234 L 888 429.5625 L 882 429.5625 Z M 882 234 " clip-rule="nonzero"/></clipPath><clipPath id="0236014714"><path d="M 981 233 L 988 233 L 988 429.5625 L 981 429.5625 Z M 981 233 " clip-rule="nonzero"/></clipPath><clipPath id="6d7b78b817"><path d="M 688 1 L 694 1 L 694 429.5625 L 688 429.5625 Z M 688 1 " clip-rule="nonzero"/></clipPath><clipPath id="05d2f5a817"><path d="M 1082 0.613281 L 1380.890625 0.613281 L 1380.890625 428 L 1082 428 Z M 1082 0.613281 " clip-rule="nonzero"/></clipPath><clipPath id="952aaa1c1a"><path d="M 1178 232 L 1184 232 L 1184 429.5625 L 1178 429.5625 Z M 1178 232 " clip-rule="nonzero"/></clipPath><clipPath id="9c66df6b00"><path d="M 1374 0.613281 L 1380 0.613281 L 1380 429.5625 L 1374 429.5625 Z M 1374 0.613281 " clip-rule="nonzero"/></clipPath><clipPath id="6b4e763628"><path d="M 1.089844 0.613281 L 395.640625 0.613281 L 395.640625 428 L 1.089844 428 Z M 1.089844 0.613281 " clip-rule="nonzero"/></clipPath><clipPath id="ac1db09221"><path d="M 98 233 L 104 233 L 104 429.5625 L 98 429.5625 Z M 98 233 " clip-rule="nonzero"/></clipPath><clipPath id="710e728f5b"><path d="M 195 233 L 201 233 L 201 429.5625 L 195 429.5625 Z M 195 233 " clip-rule="nonzero"/></clipPath><clipPath id="53f1efb74d"><path d="M 294 232 L 300 232 L 300 429.5625 L 294 429.5625 Z M 294 232 " clip-rule="nonzero"/></clipPath><clipPath id="ef90266f5f"><path d="M 1.089844 0.613281 L 7 0.613281 L 7 429.5625 L 1.089844 429.5625 Z M 1.089844 0.613281 " clip-rule="nonzero"/></clipPath><clipPath id="39747a54e2"><path d="M 117.058594 339.066406 L 178.730469 339.066406 L 178.730469 400.738281 L 117.058594 400.738281 Z M 117.058594 339.066406 " clip-rule="nonzero"/></clipPath><clipPath id="6b160cc7df"><path d="M 513.082031 339.066406 L 574.753906 339.066406 L 574.753906 400.738281 L 513.082031 400.738281 Z M 513.082031 339.066406 " clip-rule="nonzero"/></clipPath><clipPath id="3f9859e53c"><path d="M 268.132812 172 L 328 172 L 328 232 L 268.132812 232 Z M 268.132812 172 " clip-rule="nonzero"/></clipPath><clipPath id="45c5cd5cf2"><path d="M 267.210938 201.945312 C 267.210938 219.035156 281.066406 232.890625 298.15625 232.890625 C 315.246094 232.890625 329.101562 219.035156 329.101562 201.945312 C 329.101562 184.855469 315.246094 171 298.15625 171 C 281.066406 171 267.210938 184.855469 267.210938 201.945312 Z M 267.210938 201.945312 " clip-rule="nonzero"/></clipPath><clipPath id="16fdfeb426"><path d="M 298.15625 172.105469 C 314.636719 172.105469 327.996094 185.464844 327.996094 201.945312 C 327.996094 218.425781 314.636719 231.785156 298.15625 231.785156 C 281.675781 231.785156 268.316406 218.425781 268.316406 201.945312 C 268.316406 185.464844 281.675781 172.105469 298.15625 172.105469 Z M 298.15625 172.105469 " clip-rule="nonzero"/></clipPath><clipPath id="25bffa2628"><path d="M 267.210938 171 L 328.882812 171 L 328.882812 232.671875 L 267.210938 232.671875 Z M 267.210938 171 " clip-rule="nonzero"/></clipPath><clipPath id="fe39164786"><path d="M 267.210938 201.945312 C 267.210938 219.035156 281.066406 232.890625 298.15625 232.890625 C 315.246094 232.890625 329.101562 219.035156 329.101562 201.945312 C 329.101562 184.855469 315.246094 171 298.15625 171 C 281.066406 171 267.210938 184.855469 267.210938 201.945312 Z M 267.210938 201.945312 " clip-rule="nonzero"/></clipPath><clipPath id="43eaa35f19"><path d="M 267.210938 201.945312 C 267.210938 219.035156 281.066406 232.890625 298.15625 232.890625 C 315.246094 232.890625 329.101562 219.035156 329.101562 201.945312 C 329.101562 184.855469 315.246094 171 298.15625 171 C 281.066406 171 267.210938 184.855469 267.210938 201.945312 Z M 267.210938 201.945312 " clip-rule="nonzero"/></clipPath><clipPath id="b0426421a7"><rect x="0" width="1441" y="0" height="430"/></clipPath></defs><g clip-path="url(#0cd7f586f6)"><path fill="#ffffff" d="M 0.0976562 0 L 1499.902344 0 L 1499.902344 599.921875 L 0.0976562 599.921875 Z M 0.0976562 0 " fill-opacity="1" fill-rule="nonzero"/><path fill="#ffffff" d="M 0.0976562 0 L 1499.902344 0 L 1499.902344 599.921875 L 0.0976562 599.921875 Z M 0.0976562 0 " fill-opacity="1" fill-rule="nonzero"/></g><g clip-path="url(#8d3e421fdd)"><g transform="matrix(1, 0, 0, 1, 59, 85)"><g clip-path="url(#b0426421a7)"><path stroke-linecap="butt" transform="matrix(0.9516, 0, 0, 0.94668, 365.649614, -155.819033)" fill-opacity="1" fill="#000000" fill-rule="evenodd" stroke-linejoin="miter" d="M 110.671771 169.381786 L 162.38978 169.381786 L 162.38978 425.090495 L 110.671771 425.090495 Z M 110.671771 169.381786 " stroke="#000000" stroke-width="1.207" stroke-opacity="1" stroke-miterlimit="4"/><path stroke-linecap="butt" transform="matrix(0.9516, 0, 0, 0.94668, 365.649614, -155.819033)" fill-opacity="1" fill="#000000" fill-rule="evenodd" stroke-linejoin="miter" d="M 213.061031 169.249746 L 264.779039 169.249746 L 264.779039 424.958454 L 213.061031 424.958454 Z M 213.061031 169.249746 " stroke="#000000" stroke-width="1.207" stroke-opacity="1" stroke-miterlimit="4"/><path stroke-linecap="butt" transform="matrix(0.9516, 0, 0, 0.94668, 365.649614, -155.819033)" fill-opacity="1" fill="#000000" fill-rule="evenodd" stroke-linejoin="miter" d="M 418.172049 168.738089 L 469.885953 168.738089 L 469.885953 424.450924 L 418.172049 424.450924 Z M 418.172049 168.738089 " stroke="#000000" stroke-width="1.207" stroke-opacity="1" stroke-miterlimit="4"/><path stroke-linecap="butt" transform="matrix(0.9516, 0, 0, 0.94668, 365.649614, -155.819033)" fill-opacity="1" fill="#000000" fill-rule="evenodd" stroke-linejoin="miter" d="M 519.970199 169.761403 L 571.688207 169.761403 L 571.688207 425.470111 L 519.970199 425.470111 Z M 519.970199 169.761403 " stroke="#000000" stroke-width="1.207" stroke-opacity="1" stroke-miterlimit="4"/><path stroke-linecap="butt" transform="matrix(0.9516, 0, 0, 0.94668, 365.649614, -155.819033)" fill-opacity="1" fill="#000000" fill-rule="evenodd" stroke-linejoin="miter" d="M 623.800289 169.249746 L 675.518297 169.249746 L 675.518297 424.958454 L 623.800289 424.958454 Z M 623.800289 169.249746 " stroke="#000000" stroke-width="1.207" stroke-opacity="1" stroke-miterlimit="4"/><g clip-path="url(#021e142da2)"><path stroke-linecap="butt" transform="matrix(0.9516, 0, 0, 0.94668, 365.649614, -155.819033)" fill="none" stroke-linejoin="miter" d="M 33.515514 167.949973 L 751.857673 167.949973 L 751.857673 617.089686 L 33.515514 617.089686 Z M 33.515514 167.949973 " stroke="#000000" stroke-width="2.375" stroke-opacity="1" stroke-miterlimit="4"/></g><g clip-path="url(#be7260d34b)"><path stroke-linecap="butt" transform="matrix(2.186882, 0, 0, 2.1885, 383.833549, -14.047989)" fill="none" stroke-linejoin="miter" d="M 50.745796 114.680204 L 50.745796 202.136635 " stroke="#000000" stroke-width="2.375" stroke-opacity="1" stroke-miterlimit="4"/></g><g clip-path="url(#f02042f6fa)"><path stroke-linecap="butt" transform="matrix(2.186882, 0, 0, 2.1885, 383.833549, -14.047989)" fill="none" stroke-linejoin="miter" d="M 95.847833 114.260753 L 95.847833 201.715399 " stroke="#000000" stroke-width="2.375" stroke-opacity="1" stroke-miterlimit="4"/></g><g clip-path="url(#58e22cca3b)"><path stroke-linecap="butt" transform="matrix(2.186882, 0, 0, 2.1885, 383.833549, -14.047989)" fill="none" stroke-linejoin="miter" d="M 184.960528 114.840845 L 184.960528 202.295491 " stroke="#000000" stroke-width="2.375" stroke-opacity="1" stroke-miterlimit="4"/></g><g clip-path="url(#2546ed6593)"><path stroke-linecap="butt" transform="matrix(2.186882, 0, 0, 2.1885, 383.833549, -14.047989)" fill="none" stroke-linejoin="miter" d="M 229.269483 114.840845 L 229.269483 202.295491 " stroke="#000000" stroke-width="2.375" stroke-opacity="1" stroke-miterlimit="4"/></g><g clip-path="url(#0236014714)"><path stroke-linecap="butt" transform="matrix(2.186882, 0, 0, 2.1885, 383.833549, -14.047989)" fill="none" stroke-linejoin="miter" d="M 274.689468 114.519563 L 274.689468 201.975994 " stroke="#000000" stroke-width="2.375" stroke-opacity="1" stroke-miterlimit="4"/></g><g clip-path="url(#6d7b78b817)"><path stroke-linecap="butt" transform="matrix(2.186882, 0, 0, 2.1885, 383.833549, -14.047989)" fill="none" stroke-linejoin="miter" d="M 140.349701 8.068248 L 140.349701 201.949221 " stroke="#000000" stroke-width="2.375" stroke-opacity="1" stroke-miterlimit="4"/></g><path stroke-linecap="butt" transform="matrix(2.186882, 0, 0, 2.1885, 383.833549, -14.047989)" fill-opacity="1" fill="#000000" fill-rule="nonzero" stroke-linejoin="miter" d="M 42.836417 12.566191 L 61.513126 12.566191 L 61.513126 115.697596 L 42.836417 115.697596 Z M 42.836417 12.566191 " stroke="#000000" stroke-width="5" stroke-opacity="1" stroke-miterlimit="4"/><path stroke-linecap="butt" transform="matrix(0.9516, 0, 0, 0.94668, 365.649614, -155.819033)" fill-opacity="1" fill="#000000" fill-rule="evenodd" stroke-linejoin="miter" d="M 832.080313 167.801427 L 883.798321 167.801427 L 883.798321 423.510135 L 832.080313 423.510135 Z M 832.080313 167.801427 " stroke="#000000" stroke-width="1.207" stroke-opacity="1" stroke-miterlimit="4"/><path stroke-linecap="butt" transform="matrix(0.9516, 0, 0, 0.94668, 365.649614, -155.819033)" fill-opacity="1" fill="#000000" fill-rule="evenodd" stroke-linejoin="miter" d="M 934.469573 167.669387 L 986.187581 167.669387 L 986.187581 423.378095 L 934.469573 423.378095 Z M 934.469573 167.669387 " stroke="#000000" stroke-width="1.207" stroke-opacity="1" stroke-miterlimit="4"/><g clip-path="url(#05d2f5a817)"><path stroke-linecap="butt" transform="matrix(0.9516, 0, 0, 0.94668, 365.649614, -155.819033)" fill="none" stroke-linejoin="miter" d="M 754.919951 166.369614 L 1473.258005 166.369614 L 1473.258005 615.509327 L 754.919951 615.509327 Z M 754.919951 166.369614 " stroke="#000000" stroke-width="2.375" stroke-opacity="1" stroke-miterlimit="4"/></g><g clip-path="url(#952aaa1c1a)"><path stroke-linecap="butt" transform="matrix(2.186882, 0, 0, 2.1885, 383.833549, -14.047989)" fill="none" stroke-linejoin="miter" d="M 364.659547 114.000158 L 364.659547 201.456589 " stroke="#000000" stroke-width="2.375" stroke-opacity="1" stroke-miterlimit="4"/></g><path stroke-linecap="butt" transform="matrix(2.186882, 0, 0, 2.1885, 383.833549, -14.047989)" fill="none" stroke-linejoin="miter" d="M 409.759798 113.580707 L 409.759798 201.035353 " stroke="#000000" stroke-width="2.375" stroke-opacity="1" stroke-miterlimit="4"/><g clip-path="url(#9c66df6b00)"><path stroke-linecap="butt" transform="matrix(2.186882, 0, 0, 2.1885, 383.833549, -14.047989)" fill="none" stroke-linejoin="miter" d="M 454.25988 7.386417 L 454.25988 201.26739 " stroke="#000000" stroke-width="2.375" stroke-opacity="1" stroke-miterlimit="4"/></g><path stroke-linecap="butt" transform="matrix(2.186882, 0, 0, 2.1885, 383.833549, -14.047989)" fill-opacity="1" fill="#000000" fill-rule="nonzero" stroke-linejoin="miter" d="M 87.091786 11.350675 L 105.768495 11.350675 L 105.768495 114.480295 L 87.091786 114.480295 Z M 87.091786 11.350675 " stroke="#000000" stroke-width="5" stroke-opacity="1" stroke-miterlimit="4"/><path stroke-linecap="butt" transform="matrix(2.186882, 0, 0, 2.1885, 383.833549, -14.047989)" fill-opacity="1" fill="#000000" fill-rule="nonzero" stroke-linejoin="miter" d="M 176.420613 11.350675 L 195.097322 11.350675 L 195.097322 114.480295 L 176.420613 114.480295 Z M 176.420613 11.350675 " stroke="#000000" stroke-width="5" stroke-opacity="1" stroke-miterlimit="4"/><path stroke-linecap="butt" transform="matrix(2.186882, 0, 0, 2.1885, 383.833549, -14.047989)" fill-opacity="1" fill="#000000" fill-rule="nonzero" stroke-linejoin="miter" d="M 220.270511 12.162804 L 238.94722 12.162804 L 238.94722 115.292424 L 220.270511 115.292424 Z M 220.270511 12.162804 " stroke="#000000" stroke-width="5" stroke-opacity="1" stroke-miterlimit="4"/><path stroke-linecap="butt" transform="matrix(2.186882, 0, 0, 2.1885, 383.833549, -14.047989)" fill-opacity="1" fill="#000000" fill-rule="nonzero" stroke-linejoin="miter" d="M 265.740509 12.162804 L 284.417218 12.162804 L 284.417218 115.292424 L 265.740509 115.292424 Z M 265.740509 12.162804 " stroke="#000000" stroke-width="5" stroke-opacity="1" stroke-miterlimit="4"/><path stroke-linecap="butt" transform="matrix(2.186882, 0, 0, 2.1885, 383.833549, -14.047989)" fill-opacity="1" fill="#000000" fill-rule="nonzero" stroke-linejoin="miter" d="M 355.880279 10.538547 L 374.556988 10.538547 L 374.556988 113.668167 L 355.880279 113.668167 Z M 355.880279 10.538547 " stroke="#000000" stroke-width="5" stroke-opacity="1" stroke-miterlimit="4"/><path stroke-linecap="butt" transform="matrix(2.186882, 0, 0, 2.1885, 383.833549, -14.047989)" fill-opacity="1" fill="#000000" fill-rule="nonzero" stroke-linejoin="miter" d="M 401.359209 10.538547 L 420.037704 10.538547 L 420.037704 113.668167 L 401.359209 113.668167 Z M 401.359209 10.538547 " stroke="#000000" stroke-width="5" stroke-opacity="1" stroke-miterlimit="4"/><path stroke-linecap="butt" transform="matrix(0.9516, 0, 0, 0.94668, -1008.044916, -155.819033)" fill-opacity="1" fill="#000000" fill-rule="evenodd" stroke-linejoin="miter" d="M 1139.600294 167.170109 L 1191.318302 167.170109 L 1191.318302 422.878817 L 1139.600294 422.878817 Z M 1139.600294 167.170109 " stroke="#000000" stroke-width="1.207" stroke-opacity="1" stroke-miterlimit="4"/><path stroke-linecap="butt" transform="matrix(0.9516, 0, 0, 0.94668, -1008.044916, -155.819033)" fill-opacity="1" fill="#000000" fill-rule="evenodd" stroke-linejoin="miter" d="M 1241.398444 168.181044 L 1293.116452 168.181044 L 1293.116452 423.889752 L 1241.398444 423.889752 Z M 1241.398444 168.181044 " stroke="#000000" stroke-width="1.207" stroke-opacity="1" stroke-miterlimit="4"/><path stroke-linecap="butt" transform="matrix(0.9516, 0, 0, 0.94668, -1008.044916, -155.819033)" fill-opacity="1" fill="#000000" fill-rule="evenodd" stroke-linejoin="miter" d="M 1345.199799 167.669387 L 1396.917807 167.669387 L 1396.917807 423.378095 L 1345.199799 423.378095 Z M 1345.199799 167.669387 " stroke="#000000" stroke-width="1.207" stroke-opacity="1" stroke-miterlimit="4"/><g clip-path="url(#6b4e763628)"><path stroke-linecap="butt" transform="matrix(0.9516, 0, 0, 0.94668, -1008.044916, -155.819033)" fill="none" stroke-linejoin="miter" d="M 754.919129 166.369614 L 1473.261288 166.369614 L 1473.261288 615.509327 L 754.919129 615.509327 Z M 754.919129 166.369614 " stroke="#000000" stroke-width="2.375" stroke-opacity="1" stroke-miterlimit="4"/></g><g clip-path="url(#ac1db09221)"><path stroke-linecap="butt" transform="matrix(2.186882, 0, 0, 2.1885, -989.860998, -14.047989)" fill="none" stroke-linejoin="miter" d="M 498.870356 114.150089 L 498.870356 201.60652 " stroke="#000000" stroke-width="2.375" stroke-opacity="1" stroke-miterlimit="4"/></g><g clip-path="url(#710e728f5b)"><path stroke-linecap="butt" transform="matrix(2.186882, 0, 0, 2.1885, -989.860998, -14.047989)" fill="none" stroke-linejoin="miter" d="M 543.19003 114.150089 L 543.19003 201.60652 " stroke="#000000" stroke-width="2.375" stroke-opacity="1" stroke-miterlimit="4"/></g><g clip-path="url(#53f1efb74d)"><path stroke-linecap="butt" transform="matrix(2.186882, 0, 0, 2.1885, -989.860998, -14.047989)" fill="none" stroke-linejoin="miter" d="M 588.599297 113.839517 L 588.599297 201.295948 " stroke="#000000" stroke-width="2.375" stroke-opacity="1" stroke-miterlimit="4"/></g><g clip-path="url(#ef90266f5f)"><path stroke-linecap="butt" transform="matrix(2.186882, 0, 0, 2.1885, -989.860998, -14.047989)" fill="none" stroke-linejoin="miter" d="M 454.25953 7.386417 L 454.25953 201.26739 " stroke="#000000" stroke-width="2.375" stroke-opacity="1" stroke-miterlimit="4"/></g><path stroke-linecap="butt" transform="matrix(2.186882, 0, 0, 2.1885, -989.860998, -14.047989)" fill-opacity="1" fill="#000000" fill-rule="nonzero" stroke-linejoin="miter" d="M 490.680541 12.973148 L 509.35725 12.973148 L 509.35725 116.104553 L 490.680541 116.104553 Z M 490.680541 12.973148 " stroke="#000000" stroke-width="5" stroke-opacity="1" stroke-miterlimit="4"/><path stroke-linecap="butt" transform="matrix(2.186882, 0, 0, 2.1885, -989.860998, -14.047989)" fill-opacity="1" fill="#000000" fill-rule="nonzero" stroke-linejoin="miter" d="M 534.530438 13.785276 L 553.207147 13.785276 L 553.207147 116.916681 L 534.530438 116.916681 Z M 534.530438 13.785276 " stroke="#000000" stroke-width="5" stroke-opacity="1" stroke-miterlimit="4"/><path stroke-linecap="butt" transform="matrix(2.186882, 0, 0, 2.1885, -989.860998, -14.047989)" fill-opacity="1" fill="#000000" fill-rule="nonzero" stroke-linejoin="miter" d="M 579.200211 12.973148 L 597.87692 12.973148 L 597.87692 116.104553 L 579.200211 116.104553 Z M 579.200211 12.973148 " stroke="#000000" stroke-width="5" stroke-opacity="1" stroke-miterlimit="4"/><g clip-path="url(#39747a54e2)"><path fill="#000000" d="M 147.894531 339.066406 C 130.859375 339.066406 117.058594 352.863281 117.058594 369.902344 C 117.058594 386.9375 130.859375 400.738281 147.894531 400.738281 C 164.933594 400.738281 178.730469 386.9375 178.730469 369.902344 C 178.730469 352.863281 164.933594 339.066406 147.894531 339.066406 Z M 147.894531 339.066406 " fill-opacity="1" fill-rule="nonzero"/></g><g clip-path="url(#6b160cc7df)"><path fill="#000000" d="M 543.917969 339.066406 C 526.878906 339.066406 513.082031 352.863281 513.082031 369.902344 C 513.082031 386.9375 526.878906 400.738281 543.917969 400.738281 C 560.953125 400.738281 574.753906 386.9375 574.753906 369.902344 C 574.753906 352.863281 560.953125 339.066406 543.917969 339.066406 Z M 543.917969 339.066406 " fill-opacity="1" fill-rule="nonzero"/></g><g clip-path="url(#3f9859e53c)"><g clip-path="url(#45c5cd5cf2)"><g clip-path="url(#16fdfeb426)"><path fill="#ffffff" d="M 298.15625 171 C 281.058594 171 267.210938 184.847656 267.210938 201.945312 C 267.210938 219.042969 281.058594 232.890625 298.15625 232.890625 C 315.253906 232.890625 329.101562 219.042969 329.101562 201.945312 C 329.101562 184.847656 315.253906 171 298.15625 171 Z M 298.15625 171 " fill-opacity="1" fill-rule="nonzero"/></g></g></g><g clip-path="url(#25bffa2628)"><g clip-path="url(#fe39164786)"><g clip-path="url(#43eaa35f19)"><path stroke-linecap="butt" transform="matrix(0.920485, 0, 0, 0.920485, 267.21139, 171.001232)" fill="none" stroke-linejoin="miter" d="M -0.000491379 33.617142 C -0.000491379 52.183268 15.051863 67.235622 33.617988 67.235622 C 52.184114 67.235622 67.236468 52.183268 67.236468 33.617142 C 67.236468 15.051016 52.184114 -0.00133813 33.617988 -0.00133813 C 15.051863 -0.00133813 -0.000491379 15.051016 -0.000491379 33.617142 Z M -0.000491379 33.617142 " stroke="#000000" stroke-width="11.405527" stroke-opacity="1" stroke-miterlimit="4"/></g></g></g></g></g></g></svg>