<svg xmlns="http://www.w3.org/2000/svg" xmlns:xlink="http://www.w3.org/1999/xlink" width="2000" zoomAndPan="magnify" viewBox="0 0 1500 1499.999933" height="2000" preserveAspectRatio="xMidYMid meet" version="1.0"><defs><clipPath id="e603356f55"><path d="M 460.222656 540 L 1133 540 L 1133 959.265625 L 460.222656 959.265625 Z M 460.222656 540 " clip-rule="nonzero"/></clipPath><clipPath id="104ffae7d2"><path d="M 554 768 L 560 768 L 560 959.265625 L 554 959.265625 Z M 554 768 " clip-rule="nonzero"/></clipPath><clipPath id="9d4c42baa0"><path d="M 651 767 L 657 767 L 657 959.265625 L 651 959.265625 Z M 651 767 " clip-rule="nonzero"/></clipPath><clipPath id="602514e4f5"><path d="M 842 768 L 848 768 L 848 959.265625 L 842 959.265625 Z M 842 768 " clip-rule="nonzero"/></clipPath><clipPath id="ec583763ea"><path d="M 937 768 L 943 768 L 943 959.265625 L 937 959.265625 Z M 937 768 " clip-rule="nonzero"/></clipPath><clipPath id="a831ec2aa0"><path d="M 1034 767 L 1040 767 L 1040 959.265625 L 1034 959.265625 Z M 1034 767 " clip-rule="nonzero"/></clipPath><clipPath id="2b630fab8a"><path d="M 746 539.265625 L 752 539.265625 L 752 959.265625 L 746 959.265625 Z M 746 539.265625 " clip-rule="nonzero"/></clipPath><clipPath id="581af7d91f"><path d="M 1133 539.265625 L 1425.472656 539.265625 L 1425.472656 958 L 1133 958 Z M 1133 539.265625 " clip-rule="nonzero"/></clipPath><clipPath id="a9387f8200"><path d="M 1227 766 L 1233 766 L 1233 959.265625 L 1227 959.265625 Z M 1227 766 " clip-rule="nonzero"/></clipPath><clipPath id="e8bf1dba81"><path d="M 1419 539.265625 L 1425 539.265625 L 1425 959 L 1419 959 Z M 1419 539.265625 " clip-rule="nonzero"/></clipPath><clipPath id="1a1cc90a4c"><path d="M 74.875 540.765625 L 461 540.765625 L 461 960 L 74.875 960 Z M 74.875 540.765625 " clip-rule="nonzero"/></clipPath><clipPath id="f48ea04880"><path d="M 170 768 L 176 768 L 176 960.765625 L 170 960.765625 Z M 170 768 " clip-rule="nonzero"/></clipPath><clipPath id="5a0021792a"><path d="M 265 768 L 271 768 L 271 960.765625 L 265 960.765625 Z M 265 768 " clip-rule="nonzero"/></clipPath><clipPath id="8ce85d86b6"><path d="M 362 767 L 368 767 L 368 960.765625 L 362 960.765625 Z M 362 767 " clip-rule="nonzero"/></clipPath><clipPath id="f1b424645c"><path d="M 74.875 540.765625 L 80 540.765625 L 80 960.765625 L 74.875 960.765625 Z M 74.875 540.765625 " clip-rule="nonzero"/></clipPath><clipPath id="0259a7f220"><path d="M 188.488281 872.332031 L 249.238281 872.332031 L 249.238281 933.082031 L 188.488281 933.082031 Z M 188.488281 872.332031 " clip-rule="nonzero"/></clipPath><clipPath id="97983c52d8"><path d="M 576.449219 872.332031 L 637.199219 872.332031 L 637.199219 933.082031 L 576.449219 933.082031 Z M 576.449219 872.332031 " clip-rule="nonzero"/></clipPath><clipPath id="2ffd14596c"><path d="M 336.332031 708.433594 L 395.582031 708.433594 L 395.582031 767.683594 L 336.332031 767.683594 Z M 336.332031 708.433594 " clip-rule="nonzero"/></clipPath><clipPath id="d29510d17f"><path d="M 335.582031 738 C 335.582031 754.742188 349.15625 768.316406 365.898438 768.316406 C 382.640625 768.316406 396.214844 754.742188 396.214844 738 C 396.214844 721.257812 382.640625 707.683594 365.898438 707.683594 C 349.15625 707.683594 335.582031 721.257812 335.582031 738 Z M 335.582031 738 " clip-rule="nonzero"/></clipPath><clipPath id="4392e1c536"><path d="M 365.898438 708.585938 C 382.144531 708.585938 395.3125 721.753906 395.3125 738 C 395.3125 754.246094 382.144531 767.414062 365.898438 767.414062 C 349.652344 767.414062 336.484375 754.246094 336.484375 738 C 336.484375 721.753906 349.652344 708.585938 365.898438 708.585938 Z M 365.898438 708.585938 " clip-rule="nonzero"/></clipPath><clipPath id="8fa696d444"><path d="M 335.582031 707.683594 L 396.324219 707.683594 L 396.324219 768.425781 L 335.582031 768.425781 Z M 335.582031 707.683594 " clip-rule="nonzero"/></clipPath><clipPath id="7fd017ce58"><path d="M 335.582031 738 C 335.582031 754.742188 349.15625 768.316406 365.898438 768.316406 C 382.640625 768.316406 396.214844 754.742188 396.214844 738 C 396.214844 721.257812 382.640625 707.683594 365.898438 707.683594 C 349.15625 707.683594 335.582031 721.257812 335.582031 738 Z M 335.582031 738 " clip-rule="nonzero"/></clipPath><clipPath id="ca67ea782b"><path d="M 335.582031 737.996094 C 335.582031 754.734375 349.152344 768.304688 365.894531 768.304688 C 382.632812 768.304688 396.203125 754.734375 396.203125 737.996094 C 396.203125 721.253906 382.632812 707.683594 365.894531 707.683594 C 349.152344 707.683594 335.582031 721.253906 335.582031 737.996094 Z M 335.582031 737.996094 " clip-rule="nonzero"/></clipPath></defs><path stroke-linecap="butt" transform="matrix(0.932291, 0, 0, 0.926936, 430.51802, 386.093764)" fill-opacity="1" fill="#000000" fill-rule="evenodd" stroke-linejoin="miter" d="M 110.670636 169.379504 L 162.387127 169.379504 L 162.387127 425.090196 L 110.670636 425.090196 Z M 110.670636 169.379504 " stroke="#000000" stroke-width="1.207" stroke-opacity="1" stroke-miterlimit="4"/><path stroke-linecap="butt" transform="matrix(0.932291, 0, 0, 0.926936, 430.51802, 386.093764)" fill-opacity="1" fill="#000000" fill-rule="evenodd" stroke-linejoin="miter" d="M 213.060321 169.248865 L 264.776811 169.248865 L 264.776811 424.959557 L 213.060321 424.959557 Z M 213.060321 169.248865 " stroke="#000000" stroke-width="1.207" stroke-opacity="1" stroke-miterlimit="4"/><path stroke-linecap="butt" transform="matrix(0.932291, 0, 0, 0.926936, 430.51802, 386.093764)" fill-opacity="1" fill="#000000" fill-rule="evenodd" stroke-linejoin="miter" d="M 418.170695 168.738952 L 469.887186 168.738952 L 469.887186 424.449644 L 418.170695 424.449644 Z M 418.170695 168.738952 " stroke="#000000" stroke-width="1.207" stroke-opacity="1" stroke-miterlimit="4"/><path stroke-linecap="butt" transform="matrix(0.932291, 0, 0, 0.926936, 430.51802, 386.093764)" fill-opacity="1" fill="#000000" fill-rule="evenodd" stroke-linejoin="miter" d="M 519.969598 169.758778 L 571.686088 169.758778 L 571.686088 425.46947 L 519.969598 425.46947 Z M 519.969598 169.758778 " stroke="#000000" stroke-width="1.207" stroke-opacity="1" stroke-miterlimit="4"/><path stroke-linecap="butt" transform="matrix(0.932291, 0, 0, 0.926936, 430.51802, 386.093764)" fill-opacity="1" fill="#000000" fill-rule="evenodd" stroke-linejoin="miter" d="M 623.800623 169.248865 L 675.517114 169.248865 L 675.517114 424.959557 L 623.800623 424.959557 Z M 623.800623 169.248865 " stroke="#000000" stroke-width="1.207" stroke-opacity="1" stroke-miterlimit="4"/><g clip-path="url(#e603356f55)"><path stroke-linecap="butt" transform="matrix(0.932291, 0, 0, 0.926936, 430.51802, 386.093764)" fill="none" stroke-linejoin="miter" d="M 33.51699 167.950905 L 751.85791 167.950905 L 751.85791 617.091297 L 33.51699 617.091297 Z M 33.51699 167.950905 " stroke="#000000" stroke-width="2.375" stroke-opacity="1" stroke-miterlimit="4"/></g><g clip-path="url(#104ffae7d2)"><path stroke-linecap="butt" transform="matrix(2.142509, 0, 0, 2.142857, 448.332979, 524.907991)" fill="none" stroke-linejoin="miter" d="M 50.745033 114.680717 L 50.745033 202.135159 " stroke="#000000" stroke-width="2.375" stroke-opacity="1" stroke-miterlimit="4"/></g><g clip-path="url(#9d4c42baa0)"><path stroke-linecap="butt" transform="matrix(2.142509, 0, 0, 2.142857, 448.332979, 524.907991)" fill="none" stroke-linejoin="miter" d="M 95.847666 114.259623 L 95.847666 201.715888 " stroke="#000000" stroke-width="2.375" stroke-opacity="1" stroke-miterlimit="4"/></g><g clip-path="url(#602514e4f5)"><path stroke-linecap="butt" transform="matrix(2.142509, 0, 0, 2.142857, 448.332979, 524.907991)" fill="none" stroke-linejoin="miter" d="M 184.960827 114.839311 L 184.960827 202.295576 " stroke="#000000" stroke-width="2.375" stroke-opacity="1" stroke-miterlimit="4"/></g><g clip-path="url(#ec583763ea)"><path stroke-linecap="butt" transform="matrix(2.142509, 0, 0, 2.142857, 448.332979, 524.907991)" fill="none" stroke-linejoin="miter" d="M 229.270362 114.839311 L 229.270362 202.295576 " stroke="#000000" stroke-width="2.375" stroke-opacity="1" stroke-miterlimit="4"/></g><g clip-path="url(#a831ec2aa0)"><path stroke-linecap="butt" transform="matrix(2.142509, 0, 0, 2.142857, 448.332979, 524.907991)" fill="none" stroke-linejoin="miter" d="M 274.690234 114.520301 L 274.690234 201.976565 " stroke="#000000" stroke-width="2.375" stroke-opacity="1" stroke-miterlimit="4"/></g><g clip-path="url(#2b630fab8a)"><path stroke-linecap="butt" transform="matrix(2.142509, 0, 0, 2.142857, 448.332979, 524.907991)" fill="none" stroke-linejoin="miter" d="M 140.350462 8.069241 L 140.350462 201.949222 " stroke="#000000" stroke-width="2.375" stroke-opacity="1" stroke-miterlimit="4"/></g><path stroke-linecap="butt" transform="matrix(2.142509, 0, 0, 2.142857, 448.332979, 524.907991)" fill-opacity="1" fill="#000000" fill-rule="nonzero" stroke-linejoin="miter" d="M 42.83776 12.566377 L 61.51475 12.566377 L 61.51475 115.697905 L 42.83776 115.697905 Z M 42.83776 12.566377 " stroke="#000000" stroke-width="5" stroke-opacity="1" stroke-miterlimit="4"/><path stroke-linecap="butt" transform="matrix(0.932291, 0, 0, 0.926936, 430.51802, 386.093764)" fill-opacity="1" fill="#000000" fill-rule="evenodd" stroke-linejoin="miter" d="M 832.078596 167.799196 L 883.799276 167.799196 L 883.799276 423.509888 L 832.078596 423.509888 Z M 832.078596 167.799196 " stroke="#000000" stroke-width="1.207" stroke-opacity="1" stroke-miterlimit="4"/><path stroke-linecap="butt" transform="matrix(0.932291, 0, 0, 0.926936, 430.51802, 386.093764)" fill-opacity="1" fill="#000000" fill-rule="evenodd" stroke-linejoin="miter" d="M 934.468281 167.668557 L 986.188961 167.668557 L 986.188961 423.379249 L 934.468281 423.379249 Z M 934.468281 167.668557 " stroke="#000000" stroke-width="1.207" stroke-opacity="1" stroke-miterlimit="4"/><g clip-path="url(#581af7d91f)"><path stroke-linecap="butt" transform="matrix(0.932291, 0, 0, 0.926936, 430.51802, 386.093764)" fill="none" stroke-linejoin="miter" d="M 754.92076 166.370597 L 1473.26168 166.370597 L 1473.26168 615.510989 L 754.92076 615.510989 Z M 754.92076 166.370597 " stroke="#000000" stroke-width="2.375" stroke-opacity="1" stroke-miterlimit="4"/></g><g clip-path="url(#a9387f8200)"><path stroke-linecap="butt" transform="matrix(2.142509, 0, 0, 2.142857, 448.332979, 524.907991)" fill="none" stroke-linejoin="miter" d="M 364.660304 114.000769 L 364.660304 201.455211 " stroke="#000000" stroke-width="2.375" stroke-opacity="1" stroke-miterlimit="4"/></g><path stroke-linecap="butt" transform="matrix(2.142509, 0, 0, 2.142857, 448.332979, 524.907991)" fill="none" stroke-linejoin="miter" d="M 409.75929 113.579675 L 409.75929 201.03594 " stroke="#000000" stroke-width="2.375" stroke-opacity="1" stroke-miterlimit="4"/><g clip-path="url(#e8bf1dba81)"><path stroke-linecap="butt" transform="matrix(2.142509, 0, 0, 2.142857, 448.332979, 524.907991)" fill="none" stroke-linejoin="miter" d="M 454.260263 7.38747 L 454.260263 201.267451 " stroke="#000000" stroke-width="2.375" stroke-opacity="1" stroke-miterlimit="4"/></g><path stroke-linecap="butt" transform="matrix(2.142509, 0, 0, 2.142857, 448.332979, 524.907991)" fill-opacity="1" fill="#000000" fill-rule="nonzero" stroke-linejoin="miter" d="M 87.092599 11.350492 L 105.769589 11.350492 L 105.769589 114.480196 L 87.092599 114.480196 Z M 87.092599 11.350492 " stroke="#000000" stroke-width="5" stroke-opacity="1" stroke-miterlimit="4"/><path stroke-linecap="butt" transform="matrix(2.142509, 0, 0, 2.142857, 448.332979, 524.907991)" fill-opacity="1" fill="#000000" fill-rule="nonzero" stroke-linejoin="miter" d="M 176.420899 11.350492 L 195.097889 11.350492 L 195.097889 114.480196 L 176.420899 114.480196 Z M 176.420899 11.350492 " stroke="#000000" stroke-width="5" stroke-opacity="1" stroke-miterlimit="4"/><path stroke-linecap="butt" transform="matrix(2.142509, 0, 0, 2.142857, 448.332979, 524.907991)" fill-opacity="1" fill="#000000" fill-rule="nonzero" stroke-linejoin="miter" d="M 220.269161 12.16169 L 238.946151 12.16169 L 238.946151 115.291394 L 220.269161 115.291394 Z M 220.269161 12.16169 " stroke="#000000" stroke-width="5" stroke-opacity="1" stroke-miterlimit="4"/><path stroke-linecap="butt" transform="matrix(2.142509, 0, 0, 2.142857, 448.332979, 524.907991)" fill-opacity="1" fill="#000000" fill-rule="nonzero" stroke-linejoin="miter" d="M 265.740083 12.16169 L 284.417073 12.16169 L 284.417073 115.291394 L 265.740083 115.291394 Z M 265.740083 12.16169 " stroke="#000000" stroke-width="5" stroke-opacity="1" stroke-miterlimit="4"/><path stroke-linecap="butt" transform="matrix(2.142509, 0, 0, 2.142857, 448.332979, 524.907991)" fill-opacity="1" fill="#000000" fill-rule="nonzero" stroke-linejoin="miter" d="M 355.879713 10.537471 L 374.556702 10.537471 L 374.556702 113.667175 L 355.879713 113.667175 Z M 355.879713 10.537471 " stroke="#000000" stroke-width="5" stroke-opacity="1" stroke-miterlimit="4"/><path stroke-linecap="butt" transform="matrix(2.142509, 0, 0, 2.142857, 448.332979, 524.907991)" fill-opacity="1" fill="#000000" fill-rule="nonzero" stroke-linejoin="miter" d="M 401.35975 10.537471 L 420.03674 10.537471 L 420.03674 113.667175 L 401.35975 113.667175 Z M 401.35975 10.537471 " stroke="#000000" stroke-width="5" stroke-opacity="1" stroke-miterlimit="4"/><path stroke-linecap="butt" transform="matrix(0.932292, 0, 0, 0.926936, -913.67396, 387.593764)" fill-opacity="1" fill="#000000" fill-rule="evenodd" stroke-linejoin="miter" d="M 1139.600074 167.171287 L 1191.316558 167.171287 L 1191.316558 422.881979 L 1139.600074 422.881979 Z M 1139.600074 167.171287 " stroke="#000000" stroke-width="1.207" stroke-opacity="1" stroke-miterlimit="4"/><path stroke-linecap="butt" transform="matrix(0.932292, 0, 0, 0.926936, -913.67396, 387.593764)" fill-opacity="1" fill="#000000" fill-rule="evenodd" stroke-linejoin="miter" d="M 1241.398963 168.17847 L 1293.119637 168.17847 L 1293.119637 423.889162 L 1241.398963 423.889162 Z M 1241.398963 168.17847 " stroke="#000000" stroke-width="1.207" stroke-opacity="1" stroke-miterlimit="4"/><path stroke-linecap="butt" transform="matrix(0.932292, 0, 0, 0.926936, -913.67396, 387.593764)" fill-opacity="1" fill="#000000" fill-rule="evenodd" stroke-linejoin="miter" d="M 1345.200645 167.668557 L 1396.917129 167.668557 L 1396.917129 423.379249 L 1345.200645 423.379249 Z M 1345.200645 167.668557 " stroke="#000000" stroke-width="1.207" stroke-opacity="1" stroke-miterlimit="4"/><g clip-path="url(#1a1cc90a4c)"><path stroke-linecap="butt" transform="matrix(0.932292, 0, 0, 0.926936, -913.67396, 387.593764)" fill="none" stroke-linejoin="miter" d="M 754.921279 166.370597 L 1473.257916 166.370597 L 1473.257916 615.510989 L 754.921279 615.510989 Z M 754.921279 166.370597 " stroke="#000000" stroke-width="2.375" stroke-opacity="1" stroke-miterlimit="4"/></g><g clip-path="url(#f48ea04880)"><path stroke-linecap="butt" transform="matrix(2.14251, 0, 0, 2.142857, -895.859001, 526.407991)" fill="none" stroke-linejoin="miter" d="M 498.870846 114.150249 L 498.870846 201.606513 " stroke="#000000" stroke-width="2.375" stroke-opacity="1" stroke-miterlimit="4"/></g><g clip-path="url(#5a0021792a)"><path stroke-linecap="butt" transform="matrix(2.14251, 0, 0, 2.142857, -895.859001, 526.407991)" fill="none" stroke-linejoin="miter" d="M 543.189493 114.150249 L 543.189493 201.606513 " stroke="#000000" stroke-width="2.375" stroke-opacity="1" stroke-miterlimit="4"/></g><g clip-path="url(#8ce85d86b6)"><path stroke-linecap="butt" transform="matrix(2.14251, 0, 0, 2.142857, -895.859001, 526.407991)" fill="none" stroke-linejoin="miter" d="M 588.600243 113.840353 L 588.600243 201.296617 " stroke="#000000" stroke-width="2.375" stroke-opacity="1" stroke-miterlimit="4"/></g><g clip-path="url(#f1b424645c)"><path stroke-linecap="butt" transform="matrix(2.14251, 0, 0, 2.142857, -895.859001, 526.407991)" fill="none" stroke-linejoin="miter" d="M 454.260485 7.38747 L 454.260485 201.267451 " stroke="#000000" stroke-width="2.375" stroke-opacity="1" stroke-miterlimit="4"/></g><path stroke-linecap="butt" transform="matrix(2.14251, 0, 0, 2.142857, -895.859001, 526.407991)" fill-opacity="1" fill="#000000" fill-rule="nonzero" stroke-linejoin="miter" d="M 490.679153 12.974711 L 509.35614 12.974711 L 509.35614 116.104416 L 490.679153 116.104416 Z M 490.679153 12.974711 " stroke="#000000" stroke-width="5" stroke-opacity="1" stroke-miterlimit="4"/><path stroke-linecap="butt" transform="matrix(2.14251, 0, 0, 2.142857, -895.859001, 526.407991)" fill-opacity="1" fill="#000000" fill-rule="nonzero" stroke-linejoin="miter" d="M 534.529234 13.785909 L 553.206221 13.785909 L 553.206221 116.915614 L 534.529234 116.915614 Z M 534.529234 13.785909 " stroke="#000000" stroke-width="5" stroke-opacity="1" stroke-miterlimit="4"/><path stroke-linecap="butt" transform="matrix(2.14251, 0, 0, 2.142857, -895.859001, 526.407991)" fill-opacity="1" fill="#000000" fill-rule="nonzero" stroke-linejoin="miter" d="M 579.19976 12.974711 L 597.876748 12.974711 L 597.876748 116.104416 L 579.19976 116.104416 Z M 579.19976 12.974711 " stroke="#000000" stroke-width="5" stroke-opacity="1" stroke-miterlimit="4"/><g clip-path="url(#0259a7f220)"><path fill="#000000" d="M 218.863281 872.332031 C 202.078125 872.332031 188.488281 885.921875 188.488281 902.707031 C 188.488281 919.488281 202.078125 933.082031 218.863281 933.082031 C 235.644531 933.082031 249.238281 919.488281 249.238281 902.707031 C 249.238281 885.921875 235.644531 872.332031 218.863281 872.332031 Z M 218.863281 872.332031 " fill-opacity="1" fill-rule="nonzero"/></g><g clip-path="url(#97983c52d8)"><path fill="#000000" d="M 606.824219 872.332031 C 590.042969 872.332031 576.449219 885.921875 576.449219 902.707031 C 576.449219 919.488281 590.042969 933.082031 606.824219 933.082031 C 623.609375 933.082031 637.199219 919.488281 637.199219 902.707031 C 637.199219 885.921875 623.609375 872.332031 606.824219 872.332031 Z M 606.824219 872.332031 " fill-opacity="1" fill-rule="nonzero"/></g><g clip-path="url(#2ffd14596c)"><g clip-path="url(#d29510d17f)"><g clip-path="url(#4392e1c536)"><path fill="#ffffff" d="M 365.894531 707.683594 C 349.148438 707.683594 335.582031 721.25 335.582031 737.996094 C 335.582031 754.742188 349.148438 768.304688 365.894531 768.304688 C 382.640625 768.304688 396.203125 754.742188 396.203125 737.996094 C 396.203125 721.25 382.640625 707.683594 365.894531 707.683594 Z M 365.894531 707.683594 " fill-opacity="1" fill-rule="nonzero"/></g></g></g><g clip-path="url(#8fa696d444)"><g clip-path="url(#7fd017ce58)"><g clip-path="url(#ca67ea782b)"><path stroke-linecap="butt" transform="matrix(0.75, 0, 0, 0.75, 335.583199, 707.684919)" fill="none" stroke-linejoin="miter" d="M -0.00155679 40.414903 C -0.00155679 62.732613 18.092195 80.826365 40.415113 80.826365 C 62.732824 80.826365 80.826575 62.732613 80.826575 40.414903 C 80.826575 18.091984 62.732824 -0.00176706 40.415113 -0.00176706 C 18.092195 -0.00176706 -0.00155679 18.091984 -0.00155679 40.414903 Z M -0.00155679 40.414903 " stroke="#000000" stroke-width="14" stroke-opacity="1" stroke-miterlimit="4"/></g></g></g></svg>